<?xml version="1.0" standalone="no"?>
<!DOCTYPE svg PUBLIC "-//W3C//DTD SVG 1.1//EN" "http://www.w3.org/Graphics/SVG/1.1/DTD/svg11.dtd">
<svg xmlns="http://www.w3.org/2000/svg"><metadata>This SVG WebFont was generated by YouWorkForThem.
EllenLuff.2018</metadata><defs><font horiz-adv-x="854" id="ywftsvg"><font-face ascent="1638" bbox="-518 -395 1735 2011" cap-height="1442" descent="-410" font-family="" font-stretch="normal" font-weight="900" panose-1="0 0 10 0 0 0 0 0 0 0" underline-position="0" underline-thickness="0" unicode-range="U+0020-AB53" units-per-em="2048" x-height="1442"/><missing-glyph d="M348 1442h934l-256 -1450h-934zM360 1425l-247 -1417h901l248 1417h-902zM920 1251l-209 -417l-62 417h-160l84 -522l-282 -547h139l225 449l66 -449h164l-90 551l264 518h-139zM911 1268h176l-276 -539l94 -563h-196l-62 412l-209 -412h-176l295 567l-88 535h193 l57 -381z" horiz-adv-x="1122"/><glyph d="M348 1442h934l-256 -1450h-934zM360 1425l-247 -1417h901l248 1417h-902zM920 1251l-209 -417l-62 417h-160l84 -522l-282 -547h139l225 449l66 -449h164l-90 551l264 518h-139zM911 1268h176l-276 -539l94 -563h-196l-62 412l-209 -412h-176l295 567l-88 535h193 l57 -381z" glyph-name=".notdef" horiz-adv-x="1122"/><glyph glyph-name="glyph1" horiz-adv-x="0"/><glyph glyph-name="glyph2" horiz-adv-x="317"/><glyph glyph-name="space" horiz-adv-x="317" unicode=" "/><glyph d="M301 196.5q-25 24.5 -63 24.5q-51 0 -90 -38t-39 -91q0 -35 24.5 -59.5t63.5 -24.5q49 0 89 38t40 89q0 37 -25 61.5zM297 35q-45 -43 -100 -43q-45 0 -75 28.5t-30 73.5q0 57 44 100.5t102 43.5q45 0 74.5 -30t29.5 -75q0 -55 -45 -98zM330 338l98 379l123 708h-209 l-123 -710l-41 -377h152zM342 322h-180l41 395l127 725h241l-127 -729z" glyph-name="exclam" horiz-adv-x="393" unicode="!"/><glyph d="M434 1038l115 387h-207l-20 -387h112zM446 1022h-141l21 420h243zM719 1038l115 387h-207l-21 -387h113zM731 1022h-141l20 420h244z" glyph-name="quotedbl" horiz-adv-x="673" unicode="&quot;"/><glyph d="M561 401h-117l-114 -409h-201l115 409h-101l50 177h100l100 358h-102l49 176h102l93 330h200l-92 -330h117l92 330h201l-92 -330h104l-49 -176h-105l-100 -358h104l-49 -177h-104l-115 -409h-201zM582 418l-115 -410h168l115 410h104l41 143h-104l108 391h105l40 144 h-104l92 329h-168l-92 -329h-149l92 329h-168l-92 -329h-103l-41 -144h103l-109 -391h-100l-41 -143h100l-114 -410h167l115 410h150zM494 578h116l101 358h-117zM473 561l109 391h149l-108 -391h-150z" glyph-name="numbersign" horiz-adv-x="942" unicode="#"/><glyph d="M686 965l21 118q4 29 4 45q0 37 -15 52q-18 20 -73 20q-53 0 -84 -22q-31 -25 -45 -97l-2 -20q-4 -29 -5 -41q0 -66 50 -113q10 -12 37.5 -29.5t35.5 -21.5q92 -57 127 -92q102 -113 103 -262q0 -37 -6 -78l-15 -74q-29 -174 -153 -272q-61 -49 -134 -70l-14 -76h-242 l13 76q-66 25 -109 70q-66 78 -65 194q0 20 8 82l33 176h241l-32 -178q-2 -16 -3 -41q0 -41 15 -55q20 -23 72 -23q53 0 86 23q35 27 43 98l14 74q4 25 4 37q0 68 -49 119q-14 16 -80 55q-92 57 -123 88q-51 51 -76.5 116.5t-25.5 137.5q0 47 8 82l2 20q29 174 154 273 q57 47 135 69l14 76h242l-15 -76q70 -25 109 -69q66 -78 65 -195q0 -20 -8 -82l-20 -114h-242zM932 1083q8 57 8 82q0 111 -61 178q-43 49 -117 70l14 72h-209l-14 -72q-74 -20 -137 -70q-119 -94 -148 -262l-2 -20q-6 -39 -6 -76q0 -147 96 -246q20 -23 57.5 -47t69.5 -45 q55 -31 76 -51q51 -57 51 -135q0 -25 -2 -37l-14 -72q-10 -76 -49 -108q-33 -27 -96 -27q-59 0 -84 27q-20 20 -21 65q0 20 4 45l29 160h-209l-29 -164q-8 -57 -8 -82q0 -111 62 -178q41 -51 116 -70l-12 -71h209l10 71q86 27 139 70q119 94 148 264l14 74q6 37 6 74 q0 145 -98 250q-29 33 -77 63.5t-56 34.5q-45 27 -68 45q-53 53 -53 125q0 14 4 43l2 20q16 80 53 107q33 27 93 27q66 0 86 -27q18 -20 18 -64q0 -31 -4 -47l-16 -98h208z" glyph-name="dollar" horiz-adv-x="819" unicode="$"/><glyph d="M1019 45.5q46 20.5 83 54.5q72 66 90 168l4 21q4 33 4 45q0 68 -35 119q-23 35 -61.5 55t-83.5 20t-91 -20.5t-85 -56.5q-72 -66 -88 -166l-4 -21q-4 -16 -4 -51q0 -68 32 -115q25 -35 64 -54t84 -19t91 20.5zM837 29.5q-42 21.5 -69 60.5q-37 53 -37 125q0 35 4 53l4 21 q14 100 92 174q41 39 90.5 60.5t98.5 21.5t91 -22.5t67 -61.5q39 -55 39 -129q0 -14 -5 -47l-4 -21q-23 -106 -94 -176q-39 -39 -89 -59.5t-97 -20.5q-49 0 -91 21.5zM1006.5 324.5q7.5 -17.5 3.5 -39.5l-4 -21q-4 -20 -16.5 -36.5t-24.5 -16.5q-14 0 -22.5 17.5t-4.5 39.5 l4 21q4 20 16.5 36.5t26.5 16.5t21.5 -17.5zM970 312.5q-9 -13.5 -12 -27.5l-4 -21l-2 -12q0 -10 4.5 -17.5t8.5 -7.5t13 13.5t11 27.5l4 21v6q0 12 -2 21.5t-6 9.5q-6 0 -15 -13.5zM549 935.5q47 20.5 84 55.5q70 68 90 166l2 21q4 16 4 49q0 66 -33 116q-27 35 -64.5 55.5 t-82.5 20.5t-90 -20.5t-84 -57.5q-72 -68 -90 -165l-2 -21q-4 -18 -4 -51q0 -68 32 -115q55 -74 146 -74q45 0 92 20.5zM299 981q-37 53 -37 123q0 35 4 53l2 21q18 102 94 176q41 39 90.5 60.5t96.5 21.5q49 0 90 -21.5t70 -62.5q37 -55 36 -127q0 -33 -4 -49l-2 -21 q-18 -96 -94 -176q-39 -39 -89 -59.5t-99 -20.5q-101 0 -158 82zM534.5 1214.5q8.5 -18.5 4.5 -38.5l-2 -21q-4 -23 -16.5 -38t-26.5 -15t-21.5 17.5t-3.5 37.5l2 21q4 23 16.5 39t24.5 16q14 0 22.5 -18.5zM498.5 1203.5q-9.5 -13.5 -11.5 -27.5l-2 -21l-2 -12 q0 -10 3 -17.5t8 -7.5q6 0 15 12.5t11 26.5l2 21l2 12q0 10 -4 18.5t-8 8.5t-13.5 -13.5zM973 1442h229l-700 -1450h-230zM985 1425l-688 -1417h192l689 1417h-193z" glyph-name="percent" horiz-adv-x="1222" unicode="%"/><glyph d="M716 26.5q87 36.5 165 104.5q4 6 9 9t7 5l16 -12q4 -20 5 -63q0 -41 -5 -62h213q6 43 7 90q0 131 -50 262q98 119 127 162l-161 107l-62 -80q-61 94 -129 156q-8 8 -18.5 18t-24.5 20q14 6 49 33q86 63 139.5 146.5t69.5 179.5l6 35q6 31 6 59q0 63 -26.5 114.5 t-77.5 84.5q-76 47 -180 47t-197 -49q-78 -39 -127 -106.5t-65 -153.5l-6 -35q-8 -39 -9 -82q0 -117 64 -225q0 -6 -5 -9l-5 -2h-2q-248 -154 -283 -348q-8 -43 -8 -94q0 -147 88 -240q104 -109 295 -108q88 0 175 36.5zM233 86q-92 100 -92 254q0 49 9 96q14 84 81.5 177.5 t208.5 179.5h-2q4 2 8.5 3t-4.5 -3q-61 109 -61 223q0 47 8 86l6 35q14 88 66.5 158.5t134.5 113.5q96 49 205 49t188 -51q113 -72 113 -213q0 -31 -6 -61l-6 -35q-35 -197 -216 -334l-30 -25l26 -22q59 -53 117 -139q27 29 57 71l183 -119l2 -10q-47 -66 -125 -164 q45 -135 45 -254q0 -53 -10 -110h-246q8 45 8 76q0 20 -4 57q-4 -4 -4 -6q-80 -70 -171 -108t-181 -38q-199 0 -308 113zM662 569l36 -32q82 -80 136 -179q-55 -61 -80 -82q-33 -31 -78 -53t-94 -22q-111 0 -168 57q-41 41 -41 119q0 39 4 59q14 78 155 166q33 23 58 33 q39 -39 72 -66zM541 590q-135 -84 -148 -158q-4 -20 -4 -55q0 -70 37 -107q49 -53 156 -53q84 0 161 72q23 20 70 73q-57 98 -127 162l-37 33q-27 27 -63 57zM798.5 1226q22.5 -5 41.5 -18q31 -18 30 -55q0 -12 -2 -20l-6 -35q-18 -92 -104 -160q-45 -37 -84 -51 q-59 80 -60 166q0 33 4 49l7 35q8 51 51 71q37 23 84 23q16 0 38.5 -5zM684 1194q-20 -10 -30.5 -23.5t-12.5 -37.5l-6 -35q-4 -33 -4 -47q0 -72 47 -144q31 14 70 43q80 66 98 152l6 35l2 18q0 27 -23 41q-29 18 -71 18q-43 0 -76 -20z" glyph-name="ampersand" horiz-adv-x="1214" unicode="&amp;"/><glyph d="M434 1038l115 387h-207l-20 -387h112zM446 1022h-141l21 420h243z" glyph-name="quotesingle" horiz-adv-x="389" unicode="'"/><glyph d="M451 201q-55 4 -76 26q-18 23 -19 66q0 12 4 45l136 764q16 78 51 106q29 23 88 27l35 209q-137 -4 -236 -82q-119 -94 -147 -264l-135 -764q-8 -57 -9 -82q0 -111 62 -178q66 -78 211 -82zM291.5 -4.5q-60.5 22.5 -98.5 65.5q-66 78 -66 195q0 20 8 82l135 764 q29 174 154 272q111 90 266 86l-43 -241q-61 0 -90 -23q-33 -25 -45 -98l-135 -764q-4 -25 -4 -43q0 -37 14 -51q20 -23 84 -23l-43 -242q-76 -2 -136.5 20.5z" glyph-name="parenleft" horiz-adv-x="485" unicode="("/><glyph d="M305 74q119 94 148 264l135 764q8 57 8 82q0 111 -61 178q-66 78 -211 82l-35 -209q53 -4 76 -27q18 -20 18 -65q0 -12 -4 -45l-135 -764q-16 -80 -54 -107q-29 -23 -86 -26l-34 -209q137 4 235 82zM92 217q59 0 90 23q33 25 45 98l135 764q4 25 5 43q0 37 -15 51 q-23 23 -84 23l43 241q76 2 136.5 -20.5t99.5 -65.5q66 -78 65 -194q0 -20 -8 -82l-135 -764q-29 -174 -154 -273q-111 -90 -266 -86z" glyph-name="parenright" horiz-adv-x="485" unicode=")"/><glyph d="M901 1196l-186 -80l157 -82l-178 -196l-104 137l-58 -189l-219 76l119 166l-194 -35l45 246l182 -37l-64 168l244 74l-8 -187l154 138zM877 1204l-91 166l-165 -149l8 202l-207 -65l67 -176l-194 37l-37 -205l211 39l-131 -183l182 -63l62 205l112 -150l154 168l-170 86z " glyph-name="asterisk" horiz-adv-x="749" unicode="*"/><glyph d="M885 856l-45 -244h-213l-37 -213h-244l37 213h-213l45 244h213l39 215h244l-39 -215h213zM864 840h-213l39 215h-211l-39 -215h-213l-37 -211h213l-36 -213h211l36 213h213z" glyph-name="plus" horiz-adv-x="796" unicode="+"/><glyph d="M302 208q30 -30 30 -75q0 -49 -56 -129q-29 -43 -81 -104.5t-68 -79.5l-6 -2h-66l-8 12l70 123q12 25 12 35q0 12 -10 22q-37 37 -37 84q0 55 44 99.5t101 44.5q45 0 75 -30zM138 182q-40 -39 -40 -92q0 -23 9.5 -37t23.5 -30q14 -12 14 -33q0 -23 -14 -45l-31 -56 l-30 -55h47q106 121 147 178q51 78 51 123q0 37 -24.5 61.5t-63.5 24.5q-49 0 -89 -39z" glyph-name="comma" horiz-adv-x="372" unicode=","/><glyph d="M164 856h385l-43 -242h-385zM176 840l-35 -209h353l34 209h-352z" glyph-name="hyphen" horiz-adv-x="409" unicode="-"/><glyph d="M288.5 190.5q-24.5 24.5 -63.5 24.5q-49 0 -89 -38t-40 -89q0 -37 24.5 -61.5t63.5 -24.5q51 0 90 38t39 91q0 35 -24.5 59.5zM286 29q-44 -43 -102 -43q-45 0 -74.5 29.5t-29.5 74.5q0 55 45 98t100 43q45 0 75 -28.5t30 -73.5q0 -57 -44 -100z" glyph-name="period" horiz-adv-x="372" unicode="."/><glyph d="M823 1442h213l-827 -1450h-213zM831 1425l-806 -1417h176l807 1417h-177z" glyph-name="slash" horiz-adv-x="780" unicode="/"/><glyph d="M647 74q119 94 148 264l135 762q8 57 8 82q0 111 -61 178q-74 82 -218 82q-72 0 -135 -21.5t-110 -60.5q-119 -94 -148 -264l-135 -762q-8 -57 -8 -82q0 -111 61 -178q35 -39 91.5 -60.5t125.5 -21.5q142 0 246 82zM268.5 -2.5q-59.5 22.5 -96.5 63.5q-66 78 -66 195 q0 20 9 82l135 762q29 172 151 272q51 41 118 63.5t140 22.5q147 0 230 -86q66 -78 65 -194q0 -20 -8 -82l-135 -762q-29 -174 -154 -273q-104 -86 -256 -86q-73 0 -132.5 22.5zM705 1206q20 -20 20 -65q0 -20 -4 -45l-135 -762q-14 -80 -51 -107q-33 -27 -95 -26 q-61 0 -86 26q-18 23 -18 66q0 12 4 45l135 760q10 78 51 108q33 27 92 27q67 0 87 -27zM535 1194q-35 -27 -43 -98l-136 -762q-4 -25 -4 -43q0 -37 15 -51q20 -23 73 -23q55 0 84 23q31 25 45 98l136 760q2 16 2 41q0 41 -15 57q-18 20 -74 21q-52 0 -83 -23z" glyph-name="zero" horiz-adv-x="806" unicode="0"/><glyph d="M254 1141l383 301h141l-256 -1450h-241l182 1028l-266 -209zM270 1133l-49 -281l266 209l-186 -1053h209l248 1417h-117z" glyph-name="one" horiz-adv-x="598" unicode="1"/><glyph d="M743 8l35 209h-456l34 186q14 98 103 164q27 23 56.5 37t55.5 27q86 39 146 84q84 66 136 147.5t69 175.5l12 62q6 43 6 80q0 111 -59 180q-74 82 -217 82t-248 -82q-117 -92 -146 -264l-20 -115h209l20 119q16 80 51 106q33 27 93 27q66 0 86 -27q20 -20 20 -65 q0 -12 -4 -45l-12 -62q-16 -92 -101 -160q-20 -16 -106 -59q-12 -6 -64.5 -32.5t-89.5 -55.5q-174 -135 -205 -328l-69 -391h665zM131 403q16 96 70.5 182.5t142.5 153.5q55 43 170 99q70 35 88 49q80 63 94 151l13 62q4 25 4 41q0 37 -17 55q-18 20 -73 21q-53 0 -84 -23 q-31 -25 -43 -98l-25 -131h-242l25 135q16 98 58 165.5t94 106.5q109 86 258 86q147 0 229 -86q66 -78 65 -194q0 -20 -8 -82l-12 -62q-16 -96 -70.5 -181t-142.5 -151q-57 -45 -101 -65.5t-51 -24.5q-66 -27 -106 -57q-80 -68 -94 -156l-31 -166h457l-43 -241h-699z" glyph-name="two" horiz-adv-x="813" unicode="2"/><glyph d="M739 745q86 -100 86 -243q0 -37 -6 -78l-16 -92q-33 -178 -154 -273q-109 -86 -258 -86q-147 0 -227 86q-66 78 -66 193q0 43 8 84l19 102h242l-19 -106q-4 -25 -4 -43q0 -37 14 -51q20 -23 74 -23q55 0 84 23q31 25 45 98l17 92q4 25 4 37q0 68 -50 119q-18 23 -40.5 35 t-28.5 14l-72 33l27 163l84 29h-2q2 0 28.5 11.5t65.5 43.5q78 63 96 156l4 29q4 29 4 45q0 37 -14 51q-18 20 -74 20q-53 0 -84 -22q-33 -25 -45 -98l-8 -43h-242l9 47q31 172 153 272q109 86 258 86q147 0 228 -86q66 -74 65 -190q0 -45 -8 -86l-4 -29q-35 -191 -193 -320 zM920 1098q8 41 8 86q0 106 -62 174q-70 82 -215 82q-143 0 -248 -82q-117 -98 -147 -264l-4 -27h209l4 31q16 80 53 106q33 27 92 27q66 0 86 -27q18 -20 19 -63q0 -31 -4 -47l-4 -29q-18 -98 -103 -164q-39 -31 -96 -59h-2l-72 -25l-26 -143l63 -25q6 -4 28.5 -17.5 t45.5 -35.5q51 -57 51 -135q0 -25 -2 -37l-16 -92q-14 -80 -52 -107q-33 -27 -94 -26q-61 0 -86 26q-18 23 -18 66q0 12 4 45l14 86h-209l-14 -90q-8 -39 -8 -82q0 -109 61 -178q70 -82 215 -82q143 0 248 82q117 92 147 264l17 92q6 41 6 76q0 145 -94 241q166 133 200 324 z" glyph-name="three" horiz-adv-x="788" unicode="3"/><glyph d="M788 1442h238l-174 -987h59l-43 -242h-59l-39 -221h-242l39 221h-497l24 137zM797 1425l-686 -1079l-21 -117h498l-39 -221h209l39 221h59l35 209h-60l175 987h-209zM610 455l82 460l-266 -460h184zM623 438h-226l328 568z" glyph-name="four" horiz-adv-x="884" unicode="4"/><glyph d="M645 72q117 92 148 264l20 121q6 41 6 75q0 143 -96 246q-39 39 -78 62.5t-53 27.5q-8 2 -29.5 16.5t-42.5 37.5q-53 57 -53 129q0 14 4 43l23 123h456l35 208h-666l-57 -335q-6 -39 -6 -78q0 -147 96 -246q37 -41 75 -64.5t52 -27.5h-2h2h4q6 -4 27.5 -17.5t44.5 -35.5 q53 -57 53 -127q0 -12 -4 -41l-20 -121q-14 -80 -52 -107q-33 -27 -94 -26q-61 0 -86 26q-18 23 -18 66q0 12 4 45l20 117h-208l-21 -121q-8 -39 -8 -82q0 -106 61 -178q70 -82 215 -82q144 0 248 82zM170 59q-66 78 -66 193q0 43 9 84l24 133h242l-25 -137q-4 -25 -4 -43 q0 -37 15 -51q20 -23 73 -23q55 0 84 23q31 25 45 98l21 121q4 25 4 37q0 66 -49 114q-25 29 -66 49v0h-2q-12 4 -54 30t-81 67q-100 106 -100 260q0 41 6 80l61 348h699l-43 -242h-457l-19 -110q-4 -29 -4 -41q0 -66 49 -115q25 -29 48.5 -42t21.5 -13q-37 16 -5 3.5 t67.5 -35t70.5 -56.5q100 -106 101 -261q0 -37 -7 -77l-20 -121q-33 -178 -154 -273q-109 -86 -258 -86q-147 0 -227 86z" glyph-name="five" horiz-adv-x="794" unicode="5"/><glyph d="M682 979l23 119q2 16 2 41q0 41 -15 57q-18 20 -74 21q-53 0 -83 -23q-35 -27 -43 -98l-43 -242q49 12 106 12q147 0 229 -86q66 -78 66 -194q0 -20 -8 -82l-31 -170q-29 -174 -154 -273q-104 -86 -256 -86q-154 0 -229 86q-66 78 -66 195q0 20 9 82l30 170l105 592 q29 172 151 272q109 86 258 86q147 0 230 -86q66 -78 65 -194q0 -20 -8 -82l-22 -117h-242zM930 1100q8 57 8 82q0 111 -61 178q-74 82 -218 82q-145 0 -245 -82q-119 -94 -148 -264l-104 -592l-31 -170q-8 -57 -8 -82q0 -111 61 -178q72 -82 217 -82q141 0 246 82 q119 94 148 264l30 170q6 43 6 80q0 111 -59 180q-74 82 -217 82q-76 0 -127 -19l47 267q10 78 51 108q33 27 92 27q66 0 87 -27q20 -20 20 -65q0 -20 -4 -45l-19 -101h209zM387 504l-31 -170q-4 -25 -4 -43q0 -37 15 -51q20 -23 73 -23q55 0 84 23q31 25 45 98l31 170 q4 25 4 41q0 37 -16 55q-18 20 -74 21q-53 0 -84 -23q-31 -24 -43 -98zM514 641q66 0 86 -27q20 -20 21 -65q0 -12 -5 -45l-30 -170q-14 -80 -51 -107q-33 -27 -95 -26q-61 0 -86 26q-18 23 -18 66q0 12 4 45l31 170q16 80 51 106q33 27 92 27z" glyph-name="six" horiz-adv-x="796" unicode="6"/><glyph d="M975 1442l-594 -1450h-250l496 1208h-394l43 242h699zM950 1425h-661l-35 -208h397l-495 -1209h213z" glyph-name="seven" horiz-adv-x="731" unicode="7"/><glyph d="M637 74q119 94 147 264l15 88q8 53 8 78q0 141 -96 241q168 135 202 326l7 29q8 57 8 82q0 111 -62 178q-74 82 -217 82q-145 0 -246 -82q-119 -94 -147 -264l-8 -37q-6 -37 -6 -74q0 -135 90 -242q-160 -125 -195 -313l-16 -96q-8 -57 -8 -82q0 -111 61 -178 q72 -82 217 -82q142 0 246 82zM162 61q-66 78 -66 195q0 20 8 82l17 96q35 184 186 314q-82 100 -82 237q0 39 6 78l9 37q29 172 151 272q109 86 258 86q147 0 230 -86q66 -78 65 -194q0 -20 -8 -82l-6 -29q-35 -188 -195 -322q88 -104 88 -241q0 -25 -8 -82l-14 -88 q-29 -174 -154 -273q-104 -86 -256 -86q-153 0 -229 86zM545 590q49 -55 49 -125q0 -14 -4 -43l-15 -88q-16 -80 -53 -107q-33 -27 -92 -26q-61 0 -86 26q-18 23 -18 66q0 12 4 45l16 96q16 94 103 160q18 14 49 35q22 -14 47 -39zM457 582q-78 -59 -95 -152l-16 -96 q-4 -25 -4 -43q0 -37 14 -51q20 -23 74 -23q53 0 84 23q33 25 45 98l14 88q4 29 5 39q0 66 -46 113q-27 27 -34 30q-12 -6 -41 -26zM694 1206q18 -20 19 -69q0 -27 -2 -41l-6 -29q-16 -96 -105 -164q-29 -23 -57 -41q-18 12 -41 35q-49 55 -49 127q0 10 4 39l8 35 q10 78 51 108q33 27 92 27q61 0 86 -27zM524 1194q-35 -27 -43 -98l-8 -37q-4 -25 -4 -37q0 -66 45 -113q8 -10 29 -26q33 20 49 32q82 66 96 156l6 27q2 12 2 39q0 43 -14 57q-20 23 -74 23q-53 0 -84 -23z" glyph-name="eight" horiz-adv-x="786" unicode="8"/><glyph d="M367 455l-21 -123q-4 -25 -4 -43q0 -37 14 -51q20 -23 74 -23q55 0 84 23q31 25 45 98l43 242q-49 -12 -108 -13q-147 0 -228 86q-66 70 -65 191q0 45 8 86l29 170q31 172 153 272q109 86 258 86q147 0 228 -86q66 -74 65 -190q0 -45 -8 -86l-29 -170l-104 -592 q-33 -178 -154 -273q-109 -86 -258 -86q-147 0 -227 86q-66 78 -66 193q0 43 8 84l21 119h242zM121 332q-8 -39 -8 -82q0 -106 61 -178q70 -82 215 -82q143 0 248 82q117 92 147 264l105 592l29 170q8 41 8 86q0 106 -62 174q-70 82 -215 82q-143 0 -248 -82 q-117 -98 -147 -264l-29 -170q-8 -39 -8 -84q0 -111 62 -176q70 -82 215 -82q78 0 129 18l-48 -268q-14 -80 -51 -107q-33 -27 -94 -26q-61 0 -86 26q-18 23 -18 66q0 12 4 45l16 102h-209zM664 928l28 170q4 29 4 45q0 37 -14 51q-18 20 -74 20q-53 0 -84 -22 q-33 -25 -45 -98l-28 -170q-4 -29 -5 -43q0 -37 15 -52q20 -23 74 -22q55 0 83 22q34 23 46 99zM535 791q-61 0 -86 26q-18 23 -19 66q0 12 4 45l29 170q16 80 53 106q33 27 92 27q66 0 86 -27q18 -20 19 -63q0 -31 -4 -47l-29 -170q-14 -80 -51 -107q-33 -26 -94 -26z" glyph-name="nine" horiz-adv-x="796" unicode="9"/><glyph d="M288.5 190.5q-24.5 24.5 -63.5 24.5q-49 0 -89 -38t-40 -89q0 -37 24.5 -61.5t63.5 -24.5q51 0 90 38t39 91q0 35 -24.5 59.5zM286 29q-44 -43 -102 -43q-45 0 -74.5 29.5t-29.5 74.5q0 55 45 98t100 43q45 0 75 -28.5t30 -73.5q0 -57 -44 -100zM453 909q0 37 -26 61.5 t-65 24.5q-49 0 -87.5 -37.5t-38.5 -91.5q0 -35 24.5 -59.5t63.5 -24.5q45 0 81.5 32t45.5 77q2 6 2 18zM424 809q-45 -43 -100 -43q-45 0 -75 28.5t-30 73.5q0 57 43 100.5t100 43.5q47 0 77 -30t30 -77q0 -53 -45 -96z" glyph-name="colon" horiz-adv-x="372" unicode=":"/><glyph d="M300 202.5q30 -28.5 30 -71.5q0 -14 -2 -22q-6 -47 -54 -111q-29 -43 -81 -104.5t-68 -79.5l-6 -2h-66l-8 12l72 123q10 20 10 35q0 14 -8 22q-39 35 -39 86q0 12 2 21q10 49 51 84.5t92 35.5q45 0 75 -28.5zM143 183.5q-37 -31.5 -45 -77.5q-2 -6 -2 -20q0 -39 35 -70 q12 -14 12 -32q0 -23 -14 -45l-31 -56l-30 -55h47q106 121 147 178q43 59 49 105q2 6 2 20q0 35 -24.5 59.5t-63.5 24.5q-45 0 -82 -31.5zM453 909q0 37 -26 61.5t-65 24.5q-49 0 -87.5 -37.5t-38.5 -91.5q0 -35 24.5 -59.5t63.5 -24.5q45 0 81.5 32t45.5 77q2 6 2 18z M424 809q-45 -43 -100 -43q-45 0 -75 28.5t-30 73.5q0 57 43 100.5t100 43.5q47 0 77 -30t30 -77q0 -53 -45 -96z" glyph-name="semicolon" horiz-adv-x="372" unicode=";"/><glyph d="M178 625l535 -260l43 233l-287 135l334 139l41 232l-625 -262zM162 616l41 238l661 274l-45 -268l-309 -127l262 -127l-47 -266z" glyph-name="less" horiz-adv-x="739" unicode="&lt;"/><glyph d="M860 801l37 211h-639l-37 -211h639zM872 784h-671l45 244h672zM801 461l37 213h-639l-37 -213h639zM813 444h-672l45 246h672z" glyph-name="equal" horiz-adv-x="798" unicode="="/><glyph d="M819 844l-534 260l-41 -234l284 -137l-331 -137l-43 -229l624 260zM836 852l-41 -238l-662 -276l47 270l307 125l-260 129l45 266z" glyph-name="greater" horiz-adv-x="739" unicode=">"/><glyph d="M399.5 196.5q-24.5 24.5 -63.5 24.5q-51 0 -90 -38t-39 -91q0 -35 24.5 -59.5t63.5 -24.5q49 0 89 38t40 89q0 37 -24.5 61.5zM395 35q-45 -43 -100 -43q-45 0 -75 28.5t-30 73.5q0 57 44.5 100.5t101.5 43.5q45 0 74.5 -30t29.5 -75q0 -55 -45 -98zM231 330l15 80 q20 111 67 192.5t127 142.5q100 78 143.5 116t71 81t37.5 105l10 55q4 25 5 43q0 37 -15 51q-23 23 -74 23q-57 0 -83 -23q-31 -25 -46 -98l-24 -131h-242l25 135q29 174 153 272q104 86 256 86q154 0 230 -86q66 -78 65 -194q0 -20 -8 -82l-10 -56q-39 -217 -193 -333 q-100 -78 -144 -116t-71.5 -81t-38.5 -106l-12 -70l-8 -6h-236zM471 410q10 63 40 109t74 84t148 118q150 115 185 326l10 55q8 57 8 82q0 111 -62 178q-72 82 -217 82q-141 0 -245 -82q-119 -94 -148 -264l-20 -115h209l20 119q14 80 51 106q29 27 94 27q59 0 87 -27 q18 -20 18 -65q0 -12 -4 -45l-10 -56q-10 -63 -40 -108t-73 -83t-147 -118q-76 -59 -122 -139t-65 -188l-10 -60h209z" glyph-name="question" horiz-adv-x="802" unicode="?"/><glyph d="M967 242q113 0 194 43l10 -13q-88 -143 -235.5 -221t-325.5 -78q-236 0 -362 133q-111 119 -111 310q0 59 13 133l57 328q29 160 98.5 267t155.5 171q84 66 187.5 99.5t219.5 33.5q117 0 210 -34t155 -99q109 -117 108 -307q0 -61 -12 -136l-31 -172q-25 -158 -106 -245 q-86 -96 -207 -97q-82 0 -135 48q-76 -47 -170 -48q-57 0 -103.5 18.5t-74.5 53.5q-49 57 -49 152q0 31 6 67l22 127q23 139 117 215q82 72 203 72q35 0 47 -2l4 10h223l-67 -371q-6 -39 -7 -67q0 -37 9 -47q4 -4 10 -4t14 4q29 35 41 119l31 172q10 61 10 100 q0 111 -61 172q-70 76 -224 76t-253 -76q-113 -86 -148 -277l-57 -327q-10 -57 -11 -96q0 -113 62 -175q72 -78 223 -77q111 0 197 43v-2q6 6 26 14q38 -10 97 -10zM852 225v-2q-92 -43 -205 -43q-158 0 -235 82q-66 66 -66 184q0 41 10 103l58 328q33 193 155 284 q102 80 262 80t236 -80q66 -66 66 -186q0 -41 -11 -103l-30 -172q-8 -53 -19.5 -77.5t-25.5 -47.5q-10 -10 -27 -10q-16 0 -23 13q-12 18 -12 57q0 33 6 70l64 350h-191l-6 -15q-12 6 -57 7q-117 0 -191 -68q-90 -72 -112 -207l-23 -127q-6 -33 -6 -67q0 -88 45 -136 q51 -68 166 -67q100 0 170 51q55 -51 135 -51q113 0 195 92q78 84 102 238l31 172q12 72 12 131q0 190 -104 295q-59 63 -149.5 96t-203.5 33q-229 0 -399 -129q-197 -152 -246 -431l-57 -327q-12 -74 -12 -133q0 -186 106 -293q117 -129 350 -129q174 0 317.5 75.5 t231.5 215.5l10 -13q-92 -43 -202 -43q-63 0 -97 11q-12 -9 -18 -11zM776 649l23 127q2 12 2 31q0 18 -4 27q-6 6 -33 6q-29 0 -37 -9q-16 -14 -22 -59l-23 -127q-4 -29 -4 -37q0 -12 4 -20l-2 2q14 -8 35 -8q27 0 37 8q16 12 24 59zM715 565q-31 0 -43 13l-2 2q-8 8 -8 32 q0 8 4 37l22 127q6 51 27 68q16 12 49 12t45 -14q8 -8 8 -33q0 -23 -2 -37l-22 -127q-10 -53 -31 -67q-12 -13 -47 -13z" glyph-name="at" horiz-adv-x="1228" unicode="@"/><glyph d="M588 -8v227h-244l-82 -227h-248l545 1450h240l35 -1450h-246zM604 8h213l-35 1417h-211l-532 -1417h211l82 228h272v-228zM428 461h160v459zM403 444l201 570v-570h-201z" glyph-name="A" unicode="A"/><glyph d="M668 86q57 45 96 113q37 66 51 147l23 131q6 41 6 76q0 123 -80 180q100 74 127 223l24 134q6 43 7 81q0 35 -7 66q-12 66 -55 111q-74 78 -217 77h-303l-248 -1417h330q140 0 246 78zM72 -8l256 1450h315q147 0 229 -82q47 -49 60 -119q6 -31 6 -67q0 -39 -6 -89 l-25 -133q-29 -145 -116 -219q72 -61 71 -180q0 -23 -8 -80l-23 -131q-16 -84 -53 -152q-45 -76 -102 -116q-106 -82 -254 -82h-350zM408 610h120q59 0 86 -26q18 -20 19 -66q0 -12 -4 -45l-23 -131q-12 -70 -49 -100q-31 -25 -96 -25h-125zM461 233q57 0 86 21q31 23 43 92 l22 131q4 29 4 43q0 37 -14 51q-23 23 -74 23h-108l-64 -361h105zM514 1217h90q66 0 88 -25q16 -18 17 -66q0 -27 -2 -41l-25 -133q-12 -74 -51 -106q-33 -27 -94 -27h-95zM537 836q57 0 81 22q33 27 48 98l24 131q2 12 2 41q0 39 -12 52q-18 20 -76 20h-78l-63 -364h74z " glyph-name="B" horiz-adv-x="815" unicode="B"/><glyph d="M647 74q119 94 148 264l30 174h-209l-30 -178q-14 -80 -51 -107q-33 -27 -95 -26q-59 0 -86 26q-18 23 -18 66q0 12 4 45l135 760q10 78 51 108q33 27 92 27q63 0 89 -27q18 -20 18 -65q0 -16 -4 -45l-21 -117h209l21 121q8 57 8 82q0 111 -61 178q-74 82 -218 82 q-141 0 -245 -82q-119 -100 -148 -264l-135 -762q-6 -39 -6 -78q0 -106 59 -182q76 -82 217 -82q142 0 246 82zM172 61q-63 82 -63 197q0 37 6 80l135 762q29 170 153 272q109 86 256 86t230 -86q66 -78 65 -194q0 -20 -8 -82l-24 -133h-242l25 135q4 37 4 47q0 35 -15 49 q-20 23 -76 23q-51 0 -83 -23q-35 -27 -43 -98l-136 -762q-4 -25 -4 -43q0 -37 15 -51q20 -23 73 -23q57 0 86 23q33 29 43 98l35 190h242l-35 -194q-29 -174 -154 -273q-104 -86 -256 -86q-149 0 -229 86z" glyph-name="C" horiz-adv-x="798" unicode="C"/><glyph d="M668 86q57 45 96 113q35 59 51 147l129 737q6 41 6 78q0 111 -59 180q-74 84 -217 84h-334l-248 -1417h330q140 0 246 78zM72 -8l256 1450h346q152 0 229 -88q66 -78 66 -193q0 -25 -8 -82l-130 -737q-16 -86 -53 -152q-39 -70 -102 -116q-106 -82 -254 -82h-350z M514 1217h121q61 0 86 -27q18 -20 18 -66q0 -12 -4 -45l-129 -737q-16 -76 -49 -100q-31 -25 -96 -25h-125zM461 233q57 0 86 21q31 25 43 92l129 737q4 25 4 41q0 37 -14 54q-20 23 -74 22h-109l-170 -967h105z" glyph-name="D" horiz-adv-x="825" unicode="D"/><glyph d="M895 1200h-369l-59 -344h254l-43 -242h-254l-68 -381h369l-43 -241h-610l256 1450h610zM883 1217l35 208h-578l-248 -1417h578l35 209h-369l76 414h254l34 209h-254l68 377h369z" glyph-name="E" horiz-adv-x="733" unicode="E"/><glyph d="M895 1200h-369l-59 -344h256l-43 -242h-256l-111 -622h-241l256 1450h610zM883 1217l35 208h-578l-248 -1417h209l111 623h256l34 209h-256l68 377h369z" glyph-name="F" horiz-adv-x="704" unicode="F"/><glyph d="M647 74q119 94 148 264l84 483h-322l-35 -209h113l-49 -278q-14 -80 -51 -107q-33 -27 -95 -26q-59 0 -86 26q-18 23 -18 66q0 12 4 45l135 760q10 78 51 108q33 27 92 27q63 0 89 -27q18 -20 18 -65q0 -16 -4 -45l-21 -117h209l21 121q8 57 8 82q0 111 -61 178 q-74 82 -218 82q-141 0 -245 -82q-119 -100 -148 -264l-135 -762q-6 -39 -6 -78q0 -106 59 -182q76 -82 217 -82q142 0 246 82zM172 61q-63 82 -63 197q0 37 6 80l135 762q29 170 153 272q109 86 256 86t230 -86q66 -78 65 -194q0 -20 -8 -82l-24 -133h-242l25 135 q4 37 4 47q0 35 -15 49q-20 23 -76 23q-51 0 -83 -23q-35 -27 -43 -98l-136 -762q-4 -25 -4 -43q0 -37 15 -51q20 -23 73 -23q57 0 86 23q33 29 43 98l45 258h-112l43 242h354l-88 -504q-29 -174 -154 -273q-104 -86 -256 -86q-149 0 -229 86z" glyph-name="G" horiz-adv-x="808" unicode="G"/><glyph d="M782 1442h242l-256 -1450h-242l111 622h-213l-111 -622h-241l256 1450h241l-102 -586h213zM795 1425l-103 -585h-246l103 585h-209l-248 -1417h209l111 623h245l-110 -623h209l248 1417h-209z" glyph-name="H" horiz-adv-x="843" unicode="H"/><glyph d="M301 8l248 1417h-209l-248 -1417h209zM313 -8h-241l256 1450h241z" glyph-name="I" horiz-adv-x="389" unicode="I"/><glyph d="M614 74q119 100 148 264l190 1087h-209l-190 -1091q-16 -80 -53 -107q-33 -27 -92 -26q-63 0 -89 26q-18 18 -18 62q0 23 6 49l29 168h-209l-29 -172q-8 -57 -8 -82q0 -111 62 -178q72 -82 217 -82q139 0 245 82zM139 61q-66 78 -65 195q0 20 8 82l33 184h241l-32 -188 q-6 -43 -7 -47q0 -33 15 -47q20 -23 76 -23q51 0 84 23q33 25 45 98l194 1104h242l-195 -1108q-29 -170 -153 -273q-106 -86 -256 -86q-154 0 -230 86z" glyph-name="J" horiz-adv-x="782" unicode="J"/><glyph d="M653 752l158 -760h-258l-92 444l-96 -157l-52 -287h-241l256 1450h241l-96 -549l332 549h262zM637 756l401 669h-225l-373 -614l109 614h-209l-248 -1417h209l47 275l121 198l96 -473h226z" glyph-name="K" horiz-adv-x="827" unicode="K"/><glyph d="M670 8l35 209h-369l213 1208h-209l-248 -1417h578zM682 -8h-610l256 1450h241l-213 -1209h369z" glyph-name="L" horiz-adv-x="702" unicode="L"/><glyph d="M1147 1442h143l-256 -1450h-241l120 676l-249 -451h-142l-88 453l-121 -678h-241l256 1450h141l203 -783zM1155 1425l-491 -807l-207 807h-117l-248 -1417h209l133 752l101 -527h120l291 529l-133 -754h209l248 1417h-115z" glyph-name="M" horiz-adv-x="1110" unicode="M"/><glyph d="M1036 1442l-256 -1450h-143l-207 700l-125 -700h-242l256 1450h144l209 -699l123 699h241zM1016 1425h-209l-131 -751l-225 751h-119l-248 -1417h209l133 754l223 -754h119z" glyph-name="N" horiz-adv-x="847" unicode="N"/><glyph d="M647 74q119 94 148 264l135 762q8 57 8 82q0 111 -61 178q-74 82 -218 82q-145 0 -245 -82q-119 -94 -148 -264l-135 -762q-8 -57 -8 -82q0 -111 61 -178q72 -82 217 -82q142 0 246 82zM172 61q-66 78 -66 195q0 20 9 82l135 762q29 172 151 272q109 86 258 86 q147 0 230 -86q66 -78 65 -194q0 -20 -8 -82l-135 -762q-29 -174 -154 -273q-104 -86 -256 -86q-153 0 -229 86zM705 1206q20 -20 20 -65q0 -20 -4 -45l-135 -762q-14 -80 -51 -107q-33 -27 -95 -26q-61 0 -86 26q-18 23 -18 66q0 12 4 45l135 760q10 78 51 108q33 27 92 27 q67 0 87 -27zM535 1194q-35 -27 -43 -98l-136 -762q-4 -25 -4 -43q0 -37 15 -51q20 -23 73 -23q55 0 84 23q31 25 45 98l136 760q2 16 2 41q0 41 -15 57q-18 20 -74 21q-52 0 -83 -23z" glyph-name="O" horiz-adv-x="806" unicode="O"/><glyph d="M401 582h121q143 0 248 82q117 94 148 264l26 155q6 41 6 78q0 111 -59 180q-74 84 -217 84h-334l-248 -1417h209zM72 -8l256 1450h346q152 0 229 -88q66 -78 66 -193q0 -25 -8 -82l-27 -155q-18 -98 -60.5 -166t-93.5 -107q-109 -86 -258 -86h-108l-101 -573h-241z M514 1217h121q61 0 86 -27q18 -20 18 -66q0 -12 -4 -45l-26 -155q-12 -76 -54 -107q-33 -27 -92 -26h-125zM563 807q53 0 84 22q33 25 45 99l27 155q4 25 4 41q0 37 -14 54q-20 23 -74 22h-109l-67 -393h104z" glyph-name="P" horiz-adv-x="802" unicode="P"/><glyph d="M776 -37l-43 -242h-35q-150 0 -229 86q-57 66 -63 168h-5q-74 0 -132 22.5t-97 65.5q-66 78 -66 193q0 25 9 82l135 762q16 98 58 165.5t93 106.5q51 41 118 63.5t140 22.5q147 0 230 -86q66 -78 65 -194q0 -20 -8 -82l-135 -762q-31 -172 -152 -271q-6 -6 -8 -6v-22 q0 -37 13 -49q20 -23 73 -23h39zM651 -27q-23 29 -16 90q2 4 7 7.5t3 3.5q59 45 97 112.5t53 151.5l135 762q6 43 6 80q0 111 -59 180q-74 82 -218 82q-147 0 -247 -82q-117 -92 -146 -264l-135 -762q-6 -39 -6 -78q0 -111 59 -180q35 -41 91.5 -62.5t125.5 -21.5h19 q4 -109 61 -172q76 -82 217 -82h23l35 209h-19q-59 -1 -86 26zM440 217q55 0 84 23q33 31 45 98l136 762q4 25 4 41q0 37 -17 55q-18 20 -74 21q-53 0 -83 -23q-31 -25 -43 -98l-136 -762q-4 -25 -4 -41q0 -37 15 -53q20 -23 73 -23zM336 293q0 12 4 45l135 762 q16 80 51 106q33 27 92 27q66 0 87 -27q20 -20 20 -65q0 -12 -4 -45l-135 -762q-14 -76 -51 -107q-33 -27 -95 -26q-61 0 -86 26q-18 23 -18 66z" glyph-name="Q" horiz-adv-x="821" unicode="Q"/><glyph d="M764 -8h-246l-14 575h-88l-103 -575h-241l256 1450h346q152 0 229 -88q66 -78 66 -193q0 -25 -8 -82l-27 -153q-29 -174 -152 -273q-18 -14 -37 -24zM770 666q119 96 148 264l26 153q6 41 6 78q0 111 -59 180q-74 84 -217 84h-334l-248 -1417h209l102 576h117l15 -576 h213l-19 629q16 11 41 29zM719 1083q4 25 4 41q0 37 -14 54q-20 23 -74 22h-109l-67 -391h104q53 0 84 22q33 25 45 99zM655 819q-33 -27 -92 -26h-125l76 424h121q61 0 86 -27q18 -20 18 -66q0 -12 -4 -45l-26 -153q-13 -76 -54 -107z" glyph-name="R" horiz-adv-x="813" unicode="R"/><glyph d="M633 74q119 94 147 264l17 90q6 37 6 74q0 145 -98 250q-29 33 -77 63.5t-57 34.5q-45 27 -67 45q-53 53 -53 127q0 14 4 43l6 33q10 78 51 108q33 27 92 27q66 0 86 -27q20 -20 21 -65q0 -20 -4 -45l-21 -115h209l20 119q8 57 9 82q0 111 -62 178q-74 82 -217 82 q-145 0 -246 -82q-119 -94 -147 -264l-6 -35q-6 -39 -6 -76q0 -147 96 -246q20 -23 57 -47t70 -45q55 -31 76 -51q51 -57 51 -135q0 -25 -2 -37l-17 -90q-14 -80 -51 -107q-33 -27 -94 -26q-61 0 -86 26q-18 23 -18 66q0 12 4 45l30 176h-209l-30 -180q-8 -57 -8 -82 q0 -111 61 -178q72 -82 217 -82q142 0 246 82zM158 61q-66 78 -66 195q0 20 8 82l35 192h242l-35 -196q-4 -25 -4 -43q0 -37 14 -51q20 -23 74 -23q55 0 84 23q31 25 45 98l16 90q4 25 4 37q0 68 -49 119q-14 16 -80 55q-92 57 -122 88q-102 106 -103 256q0 43 8 82l7 35 q29 172 151 272q109 86 258 86q147 0 229 -86q66 -78 66 -194q0 -20 -8 -82l-25 -131h-241l24 133q2 16 2 41q0 41 -14 57q-18 20 -74 21q-53 0 -84 -23q-35 -27 -43 -98l-6 -35q-4 -29 -4 -41q0 -66 49 -113q10 -12 38 -29.5t36 -21.5q92 -57 127 -92q102 -113 102 -262 q0 -37 -6 -78l-16 -90q-29 -174 -154 -273q-104 -86 -256 -86q-153 0 -229 86z" glyph-name="S" horiz-adv-x="778" unicode="S"/><glyph d="M967 1442l-43 -242h-230l-213 -1208h-241l213 1208h-230l43 242h701zM946 1425h-667l-35 -208h229l-213 -1209h209l213 1209h229z" glyph-name="T" horiz-adv-x="722" unicode="T"/><glyph d="M655 74q119 100 148 264l190 1087h-209l-190 -1091q-16 -80 -53 -107q-33 -27 -92 -26q-63 0 -89 26q-18 18 -18 62q0 23 6 49l191 1087h-209l-191 -1091q-8 -57 -8 -82q0 -111 62 -178q72 -82 217 -82q139 0 245 82zM180 61q-66 78 -65 195q0 20 8 82l194 1104h242 l-194 -1108q-6 -43 -7 -47q0 -33 15 -47q20 -23 76 -23q51 0 83 23q33 25 46 98l194 1104h242l-195 -1108q-29 -170 -153 -273q-106 -86 -256 -86q-154 0 -230 86z" glyph-name="U" horiz-adv-x="823" unicode="U"/><glyph d="M512 512l326 930h247l-544 -1450h-240l-35 1450h246v-930zM496 418v1007h-213l34 -1417h211l533 1417h-211z" glyph-name="V" horiz-adv-x="843" unicode="V"/><glyph d="M1051 1442h243l-432 -1450h-139l-72 690l-313 -690h-139l75 1450h244l-45 -678l201 450h143l41 -450zM1063 1425l-213 -751l-49 524h-115l-233 -524l49 751h-211l-76 -1417h111l333 735l80 -735h111l424 1417h-211z" glyph-name="W" horiz-adv-x="1062" unicode="W"/><glyph d="M838 -8h-256l-84 407l-224 -407h-258l400 725l-144 725h256l82 -408l224 408h260l-400 -729zM817 8l-139 709l387 708h-223l-240 -440l-86 440h-223l139 -712l-387 -705h221l240 441l88 -441h223z" glyph-name="X" horiz-adv-x="858" unicode="X"/><glyph d="M1057 1442l-447 -940l-90 -510h-244l91 512l-115 938h256l57 -494l236 494h256zM1032 1425h-219l-256 -534l-65 534h-220l111 -921l-86 -496h211l86 498z" glyph-name="Y" horiz-adv-x="802" unicode="Y"/><glyph d="M727 8l37 211h-375l584 1206h-664l-35 -211h375l-586 -1206h664zM739 -8h-700l586 1206h-371l43 244h700l-583 -1206h370z" glyph-name="Z" horiz-adv-x="784" unicode="Z"/><glyph d="M416 8l35 209h-115l178 1000h115l35 208h-324l-248 -1417h324zM428 -8h-356l256 1450h356l-43 -242h-115l-170 -967h115z" glyph-name="bracketleft" horiz-adv-x="483" unicode="["/><glyph d="M780 -8h-211l-317 1450h211zM760 8l-309 1417h-179l310 -1417h178z" glyph-name="backslash" horiz-adv-x="780" unicode="\"/><glyph d="M72 8h323l248 1417h-324l-34 -208h114l-178 -1000h-115zM51 -8l43 241h115l170 967h-115l43 242h357l-256 -1450h-357z" glyph-name="bracketright" horiz-adv-x="483" unicode="]"/><glyph d="M627 1153l-205 -328h-248l383 617h236l165 -617h-243zM631 1194l96 -352h211l-158 583h-215l-362 -583h211z" glyph-name="asciicircum" horiz-adv-x="841" unicode="^"/><glyph d="M53 233h1041l-43 -241h-1041zM66 217l-35 -209h1007l35 209h-1007z" glyph-name="underscore" horiz-adv-x="1064" unicode="_"/><glyph d="M516 1518h96l-67 208h-201zM508 1501l-201 242h250l80 -242h-129z" glyph-name="grave" horiz-adv-x="378" unicode="`"/><glyph d="M588 -8v227h-244l-82 -227h-248l545 1450h240l35 -1450h-246zM604 8h213l-35 1417h-211l-532 -1417h211l82 228h272v-228zM428 461h160v459zM403 444l201 570v-570h-201z" glyph-name="a" unicode="a"/><glyph d="M668 86q57 45 96 113q37 66 51 147l23 131q6 41 6 76q0 123 -80 180q100 74 127 223l24 134q6 43 7 81q0 35 -7 66q-12 66 -55 111q-74 78 -217 77h-303l-248 -1417h330q140 0 246 78zM72 -8l256 1450h315q147 0 229 -82q47 -49 60 -119q6 -31 6 -67q0 -39 -6 -89 l-25 -133q-29 -145 -116 -219q72 -61 71 -180q0 -23 -8 -80l-23 -131q-16 -84 -53 -152q-45 -76 -102 -116q-106 -82 -254 -82h-350zM408 610h120q59 0 86 -26q18 -20 19 -66q0 -12 -4 -45l-23 -131q-12 -70 -49 -100q-31 -25 -96 -25h-125zM461 233q57 0 86 21q31 23 43 92 l22 131q4 29 4 43q0 37 -14 51q-23 23 -74 23h-108l-64 -361h105zM514 1217h90q66 0 88 -25q16 -18 17 -66q0 -27 -2 -41l-25 -133q-12 -74 -51 -106q-33 -27 -94 -27h-95zM537 836q57 0 81 22q33 27 48 98l24 131q2 12 2 41q0 39 -12 52q-18 20 -76 20h-78l-63 -364h74z " glyph-name="b" horiz-adv-x="815" unicode="b"/><glyph d="M647 74q119 94 148 264l30 174h-209l-30 -178q-14 -80 -51 -107q-33 -27 -95 -26q-59 0 -86 26q-18 23 -18 66q0 12 4 45l135 760q10 78 51 108q33 27 92 27q63 0 89 -27q18 -20 18 -65q0 -16 -4 -45l-21 -117h209l21 121q8 57 8 82q0 111 -61 178q-74 82 -218 82 q-141 0 -245 -82q-119 -100 -148 -264l-135 -762q-6 -39 -6 -78q0 -106 59 -182q76 -82 217 -82q142 0 246 82zM172 61q-63 82 -63 197q0 37 6 80l135 762q29 170 153 272q109 86 256 86t230 -86q66 -78 65 -194q0 -20 -8 -82l-24 -133h-242l25 135q4 37 4 47q0 35 -15 49 q-20 23 -76 23q-51 0 -83 -23q-35 -27 -43 -98l-136 -762q-4 -25 -4 -43q0 -37 15 -51q20 -23 73 -23q57 0 86 23q33 29 43 98l35 190h242l-35 -194q-29 -174 -154 -273q-104 -86 -256 -86q-149 0 -229 86z" glyph-name="c" horiz-adv-x="798" unicode="c"/><glyph d="M668 86q57 45 96 113q35 59 51 147l129 737q6 41 6 78q0 111 -59 180q-74 84 -217 84h-334l-248 -1417h330q140 0 246 78zM72 -8l256 1450h346q152 0 229 -88q66 -78 66 -193q0 -25 -8 -82l-130 -737q-16 -86 -53 -152q-39 -70 -102 -116q-106 -82 -254 -82h-350z M514 1217h121q61 0 86 -27q18 -20 18 -66q0 -12 -4 -45l-129 -737q-16 -76 -49 -100q-31 -25 -96 -25h-125zM461 233q57 0 86 21q31 25 43 92l129 737q4 25 4 41q0 37 -14 54q-20 23 -74 22h-109l-170 -967h105z" glyph-name="d" horiz-adv-x="825" unicode="d"/><glyph d="M895 1200h-369l-59 -344h254l-43 -242h-254l-68 -381h369l-43 -241h-610l256 1450h610zM883 1217l35 208h-578l-248 -1417h578l35 209h-369l76 414h254l34 209h-254l68 377h369z" glyph-name="e" horiz-adv-x="733" unicode="e"/><glyph d="M895 1200h-369l-59 -344h256l-43 -242h-256l-111 -622h-241l256 1450h610zM883 1217l35 208h-578l-248 -1417h209l111 623h256l34 209h-256l68 377h369z" glyph-name="f" horiz-adv-x="704" unicode="f"/><glyph d="M647 74q119 94 148 264l84 483h-322l-35 -209h113l-49 -278q-14 -80 -51 -107q-33 -27 -95 -26q-59 0 -86 26q-18 23 -18 66q0 12 4 45l135 760q10 78 51 108q33 27 92 27q63 0 89 -27q18 -20 18 -65q0 -16 -4 -45l-21 -117h209l21 121q8 57 8 82q0 111 -61 178 q-74 82 -218 82q-141 0 -245 -82q-119 -100 -148 -264l-135 -762q-6 -39 -6 -78q0 -106 59 -182q76 -82 217 -82q142 0 246 82zM172 61q-63 82 -63 197q0 37 6 80l135 762q29 170 153 272q109 86 256 86t230 -86q66 -78 65 -194q0 -20 -8 -82l-24 -133h-242l25 135 q4 37 4 47q0 35 -15 49q-20 23 -76 23q-51 0 -83 -23q-35 -27 -43 -98l-136 -762q-4 -25 -4 -43q0 -37 15 -51q20 -23 73 -23q57 0 86 23q33 29 43 98l45 258h-112l43 242h354l-88 -504q-29 -174 -154 -273q-104 -86 -256 -86q-149 0 -229 86z" glyph-name="g" horiz-adv-x="808" unicode="g"/><glyph d="M782 1442h242l-256 -1450h-242l111 622h-213l-111 -622h-241l256 1450h241l-102 -586h213zM795 1425l-103 -585h-246l103 585h-209l-248 -1417h209l111 623h245l-110 -623h209l248 1417h-209z" glyph-name="h" horiz-adv-x="843" unicode="h"/><glyph d="M301 8l248 1417h-209l-248 -1417h209zM313 -8h-241l256 1450h241z" glyph-name="i" horiz-adv-x="389" unicode="i"/><glyph d="M614 74q119 100 148 264l190 1087h-209l-190 -1091q-16 -80 -53 -107q-33 -27 -92 -26q-63 0 -89 26q-18 18 -18 62q0 23 6 49l29 168h-209l-29 -172q-8 -57 -8 -82q0 -111 62 -178q72 -82 217 -82q139 0 245 82zM139 61q-66 78 -65 195q0 20 8 82l33 184h241l-32 -188 q-6 -43 -7 -47q0 -33 15 -47q20 -23 76 -23q51 0 84 23q33 25 45 98l194 1104h242l-195 -1108q-29 -170 -153 -273q-106 -86 -256 -86q-154 0 -230 86z" glyph-name="j" horiz-adv-x="782" unicode="j"/><glyph d="M653 752l158 -760h-258l-92 444l-96 -157l-52 -287h-241l256 1450h241l-96 -549l332 549h262zM637 756l401 669h-225l-373 -614l109 614h-209l-248 -1417h209l47 275l121 198l96 -473h226z" glyph-name="k" horiz-adv-x="827" unicode="k"/><glyph d="M670 8l35 209h-369l213 1208h-209l-248 -1417h578zM682 -8h-610l256 1450h241l-213 -1209h369z" glyph-name="l" horiz-adv-x="702" unicode="l"/><glyph d="M1147 1442h143l-256 -1450h-241l120 676l-249 -451h-142l-88 453l-121 -678h-241l256 1450h141l203 -783zM1155 1425l-491 -807l-207 807h-117l-248 -1417h209l133 752l101 -527h120l291 529l-133 -754h209l248 1417h-115z" glyph-name="m" horiz-adv-x="1110" unicode="m"/><glyph d="M1036 1442l-256 -1450h-143l-207 700l-125 -700h-242l256 1450h144l209 -699l123 699h241zM1016 1425h-209l-131 -751l-225 751h-119l-248 -1417h209l133 754l223 -754h119z" glyph-name="n" horiz-adv-x="847" unicode="n"/><glyph d="M647 74q119 94 148 264l135 762q8 57 8 82q0 111 -61 178q-74 82 -218 82q-145 0 -245 -82q-119 -94 -148 -264l-135 -762q-8 -57 -8 -82q0 -111 61 -178q72 -82 217 -82q142 0 246 82zM172 61q-66 78 -66 195q0 20 9 82l135 762q29 172 151 272q109 86 258 86 q147 0 230 -86q66 -78 65 -194q0 -20 -8 -82l-135 -762q-29 -174 -154 -273q-104 -86 -256 -86q-153 0 -229 86zM705 1206q20 -20 20 -65q0 -20 -4 -45l-135 -762q-14 -80 -51 -107q-33 -27 -95 -26q-61 0 -86 26q-18 23 -18 66q0 12 4 45l135 760q10 78 51 108q33 27 92 27 q67 0 87 -27zM535 1194q-35 -27 -43 -98l-136 -762q-4 -25 -4 -43q0 -37 15 -51q20 -23 73 -23q55 0 84 23q31 25 45 98l136 760q2 16 2 41q0 41 -15 57q-18 20 -74 21q-52 0 -83 -23z" glyph-name="o" horiz-adv-x="806" unicode="o"/><glyph d="M401 582h121q143 0 248 82q117 94 148 264l26 155q6 41 6 78q0 111 -59 180q-74 84 -217 84h-334l-248 -1417h209zM72 -8l256 1450h346q152 0 229 -88q66 -78 66 -193q0 -25 -8 -82l-27 -155q-18 -98 -60.5 -166t-93.5 -107q-109 -86 -258 -86h-108l-101 -573h-241z M514 1217h121q61 0 86 -27q18 -20 18 -66q0 -12 -4 -45l-26 -155q-12 -76 -54 -107q-33 -27 -92 -26h-125zM563 807q53 0 84 22q33 25 45 99l27 155q4 25 4 41q0 37 -14 54q-20 23 -74 22h-109l-67 -393h104z" glyph-name="p" horiz-adv-x="802" unicode="p"/><glyph d="M776 -37l-43 -242h-35q-150 0 -229 86q-57 66 -63 168h-5q-74 0 -132 22.5t-97 65.5q-66 78 -66 193q0 25 9 82l135 762q16 98 58 165.5t93 106.5q51 41 118 63.5t140 22.5q147 0 230 -86q66 -78 65 -194q0 -20 -8 -82l-135 -762q-31 -172 -152 -271q-6 -6 -8 -6v-22 q0 -37 13 -49q20 -23 73 -23h39zM651 -27q-23 29 -16 90q2 4 7 7.5t3 3.5q59 45 97 112.5t53 151.5l135 762q6 43 6 80q0 111 -59 180q-74 82 -218 82q-147 0 -247 -82q-117 -92 -146 -264l-135 -762q-6 -39 -6 -78q0 -111 59 -180q35 -41 91.5 -62.5t125.5 -21.5h19 q4 -109 61 -172q76 -82 217 -82h23l35 209h-19q-59 -1 -86 26zM440 217q55 0 84 23q33 31 45 98l136 762q4 25 4 41q0 37 -17 55q-18 20 -74 21q-53 0 -83 -23q-31 -25 -43 -98l-136 -762q-4 -25 -4 -41q0 -37 15 -53q20 -23 73 -23zM336 293q0 12 4 45l135 762 q16 80 51 106q33 27 92 27q66 0 87 -27q20 -20 20 -65q0 -12 -4 -45l-135 -762q-14 -76 -51 -107q-33 -27 -95 -26q-61 0 -86 26q-18 23 -18 66z" glyph-name="q" horiz-adv-x="821" unicode="q"/><glyph d="M764 -8h-246l-14 575h-88l-103 -575h-241l256 1450h346q152 0 229 -88q66 -78 66 -193q0 -25 -8 -82l-27 -153q-29 -174 -152 -273q-18 -14 -37 -24zM770 666q119 96 148 264l26 153q6 41 6 78q0 111 -59 180q-74 84 -217 84h-334l-248 -1417h209l102 576h117l15 -576 h213l-19 629q16 11 41 29zM719 1083q4 25 4 41q0 37 -14 54q-20 23 -74 22h-109l-67 -391h104q53 0 84 22q33 25 45 99zM655 819q-33 -27 -92 -26h-125l76 424h121q61 0 86 -27q18 -20 18 -66q0 -12 -4 -45l-26 -153q-13 -76 -54 -107z" glyph-name="r" horiz-adv-x="813" unicode="r"/><glyph d="M633 74q119 94 147 264l17 90q6 37 6 74q0 145 -98 250q-29 33 -77 63.5t-57 34.5q-45 27 -67 45q-53 53 -53 127q0 14 4 43l6 33q10 78 51 108q33 27 92 27q66 0 86 -27q20 -20 21 -65q0 -20 -4 -45l-21 -115h209l20 119q8 57 9 82q0 111 -62 178q-74 82 -217 82 q-145 0 -246 -82q-119 -94 -147 -264l-6 -35q-6 -39 -6 -76q0 -147 96 -246q20 -23 57 -47t70 -45q55 -31 76 -51q51 -57 51 -135q0 -25 -2 -37l-17 -90q-14 -80 -51 -107q-33 -27 -94 -26q-61 0 -86 26q-18 23 -18 66q0 12 4 45l30 176h-209l-30 -180q-8 -57 -8 -82 q0 -111 61 -178q72 -82 217 -82q142 0 246 82zM158 61q-66 78 -66 195q0 20 8 82l35 192h242l-35 -196q-4 -25 -4 -43q0 -37 14 -51q20 -23 74 -23q55 0 84 23q31 25 45 98l16 90q4 25 4 37q0 68 -49 119q-14 16 -80 55q-92 57 -122 88q-102 106 -103 256q0 43 8 82l7 35 q29 172 151 272q109 86 258 86q147 0 229 -86q66 -78 66 -194q0 -20 -8 -82l-25 -131h-241l24 133q2 16 2 41q0 41 -14 57q-18 20 -74 21q-53 0 -84 -23q-35 -27 -43 -98l-6 -35q-4 -29 -4 -41q0 -66 49 -113q10 -12 38 -29.5t36 -21.5q92 -57 127 -92q102 -113 102 -262 q0 -37 -6 -78l-16 -90q-29 -174 -154 -273q-104 -86 -256 -86q-153 0 -229 86z" glyph-name="s" horiz-adv-x="778" unicode="s"/><glyph d="M967 1442l-43 -242h-230l-213 -1208h-241l213 1208h-230l43 242h701zM946 1425h-667l-35 -208h229l-213 -1209h209l213 1209h229z" glyph-name="t" horiz-adv-x="722" unicode="t"/><glyph d="M655 74q119 100 148 264l190 1087h-209l-190 -1091q-16 -80 -53 -107q-33 -27 -92 -26q-63 0 -89 26q-18 18 -18 62q0 23 6 49l191 1087h-209l-191 -1091q-8 -57 -8 -82q0 -111 62 -178q72 -82 217 -82q139 0 245 82zM180 61q-66 78 -65 195q0 20 8 82l194 1104h242 l-194 -1108q-6 -43 -7 -47q0 -33 15 -47q20 -23 76 -23q51 0 83 23q33 25 46 98l194 1104h242l-195 -1108q-29 -170 -153 -273q-106 -86 -256 -86q-154 0 -230 86z" glyph-name="u" horiz-adv-x="823" unicode="u"/><glyph d="M512 512l326 930h247l-544 -1450h-240l-35 1450h246v-930zM496 418v1007h-213l34 -1417h211l533 1417h-211z" glyph-name="v" horiz-adv-x="843" unicode="v"/><glyph d="M1051 1442h243l-432 -1450h-139l-72 690l-313 -690h-139l75 1450h244l-45 -678l201 450h143l41 -450zM1063 1425l-213 -751l-49 524h-115l-233 -524l49 751h-211l-76 -1417h111l333 735l80 -735h111l424 1417h-211z" glyph-name="w" horiz-adv-x="1062" unicode="w"/><glyph d="M838 -8h-256l-84 407l-224 -407h-258l400 725l-144 725h256l82 -408l224 408h260l-400 -729zM817 8l-139 709l387 708h-223l-240 -440l-86 440h-223l139 -712l-387 -705h221l240 441l88 -441h223z" glyph-name="x" horiz-adv-x="858" unicode="x"/><glyph d="M1057 1442l-447 -940l-90 -510h-244l91 512l-115 938h256l57 -494l236 494h256zM1032 1425h-219l-256 -534l-65 534h-220l111 -921l-86 -496h211l86 498z" glyph-name="y" horiz-adv-x="802" unicode="y"/><glyph d="M727 8l37 211h-375l584 1206h-664l-35 -211h375l-586 -1206h664zM739 -8h-700l586 1206h-371l43 244h700l-583 -1206h370z" glyph-name="z" horiz-adv-x="784" unicode="z"/><glyph d="M608 203q-53 4 -76 26q-18 23 -18 66q0 12 4 45l19 109q8 35 8 79q0 74 -29 144q-6 10 -12 22.5t-15 24.5q35 41 43 47q78 98 101 227l20 109q16 78 52 106q29 23 88 27l34 209q-137 -4 -235 -82q-119 -94 -148 -264l-20 -109q-18 -113 -133 -186l-127 -84l96 -84 q72 -61 72 -148q0 -14 -4 -43l-19 -108q-8 -57 -8 -82q0 -111 61 -178q66 -78 211 -82zM449.5 -2.5q-60.5 22.5 -99.5 65.5q-66 78 -65 195q0 20 8 82l18 109q4 29 4 40q0 78 -67 134l-113 96l148 96q106 72 125 178l20 109q29 174 154 272q111 90 266 86l-43 -241 q-61 0 -90 -23q-33 -25 -45 -98l-21 -109q-20 -129 -104 -233l-35 -37q10 -23 20 -39q31 -70 31 -152q0 -45 -8 -84l-18 -108q-4 -25 -5 -43q0 -37 15 -51q23 -23 84 -23l-43 -242q-76 -2 -136.5 20.5z" glyph-name="braceleft" horiz-adv-x="643" unicode="{"/><glyph d="M606 -115l293 1663h-209l-293 -1663h209zM618 -131h-241l301 1696h242z" glyph-name="bar" horiz-adv-x="1044" unicode="|"/><glyph d="M305 76q119 94 148 264l18 109q23 113 135 186l127 84l-96 84q-74 68 -74 153q0 12 4 37l21 109q8 57 8 82q0 111 -61 178q-66 78 -211 82l-35 -209q53 -4 76 -27q18 -20 18 -65q0 -12 -4 -45l-21 -109q-6 -37 -6 -76q0 -78 31 -147q10 -27 25 -47l-43 -47 q-80 -100 -103 -228l-18 -108q-16 -78 -51 -107q-29 -23 -89 -26l-34 -209q137 4 235 82zM92 219q61 0 90 23q33 25 45 98l19 109q27 129 106 233l35 37q-6 12 -11 21.5t-9 17.5q-31 74 -31 155q0 41 6 80l20 109q4 25 5 43q0 37 -15 51q-23 23 -84 23l43 241 q76 2 136.5 -20.5t99.5 -65.5q66 -78 65 -194q0 -20 -8 -82l-20 -109q-4 -25 -4 -37q0 -80 69 -137l113 -96l-148 -96q-106 -72 -127 -179l-18 -108q-29 -174 -154 -273q-111 -90 -266 -86z" glyph-name="braceright" horiz-adv-x="643" unicode="}"/><glyph glyph-name="uni00A0" horiz-adv-x="317" unicode=" "/><glyph d="M539 1339q0 37 -26 61.5t-64 24.5q-49 0 -88 -37.5t-39 -91.5q0 -35 24.5 -59.5t63.5 -24.5q45 0 81.5 32t45.5 77q2 6 2 18zM510 1239q-45 -43 -100 -43q-45 0 -75 28.5t-30 73.5q0 57 43 100.5t101 43.5q47 0 76.5 -30t29.5 -77q0 -53 -45 -96zM465 1096h-152l-94 -379 l-125 -709h209l125 711zM481 1112l-37 -395l-129 -725h-241l129 729l98 391h180z" glyph-name="exclamdown" horiz-adv-x="393" unicode="¡"/><glyph d="M700 963l21 120q4 25 4 41q0 37 -14 54q-20 23 -74 22q-55 0 -84 -22q-33 -31 -45 -99l-129 -727q-4 -33 -4 -43q0 -35 16 -55q18 -20 72 -21q59 0 84 23q37 29 45 98l33 174h241l-32 -178q-31 -176 -154 -272q-57 -47 -133 -68l-15 -78h-241l12 78q-59 18 -108 68 q-66 78 -66 194q0 25 8 82l129 729q31 176 154 273q70 53 135 67l14 78h242l-14 -78q68 -25 108 -67q66 -78 66 -195q0 -25 -8 -82l-21 -116h-242zM946 1083q8 57 8 82q0 111 -61 178q-49 51 -117 68l15 74h-209l-15 -74q-66 -14 -137 -68q-119 -98 -147 -264l-129 -729 q-8 -57 -9 -82q0 -111 62 -178q49 -51 117 -67l-13 -74h209l10 74q78 18 140 67q119 98 147 264l29 158h-209l-29 -160q-10 -74 -51 -108q-33 -27 -94 -27q-63 0 -84 27q-20 27 -21 67q0 18 4 43l130 729q14 76 51 107q33 27 94 27t86 -27q18 -20 18 -66q0 -12 -4 -45 l-16 -100h209z" glyph-name="cent" horiz-adv-x="839" unicode="¢"/><glyph d="M877 221h-375q47 76 67 191l31 170h225l37 211h-289q-23 51 -22 122q0 37 6 76l21 109q14 80 49 106q33 27 92 27q61 0 86 -27q20 -27 20 -71q0 -10 -4 -39l-6 -27h211l6 31q8 57 8 82q0 113 -61 180q-74 82 -219 82q-141 0 -246 -82q-121 -98 -149 -266l-21 -109 q-10 -57 -10 -104q0 -33 8 -90h-88l-37 -211h170l-31 -174q-18 -106 -73 -150q-39 -31 -103 -37h-69l-37 -213h766zM53 -8l45 246h82q57 6 92 32q49 41 68 142l27 153h-170l45 244h80q-4 45 -5 72q0 61 11 110l20 109q29 176 156 274q104 86 256 86q150 0 231 -86 q66 -78 66 -196q0 -20 -8 -82l-11 -43h-243l10 47q4 25 4 37q0 37 -16 57q-20 23 -74 23q-51 0 -82 -23q-29 -23 -43 -98l-21 -109q-6 -39 -6 -74q0 -59 19 -104h297l-45 -244h-226l-26 -157q-18 -96 -56 -170h367l-45 -246h-799z" glyph-name="sterling" horiz-adv-x="913" unicode="£"/><glyph d="M784 395l60 -190l-236 -103l-51 168q-33 -6 -78 -6q-43 0 -76 6l-110 -168l-203 103l129 196q-33 66 -33 144q0 43 9 82l32 184q25 135 105 223l-60 195l238 102l49 -168q37 6 78 6q45 0 76 -6l112 168l199 -102l-125 -193q33 -66 33 -149q0 -39 -6 -80l-33 -184 q-23 -130 -109 -228zM909 811q8 53 9 78q0 80 -39 147l120 185l-170 90l-108 -168q-29 10 -84 10q-45 0 -90 -10l-49 168l-205 -90l55 -191q-84 -92 -104 -223l-33 -184q-8 -53 -8 -78q0 -82 37 -144l-125 -188l174 -90l106 168q33 -10 84 -10q55 0 90 10l52 -168l202 90 l-55 186q88 100 109 228zM520 506q57 0 86 22q33 25 45 99l33 184q4 25 4 41q0 37 -16 53q-20 23 -74 23q-55 0 -84 -23q-33 -25 -45 -98l-33 -184q-4 -29 -4 -43q0 -37 14 -52q21 -22 74 -22zM416 582q0 12 4 45l33 184q12 74 51 107q29 27 94 26q61 0 86 -26 q20 -20 21 -66q0 -12 -5 -45l-32 -184q-12 -76 -54 -107q-33 -27 -94 -27q-59 0 -86 27q-18 23 -18 66z" glyph-name="currency" horiz-adv-x="862" unicode="¤"/><glyph d="M1061 1442l-414 -873h162l-23 -129h-182l-16 -100h182l-25 -129h-182l-39 -219h-243l38 219h-184l25 129h184l16 100h-184l23 129h163l-106 873h256l57 -494l236 494h256zM1036 1425h-219l-256 -534l-65 534h-220l107 -872h-172l-14 -96h184l-25 -133h-184l-16 -97h184 l-39 -219h211l39 219h182l17 97h-183l25 133h182l14 96h-165z" glyph-name="yen" horiz-adv-x="811" unicode="¥"/><glyph d="M920 1565l-119 -664h-242l119 664h242zM899 1548h-209l-110 -630h208zM377 -131l125 700h241l-125 -700h-241zM397 -115h209l117 668h-209z" glyph-name="brokenbar" horiz-adv-x="1044" unicode="¦"/><glyph d="M621.5 720.5q-25.5 18.5 -72.5 18.5q-55 0 -89 -25.5t-34 -68.5q0 -29 24.5 -46t67.5 -17q109 0 125 88q4 32 -21.5 50.5zM518 565q-51 0 -79.5 21.5t-28.5 58.5q0 51 38.5 81t100.5 30q53 0 83 -23.5t27 -64.5q-18 -103 -141 -103zM713 1077l12 64q12 78 -90 78 q-51 0 -84 -22.5t-39 -59.5q-2 -10 -2 -27q0 -49 31.5 -71.5t103.5 -47.5q47 -16 79 -30.5t60 -36.5q53 -39 80 -93.5t27 -115.5q0 -76 -39 -152t-115 -137l-16 -12q41 -35 62.5 -72t21.5 -94q0 -29 -6 -66q-25 -141 -137.5 -230t-266.5 -89q-135 0 -217 71.5t-82 188.5 q0 31 6 63l13 62h241l-12 -66q-6 -35 17.5 -56.5t72.5 -21.5q51 0 84 21.5t39 60.5q2 10 2 27q0 49 -31.5 71.5t-99.5 43.5q-53 18 -93 37.5t-75 50.5q-84 84 -84 194q0 74 40 147.5t116 137.5l14 10q-41 33 -61.5 72t-20.5 98q0 29 6 66q25 141 137.5 230t266.5 89 q135 0 217 -71.5t82 -188.5q0 -29 -6 -63l-13 -60h-241zM950 1141q6 31 6 59q0 111 -76.5 177.5t-205.5 66.5q-145 0 -254 -85t-133 -222q-6 -37 -6 -64q0 -59 22.5 -95t69.5 -75q-25 -16 -29 -20q-74 -61 -112.5 -132t-38.5 -141q0 -102 79 -182q29 -27 62 -43t94 -39 q76 -27 111.5 -52.5t35.5 -80.5q0 -59 -37.5 -92t-103.5 -33q-51 0 -79.5 21.5t-28.5 58.5q0 12 2 18l8 45h-209l-8 -49q-6 -31 -6 -59q0 -111 76.5 -177.5t205.5 -66.5q145 0 254 85t133 222q6 37 6 64q0 59 -22.5 93t-71.5 71q6 6 16.5 13t14.5 11q72 59 110.5 132 t38.5 147q0 57 -24.5 107t-73.5 87q-25 20 -61.5 36t-71.5 28q-76 25 -112.5 51.5t-36.5 83.5q0 20 2 31q8 43 45 68.5t94 25.5q51 0 79.5 -21.5t28.5 -58.5q0 -12 -2 -18l-8 -43h209z" glyph-name="section" horiz-adv-x="835" unicode="§"/><glyph d="M331.5 1537.5q22.5 -21.5 55.5 -21.5q43 0 77 33.5t34 78.5q0 33 -21.5 53.5t-54.5 20.5q-43 0 -78 -32t-35 -79q0 -32 22.5 -53.5zM333 1680q40 38 89 38q41 0 66.5 -25.5t25.5 -66.5q0 -51 -39 -89t-88 -38q-41 0 -67.5 26.5t-26.5 67.5q0 49 40 87zM643.5 1537.5 q22.5 -21.5 54.5 -21.5q43 0 77 33.5t34 78.5q0 33 -21.5 53.5t-54.5 20.5q-43 0 -77.5 -32t-34.5 -79q0 -32 22.5 -53.5zM644 1680q40 38 89 38q41 0 66.5 -25.5t25.5 -66.5q0 -51 -38.5 -89t-88.5 -38q-41 0 -67.5 26.5t-26.5 67.5q0 49 40 87z" glyph-name="dieresis" horiz-adv-x="552" unicode="¨"/><glyph d="M319.5 1097q122.5 169 304 265t386.5 96q180 0 317 -75.5t212 -212t75 -310.5q0 -72 -12 -145q-37 -211 -161 -379t-305.5 -264.5t-383.5 -96.5q-180 0 -318.5 76t-213.5 211t-75 309q0 57 15 148q37 209 159.5 378zM164 571q0 -170 72.5 -301t205.5 -204.5t310 -73.5 q201 0 378 94t297.5 260t157.5 373q12 74 12 141q0 170 -72.5 302t-205.5 206t-309 74q-201 0 -379 -94.5t-299 -260t-156 -372.5q-12 -74 -12 -144zM313 596q0 -135 57.5 -239.5t162 -163t243.5 -58.5q158 0 299.5 76t236.5 209t126 299q10 66 10 115q0 137 -57.5 242.5 t-163 163.5t-244.5 58q-160 0 -300 -75.5t-235.5 -208.5t-123.5 -299q-11 -51 -11 -119zM434 1023q98 136 242.5 214t306.5 78q143 0 253 -60.5t169 -170t59 -250.5q0 -51 -10 -119q-31 -168 -129 -304.5t-242.5 -214t-306.5 -77.5q-143 0 -251.5 60.5t-168 169t-59.5 249.5 q0 70 10 121q29 168 127 304zM1056.5 341q106.5 93 133.5 253l4 31h-209l-4 -35q-14 -72 -47 -102.5t-98 -30.5q-53 0 -79 22.5t-26 69.5q0 12 4 45l43 250q12 70 46 101.5t100 31.5q55 0 80.5 -20.5t25.5 -67.5q0 -20 -6 -49l-4 -31h209l4 35q8 39 8 84q0 121 -72.5 189.5 t-203.5 68.5q-152 0 -259.5 -93.5t-136.5 -252.5l-43 -250q-8 -39 -8 -82q0 -121 74 -190.5t205 -69.5q153 0 259.5 93zM579.5 306q-77.5 75 -77.5 204q0 45 8 84l43 250q31 164 141.5 261t270.5 97q137 0 214.5 -73.5t77.5 -202.5q0 -45 -8 -86l-8 -47h-242l9 51q6 29 6 47 q0 39 -20.5 54.5t-69.5 15.5q-59 0 -88 -27t-41 -94l-43 -250q-4 -33 -4 -43q0 -39 20 -56.5t68 -17.5q59 0 87.5 26.5t41.5 94.5l8 47h241l-8 -51q-29 -164 -139.5 -261.5t-269.5 -97.5q-140 0 -217.5 75z" glyph-name="copyright" horiz-adv-x="1507" unicode="©"/><glyph d="M979 1290l-223 -557l26 -553h-247l-25 557l219 553h250zM954 1274h-213l-215 -541l25 -536h215l-27 540zM623 1290l-224 -557l27 -553h-248l-24 557l219 553h250zM598 1274h-213l-215 -541l25 -536h215l-27 540z" glyph-name="guillemotleft" horiz-adv-x="774" unicode="«"/><glyph d="M319.5 1097q122.5 169 304 265t386.5 96q180 0 317 -75.5t212 -212t75 -310.5q0 -72 -12 -145q-37 -211 -161 -379t-305.5 -264.5t-383.5 -96.5q-180 0 -318.5 76t-213.5 211t-75 309q0 57 15 148q37 209 159.5 378zM164 571q0 -170 72.5 -301t205.5 -204.5t310 -73.5 q201 0 378 94t297.5 260t157.5 373q12 74 12 141q0 170 -72.5 302t-205.5 206t-309 74q-201 0 -379 -94.5t-299 -260t-156 -372.5q-12 -74 -12 -144zM313 596q0 -135 57.5 -239.5t162 -163t243.5 -58.5q158 0 299.5 76t236.5 209t126 299q10 66 10 115q0 137 -57.5 242.5 t-163 163.5t-244.5 58q-160 0 -300 -75.5t-235.5 -208.5t-123.5 -299q-11 -51 -11 -119zM434 1023q98 136 242.5 214t306.5 78q143 0 253 -60.5t169 -170t59 -250.5q0 -51 -10 -119q-31 -168 -129 -304.5t-242.5 -214t-306.5 -77.5q-143 0 -251.5 60.5t-168 169t-59.5 249.5 q0 70 10 121q29 168 127 304zM713 293h-242l152 848h346q143 0 226 -72t83 -178q0 -74 -40 -146.5t-120 -136.5q-10 -8 -19 -13t-14 -9l84 -293h-243l-56 229h-116zM883 539l55 -230h211l-84 285q8 4 20.5 11t24.5 16q76 59 114 128.5t38 139.5q0 100 -78 167.5t-215 67.5 h-334l-143 -815h208l41 230h142zM797 764h104q57 0 92 22.5t35 53.5q0 25 -26.5 42t-73.5 17h-109zM928 915q57 0 86.5 -21.5t29.5 -51.5q0 -37 -38.5 -65.5t-104.5 -28.5h-125l31 167h121z" glyph-name="registered" horiz-adv-x="1507" unicode="®"/><glyph d="M735 1518l17 96h-439l-16 -96h438zM748 1501h-472l25 129h471z" glyph-name="macron" horiz-adv-x="495" unicode="¯"/><glyph d="M397 1518l244 208h-199l-139 -208h94zM401 1501h-131l164 242h252z" glyph-name="acute" horiz-adv-x="378" unicode="´"/><glyph d="M1022 1442l-256 -1450h-242l213 1208h-24l-213 -1208h-242l104 588q-72 20 -120 73q-66 78 -66 193q0 25 8 82l27 155q29 170 154 273q106 86 256 86h401zM375 1343q-119 -100 -148 -264l-26 -155q-6 -39 -6 -78q0 -111 59 -180q53 -59 129 -74l-104 -584h208l213 1209 h58l-213 -1209h209l247 1417h-380q-140 0 -246 -82z" glyph-name="paragraph" horiz-adv-x="841" unicode="¶"/><glyph d="M409.5 817.5q-24.5 24.5 -63.5 24.5q-49 0 -89 -38t-40 -89q0 -37 24.5 -61.5t63.5 -24.5q51 0 90 38t39 91q0 35 -24.5 59.5zM406.5 655q-44.5 -43 -101.5 -43q-45 0 -74.5 30t-29.5 75q0 55 45 98t100 43q45 0 75 -28.5t30 -73.5q0 -58 -44.5 -101z" glyph-name="periodcentered" horiz-adv-x="393" unicode="·"/><glyph d="M225 -229.5q49 49.5 49 116.5q0 33 -13 51.5t-36 38.5q-8 4 -11 8.5t-3 14.5v-6h-96v6v-2q-2 -6 -2 -18q0 -49 39 -82q16 -14 20 -21.5t2 -21.5q-2 -16 -13 -26.5t-28 -10.5q-14 0 -23.5 8t-11.5 20h-96q-6 -51 25.5 -88t85.5 -37q63 0 112 49.5zM20.5 -259 q-36.5 36 -36.5 89q0 12 4 33h131q-4 -8 -4 -13q0 -6 5 -11t13 -5t15.5 6t9.5 17l2 8q0 6 -17 20q-47 37 -47 97l2 20v-2v10h129v-10q0 -4 9 -10q25 -23 39 -44.5t14 -60.5q0 -20 -2 -32q-8 -59 -60.5 -103.5t-113.5 -44.5q-56 0 -92.5 36z" glyph-name="cedilla" horiz-adv-x="325" unicode="¸"/><glyph d="M250 1290h248l24 -557l-219 -553h-250l223 557zM266 1274l27 -541l-215 -536h213l215 540l-25 537h-215zM606 1290h248l25 -557l-220 -553h-249l223 557zM623 1274l26 -541l-215 -536h213l215 540l-24 537h-215z" glyph-name="guillemotright" horiz-adv-x="774" unicode="»"/><glyph d="M658.5 1236q25.5 -26 62.5 -26q45 0 82 32t47 79q2 6 2 18q0 37 -26.5 61.5t-65.5 24.5q-49 0 -88 -37.5t-39 -91.5q0 -34 25.5 -60zM659 1399q43 43 101 43q47 0 77.5 -30t30.5 -77q0 -55 -46 -98t-101 -43q-45 0 -75 29.5t-30 74.5q0 58 43 101zM823 1104l-14 -80 q-20 -113 -66.5 -194.5t-126.5 -141.5q-98 -76 -142 -113.5t-71.5 -81.5t-37.5 -106l-9 -55q-4 -25 -4 -43q0 -37 15 -51q20 -23 73 -23q55 0 84 23q31 25 45 98l21 131h241l-20 -135q-33 -178 -154 -273q-109 -86 -258 -86q-147 0 -227 86q-66 78 -66 193q0 43 9 84l8 55 q39 219 192 334q98 76 142.5 115t72 82t37.5 106l13 70l8 6h235zM584 1024q-10 -63 -39 -109.5t-74 -85t-147 -116.5q-80 -61 -123 -141t-62 -185l-8 -55q-8 -39 -8 -82q0 -106 61 -178q70 -82 215 -82q143 0 248 82q117 92 148 264l16 115h-209l-16 -119q-14 -80 -51 -107 q-33 -27 -95 -26q-61 0 -86 26q-18 23 -18 66q0 12 4 45l8 55q10 63 39 108.5t74 84.5t147 116q76 59 121 139.5t64 188.5l10 59h-209z" glyph-name="questiondown" horiz-adv-x="804" unicode="¿"/><glyph d="M588 -8v227h-244l-82 -227h-248l545 1450h240l35 -1450h-246zM604 8h213l-35 1417h-211l-532 -1417h211l82 228h272v-228zM428 461h160v459zM403 444l201 570v-570h-201zM651 1518h97l-68 208h-201zM643 1501l-201 242h250l80 -242h-129z" glyph-name="Agrave" unicode="À"/><glyph d="M588 -8v227h-244l-82 -227h-248l545 1450h240l35 -1450h-246zM604 8h213l-35 1417h-211l-532 -1417h211l82 228h272v-228zM428 461h160v459zM403 444l201 570v-570h-201zM756 1518l243 208h-198l-139 -208h94zM760 1501h-131l164 242h251z" glyph-name="Aacute" unicode="Á"/><glyph d="M588 -8v227h-244l-82 -227h-248l545 1450h240l35 -1450h-246zM604 8h213l-35 1417h-211l-532 -1417h211l82 228h272v-228zM428 461h160v459zM403 444l201 570v-570h-201zM930 1501h-129l-90 109l-129 -109h-133l165 242h236zM905 1518l-67 208h-215l-142 -208h97l137 116 l94 -116h96z" glyph-name="Acircumflex" unicode="Â"/><glyph d="M588 -8v227h-244l-82 -227h-248l545 1450h240l35 -1450h-246zM604 8h213l-35 1417h-211l-532 -1417h211l82 228h272v-228zM428 461h160v459zM403 444l201 570v-570h-201zM596 1579q6 2 16 2q31 0 66 -27q57 -41 113 -41q45 0 88 26t92 81l-68 53q-45 -51 -82 -61 q-33 -6 -73 24q-53 41 -113 41q-45 0 -92 -24.5t-101 -79.5l68 -55q49 55 86 61zM418 1573q61 61 111.5 91t103.5 30q66 0 123 -45q39 -27 61 -21q33 10 86 70l92 -78q-109 -123 -204 -123q-63 0 -121 45q-39 27 -70 21q-37 -8 -90 -70z" glyph-name="Atilde" unicode="Ã"/><glyph d="M588 -8v227h-244l-82 -227h-248l545 1450h240l35 -1450h-246zM604 8h213l-35 1417h-211l-532 -1417h211l82 228h272v-228zM428 461h160v459zM403 444l201 570v-570h-201zM481.5 1537.5q22.5 -21.5 55.5 -21.5q43 0 76.5 33.5t33.5 78.5q0 33 -21.5 53.5t-54.5 20.5 q-43 0 -77.5 -32t-34.5 -79q0 -32 22.5 -53.5zM482 1680q40 38 89 38q41 0 67 -25.5t26 -66.5q0 -51 -39 -89t-88 -38q-41 0 -68 26.5t-27 67.5q0 49 40 87zM792.5 1537.5q22.5 -21.5 55.5 -21.5q43 0 76.5 33.5t33.5 78.5q0 33 -21.5 53.5t-53.5 20.5q-43 0 -78 -32 t-35 -79q0 -32 22.5 -53.5zM794 1680q40 38 89 38q41 0 66.5 -25.5t25.5 -66.5q0 -51 -39 -89t-88 -38q-41 0 -67.5 26.5t-26.5 67.5q0 49 40 87z" glyph-name="Adieresis" unicode="Ä"/><glyph d="M588 -8v227h-244l-82 -227h-248l545 1450h240l35 -1450h-246zM604 8h213l-35 1417h-211l-532 -1417h211l82 228h272v-228zM428 461h160v459zM403 444l201 570v-570h-201zM804 1572q50 48 50 111q0 47 -30.5 78t-80.5 31q-63 0 -112 -48t-49 -114q0 -47 30.5 -76.5 t79.5 -29.5q62 0 112 48zM601 1543q-36 36 -36 89q0 70 54.5 123t123.5 53q55 0 91 -35.5t36 -91.5q0 -68 -55 -121t-123 -53q-55 0 -91 36zM747.5 1683.5q10.5 -12.5 8.5 -28.5q-4 -14 -16.5 -24.5t-26.5 -10.5q-16 0 -26.5 11t-6.5 26q2 16 14.5 27.5t28.5 11.5 q14 0 24.5 -12.5zM706.5 1672q-8.5 -7 -10.5 -17v-4q0 -14 17 -15q20 0 26 21v4q0 8 -5 13t-11 5q-8 0 -16.5 -7z" glyph-name="Aring" unicode="Å"/><glyph d="M4 -8l586 1450h792l-43 -242h-368l-60 -344h254l-43 -242h-254l-67 -381h368l-43 -241h-610l39 225h-211l-90 -225h-250zM29 8h213l90 225h243l-38 -225h577l35 209h-369l76 414h254l35 209h-254l67 377h369l35 208h-760zM600 459l119 676l-275 -676h156zM612 442h-192 l340 844z" glyph-name="AE" horiz-adv-x="1177" unicode="Æ"/><glyph d="M680 965l25 137q6 43 6 47q0 33 -15 47q-23 23 -75 23q-55 0 -84 -23q-33 -25 -45 -98l-136 -762q-4 -25 -4 -43q0 -37 15 -51q23 -23 73 -23q53 0 86 23q33 29 43 98l35 190h242l-35 -194q-29 -172 -152 -273q-90 -72 -204 -79v4h8q0 -4 6 -11q25 -23 39 -44t14 -60 q0 -20 -2 -33q-8 -59 -60 -103t-114 -44q-55 0 -91 35.5t-36 89.5q0 12 4 32h129q-2 -4 -2 -12q0 -16 17 -16q8 0 15 6t9 16v6q0 8 -14 23q-45 33 -45 90q0 18 2 27v-2v2l6 -8q-104 16 -168 81q-63 82 -63 197q0 37 6 80l135 762q29 170 153 272q109 86 256 86 q154 0 230 -86q66 -78 65 -194q0 -20 -8 -82l-24 -133h-242zM930 1102q8 57 8 82q0 111 -61 178q-72 82 -218 82q-139 0 -245 -82q-119 -100 -148 -264l-135 -762q-6 -39 -6 -78q0 -106 59 -182q55 -61 160 -78l6 -8v-2v-2q-2 -6 -2 -21q0 -47 39 -80q14 -12 18.5 -21 t2.5 -22q-2 -16 -13.5 -26.5t-27.5 -10.5q-14 0 -22.5 8.5t-10.5 20.5h-96q-6 -53 25.5 -89t82.5 -36q63 0 112.5 49t49.5 117q0 33 -13.5 51.5t-35.5 38.5q-12 10 -13 23h9v8q113 16 192 80q119 94 148 264l30 174h-209l-30 -178q-14 -78 -49 -107q-33 -27 -97 -26 q-59 0 -86 26q-18 23 -18 66q0 12 4 45l135 762q16 78 51 106q33 27 95 27q61 0 88 -27q18 -18 18 -61q0 -20 -6 -49l-21 -117h209z" glyph-name="Ccedilla" horiz-adv-x="798" unicode="Ç"/><glyph d="M895 1200h-369l-59 -344h254l-43 -242h-254l-68 -381h369l-43 -241h-610l256 1450h610zM883 1217l35 208h-578l-248 -1417h578l35 209h-369l76 414h254l34 209h-254l68 377h369zM594 1518h96l-67 208h-201zM586 1501l-201 242h250l80 -242h-129z" glyph-name="Egrave" horiz-adv-x="733" unicode="È"/><glyph d="M895 1200h-369l-59 -344h254l-43 -242h-254l-68 -381h369l-43 -241h-610l256 1450h610zM883 1217l35 208h-578l-248 -1417h578l35 209h-369l76 414h254l34 209h-254l68 377h369zM698 1518l244 208h-199l-139 -208h94zM702 1501h-131l164 242h252z" glyph-name="Eacute" horiz-adv-x="733" unicode="É"/><glyph d="M895 1200h-369l-59 -344h254l-43 -242h-254l-68 -381h369l-43 -241h-610l256 1450h610zM883 1217l35 208h-578l-248 -1417h578l35 209h-369l76 414h254l34 209h-254l68 377h369zM895 1501h-129l-90 109l-129 -109h-133l166 242h235zM870 1518l-67 208h-215l-142 -208h97 l137 116l94 -116h96z" glyph-name="Ecircumflex" horiz-adv-x="733" unicode="Ê"/><glyph d="M895 1200h-369l-59 -344h254l-43 -242h-254l-68 -381h369l-43 -241h-610l256 1450h610zM883 1217l35 208h-578l-248 -1417h578l35 209h-369l76 414h254l34 209h-254l68 377h369zM434.5 1537.5q22.5 -21.5 54.5 -21.5q43 0 77 33.5t34 78.5q0 33 -21.5 53.5t-54.5 20.5 q-43 0 -77.5 -32t-34.5 -79q0 -32 22.5 -53.5zM435 1680q40 38 89 38q41 0 66.5 -25.5t25.5 -66.5q0 -51 -38.5 -89t-88.5 -38q-41 0 -67.5 26.5t-26.5 67.5q0 49 40 87zM745.5 1537.5q22.5 -21.5 55.5 -21.5q43 0 76.5 33.5t33.5 78.5q0 33 -21.5 53.5t-53.5 20.5 q-43 0 -78 -32t-35 -79q0 -32 22.5 -53.5zM746.5 1680q39.5 38 89.5 38q41 0 66.5 -25.5t25.5 -66.5q0 -51 -39 -89t-88 -38q-41 0 -67.5 26.5t-26.5 67.5q0 49 39.5 87z" glyph-name="Edieresis" horiz-adv-x="733" unicode="Ë"/><glyph d="M301 8l248 1417h-209l-248 -1417h209zM313 -8h-241l256 1450h241zM410 1518h96l-68 208h-200zM401 1501l-200 242h250l79 -242h-129z" glyph-name="Igrave" horiz-adv-x="389" unicode="Ì"/><glyph d="M301 8l248 1417h-209l-248 -1417h209zM313 -8h-241l256 1450h241zM514 1518l244 208h-199l-139 -208h94zM518 1501h-131l164 242h252z" glyph-name="Iacute" horiz-adv-x="389" unicode="Í"/><glyph d="M301 8l248 1417h-209l-248 -1417h209zM313 -8h-241l256 1450h241zM698 1501h-129l-90 109l-129 -109h-133l166 242h235zM674 1518l-68 208h-215l-141 -208h96l137 116l95 -116h96z" glyph-name="Icircumflex" horiz-adv-x="387" unicode="Î"/><glyph d="M301 8l248 1417h-209l-248 -1417h209zM313 -8h-241l256 1450h241zM249.5 1537.5q22.5 -21.5 55.5 -21.5q43 0 77 33.5t34 78.5q0 33 -21.5 53.5t-54.5 20.5q-43 0 -78 -32t-35 -79q0 -32 22.5 -53.5zM251 1680q40 38 89 38q41 0 66.5 -25.5t25.5 -66.5q0 -51 -39 -89 t-88 -38q-41 0 -67.5 26.5t-26.5 67.5q0 49 40 87zM561.5 1537.5q22.5 -21.5 54.5 -21.5q43 0 77 33.5t34 78.5q0 33 -21.5 53.5t-54.5 20.5q-43 0 -77.5 -32t-34.5 -79q0 -32 22.5 -53.5zM562 1680q40 38 89 38q41 0 66.5 -25.5t25.5 -66.5q0 -51 -38.5 -89t-88.5 -38 q-41 0 -67.5 26.5t-26.5 67.5q0 49 40 87z" glyph-name="Idieresis" horiz-adv-x="389" unicode="Ï"/><glyph d="M979 1161q0 -25 -8 -82l-129 -737q-16 -86 -54 -152q-39 -70 -102 -116q-106 -82 -254 -82h-350l106 602h-82l44 242h81l107 606h346q152 0 229 -88q66 -78 66 -193zM684 1425h-334l-106 -606h-82l-35 -209h82l-107 -602h330q139 0 246 78q57 45 96 113q35 59 51 147 l129 737q6 41 7 78q0 111 -60 180q-74 84 -217 84zM729 1083q4 25 4 41q0 37 -14 54q-20 23 -74 22h-108l-64 -364h102l-43 -242h-102l-63 -361h104q57 0 86 21q31 25 43 92zM567 242q-31 -25 -96 -25h-125l72 393h102l35 209h-102l71 398h121q61 0 86 -27q18 -20 19 -66 q0 -12 -5 -45l-129 -737q-16 -75 -49 -100z" glyph-name="Eth" horiz-adv-x="835" unicode="Ð"/><glyph d="M1036 1442l-256 -1450h-143l-207 700l-125 -700h-242l256 1450h144l209 -699l123 699h241zM1016 1425h-209l-131 -751l-225 751h-119l-248 -1417h209l133 754l223 -754h119zM594 1579q6 2 16 2q31 0 66 -27q57 -41 112 -41q45 0 88.5 26t92.5 81l-68 53q-45 -51 -82 -61 q-33 -6 -74 24q-53 41 -112 41q-45 0 -92 -24.5t-101 -79.5l68 -55q49 55 86 61zM416 1573q61 61 111.5 91t103.5 30q66 0 123 -45q39 -27 61 -21q33 10 86 70l92 -78q-109 -123 -205 -123q-63 0 -120 45q-39 27 -70 21q-37 -8 -90 -70z" glyph-name="Ntilde" horiz-adv-x="847" unicode="Ñ"/><glyph d="M647 74q119 94 148 264l135 762q8 57 8 82q0 111 -61 178q-74 82 -218 82q-145 0 -245 -82q-119 -94 -148 -264l-135 -762q-8 -57 -8 -82q0 -111 61 -178q72 -82 217 -82q142 0 246 82zM172 61q-66 78 -66 195q0 20 9 82l135 762q29 172 151 272q109 86 258 86 q147 0 230 -86q66 -78 65 -194q0 -20 -8 -82l-135 -762q-29 -174 -154 -273q-104 -86 -256 -86q-153 0 -229 86zM705 1206q20 -20 20 -65q0 -20 -4 -45l-135 -762q-14 -80 -51 -107q-33 -27 -95 -26q-61 0 -86 26q-18 23 -18 66q0 12 4 45l135 760q10 78 51 108q33 27 92 27 q67 0 87 -27zM535 1194q-35 -27 -43 -98l-136 -762q-4 -25 -4 -43q0 -37 15 -51q20 -23 73 -23q55 0 84 23q31 25 45 98l136 760q2 16 2 41q0 41 -15 57q-18 20 -74 21q-52 0 -83 -23zM618 1518h97l-68 208h-201zM610 1501l-200 242h249l80 -242h-129z" glyph-name="Ograve" horiz-adv-x="806" unicode="Ò"/><glyph d="M647 74q119 94 148 264l135 762q8 57 8 82q0 111 -61 178q-74 82 -218 82q-145 0 -245 -82q-119 -94 -148 -264l-135 -762q-8 -57 -8 -82q0 -111 61 -178q72 -82 217 -82q142 0 246 82zM172 61q-66 78 -66 195q0 20 9 82l135 762q29 172 151 272q109 86 258 86 q147 0 230 -86q66 -78 65 -194q0 -20 -8 -82l-135 -762q-29 -174 -154 -273q-104 -86 -256 -86q-153 0 -229 86zM705 1206q20 -20 20 -65q0 -20 -4 -45l-135 -762q-14 -80 -51 -107q-33 -27 -95 -26q-61 0 -86 26q-18 23 -18 66q0 12 4 45l135 760q10 78 51 108q33 27 92 27 q67 0 87 -27zM535 1194q-35 -27 -43 -98l-136 -762q-4 -25 -4 -43q0 -37 15 -51q20 -23 73 -23q55 0 84 23q31 25 45 98l136 760q2 16 2 41q0 41 -15 57q-18 20 -74 21q-52 0 -83 -23zM723 1518l244 208h-199l-139 -208h94zM727 1501h-131l164 242h252z" glyph-name="Oacute" horiz-adv-x="806" unicode="Ó"/><glyph d="M647 74q119 94 148 264l135 762q8 57 8 82q0 111 -61 178q-74 82 -218 82q-145 0 -245 -82q-119 -94 -148 -264l-135 -762q-8 -57 -8 -82q0 -111 61 -178q72 -82 217 -82q142 0 246 82zM172 61q-66 78 -66 195q0 20 9 82l135 762q29 172 151 272q109 86 258 86 q147 0 230 -86q66 -78 65 -194q0 -20 -8 -82l-135 -762q-29 -174 -154 -273q-104 -86 -256 -86q-153 0 -229 86zM705 1206q20 -20 20 -65q0 -20 -4 -45l-135 -762q-14 -80 -51 -107q-33 -27 -95 -26q-61 0 -86 26q-18 23 -18 66q0 12 4 45l135 760q10 78 51 108q33 27 92 27 q67 0 87 -27zM535 1194q-35 -27 -43 -98l-136 -762q-4 -25 -4 -43q0 -37 15 -51q20 -23 73 -23q55 0 84 23q31 25 45 98l136 760q2 16 2 41q0 41 -15 57q-18 20 -74 21q-52 0 -83 -23zM428 1501l164 242h235l82 -242h-131l-90 109l-129 -109h-131zM461 1518h94l137 116 l94 -116h99l-70 208h-215z" glyph-name="Ocircumflex" horiz-adv-x="806" unicode="Ô"/><glyph d="M350 285q0 -88 88 -88q113 0 133 135l138 774q4 16 4 45q0 86 -88 86q-109 0 -133 -135l-138 -774q-4 -33 -4 -43zM475 1106q29 147 150 147q104 0 104 -104q0 -29 -4 -47l-137 -774q-25 -147 -150 -148q-104 0 -104 107q0 12 4 45zM387.5 1363q106.5 95 274.5 95 q143 0 219.5 -69.5t76.5 -202.5q0 -41 -10 -99l-131 -745q-33 -176 -139.5 -271.5t-274.5 -95.5q-143 0 -220 70t-77 203q0 41 11 98l131 746q33 176 139.5 271zM133 342q-10 -57 -10 -94q0 -125 71.5 -190.5t208.5 -65.5q162 0 264.5 91t133.5 263l131 746q10 57 10 94 q0 125 -71.5 190.5t-208.5 65.5q-162 0 -264.5 -91t-133.5 -264zM575 1579q6 2 17 2q31 0 65 -27q57 -41 113 -41q45 0 88 26t92 81l-67 53q-45 -51 -82 -61q-33 -6 -74 24q-53 41 -113 41q-45 0 -92 -24.5t-100 -79.5l67 -55q49 55 86 61zM397 1573q61 61 111.5 91 t103.5 30q66 0 123 -45q39 -27 62 -21q33 10 86 70l92 -78q-109 -123 -205 -123q-63 0 -121 45q-39 27 -69 21q-37 -8 -91 -70z" glyph-name="Otilde" horiz-adv-x="811" unicode="Õ"/><glyph d="M647 74q119 94 148 264l135 762q8 57 8 82q0 111 -61 178q-74 82 -218 82q-145 0 -245 -82q-119 -94 -148 -264l-135 -762q-8 -57 -8 -82q0 -111 61 -178q72 -82 217 -82q142 0 246 82zM172 61q-66 78 -66 195q0 20 9 82l135 762q29 172 151 272q109 86 258 86 q147 0 230 -86q66 -78 65 -194q0 -20 -8 -82l-135 -762q-29 -174 -154 -273q-104 -86 -256 -86q-153 0 -229 86zM705 1206q20 -20 20 -65q0 -20 -4 -45l-135 -762q-14 -80 -51 -107q-33 -27 -95 -26q-61 0 -86 26q-18 23 -18 66q0 12 4 45l135 760q10 78 51 108q33 27 92 27 q67 0 87 -27zM535 1194q-35 -27 -43 -98l-136 -762q-4 -25 -4 -43q0 -37 15 -51q20 -23 73 -23q55 0 84 23q31 25 45 98l136 760q2 16 2 41q0 41 -15 57q-18 20 -74 21q-52 0 -83 -23zM458.5 1537.5q22.5 -21.5 55.5 -21.5q43 0 77 33.5t34 78.5q0 33 -21.5 53.5t-54.5 20.5 q-43 0 -78 -32t-35 -79q0 -32 22.5 -53.5zM460 1680q40 38 89 38q41 0 66.5 -25.5t25.5 -66.5q0 -51 -39 -89t-88 -38q-41 0 -67.5 26.5t-26.5 67.5q0 49 40 87zM770.5 1537.5q22.5 -21.5 54.5 -21.5q43 0 77 33.5t34 78.5q0 33 -21.5 53.5t-54.5 20.5q-43 0 -77.5 -32 t-34.5 -79q0 -32 22.5 -53.5zM771 1680q40 38 89 38q41 0 66.5 -25.5t25.5 -66.5q0 -51 -39 -89t-88 -38q-41 0 -67.5 26.5t-26.5 67.5q0 49 40 87z" glyph-name="Odieresis" horiz-adv-x="806" unicode="Ö"/><glyph d="M864 887l-176 -152l123 -151l-205 -172l-121 151l-180 -151l-143 176l178 149l-125 150l205 174l123 -152l176 152zM840 887l-121 149l-176 -151l-127 151l-176 -149l125 -154l-179 -149l123 -148l180 152l121 -152l176 152l-122 147z" glyph-name="multiply" horiz-adv-x="768" unicode="×"/><glyph d="M944 1255q8 -31 8 -73q0 -45 -8 -88l-133 -762q-33 -178 -154 -273q-109 -86 -258 -86q-145 0 -219 78l-71 -108l-109 53l115 180q-8 53 -9 80q0 27 9 80l133 762q31 172 153 272q109 86 258 86q143 0 220 -76l71 109l109 -51zM954 1468l-73 -116q-68 88 -222 88 q-143 0 -247 -82q-117 -98 -148 -264l-133 -762q-8 -39 -8 -80q0 -31 8 -80l-106 -168l79 -41l74 117q72 -90 221 -90q143 0 248 82q117 92 148 264l133 762q8 41 8 84q0 45 -8 78l106 170zM410 641l295 461q4 25 4 35q0 37 -17 57q-18 20 -74 20q-53 0 -83 -22 q-33 -25 -46 -98zM526 1204q33 27 92 27q66 0 87 -27q20 -25 20 -69q0 -10 -4 -39l-340 -533l92 535q16 79 53 106zM649 791l-293 -461q-4 -29 -4 -43q0 -35 15 -49q20 -23 73 -23q55 0 84 23q31 25 45 98zM535 225q-33 -27 -95 -26q-61 0 -86 26q-18 23 -18 66q0 14 4 43 l338 534l-92 -536q-14 -80 -51 -107z" glyph-name="Oslash" horiz-adv-x="806" unicode="Ø"/><glyph d="M655 74q119 100 148 264l190 1087h-209l-190 -1091q-16 -80 -53 -107q-33 -27 -92 -26q-63 0 -89 26q-18 18 -18 62q0 23 6 49l191 1087h-209l-191 -1091q-8 -57 -8 -82q0 -111 62 -178q72 -82 217 -82q139 0 245 82zM180 61q-66 78 -65 195q0 20 8 82l194 1104h242 l-194 -1108q-6 -43 -7 -47q0 -33 15 -47q20 -23 76 -23q51 0 83 23q33 25 46 98l194 1104h242l-195 -1108q-29 -170 -153 -273q-106 -86 -256 -86q-154 0 -230 86zM627 1518h96l-68 208h-200zM618 1501l-200 242h250l80 -242h-130z" glyph-name="Ugrave" horiz-adv-x="823" unicode="Ù"/><glyph d="M655 74q119 100 148 264l190 1087h-209l-190 -1091q-16 -80 -53 -107q-33 -27 -92 -26q-63 0 -89 26q-18 18 -18 62q0 23 6 49l191 1087h-209l-191 -1091q-8 -57 -8 -82q0 -111 62 -178q72 -82 217 -82q139 0 245 82zM180 61q-66 78 -65 195q0 20 8 82l194 1104h242 l-194 -1108q-6 -43 -7 -47q0 -33 15 -47q20 -23 76 -23q51 0 83 23q33 25 46 98l194 1104h242l-195 -1108q-29 -170 -153 -273q-106 -86 -256 -86q-154 0 -230 86zM731 1518l244 208h-199l-139 -208h94zM735 1501h-131l164 242h252z" glyph-name="Uacute" horiz-adv-x="823" unicode="Ú"/><glyph d="M655 74q119 100 148 264l190 1087h-209l-190 -1091q-16 -80 -53 -107q-33 -27 -92 -26q-63 0 -89 26q-18 18 -18 62q0 23 6 49l191 1087h-209l-191 -1091q-8 -57 -8 -82q0 -111 62 -178q72 -82 217 -82q139 0 245 82zM180 61q-66 78 -65 195q0 20 8 82l194 1104h242 l-194 -1108q-6 -43 -7 -47q0 -33 15 -47q20 -23 76 -23q51 0 83 23q33 25 46 98l194 1104h242l-195 -1108q-29 -170 -153 -273q-106 -86 -256 -86q-154 0 -230 86zM915 1501h-129l-90 109l-129 -109h-133l166 242h236zM891 1518l-68 208h-215l-141 -208h96l137 116l95 -116 h96z" glyph-name="Ucircumflex" horiz-adv-x="823" unicode="Û"/><glyph d="M655 74q119 100 148 264l190 1087h-209l-190 -1091q-16 -80 -53 -107q-33 -27 -92 -26q-63 0 -89 26q-18 18 -18 62q0 23 6 49l191 1087h-209l-191 -1091q-8 -57 -8 -82q0 -111 62 -178q72 -82 217 -82q139 0 245 82zM180 61q-66 78 -65 195q0 20 8 82l194 1104h242 l-194 -1108q-6 -43 -7 -47q0 -33 15 -47q20 -23 76 -23q51 0 83 23q33 25 46 98l194 1104h242l-195 -1108q-29 -170 -153 -273q-106 -86 -256 -86q-154 0 -230 86zM466.5 1537.5q22.5 -21.5 55.5 -21.5q43 0 77 33.5t34 78.5q0 33 -21.5 53.5t-54.5 20.5q-43 0 -78 -32 t-35 -79q0 -32 22.5 -53.5zM468 1680q40 38 89 38q41 0 66.5 -25.5t25.5 -66.5q0 -51 -39 -89t-88 -38q-41 0 -67.5 26.5t-26.5 67.5q0 49 40 87zM778.5 1537.5q22.5 -21.5 55.5 -21.5q43 0 76.5 33.5t33.5 78.5q0 33 -21.5 53.5t-54.5 20.5q-43 0 -77.5 -32t-34.5 -79 q0 -32 22.5 -53.5zM779 1680q40 38 89 38q41 0 67 -25.5t26 -66.5q0 -51 -39 -89t-88 -38q-41 0 -68 26.5t-27 67.5q0 49 40 87z" glyph-name="Udieresis" horiz-adv-x="823" unicode="Ü"/><glyph d="M1057 1442l-447 -940l-90 -510h-244l91 512l-115 938h256l57 -494l236 494h256zM1032 1425h-219l-256 -534l-65 534h-220l111 -921l-86 -496h211l86 498zM721 1518l244 208h-199l-139 -208h94zM725 1501h-131l164 242h252z" glyph-name="Yacute" horiz-adv-x="802" unicode="Ý"/><glyph d="M494 1098h120q59 0 86 -27q18 -20 19 -65q0 -12 -4 -45l-29 -156q-16 -80 -51 -107q-33 -27 -92 -26h-125zM543 688q53 0 84 23q31 25 43 98l28 156q4 25 4 41q0 37 -14 53q-23 23 -74 22h-108l-68 -393h105zM381 463h121q143 0 248 82q117 92 145 264l29 156q6 41 6 77 q0 111 -60 181q-74 84 -217 84h-125l21 118h-209l-248 -1417h209zM72 -8l256 1450h241l-20 -119h104q152 0 230 -88q66 -78 65 -193q0 -25 -8 -81l-29 -156q-16 -98 -58 -166t-93 -107q-109 -86 -258 -86h-109l-80 -454h-241z" glyph-name="Thorn" horiz-adv-x="802" unicode="Þ"/><glyph d="M862 555q0 -43 -8 -82l-23 -131q-20 -96 -53 -152q-45 -76 -102 -116q-104 -82 -254 -82h-43l45 241h39q57 0 86 21q27 20 41 92l22 131q4 29 4 43q0 37 -14 51q-20 23 -74 23h-43l45 242q61 0 91 22q33 27 47 98l22 134q4 25 4 43q0 35 -12 47q-16 20 -61 20 q-43 0 -68 -20q-33 -25 -45 -95l-195 -1093h-241l194 1098q14 86 53 153q45 76 103 117q104 82 237 82q66 0 120.5 -21.5t92.5 -60.5q47 -49 60 -119q8 -31 8 -74t-8 -82l-23 -133q-29 -145 -116 -219q69 -61 69 -178zM893 956l22 134q8 39 9 77q0 43 -9 70q-12 66 -55 111 q-72 78 -201 77q-123 0 -229 -77q-57 -45 -96 -113q-37 -68 -51 -150l-191 -1077h209l191 1082q12 70 51 102q29 25 78 25q51 0 73 -25q16 -23 17 -64q0 -10 -4 -43l-23 -133q-12 -76 -53 -106q-33 -27 -88 -27l-37 -209h22q61 0 86 -26q18 -20 19 -66q0 -12 -4 -45 l-23 -131q-16 -78 -49 -100q-31 -25 -94 -25h-27l-37 -209h23q145 0 246 78q57 45 96 113q37 59 51 147l23 131q8 39 8 82q0 119 -80 174q100 73 127 223z" glyph-name="germandbls" horiz-adv-x="815" unicode="ß"/><glyph d="M588 -8v227h-244l-82 -227h-248l545 1450h240l35 -1450h-246zM604 8h213l-35 1417h-211l-532 -1417h211l82 228h272v-228zM428 461h160v459zM403 444l201 570v-570h-201zM651 1518h97l-68 208h-201zM643 1501l-201 242h250l80 -242h-129z" glyph-name="agrave" unicode="à"/><glyph d="M588 -8v227h-244l-82 -227h-248l545 1450h240l35 -1450h-246zM604 8h213l-35 1417h-211l-532 -1417h211l82 228h272v-228zM428 461h160v459zM403 444l201 570v-570h-201zM756 1518l243 208h-198l-139 -208h94zM760 1501h-131l164 242h251z" glyph-name="aacute" unicode="á"/><glyph d="M588 -8v227h-244l-82 -227h-248l545 1450h240l35 -1450h-246zM604 8h213l-35 1417h-211l-532 -1417h211l82 228h272v-228zM428 461h160v459zM403 444l201 570v-570h-201zM930 1501h-129l-90 109l-129 -109h-133l165 242h236zM905 1518l-67 208h-215l-142 -208h97l137 116 l94 -116h96z" glyph-name="acircumflex" unicode="â"/><glyph d="M588 -8v227h-244l-82 -227h-248l545 1450h240l35 -1450h-246zM604 8h213l-35 1417h-211l-532 -1417h211l82 228h272v-228zM428 461h160v459zM403 444l201 570v-570h-201zM596 1579q6 2 16 2q31 0 66 -27q57 -41 113 -41q45 0 88 26t92 81l-68 53q-45 -51 -82 -61 q-33 -6 -73 24q-53 41 -113 41q-45 0 -92 -24.5t-101 -79.5l68 -55q49 55 86 61zM418 1573q61 61 111.5 91t103.5 30q66 0 123 -45q39 -27 61 -21q33 10 86 70l92 -78q-109 -123 -204 -123q-63 0 -121 45q-39 27 -70 21q-37 -8 -90 -70z" glyph-name="atilde" unicode="ã"/><glyph d="M588 -8v227h-244l-82 -227h-248l545 1450h240l35 -1450h-246zM604 8h213l-35 1417h-211l-532 -1417h211l82 228h272v-228zM428 461h160v459zM403 444l201 570v-570h-201zM481.5 1537.5q22.5 -21.5 55.5 -21.5q43 0 76.5 33.5t33.5 78.5q0 33 -21.5 53.5t-54.5 20.5 q-43 0 -77.5 -32t-34.5 -79q0 -32 22.5 -53.5zM482 1680q40 38 89 38q41 0 67 -25.5t26 -66.5q0 -51 -39 -89t-88 -38q-41 0 -68 26.5t-27 67.5q0 49 40 87zM792.5 1537.5q22.5 -21.5 55.5 -21.5q43 0 76.5 33.5t33.5 78.5q0 33 -21.5 53.5t-53.5 20.5q-43 0 -78 -32 t-35 -79q0 -32 22.5 -53.5zM794 1680q40 38 89 38q41 0 66.5 -25.5t25.5 -66.5q0 -51 -39 -89t-88 -38q-41 0 -67.5 26.5t-26.5 67.5q0 49 40 87z" glyph-name="adieresis" unicode="ä"/><glyph d="M588 -8v227h-244l-82 -227h-248l545 1450h240l35 -1450h-246zM604 8h213l-35 1417h-211l-532 -1417h211l82 228h272v-228zM428 461h160v459zM403 444l201 570v-570h-201zM804 1572q50 48 50 111q0 47 -30.5 78t-80.5 31q-63 0 -112 -48t-49 -114q0 -47 30.5 -76.5 t79.5 -29.5q62 0 112 48zM601 1543q-36 36 -36 89q0 70 54.5 123t123.5 53q55 0 91 -35.5t36 -91.5q0 -68 -55 -121t-123 -53q-55 0 -91 36zM747.5 1683.5q10.5 -12.5 8.5 -28.5q-4 -14 -16.5 -24.5t-26.5 -10.5q-16 0 -26.5 11t-6.5 26q2 16 14.5 27.5t28.5 11.5 q14 0 24.5 -12.5zM706.5 1672q-8.5 -7 -10.5 -17v-4q0 -14 17 -15q20 0 26 21v4q0 8 -5 13t-11 5q-8 0 -16.5 -7z" glyph-name="aring" unicode="å"/><glyph d="M4 -8l586 1450h792l-43 -242h-368l-60 -344h254l-43 -242h-254l-67 -381h368l-43 -241h-610l39 225h-211l-90 -225h-250zM29 8h213l90 225h243l-38 -225h577l35 209h-369l76 414h254l35 209h-254l67 377h369l35 208h-760zM600 459l119 676l-275 -676h156zM612 442h-192 l340 844z" glyph-name="ae" horiz-adv-x="1177" unicode="æ"/><glyph d="M680 965l25 137q6 43 6 47q0 33 -15 47q-23 23 -75 23q-55 0 -84 -23q-33 -25 -45 -98l-136 -762q-4 -25 -4 -43q0 -37 15 -51q23 -23 73 -23q53 0 86 23q33 29 43 98l35 190h242l-35 -194q-29 -172 -152 -273q-90 -72 -204 -79v4h8q0 -4 6 -11q25 -23 39 -44t14 -60 q0 -20 -2 -33q-8 -59 -60 -103t-114 -44q-55 0 -91 35.5t-36 89.5q0 12 4 32h129q-2 -4 -2 -12q0 -16 17 -16q8 0 15 6t9 16v6q0 8 -14 23q-45 33 -45 90q0 18 2 27v-2v2l6 -8q-104 16 -168 81q-63 82 -63 197q0 37 6 80l135 762q29 170 153 272q109 86 256 86 q154 0 230 -86q66 -78 65 -194q0 -20 -8 -82l-24 -133h-242zM930 1102q8 57 8 82q0 111 -61 178q-72 82 -218 82q-139 0 -245 -82q-119 -100 -148 -264l-135 -762q-6 -39 -6 -78q0 -106 59 -182q55 -61 160 -78l6 -8v-2v-2q-2 -6 -2 -21q0 -47 39 -80q14 -12 18.5 -21 t2.5 -22q-2 -16 -13.5 -26.5t-27.5 -10.5q-14 0 -22.5 8.5t-10.5 20.5h-96q-6 -53 25.5 -89t82.5 -36q63 0 112.5 49t49.5 117q0 33 -13.5 51.5t-35.5 38.5q-12 10 -13 23h9v8q113 16 192 80q119 94 148 264l30 174h-209l-30 -178q-14 -78 -49 -107q-33 -27 -97 -26 q-59 0 -86 26q-18 23 -18 66q0 12 4 45l135 762q16 78 51 106q33 27 95 27q61 0 88 -27q18 -18 18 -61q0 -20 -6 -49l-21 -117h209z" glyph-name="ccedilla" horiz-adv-x="798" unicode="ç"/><glyph d="M895 1200h-369l-59 -344h254l-43 -242h-254l-68 -381h369l-43 -241h-610l256 1450h610zM883 1217l35 208h-578l-248 -1417h578l35 209h-369l76 414h254l34 209h-254l68 377h369zM594 1518h96l-67 208h-201zM586 1501l-201 242h250l80 -242h-129z" glyph-name="egrave" horiz-adv-x="733" unicode="è"/><glyph d="M895 1200h-369l-59 -344h254l-43 -242h-254l-68 -381h369l-43 -241h-610l256 1450h610zM883 1217l35 208h-578l-248 -1417h578l35 209h-369l76 414h254l34 209h-254l68 377h369zM698 1518l244 208h-199l-139 -208h94zM702 1501h-131l164 242h252z" glyph-name="eacute" horiz-adv-x="733" unicode="é"/><glyph d="M895 1200h-369l-59 -344h254l-43 -242h-254l-68 -381h369l-43 -241h-610l256 1450h610zM883 1217l35 208h-578l-248 -1417h578l35 209h-369l76 414h254l34 209h-254l68 377h369zM895 1501h-129l-90 109l-129 -109h-133l166 242h235zM870 1518l-67 208h-215l-142 -208h97 l137 116l94 -116h96z" glyph-name="ecircumflex" horiz-adv-x="733" unicode="ê"/><glyph d="M895 1200h-369l-59 -344h254l-43 -242h-254l-68 -381h369l-43 -241h-610l256 1450h610zM883 1217l35 208h-578l-248 -1417h578l35 209h-369l76 414h254l34 209h-254l68 377h369zM434.5 1537.5q22.5 -21.5 54.5 -21.5q43 0 77 33.5t34 78.5q0 33 -21.5 53.5t-54.5 20.5 q-43 0 -77.5 -32t-34.5 -79q0 -32 22.5 -53.5zM435 1680q40 38 89 38q41 0 66.5 -25.5t25.5 -66.5q0 -51 -38.5 -89t-88.5 -38q-41 0 -67.5 26.5t-26.5 67.5q0 49 40 87zM745.5 1537.5q22.5 -21.5 55.5 -21.5q43 0 76.5 33.5t33.5 78.5q0 33 -21.5 53.5t-53.5 20.5 q-43 0 -78 -32t-35 -79q0 -32 22.5 -53.5zM746.5 1680q39.5 38 89.5 38q41 0 66.5 -25.5t25.5 -66.5q0 -51 -39 -89t-88 -38q-41 0 -67.5 26.5t-26.5 67.5q0 49 39.5 87z" glyph-name="edieresis" horiz-adv-x="733" unicode="ë"/><glyph d="M301 8l248 1417h-209l-248 -1417h209zM313 -8h-241l256 1450h241zM410 1518h96l-68 208h-200zM401 1501l-200 242h250l79 -242h-129z" glyph-name="igrave" horiz-adv-x="389" unicode="ì"/><glyph d="M301 8l248 1417h-209l-248 -1417h209zM313 -8h-241l256 1450h241zM514 1518l244 208h-199l-139 -208h94zM518 1501h-131l164 242h252z" glyph-name="iacute" horiz-adv-x="389" unicode="í"/><glyph d="M301 8l248 1417h-209l-248 -1417h209zM313 -8h-241l256 1450h241zM698 1501h-129l-90 109l-129 -109h-133l166 242h235zM674 1518l-68 208h-215l-141 -208h96l137 116l95 -116h96z" glyph-name="icircumflex" horiz-adv-x="387" unicode="î"/><glyph d="M301 8l248 1417h-209l-248 -1417h209zM313 -8h-241l256 1450h241zM249.5 1537.5q22.5 -21.5 55.5 -21.5q43 0 77 33.5t34 78.5q0 33 -21.5 53.5t-54.5 20.5q-43 0 -78 -32t-35 -79q0 -32 22.5 -53.5zM251 1680q40 38 89 38q41 0 66.5 -25.5t25.5 -66.5q0 -51 -39 -89 t-88 -38q-41 0 -67.5 26.5t-26.5 67.5q0 49 40 87zM561.5 1537.5q22.5 -21.5 54.5 -21.5q43 0 77 33.5t34 78.5q0 33 -21.5 53.5t-54.5 20.5q-43 0 -77.5 -32t-34.5 -79q0 -32 22.5 -53.5zM562 1680q40 38 89 38q41 0 66.5 -25.5t25.5 -66.5q0 -51 -38.5 -89t-88.5 -38 q-41 0 -67.5 26.5t-26.5 67.5q0 49 40 87z" glyph-name="idieresis" horiz-adv-x="389" unicode="ï"/><glyph d="M979 1161q0 -25 -8 -82l-129 -737q-16 -86 -54 -152q-39 -70 -102 -116q-106 -82 -254 -82h-350l106 602h-82l44 242h81l107 606h346q152 0 229 -88q66 -78 66 -193zM684 1425h-334l-106 -606h-82l-35 -209h82l-107 -602h330q139 0 246 78q57 45 96 113q35 59 51 147 l129 737q6 41 7 78q0 111 -60 180q-74 84 -217 84zM729 1083q4 25 4 41q0 37 -14 54q-20 23 -74 22h-108l-64 -364h102l-43 -242h-102l-63 -361h104q57 0 86 21q31 25 43 92zM567 242q-31 -25 -96 -25h-125l72 393h102l35 209h-102l71 398h121q61 0 86 -27q18 -20 19 -66 q0 -12 -5 -45l-129 -737q-16 -75 -49 -100z" glyph-name="eth" horiz-adv-x="835" unicode="ð"/><glyph d="M1036 1442l-256 -1450h-143l-207 700l-125 -700h-242l256 1450h144l209 -699l123 699h241zM1016 1425h-209l-131 -751l-225 751h-119l-248 -1417h209l133 754l223 -754h119zM594 1579q6 2 16 2q31 0 66 -27q57 -41 112 -41q45 0 88.5 26t92.5 81l-68 53q-45 -51 -82 -61 q-33 -6 -74 24q-53 41 -112 41q-45 0 -92 -24.5t-101 -79.5l68 -55q49 55 86 61zM416 1573q61 61 111.5 91t103.5 30q66 0 123 -45q39 -27 61 -21q33 10 86 70l92 -78q-109 -123 -205 -123q-63 0 -120 45q-39 27 -70 21q-37 -8 -90 -70z" glyph-name="ntilde" horiz-adv-x="847" unicode="ñ"/><glyph d="M647 74q119 94 148 264l135 762q8 57 8 82q0 111 -61 178q-74 82 -218 82q-145 0 -245 -82q-119 -94 -148 -264l-135 -762q-8 -57 -8 -82q0 -111 61 -178q72 -82 217 -82q142 0 246 82zM172 61q-66 78 -66 195q0 20 9 82l135 762q29 172 151 272q109 86 258 86 q147 0 230 -86q66 -78 65 -194q0 -20 -8 -82l-135 -762q-29 -174 -154 -273q-104 -86 -256 -86q-153 0 -229 86zM705 1206q20 -20 20 -65q0 -20 -4 -45l-135 -762q-14 -80 -51 -107q-33 -27 -95 -26q-61 0 -86 26q-18 23 -18 66q0 12 4 45l135 760q10 78 51 108q33 27 92 27 q67 0 87 -27zM535 1194q-35 -27 -43 -98l-136 -762q-4 -25 -4 -43q0 -37 15 -51q20 -23 73 -23q55 0 84 23q31 25 45 98l136 760q2 16 2 41q0 41 -15 57q-18 20 -74 21q-52 0 -83 -23zM618 1518h97l-68 208h-201zM610 1501l-200 242h249l80 -242h-129z" glyph-name="ograve" horiz-adv-x="806" unicode="ò"/><glyph d="M647 74q119 94 148 264l135 762q8 57 8 82q0 111 -61 178q-74 82 -218 82q-145 0 -245 -82q-119 -94 -148 -264l-135 -762q-8 -57 -8 -82q0 -111 61 -178q72 -82 217 -82q142 0 246 82zM172 61q-66 78 -66 195q0 20 9 82l135 762q29 172 151 272q109 86 258 86 q147 0 230 -86q66 -78 65 -194q0 -20 -8 -82l-135 -762q-29 -174 -154 -273q-104 -86 -256 -86q-153 0 -229 86zM705 1206q20 -20 20 -65q0 -20 -4 -45l-135 -762q-14 -80 -51 -107q-33 -27 -95 -26q-61 0 -86 26q-18 23 -18 66q0 12 4 45l135 760q10 78 51 108q33 27 92 27 q67 0 87 -27zM535 1194q-35 -27 -43 -98l-136 -762q-4 -25 -4 -43q0 -37 15 -51q20 -23 73 -23q55 0 84 23q31 25 45 98l136 760q2 16 2 41q0 41 -15 57q-18 20 -74 21q-52 0 -83 -23zM723 1518l244 208h-199l-139 -208h94zM727 1501h-131l164 242h252z" glyph-name="oacute" horiz-adv-x="806" unicode="ó"/><glyph d="M647 74q119 94 148 264l135 762q8 57 8 82q0 111 -61 178q-74 82 -218 82q-145 0 -245 -82q-119 -94 -148 -264l-135 -762q-8 -57 -8 -82q0 -111 61 -178q72 -82 217 -82q142 0 246 82zM172 61q-66 78 -66 195q0 20 9 82l135 762q29 172 151 272q109 86 258 86 q147 0 230 -86q66 -78 65 -194q0 -20 -8 -82l-135 -762q-29 -174 -154 -273q-104 -86 -256 -86q-153 0 -229 86zM705 1206q20 -20 20 -65q0 -20 -4 -45l-135 -762q-14 -80 -51 -107q-33 -27 -95 -26q-61 0 -86 26q-18 23 -18 66q0 12 4 45l135 760q10 78 51 108q33 27 92 27 q67 0 87 -27zM535 1194q-35 -27 -43 -98l-136 -762q-4 -25 -4 -43q0 -37 15 -51q20 -23 73 -23q55 0 84 23q31 25 45 98l136 760q2 16 2 41q0 41 -15 57q-18 20 -74 21q-52 0 -83 -23zM428 1501l164 242h235l82 -242h-131l-90 109l-129 -109h-131zM461 1518h94l137 116 l94 -116h99l-70 208h-215z" glyph-name="ocircumflex" horiz-adv-x="806" unicode="ô"/><glyph d="M350 285q0 -88 88 -88q113 0 133 135l138 774q4 16 4 45q0 86 -88 86q-109 0 -133 -135l-138 -774q-4 -33 -4 -43zM475 1106q29 147 150 147q104 0 104 -104q0 -29 -4 -47l-137 -774q-25 -147 -150 -148q-104 0 -104 107q0 12 4 45zM387.5 1363q106.5 95 274.5 95 q143 0 219.5 -69.5t76.5 -202.5q0 -41 -10 -99l-131 -745q-33 -176 -139.5 -271.5t-274.5 -95.5q-143 0 -220 70t-77 203q0 41 11 98l131 746q33 176 139.5 271zM133 342q-10 -57 -10 -94q0 -125 71.5 -190.5t208.5 -65.5q162 0 264.5 91t133.5 263l131 746q10 57 10 94 q0 125 -71.5 190.5t-208.5 65.5q-162 0 -264.5 -91t-133.5 -264zM575 1579q6 2 17 2q31 0 65 -27q57 -41 113 -41q45 0 88 26t92 81l-67 53q-45 -51 -82 -61q-33 -6 -74 24q-53 41 -113 41q-45 0 -92 -24.5t-100 -79.5l67 -55q49 55 86 61zM397 1573q61 61 111.5 91 t103.5 30q66 0 123 -45q39 -27 62 -21q33 10 86 70l92 -78q-109 -123 -205 -123q-63 0 -121 45q-39 27 -69 21q-37 -8 -91 -70z" glyph-name="otilde" horiz-adv-x="811" unicode="õ"/><glyph d="M647 74q119 94 148 264l135 762q8 57 8 82q0 111 -61 178q-74 82 -218 82q-145 0 -245 -82q-119 -94 -148 -264l-135 -762q-8 -57 -8 -82q0 -111 61 -178q72 -82 217 -82q142 0 246 82zM172 61q-66 78 -66 195q0 20 9 82l135 762q29 172 151 272q109 86 258 86 q147 0 230 -86q66 -78 65 -194q0 -20 -8 -82l-135 -762q-29 -174 -154 -273q-104 -86 -256 -86q-153 0 -229 86zM705 1206q20 -20 20 -65q0 -20 -4 -45l-135 -762q-14 -80 -51 -107q-33 -27 -95 -26q-61 0 -86 26q-18 23 -18 66q0 12 4 45l135 760q10 78 51 108q33 27 92 27 q67 0 87 -27zM535 1194q-35 -27 -43 -98l-136 -762q-4 -25 -4 -43q0 -37 15 -51q20 -23 73 -23q55 0 84 23q31 25 45 98l136 760q2 16 2 41q0 41 -15 57q-18 20 -74 21q-52 0 -83 -23zM458.5 1537.5q22.5 -21.5 55.5 -21.5q43 0 77 33.5t34 78.5q0 33 -21.5 53.5t-54.5 20.5 q-43 0 -78 -32t-35 -79q0 -32 22.5 -53.5zM460 1680q40 38 89 38q41 0 66.5 -25.5t25.5 -66.5q0 -51 -39 -89t-88 -38q-41 0 -67.5 26.5t-26.5 67.5q0 49 40 87zM770.5 1537.5q22.5 -21.5 54.5 -21.5q43 0 77 33.5t34 78.5q0 33 -21.5 53.5t-54.5 20.5q-43 0 -77.5 -32 t-34.5 -79q0 -32 22.5 -53.5zM771 1680q40 38 89 38q41 0 66.5 -25.5t25.5 -66.5q0 -51 -39 -89t-88 -38q-41 0 -67.5 26.5t-26.5 67.5q0 49 40 87z" glyph-name="odieresis" horiz-adv-x="806" unicode="ö"/><glyph d="M768 629l37 211h-578l-37 -211h578zM780 612h-610l45 244h610zM630.5 1097.5q-24.5 24.5 -63.5 24.5q-45 0 -81.5 -31.5t-45.5 -76.5q-2 -6 -2 -19q0 -37 25.5 -61.5t64.5 -24.5q49 0 88 38t39 91q0 35 -24.5 59.5zM629 936q-43 -43 -101 -43q-47 0 -76.5 29.5 t-29.5 76.5q0 53 45 96.5t100 43.5q45 0 75 -29t30 -74q0 -57 -43 -100zM532.5 534.5q-24.5 24.5 -63.5 24.5q-49 0 -89 -38t-40 -89q0 -37 24.5 -61.5t63.5 -24.5q49 0 89 38t40 89q0 37 -24.5 61.5zM528 373q-45 -43 -100 -43q-45 0 -74.5 29.5t-29.5 74.5q0 55 45 98 t100 43q45 0 74.5 -29.5t29.5 -74.5q0 -55 -45 -98z" glyph-name="divide" horiz-adv-x="737" unicode="÷"/><glyph d="M944 1255q8 -31 8 -73q0 -45 -8 -88l-133 -762q-33 -178 -154 -273q-109 -86 -258 -86q-145 0 -219 78l-71 -108l-109 53l115 180q-8 53 -9 80q0 27 9 80l133 762q31 172 153 272q109 86 258 86q143 0 220 -76l71 109l109 -51zM954 1468l-73 -116q-68 88 -222 88 q-143 0 -247 -82q-117 -98 -148 -264l-133 -762q-8 -39 -8 -80q0 -31 8 -80l-106 -168l79 -41l74 117q72 -90 221 -90q143 0 248 82q117 92 148 264l133 762q8 41 8 84q0 45 -8 78l106 170zM410 641l295 461q4 25 4 35q0 37 -17 57q-18 20 -74 20q-53 0 -83 -22 q-33 -25 -46 -98zM526 1204q33 27 92 27q66 0 87 -27q20 -25 20 -69q0 -10 -4 -39l-340 -533l92 535q16 79 53 106zM649 791l-293 -461q-4 -29 -4 -43q0 -35 15 -49q20 -23 73 -23q55 0 84 23q31 25 45 98zM535 225q-33 -27 -95 -26q-61 0 -86 26q-18 23 -18 66q0 14 4 43 l338 534l-92 -536q-14 -80 -51 -107z" glyph-name="oslash" horiz-adv-x="806" unicode="ø"/><glyph d="M655 74q119 100 148 264l190 1087h-209l-190 -1091q-16 -80 -53 -107q-33 -27 -92 -26q-63 0 -89 26q-18 18 -18 62q0 23 6 49l191 1087h-209l-191 -1091q-8 -57 -8 -82q0 -111 62 -178q72 -82 217 -82q139 0 245 82zM180 61q-66 78 -65 195q0 20 8 82l194 1104h242 l-194 -1108q-6 -43 -7 -47q0 -33 15 -47q20 -23 76 -23q51 0 83 23q33 25 46 98l194 1104h242l-195 -1108q-29 -170 -153 -273q-106 -86 -256 -86q-154 0 -230 86zM627 1518h96l-68 208h-200zM618 1501l-200 242h250l80 -242h-130z" glyph-name="ugrave" horiz-adv-x="823" unicode="ù"/><glyph d="M655 74q119 100 148 264l190 1087h-209l-190 -1091q-16 -80 -53 -107q-33 -27 -92 -26q-63 0 -89 26q-18 18 -18 62q0 23 6 49l191 1087h-209l-191 -1091q-8 -57 -8 -82q0 -111 62 -178q72 -82 217 -82q139 0 245 82zM180 61q-66 78 -65 195q0 20 8 82l194 1104h242 l-194 -1108q-6 -43 -7 -47q0 -33 15 -47q20 -23 76 -23q51 0 83 23q33 25 46 98l194 1104h242l-195 -1108q-29 -170 -153 -273q-106 -86 -256 -86q-154 0 -230 86zM731 1518l244 208h-199l-139 -208h94zM735 1501h-131l164 242h252z" glyph-name="uacute" horiz-adv-x="823" unicode="ú"/><glyph d="M655 74q119 100 148 264l190 1087h-209l-190 -1091q-16 -80 -53 -107q-33 -27 -92 -26q-63 0 -89 26q-18 18 -18 62q0 23 6 49l191 1087h-209l-191 -1091q-8 -57 -8 -82q0 -111 62 -178q72 -82 217 -82q139 0 245 82zM180 61q-66 78 -65 195q0 20 8 82l194 1104h242 l-194 -1108q-6 -43 -7 -47q0 -33 15 -47q20 -23 76 -23q51 0 83 23q33 25 46 98l194 1104h242l-195 -1108q-29 -170 -153 -273q-106 -86 -256 -86q-154 0 -230 86zM915 1501h-129l-90 109l-129 -109h-133l166 242h236zM891 1518l-68 208h-215l-141 -208h96l137 116l95 -116 h96z" glyph-name="ucircumflex" horiz-adv-x="823" unicode="û"/><glyph d="M655 74q119 100 148 264l190 1087h-209l-190 -1091q-16 -80 -53 -107q-33 -27 -92 -26q-63 0 -89 26q-18 18 -18 62q0 23 6 49l191 1087h-209l-191 -1091q-8 -57 -8 -82q0 -111 62 -178q72 -82 217 -82q139 0 245 82zM180 61q-66 78 -65 195q0 20 8 82l194 1104h242 l-194 -1108q-6 -43 -7 -47q0 -33 15 -47q20 -23 76 -23q51 0 83 23q33 25 46 98l194 1104h242l-195 -1108q-29 -170 -153 -273q-106 -86 -256 -86q-154 0 -230 86zM466.5 1537.5q22.5 -21.5 55.5 -21.5q43 0 77 33.5t34 78.5q0 33 -21.5 53.5t-54.5 20.5q-43 0 -78 -32 t-35 -79q0 -32 22.5 -53.5zM468 1680q40 38 89 38q41 0 66.5 -25.5t25.5 -66.5q0 -51 -39 -89t-88 -38q-41 0 -67.5 26.5t-26.5 67.5q0 49 40 87zM778.5 1537.5q22.5 -21.5 55.5 -21.5q43 0 76.5 33.5t33.5 78.5q0 33 -21.5 53.5t-54.5 20.5q-43 0 -77.5 -32t-34.5 -79 q0 -32 22.5 -53.5zM779 1680q40 38 89 38q41 0 67 -25.5t26 -66.5q0 -51 -39 -89t-88 -38q-41 0 -68 26.5t-27 67.5q0 49 40 87z" glyph-name="udieresis" horiz-adv-x="823" unicode="ü"/><glyph d="M1057 1442l-447 -940l-90 -510h-244l91 512l-115 938h256l57 -494l236 494h256zM1032 1425h-219l-256 -534l-65 534h-220l111 -921l-86 -496h211l86 498zM721 1518l244 208h-199l-139 -208h94zM725 1501h-131l164 242h252z" glyph-name="yacute" horiz-adv-x="802" unicode="ý"/><glyph d="M494 1098h120q59 0 86 -27q18 -20 19 -65q0 -12 -4 -45l-29 -156q-16 -80 -51 -107q-33 -27 -92 -26h-125zM543 688q53 0 84 23q31 25 43 98l28 156q4 25 4 41q0 37 -14 53q-23 23 -74 22h-108l-68 -393h105zM381 463h121q143 0 248 82q117 92 145 264l29 156q6 41 6 77 q0 111 -60 181q-74 84 -217 84h-125l21 118h-209l-248 -1417h209zM72 -8l256 1450h241l-20 -119h104q152 0 230 -88q66 -78 65 -193q0 -25 -8 -81l-29 -156q-16 -98 -58 -166t-93 -107q-109 -86 -258 -86h-109l-80 -454h-241z" glyph-name="thorn" horiz-adv-x="802" unicode="þ"/><glyph d="M1057 1442l-447 -940l-90 -510h-244l91 512l-115 938h256l57 -494l236 494h256zM1032 1425h-219l-256 -534l-65 534h-220l111 -921l-86 -496h211l86 498zM456.5 1537.5q22.5 -21.5 55.5 -21.5q43 0 77 33.5t34 78.5q0 33 -21.5 53.5t-54.5 20.5q-43 0 -78 -32t-35 -79 q0 -32 22.5 -53.5zM458 1680q40 38 89 38q41 0 66.5 -25.5t25.5 -66.5q0 -51 -39 -89t-88 -38q-41 0 -67.5 26.5t-26.5 67.5q0 49 40 87zM768 1537.5q23 -21.5 55 -21.5q43 0 77 33.5t34 78.5q0 33 -21.5 53.5t-54.5 20.5q-43 0 -78 -32t-35 -79q0 -32 23 -53.5zM769 1680 q40 38 89 38q41 0 66.5 -25.5t25.5 -66.5q0 -51 -39 -89t-88 -38q-41 0 -67.5 26.5t-26.5 67.5q0 49 40 87z" glyph-name="ydieresis" horiz-adv-x="802" unicode="ÿ"/><glyph d="M588 -8v227h-244l-82 -227h-248l545 1450h240l35 -1450h-246zM604 8h213l-35 1417h-211l-532 -1417h211l82 228h272v-228zM428 461h160v459zM403 444l201 570v-570h-201zM911 1518l17 96h-436l-17 -96h436zM924 1501h-469l24 129h469z" glyph-name="Amacron" unicode="Ā"/><glyph d="M588 -8v227h-244l-82 -227h-248l545 1450h240l35 -1450h-246zM604 8h213l-35 1417h-211l-532 -1417h211l82 228h272v-228zM428 461h160v459zM403 444l201 570v-570h-201zM911 1518l17 96h-436l-17 -96h436zM924 1501h-469l24 129h469z" glyph-name="amacron" unicode="ā"/><glyph d="M588 -8v227h-244l-82 -227h-248l545 1450h240l35 -1450h-246zM604 8h213l-35 1417h-211l-532 -1417h211l82 228h272v-228zM428 461h160v459zM403 444l201 570v-570h-201zM961 1735q-14 -96 -93.5 -166t-175.5 -70q-84 0 -138 53.5t-54 133.5q0 25 6 49h129q-4 -20 -4 -27 q0 -35 22.5 -57.5t57.5 -22.5q43 0 78.5 31t41.5 76h130zM795 1642.5q-39 -30.5 -84 -30.5t-73 30.5t-24 75.5h-96q-2 -10 -2 -30q0 -74 49 -123t127 -49q84 0 156 58t92 144h-96q-10 -45 -49 -75.5z" glyph-name="Abreve" unicode="Ă"/><glyph d="M588 -8v227h-244l-82 -227h-248l545 1450h240l35 -1450h-246zM604 8h213l-35 1417h-211l-532 -1417h211l82 228h272v-228zM428 461h160v459zM403 444l201 570v-570h-201zM961 1735q-14 -96 -93.5 -166t-175.5 -70q-84 0 -138 53.5t-54 133.5q0 25 6 49h129q-4 -20 -4 -27 q0 -35 22.5 -57.5t57.5 -22.5q43 0 78.5 31t41.5 76h130zM795 1642.5q-39 -30.5 -84 -30.5t-73 30.5t-24 75.5h-96q-2 -10 -2 -30q0 -74 49 -123t127 -49q84 0 156 58t92 144h-96q-10 -45 -49 -75.5z" glyph-name="abreve" unicode="ă"/><glyph d="M588 -8v227h-244l-82 -227h-248l545 1450h240l35 -1450h-246zM604 8h213l-35 1417h-211l-532 -1417h211l82 228h272v-228zM428 461h160v459zM403 444l201 570v-570h-201zM768 -287h-45q-76 0 -121 30t-45 81q0 57 48 107.5t104 76.5h116l2 -16q-43 -8 -78.5 -40 t-41.5 -69q-6 -41 57 -41q6 -4 27 -8zM764 -174q-35 0 -54.5 13.5t-19.5 37.5q0 43 41 83t92 48l2 -16h-112q-47 -23 -87 -64t-51 -88q-2 -6 -2 -18q0 -43 40 -67.5t110 -24.5h33l16 96h-8z" glyph-name="Aogonek" unicode="Ą"/><glyph d="M588 -8v227h-244l-82 -227h-248l545 1450h240l35 -1450h-246zM604 8h213l-35 1417h-211l-532 -1417h211l82 228h272v-228zM428 461h160v459zM403 444l201 570v-570h-201zM768 -287h-45q-76 0 -121 30t-45 81q0 57 48 107.5t104 76.5h116l2 -16q-43 -8 -78.5 -40 t-41.5 -69q-6 -41 57 -41q6 -4 27 -8zM764 -174q-35 0 -54.5 13.5t-19.5 37.5q0 43 41 83t92 48l2 -16h-112q-47 -23 -87 -64t-51 -88q-2 -6 -2 -18q0 -43 40 -67.5t110 -24.5h33l16 96h-8z" glyph-name="aogonek" unicode="ą"/><glyph d="M647 74q119 94 148 264l30 174h-209l-30 -178q-14 -80 -51 -107q-33 -27 -95 -26q-59 0 -86 26q-18 23 -18 66q0 12 4 45l135 760q10 78 51 108q33 27 92 27q63 0 89 -27q18 -20 18 -65q0 -16 -4 -45l-21 -117h209l21 121q8 57 8 82q0 111 -61 178q-74 82 -218 82 q-141 0 -245 -82q-119 -100 -148 -264l-135 -762q-6 -39 -6 -78q0 -106 59 -182q76 -82 217 -82q142 0 246 82zM172 61q-63 82 -63 197q0 37 6 80l135 762q29 170 153 272q109 86 256 86t230 -86q66 -78 65 -194q0 -20 -8 -82l-24 -133h-242l25 135q4 37 4 47q0 35 -15 49 q-20 23 -76 23q-51 0 -83 -23q-35 -27 -43 -98l-136 -762q-4 -25 -4 -43q0 -37 15 -51q20 -23 73 -23q57 0 86 23q33 29 43 98l35 190h242l-35 -194q-29 -174 -154 -273q-104 -86 -256 -86q-149 0 -229 86zM713 1518l243 208h-198l-140 -208h95zM717 1501h-131l164 242h251z " glyph-name="Cacute" horiz-adv-x="798" unicode="Ć"/><glyph d="M647 74q119 94 148 264l30 174h-209l-30 -178q-14 -80 -51 -107q-33 -27 -95 -26q-59 0 -86 26q-18 23 -18 66q0 12 4 45l135 760q10 78 51 108q33 27 92 27q63 0 89 -27q18 -20 18 -65q0 -16 -4 -45l-21 -117h209l21 121q8 57 8 82q0 111 -61 178q-74 82 -218 82 q-141 0 -245 -82q-119 -100 -148 -264l-135 -762q-6 -39 -6 -78q0 -106 59 -182q76 -82 217 -82q142 0 246 82zM172 61q-63 82 -63 197q0 37 6 80l135 762q29 170 153 272q109 86 256 86t230 -86q66 -78 65 -194q0 -20 -8 -82l-24 -133h-242l25 135q4 37 4 47q0 35 -15 49 q-20 23 -76 23q-51 0 -83 -23q-35 -27 -43 -98l-136 -762q-4 -25 -4 -43q0 -37 15 -51q20 -23 73 -23q57 0 86 23q33 29 43 98l35 190h242l-35 -194q-29 -174 -154 -273q-104 -86 -256 -86q-149 0 -229 86zM713 1518l243 208h-198l-140 -208h95zM717 1501h-131l164 242h251z " glyph-name="cacute" horiz-adv-x="798" unicode="ć"/><glyph d="M647 74q119 94 148 264l30 174h-209l-30 -178q-14 -80 -51 -107q-33 -27 -95 -26q-59 0 -86 26q-18 23 -18 66q0 12 4 45l135 760q10 78 51 108q33 27 92 27q63 0 89 -27q18 -20 18 -65q0 -16 -4 -45l-21 -117h209l21 121q8 57 8 82q0 111 -61 178q-74 82 -218 82 q-141 0 -245 -82q-119 -100 -148 -264l-135 -762q-6 -39 -6 -78q0 -106 59 -182q76 -82 217 -82q142 0 246 82zM172 61q-63 82 -63 197q0 37 6 80l135 762q29 170 153 272q109 86 256 86t230 -86q66 -78 65 -194q0 -20 -8 -82l-24 -133h-242l25 135q4 37 4 47q0 35 -15 49 q-20 23 -76 23q-51 0 -83 -23q-35 -27 -43 -98l-136 -762q-4 -25 -4 -43q0 -37 15 -51q20 -23 73 -23q57 0 86 23q33 29 43 98l35 190h242l-35 -194q-29 -174 -154 -273q-104 -86 -256 -86q-149 0 -229 86zM614.5 1537.5q22.5 -21.5 55.5 -21.5q43 0 76.5 33.5t33.5 78.5 q0 33 -21.5 53.5t-53.5 20.5q-43 0 -78 -32t-35 -79q0 -32 22.5 -53.5zM615 1680q40 38 90 38q41 0 66.5 -25.5t25.5 -66.5q0 -51 -39 -89t-88 -38q-41 0 -68 26.5t-27 67.5q0 49 40 87z" glyph-name="Cdotaccent" horiz-adv-x="798" unicode="Ċ"/><glyph d="M647 74q119 94 148 264l30 174h-209l-30 -178q-14 -80 -51 -107q-33 -27 -95 -26q-59 0 -86 26q-18 23 -18 66q0 12 4 45l135 760q10 78 51 108q33 27 92 27q63 0 89 -27q18 -20 18 -65q0 -16 -4 -45l-21 -117h209l21 121q8 57 8 82q0 111 -61 178q-74 82 -218 82 q-141 0 -245 -82q-119 -100 -148 -264l-135 -762q-6 -39 -6 -78q0 -106 59 -182q76 -82 217 -82q142 0 246 82zM172 61q-63 82 -63 197q0 37 6 80l135 762q29 170 153 272q109 86 256 86t230 -86q66 -78 65 -194q0 -20 -8 -82l-24 -133h-242l25 135q4 37 4 47q0 35 -15 49 q-20 23 -76 23q-51 0 -83 -23q-35 -27 -43 -98l-136 -762q-4 -25 -4 -43q0 -37 15 -51q20 -23 73 -23q57 0 86 23q33 29 43 98l35 190h242l-35 -194q-29 -174 -154 -273q-104 -86 -256 -86q-149 0 -229 86zM614.5 1537.5q22.5 -21.5 55.5 -21.5q43 0 76.5 33.5t33.5 78.5 q0 33 -21.5 53.5t-53.5 20.5q-43 0 -78 -32t-35 -79q0 -32 22.5 -53.5zM615 1680q40 38 90 38q41 0 66.5 -25.5t25.5 -66.5q0 -51 -39 -89t-88 -38q-41 0 -68 26.5t-27 67.5q0 49 40 87z" glyph-name="cdotaccent" horiz-adv-x="798" unicode="ċ"/><glyph d="M647 74q119 94 148 264l30 174h-209l-30 -178q-14 -80 -51 -107q-33 -27 -95 -26q-59 0 -86 26q-18 23 -18 66q0 12 4 45l135 760q10 78 51 108q33 27 92 27q63 0 89 -27q18 -20 18 -65q0 -16 -4 -45l-21 -117h209l21 121q8 57 8 82q0 111 -61 178q-74 82 -218 82 q-141 0 -245 -82q-119 -100 -148 -264l-135 -762q-6 -39 -6 -78q0 -106 59 -182q76 -82 217 -82q142 0 246 82zM172 61q-63 82 -63 197q0 37 6 80l135 762q29 170 153 272q109 86 256 86t230 -86q66 -78 65 -194q0 -20 -8 -82l-24 -133h-242l25 135q4 37 4 47q0 35 -15 49 q-20 23 -76 23q-51 0 -83 -23q-35 -27 -43 -98l-136 -762q-4 -25 -4 -43q0 -37 15 -51q20 -23 73 -23q57 0 86 23q33 29 43 98l35 190h242l-35 -194q-29 -174 -154 -273q-104 -86 -256 -86q-149 0 -229 86zM950 1743l-164 -242h-235l-82 242h131l90 -109l129 109h131z M918 1726h-95l-133 -116l-98 116h-98l69 -208h215z" glyph-name="Ccaron" horiz-adv-x="798" unicode="Č"/><glyph d="M647 74q119 94 148 264l30 174h-209l-30 -178q-14 -80 -51 -107q-33 -27 -95 -26q-59 0 -86 26q-18 23 -18 66q0 12 4 45l135 760q10 78 51 108q33 27 92 27q63 0 89 -27q18 -20 18 -65q0 -16 -4 -45l-21 -117h209l21 121q8 57 8 82q0 111 -61 178q-74 82 -218 82 q-141 0 -245 -82q-119 -100 -148 -264l-135 -762q-6 -39 -6 -78q0 -106 59 -182q76 -82 217 -82q142 0 246 82zM172 61q-63 82 -63 197q0 37 6 80l135 762q29 170 153 272q109 86 256 86t230 -86q66 -78 65 -194q0 -20 -8 -82l-24 -133h-242l25 135q4 37 4 47q0 35 -15 49 q-20 23 -76 23q-51 0 -83 -23q-35 -27 -43 -98l-136 -762q-4 -25 -4 -43q0 -37 15 -51q20 -23 73 -23q57 0 86 23q33 29 43 98l35 190h242l-35 -194q-29 -174 -154 -273q-104 -86 -256 -86q-149 0 -229 86zM950 1743l-164 -242h-235l-82 242h131l90 -109l129 109h131z M918 1726h-95l-133 -116l-98 116h-98l69 -208h215z" glyph-name="ccaron" horiz-adv-x="798" unicode="č"/><glyph d="M668 86q57 45 96 113q35 59 51 147l129 737q6 41 6 78q0 111 -59 180q-74 84 -217 84h-334l-248 -1417h330q140 0 246 78zM72 -8l256 1450h346q152 0 229 -88q66 -78 66 -193q0 -25 -8 -82l-130 -737q-16 -86 -53 -152q-39 -70 -102 -116q-106 -82 -254 -82h-350z M514 1217h121q61 0 86 -27q18 -20 18 -66q0 -12 -4 -45l-129 -737q-16 -76 -49 -100q-31 -25 -96 -25h-125zM461 233q57 0 86 21q31 25 43 92l129 737q4 25 4 41q0 37 -14 54q-20 23 -74 22h-109l-170 -967h105zM969 1743l-164 -242h-236l-82 242h131l91 -109l129 109h131z M936 1726h-94l-133 -116l-99 116h-98l70 -208h215z" glyph-name="Dcaron" horiz-adv-x="825" unicode="Ď"/><glyph d="M668 86q57 45 96 113q35 59 51 147l129 737q6 41 6 78q0 111 -59 180q-74 84 -217 84h-334l-248 -1417h330q140 0 246 78zM72 -8l256 1450h346q152 0 229 -88q66 -78 66 -193q0 -25 -8 -82l-130 -737q-16 -86 -53 -152q-39 -70 -102 -116q-106 -82 -254 -82h-350z M514 1217h121q61 0 86 -27q18 -20 18 -66q0 -12 -4 -45l-129 -737q-16 -76 -49 -100q-31 -25 -96 -25h-125zM461 233q57 0 86 21q31 25 43 92l129 737q4 25 4 41q0 37 -14 54q-20 23 -74 22h-109l-170 -967h105zM969 1743l-164 -242h-236l-82 242h131l91 -109l129 109h131z M936 1726h-94l-133 -116l-99 116h-98l70 -208h215z" glyph-name="dcaron" horiz-adv-x="825" unicode="ď"/><glyph d="M979 1161q0 -25 -8 -82l-129 -737q-16 -86 -54 -152q-39 -70 -102 -116q-106 -82 -254 -82h-350l106 602h-82l44 242h81l107 606h346q152 0 229 -88q66 -78 66 -193zM684 1425h-334l-106 -606h-82l-35 -209h82l-107 -602h330q139 0 246 78q57 45 96 113q35 59 51 147 l129 737q6 41 7 78q0 111 -60 180q-74 84 -217 84zM729 1083q4 25 4 41q0 37 -14 54q-20 23 -74 22h-108l-64 -364h102l-43 -242h-102l-63 -361h104q57 0 86 21q31 25 43 92zM567 242q-31 -25 -96 -25h-125l72 393h102l35 209h-102l71 398h121q61 0 86 -27q18 -20 19 -66 q0 -12 -5 -45l-129 -737q-16 -75 -49 -100z" glyph-name="Dcroat" horiz-adv-x="835" unicode="Đ"/><glyph d="M979 1161q0 -25 -8 -82l-129 -737q-16 -86 -54 -152q-39 -70 -102 -116q-106 -82 -254 -82h-350l106 602h-82l44 242h81l107 606h346q152 0 229 -88q66 -78 66 -193zM684 1425h-334l-106 -606h-82l-35 -209h82l-107 -602h330q139 0 246 78q57 45 96 113q35 59 51 147 l129 737q6 41 7 78q0 111 -60 180q-74 84 -217 84zM729 1083q4 25 4 41q0 37 -14 54q-20 23 -74 22h-108l-64 -364h102l-43 -242h-102l-63 -361h104q57 0 86 21q31 25 43 92zM567 242q-31 -25 -96 -25h-125l72 393h102l35 209h-102l71 398h121q61 0 86 -27q18 -20 19 -66 q0 -12 -5 -45l-129 -737q-16 -75 -49 -100z" glyph-name="dcroat" horiz-adv-x="835" unicode="đ"/><glyph d="M895 1200h-369l-59 -344h254l-43 -242h-254l-68 -381h369l-43 -241h-610l256 1450h610zM883 1217l35 208h-578l-248 -1417h578l35 209h-369l76 414h254l34 209h-254l68 377h369zM866 1518l17 96h-439l-16 -96h438zM879 1501h-471l24 129h471z" glyph-name="Emacron" horiz-adv-x="733" unicode="Ē"/><glyph d="M895 1200h-369l-59 -344h254l-43 -242h-254l-68 -381h369l-43 -241h-610l256 1450h610zM883 1217l35 208h-578l-248 -1417h578l35 209h-369l76 414h254l34 209h-254l68 377h369zM866 1518l17 96h-439l-16 -96h438zM879 1501h-471l24 129h471z" glyph-name="emacron" horiz-adv-x="733" unicode="ē"/><glyph d="M602.5 1537.5q22.5 -21.5 54.5 -21.5q43 0 77 33.5t34 78.5q0 33 -21.5 53.5t-54.5 20.5q-43 0 -77.5 -32t-34.5 -79q0 -32 22.5 -53.5zM603 1680q40 38 89 38q41 0 66.5 -25.5t25.5 -66.5q0 -51 -38.5 -89t-88.5 -38q-41 0 -67.5 26.5t-26.5 67.5q0 49 40 87zM895 1200 h-369l-59 -344h254l-43 -242h-254l-68 -381h369l-43 -241h-610l256 1450h610zM883 1217l35 208h-578l-248 -1417h578l35 209h-369l76 414h254l34 209h-254l68 377h369z" glyph-name="Edotaccent" horiz-adv-x="733" unicode="Ė"/><glyph d="M602.5 1537.5q22.5 -21.5 54.5 -21.5q43 0 77 33.5t34 78.5q0 33 -21.5 53.5t-54.5 20.5q-43 0 -77.5 -32t-34.5 -79q0 -32 22.5 -53.5zM603 1680q40 38 89 38q41 0 66.5 -25.5t25.5 -66.5q0 -51 -38.5 -89t-88.5 -38q-41 0 -67.5 26.5t-26.5 67.5q0 49 40 87zM895 1200 h-369l-59 -344h254l-43 -242h-254l-68 -381h369l-43 -241h-610l256 1450h610zM883 1217l35 208h-578l-248 -1417h578l35 209h-369l76 414h254l34 209h-254l68 377h369z" glyph-name="edotaccent" horiz-adv-x="733" unicode="ė"/><glyph d="M526 1200l-59 -344h254l-43 -242h-254l-68 -381h369l-43 -241q-43 -4 -80 -38t-45 -71q-6 -41 57 -41h29l-25 -129h-45q-76 0 -120.5 30t-44.5 81q0 55 47 105.5t102 78.5l4 -16h-489l256 1450h610l-43 -242h-369zM918 1425h-578l-248 -1417h469l4 -16q-47 -20 -88 -61.5 t-51 -90.5q-2 -6 -2 -18q0 -43 40 -67.5t109 -24.5h33l17 96h-9q-39 0 -58 16.5t-15 44.5q8 41 46 76t83 43l35 211h-369l76 414h254l34 209h-254l68 377h369z" glyph-name="Eogonek" horiz-adv-x="733" unicode="Ę"/><glyph d="M526 1200l-59 -344h254l-43 -242h-254l-68 -381h369l-43 -241q-43 -4 -80 -38t-45 -71q-6 -41 57 -41h29l-25 -129h-45q-76 0 -120.5 30t-44.5 81q0 55 47 105.5t102 78.5l4 -16h-489l256 1450h610l-43 -242h-369zM918 1425h-578l-248 -1417h469l4 -16q-47 -20 -88 -61.5 t-51 -90.5q-2 -6 -2 -18q0 -43 40 -67.5t109 -24.5h33l17 96h-9q-39 0 -58 16.5t-15 44.5q8 41 46 76t83 43l35 211h-369l76 414h254l34 209h-254l68 377h369z" glyph-name="eogonek" horiz-adv-x="733" unicode="ę"/><glyph d="M895 1200h-369l-59 -344h254l-43 -242h-254l-68 -381h369l-43 -241h-610l256 1450h610zM883 1217l35 208h-578l-248 -1417h578l35 209h-369l76 414h254l34 209h-254l68 377h369zM938 1743l-164 -242h-235l-82 242h131l90 -109l129 109h131zM905 1726h-94l-133 -116 l-98 116h-99l70 -208h215z" glyph-name="Ecaron" horiz-adv-x="733" unicode="Ě"/><glyph d="M895 1200h-369l-59 -344h254l-43 -242h-254l-68 -381h369l-43 -241h-610l256 1450h610zM883 1217l35 208h-578l-248 -1417h578l35 209h-369l76 414h254l34 209h-254l68 377h369zM938 1743l-164 -242h-235l-82 242h131l90 -109l129 109h131zM905 1726h-94l-133 -116 l-98 116h-99l70 -208h215z" glyph-name="ecaron" horiz-adv-x="733" unicode="ě"/><glyph d="M647 74q119 94 148 264l84 483h-322l-35 -209h113l-49 -278q-14 -80 -51 -107q-33 -27 -95 -26q-59 0 -86 26q-18 23 -18 66q0 12 4 45l135 760q10 78 51 108q33 27 92 27q63 0 89 -27q18 -20 18 -65q0 -16 -4 -45l-21 -117h209l21 121q8 57 8 82q0 111 -61 178 q-74 82 -218 82q-141 0 -245 -82q-119 -100 -148 -264l-135 -762q-6 -39 -6 -78q0 -106 59 -182q76 -82 217 -82q142 0 246 82zM172 61q-63 82 -63 197q0 37 6 80l135 762q29 170 153 272q109 86 256 86t230 -86q66 -78 65 -194q0 -20 -8 -82l-24 -133h-242l25 135 q4 37 4 47q0 35 -15 49q-20 23 -76 23q-51 0 -83 -23q-35 -27 -43 -98l-136 -762q-4 -25 -4 -43q0 -37 15 -51q20 -23 73 -23q57 0 86 23q33 29 43 98l45 258h-112l43 242h354l-88 -504q-29 -174 -154 -273q-104 -86 -256 -86q-149 0 -229 86zM938 1735q-14 -96 -93 -166 t-175 -70q-84 0 -138.5 53.5t-54.5 133.5q0 25 6 49h129q-4 -20 -4 -27q0 -35 22.5 -57.5t57.5 -22.5q43 0 79 31t42 76h129zM772 1642.5q-39 -30.5 -84 -30.5t-72.5 30.5t-23.5 75.5h-96q-2 -10 -2 -30q0 -74 49 -123t127 -49q84 0 155.5 58t92.5 144h-97 q-10 -45 -49 -75.5z" glyph-name="Gbreve" horiz-adv-x="808" unicode="Ğ"/><glyph d="M647 74q119 94 148 264l84 483h-322l-35 -209h113l-49 -278q-14 -80 -51 -107q-33 -27 -95 -26q-59 0 -86 26q-18 23 -18 66q0 12 4 45l135 760q10 78 51 108q33 27 92 27q63 0 89 -27q18 -20 18 -65q0 -16 -4 -45l-21 -117h209l21 121q8 57 8 82q0 111 -61 178 q-74 82 -218 82q-141 0 -245 -82q-119 -100 -148 -264l-135 -762q-6 -39 -6 -78q0 -106 59 -182q76 -82 217 -82q142 0 246 82zM172 61q-63 82 -63 197q0 37 6 80l135 762q29 170 153 272q109 86 256 86t230 -86q66 -78 65 -194q0 -20 -8 -82l-24 -133h-242l25 135 q4 37 4 47q0 35 -15 49q-20 23 -76 23q-51 0 -83 -23q-35 -27 -43 -98l-136 -762q-4 -25 -4 -43q0 -37 15 -51q20 -23 73 -23q57 0 86 23q33 29 43 98l45 258h-112l43 242h354l-88 -504q-29 -174 -154 -273q-104 -86 -256 -86q-149 0 -229 86zM938 1735q-14 -96 -93 -166 t-175 -70q-84 0 -138.5 53.5t-54.5 133.5q0 25 6 49h129q-4 -20 -4 -27q0 -35 22.5 -57.5t57.5 -22.5q43 0 79 31t42 76h129zM772 1642.5q-39 -30.5 -84 -30.5t-72.5 30.5t-23.5 75.5h-96q-2 -10 -2 -30q0 -74 49 -123t127 -49q84 0 155.5 58t92.5 144h-97 q-10 -45 -49 -75.5z" glyph-name="gbreve" horiz-adv-x="808" unicode="ğ"/><glyph d="M614.5 1537.5q22.5 -21.5 55.5 -21.5q43 0 76.5 33.5t33.5 78.5q0 33 -21.5 53.5t-53.5 20.5q-43 0 -78 -32t-35 -79q0 -32 22.5 -53.5zM615 1680q40 38 90 38q41 0 66.5 -25.5t25.5 -66.5q0 -51 -39 -89t-88 -38q-41 0 -68 26.5t-27 67.5q0 49 40 87zM647 74 q119 94 148 264l84 483h-322l-35 -209h113l-49 -278q-14 -80 -51 -107q-33 -27 -95 -26q-59 0 -86 26q-18 23 -18 66q0 12 4 45l135 760q10 78 51 108q33 27 92 27q63 0 89 -27q18 -20 18 -65q0 -16 -4 -45l-21 -117h209l21 121q8 57 8 82q0 111 -61 178q-74 82 -218 82 q-141 0 -245 -82q-119 -100 -148 -264l-135 -762q-6 -39 -6 -78q0 -106 59 -182q76 -82 217 -82q142 0 246 82zM172 61q-63 82 -63 197q0 37 6 80l135 762q29 170 153 272q109 86 256 86t230 -86q66 -78 65 -194q0 -20 -8 -82l-24 -133h-242l25 135q4 37 4 47q0 35 -15 49 q-20 23 -76 23q-51 0 -83 -23q-35 -27 -43 -98l-136 -762q-4 -25 -4 -43q0 -37 15 -51q20 -23 73 -23q57 0 86 23q33 29 43 98l45 258h-112l43 242h354l-88 -504q-29 -174 -154 -273q-104 -86 -256 -86q-149 0 -229 86z" glyph-name="Gdotaccent" horiz-adv-x="808" unicode="Ġ"/><glyph d="M614.5 1537.5q22.5 -21.5 55.5 -21.5q43 0 76.5 33.5t33.5 78.5q0 33 -21.5 53.5t-53.5 20.5q-43 0 -78 -32t-35 -79q0 -32 22.5 -53.5zM615 1680q40 38 90 38q41 0 66.5 -25.5t25.5 -66.5q0 -51 -39 -89t-88 -38q-41 0 -68 26.5t-27 67.5q0 49 40 87zM647 74 q119 94 148 264l84 483h-322l-35 -209h113l-49 -278q-14 -80 -51 -107q-33 -27 -95 -26q-59 0 -86 26q-18 23 -18 66q0 12 4 45l135 760q10 78 51 108q33 27 92 27q63 0 89 -27q18 -20 18 -65q0 -16 -4 -45l-21 -117h209l21 121q8 57 8 82q0 111 -61 178q-74 82 -218 82 q-141 0 -245 -82q-119 -100 -148 -264l-135 -762q-6 -39 -6 -78q0 -106 59 -182q76 -82 217 -82q142 0 246 82zM172 61q-63 82 -63 197q0 37 6 80l135 762q29 170 153 272q109 86 256 86t230 -86q66 -78 65 -194q0 -20 -8 -82l-24 -133h-242l25 135q4 37 4 47q0 35 -15 49 q-20 23 -76 23q-51 0 -83 -23q-35 -27 -43 -98l-136 -762q-4 -25 -4 -43q0 -37 15 -51q20 -23 73 -23q57 0 86 23q33 29 43 98l45 258h-112l43 242h354l-88 -504q-29 -174 -154 -273q-104 -86 -256 -86q-149 0 -229 86z" glyph-name="gdotaccent" horiz-adv-x="808" unicode="ġ"/><glyph d="M647 74q119 94 148 264l84 483h-322l-35 -209h113l-49 -278q-14 -80 -51 -107q-33 -27 -95 -26q-59 0 -86 26q-18 23 -18 66q0 12 4 45l135 760q10 78 51 108q33 27 92 27q63 0 89 -27q18 -20 18 -65q0 -16 -4 -45l-21 -117h209l21 121q8 57 8 82q0 111 -61 178 q-74 82 -218 82q-141 0 -245 -82q-119 -100 -148 -264l-135 -762q-6 -39 -6 -78q0 -106 59 -182q76 -82 217 -82q142 0 246 82zM172 61q-63 82 -63 197q0 37 6 80l135 762q29 170 153 272q109 86 256 86t230 -86q66 -78 65 -194q0 -20 -8 -82l-24 -133h-242l25 135 q4 37 4 47q0 35 -15 49q-20 23 -76 23q-51 0 -83 -23q-35 -27 -43 -98l-136 -762q-4 -25 -4 -43q0 -37 15 -51q20 -23 73 -23q57 0 86 23q33 29 43 98l45 258h-112l43 242h354l-88 -504q-29 -174 -154 -273q-104 -86 -256 -86q-149 0 -229 86zM438 -260q-29 -45 -90 -115 h-92q25 41 39 70q10 18 10 31q0 12 -8 18v0q-14 16 -23.5 33.5t-9.5 42.5q0 49 40 88t89 39q41 0 67.5 -25.5t26.5 -66.5q0 -12 -2 -19q-6 -47 -47 -96zM471 -143q0 31 -22.5 52t-55.5 21q-43 0 -77.5 -33.5t-34.5 -78.5q0 -20 7 -32.5t21 -29.5v0q12 -12 13 -28 q0 -16 -13 -41q-8 -12 -24 -45h55q49 55 86 106t43 92q2 7 2 17z" glyph-name="Gcommaaccent" horiz-adv-x="808" unicode="Ģ"/><glyph d="M647 74q119 94 148 264l84 483h-322l-35 -209h113l-49 -278q-14 -80 -51 -107q-33 -27 -95 -26q-59 0 -86 26q-18 23 -18 66q0 12 4 45l135 760q10 78 51 108q33 27 92 27q63 0 89 -27q18 -20 18 -65q0 -16 -4 -45l-21 -117h209l21 121q8 57 8 82q0 111 -61 178 q-74 82 -218 82q-141 0 -245 -82q-119 -100 -148 -264l-135 -762q-6 -39 -6 -78q0 -106 59 -182q76 -82 217 -82q142 0 246 82zM172 61q-63 82 -63 197q0 37 6 80l135 762q29 170 153 272q109 86 256 86t230 -86q66 -78 65 -194q0 -20 -8 -82l-24 -133h-242l25 135 q4 37 4 47q0 35 -15 49q-20 23 -76 23q-51 0 -83 -23q-35 -27 -43 -98l-136 -762q-4 -25 -4 -43q0 -37 15 -51q20 -23 73 -23q57 0 86 23q33 29 43 98l45 258h-112l43 242h354l-88 -504q-29 -174 -154 -273q-104 -86 -256 -86q-149 0 -229 86zM438 -260q-29 -45 -90 -115 h-92q25 41 39 70q10 18 10 31q0 12 -8 18v0q-14 16 -23.5 33.5t-9.5 42.5q0 49 40 88t89 39q41 0 67.5 -25.5t26.5 -66.5q0 -12 -2 -19q-6 -47 -47 -96zM471 -143q0 31 -22.5 52t-55.5 21q-43 0 -77.5 -33.5t-34.5 -78.5q0 -20 7 -32.5t21 -29.5v0q12 -12 13 -28 q0 -16 -13 -41q-8 -12 -24 -45h55q49 55 86 106t43 92q2 7 2 17z" glyph-name="gcommaaccent" horiz-adv-x="808" unicode="ģ"/><glyph d="M1067 1163l-23 -129h-81l-185 -1042h-241l110 622h-213l-110 -622h-242l184 1042h-82l23 129h82l49 279h242l-50 -279h213l50 279h241l-49 -279h82zM1047 1147h-82l49 278h-209l-49 -278h-246l49 278h-209l-49 -278h-82l-14 -96h82l-185 -1043h209l111 623h246l-111 -623 h209l184 1043h82zM690 856l31 178h-213l-31 -178h213zM702 840h-245l39 211h245z" glyph-name="Hbar" horiz-adv-x="864" unicode="Ħ"/><glyph d="M1067 1163l-23 -129h-81l-185 -1042h-241l110 622h-213l-110 -622h-242l184 1042h-82l23 129h82l49 279h242l-50 -279h213l50 279h241l-49 -279h82zM1047 1147h-82l49 278h-209l-49 -278h-246l49 278h-209l-49 -278h-82l-14 -96h82l-185 -1043h209l111 623h246l-111 -623 h209l184 1043h82zM690 856l31 178h-213l-31 -178h213zM702 840h-245l39 211h245z" glyph-name="hbar" horiz-adv-x="864" unicode="ħ"/><glyph d="M301 8l248 1417h-209l-248 -1417h209zM313 -8h-241l256 1450h241zM365 1579q6 2 16 2q31 0 65 -27q57 -41 113 -41q45 0 88 26t92 81l-67 53q-45 -51 -82 -61q-33 -6 -74 24q-53 41 -113 41q-45 0 -92 -24.5t-100 -79.5l68 -55q49 55 86 61zM186 1573q61 61 111.5 91 t103.5 30q66 0 123 -45q39 -27 62 -21q33 10 86 70l92 -78q-109 -123 -205 -123q-63 0 -121 45q-39 27 -69 21q-37 -8 -90 -70z" glyph-name="Itilde" horiz-adv-x="389" unicode="Ĩ"/><glyph d="M301 8l248 1417h-209l-248 -1417h209zM313 -8h-241l256 1450h241zM365 1579q6 2 16 2q31 0 65 -27q57 -41 113 -41q45 0 88 26t92 81l-67 53q-45 -51 -82 -61q-33 -6 -74 24q-53 41 -113 41q-45 0 -92 -24.5t-100 -79.5l68 -55q49 55 86 61zM186 1573q61 61 111.5 91 t103.5 30q66 0 123 -45q39 -27 62 -21q33 10 86 70l92 -78q-109 -123 -205 -123q-63 0 -121 45q-39 27 -69 21q-37 -8 -90 -70z" glyph-name="itilde" horiz-adv-x="389" unicode="ĩ"/><glyph d="M301 8l248 1417h-209l-248 -1417h209zM313 -8h-241l256 1450h241zM682 1518l16 96h-438l-16 -96h438zM694 1501h-471l25 129h471z" glyph-name="Imacron" horiz-adv-x="389" unicode="Ī"/><glyph d="M301 8l248 1417h-209l-248 -1417h209zM313 -8h-241l256 1450h241zM682 1518l16 96h-438l-16 -96h438zM694 1501h-471l25 129h471z" glyph-name="imacron" horiz-adv-x="389" unicode="ī"/><glyph d="M573 1442l-256 -1450q-43 -4 -79.5 -38t-44.5 -71q-6 -41 57 -41h29l-25 -129h-45q-76 0 -121 30t-45 81q0 55 47 105.5t103 78.5l4 -16h-121l256 1450h241zM96 8h101l4 -16q-47 -20 -88 -61.5t-52 -90.5q-2 -6 -2 -18q0 -43 40 -67.5t110 -24.5h33l16 96h-8 q-39 0 -58.5 16.5t-15.5 44.5q8 41 46 76t83 43l248 1419h-209z" glyph-name="Iogonek" horiz-adv-x="393" unicode="Į"/><glyph d="M573 1442l-256 -1450q-43 -4 -79.5 -38t-44.5 -71q-6 -41 57 -41h29l-25 -129h-45q-76 0 -121 30t-45 81q0 55 47 105.5t103 78.5l4 -16h-121l256 1450h241zM96 8h101l4 -16q-47 -20 -88 -61.5t-52 -90.5q-2 -6 -2 -18q0 -43 40 -67.5t110 -24.5h33l16 96h-8 q-39 0 -58.5 16.5t-15.5 44.5q8 41 46 76t83 43l248 1419h-209z" glyph-name="iogonek" horiz-adv-x="393" unicode="į"/><glyph d="M301 8l248 1417h-209l-248 -1417h209zM313 -8h-241l256 1450h241zM405.5 1537.5q22.5 -21.5 55.5 -21.5q43 0 76.5 33.5t33.5 78.5q0 33 -21.5 53.5t-53.5 20.5q-43 0 -78 -32t-35 -79q0 -32 22.5 -53.5zM406.5 1680q39.5 38 89.5 38q41 0 66.5 -25.5t25.5 -66.5 q0 -51 -39 -89t-88 -38q-41 0 -67.5 26.5t-26.5 67.5q0 49 39.5 87z" glyph-name="Idotaccent" horiz-adv-x="389" unicode="İ"/><glyph d="M301 8l248 1417h-209l-248 -1417h209zM313 -8h-241l256 1450h241z" glyph-name="dotlessi" horiz-adv-x="389" unicode="ı"/><glyph d="M653 752l158 -760h-258l-92 444l-96 -157l-52 -287h-241l256 1450h241l-96 -549l332 549h262zM637 756l401 669h-225l-373 -614l109 614h-209l-248 -1417h209l47 275l121 198l96 -473h226zM467 -260q-29 -45 -90 -115h-92q25 41 39 70q10 18 10 31q0 12 -8 18v0 q-14 16 -23.5 33.5t-9.5 42.5q0 49 40 88t89 39q41 0 67.5 -25.5t26.5 -66.5q0 -12 -2 -19q-6 -47 -47 -96zM500 -143q0 31 -22.5 52t-55.5 21q-43 0 -78 -33.5t-35 -78.5q0 -20 7.5 -32.5t21.5 -29.5v0q12 -12 12 -28t-12 -41q-8 -12 -25 -45h56q49 55 86 106t43 92 q2 7 2 17z" glyph-name="Kcommaaccent" horiz-adv-x="827" unicode="Ķ"/><glyph d="M653 752l158 -760h-258l-92 444l-96 -157l-52 -287h-241l256 1450h241l-96 -549l332 549h262zM637 756l401 669h-225l-373 -614l109 614h-209l-248 -1417h209l47 275l121 198l96 -473h226zM467 -260q-29 -45 -90 -115h-92q25 41 39 70q10 18 10 31q0 12 -8 18v0 q-14 16 -23.5 33.5t-9.5 42.5q0 49 40 88t89 39q41 0 67.5 -25.5t26.5 -66.5q0 -12 -2 -19q-6 -47 -47 -96zM500 -143q0 31 -22.5 52t-55.5 21q-43 0 -78 -33.5t-35 -78.5q0 -20 7.5 -32.5t21.5 -29.5v0q12 -12 12 -28t-12 -41q-8 -12 -25 -45h56q49 55 86 106t43 92 q2 7 2 17z" glyph-name="kcommaaccent" horiz-adv-x="827" unicode="ķ"/><glyph d="M670 8l35 209h-369l213 1208h-209l-248 -1417h578zM682 -8h-610l256 1450h241l-213 -1209h369zM514 1518l244 208h-199l-139 -208h94zM518 1501h-131l164 242h252z" glyph-name="Lacute" horiz-adv-x="702" unicode="Ĺ"/><glyph d="M670 8l35 209h-369l213 1208h-209l-248 -1417h578zM682 -8h-610l256 1450h241l-213 -1209h369zM514 1518l244 208h-199l-139 -208h94zM518 1501h-131l164 242h252z" glyph-name="lacute" horiz-adv-x="702" unicode="ĺ"/><glyph d="M670 8l35 209h-369l213 1208h-209l-248 -1417h578zM682 -8h-610l256 1450h241l-213 -1209h369zM428 -281q-20 -31 -88 -114h-90q14 35 35 69q12 20 12 33q0 8 -8 17q-35 35 -35 75q0 49 40 88t89 39q41 0 67.5 -25.5t26.5 -66.5q0 -12 -2 -18q-6 -48 -47 -97zM461 -164 q0 31 -22.5 52.5t-55.5 21.5q-43 0 -78 -34t-35 -79q0 -20 8.5 -33.5t22.5 -27.5q12 -12 12 -27q0 -14 -14 -43q-8 -12 -25 -45h58q59 74 84 107q37 51 43 92q2 6 2 16z" glyph-name="Lcommaaccent" horiz-adv-x="702" unicode="Ļ"/><glyph d="M670 8l35 209h-369l213 1208h-209l-248 -1417h578zM682 -8h-610l256 1450h241l-213 -1209h369zM428 -281q-20 -31 -88 -114h-90q14 35 35 69q12 20 12 33q0 8 -8 17q-35 35 -35 75q0 49 40 88t89 39q41 0 67.5 -25.5t26.5 -66.5q0 -12 -2 -18q-6 -48 -47 -97zM461 -164 q0 31 -22.5 52.5t-55.5 21.5q-43 0 -78 -34t-35 -79q0 -20 8.5 -33.5t22.5 -27.5q12 -12 12 -27q0 -14 -14 -43q-8 -12 -25 -45h58q59 74 84 107q37 51 43 92q2 6 2 16z" glyph-name="lcommaaccent" horiz-adv-x="702" unicode="ļ"/><glyph d="M670 8l35 209h-369l213 1208h-209l-248 -1417h578zM682 -8h-610l256 1450h241l-213 -1209h369zM829 1235q-29 -45 -90 -115h-92q25 41 39 70q10 18 10 31q0 12 -8 18v0q-14 16 -23.5 33.5t-9.5 42.5q0 49 39 88t88 39q43 0 70 -25.5t27 -66.5q-1 -49 -50 -115z M839.5 1403.5q-22.5 21.5 -57.5 21.5q-43 0 -76.5 -33.5t-33.5 -78.5q0 -20 7 -32.5t21 -29.5v0q12 -12 13 -28q0 -16 -13 -41q-8 -12 -24 -45h55q49 55 86 106q45 68 45 109q0 30 -22.5 51.5z" glyph-name="Lcaron" horiz-adv-x="702" unicode="Ľ"/><glyph d="M670 8l35 209h-369l213 1208h-209l-248 -1417h578zM682 -8h-610l256 1450h241l-213 -1209h369zM829 1235q-29 -45 -90 -115h-92q25 41 39 70q10 18 10 31q0 12 -8 18v0q-14 16 -23.5 33.5t-9.5 42.5q0 49 39 88t88 39q43 0 70 -25.5t27 -66.5q-1 -49 -50 -115z M839.5 1403.5q-22.5 21.5 -57.5 21.5q-43 0 -76.5 -33.5t-33.5 -78.5q0 -20 7 -32.5t21 -29.5v0q12 -12 13 -28q0 -16 -13 -41q-8 -12 -24 -45h55q49 55 86 106q45 68 45 109q0 30 -22.5 51.5z" glyph-name="lcaron" horiz-adv-x="702" unicode="ľ"/><glyph d="M469 770l297 266l-35 -190l-295 -266l-61 -347h368l-43 -241h-610l57 327l-118 -108l32 192l121 107l164 932h242zM444 725l123 700h-209l-159 -923l-121 -107l-25 -139l119 109l-61 -357h577l35 209h-369l66 371l295 266l26 137z" glyph-name="Lslash" horiz-adv-x="720" unicode="Ł"/><glyph d="M469 770l297 266l-35 -190l-295 -266l-61 -347h368l-43 -241h-610l57 327l-118 -108l32 192l121 107l164 932h242zM444 725l123 700h-209l-159 -923l-121 -107l-25 -139l119 109l-61 -357h577l35 209h-369l66 371l295 266l26 137z" glyph-name="lslash" horiz-adv-x="720" unicode="ł"/><glyph d="M1036 1442l-256 -1450h-143l-207 700l-125 -700h-242l256 1450h144l209 -699l123 699h241zM1016 1425h-209l-131 -751l-225 751h-119l-248 -1417h209l133 754l223 -754h119zM743 1518l244 208h-199l-139 -208h94zM748 1501h-132l164 242h252z" glyph-name="Nacute" horiz-adv-x="847" unicode="Ń"/><glyph d="M1036 1442l-256 -1450h-143l-207 700l-125 -700h-242l256 1450h144l209 -699l123 699h241zM1016 1425h-209l-131 -751l-225 751h-119l-248 -1417h209l133 754l223 -754h119zM743 1518l244 208h-199l-139 -208h94zM748 1501h-132l164 242h252z" glyph-name="nacute" horiz-adv-x="847" unicode="ń"/><glyph d="M1036 1442l-256 -1450h-143l-207 700l-125 -700h-242l256 1450h144l209 -699l123 699h241zM1016 1425h-209l-131 -751l-225 751h-119l-248 -1417h209l133 754l223 -754h119zM455 -281q-20 -31 -88 -114h-91q14 35 35 69q12 20 13 33q0 8 -9 17q-35 35 -34 75 q0 49 39.5 88t89.5 39q41 0 67.5 -25.5t26.5 -66.5q0 -12 -2 -18q-6 -48 -47 -97zM487 -164q0 31 -22.5 52.5t-54.5 21.5q-43 0 -78 -34t-35 -79q0 -20 8 -33.5t23 -27.5q12 -12 12 -27q0 -14 -14 -43q-8 -12 -25 -45h57q59 74 84 107q37 53 43 92q2 6 2 16z" glyph-name="Ncommaaccent" horiz-adv-x="847" unicode="Ņ"/><glyph d="M1036 1442l-256 -1450h-143l-207 700l-125 -700h-242l256 1450h144l209 -699l123 699h241zM1016 1425h-209l-131 -751l-225 751h-119l-248 -1417h209l133 754l223 -754h119zM455 -281q-20 -31 -88 -114h-91q14 35 35 69q12 20 13 33q0 8 -9 17q-35 35 -34 75 q0 49 39.5 88t89.5 39q41 0 67.5 -25.5t26.5 -66.5q0 -12 -2 -18q-6 -48 -47 -97zM487 -164q0 31 -22.5 52.5t-54.5 21.5q-43 0 -78 -34t-35 -79q0 -20 8 -33.5t23 -27.5q12 -12 12 -27q0 -14 -14 -43q-8 -12 -25 -45h57q59 74 84 107q37 53 43 92q2 6 2 16z" glyph-name="ncommaaccent" horiz-adv-x="847" unicode="ņ"/><glyph d="M1036 1442l-256 -1450h-143l-207 700l-125 -700h-242l256 1450h144l209 -699l123 699h241zM1016 1425h-209l-131 -751l-225 751h-119l-248 -1417h209l133 754l223 -754h119zM971 1743l-164 -242h-236l-82 242h132l90 -109l129 109h131zM938 1726h-94l-133 -116l-99 116 h-98l70 -208h215z" glyph-name="Ncaron" horiz-adv-x="847" unicode="Ň"/><glyph d="M1036 1442l-256 -1450h-143l-207 700l-125 -700h-242l256 1450h144l209 -699l123 699h241zM1016 1425h-209l-131 -751l-225 751h-119l-248 -1417h209l133 754l223 -754h119zM971 1743l-164 -242h-236l-82 242h132l90 -109l129 109h131zM938 1726h-94l-133 -116l-99 116 h-98l70 -208h215z" glyph-name="ncaron" horiz-adv-x="847" unicode="ň"/><glyph d="M1036 1442l-268 -1530q-12 -63 -67.5 -107.5t-118.5 -40.5l24 130h4q23 0 29 22l14 84l-223 692l-125 -700h-242l256 1450h144l209 -699l123 699h241zM676 674l-225 751h-119l-248 -1417h209l133 754l244 -762l-15 -88q-4 -12 -13 -22.5t-24 -12.5l-16 -96q53 4 97 43 t53 92l264 1509h-209z" glyph-name="Eng" horiz-adv-x="847" unicode="Ŋ"/><glyph d="M1036 1442l-268 -1530q-12 -63 -67.5 -107.5t-118.5 -40.5l24 130h4q23 0 29 22l14 84l-223 692l-125 -700h-242l256 1450h144l209 -699l123 699h241zM676 674l-225 751h-119l-248 -1417h209l133 754l244 -762l-15 -88q-4 -12 -13 -22.5t-24 -12.5l-16 -96q53 4 97 43 t53 92l264 1509h-209z" glyph-name="eng" horiz-adv-x="847" unicode="ŋ"/><glyph d="M647 74q119 94 148 264l135 762q8 57 8 82q0 111 -61 178q-74 82 -218 82q-145 0 -245 -82q-119 -94 -148 -264l-135 -762q-8 -57 -8 -82q0 -111 61 -178q72 -82 217 -82q142 0 246 82zM172 61q-66 78 -66 195q0 20 9 82l135 762q29 172 151 272q109 86 258 86 q147 0 230 -86q66 -78 65 -194q0 -20 -8 -82l-135 -762q-29 -174 -154 -273q-104 -86 -256 -86q-153 0 -229 86zM705 1206q20 -20 20 -65q0 -20 -4 -45l-135 -762q-14 -80 -51 -107q-33 -27 -95 -26q-61 0 -86 26q-18 23 -18 66q0 12 4 45l135 760q10 78 51 108q33 27 92 27 q67 0 87 -27zM535 1194q-35 -27 -43 -98l-136 -762q-4 -25 -4 -43q0 -37 15 -51q20 -23 73 -23q55 0 84 23q31 25 45 98l136 760q2 16 2 41q0 41 -15 57q-18 20 -74 21q-52 0 -83 -23zM891 1518l16 96h-438l-16 -96h438zM903 1501h-471l25 129h471z" glyph-name="Omacron" horiz-adv-x="806" unicode="Ō"/><glyph d="M647 74q119 94 148 264l135 762q8 57 8 82q0 111 -61 178q-74 82 -218 82q-145 0 -245 -82q-119 -94 -148 -264l-135 -762q-8 -57 -8 -82q0 -111 61 -178q72 -82 217 -82q142 0 246 82zM172 61q-66 78 -66 195q0 20 9 82l135 762q29 172 151 272q109 86 258 86 q147 0 230 -86q66 -78 65 -194q0 -20 -8 -82l-135 -762q-29 -174 -154 -273q-104 -86 -256 -86q-153 0 -229 86zM705 1206q20 -20 20 -65q0 -20 -4 -45l-135 -762q-14 -80 -51 -107q-33 -27 -95 -26q-61 0 -86 26q-18 23 -18 66q0 12 4 45l135 760q10 78 51 108q33 27 92 27 q67 0 87 -27zM535 1194q-35 -27 -43 -98l-136 -762q-4 -25 -4 -43q0 -37 15 -51q20 -23 73 -23q55 0 84 23q31 25 45 98l136 760q2 16 2 41q0 41 -15 57q-18 20 -74 21q-52 0 -83 -23zM891 1518l16 96h-438l-16 -96h438zM903 1501h-471l25 129h471z" glyph-name="omacron" horiz-adv-x="806" unicode="ō"/><glyph d="M647 74q119 94 148 264l135 762q8 57 8 82q0 111 -61 178q-74 82 -218 82q-145 0 -245 -82q-119 -94 -148 -264l-135 -762q-8 -57 -8 -82q0 -111 61 -178q72 -82 217 -82q142 0 246 82zM172 61q-66 78 -66 195q0 20 9 82l135 762q29 172 151 272q109 86 258 86 q147 0 230 -86q66 -78 65 -194q0 -20 -8 -82l-135 -762q-29 -174 -154 -273q-104 -86 -256 -86q-153 0 -229 86zM705 1206q20 -20 20 -65q0 -20 -4 -45l-135 -762q-14 -80 -51 -107q-33 -27 -95 -26q-61 0 -86 26q-18 23 -18 66q0 12 4 45l135 760q10 78 51 108q33 27 92 27 q67 0 87 -27zM535 1194q-35 -27 -43 -98l-136 -762q-4 -25 -4 -43q0 -37 15 -51q20 -23 73 -23q55 0 84 23q31 25 45 98l136 760q2 16 2 41q0 41 -15 57q-18 20 -74 21q-52 0 -83 -23zM571 1518l244 208h-199l-139 -208h94zM575 1501h-131l164 242h252zM877 1518l243 208 h-198l-140 -208h95zM881 1501h-131l163 242h252z" glyph-name="Ohungarumlaut" horiz-adv-x="806" unicode="Ő"/><glyph d="M647 74q119 94 148 264l135 762q8 57 8 82q0 111 -61 178q-74 82 -218 82q-145 0 -245 -82q-119 -94 -148 -264l-135 -762q-8 -57 -8 -82q0 -111 61 -178q72 -82 217 -82q142 0 246 82zM172 61q-66 78 -66 195q0 20 9 82l135 762q29 172 151 272q109 86 258 86 q147 0 230 -86q66 -78 65 -194q0 -20 -8 -82l-135 -762q-29 -174 -154 -273q-104 -86 -256 -86q-153 0 -229 86zM705 1206q20 -20 20 -65q0 -20 -4 -45l-135 -762q-14 -80 -51 -107q-33 -27 -95 -26q-61 0 -86 26q-18 23 -18 66q0 12 4 45l135 760q10 78 51 108q33 27 92 27 q67 0 87 -27zM535 1194q-35 -27 -43 -98l-136 -762q-4 -25 -4 -43q0 -37 15 -51q20 -23 73 -23q55 0 84 23q31 25 45 98l136 760q2 16 2 41q0 41 -15 57q-18 20 -74 21q-52 0 -83 -23zM571 1518l244 208h-199l-139 -208h94zM575 1501h-131l164 242h252zM877 1518l243 208 h-198l-140 -208h95zM881 1501h-131l163 242h252z" glyph-name="ohungarumlaut" horiz-adv-x="806" unicode="ő"/><glyph d="M965 1200l-60 -344h254l-43 -242h-254l-67 -381h368l-43 -241h-717q-150 0 -229 86q-66 78 -65 194q0 20 8 82l129 729q16 98 59 165t94 106q109 88 256 88h721l-43 -242h-368zM1356 1425h-701q-139 0 -247 -84q-57 -45 -94.5 -112.5t-51.5 -149.5l-129 -729 q-8 -57 -8 -82q0 -111 61 -178q76 -82 217 -82h705l35 209h-369l76 414h254l35 209h-254l67 377h369zM721 1200h-105q-53 0 -81 -22q-33 -27 -48 -99l-129 -727q-2 -16 -2 -41q0 -41 15 -55q20 -23 71 -23h109zM442 217q-59 0 -84 27q-20 20 -20 65q0 20 4 45l129 729 q12 76 53 107q33 27 92 27h125l-178 -1000h-121z" glyph-name="OE" horiz-adv-x="1171" unicode="Œ"/><glyph d="M965 1200l-60 -344h254l-43 -242h-254l-67 -381h368l-43 -241h-717q-150 0 -229 86q-66 78 -65 194q0 20 8 82l129 729q16 98 59 165t94 106q109 88 256 88h721l-43 -242h-368zM1356 1425h-701q-139 0 -247 -84q-57 -45 -94.5 -112.5t-51.5 -149.5l-129 -729 q-8 -57 -8 -82q0 -111 61 -178q76 -82 217 -82h705l35 209h-369l76 414h254l35 209h-254l67 377h369zM721 1200h-105q-53 0 -81 -22q-33 -27 -48 -99l-129 -727q-2 -16 -2 -41q0 -41 15 -55q20 -23 71 -23h109zM442 217q-59 0 -84 27q-20 20 -20 65q0 20 4 45l129 729 q12 76 53 107q33 27 92 27h125l-178 -1000h-121z" glyph-name="oe" horiz-adv-x="1171" unicode="œ"/><glyph d="M764 -8h-246l-14 575h-88l-103 -575h-241l256 1450h346q152 0 229 -88q66 -78 66 -193q0 -25 -8 -82l-27 -153q-29 -174 -152 -273q-18 -14 -37 -24zM770 666q119 96 148 264l26 153q6 41 6 78q0 111 -59 180q-74 84 -217 84h-334l-248 -1417h209l102 576h117l15 -576 h213l-19 629q16 11 41 29zM719 1083q4 25 4 41q0 37 -14 54q-20 23 -74 22h-109l-67 -391h104q53 0 84 22q33 25 45 99zM655 819q-33 -27 -92 -26h-125l76 424h121q61 0 86 -27q18 -20 18 -66q0 -12 -4 -45l-26 -153q-13 -76 -54 -107zM743 1518l244 208h-199l-139 -208h94z M748 1501h-132l164 242h252z" glyph-name="Racute" horiz-adv-x="813" unicode="Ŕ"/><glyph d="M764 -8h-246l-14 575h-88l-103 -575h-241l256 1450h346q152 0 229 -88q66 -78 66 -193q0 -25 -8 -82l-27 -153q-29 -174 -152 -273q-18 -14 -37 -24zM770 666q119 96 148 264l26 153q6 41 6 78q0 111 -59 180q-74 84 -217 84h-334l-248 -1417h209l102 576h117l15 -576 h213l-19 629q16 11 41 29zM719 1083q4 25 4 41q0 37 -14 54q-20 23 -74 22h-109l-67 -391h104q53 0 84 22q33 25 45 99zM655 819q-33 -27 -92 -26h-125l76 424h121q61 0 86 -27q18 -20 18 -66q0 -12 -4 -45l-26 -153q-13 -76 -54 -107zM743 1518l244 208h-199l-139 -208h94z M748 1501h-132l164 242h252z" glyph-name="racute" horiz-adv-x="813" unicode="ŕ"/><glyph d="M764 -8h-246l-14 575h-88l-103 -575h-241l256 1450h346q152 0 229 -88q66 -78 66 -193q0 -25 -8 -82l-27 -153q-29 -174 -152 -273q-18 -14 -37 -24zM770 666q119 96 148 264l26 153q6 41 6 78q0 111 -59 180q-74 84 -217 84h-334l-248 -1417h209l102 576h117l15 -576 h213l-19 629q16 11 41 29zM719 1083q4 25 4 41q0 37 -14 54q-20 23 -74 22h-109l-67 -391h104q53 0 84 22q33 25 45 99zM655 819q-33 -27 -92 -26h-125l76 424h121q61 0 86 -27q18 -20 18 -66q0 -12 -4 -45l-26 -153q-13 -76 -54 -107zM451 -260q-29 -45 -91 -115h-92 q25 41 39 70q10 18 10 31q0 12 -8 18v0q-14 16 -23.5 33.5t-9.5 42.5q0 49 40 88t90 39q41 0 67.5 -25.5t26.5 -66.5q0 -12 -2 -19q-6 -47 -47 -96zM483 -143q0 31 -22.5 52t-54.5 21q-43 0 -78 -33.5t-35 -78.5q0 -20 7 -32.5t22 -29.5v0q12 -12 12 -28t-12 -41 q-8 -12 -25 -45h55q49 55 86 106t43 92q2 7 2 17z" glyph-name="Rcommaaccent" horiz-adv-x="813" unicode="Ŗ"/><glyph d="M764 -8h-246l-14 575h-88l-103 -575h-241l256 1450h346q152 0 229 -88q66 -78 66 -193q0 -25 -8 -82l-27 -153q-29 -174 -152 -273q-18 -14 -37 -24zM770 666q119 96 148 264l26 153q6 41 6 78q0 111 -59 180q-74 84 -217 84h-334l-248 -1417h209l102 576h117l15 -576 h213l-19 629q16 11 41 29zM719 1083q4 25 4 41q0 37 -14 54q-20 23 -74 22h-109l-67 -391h104q53 0 84 22q33 25 45 99zM655 819q-33 -27 -92 -26h-125l76 424h121q61 0 86 -27q18 -20 18 -66q0 -12 -4 -45l-26 -153q-13 -76 -54 -107zM451 -260q-29 -45 -91 -115h-92 q25 41 39 70q10 18 10 31q0 12 -8 18v0q-14 16 -23.5 33.5t-9.5 42.5q0 49 40 88t90 39q41 0 67.5 -25.5t26.5 -66.5q0 -12 -2 -19q-6 -47 -47 -96zM483 -143q0 31 -22.5 52t-54.5 21q-43 0 -78 -33.5t-35 -78.5q0 -20 7 -32.5t22 -29.5v0q12 -12 12 -28t-12 -41 q-8 -12 -25 -45h55q49 55 86 106t43 92q2 7 2 17z" glyph-name="rcommaaccent" horiz-adv-x="813" unicode="ŗ"/><glyph d="M764 -8h-246l-14 575h-88l-103 -575h-241l256 1450h346q152 0 229 -88q66 -78 66 -193q0 -25 -8 -82l-27 -153q-29 -174 -152 -273q-18 -14 -37 -24zM770 666q119 96 148 264l26 153q6 41 6 78q0 111 -59 180q-74 84 -217 84h-334l-248 -1417h209l102 576h117l15 -576 h213l-19 629q16 11 41 29zM719 1083q4 25 4 41q0 37 -14 54q-20 23 -74 22h-109l-67 -391h104q53 0 84 22q33 25 45 99zM655 819q-33 -27 -92 -26h-125l76 424h121q61 0 86 -27q18 -20 18 -66q0 -12 -4 -45l-26 -153q-13 -76 -54 -107zM969 1743l-164 -242h-236l-82 242h131 l91 -109l129 109h131zM936 1726h-94l-133 -116l-99 116h-98l70 -208h215z" glyph-name="Rcaron" horiz-adv-x="813" unicode="Ř"/><glyph d="M764 -8h-246l-14 575h-88l-103 -575h-241l256 1450h346q152 0 229 -88q66 -78 66 -193q0 -25 -8 -82l-27 -153q-29 -174 -152 -273q-18 -14 -37 -24zM770 666q119 96 148 264l26 153q6 41 6 78q0 111 -59 180q-74 84 -217 84h-334l-248 -1417h209l102 576h117l15 -576 h213l-19 629q16 11 41 29zM719 1083q4 25 4 41q0 37 -14 54q-20 23 -74 22h-109l-67 -391h104q53 0 84 22q33 25 45 99zM655 819q-33 -27 -92 -26h-125l76 424h121q61 0 86 -27q18 -20 18 -66q0 -12 -4 -45l-26 -153q-13 -76 -54 -107zM969 1743l-164 -242h-236l-82 242h131 l91 -109l129 109h131zM936 1726h-94l-133 -116l-99 116h-98l70 -208h215z" glyph-name="rcaron" horiz-adv-x="813" unicode="ř"/><glyph d="M633 74q119 94 147 264l17 90q6 37 6 74q0 145 -98 250q-29 33 -77 63.5t-57 34.5q-45 27 -67 45q-53 53 -53 127q0 14 4 43l6 33q10 78 51 108q33 27 92 27q66 0 86 -27q20 -20 21 -65q0 -20 -4 -45l-21 -115h209l20 119q8 57 9 82q0 111 -62 178q-74 82 -217 82 q-145 0 -246 -82q-119 -94 -147 -264l-6 -35q-6 -39 -6 -76q0 -147 96 -246q20 -23 57 -47t70 -45q55 -31 76 -51q51 -57 51 -135q0 -25 -2 -37l-17 -90q-14 -80 -51 -107q-33 -27 -94 -26q-61 0 -86 26q-18 23 -18 66q0 12 4 45l30 176h-209l-30 -180q-8 -57 -8 -82 q0 -111 61 -178q72 -82 217 -82q142 0 246 82zM158 61q-66 78 -66 195q0 20 8 82l35 192h242l-35 -196q-4 -25 -4 -43q0 -37 14 -51q20 -23 74 -23q55 0 84 23q31 25 45 98l16 90q4 25 4 37q0 68 -49 119q-14 16 -80 55q-92 57 -122 88q-102 106 -103 256q0 43 8 82l7 35 q29 172 151 272q109 86 258 86q147 0 229 -86q66 -78 66 -194q0 -20 -8 -82l-25 -131h-241l24 133q2 16 2 41q0 41 -14 57q-18 20 -74 21q-53 0 -84 -23q-35 -27 -43 -98l-6 -35q-4 -29 -4 -41q0 -66 49 -113q10 -12 38 -29.5t36 -21.5q92 -57 127 -92q102 -113 102 -262 q0 -37 -6 -78l-16 -90q-29 -174 -154 -273q-104 -86 -256 -86q-153 0 -229 86zM709 1518l243 208h-198l-140 -208h95zM713 1501h-131l163 242h252z" glyph-name="Sacute" horiz-adv-x="778" unicode="Ś"/><glyph d="M633 74q119 94 147 264l17 90q6 37 6 74q0 145 -98 250q-29 33 -77 63.5t-57 34.5q-45 27 -67 45q-53 53 -53 127q0 14 4 43l6 33q10 78 51 108q33 27 92 27q66 0 86 -27q20 -20 21 -65q0 -20 -4 -45l-21 -115h209l20 119q8 57 9 82q0 111 -62 178q-74 82 -217 82 q-145 0 -246 -82q-119 -94 -147 -264l-6 -35q-6 -39 -6 -76q0 -147 96 -246q20 -23 57 -47t70 -45q55 -31 76 -51q51 -57 51 -135q0 -25 -2 -37l-17 -90q-14 -80 -51 -107q-33 -27 -94 -26q-61 0 -86 26q-18 23 -18 66q0 12 4 45l30 176h-209l-30 -180q-8 -57 -8 -82 q0 -111 61 -178q72 -82 217 -82q142 0 246 82zM158 61q-66 78 -66 195q0 20 8 82l35 192h242l-35 -196q-4 -25 -4 -43q0 -37 14 -51q20 -23 74 -23q55 0 84 23q31 25 45 98l16 90q4 25 4 37q0 68 -49 119q-14 16 -80 55q-92 57 -122 88q-102 106 -103 256q0 43 8 82l7 35 q29 172 151 272q109 86 258 86q147 0 229 -86q66 -78 66 -194q0 -20 -8 -82l-25 -131h-241l24 133q2 16 2 41q0 41 -14 57q-18 20 -74 21q-53 0 -84 -23q-35 -27 -43 -98l-6 -35q-4 -29 -4 -41q0 -66 49 -113q10 -12 38 -29.5t36 -21.5q92 -57 127 -92q102 -113 102 -262 q0 -37 -6 -78l-16 -90q-29 -174 -154 -273q-104 -86 -256 -86q-153 0 -229 86zM709 1518l243 208h-198l-140 -208h95zM713 1501h-131l163 242h252z" glyph-name="sacute" horiz-adv-x="778" unicode="ś"/><glyph d="M666 967l24 135q4 29 4 45q0 35 -14 49q-20 23 -74 23q-55 0 -84 -23q-33 -25 -45 -98l-6 -35q-4 -29 -4 -39q0 -66 49 -115q10 -12 38 -29.5t36 -21.5q92 -57 127 -92q102 -109 102 -260q0 -39 -6 -80l-16 -90q-29 -172 -152 -273q-90 -72 -205 -79v4h9q0 -4 6 -11 q25 -23 39 -44t14 -60q0 -20 -2 -33q-8 -59 -60.5 -103t-113.5 -44q-55 0 -91 35.5t-36 89.5q0 12 4 32h129q-2 -4 -2 -12q0 -16 16 -16q8 0 15.5 6t9.5 16v6q0 8 -15 23q-45 33 -45 90q0 18 2 27v-2v2l7 -8q-109 16 -168 81q-66 78 -66 195q0 20 8 82l35 192h242l-35 -196 q-4 -25 -4 -43q0 -37 14 -51q23 -23 74 -23q57 0 84 23q31 25 45 98l16 90q4 25 4 37q0 68 -49 119q-14 16 -80 55q-92 57 -122 88q-100 102 -101 258q0 41 6 80l7 35q29 174 153 272q104 86 256 86q154 0 229 -86q66 -78 66 -194q0 -20 -8 -82l-25 -131h-241zM915 1102 q8 57 9 82q0 111 -62 178q-72 82 -217 82q-141 0 -246 -82q-119 -94 -147 -264l-6 -35q-6 -39 -6 -78q0 -147 96 -244q20 -23 57 -47t70 -45q55 -31 76 -51q51 -57 51 -135q0 -25 -2 -37l-17 -90q-14 -80 -51 -107q-29 -27 -94 -26q-59 0 -86 26q-18 23 -18 66q0 12 4 45 l30 176h-209l-30 -180q-8 -57 -8 -82q0 -111 61 -178q55 -61 160 -78l6 -8v-2v-2q-2 -6 -2 -21q0 -47 39 -80q14 -12 18 -21t2 -22q-2 -16 -13 -26.5t-28 -10.5q-14 0 -22 8.5t-11 20.5h-96q-6 -53 26 -89t83 -36q63 0 112.5 49t49.5 117q0 33 -13.5 51.5t-36.5 38.5 q-12 10 -12 23h8v8q113 16 193 80q119 94 147 264l17 90q6 41 6 78q0 145 -98 246q-29 33 -77 63.5t-57 34.5q-45 27 -67 45q-53 57 -53 129q0 12 4 41l6 35q16 78 51 106q33 27 94 27t86 -27q18 -20 19 -63q0 -31 -4 -47l-21 -115h209z" glyph-name="Scedilla" horiz-adv-x="778" unicode="Ş"/><glyph d="M666 967l24 135q4 29 4 45q0 35 -14 49q-20 23 -74 23q-55 0 -84 -23q-33 -25 -45 -98l-6 -35q-4 -29 -4 -39q0 -66 49 -115q10 -12 38 -29.5t36 -21.5q92 -57 127 -92q102 -109 102 -260q0 -39 -6 -80l-16 -90q-29 -172 -152 -273q-90 -72 -205 -79v4h9q0 -4 6 -11 q25 -23 39 -44t14 -60q0 -20 -2 -33q-8 -59 -60.5 -103t-113.5 -44q-55 0 -91 35.5t-36 89.5q0 12 4 32h129q-2 -4 -2 -12q0 -16 16 -16q8 0 15.5 6t9.5 16v6q0 8 -15 23q-45 33 -45 90q0 18 2 27v-2v2l7 -8q-109 16 -168 81q-66 78 -66 195q0 20 8 82l35 192h242l-35 -196 q-4 -25 -4 -43q0 -37 14 -51q23 -23 74 -23q57 0 84 23q31 25 45 98l16 90q4 25 4 37q0 68 -49 119q-14 16 -80 55q-92 57 -122 88q-100 102 -101 258q0 41 6 80l7 35q29 174 153 272q104 86 256 86q154 0 229 -86q66 -78 66 -194q0 -20 -8 -82l-25 -131h-241zM915 1102 q8 57 9 82q0 111 -62 178q-72 82 -217 82q-141 0 -246 -82q-119 -94 -147 -264l-6 -35q-6 -39 -6 -78q0 -147 96 -244q20 -23 57 -47t70 -45q55 -31 76 -51q51 -57 51 -135q0 -25 -2 -37l-17 -90q-14 -80 -51 -107q-29 -27 -94 -26q-59 0 -86 26q-18 23 -18 66q0 12 4 45 l30 176h-209l-30 -180q-8 -57 -8 -82q0 -111 61 -178q55 -61 160 -78l6 -8v-2v-2q-2 -6 -2 -21q0 -47 39 -80q14 -12 18 -21t2 -22q-2 -16 -13 -26.5t-28 -10.5q-14 0 -22 8.5t-11 20.5h-96q-6 -53 26 -89t83 -36q63 0 112.5 49t49.5 117q0 33 -13.5 51.5t-36.5 38.5 q-12 10 -12 23h8v8q113 16 193 80q119 94 147 264l17 90q6 41 6 78q0 145 -98 246q-29 33 -77 63.5t-57 34.5q-45 27 -67 45q-53 57 -53 129q0 12 4 41l6 35q16 78 51 106q33 27 94 27t86 -27q18 -20 19 -63q0 -31 -4 -47l-21 -115h209z" glyph-name="scedilla" horiz-adv-x="778" unicode="ş"/><glyph d="M633 74q119 94 147 264l17 90q6 37 6 74q0 145 -98 250q-29 33 -77 63.5t-57 34.5q-45 27 -67 45q-53 53 -53 127q0 14 4 43l6 33q10 78 51 108q33 27 92 27q66 0 86 -27q20 -20 21 -65q0 -20 -4 -45l-21 -115h209l20 119q8 57 9 82q0 111 -62 178q-74 82 -217 82 q-145 0 -246 -82q-119 -94 -147 -264l-6 -35q-6 -39 -6 -76q0 -147 96 -246q20 -23 57 -47t70 -45q55 -31 76 -51q51 -57 51 -135q0 -25 -2 -37l-17 -90q-14 -80 -51 -107q-33 -27 -94 -26q-61 0 -86 26q-18 23 -18 66q0 12 4 45l30 176h-209l-30 -180q-8 -57 -8 -82 q0 -111 61 -178q72 -82 217 -82q142 0 246 82zM158 61q-66 78 -66 195q0 20 8 82l35 192h242l-35 -196q-4 -25 -4 -43q0 -37 14 -51q20 -23 74 -23q55 0 84 23q31 25 45 98l16 90q4 25 4 37q0 68 -49 119q-14 16 -80 55q-92 57 -122 88q-102 106 -103 256q0 43 8 82l7 35 q29 172 151 272q109 86 258 86q147 0 229 -86q66 -78 66 -194q0 -20 -8 -82l-25 -131h-241l24 133q2 16 2 41q0 41 -14 57q-18 20 -74 21q-53 0 -84 -23q-35 -27 -43 -98l-6 -35q-4 -29 -4 -41q0 -66 49 -113q10 -12 38 -29.5t36 -21.5q92 -57 127 -92q102 -113 102 -262 q0 -37 -6 -78l-16 -90q-29 -174 -154 -273q-104 -86 -256 -86q-153 0 -229 86zM457 1743h129l90 -109l129 109h133l-166 -242h-235zM481 1726l68 -208h215l141 208h-96l-133 -116l-98 116h-97z" glyph-name="Scaron" horiz-adv-x="778" unicode="Š"/><glyph d="M633 74q119 94 147 264l17 90q6 37 6 74q0 145 -98 250q-29 33 -77 63.5t-57 34.5q-45 27 -67 45q-53 53 -53 127q0 14 4 43l6 33q10 78 51 108q33 27 92 27q66 0 86 -27q20 -20 21 -65q0 -20 -4 -45l-21 -115h209l20 119q8 57 9 82q0 111 -62 178q-74 82 -217 82 q-145 0 -246 -82q-119 -94 -147 -264l-6 -35q-6 -39 -6 -76q0 -147 96 -246q20 -23 57 -47t70 -45q55 -31 76 -51q51 -57 51 -135q0 -25 -2 -37l-17 -90q-14 -80 -51 -107q-33 -27 -94 -26q-61 0 -86 26q-18 23 -18 66q0 12 4 45l30 176h-209l-30 -180q-8 -57 -8 -82 q0 -111 61 -178q72 -82 217 -82q142 0 246 82zM158 61q-66 78 -66 195q0 20 8 82l35 192h242l-35 -196q-4 -25 -4 -43q0 -37 14 -51q20 -23 74 -23q55 0 84 23q31 25 45 98l16 90q4 25 4 37q0 68 -49 119q-14 16 -80 55q-92 57 -122 88q-102 106 -103 256q0 43 8 82l7 35 q29 172 151 272q109 86 258 86q147 0 229 -86q66 -78 66 -194q0 -20 -8 -82l-25 -131h-241l24 133q2 16 2 41q0 41 -14 57q-18 20 -74 21q-53 0 -84 -23q-35 -27 -43 -98l-6 -35q-4 -29 -4 -41q0 -66 49 -113q10 -12 38 -29.5t36 -21.5q92 -57 127 -92q102 -113 102 -262 q0 -37 -6 -78l-16 -90q-29 -174 -154 -273q-104 -86 -256 -86q-153 0 -229 86zM457 1743h129l90 -109l129 109h133l-166 -242h-235zM481 1726l68 -208h215l141 208h-96l-133 -116l-98 116h-97z" glyph-name="scaron" horiz-adv-x="778" unicode="š"/><glyph d="M422 -8v-4q0 -4 6 -11q25 -23 39 -44t14 -60q0 -20 -2 -33q-8 -59 -60 -103t-114 -44q-55 0 -91 35.5t-36 89.5q0 12 4 32h129q-2 -4 -2 -12q0 -16 17 -16q8 0 15 6t9 16v6q0 8 -14 23q-45 33 -45 90q0 18 2 27v2h-53l213 1208h-230l43 242h701l-43 -242h-230l-213 -1208 h-59zM682 1217h229l35 208h-667l-35 -208h229l-213 -1209h53l-4 -22q-2 -6 -2 -21q0 -47 39 -80q14 -12 18.5 -21t2.5 -22q-2 -16 -13.5 -26.5t-27.5 -10.5q-14 0 -22.5 8.5t-10.5 20.5h-96q-6 -53 25.5 -89t82.5 -36q63 0 112.5 49t49.5 117q0 33 -13.5 51.5t-35.5 38.5 q-12 10 -12 23q0 2 1 8t3 12h59z" glyph-name="Tcommaaccent" horiz-adv-x="722" unicode="Ţ"/><glyph d="M422 -8v-4q0 -4 6 -11q25 -23 39 -44t14 -60q0 -20 -2 -33q-8 -59 -60 -103t-114 -44q-55 0 -91 35.5t-36 89.5q0 12 4 32h129q-2 -4 -2 -12q0 -16 17 -16q8 0 15 6t9 16v6q0 8 -14 23q-45 33 -45 90q0 18 2 27v2h-53l213 1208h-230l43 242h701l-43 -242h-230l-213 -1208 h-59zM682 1217h229l35 208h-667l-35 -208h229l-213 -1209h53l-4 -22q-2 -6 -2 -21q0 -47 39 -80q14 -12 18.5 -21t2.5 -22q-2 -16 -13.5 -26.5t-27.5 -10.5q-14 0 -22.5 8.5t-10.5 20.5h-96q-6 -53 25.5 -89t82.5 -36q63 0 112.5 49t49.5 117q0 33 -13.5 51.5t-35.5 38.5 q-12 10 -12 23q0 2 1 8t3 12h59z" glyph-name="tcommaaccent" horiz-adv-x="722" unicode="ţ"/><glyph d="M967 1442l-43 -242h-230l-213 -1208h-241l213 1208h-230l43 242h701zM946 1425h-667l-35 -208h229l-213 -1209h209l213 1209h229zM909 1743l-164 -242h-235l-82 242h131l90 -109l129 109h131zM877 1726h-95l-133 -116l-98 116h-98l69 -208h215z" glyph-name="Tcaron" horiz-adv-x="722" unicode="Ť"/><glyph d="M967 1442l-43 -242h-230l-213 -1208h-241l213 1208h-230l43 242h701zM946 1425h-667l-35 -208h229l-213 -1209h209l213 1209h229zM909 1743l-164 -242h-235l-82 242h131l90 -109l129 109h131zM877 1726h-95l-133 -116l-98 116h-98l69 -208h215z" glyph-name="tcaron" horiz-adv-x="722" unicode="ť"/><glyph d="M924 1200h-230l-37 -215h113l-25 -129h-112l-152 -864h-241l151 864h-119l25 129h119l37 215h-230l43 242h701zM911 1217l35 208h-667l-35 -208h229l-45 -248h-119l-16 -97h119l-152 -864h209l152 864h112l17 97h-113l45 248h229z" glyph-name="Tbar" horiz-adv-x="722" unicode="Ŧ"/><glyph d="M924 1200h-230l-37 -215h113l-25 -129h-112l-152 -864h-241l151 864h-119l25 129h119l37 215h-230l43 242h701zM911 1217l35 208h-667l-35 -208h229l-45 -248h-119l-16 -97h119l-152 -864h209l152 864h112l17 97h-113l45 248h229z" glyph-name="tbar" horiz-adv-x="722" unicode="ŧ"/><glyph d="M655 74q119 100 148 264l190 1087h-209l-190 -1091q-16 -80 -53 -107q-33 -27 -92 -26q-63 0 -89 26q-18 18 -18 62q0 23 6 49l191 1087h-209l-191 -1091q-8 -57 -8 -82q0 -111 62 -178q72 -82 217 -82q139 0 245 82zM180 61q-66 78 -65 195q0 20 8 82l194 1104h242 l-194 -1108q-6 -43 -7 -47q0 -33 15 -47q20 -23 76 -23q51 0 83 23q33 25 46 98l194 1104h242l-195 -1108q-29 -170 -153 -273q-106 -86 -256 -86q-154 0 -230 86zM582 1583q33 8 82 -24q53 -41 110 -41q49 0 94 29.5t88 76.5l-69 55q-47 -53 -80 -63q-33 -6 -74 24 q-55 41 -115 41q-92 0 -190 -104l66 -55q51 55 88 61zM403 1577q61 63 110.5 92t102.5 29q66 0 125 -45q37 -27 62 -21q35 12 84 70l94 -78q-49 -53 -99.5 -88t-107.5 -35q-66 0 -119 45q-45 31 -69 21q-35 -6 -92 -70z" glyph-name="Utilde" horiz-adv-x="823" unicode="Ũ"/><glyph d="M655 74q119 100 148 264l190 1087h-209l-190 -1091q-16 -80 -53 -107q-33 -27 -92 -26q-63 0 -89 26q-18 18 -18 62q0 23 6 49l191 1087h-209l-191 -1091q-8 -57 -8 -82q0 -111 62 -178q72 -82 217 -82q139 0 245 82zM180 61q-66 78 -65 195q0 20 8 82l194 1104h242 l-194 -1108q-6 -43 -7 -47q0 -33 15 -47q20 -23 76 -23q51 0 83 23q33 25 46 98l194 1104h242l-195 -1108q-29 -170 -153 -273q-106 -86 -256 -86q-154 0 -230 86zM582 1583q33 8 82 -24q53 -41 110 -41q49 0 94 29.5t88 76.5l-69 55q-47 -53 -80 -63q-33 -6 -74 24 q-55 41 -115 41q-92 0 -190 -104l66 -55q51 55 88 61zM403 1577q61 63 110.5 92t102.5 29q66 0 125 -45q37 -27 62 -21q35 12 84 70l94 -78q-49 -53 -99.5 -88t-107.5 -35q-66 0 -119 45q-45 31 -69 21q-35 -6 -92 -70z" glyph-name="utilde" horiz-adv-x="823" unicode="ũ"/><glyph d="M655 74q119 100 148 264l190 1087h-209l-190 -1091q-16 -80 -53 -107q-33 -27 -92 -26q-63 0 -89 26q-18 18 -18 62q0 23 6 49l191 1087h-209l-191 -1091q-8 -57 -8 -82q0 -111 62 -178q72 -82 217 -82q139 0 245 82zM180 61q-66 78 -65 195q0 20 8 82l194 1104h242 l-194 -1108q-6 -43 -7 -47q0 -33 15 -47q20 -23 76 -23q51 0 83 23q33 25 46 98l194 1104h242l-195 -1108q-29 -170 -153 -273q-106 -86 -256 -86q-154 0 -230 86zM899 1518l16 96h-438l-16 -96h438zM911 1501h-471l25 129h471z" glyph-name="Umacron" horiz-adv-x="823" unicode="Ū"/><glyph d="M655 74q119 100 148 264l190 1087h-209l-190 -1091q-16 -80 -53 -107q-33 -27 -92 -26q-63 0 -89 26q-18 18 -18 62q0 23 6 49l191 1087h-209l-191 -1091q-8 -57 -8 -82q0 -111 62 -178q72 -82 217 -82q139 0 245 82zM180 61q-66 78 -65 195q0 20 8 82l194 1104h242 l-194 -1108q-6 -43 -7 -47q0 -33 15 -47q20 -23 76 -23q51 0 83 23q33 25 46 98l194 1104h242l-195 -1108q-29 -170 -153 -273q-106 -86 -256 -86q-154 0 -230 86zM899 1518l16 96h-438l-16 -96h438zM911 1501h-471l25 129h471z" glyph-name="umacron" horiz-adv-x="823" unicode="ū"/><glyph d="M788.5 1566q49.5 48 49.5 111q0 47 -31 78t-80 31q-63 0 -112.5 -48t-49.5 -114q0 -45 32 -75.5t81 -30.5q61 0 110.5 48zM585 1536q-36 35 -36 90q0 70 54 123t124 53q55 0 91 -35.5t36 -91.5q0 -68 -54.5 -121t-121.5 -53q-57 0 -93 35zM734 1678.5q9 -11.5 5 -27.5 q-2 -16 -13 -26.5t-28 -10.5q-16 0 -26 11t-8 28q4 16 17 26.5t28 10.5q16 0 25 -11.5zM692 1667q-8 -6 -12 -16v-4q0 -16 18 -17q8 0 15.5 6t9.5 17l2 6q0 6 -5 10t-11 4q-9 0 -17 -6zM655 74q119 100 148 264l190 1087h-209l-190 -1091q-16 -80 -53 -107q-33 -27 -92 -26 q-63 0 -89 26q-18 18 -18 62q0 23 6 49l191 1087h-209l-191 -1091q-8 -57 -8 -82q0 -111 62 -178q72 -82 217 -82q139 0 245 82zM180 61q-66 78 -65 195q0 20 8 82l194 1104h242l-194 -1108q-6 -43 -7 -47q0 -33 15 -47q20 -23 76 -23q51 0 83 23q33 25 46 98l194 1104h242 l-195 -1108q-29 -170 -153 -273q-106 -86 -256 -86q-154 0 -230 86z" glyph-name="Uring" horiz-adv-x="823" unicode="Ů"/><glyph d="M788.5 1566q49.5 48 49.5 111q0 47 -31 78t-80 31q-63 0 -112.5 -48t-49.5 -114q0 -45 32 -75.5t81 -30.5q61 0 110.5 48zM585 1536q-36 35 -36 90q0 70 54 123t124 53q55 0 91 -35.5t36 -91.5q0 -68 -54.5 -121t-121.5 -53q-57 0 -93 35zM734 1678.5q9 -11.5 5 -27.5 q-2 -16 -13 -26.5t-28 -10.5q-16 0 -26 11t-8 28q4 16 17 26.5t28 10.5q16 0 25 -11.5zM692 1667q-8 -6 -12 -16v-4q0 -16 18 -17q8 0 15.5 6t9.5 17l2 6q0 6 -5 10t-11 4q-9 0 -17 -6zM655 74q119 100 148 264l190 1087h-209l-190 -1091q-16 -80 -53 -107q-33 -27 -92 -26 q-63 0 -89 26q-18 18 -18 62q0 23 6 49l191 1087h-209l-191 -1091q-8 -57 -8 -82q0 -111 62 -178q72 -82 217 -82q139 0 245 82zM180 61q-66 78 -65 195q0 20 8 82l194 1104h242l-194 -1108q-6 -43 -7 -47q0 -33 15 -47q20 -23 76 -23q51 0 83 23q33 25 46 98l194 1104h242 l-195 -1108q-29 -170 -153 -273q-106 -86 -256 -86q-154 0 -230 86z" glyph-name="uring" horiz-adv-x="823" unicode="ů"/><glyph d="M655 74q119 100 148 264l190 1087h-209l-190 -1091q-16 -80 -53 -107q-33 -27 -92 -26q-63 0 -89 26q-18 18 -18 62q0 23 6 49l191 1087h-209l-191 -1091q-8 -57 -8 -82q0 -111 62 -178q72 -82 217 -82q139 0 245 82zM180 61q-66 78 -65 195q0 20 8 82l194 1104h242 l-194 -1108q-6 -43 -7 -47q0 -33 15 -47q20 -23 76 -23q51 0 83 23q33 25 46 98l194 1104h242l-195 -1108q-29 -170 -153 -273q-106 -86 -256 -86q-154 0 -230 86zM580 1518l243 208h-198l-140 -208h95zM584 1501h-131l163 242h252zM885 1518l243 208h-198l-139 -208h94z M889 1501h-131l164 242h252z" glyph-name="Uhungarumlaut" horiz-adv-x="823" unicode="Ű"/><glyph d="M655 74q119 100 148 264l190 1087h-209l-190 -1091q-16 -80 -53 -107q-33 -27 -92 -26q-63 0 -89 26q-18 18 -18 62q0 23 6 49l191 1087h-209l-191 -1091q-8 -57 -8 -82q0 -111 62 -178q72 -82 217 -82q139 0 245 82zM180 61q-66 78 -65 195q0 20 8 82l194 1104h242 l-194 -1108q-6 -43 -7 -47q0 -33 15 -47q20 -23 76 -23q51 0 83 23q33 25 46 98l194 1104h242l-195 -1108q-29 -170 -153 -273q-106 -86 -256 -86q-154 0 -230 86zM580 1518l243 208h-198l-140 -208h95zM584 1501h-131l163 242h252zM885 1518l243 208h-198l-139 -208h94z M889 1501h-131l164 242h252z" glyph-name="uhungarumlaut" horiz-adv-x="823" unicode="ű"/><glyph d="M1014 1442l-195 -1108q-16 -96 -57 -159.5t-94 -113.5q-74 -66 -106 -104.5t-38 -73.5q-4 -23 18.5 -32t47.5 -9h18l8 -10l-22 -119h-45q-76 0 -121 30t-45 81q0 47 40 97t93 83l6 -14q-51 -14 -112 -15q-154 0 -230 86q-66 78 -65 195q0 20 8 82l194 1104h242 l-194 -1108q-6 -43 -7 -47q0 -33 15 -47q20 -23 76 -23q51 0 83 23q33 25 46 98l194 1104h242zM594 334q-16 -80 -53 -107q-33 -27 -92 -26q-63 0 -89 26q-18 18 -18 62q0 23 6 49l191 1087h-209l-191 -1091q-8 -57 -8 -82q0 -111 62 -178q72 -82 217 -82q63 0 108 14l6 -14 q-43 -29 -78.5 -71t-44.5 -81q-2 -6 -2 -18q0 -43 40 -67.5t110 -24.5h33l16 96h-8q-31 0 -59.5 13.5t-22.5 47.5q6 37 39 77t108 110q53 49 92 109.5t56 154.5l190 1087h-209z" glyph-name="Uogonek" horiz-adv-x="823" unicode="Ų"/><glyph d="M1014 1442l-195 -1108q-16 -96 -57 -159.5t-94 -113.5q-74 -66 -106 -104.5t-38 -73.5q-4 -23 18.5 -32t47.5 -9h18l8 -10l-22 -119h-45q-76 0 -121 30t-45 81q0 47 40 97t93 83l6 -14q-51 -14 -112 -15q-154 0 -230 86q-66 78 -65 195q0 20 8 82l194 1104h242 l-194 -1108q-6 -43 -7 -47q0 -33 15 -47q20 -23 76 -23q51 0 83 23q33 25 46 98l194 1104h242zM594 334q-16 -80 -53 -107q-33 -27 -92 -26q-63 0 -89 26q-18 18 -18 62q0 23 6 49l191 1087h-209l-191 -1091q-8 -57 -8 -82q0 -111 62 -178q72 -82 217 -82q63 0 108 14l6 -14 q-43 -29 -78.5 -71t-44.5 -81q-2 -6 -2 -18q0 -43 40 -67.5t110 -24.5h33l16 96h-8q-31 0 -59.5 13.5t-22.5 47.5q6 37 39 77t108 110q53 49 92 109.5t56 154.5l190 1087h-209z" glyph-name="uogonek" horiz-adv-x="823" unicode="ų"/><glyph d="M1051 1442h243l-432 -1450h-139l-72 690l-313 -690h-139l75 1450h244l-45 -678l201 450h143l41 -450zM1063 1425l-213 -751l-49 524h-115l-233 -524l49 751h-211l-76 -1417h111l333 735l80 -735h111l424 1417h-211zM1034 1501h-129l-90 109l-129 -109h-133l166 242h235z M1010 1518l-68 208h-215l-141 -208h96l137 116l94 -116h97z" glyph-name="Wcircumflex" horiz-adv-x="1062" unicode="Ŵ"/><glyph d="M1051 1442h243l-432 -1450h-139l-72 690l-313 -690h-139l75 1450h244l-45 -678l201 450h143l41 -450zM1063 1425l-213 -751l-49 524h-115l-233 -524l49 751h-211l-76 -1417h111l333 735l80 -735h111l424 1417h-211zM1034 1501h-129l-90 109l-129 -109h-133l166 242h235z M1010 1518l-68 208h-215l-141 -208h96l137 116l94 -116h97z" glyph-name="wcircumflex" horiz-adv-x="1062" unicode="ŵ"/><glyph d="M1057 1442l-447 -940l-90 -510h-244l91 512l-115 938h256l57 -494l236 494h256zM1032 1425h-219l-256 -534l-65 534h-220l111 -921l-86 -496h211l86 498zM903 1501h-129l-90 109l-129 -109h-133l166 242h235zM879 1518l-68 208h-215l-141 -208h96l137 116l94 -116h97z " glyph-name="Ycircumflex" horiz-adv-x="802" unicode="Ŷ"/><glyph d="M1057 1442l-447 -940l-90 -510h-244l91 512l-115 938h256l57 -494l236 494h256zM1032 1425h-219l-256 -534l-65 534h-220l111 -921l-86 -496h211l86 498zM903 1501h-129l-90 109l-129 -109h-133l166 242h235zM879 1518l-68 208h-215l-141 -208h96l137 116l94 -116h97z " glyph-name="ycircumflex" horiz-adv-x="802" unicode="ŷ"/><glyph d="M1057 1442l-447 -940l-90 -510h-244l91 512l-115 938h256l57 -494l236 494h256zM1032 1425h-219l-256 -534l-65 534h-220l111 -921l-86 -496h211l86 498zM456.5 1537.5q22.5 -21.5 55.5 -21.5q43 0 77 33.5t34 78.5q0 33 -21.5 53.5t-54.5 20.5q-43 0 -78 -32t-35 -79 q0 -32 22.5 -53.5zM458 1680q40 38 89 38q41 0 66.5 -25.5t25.5 -66.5q0 -51 -39 -89t-88 -38q-41 0 -67.5 26.5t-26.5 67.5q0 49 40 87zM768 1537.5q23 -21.5 55 -21.5q43 0 77 33.5t34 78.5q0 33 -21.5 53.5t-54.5 20.5q-43 0 -78 -32t-35 -79q0 -32 23 -53.5zM769 1680 q40 38 89 38q41 0 66.5 -25.5t25.5 -66.5q0 -51 -39 -89t-88 -38q-41 0 -67.5 26.5t-26.5 67.5q0 49 40 87z" glyph-name="Ydieresis" horiz-adv-x="802" unicode="Ÿ"/><glyph d="M727 8l37 211h-375l584 1206h-664l-35 -211h375l-586 -1206h664zM739 -8h-700l586 1206h-371l43 244h700l-583 -1206h370zM713 1518l243 208h-198l-140 -208h95zM717 1501h-131l164 242h251z" glyph-name="Zacute" horiz-adv-x="784" unicode="Ź"/><glyph d="M727 8l37 211h-375l584 1206h-664l-35 -211h375l-586 -1206h664zM739 -8h-700l586 1206h-371l43 244h700l-583 -1206h370zM713 1518l243 208h-198l-140 -208h95zM717 1501h-131l164 242h251z" glyph-name="zacute" horiz-adv-x="784" unicode="ź"/><glyph d="M727 8l37 211h-375l584 1206h-664l-35 -211h375l-586 -1206h664zM739 -8h-700l586 1206h-371l43 244h700l-583 -1206h370zM603.5 1539.5q21.5 -21.5 53.5 -21.5q43 0 78 33.5t35 78.5q0 31 -22.5 52.5t-55.5 21.5q-43 0 -76.5 -33t-33.5 -80q0 -30 21.5 -51.5z M604 1682.5q39 37.5 88 37.5q41 0 67.5 -26.5t26.5 -67.5q0 -49 -39.5 -87t-89.5 -38q-41 0 -66.5 25.5t-25.5 66.5q0 52 39 89.5z" glyph-name="Zdotaccent" horiz-adv-x="784" unicode="Ż"/><glyph d="M727 8l37 211h-375l584 1206h-664l-35 -211h375l-586 -1206h664zM739 -8h-700l586 1206h-371l43 244h700l-583 -1206h370zM603.5 1539.5q21.5 -21.5 53.5 -21.5q43 0 78 33.5t35 78.5q0 31 -22.5 52.5t-55.5 21.5q-43 0 -76.5 -33t-33.5 -80q0 -30 21.5 -51.5z M604 1682.5q39 37.5 88 37.5q41 0 67.5 -26.5t26.5 -67.5q0 -49 -39.5 -87t-89.5 -38q-41 0 -66.5 25.5t-25.5 66.5q0 52 39 89.5z" glyph-name="zdotaccent" horiz-adv-x="784" unicode="ż"/><glyph d="M727 8l37 211h-375l584 1206h-664l-35 -211h375l-586 -1206h664zM739 -8h-700l586 1206h-371l43 244h700l-583 -1206h370zM940 1743l-164 -242h-235l-82 242h131l90 -109l129 109h131zM907 1726h-94l-133 -116l-98 116h-99l70 -208h215z" glyph-name="Zcaron" horiz-adv-x="784" unicode="Ž"/><glyph d="M727 8l37 211h-375l584 1206h-664l-35 -211h375l-586 -1206h664zM739 -8h-700l586 1206h-371l43 244h700l-583 -1206h370zM940 1743l-164 -242h-235l-82 242h131l90 -109l129 109h131zM907 1726h-94l-133 -116l-98 116h-99l70 -208h215z" glyph-name="zcaron" horiz-adv-x="784" unicode="ž"/><glyph d="M877 553q0 -23 -9 -80l-24 -131q-14 -86 -53 -152q-39 -70 -103 -116q-104 -82 -252 -82h-350l51 301h-94l43 242h96l160 907h315q147 0 230 -82q47 -49 59 -119q6 -31 6 -67q0 -39 -6 -89l-24 -133q-29 -145 -117 -219q72 -61 72 -180zM905 956l25 134q6 43 6 81 q0 35 -6 66q-12 66 -56 111q-74 78 -217 77h-303l-159 -907h-97l-35 -209h95l-52 -301h330q141 0 244 78q57 43 98 113q37 66 49 147l25 131q6 41 6 76q0 121 -80 180q100 73 127 223zM477 836h74q55 0 84 22q33 31 45 98l25 131q2 12 2 41q0 39 -13 52q-20 20 -76 20h-77z M618 1217q63 0 89 -25q16 -18 16 -66q0 -27 -2 -41l-25 -133q-14 -76 -51 -106q-33 -27 -94 -27h-94l71 398h90zM627 477q4 29 4 43q0 37 -15 51q-20 23 -73 23h-111l-8 -59h94l-43 -242h-96l-8 -60h104q55 0 86 21q14 12 26.5 37.5t14.5 54.5zM601 283.5 q-13 -27.5 -32 -41.5q-31 -25 -94 -25h-125l17 92h96l35 209h-95l17 92h123q59 0 86 -26q18 -20 18 -66q0 -12 -4 -45l-25 -129q-4 -33 -17 -60.5z" glyph-name="uni0180" horiz-adv-x="829" unicode="ƀ"/><glyph d="M967 553q0 -23 -9 -80l-22 -131q-16 -84 -53 -152q-45 -76 -103 -116q-106 -82 -254 -82h-350l234 1321h-76q-10 0 -18.5 -7.5t-10.5 -21.5h-129q8 63 60.5 110.5t115.5 47.5h396q147 0 229 -82q47 -49 59 -119q6 -31 6 -67q0 -39 -6 -89l-24 -133q-29 -145 -117 -219 q72 -61 72 -180zM995 956l25 134q6 43 6 81q0 35 -6 66q-12 66 -55 111q-74 78 -217 77h-396q-53 0 -97 -35.5t-58 -89.5h96q4 12 15 20.5t26 8.5h96l-233 -1321h329q139 0 246 78q57 45 96 113q37 66 52 147l22 131q6 41 6 76q0 123 -80 180q100 73 127 223zM567 836h74 q57 0 82 22q33 27 47 98l25 131q2 12 2 41q0 39 -13 52q-18 20 -75 20h-78zM709 1217q66 0 88 -25q16 -18 16 -66q0 -27 -2 -41l-25 -133q-12 -74 -51 -106q-33 -27 -94 -27h-94l71 398h91zM717 477q4 29 4 43q0 37 -14 51q-23 23 -74 23h-109l-63 -361h104q57 0 86 21 q31 23 43 92zM662 242q-31 -25 -97 -25h-125l72 393h121q59 0 86 -26q18 -20 18 -66q0 -12 -4 -45l-22 -131q-12 -69 -49 -100z" glyph-name="uni0181" horiz-adv-x="919" unicode="Ɓ"/><glyph d="M639 74q119 100 147 264l136 762q6 41 6 78q0 106 -60 182q-76 82 -217 82q-145 0 -245 -82q-119 -94 -148 -264l-20 -117h208l21 119q10 82 49 108q33 27 94 27q59 0 86 -27q18 -20 19 -69q0 -27 -2 -41l-135 -762q-16 -80 -54 -107q-33 -27 -92 -26q-63 0 -88 26 q-18 18 -18 62q0 23 6 49l30 174h-208l-31 -178q-8 -57 -8 -82q0 -111 61 -178q72 -82 217 -82q140 0 246 82zM164 61q-66 78 -66 195q0 20 8 82l35 190h242l-35 -194q-6 -43 -6 -47q0 -33 14 -47q20 -23 76 -23q51 0 84 23q33 25 45 98l135 760q2 12 2 39q0 43 -14 57 q-20 23 -74 23q-57 0 -86 -23q-33 -27 -41 -98l-24 -133h-242l25 137q29 172 151 272q109 86 258 86q143 0 230 -86q63 -82 63 -196q0 -37 -6 -80l-135 -762q-29 -170 -154 -273q-106 -86 -256 -86q-153 0 -229 86z" glyph-name="uni0186" horiz-adv-x="798" unicode="Ɔ"/><glyph d="M945 1562q54 44 120 40l-25 -129h-6q-10 0 -17 -6.5t-9 -16.5l-86 -487h-242l25 135q4 37 4 47q0 35 -15 49q-20 23 -76 23q-51 0 -83 -23q-35 -27 -43 -98l-136 -762q-4 -25 -4 -43q0 -37 15 -51q20 -23 73 -23q57 0 86 23q33 29 43 98l35 190h242l-35 -194 q-29 -174 -154 -273q-104 -86 -256 -86q-150 0 -229 86q-63 82 -63 197q0 37 6 80l135 762q29 170 153 272q109 86 256 86q63 0 117.5 -17.5t89.5 -49.5l13 63q12 64 66 108zM877 1356q-33 41 -89.5 63.5t-128.5 22.5q-141 0 -245 -82q-119 -100 -148 -264l-135 -762 q-6 -39 -6 -78q0 -106 59 -182q76 -82 217 -82t246 82q119 94 148 264l30 174h-209l-30 -178q-14 -80 -51 -107q-33 -27 -95 -26q-59 0 -86 26q-18 23 -18 66q0 12 4 45l135 760q10 78 51 108q33 27 92 27q63 0 89 -27q18 -20 18 -65q0 -16 -4 -45l-21 -117h209l82 473 q2 14 12.5 23.5t24.5 13.5l16 96q-53 -4 -97 -43t-52 -92z" glyph-name="uni0187" horiz-adv-x="798" unicode="Ƈ"/><glyph d="M945 1562q54 44 120 40l-25 -129h-6q-10 0 -17 -6.5t-9 -16.5l-86 -487h-242l25 135q4 37 4 47q0 35 -15 49q-20 23 -76 23q-51 0 -83 -23q-35 -27 -43 -98l-136 -762q-4 -25 -4 -43q0 -37 15 -51q20 -23 73 -23q57 0 86 23q33 29 43 98l35 190h242l-35 -194 q-29 -174 -154 -273q-104 -86 -256 -86q-150 0 -229 86q-63 82 -63 197q0 37 6 80l135 762q29 170 153 272q109 86 256 86q63 0 117.5 -17.5t89.5 -49.5l13 63q12 64 66 108zM877 1356q-33 41 -89.5 63.5t-128.5 22.5q-141 0 -245 -82q-119 -100 -148 -264l-135 -762 q-6 -39 -6 -78q0 -106 59 -182q76 -82 217 -82t246 82q119 94 148 264l30 174h-209l-30 -178q-14 -80 -51 -107q-33 -27 -95 -26q-59 0 -86 26q-18 23 -18 66q0 12 4 45l135 760q10 78 51 108q33 27 92 27q63 0 89 -27q18 -20 18 -65q0 -16 -4 -45l-21 -117h209l82 473 q2 14 12.5 23.5t24.5 13.5l16 96q-53 -4 -97 -43t-52 -92z" glyph-name="uni0188" horiz-adv-x="798" unicode="ƈ"/><glyph d="M979 1161q0 -25 -8 -82l-129 -737q-16 -86 -54 -152q-39 -70 -102 -116q-106 -82 -254 -82h-350l106 602h-82l44 242h81l107 606h346q152 0 229 -88q66 -78 66 -193zM684 1425h-334l-106 -606h-82l-35 -209h82l-107 -602h330q139 0 246 78q57 45 96 113q35 59 51 147 l129 737q6 41 7 78q0 111 -60 180q-74 84 -217 84zM729 1083q4 25 4 41q0 37 -14 54q-20 23 -74 22h-108l-64 -364h102l-43 -242h-102l-63 -361h104q57 0 86 21q31 25 43 92zM567 242q-31 -25 -96 -25h-125l72 393h102l35 209h-102l71 398h121q61 0 86 -27q18 -20 19 -66 q0 -12 -5 -45l-129 -737q-16 -75 -49 -100z" glyph-name="uni0189" horiz-adv-x="835" unicode="Ɖ"/><glyph d="M1073 1161q0 -25 -8 -82l-129 -737q-16 -86 -53 -152q-39 -70 -103 -116q-106 -82 -254 -82h-350l234 1321h-76q-10 0 -18.5 -7.5t-10.5 -21.5h-129q8 63 60.5 110.5t115.5 47.5h426q152 0 230 -88q65 -78 65 -193zM778 1425h-426q-53 0 -97 -35.5t-58 -89.5h96 q4 12 15 20.5t26 8.5h96l-233 -1321h329q139 0 246 78q57 45 96 113q35 59 52 147l129 737q6 41 6 78q0 111 -60 180q-74 84 -217 84zM823 1083q4 25 4 41q0 37 -14 54q-20 23 -74 22h-108l-170 -967h104q57 0 86 21q31 25 43 92zM662 242q-31 -25 -97 -25h-125l178 1000 h121q61 0 86 -27q18 -20 19 -66q0 -12 -4 -45l-129 -737q-16 -75 -49 -100z" glyph-name="uni018A" horiz-adv-x="929" unicode="Ɗ"/><glyph d="M260 1200l43 242h610l-256 -1450h-610l43 241h369l67 381h-254l43 242h254l60 344h-369zM281 1217h368l-67 -377h-254l-35 -209h254l-76 -414h-369l-34 -209h577l248 1417h-578z" glyph-name="uni018E" horiz-adv-x="733" unicode="Ǝ"/><glyph d="M526 1200l-59 -344h256l-43 -242h-256l-109 -616q-25 -139 -97.5 -187.5t-215.5 -46.5l25 130h4q23 0 28 22l269 1526h610l-43 -242h-369zM918 1425h-578l-264 -1513q-4 -12 -13.5 -22.5t-23.5 -12.5l-16 -96q129 2 191 47t85 174l113 629h256l34 209h-256l68 377h369z " glyph-name="uni0191" horiz-adv-x="704" unicode="Ƒ"/><glyph d="M945 1562q54 44 118 40l-25 -129h-6q-8 0 -15 -6.5t-9 -16.5l-86 -487h-242l25 135q4 37 4 47q0 35 -15 49q-20 23 -76 23q-51 0 -83 -23q-35 -27 -43 -98l-136 -762q-4 -25 -4 -43q0 -37 15 -51q20 -23 73 -23q57 0 86 23q33 29 43 98l45 258h-112l43 242h354l-88 -504 q-29 -174 -154 -273q-104 -86 -256 -86q-150 0 -229 86q-63 82 -63 197q0 37 6 80l135 762q29 170 153 272q109 86 256 86q129 0 207 -67l13 63q12 64 66 108zM877 1356q-72 86 -218 86q-141 0 -245 -82q-119 -100 -148 -264l-135 -762q-6 -39 -6 -78q0 -106 59 -182 q76 -82 217 -82t246 82q119 94 148 264l84 483h-322l-35 -209h113l-49 -278q-14 -80 -51 -107q-33 -27 -95 -26q-59 0 -86 26q-18 23 -18 66q0 12 4 45l135 760q10 78 51 108q33 27 92 27q63 0 89 -27q18 -20 18 -65q0 -16 -4 -45l-21 -117h209l82 473q2 14 11.5 23.5 t23.5 13.5l16 96q-53 -4 -96 -43t-51 -92z" glyph-name="uni0193" horiz-adv-x="808" unicode="Ɠ"/><glyph d="M549 801l-23 -129h-82l-120 -680h-242l121 680h-82l22 129h82l113 641h242l-113 -641h82zM528 784h-82l113 641h-209l-112 -641h-82l-15 -96h82l-121 -680h209l121 680h82z" glyph-name="uni0197" horiz-adv-x="409" unicode="Ɨ"/><glyph d="M1183 1407q36 -35 36 -88q0 -10 -5 -35h-133q6 10 6 14q0 14 -16 15h-80l-338 -561l158 -760h-258l-92 444l-96 -157l-52 -287h-241l256 1450h241l-96 -549l332 549h285q57 0 93 -35zM813 1425l-373 -614l109 614h-209l-248 -1417h209l47 275l121 198l96 -473h226 l-154 748l346 573h88q14 0 23.5 -8t9.5 -21h98q6 53 -26.5 89t-85.5 36h-277z" glyph-name="uni0198" horiz-adv-x="940" unicode="Ƙ"/><glyph d="M1183 1407q36 -35 36 -88q0 -10 -5 -35h-133q6 10 6 14q0 14 -16 15h-80l-338 -561l158 -760h-258l-92 444l-96 -157l-52 -287h-241l256 1450h241l-96 -549l332 549h285q57 0 93 -35zM813 1425l-373 -614l109 614h-209l-248 -1417h209l47 275l121 198l96 -473h226 l-154 748l346 573h88q14 0 23.5 -8t9.5 -21h98q6 53 -26.5 89t-85.5 36h-277z" glyph-name="uni0199" horiz-adv-x="940" unicode="ƙ"/><glyph d="M1036 1442l-256 -1450h-143l-207 700l-123 -694q-25 -139 -97.5 -187.5t-215.5 -46.5l24 130h5q23 0 28 22l268 1526h144l209 -699l123 699h241zM676 674l-225 751h-119l-264 -1513q-4 -12 -13.5 -22.5t-23.5 -12.5l-17 -96q129 2 191.5 47t85.5 174l135 760l223 -754 h119l248 1417h-209z" glyph-name="uni019D" horiz-adv-x="847" unicode="Ɲ"/><glyph d="M1159 1487q-6 -63 -59 -110.5t-119 -47.5h-63q37 -63 36 -151q0 -25 -8 -82l-135 -762q-29 -174 -154 -273q-104 -86 -256 -86q-154 0 -229 86q-66 78 -66 195q0 20 9 82l135 762q29 172 151 272q109 86 258 86h342q12 0 20.5 9.5t6.5 19.5h131zM1027 1450q-11 -8 -26 -8 h-342q-145 0 -245 -82q-119 -94 -148 -264l-135 -762q-8 -57 -8 -82q0 -111 61 -178q72 -82 217 -82q141 0 246 82q119 94 148 264l135 762q8 39 8 82q0 100 -51 164h94q53 0 99 35.5t59 88.5h-97q-4 -12 -15 -20zM705 1098q2 16 2 41q0 41 -15 57q-18 20 -74 21 q-53 0 -83 -23q-35 -27 -43 -98l-136 -762q-4 -25 -4 -43q0 -37 15 -51q20 -23 73 -23q55 0 84 23q31 25 45 98zM535 227q-33 -27 -95 -26q-61 0 -86 26q-18 23 -18 66q0 12 4 45l135 760q10 78 51 108q33 27 92 27q66 0 87 -27q20 -20 20 -65q0 -20 -4 -45l-135 -762 q-14 -80 -51 -107z" glyph-name="Ohorn" horiz-adv-x="847" unicode="Ơ"/><glyph d="M1159 1487q-6 -63 -59 -110.5t-119 -47.5h-63q37 -63 36 -151q0 -25 -8 -82l-135 -762q-29 -174 -154 -273q-104 -86 -256 -86q-154 0 -229 86q-66 78 -66 195q0 20 9 82l135 762q29 172 151 272q109 86 258 86h342q12 0 20.5 9.5t6.5 19.5h131zM1027 1450q-11 -8 -26 -8 h-342q-145 0 -245 -82q-119 -94 -148 -264l-135 -762q-8 -57 -8 -82q0 -111 61 -178q72 -82 217 -82q141 0 246 82q119 94 148 264l135 762q8 39 8 82q0 100 -51 164h94q53 0 99 35.5t59 88.5h-97q-4 -12 -15 -20zM705 1098q2 16 2 41q0 41 -15 57q-18 20 -74 21 q-53 0 -83 -23q-35 -27 -43 -98l-136 -762q-4 -25 -4 -43q0 -37 15 -51q20 -23 73 -23q55 0 84 23q31 25 45 98zM535 227q-33 -27 -95 -26q-61 0 -86 26q-18 23 -18 66q0 12 4 45l135 760q10 78 51 108q33 27 92 27q66 0 87 -27q20 -20 20 -65q0 -20 -4 -45l-135 -762 q-14 -80 -51 -107z" glyph-name="ohorn" horiz-adv-x="847" unicode="ơ"/><glyph d="M1073 1161q0 -25 -8 -82l-27 -155q-18 -98 -60 -166t-93 -107q-109 -86 -258 -86h-109l-100 -573h-242l234 1321h-76q-10 0 -18.5 -7.5t-10.5 -21.5h-129q8 63 60.5 110.5t115.5 47.5h426q152 0 230 -88q65 -78 65 -193zM778 1425h-426q-53 0 -97 -35.5t-58 -89.5h96 q4 12 15 20.5t26 8.5h96l-233 -1321h209l100 574h121q143 0 247 82q117 94 148 264l27 155q6 41 6 78q0 111 -60 180q-74 84 -217 84zM823 1083q4 25 4 41q0 37 -14 54q-20 23 -74 22h-108l-68 -393h105q53 0 84 22q33 25 45 99zM760 817q-33 -27 -92 -26h-125l75 426h121 q61 0 86 -27q18 -20 19 -66q0 -12 -4 -45l-27 -155q-12 -76 -53 -107z" glyph-name="uni01A4" horiz-adv-x="907" unicode="Ƥ"/><glyph d="M1073 1161q0 -25 -8 -82l-27 -155q-18 -98 -60 -166t-93 -107q-109 -86 -258 -86h-109l-100 -573h-242l234 1321h-76q-10 0 -18.5 -7.5t-10.5 -21.5h-129q8 63 60.5 110.5t115.5 47.5h426q152 0 230 -88q65 -78 65 -193zM778 1425h-426q-53 0 -97 -35.5t-58 -89.5h96 q4 12 15 20.5t26 8.5h96l-233 -1321h209l100 574h121q143 0 247 82q117 94 148 264l27 155q6 41 6 78q0 111 -60 180q-74 84 -217 84zM823 1083q4 25 4 41q0 37 -14 54q-20 23 -74 22h-108l-68 -393h105q53 0 84 22q33 25 45 99zM760 817q-33 -27 -92 -26h-125l75 426h121 q61 0 86 -27q18 -20 19 -66q0 -12 -4 -45l-27 -155q-12 -76 -53 -107z" glyph-name="uni01A5" horiz-adv-x="907" unicode="ƥ"/><glyph d="M1047 1442l-43 -242h-230l-213 -1208h-242l213 1208h-219q-10 0 -18 -9t-6 -20h-131q23 143 82 207t198 64h609zM255 1371q-54 -54 -77 -183h96q4 12 14.5 20.5t24.5 8.5h240l-213 -1209h209l213 1209h229l35 208h-588q-129 0 -183 -54z" glyph-name="uni01AC" horiz-adv-x="802" unicode="Ƭ"/><glyph d="M1047 1442l-43 -242h-230l-213 -1208h-242l213 1208h-219q-10 0 -18 -9t-6 -20h-131q23 143 82 207t198 64h609zM255 1371q-54 -54 -77 -183h96q4 12 14.5 20.5t24.5 8.5h240l-213 -1209h209l213 1209h229l35 208h-588q-129 0 -183 -54z" glyph-name="uni01AD" horiz-adv-x="802" unicode="ƭ"/><glyph d="M483 0v-4q0 -10 8.5 -14.5t18.5 0.5l-25 -132q-123 -2 -180 33t-57 129q0 18 8 76l197 1112h-230l43 242h701l-43 -242h-230zM911 1217l35 208h-667l-35 -208h229l-201 -1133q-8 -57 -8 -76q0 -78 47 -108.5t162 -32.5l16 98q-10 4 -17 13.5t-5 23.5l215 1215h229z" glyph-name="uni01AE" horiz-adv-x="722" unicode="Ʈ"/><glyph d="M1247 1470q-8 -63 -60 -110t-116 -47h-80l-172 -979q-29 -170 -153 -273q-106 -86 -256 -86q-154 0 -230 86q-66 78 -65 195q0 20 8 82l194 1104h242l-194 -1108q-6 -43 -7 -47q0 -33 15 -47q20 -23 76 -23q51 0 83 23q33 25 46 98l194 1104h318q10 0 18 7t10 21h129z M1115 1433.5q-11 -8.5 -25 -8.5h-306l-190 -1091q-16 -80 -53 -107q-33 -27 -92 -26q-63 0 -89 26q-18 18 -18 62q0 23 6 49l191 1087h-209l-191 -1091q-8 -57 -8 -82q0 -111 62 -178q72 -82 217 -82q139 0 245 82q119 100 148 264l176 991h92q53 0 97 36t59 89h-97 q-4 -12 -15 -20.5z" glyph-name="Uhorn" horiz-adv-x="937" unicode="Ư"/><glyph d="M1247 1470q-8 -63 -60 -110t-116 -47h-80l-172 -979q-29 -170 -153 -273q-106 -86 -256 -86q-154 0 -230 86q-66 78 -65 195q0 20 8 82l194 1104h242l-194 -1108q-6 -43 -7 -47q0 -33 15 -47q20 -23 76 -23q51 0 83 23q33 25 46 98l194 1104h318q10 0 18 7t10 21h129z M1115 1433.5q-11 -8.5 -25 -8.5h-306l-190 -1091q-16 -80 -53 -107q-33 -27 -92 -26q-63 0 -89 26q-18 18 -18 62q0 23 6 49l191 1087h-209l-191 -1091q-8 -57 -8 -82q0 -111 62 -178q72 -82 217 -82q139 0 245 82q119 100 148 264l176 991h92q53 0 97 36t59 89h-97 q-4 -12 -15 -20.5z" glyph-name="uhorn" horiz-adv-x="937" unicode="ư"/><glyph d="M1189 1407q36 -35 36 -88q0 -10 -4 -35h-131q4 6 4 14q0 14 -15 15h-80l-389 -811l-90 -510h-244l91 512l-115 938h256l57 -494l236 494h297q55 0 91 -35zM813 1425l-256 -534l-65 534h-220l111 -921l-86 -496h211l86 498l393 823h92q14 0 22.5 -8t8.5 -21h98 q6 53 -25.5 89t-84.5 36h-285z" glyph-name="uni01B3" horiz-adv-x="946" unicode="Ƴ"/><glyph d="M1189 1407q36 -35 36 -88q0 -10 -4 -35h-131q4 6 4 14q0 14 -15 15h-80l-389 -811l-90 -510h-244l91 512l-115 938h256l57 -494l236 494h297q55 0 91 -35zM813 1425l-256 -534l-65 534h-220l111 -921l-86 -496h211l86 498l393 823h92q14 0 22.5 -8t8.5 -21h98 q6 53 -25.5 89t-84.5 36h-285z" glyph-name="uni01B4" horiz-adv-x="946" unicode="ƴ"/><glyph d="M588 -8v227h-244l-82 -227h-248l545 1450h240l35 -1450h-246zM604 8h213l-35 1417h-211l-532 -1417h211l82 228h272v-228zM428 461h160v459zM403 444l201 570v-570h-201zM973 1743l-164 -242h-236l-81 242h131l90 -109l129 109h131zM940 1726h-94l-133 -116l-99 116h-98 l70 -208h215z" glyph-name="uni01CD" unicode="Ǎ"/><glyph d="M588 -8v227h-244l-82 -227h-248l545 1450h240l35 -1450h-246zM604 8h213l-35 1417h-211l-532 -1417h211l82 228h272v-228zM428 461h160v459zM403 444l201 570v-570h-201zM973 1743l-164 -242h-236l-81 242h131l90 -109l129 109h131zM940 1726h-94l-133 -116l-99 116h-98 l70 -208h215z" glyph-name="uni01CE" unicode="ǎ"/><glyph d="M301 8l248 1417h-209l-248 -1417h209zM313 -8h-241l256 1450h241zM741 1743l-163 -242h-236l-82 242h131l90 -109l129 109h131zM709 1726h-95l-133 -116l-98 116h-98l69 -208h215z" glyph-name="uni01CF" horiz-adv-x="387" unicode="Ǐ"/><glyph d="M301 8l248 1417h-209l-248 -1417h209zM313 -8h-241l256 1450h241zM741 1743l-163 -242h-236l-82 242h131l90 -109l129 109h131zM709 1726h-95l-133 -116l-98 116h-98l69 -208h215z" glyph-name="uni01D0" horiz-adv-x="387" unicode="ǐ"/><glyph d="M647 74q119 94 148 264l135 762q8 57 8 82q0 111 -61 178q-74 82 -218 82q-145 0 -245 -82q-119 -94 -148 -264l-135 -762q-8 -57 -8 -82q0 -111 61 -178q72 -82 217 -82q142 0 246 82zM172 61q-66 78 -66 195q0 20 9 82l135 762q29 172 151 272q109 86 258 86 q147 0 230 -86q66 -78 65 -194q0 -20 -8 -82l-135 -762q-29 -174 -154 -273q-104 -86 -256 -86q-153 0 -229 86zM705 1206q20 -20 20 -65q0 -20 -4 -45l-135 -762q-14 -80 -51 -107q-33 -27 -95 -26q-61 0 -86 26q-18 23 -18 66q0 12 4 45l135 760q10 78 51 108q33 27 92 27 q67 0 87 -27zM535 1194q-35 -27 -43 -98l-136 -762q-4 -25 -4 -43q0 -37 15 -51q20 -23 73 -23q55 0 84 23q31 25 45 98l136 760q2 16 2 41q0 41 -15 57q-18 20 -74 21q-52 0 -83 -23zM471 1743h129l90 -109l129 109h133l-166 -242h-235zM496 1726l67 -208h215l142 208h-97 l-133 -116l-98 116h-96z" glyph-name="uni01D1" horiz-adv-x="806" unicode="Ǒ"/><glyph d="M647 74q119 94 148 264l135 762q8 57 8 82q0 111 -61 178q-74 82 -218 82q-145 0 -245 -82q-119 -94 -148 -264l-135 -762q-8 -57 -8 -82q0 -111 61 -178q72 -82 217 -82q142 0 246 82zM172 61q-66 78 -66 195q0 20 9 82l135 762q29 172 151 272q109 86 258 86 q147 0 230 -86q66 -78 65 -194q0 -20 -8 -82l-135 -762q-29 -174 -154 -273q-104 -86 -256 -86q-153 0 -229 86zM705 1206q20 -20 20 -65q0 -20 -4 -45l-135 -762q-14 -80 -51 -107q-33 -27 -95 -26q-61 0 -86 26q-18 23 -18 66q0 12 4 45l135 760q10 78 51 108q33 27 92 27 q67 0 87 -27zM535 1194q-35 -27 -43 -98l-136 -762q-4 -25 -4 -43q0 -37 15 -51q20 -23 73 -23q55 0 84 23q31 25 45 98l136 760q2 16 2 41q0 41 -15 57q-18 20 -74 21q-52 0 -83 -23zM471 1743h129l90 -109l129 109h133l-166 -242h-235zM496 1726l67 -208h215l142 208h-97 l-133 -116l-98 116h-96z" glyph-name="uni01D2" horiz-adv-x="806" unicode="ǒ"/><glyph d="M655 74q119 100 148 264l190 1087h-209l-190 -1091q-16 -80 -53 -107q-33 -27 -92 -26q-63 0 -89 26q-18 18 -18 62q0 23 6 49l191 1087h-209l-191 -1091q-8 -57 -8 -82q0 -111 62 -178q72 -82 217 -82q139 0 245 82zM180 61q-66 78 -65 195q0 20 8 82l194 1104h242 l-194 -1108q-6 -43 -7 -47q0 -33 15 -47q20 -23 76 -23q51 0 83 23q33 25 46 98l194 1104h242l-195 -1108q-29 -170 -153 -273q-106 -86 -256 -86q-154 0 -230 86zM958 1743l-163 -242h-236l-82 242h131l90 -109l129 109h131zM926 1726h-95l-133 -116l-98 116h-98l69 -208 h215z" glyph-name="uni01D3" horiz-adv-x="823" unicode="Ǔ"/><glyph d="M655 74q119 100 148 264l190 1087h-209l-190 -1091q-16 -80 -53 -107q-33 -27 -92 -26q-63 0 -89 26q-18 18 -18 62q0 23 6 49l191 1087h-209l-191 -1091q-8 -57 -8 -82q0 -111 62 -178q72 -82 217 -82q139 0 245 82zM180 61q-66 78 -65 195q0 20 8 82l194 1104h242 l-194 -1108q-6 -43 -7 -47q0 -33 15 -47q20 -23 76 -23q51 0 83 23q33 25 46 98l194 1104h242l-195 -1108q-29 -170 -153 -273q-106 -86 -256 -86q-154 0 -230 86zM958 1743l-163 -242h-236l-82 242h131l90 -109l129 109h131zM926 1726h-95l-133 -116l-98 116h-98l69 -208 h215z" glyph-name="uni01D4" horiz-adv-x="823" unicode="ǔ"/><glyph d="M655 74q119 100 148 264l190 1087h-209l-190 -1091q-16 -80 -53 -107q-33 -27 -92 -26q-63 0 -89 26q-18 18 -18 62q0 23 6 49l191 1087h-209l-191 -1091q-8 -57 -8 -82q0 -111 62 -178q72 -82 217 -82q139 0 245 82zM180 61q-66 78 -65 195q0 20 8 82l194 1104h242 l-194 -1108q-6 -43 -7 -47q0 -33 15 -47q20 -23 76 -23q51 0 83 23q33 25 46 98l194 1104h242l-195 -1108q-29 -170 -153 -273q-106 -86 -256 -86q-154 0 -230 86zM466.5 1537.5q22.5 -21.5 55.5 -21.5q43 0 77 33.5t34 78.5q0 33 -21.5 53.5t-54.5 20.5q-43 0 -78 -32 t-35 -79q0 -32 22.5 -53.5zM468 1680q40 38 89 38q41 0 66.5 -25.5t25.5 -66.5q0 -51 -39 -89t-88 -38q-41 0 -67.5 26.5t-26.5 67.5q0 49 40 87zM778.5 1537.5q22.5 -21.5 55.5 -21.5q43 0 76.5 33.5t33.5 78.5q0 33 -21.5 53.5t-54.5 20.5q-43 0 -77.5 -32t-34.5 -79 q0 -32 22.5 -53.5zM779 1680q40 38 89 38q41 0 67 -25.5t26 -66.5q0 -51 -39 -89t-88 -38q-41 0 -68 26.5t-27 67.5q0 49 40 87zM946 1786l17 96h-439l-16 -96h438zM958 1769h-471l25 129h471z" glyph-name="uni01D5" horiz-adv-x="823" unicode="Ǖ"/><glyph d="M655 74q119 100 148 264l190 1087h-209l-190 -1091q-16 -80 -53 -107q-33 -27 -92 -26q-63 0 -89 26q-18 18 -18 62q0 23 6 49l191 1087h-209l-191 -1091q-8 -57 -8 -82q0 -111 62 -178q72 -82 217 -82q139 0 245 82zM180 61q-66 78 -65 195q0 20 8 82l194 1104h242 l-194 -1108q-6 -43 -7 -47q0 -33 15 -47q20 -23 76 -23q51 0 83 23q33 25 46 98l194 1104h242l-195 -1108q-29 -170 -153 -273q-106 -86 -256 -86q-154 0 -230 86zM466.5 1537.5q22.5 -21.5 55.5 -21.5q43 0 77 33.5t34 78.5q0 33 -21.5 53.5t-54.5 20.5q-43 0 -78 -32 t-35 -79q0 -32 22.5 -53.5zM468 1680q40 38 89 38q41 0 66.5 -25.5t25.5 -66.5q0 -51 -39 -89t-88 -38q-41 0 -67.5 26.5t-26.5 67.5q0 49 40 87zM778.5 1537.5q22.5 -21.5 55.5 -21.5q43 0 76.5 33.5t33.5 78.5q0 33 -21.5 53.5t-54.5 20.5q-43 0 -77.5 -32t-34.5 -79 q0 -32 22.5 -53.5zM779 1680q40 38 89 38q41 0 67 -25.5t26 -66.5q0 -51 -39 -89t-88 -38q-41 0 -68 26.5t-27 67.5q0 49 40 87zM946 1786l17 96h-439l-16 -96h438zM958 1769h-471l25 129h471z" glyph-name="uni01D6" horiz-adv-x="823" unicode="ǖ"/><glyph d="M758 1786l243 209h-198l-139 -209h94zM762 1769h-131l164 242h252zM655 74q119 100 148 264l190 1087h-209l-190 -1091q-16 -80 -53 -107q-33 -27 -92 -26q-63 0 -89 26q-18 18 -18 62q0 23 6 49l191 1087h-209l-191 -1091q-8 -57 -8 -82q0 -111 62 -178q72 -82 217 -82 q139 0 245 82zM180 61q-66 78 -65 195q0 20 8 82l194 1104h242l-194 -1108q-6 -43 -7 -47q0 -33 15 -47q20 -23 76 -23q51 0 83 23q33 25 46 98l194 1104h242l-195 -1108q-29 -170 -153 -273q-106 -86 -256 -86q-154 0 -230 86zM446.5 1537.5q22.5 -21.5 55.5 -21.5 q43 0 76.5 33.5t33.5 78.5q0 33 -21.5 53.5t-53.5 20.5q-43 0 -78 -32t-35 -79q0 -32 22.5 -53.5zM447.5 1680q39.5 38 89.5 38q41 0 66.5 -25.5t25.5 -66.5q0 -51 -39 -89t-88 -38q-41 0 -67.5 26.5t-26.5 67.5q0 49 39.5 87zM757.5 1537.5q22.5 -21.5 55.5 -21.5 q43 0 77 33.5t34 78.5q0 33 -21.5 53.5t-54.5 20.5q-43 0 -78 -32t-35 -79q0 -32 22.5 -53.5zM759 1680q40 38 89 38q41 0 66.5 -25.5t25.5 -66.5q0 -51 -39 -89t-88 -38q-41 0 -67.5 26.5t-26.5 67.5q0 49 40 87z" glyph-name="uni01D7" horiz-adv-x="823" unicode="Ǘ"/><glyph d="M758 1786l243 209h-198l-139 -209h94zM762 1769h-131l164 242h252zM655 74q119 100 148 264l190 1087h-209l-190 -1091q-16 -80 -53 -107q-33 -27 -92 -26q-63 0 -89 26q-18 18 -18 62q0 23 6 49l191 1087h-209l-191 -1091q-8 -57 -8 -82q0 -111 62 -178q72 -82 217 -82 q139 0 245 82zM180 61q-66 78 -65 195q0 20 8 82l194 1104h242l-194 -1108q-6 -43 -7 -47q0 -33 15 -47q20 -23 76 -23q51 0 83 23q33 25 46 98l194 1104h242l-195 -1108q-29 -170 -153 -273q-106 -86 -256 -86q-154 0 -230 86zM446.5 1537.5q22.5 -21.5 55.5 -21.5 q43 0 76.5 33.5t33.5 78.5q0 33 -21.5 53.5t-53.5 20.5q-43 0 -78 -32t-35 -79q0 -32 22.5 -53.5zM447.5 1680q39.5 38 89.5 38q41 0 66.5 -25.5t25.5 -66.5q0 -51 -39 -89t-88 -38q-41 0 -67.5 26.5t-26.5 67.5q0 49 39.5 87zM757.5 1537.5q22.5 -21.5 55.5 -21.5 q43 0 77 33.5t34 78.5q0 33 -21.5 53.5t-54.5 20.5q-43 0 -78 -32t-35 -79q0 -32 22.5 -53.5zM759 1680q40 38 89 38q41 0 66.5 -25.5t25.5 -66.5q0 -51 -39 -89t-88 -38q-41 0 -67.5 26.5t-26.5 67.5q0 49 40 87z" glyph-name="uni01D8" horiz-adv-x="823" unicode="ǘ"/><glyph d="M655 74q119 100 148 264l190 1087h-209l-190 -1091q-16 -80 -53 -107q-33 -27 -92 -26q-63 0 -89 26q-18 18 -18 62q0 23 6 49l191 1087h-209l-191 -1091q-8 -57 -8 -82q0 -111 62 -178q72 -82 217 -82q139 0 245 82zM180 61q-66 78 -65 195q0 20 8 82l194 1104h242 l-194 -1108q-6 -43 -7 -47q0 -33 15 -47q20 -23 76 -23q51 0 83 23q33 25 46 98l194 1104h242l-195 -1108q-29 -170 -153 -273q-106 -86 -256 -86q-154 0 -230 86zM446.5 1537.5q22.5 -21.5 55.5 -21.5q43 0 76.5 33.5t33.5 78.5q0 33 -21.5 53.5t-53.5 20.5q-43 0 -78 -32 t-35 -79q0 -32 22.5 -53.5zM447.5 1680q39.5 38 89.5 38q41 0 66.5 -25.5t25.5 -66.5q0 -51 -39 -89t-88 -38q-41 0 -67.5 26.5t-26.5 67.5q0 49 39.5 87zM757.5 1537.5q22.5 -21.5 55.5 -21.5q43 0 77 33.5t34 78.5q0 33 -21.5 53.5t-54.5 20.5q-43 0 -78 -32t-35 -79 q0 -32 22.5 -53.5zM759 1680q40 38 89 38q41 0 66.5 -25.5t25.5 -66.5q0 -51 -39 -89t-88 -38q-41 0 -67.5 26.5t-26.5 67.5q0 49 40 87zM1006 2011l-164 -242h-236l-82 242h131l90 -108l129 108h132zM973 1995h-94l-134 -117l-98 117h-98l69 -209h216z" glyph-name="uni01D9" horiz-adv-x="823" unicode="Ǚ"/><glyph d="M655 74q119 100 148 264l190 1087h-209l-190 -1091q-16 -80 -53 -107q-33 -27 -92 -26q-63 0 -89 26q-18 18 -18 62q0 23 6 49l191 1087h-209l-191 -1091q-8 -57 -8 -82q0 -111 62 -178q72 -82 217 -82q139 0 245 82zM180 61q-66 78 -65 195q0 20 8 82l194 1104h242 l-194 -1108q-6 -43 -7 -47q0 -33 15 -47q20 -23 76 -23q51 0 83 23q33 25 46 98l194 1104h242l-195 -1108q-29 -170 -153 -273q-106 -86 -256 -86q-154 0 -230 86zM446.5 1537.5q22.5 -21.5 55.5 -21.5q43 0 76.5 33.5t33.5 78.5q0 33 -21.5 53.5t-53.5 20.5q-43 0 -78 -32 t-35 -79q0 -32 22.5 -53.5zM447.5 1680q39.5 38 89.5 38q41 0 66.5 -25.5t25.5 -66.5q0 -51 -39 -89t-88 -38q-41 0 -67.5 26.5t-26.5 67.5q0 49 39.5 87zM757.5 1537.5q22.5 -21.5 55.5 -21.5q43 0 77 33.5t34 78.5q0 33 -21.5 53.5t-54.5 20.5q-43 0 -78 -32t-35 -79 q0 -32 22.5 -53.5zM759 1680q40 38 89 38q41 0 66.5 -25.5t25.5 -66.5q0 -51 -39 -89t-88 -38q-41 0 -67.5 26.5t-26.5 67.5q0 49 40 87zM1006 2011l-164 -242h-236l-82 242h131l90 -108l129 108h132zM973 1995h-94l-134 -117l-98 117h-98l69 -209h216z" glyph-name="uni01DA" horiz-adv-x="823" unicode="ǚ"/><glyph d="M694 1786h97l-68 209h-201zM686 1769l-201 242h250l80 -242h-129zM655 74q119 94 148 264l190 1087h-209l-190 -1091q-14 -80 -51 -107q-33 -27 -94 -26q-59 0 -87 26q-18 23 -18 66q0 12 4 45l191 1087h-209l-191 -1091q-6 -39 -6 -78q0 -106 60 -182q76 -82 217 -82 t245 82zM180 61q-63 82 -63 197q0 37 6 80l194 1104h242l-194 -1108q-4 -25 -5 -43q0 -37 15 -51q20 -23 74 -23q57 0 86 23q33 29 43 98l194 1104h242l-195 -1108q-29 -174 -153 -273q-104 -86 -256 -86q-150 0 -230 86zM943.5 1681.5q-21.5 20.5 -54.5 20.5q-43 0 -78 -32 t-35 -79q0 -33 22.5 -54t55.5 -21q43 0 77 33.5t34 78.5q0 33 -21.5 53.5zM942 1537q-39 -38 -88 -38q-41 0 -67.5 26.5t-26.5 67.5q0 49 40 87t89 38q41 0 66.5 -25.5t25.5 -66.5q0 -51 -39 -89zM631.5 1681.5q-21.5 20.5 -53.5 20.5q-43 0 -78 -32t-35 -79q0 -33 22.5 -54 t55.5 -21q43 0 76.5 33.5t33.5 78.5q0 33 -21.5 53.5zM631 1537q-39 -38 -88 -38q-41 0 -67.5 26.5t-26.5 67.5q0 49 39.5 87t89.5 38q41 0 66.5 -25.5t25.5 -66.5q0 -51 -39 -89z" glyph-name="uni01DB" horiz-adv-x="823" unicode="Ǜ"/><glyph d="M694 1786h97l-68 209h-201zM686 1769l-201 242h250l80 -242h-129zM655 74q119 94 148 264l190 1087h-209l-190 -1091q-14 -80 -51 -107q-33 -27 -94 -26q-59 0 -87 26q-18 23 -18 66q0 12 4 45l191 1087h-209l-191 -1091q-6 -39 -6 -78q0 -106 60 -182q76 -82 217 -82 t245 82zM180 61q-63 82 -63 197q0 37 6 80l194 1104h242l-194 -1108q-4 -25 -5 -43q0 -37 15 -51q20 -23 74 -23q57 0 86 23q33 29 43 98l194 1104h242l-195 -1108q-29 -174 -153 -273q-104 -86 -256 -86q-150 0 -230 86zM943.5 1681.5q-21.5 20.5 -54.5 20.5q-43 0 -78 -32 t-35 -79q0 -33 22.5 -54t55.5 -21q43 0 77 33.5t34 78.5q0 33 -21.5 53.5zM942 1537q-39 -38 -88 -38q-41 0 -67.5 26.5t-26.5 67.5q0 49 40 87t89 38q41 0 66.5 -25.5t25.5 -66.5q0 -51 -39 -89zM631.5 1681.5q-21.5 20.5 -53.5 20.5q-43 0 -78 -32t-35 -79q0 -33 22.5 -54 t55.5 -21q43 0 76.5 33.5t33.5 78.5q0 33 -21.5 53.5zM631 1537q-39 -38 -88 -38q-41 0 -67.5 26.5t-26.5 67.5q0 49 39.5 87t89.5 38q41 0 66.5 -25.5t25.5 -66.5q0 -51 -39 -89z" glyph-name="uni01DC" horiz-adv-x="823" unicode="ǜ"/><glyph d="M260 1200l43 242h610l-256 -1450h-610l43 241h369l67 381h-254l43 242h254l60 344h-369zM281 1217h368l-67 -377h-254l-35 -209h254l-76 -414h-369l-34 -209h577l248 1417h-578z" glyph-name="uni01DD" horiz-adv-x="733" unicode="ǝ"/><glyph d="M588 -8v227h-244l-82 -227h-248l545 1450h240l35 -1450h-246zM604 8h213l-35 1417h-211l-532 -1417h211l82 228h272v-228zM428 461h160v459zM403 444l201 570v-570h-201zM481.5 1537.5q22.5 -21.5 55.5 -21.5q43 0 76.5 33.5t33.5 78.5q0 33 -21.5 53.5t-54.5 20.5 q-43 0 -77.5 -32t-34.5 -79q0 -32 22.5 -53.5zM482 1680q40 38 89 38q41 0 67 -25.5t26 -66.5q0 -51 -39 -89t-88 -38q-41 0 -68 26.5t-27 67.5q0 49 40 87zM792.5 1537.5q22.5 -21.5 55.5 -21.5q43 0 76.5 33.5t33.5 78.5q0 33 -21.5 53.5t-53.5 20.5q-43 0 -78 -32 t-35 -79q0 -32 22.5 -53.5zM794 1680q40 38 89 38q41 0 66.5 -25.5t25.5 -66.5q0 -51 -39 -89t-88 -38q-41 0 -67.5 26.5t-26.5 67.5q0 49 40 87zM961 1786l16 96h-438l-17 -96h439zM973 1769h-471l24 129h471z" glyph-name="uni01DE" unicode="Ǟ"/><glyph d="M588 -8v227h-244l-82 -227h-248l545 1450h240l35 -1450h-246zM604 8h213l-35 1417h-211l-532 -1417h211l82 228h272v-228zM428 461h160v459zM403 444l201 570v-570h-201zM481.5 1537.5q22.5 -21.5 55.5 -21.5q43 0 76.5 33.5t33.5 78.5q0 33 -21.5 53.5t-54.5 20.5 q-43 0 -77.5 -32t-34.5 -79q0 -32 22.5 -53.5zM482 1680q40 38 89 38q41 0 67 -25.5t26 -66.5q0 -51 -39 -89t-88 -38q-41 0 -68 26.5t-27 67.5q0 49 40 87zM792.5 1537.5q22.5 -21.5 55.5 -21.5q43 0 76.5 33.5t33.5 78.5q0 33 -21.5 53.5t-53.5 20.5q-43 0 -78 -32 t-35 -79q0 -32 22.5 -53.5zM794 1680q40 38 89 38q41 0 66.5 -25.5t25.5 -66.5q0 -51 -39 -89t-88 -38q-41 0 -67.5 26.5t-26.5 67.5q0 49 40 87zM961 1786l16 96h-438l-17 -96h439zM973 1769h-471l24 129h471z" glyph-name="uni01DF" unicode="ǟ"/><glyph d="M950 1743l-164 -242h-235l-82 242h131l90 -109l129 109h131zM918 1726h-95l-133 -116l-98 116h-98l69 -208h215zM647 74q119 94 148 264l84 483h-322l-35 -209h113l-49 -278q-14 -80 -51 -107q-33 -27 -95 -26q-59 0 -86 26q-18 23 -18 66q0 12 4 45l135 760 q10 78 51 108q33 27 92 27q63 0 89 -27q18 -20 18 -65q0 -16 -4 -45l-21 -117h209l21 121q8 57 8 82q0 111 -61 178q-74 82 -218 82q-141 0 -245 -82q-119 -100 -148 -264l-135 -762q-6 -39 -6 -78q0 -106 59 -182q76 -82 217 -82q142 0 246 82zM172 61q-63 82 -63 197 q0 37 6 80l135 762q29 170 153 272q109 86 256 86t230 -86q66 -78 65 -194q0 -20 -8 -82l-24 -133h-242l25 135q4 37 4 47q0 35 -15 49q-20 23 -76 23q-51 0 -83 -23q-35 -27 -43 -98l-136 -762q-4 -25 -4 -43q0 -37 15 -51q20 -23 73 -23q57 0 86 23q33 29 43 98l45 258 h-112l43 242h354l-88 -504q-29 -174 -154 -273q-104 -86 -256 -86q-149 0 -229 86z" glyph-name="Gcaron" horiz-adv-x="808" unicode="Ǧ"/><glyph d="M950 1743l-164 -242h-235l-82 242h131l90 -109l129 109h131zM918 1726h-95l-133 -116l-98 116h-98l69 -208h215zM647 74q119 94 148 264l84 483h-322l-35 -209h113l-49 -278q-14 -80 -51 -107q-33 -27 -95 -26q-59 0 -86 26q-18 23 -18 66q0 12 4 45l135 760 q10 78 51 108q33 27 92 27q63 0 89 -27q18 -20 18 -65q0 -16 -4 -45l-21 -117h209l21 121q8 57 8 82q0 111 -61 178q-74 82 -218 82q-141 0 -245 -82q-119 -100 -148 -264l-135 -762q-6 -39 -6 -78q0 -106 59 -182q76 -82 217 -82q142 0 246 82zM172 61q-63 82 -63 197 q0 37 6 80l135 762q29 170 153 272q109 86 256 86t230 -86q66 -78 65 -194q0 -20 -8 -82l-24 -133h-242l25 135q4 37 4 47q0 35 -15 49q-20 23 -76 23q-51 0 -83 -23q-35 -27 -43 -98l-136 -762q-4 -25 -4 -43q0 -37 15 -51q20 -23 73 -23q57 0 86 23q33 29 43 98l45 258 h-112l43 242h354l-88 -504q-29 -174 -154 -273q-104 -86 -256 -86q-149 0 -229 86z" glyph-name="gcaron" horiz-adv-x="808" unicode="ǧ"/><glyph d="M944 1255q8 -31 8 -73q0 -45 -8 -88l-133 -762q-33 -178 -154 -273q-109 -86 -258 -86q-145 0 -219 78l-71 -108l-109 53l115 180q-8 53 -9 80q0 27 9 80l133 762q31 172 153 272q109 86 258 86q143 0 220 -76l71 109l109 -51zM954 1468l-73 -116q-68 88 -222 88 q-143 0 -247 -82q-117 -98 -148 -264l-133 -762q-8 -39 -8 -80q0 -31 8 -80l-106 -168l79 -41l74 117q72 -90 221 -90q143 0 248 82q117 92 148 264l133 762q8 41 8 84q0 45 -8 78l106 170zM410 641l295 461q4 25 4 35q0 37 -17 57q-18 20 -74 20q-53 0 -83 -22 q-33 -25 -46 -98zM526 1204q33 27 92 27q66 0 87 -27q20 -25 20 -69q0 -10 -4 -39l-340 -533l92 535q16 79 53 106zM649 791l-293 -461q-4 -29 -4 -43q0 -35 15 -49q20 -23 73 -23q55 0 84 23q31 25 45 98zM535 225q-33 -27 -95 -26q-61 0 -86 26q-18 23 -18 66q0 14 4 43 l338 534l-92 -536q-14 -80 -51 -107z" glyph-name="Oslashacute" horiz-adv-x="806" unicode="Ǿ"/><glyph d="M944 1255q8 -31 8 -73q0 -45 -8 -88l-133 -762q-33 -178 -154 -273q-109 -86 -258 -86q-145 0 -219 78l-71 -108l-109 53l115 180q-8 53 -9 80q0 27 9 80l133 762q31 172 153 272q109 86 258 86q143 0 220 -76l71 109l109 -51zM954 1468l-73 -116q-68 88 -222 88 q-143 0 -247 -82q-117 -98 -148 -264l-133 -762q-8 -39 -8 -80q0 -31 8 -80l-106 -168l79 -41l74 117q72 -90 221 -90q143 0 248 82q117 92 148 264l133 762q8 41 8 84q0 45 -8 78l106 170zM410 641l295 461q4 25 4 35q0 37 -17 57q-18 20 -74 20q-53 0 -83 -22 q-33 -25 -46 -98zM526 1204q33 27 92 27q66 0 87 -27q20 -25 20 -69q0 -10 -4 -39l-340 -533l92 535q16 79 53 106zM649 791l-293 -461q-4 -29 -4 -43q0 -35 15 -49q20 -23 73 -23q55 0 84 23q31 25 45 98zM535 225q-33 -27 -95 -26q-61 0 -86 26q-18 23 -18 66q0 14 4 43 l338 534l-92 -536q-14 -80 -51 -107z" glyph-name="oslashacute" horiz-adv-x="806" unicode="ǿ"/><glyph d="M633 74q119 94 147 264l17 90q6 37 6 74q0 145 -98 250q-29 33 -77 63.5t-57 34.5q-45 27 -67 45q-53 53 -53 127q0 14 4 43l6 33q10 78 51 108q33 27 92 27q66 0 86 -27q20 -20 21 -65q0 -20 -4 -45l-21 -115h209l20 119q8 57 9 82q0 111 -62 178q-74 82 -217 82 q-145 0 -246 -82q-119 -94 -147 -264l-6 -35q-6 -39 -6 -76q0 -147 96 -246q20 -23 57 -47t70 -45q55 -31 76 -51q51 -57 51 -135q0 -25 -2 -37l-17 -90q-14 -80 -51 -107q-33 -27 -94 -26q-61 0 -86 26q-18 23 -18 66q0 12 4 45l30 176h-209l-30 -180q-8 -57 -8 -82 q0 -111 61 -178q72 -82 217 -82q142 0 246 82zM158 61q-66 78 -66 195q0 20 8 82l35 192h242l-35 -196q-4 -25 -4 -43q0 -37 14 -51q20 -23 74 -23q55 0 84 23q31 25 45 98l16 90q4 25 4 37q0 68 -49 119q-14 16 -80 55q-92 57 -122 88q-102 106 -103 256q0 43 8 82l7 35 q29 172 151 272q109 86 258 86q147 0 229 -86q66 -78 66 -194q0 -20 -8 -82l-25 -131h-241l24 133q2 16 2 41q0 41 -14 57q-18 20 -74 21q-53 0 -84 -23q-35 -27 -43 -98l-6 -35q-4 -29 -4 -41q0 -66 49 -113q10 -12 38 -29.5t36 -21.5q92 -57 127 -92q102 -113 102 -262 q0 -37 -6 -78l-16 -90q-29 -174 -154 -273q-104 -86 -256 -86q-153 0 -229 86zM424 -260q-29 -45 -90 -115h-92q25 41 39 70q10 18 10 31q0 12 -8 18v0q-14 16 -23.5 33.5t-9.5 42.5q0 49 40 88t89 39q41 0 67.5 -25.5t26.5 -66.5q0 -12 -2 -19q-6 -47 -47 -96zM457 -143 q0 31 -22.5 52t-55.5 21q-43 0 -78 -33.5t-35 -78.5q0 -20 7.5 -32.5t21.5 -29.5v0q12 -12 12 -28t-12 -41q-8 -12 -25 -45h56q49 55 86 106t43 92q2 7 2 17z" glyph-name="Scommaaccent" horiz-adv-x="778" unicode="Ș"/><glyph d="M633 74q119 94 147 264l17 90q6 37 6 74q0 145 -98 250q-29 33 -77 63.5t-57 34.5q-45 27 -67 45q-53 53 -53 127q0 14 4 43l6 33q10 78 51 108q33 27 92 27q66 0 86 -27q20 -20 21 -65q0 -20 -4 -45l-21 -115h209l20 119q8 57 9 82q0 111 -62 178q-74 82 -217 82 q-145 0 -246 -82q-119 -94 -147 -264l-6 -35q-6 -39 -6 -76q0 -147 96 -246q20 -23 57 -47t70 -45q55 -31 76 -51q51 -57 51 -135q0 -25 -2 -37l-17 -90q-14 -80 -51 -107q-33 -27 -94 -26q-61 0 -86 26q-18 23 -18 66q0 12 4 45l30 176h-209l-30 -180q-8 -57 -8 -82 q0 -111 61 -178q72 -82 217 -82q142 0 246 82zM158 61q-66 78 -66 195q0 20 8 82l35 192h242l-35 -196q-4 -25 -4 -43q0 -37 14 -51q20 -23 74 -23q55 0 84 23q31 25 45 98l16 90q4 25 4 37q0 68 -49 119q-14 16 -80 55q-92 57 -122 88q-102 106 -103 256q0 43 8 82l7 35 q29 172 151 272q109 86 258 86q147 0 229 -86q66 -78 66 -194q0 -20 -8 -82l-25 -131h-241l24 133q2 16 2 41q0 41 -14 57q-18 20 -74 21q-53 0 -84 -23q-35 -27 -43 -98l-6 -35q-4 -29 -4 -41q0 -66 49 -113q10 -12 38 -29.5t36 -21.5q92 -57 127 -92q102 -113 102 -262 q0 -37 -6 -78l-16 -90q-29 -174 -154 -273q-104 -86 -256 -86q-153 0 -229 86zM424 -260q-29 -45 -90 -115h-92q25 41 39 70q10 18 10 31q0 12 -8 18v0q-14 16 -23.5 33.5t-9.5 42.5q0 49 40 88t89 39q41 0 67.5 -25.5t26.5 -66.5q0 -12 -2 -19q-6 -47 -47 -96zM457 -143 q0 31 -22.5 52t-55.5 21q-43 0 -78 -33.5t-35 -78.5q0 -20 7.5 -32.5t21.5 -29.5v0q12 -12 12 -28t-12 -41q-8 -12 -25 -45h56q49 55 86 106t43 92q2 7 2 17z" glyph-name="scommaaccent" horiz-adv-x="778" unicode="ș"/><glyph d="M967 1442l-43 -242h-230l-213 -1208h-241l213 1208h-230l43 242h701zM946 1425h-667l-35 -208h229l-213 -1209h209l213 1209h229zM393 -281q-20 -31 -88 -114h-90q14 35 35 69q12 20 12 33q0 8 -8 17q-35 35 -35 75q0 49 40 88t89 39q41 0 67.5 -25.5t26.5 -66.5 q0 -12 -2 -18q-6 -48 -47 -97zM426 -164q0 31 -22.5 52.5t-55.5 21.5q-43 0 -77.5 -34t-34.5 -79q0 -20 8 -33.5t22 -27.5q12 -12 13 -27q0 -14 -15 -43q-8 -12 -24 -45h57q59 74 84 107q37 53 43 92q2 6 2 16z" glyph-name="uni021A" horiz-adv-x="722" unicode="Ț"/><glyph d="M967 1442l-43 -242h-230l-213 -1208h-241l213 1208h-230l43 242h701zM946 1425h-667l-35 -208h229l-213 -1209h209l213 1209h229zM393 -281q-20 -31 -88 -114h-90q14 35 35 69q12 20 12 33q0 8 -8 17q-35 35 -35 75q0 49 40 88t89 39q41 0 67.5 -25.5t26.5 -66.5 q0 -12 -2 -18q-6 -48 -47 -97zM426 -164q0 31 -22.5 52.5t-55.5 21.5q-43 0 -77.5 -34t-34.5 -79q0 -20 8 -33.5t22 -27.5q12 -12 13 -27q0 -14 -15 -43q-8 -12 -24 -45h57q59 74 84 107q37 53 43 92q2 6 2 16z" glyph-name="uni021B" horiz-adv-x="722" unicode="ț"/><glyph d="M526 1200l-59 -344h254l-43 -242h-254l-68 -381h369l-43 -241h-244v1t-2 1q6 -6 8 -6h-2q27 -18 42.5 -42t15.5 -63q0 -20 -2 -33q-8 -59 -60.5 -103t-113.5 -44q-55 0 -91 36t-36 89q0 12 4 33h129q-2 -4 -2 -13q0 -16 16 -16q8 0 15.5 6t9.5 17l2 6q0 6 -5.5 11 t-15.5 11q-41 33 -41 90q0 18 2 27v-2v-6h-239l256 1450h610l-43 -242h-369zM918 1425h-578l-248 -1417h236v-10v-2q-2 -8 -2 -23q0 -47 34 -77q18 -12 23.5 -21.5t1.5 -21.5q-2 -16 -13.5 -26.5t-27.5 -10.5q-14 0 -22.5 8t-10.5 20h-96q-6 -53 25.5 -89t83.5 -36 q63 0 112 49.5t49 114.5q0 33 -14 53.5t-37 38.5h-2q-8 8 -8 19q0 8 8 16v-2h238l35 209h-369l76 414h254l34 209h-254l68 377h369z" glyph-name="uni0228" horiz-adv-x="733" unicode="Ȩ"/><glyph d="M526 1200l-59 -344h254l-43 -242h-254l-68 -381h369l-43 -241h-244v1t-2 1q6 -6 8 -6h-2q27 -18 42.5 -42t15.5 -63q0 -20 -2 -33q-8 -59 -60.5 -103t-113.5 -44q-55 0 -91 36t-36 89q0 12 4 33h129q-2 -4 -2 -13q0 -16 16 -16q8 0 15.5 6t9.5 17l2 6q0 6 -5.5 11 t-15.5 11q-41 33 -41 90q0 18 2 27v-2v-6h-239l256 1450h610l-43 -242h-369zM918 1425h-578l-248 -1417h236v-10v-2q-2 -8 -2 -23q0 -47 34 -77q18 -12 23.5 -21.5t1.5 -21.5q-2 -16 -13.5 -26.5t-27.5 -10.5q-14 0 -22.5 8t-10.5 20h-96q-6 -53 25.5 -89t83.5 -36 q63 0 112 49.5t49 114.5q0 33 -14 53.5t-37 38.5h-2q-8 8 -8 19q0 8 8 16v-2h238l35 209h-369l76 414h254l34 209h-254l68 377h369z" glyph-name="uni0229" horiz-adv-x="733" unicode="ȩ"/><glyph d="M647 74q119 94 148 264l135 762q8 57 8 82q0 111 -61 178q-74 82 -218 82q-145 0 -245 -82q-119 -94 -148 -264l-135 -762q-8 -57 -8 -82q0 -111 61 -178q72 -82 217 -82q142 0 246 82zM172 61q-66 78 -66 195q0 20 9 82l135 762q29 172 151 272q109 86 258 86 q147 0 230 -86q66 -78 65 -194q0 -20 -8 -82l-135 -762q-29 -174 -154 -273q-104 -86 -256 -86q-153 0 -229 86zM705 1206q20 -20 20 -65q0 -20 -4 -45l-135 -762q-14 -80 -51 -107q-33 -27 -95 -26q-61 0 -86 26q-18 23 -18 66q0 12 4 45l135 760q10 78 51 108q33 27 92 27 q67 0 87 -27zM535 1194q-35 -27 -43 -98l-136 -762q-4 -25 -4 -43q0 -37 15 -51q20 -23 73 -23q55 0 84 23q31 25 45 98l136 760q2 16 2 41q0 41 -15 57q-18 20 -74 21q-52 0 -83 -23zM458.5 1537.5q22.5 -21.5 55.5 -21.5q43 0 77 33.5t34 78.5q0 33 -21.5 53.5t-54.5 20.5 q-43 0 -78 -32t-35 -79q0 -32 22.5 -53.5zM460 1680q40 38 89 38q41 0 66.5 -25.5t25.5 -66.5q0 -51 -39 -89t-88 -38q-41 0 -67.5 26.5t-26.5 67.5q0 49 40 87zM770.5 1537.5q22.5 -21.5 54.5 -21.5q43 0 77 33.5t34 78.5q0 33 -21.5 53.5t-54.5 20.5q-43 0 -77.5 -32 t-34.5 -79q0 -32 22.5 -53.5zM771 1680q40 38 89 38q41 0 66.5 -25.5t25.5 -66.5q0 -51 -39 -89t-88 -38q-41 0 -67.5 26.5t-26.5 67.5q0 49 40 87zM938 1786l16 96h-438l-16 -96h438zM950 1769h-471l25 129h471z" glyph-name="uni022A" horiz-adv-x="806" unicode="Ȫ"/><glyph d="M647 74q119 94 148 264l135 762q8 57 8 82q0 111 -61 178q-74 82 -218 82q-145 0 -245 -82q-119 -94 -148 -264l-135 -762q-8 -57 -8 -82q0 -111 61 -178q72 -82 217 -82q142 0 246 82zM172 61q-66 78 -66 195q0 20 9 82l135 762q29 172 151 272q109 86 258 86 q147 0 230 -86q66 -78 65 -194q0 -20 -8 -82l-135 -762q-29 -174 -154 -273q-104 -86 -256 -86q-153 0 -229 86zM705 1206q20 -20 20 -65q0 -20 -4 -45l-135 -762q-14 -80 -51 -107q-33 -27 -95 -26q-61 0 -86 26q-18 23 -18 66q0 12 4 45l135 760q10 78 51 108q33 27 92 27 q67 0 87 -27zM535 1194q-35 -27 -43 -98l-136 -762q-4 -25 -4 -43q0 -37 15 -51q20 -23 73 -23q55 0 84 23q31 25 45 98l136 760q2 16 2 41q0 41 -15 57q-18 20 -74 21q-52 0 -83 -23zM458.5 1537.5q22.5 -21.5 55.5 -21.5q43 0 77 33.5t34 78.5q0 33 -21.5 53.5t-54.5 20.5 q-43 0 -78 -32t-35 -79q0 -32 22.5 -53.5zM460 1680q40 38 89 38q41 0 66.5 -25.5t25.5 -66.5q0 -51 -39 -89t-88 -38q-41 0 -67.5 26.5t-26.5 67.5q0 49 40 87zM770.5 1537.5q22.5 -21.5 54.5 -21.5q43 0 77 33.5t34 78.5q0 33 -21.5 53.5t-54.5 20.5q-43 0 -77.5 -32 t-34.5 -79q0 -32 22.5 -53.5zM771 1680q40 38 89 38q41 0 66.5 -25.5t25.5 -66.5q0 -51 -39 -89t-88 -38q-41 0 -67.5 26.5t-26.5 67.5q0 49 40 87zM938 1786l16 96h-438l-16 -96h438zM950 1769h-471l25 129h471z" glyph-name="uni022B" horiz-adv-x="806" unicode="ȫ"/><glyph d="M877 553q0 -23 -9 -80l-24 -131q-14 -86 -53 -152q-39 -70 -103 -116q-104 -82 -252 -82h-350l51 301h-94l43 242h96l160 907h315q147 0 230 -82q47 -49 59 -119q6 -31 6 -67q0 -39 -6 -89l-24 -133q-29 -145 -117 -219q72 -61 72 -180zM905 956l25 134q6 43 6 81 q0 35 -6 66q-12 66 -56 111q-74 78 -217 77h-303l-159 -907h-97l-35 -209h95l-52 -301h330q141 0 244 78q57 43 98 113q37 66 49 147l25 131q6 41 6 76q0 121 -80 180q100 73 127 223zM477 836h74q55 0 84 22q33 31 45 98l25 131q2 12 2 41q0 39 -13 52q-20 20 -76 20h-77z M618 1217q63 0 89 -25q16 -18 16 -66q0 -27 -2 -41l-25 -133q-14 -76 -51 -106q-33 -27 -94 -27h-94l71 398h90zM627 477q4 29 4 43q0 37 -15 51q-20 23 -73 23h-111l-8 -59h94l-43 -242h-96l-8 -60h104q55 0 86 21q14 12 26.5 37.5t14.5 54.5zM601 283.5 q-13 -27.5 -32 -41.5q-31 -25 -94 -25h-125l17 92h96l35 209h-95l17 92h123q59 0 86 -26q18 -20 18 -66q0 -12 -4 -45l-25 -129q-4 -33 -17 -60.5z" glyph-name="uni0243" horiz-adv-x="829" unicode="Ƀ"/><glyph d="M971 672h-82l-60 -338q-29 -170 -153 -273q-106 -86 -256 -86q-154 0 -230 86q-66 78 -65 195q0 20 8 82l60 334h-82l22 129h82l113 641h241l-112 -641h213l112 641h242l-113 -641h82zM891 784l113 641h-209l-113 -641h-246l113 641h-209l-113 -641h-82l-14 -96h82 l-63 -354q-8 -57 -9 -82q0 -111 62 -178q72 -82 217 -82q139 0 246 82q119 100 147 264l64 350h81l15 96h-82zM647 672h-213l-59 -338q-6 -43 -6 -47q0 -33 14 -47q20 -23 76 -23q51 0 84 23q33 25 45 98zM551 227q-33 -27 -92 -26q-63 0 -88 26q-18 18 -19 62q0 23 6 49 l64 350h246l-64 -354q-16 -80 -53 -107z" glyph-name="uni0244" horiz-adv-x="843" unicode="Ʉ"/><glyph d="M584 922l-326 -930h-248l545 1450h240l34 -1450h-245v930zM600 1016v-1008h213l-35 1417h-211l-532 -1417h211z" glyph-name="uni0245" horiz-adv-x="843" unicode="Ʌ"/><glyph d="M793 653q-18 -14 -37 -24l18 -637h-246l-14 575h-88l-102 -575h-242l102 575h-82l43 242h82l111 633h346q152 0 229 -88q66 -78 66 -193q0 -25 -8 -82l-27 -153q-28 -175 -151 -273zM954 1083q6 41 7 78q0 111 -60 180q-74 84 -217 84h-334l-110 -632h-82l-35 -209h82 l-103 -576h209l103 576h116l15 -576h213l-19 629q16 10 41 29q119 96 148 264zM729 1083q4 25 4 41q0 37 -14 54q-20 23 -74 22h-108l-68 -391h104q53 0 84 22q33 25 45 99zM666 819q-33 -27 -93 -26h-124l75 424h121q61 0 86 -27q18 -20 19 -66q0 -12 -5 -45l-26 -153 q-12 -76 -53 -107z" glyph-name="uni024C" horiz-adv-x="823" unicode="Ɍ"/><glyph d="M793 653q-18 -14 -37 -24l18 -637h-246l-14 575h-88l-102 -575h-242l102 575h-82l43 242h82l111 633h346q152 0 229 -88q66 -78 66 -193q0 -25 -8 -82l-27 -153q-28 -175 -151 -273zM954 1083q6 41 7 78q0 111 -60 180q-74 84 -217 84h-334l-110 -632h-82l-35 -209h82 l-103 -576h209l103 576h116l15 -576h213l-19 629q16 10 41 29q119 96 148 264zM729 1083q4 25 4 41q0 37 -14 54q-20 23 -74 22h-108l-68 -391h104q53 0 84 22q33 25 45 99zM666 819q-33 -27 -93 -26h-124l75 424h121q61 0 86 -27q18 -20 19 -66q0 -12 -5 -45l-26 -153 q-12 -76 -53 -107z" glyph-name="uni024D" horiz-adv-x="823" unicode="ɍ"/><glyph d="M846 1442h248l-547 -1450h-240l-33 1450h246v-228h244zM858 1425l-82 -227h-272v227h-213l33 -1417h211l534 1417h-211zM520 973v-459l160 459h-160zM504 989h201l-201 -569v569z" glyph-name="uni0250" unicode="ɐ"/><glyph d="M967 553q0 -23 -9 -80l-22 -131q-16 -84 -53 -152q-45 -76 -103 -116q-106 -82 -254 -82h-350l234 1321h-76q-10 0 -18.5 -7.5t-10.5 -21.5h-129q8 63 60.5 110.5t115.5 47.5h396q147 0 229 -82q47 -49 59 -119q6 -31 6 -67q0 -39 -6 -89l-24 -133q-29 -145 -117 -219 q72 -61 72 -180zM995 956l25 134q6 43 6 81q0 35 -6 66q-12 66 -55 111q-74 78 -217 77h-396q-53 0 -97 -35.5t-58 -89.5h96q4 12 15 20.5t26 8.5h96l-233 -1321h329q139 0 246 78q57 45 96 113q37 66 52 147l22 131q6 41 6 76q0 123 -80 180q100 73 127 223zM567 836h74 q57 0 82 22q33 27 47 98l25 131q2 12 2 41q0 39 -13 52q-18 20 -75 20h-78zM709 1217q66 0 88 -25q16 -18 16 -66q0 -27 -2 -41l-25 -133q-12 -74 -51 -106q-33 -27 -94 -27h-94l71 398h91zM717 477q4 29 4 43q0 37 -14 51q-23 23 -74 23h-109l-63 -361h104q57 0 86 21 q31 23 43 92zM662 242q-31 -25 -97 -25h-125l72 393h121q59 0 86 -26q18 -20 18 -66q0 -12 -4 -45l-22 -131q-12 -69 -49 -100z" glyph-name="uni0253" horiz-adv-x="919" unicode="ɓ"/><glyph d="M639 74q119 100 147 264l136 762q6 41 6 78q0 106 -60 182q-76 82 -217 82q-145 0 -245 -82q-119 -94 -148 -264l-20 -117h208l21 119q10 82 49 108q33 27 94 27q59 0 86 -27q18 -20 19 -69q0 -27 -2 -41l-135 -762q-16 -80 -54 -107q-33 -27 -92 -26q-63 0 -88 26 q-18 18 -18 62q0 23 6 49l30 174h-208l-31 -178q-8 -57 -8 -82q0 -111 61 -178q72 -82 217 -82q140 0 246 82zM164 61q-66 78 -66 195q0 20 8 82l35 190h242l-35 -194q-6 -43 -6 -47q0 -33 14 -47q20 -23 76 -23q51 0 84 23q33 25 45 98l135 760q2 12 2 39q0 43 -14 57 q-20 23 -74 23q-57 0 -86 -23q-33 -27 -41 -98l-24 -133h-242l25 137q29 172 151 272q109 86 258 86q143 0 230 -86q63 -82 63 -196q0 -37 -6 -80l-135 -762q-29 -170 -154 -273q-106 -86 -256 -86q-153 0 -229 86z" glyph-name="uni0254" horiz-adv-x="798" unicode="ɔ"/><glyph d="M1073 1161q0 -25 -8 -82l-129 -737q-16 -86 -53 -152q-39 -70 -103 -116q-106 -82 -254 -82h-350l234 1321h-76q-10 0 -18.5 -7.5t-10.5 -21.5h-129q8 63 60.5 110.5t115.5 47.5h426q152 0 230 -88q65 -78 65 -193zM778 1425h-426q-53 0 -97 -35.5t-58 -89.5h96 q4 12 15 20.5t26 8.5h96l-233 -1321h329q139 0 246 78q57 45 96 113q35 59 52 147l129 737q6 41 6 78q0 111 -60 180q-74 84 -217 84zM823 1083q4 25 4 41q0 37 -14 54q-20 23 -74 22h-108l-170 -967h104q57 0 86 21q31 25 43 92zM662 242q-31 -25 -97 -25h-125l178 1000 h121q61 0 86 -27q18 -20 19 -66q0 -12 -4 -45l-129 -737q-16 -75 -49 -100z" glyph-name="uni0257" horiz-adv-x="929" unicode="ɗ"/><glyph d="M260 1200l43 242h610l-256 -1450h-610l43 241h369l67 381h-254l43 242h254l60 344h-369zM281 1217h368l-67 -377h-254l-35 -209h254l-76 -414h-369l-34 -209h577l248 1417h-578z" glyph-name="uni0258" horiz-adv-x="733" unicode="ɘ"/><glyph d="M945 1562q54 44 118 40l-25 -129h-6q-8 0 -15 -6.5t-9 -16.5l-86 -487h-242l25 135q4 37 4 47q0 35 -15 49q-20 23 -76 23q-51 0 -83 -23q-35 -27 -43 -98l-136 -762q-4 -25 -4 -43q0 -37 15 -51q20 -23 73 -23q57 0 86 23q33 29 43 98l45 258h-112l43 242h354l-88 -504 q-29 -174 -154 -273q-104 -86 -256 -86q-150 0 -229 86q-63 82 -63 197q0 37 6 80l135 762q29 170 153 272q109 86 256 86q129 0 207 -67l13 63q12 64 66 108zM877 1356q-72 86 -218 86q-141 0 -245 -82q-119 -100 -148 -264l-135 -762q-6 -39 -6 -78q0 -106 59 -182 q76 -82 217 -82t246 82q119 94 148 264l84 483h-322l-35 -209h113l-49 -278q-14 -80 -51 -107q-33 -27 -95 -26q-59 0 -86 26q-18 23 -18 66q0 12 4 45l135 760q10 78 51 108q33 27 92 27q63 0 89 -27q18 -20 18 -65q0 -16 -4 -45l-21 -117h209l82 473q2 14 11.5 23.5 t23.5 13.5l16 96q-53 -4 -96 -43t-51 -92z" glyph-name="uni0260" horiz-adv-x="808" unicode="ɠ"/><glyph d="M647 74q119 94 148 264l67 381h-321l-37 -209h112l-30 -176q-14 -80 -51 -107q-33 -27 -95 -26q-59 0 -86 26q-18 23 -18 66q0 12 4 45l98 557q16 78 51 106q33 27 95 27q61 0 88 -27q18 -18 18 -61q0 -20 -6 -49l-2 -14h209l2 18q8 57 8 82q0 111 -61 178 q-72 82 -217 82q-139 0 -246 -82q-119 -100 -148 -264l-98 -557q-6 -39 -6 -78q0 -106 59 -182q76 -82 217 -82q142 0 246 82zM172 61q-63 82 -63 197q0 37 6 80l98 557q29 170 154 272q109 86 256 86q154 0 229 -86q66 -78 66 -194q0 -20 -9 -82l-6 -31h-241l6 35 q6 43 6 47q0 33 -15 47q-23 23 -75 23q-55 0 -84 -23q-33 -25 -45 -98l-99 -557q-4 -25 -4 -43q0 -37 15 -51q20 -23 73 -23q57 0 86 23q33 29 43 98l27 156h-113l45 241h355l-72 -401q-29 -174 -154 -273q-104 -86 -256 -86q-149 0 -229 86z" glyph-name="uni0262" horiz-adv-x="808" unicode="ɢ"/><glyph d="M782 1442h242l-256 -1450h-242l111 622h-213l-111 -622h-241l256 1450h241l-102 -586h213zM795 1425l-103 -585h-246l103 585h-209l-248 -1417h209l111 623h245l-110 -623h209l248 1417h-209z" glyph-name="uni0265" horiz-adv-x="843" unicode="ɥ"/><glyph d="M1128 1442l-256 -1450h-241l110 622h-213l-110 -622h-242l234 1321h-76q-10 0 -18.5 -7.5t-10.5 -21.5h-129q8 63 60.5 110.5t115.5 47.5h322l-103 -586h213l103 586h241zM797 840h-246l102 585h-301q-53 0 -97 -35.5t-58 -89.5h96q4 12 15 20.5t26 8.5h96l-233 -1321 h209l110 623h246l-111 -623h209l248 1417h-209z" glyph-name="uni0266" horiz-adv-x="948" unicode="ɦ"/><glyph d="M549 801l-23 -129h-82l-120 -680h-242l121 680h-82l22 129h82l113 641h242l-113 -641h82zM528 784h-82l113 641h-209l-112 -641h-82l-15 -96h82l-121 -680h209l121 680h82z" glyph-name="uni0268" horiz-adv-x="409" unicode="ɨ"/><glyph d="M301 8l213 1213h-209l-213 -1213h209zM313 -8h-241l221 1245h242z" glyph-name="uni026A" horiz-adv-x="389" unicode="ɪ"/><glyph d="M893 -8l-201 782l-477 -782h-143l258 1450h241l-120 -676l247 451h142l90 -453l121 678h241l-258 -1450h-141zM905 8h117l250 1417h-209l-133 -751l-103 526h-120l-289 -528l133 753h-209l-250 -1417h115l493 807z" glyph-name="uni026F" horiz-adv-x="1110" unicode="ɯ"/><glyph d="M1036 1442l-256 -1450h-143l-207 700l-123 -694q-25 -139 -97.5 -187.5t-215.5 -46.5l24 130h5q23 0 28 22l268 1526h144l209 -699l123 699h241zM676 674l-225 751h-119l-264 -1513q-4 -12 -13.5 -22.5t-23.5 -12.5l-17 -96q129 2 191.5 47t85.5 174l135 760l223 -754 h119l248 1417h-209z" glyph-name="uni0272" horiz-adv-x="847" unicode="ɲ"/><glyph d="M1001 1237l-221 -1245h-143l-225 602l-107 -602h-242l222 1245h143l225 -600l107 600h241zM981 1221h-209l-115 -646l-241 646h-119l-213 -1213h209l115 647l241 -647h119z" glyph-name="uni0274" horiz-adv-x="847" unicode="ɴ"/></font>
</defs>
</svg>
