<?xml version="1.0" standalone="no"?>
<!DOCTYPE svg PUBLIC "-//W3C//DTD SVG 1.1//EN" "http://www.w3.org/Graphics/SVG/1.1/DTD/svg11.dtd">
<svg xmlns="http://www.w3.org/2000/svg"><metadata>This SVG WebFont was generated by YouWorkForThem.
EllenLuff.2018</metadata><defs><font horiz-adv-x="854" id="ywftsvg"><font-face ascent="1638" bbox="-508 -387 1726.03 2003" cap-height="1434" descent="-410" font-family="" font-stretch="normal" font-weight="700" panose-1="0 0 8 0 0 0 0 0 0 0" underline-position="0" underline-thickness="0" unicode-range="U+0020-AB53" units-per-em="2048" x-height="1434"/><missing-glyph d="M354 1434h918l-252 -1434h-918zM915 1260l-200 -400l-60 400h-176l86 -529l-289 -557h158l217 430l64 -430h180l-92 557l270 529h-158z" horiz-adv-x="1122"/><glyph d="M354 1434h918l-252 -1434h-918zM915 1260l-200 -400l-60 400h-176l86 -529l-289 -557h158l217 430l64 -430h180l-92 557l270 529h-158z" glyph-name=".notdef" horiz-adv-x="1122"/><glyph glyph-name="glyph1" horiz-adv-x="0"/><glyph glyph-name="glyph2" horiz-adv-x="317"/><glyph glyph-name="space" horiz-adv-x="317" unicode=" "/><glyph d="M334 133q0 -12 -2 -18q-10 -47 -49 -81t-86 -34q-41 0 -69 26.5t-28 67.5q0 12 2 21q8 47 48 80.5t88 33.5q43 0 69.5 -27.5t26.5 -68.5zM336 330h-166l41 385l125 719h225l-125 -719z" glyph-name="exclam" horiz-adv-x="393" unicode="!"/><glyph d="M440 1030h-127l21 404h225zM725 1030h-127l20 404h226z" glyph-name="quotedbl" horiz-adv-x="673" unicode="&quot;"/><glyph d="M571 410h-133l-114 -410h-185l115 410h-100l45 159h100l104 375h-102l45 160h103l92 330h184l-92 -330h133l92 330h184l-92 -330h105l-45 -160h-105l-104 -375h104l-45 -159h-104l-115 -410h-184zM483 569h133l105 375h-133z" glyph-name="numbersign" horiz-adv-x="942" unicode="#"/><glyph d="M696 973l19 108q4 29 4 47q0 39 -17 56q-20 25 -79 24q-55 0 -88 -24q-35 -27 -50 -103l-2 -18q-4 -29 -4 -41q0 -70 51 -121q8 -8 31 -23.5t39 -25.5q96 -55 131 -94q100 -106 100 -256q0 -35 -6 -76l-14 -74q-29 -170 -149 -268q-57 -47 -138 -70l-12 -73h-225l12 73 q-70 20 -113 70q-63 72 -63 186q0 41 8 82l31 170h225l-31 -170q-4 -25 -4 -43q0 -41 19 -59q23 -25 78 -25q61 0 90 25q20 16 31.5 45t15.5 57l14 74q4 25 4 37q0 74 -51 127q-18 18 -78 53q-92 57 -125 90q-100 104 -100 250q0 45 8 80l2 18q29 170 150 269q59 47 137 69 l14 74h225l-14 -74q72 -23 113 -69q63 -72 63 -187q0 -41 -8 -82l-18 -108h-226z" glyph-name="dollar" horiz-adv-x="819" unicode="$"/><glyph d="M1022 36.5q-47 -20.5 -94 -20.5t-87 20.5t-67 57.5q-35 49 -35 121q0 35 4 51l5 21q16 102 90 170q39 39 87 59.5t95 20.5t87 -20.5t64 -59.5q37 -51 37 -123q0 -14 -4 -47l-4 -21q-20 -102 -92 -172q-39 -37 -86 -57.5zM998.5 320.5q-5.5 13.5 -13.5 13.5t-20.5 -13.5 t-14.5 -33.5l-4 -21q-4 -20 3 -33.5t16 -13.5q6 0 17 13.5t15 33.5l4 21q3 20 -2.5 33.5zM552 927.5q-48 -20.5 -95 -20.5q-96 0 -152 78q-35 49 -35 121q0 33 4 51l2 19q18 102 93 172q39 37 86 58t94 21t87 -21.5t66 -57.5q35 -53 35 -123q0 -33 -4 -49l-2 -19 q-18 -98 -92 -172q-39 -37 -87 -57.5zM527.5 1210.5q-7.5 14.5 -15.5 14.5t-18.5 -14.5t-14.5 -34.5l-2 -19q-4 -20 2 -33.5t15 -13.5q8 0 19 13.5t15 33.5l2 19q5 20 -2.5 34.5zM979 1434h211l-694 -1434h-211z" glyph-name="percent" horiz-adv-x="1222" unicode="%"/><glyph d="M719 18.5q-90 -36.5 -178 -36.5q-195 0 -301 110q-90 94 -90 246q0 49 8 96q14 84 80.5 175t205.5 177l9 5q-63 109 -64 225q0 45 8 84l6 35q14 88 65.5 156.5t131.5 109.5q94 49 201 49q106 0 184 -49q53 -35 81 -87t28 -118q0 -31 -7 -61l-6 -35q-16 -96 -70.5 -181 t-142.5 -149q-25 -20 -39 -29l35 -30q61 -57 123 -148q31 37 60 76l176 -115q-47 -68 -129 -166q47 -127 47 -258q0 -53 -8 -100h-230q6 31 6 68t-6 73l-8 -8l-8 -8q-78 -70 -168 -106.5zM655 563l-67 62l-51 -29q-137 -84 -152 -162q-4 -20 -4 -57q0 -74 39 -113 q53 -55 162 -55q88 0 166 74q25 18 75 77q-55 96 -131 170zM796.5 1217.5q-22.5 5.5 -36.5 5.5q-45 0 -80 -21q-20 -10 -31.5 -25.5t-15.5 -41.5l-6 -35q-4 -33 -4 -47q0 -80 53 -156q41 18 78 47q82 68 100 156l6 35q2 6 2 18q0 31 -26 49q-17 10 -39.5 15.5z" glyph-name="ampersand" horiz-adv-x="1214" unicode="&amp;"/><glyph d="M440 1030h-127l21 404h225z" glyph-name="quotesingle" horiz-adv-x="389" unicode="'"/><glyph d="M461 209l-39 -225q-72 0 -129 21.5t-94 62.5q-63 72 -64 186q0 41 8 82l136 764q29 170 149 268q106 84 252 84l-39 -225q-59 0 -88 -25q-35 -27 -49 -102l-135 -764q-4 -25 -4 -43q0 -41 16 -60q23 -24 80 -24z" glyph-name="parenleft" horiz-adv-x="485" unicode="("/><glyph d="M311 68q-106 -84 -252 -84l39 225q55 0 88 24q35 27 50 103l135 764q4 25 4 43q0 41 -17 59q-25 25 -79 25l38 225q72 0 129.5 -21.5t94.5 -62.5q63 -72 63 -186q0 -41 -8 -82l-135 -764q-29 -170 -150 -268z" glyph-name="parenright" horiz-adv-x="485" unicode=")"/><glyph d="M889 1200l-193 -84l164 -84l-166 -182l-108 143l-60 -196l-200 69l125 174l-203 -36l41 225l188 -37l-65 172l225 70l-8 -195l159 143z" glyph-name="asterisk" horiz-adv-x="749" unicode="*"/><glyph d="M874 848l-40 -227h-213l-37 -213h-228l37 213h-213l41 227h213l39 215h227l-38 -215h212z" glyph-name="plus" horiz-adv-x="796" unicode="+"/><glyph d="M297 201.5q27 -27.5 27 -68.5q0 -12 -2 -18q-8 -43 -52 -107q-29 -43 -81 -103.5t-68 -78.5h-66l70 123q12 25 12 39q0 16 -12 28q-35 35 -35 76q0 14 2 23q8 47 48 80.5t87 33.5q43 0 70 -27.5z" glyph-name="comma" horiz-adv-x="372" unicode=","/><glyph d="M170 848h369l-39 -225h-369z" glyph-name="hyphen" horiz-adv-x="409" unicode="-"/><glyph d="M322 129q0 -12 -3 -20q-8 -47 -48 -81t-87 -34q-43 0 -69.5 27.5t-26.5 68.5q0 12 2 19q10 47 49 80.5t86 33.5q41 0 69 -26.5t28 -67.5z" glyph-name="period" horiz-adv-x="372" unicode="."/><glyph d="M827 1434h195l-817 -1434h-195z" glyph-name="slash" horiz-adv-x="780" unicode="/"/><glyph d="M653 68q-106 -84 -252 -84q-72 0 -129 21.5t-94 62.5q-63 72 -63 186q0 41 8 82l135 762q29 170 150 268q49 41 114.5 62.5t136.5 21.5q145 0 224 -84q63 -72 63 -186q0 -41 -8 -82l-135 -762q-29 -170 -150 -268zM698 1200q-20 25 -80 25q-55 0 -88 -25 q-20 -16 -31.5 -45t-15.5 -57l-135 -762q-4 -25 -4 -43q0 -41 16 -60q23 -25 80 -24q59 0 88 24q35 25 50 103l135 762q4 25 4 43q-1 41 -19 59z" glyph-name="zero" horiz-adv-x="806" unicode="0"/><glyph d="M262 1137l377 297h129l-252 -1434h-225l184 1040l-266 -209z" glyph-name="one" horiz-adv-x="598" unicode="1"/><glyph d="M750 0h-682l71 401q31 195 209 332q53 41 164 94q78 39 96 54q80 66 97 155l12 62q4 29 4 43q0 41 -19 59q-20 25 -79 25q-55 0 -88 -25q-33 -27 -48 -102l-22 -125h-225l22 125q31 176 150 268q102 84 252 84q145 0 223 -84q63 -72 63 -186q0 -41 -8 -82l-12 -62 q-16 -94 -70.5 -178t-138.5 -149q-66 -49 -150 -86q-6 -2 -39.5 -18.5t-68.5 -43.5q-82 -66 -98 -160l-33 -176h456z" glyph-name="two" horiz-adv-x="813" unicode="2"/><glyph d="M727 745q90 -98 90 -241q0 -37 -6 -78l-16 -92q-33 -172 -150 -268q-106 -84 -254 -84q-147 0 -221 84q-63 72 -64 184q0 43 9 84l16 96h225l-16 -96q-4 -25 -4 -43q0 -41 16 -60q23 -25 80 -24q59 0 88 24q35 25 49 103l17 92q4 25 4 37q0 74 -51 127q-20 23 -43 36 t-29 15l-68 29l27 153l78 27l26 12q27 12 68 45q82 63 100 160l4 29q4 29 5 47q0 39 -17 55q-20 25 -80 25q-55 0 -88 -25q-35 -27 -49 -102l-6 -37h-225l6 37q31 168 149 268q106 84 254 84q147 0 221 -84q63 -68 64 -182q0 -43 -8 -86l-4 -29q-35 -191 -197 -322z" glyph-name="three" horiz-adv-x="788" unicode="3"/><glyph d="M793 1434h223l-174 -988h59l-39 -225h-59l-39 -221h-225l39 221h-498l22 127zM616 446l93 515l-297 -515h204z" glyph-name="four" horiz-adv-x="884" unicode="4"/><glyph d="M651 66q-106 -84 -254 -84q-147 0 -221 84q-63 72 -63 184q0 43 8 84l22 127h226l-23 -127q-4 -25 -4 -43q0 -41 16 -60q23 -25 80 -24q59 0 88 24q35 25 49 103l21 121q4 29 4 39q0 70 -51 120q-20 23 -42 36.5t-28 15.5h-2q-14 4 -53 28.5t-78 65.5q-98 104 -98 254 q0 39 6 78l59 342h682l-39 -226h-456l-21 -116q-4 -29 -4 -41q0 -68 51 -123q27 -29 47.5 -40t22.5 -14q18 -6 57 -28.5t76 -61.5q98 -104 98 -252q0 -37 -6 -77l-20 -121q-33 -172 -150 -268z" glyph-name="five" horiz-adv-x="794" unicode="5"/><glyph d="M692 987l21 111q4 25 4 43q0 41 -19 59q-20 25 -80 25q-55 0 -88 -25q-20 -16 -31.5 -45t-15.5 -57l-45 -254q51 14 117 14q145 0 223 -84q63 -72 64 -186q0 -41 -8 -82l-31 -170q-29 -170 -150 -268q-106 -84 -252 -84q-150 0 -223 84q-63 72 -63 186q0 41 8 82l31 170 l104 592q29 170 150 268q102 84 251 84q145 0 224 -84q63 -72 63 -186q0 -41 -8 -82l-20 -111h-226zM379 506l-31 -170q-4 -25 -4 -43q0 -41 16 -60q23 -25 80 -24q59 0 88 24q35 25 50 103l30 170q4 29 4 43q0 41 -18 59q-20 25 -80 25q-55 0 -88 -25q-33 -26 -47 -102z " glyph-name="six" horiz-adv-x="796" unicode="6"/><glyph d="M963 1434l-588 -1434h-232l496 1208h-395l39 226h680z" glyph-name="seven" horiz-adv-x="731" unicode="7"/><glyph d="M643 68q-106 -84 -252 -84q-150 0 -223 84q-63 72 -64 186q0 41 9 82l16 96q35 186 190 313q-86 102 -86 240q0 39 7 76l8 37q29 170 149 268q102 84 252 84q145 0 223 -84q63 -72 64 -186q0 -41 -8 -82l-6 -29q-35 -190 -199 -324q92 -102 92 -241q0 -27 -8 -80l-14 -88 q-29 -170 -150 -268zM539 584q-27 27 -41 34l-45 -30q-84 -66 -99 -156l-16 -96q-4 -25 -4 -43q0 -41 16 -60q23 -25 80 -24q55 0 88 24q35 27 49 103l15 88q4 29 4 41q0 66 -47 119zM688 1200q-23 25 -80 25q-55 0 -88 -25q-20 -16 -31.5 -45t-15.5 -57l-8 -37 q-4 -25 -4 -37q0 -68 47 -121q14 -14 35 -31q31 18 53 37q86 68 100 160l6 29q2 12 3 39q-1 45 -17 63z" glyph-name="eight" horiz-adv-x="786" unicode="8"/><glyph d="M356 446l-18 -112q-4 -25 -4 -43q0 -41 16 -60q23 -25 80 -24q59 0 88 24q35 25 49 103l45 254q-51 -14 -118 -15q-147 0 -222 84q-63 63 -63 183q0 43 8 86l29 170q31 168 149 268q106 84 254 84q147 0 221 -84q63 -68 64 -182q0 -43 -8 -86l-29 -170l-104 -592 q-33 -172 -150 -268q-106 -84 -254 -84q-147 0 -221 84q-63 72 -64 184q0 43 9 84l18 112h225zM672 926l28 170q4 29 5 47q0 39 -17 55q-20 25 -80 25q-55 0 -88 -25q-35 -27 -49 -102l-29 -170q-4 -29 -4 -45q0 -39 17 -58q23 -25 80 -24q59 0 88 24q35 27 49 103z" glyph-name="nine" horiz-adv-x="796" unicode="9"/><glyph d="M322 129q0 -12 -3 -20q-8 -47 -48 -81t-87 -34q-43 0 -69.5 27.5t-26.5 68.5q0 12 2 19q10 47 49 80.5t86 33.5q41 0 69 -26.5t28 -67.5zM461 907l-2 -18q-10 -47 -49 -81t-86 -34q-41 0 -69 26.5t-28 67.5q0 12 2 21q8 47 47 81t86 34q43 0 71 -28t28 -69z" glyph-name="colon" horiz-adv-x="372" unicode=":"/><glyph d="M294 196.5q28 -26.5 28 -67.5q0 -12 -3 -20q-6 -45 -51 -107q-29 -43 -81 -103.5t-68 -78.5h-66l70 123q12 25 12 39q0 18 -10 28q-37 33 -37 78q0 12 2 21q10 47 49 80.5t86 33.5q41 0 69 -26.5zM461 907l-2 -18q-10 -47 -49 -81t-86 -34q-41 0 -69 26.5t-28 67.5 q0 12 2 21q8 47 47 81t86 34q43 0 71 -28t28 -69z" glyph-name="semicolon" horiz-adv-x="372" unicode=";"/><glyph d="M170 621l41 227l643 268l-43 -250l-322 -133l275 -131l-45 -250z" glyph-name="less" horiz-adv-x="739" unicode="&lt;"/><glyph d="M866 793h-655l41 227h655zM807 453h-655l41 229h655z" glyph-name="equal" horiz-adv-x="798" unicode="="/><glyph d="M827 848l-41 -227l-643 -269l45 250l320 131l-272 133l43 250z" glyph-name="greater" horiz-adv-x="739" unicode=">"/><glyph d="M432 133q0 -12 -2 -18q-10 -47 -49 -81t-86 -34q-41 0 -68.5 26.5t-27.5 67.5q0 12 2 21q8 47 48 80.5t87 33.5q43 0 69.5 -27.5t26.5 -68.5zM242 338l12 70q18 102 63 185t127 146q102 80 145.5 117t72 82t38.5 106l11 56q4 25 4 43q0 41 -17 59q-25 25 -80 25 q-61 0 -88 -25q-35 -25 -49 -102l-22 -125h-226l23 125q29 170 150 268q106 84 251 84q150 0 224 -84q63 -72 63 -186q0 -41 -8 -82l-10 -56q-37 -215 -189 -329q-102 -78 -146 -116t-73 -83t-39 -108l-12 -70h-225z" glyph-name="question" horiz-adv-x="802" unicode="?"/><glyph d="M967 233q111 0 198 43q-88 -139 -233.5 -216.5t-321.5 -77.5q-236 0 -356 131q-109 113 -109 301q0 59 13 133l57 327q29 158 97.5 264.5t152.5 170.5q168 131 403 131q115 0 206 -34t153 -97q106 -111 106 -299q0 -61 -12 -136l-31 -172q-25 -156 -104 -241 q-84 -94 -201 -94q-82 0 -135 49q-74 -49 -170 -49q-115 0 -172 69q-47 51 -47 144q0 31 6 67l22 127q23 137 115 211q78 70 197 70q39 0 53 -4l4 12h207l-66 -361q-6 -39 -6 -65q0 -39 11 -55q6 -8 16 -9q12 0 20 9q31 37 43 120l31 172q10 61 10 101q0 117 -63 180 q-74 78 -230 78t-258 -78q-119 -90 -151 -281l-57 -327q-10 -57 -11 -98q0 -117 64 -181q76 -80 229 -80q113 0 201 43l22 13q38 -11 97 -11zM784 647l23 127q2 12 2 33q0 23 -6 31q-8 10 -39 10t-43 -10q-18 -14 -25 -64l-22 -127q-4 -29 -4 -37q0 -16 6 -26q12 -10 39 -11 q31 0 43 11q16 14 26 63z" glyph-name="at" horiz-adv-x="1228" unicode="@"/><glyph d="M596 0v227h-258l-82 -227h-229l538 1434h226l34 -1434h-229zM416 453h180v514z" glyph-name="A" unicode="A"/><glyph d="M672 80q-104 -80 -250 -80h-340l252 1434h309q147 0 223 -80q45 -49 58 -115q6 -31 6 -68q0 -41 -6 -84l-25 -133q-27 -145 -121 -221q74 -59 74 -180q0 -35 -6 -78l-23 -131q-16 -84 -53 -149q-37 -70 -98 -115zM414 602l-68 -377h115q63 0 90 23q35 27 47 96l23 131 q4 29 4 45q0 39 -17 58q-25 25 -80 24h-114zM520 1208l-67 -381h84q59 0 88 25q35 31 49 102l24 133q2 12 2 39q0 43 -14 60q-20 23 -82 22h-84z" glyph-name="B" horiz-adv-x="815" unicode="B"/><glyph d="M653 68q-106 -84 -252 -84q-145 0 -223 84q-63 78 -63 188q0 23 8 80l135 762q29 166 150 268q106 84 251 84t224 -84q63 -72 63 -186q0 -41 -8 -82l-23 -127h-225l23 127q4 29 4 45q0 39 -17 57q-23 25 -82 25q-55 0 -88 -25q-20 -16 -31.5 -45t-15.5 -57l-135 -762 q-4 -25 -4 -43q0 -41 16 -60q23 -25 80 -24q57 0 90 24q33 27 48 103l32 184h226l-33 -184q-29 -170 -150 -268z" glyph-name="C" horiz-adv-x="798" unicode="C"/><glyph d="M672 80q-104 -80 -250 -80h-340l252 1434h340q147 0 223 -86q63 -72 64 -185q0 -41 -9 -82l-129 -737q-14 -80 -51 -149q-41 -72 -100 -115zM520 1208l-174 -983h115q63 0 90 23q33 25 47 96l129 737q4 25 4 43q0 41 -16 60q-23 25 -80 24h-115z" glyph-name="D" horiz-adv-x="825" unicode="D"/><glyph d="M889 1208h-369l-63 -360h254l-39 -225h-254l-72 -398h369l-39 -225h-594l252 1434h594z" glyph-name="E" horiz-adv-x="733" unicode="E"/><glyph d="M889 1208h-369l-63 -360h256l-39 -225h-256l-111 -623h-225l252 1434h594z" glyph-name="F" horiz-adv-x="704" unicode="F"/><glyph d="M653 68q-106 -84 -252 -84q-145 0 -223 84q-63 78 -63 188q0 23 8 80l135 762q29 166 150 268q106 84 251 84t224 -84q63 -72 63 -186q0 -41 -8 -82l-23 -127h-225l23 127q4 29 4 45q0 39 -17 57q-23 25 -82 25q-55 0 -88 -25q-20 -16 -31.5 -45t-15.5 -57l-135 -762 q-4 -25 -4 -43q0 -41 16 -60q23 -25 80 -24q57 0 90 24q33 27 48 103l47 268h-113l39 225h338l-86 -493q-29 -170 -150 -268z" glyph-name="G" horiz-adv-x="808" unicode="G"/><glyph d="M788 1434h226l-252 -1434h-225l110 623h-229l-111 -623h-225l252 1434h225l-102 -586h229z" glyph-name="H" horiz-adv-x="843" unicode="H"/><glyph d="M307 0h-225l252 1434h225z" glyph-name="I" horiz-adv-x="389" unicode="I"/><glyph d="M621 68q-109 -84 -252 -84q-150 0 -224 84q-63 72 -63 186q0 41 8 82l31 178h225l-31 -178q-4 -29 -4 -49q0 -39 15 -54q23 -25 82 -24q55 0 88 24q35 27 49 103l192 1098h226l-193 -1098q-28 -166 -149 -268z" glyph-name="J" horiz-adv-x="782" unicode="J"/><glyph d="M645 754l156 -754h-242l-94 459l-109 -178l-49 -281h-225l252 1434h225l-102 -582l352 582h244z" glyph-name="K" horiz-adv-x="827" unicode="K"/><glyph d="M676 0h-594l252 1434h225l-213 -1209h369z" glyph-name="L" horiz-adv-x="702" unicode="L"/><glyph d="M1151 1434h129l-252 -1434h-225l127 715l-271 -490h-131l-94 490l-127 -715h-225l252 1434h129l205 -795z" glyph-name="M" horiz-adv-x="1110" unicode="M"/><glyph d="M1026 1434l-252 -1434h-131l-215 727l-129 -727h-225l252 1434h131l217 -725l127 725h225z" glyph-name="N" horiz-adv-x="847" unicode="N"/><glyph d="M653 68q-106 -84 -252 -84q-150 0 -223 84q-63 72 -63 186q0 41 8 82l135 762q29 170 150 268q102 84 251 84q145 0 224 -84q63 -72 63 -186q0 -41 -8 -82l-135 -762q-29 -170 -150 -268zM698 1200q-20 25 -80 25q-55 0 -88 -25q-20 -16 -31.5 -45t-15.5 -57l-135 -762 q-4 -25 -4 -43q0 -41 16 -60q23 -25 80 -24q59 0 88 24q35 25 50 103l135 762q4 25 4 43q-1 41 -19 59z" glyph-name="O" horiz-adv-x="806" unicode="O"/><glyph d="M408 573l-101 -573h-225l252 1434h340q147 0 223 -86q63 -72 64 -185q0 -41 -9 -82l-26 -155q-33 -174 -150 -269q-106 -84 -254 -84h-114zM520 1208l-71 -409h114q55 0 88 24q37 29 49 103l27 155q4 25 4 43q0 41 -16 60q-23 25 -80 24h-115z" glyph-name="P" horiz-adv-x="802" unicode="P"/><glyph d="M766 -45l-39 -225h-29q-145 0 -223 84q-59 68 -61 170h-13q-72 0 -129 22.5t-94 63.5q-63 72 -63 184q0 41 8 82l135 762q31 176 150 268q49 41 114.5 62.5t136.5 21.5q145 0 224 -84q63 -72 63 -186q0 -41 -8 -82l-135 -762q-31 -174 -150 -266q-2 -4 -5 -5.5t-5 -3.5 v-24q0 -41 14 -57q23 -25 80 -25h29zM440 209q59 0 88 24q35 29 50 103l135 762q4 29 4 43q0 41 -19 59q-20 25 -80 25q-55 0 -88 -25q-33 -27 -47 -102l-135 -762q-4 -25 -4 -43q0 -41 16 -60q23 -24 80 -24z" glyph-name="Q" horiz-adv-x="821" unicode="Q"/><glyph d="M756 0h-230l-14 575h-102l-103 -575h-225l252 1434h340q147 0 223 -86q63 -72 64 -185q0 -41 -9 -82l-26 -153q-29 -172 -150 -269q-16 -14 -39 -26zM727 1081q4 25 4 43q0 41 -16 60q-23 25 -80 24h-115l-71 -407h114q55 0 88 24q37 29 49 103z" glyph-name="R" horiz-adv-x="813" unicode="R"/><glyph d="M639 68q-106 -84 -252 -84q-150 0 -223 84q-63 72 -64 186q0 41 9 82l32 186h226l-33 -186q-4 -25 -4 -43q0 -41 16 -60q23 -25 80 -24q59 0 88 24q35 25 49 103l17 90q4 25 4 37q0 74 -52 127q-18 18 -77 53q-92 57 -125 90q-100 104 -101 250q0 45 9 80l6 35 q29 170 149 268q102 84 252 84q145 0 223 -84q63 -72 64 -186q0 -41 -8 -82l-23 -125h-225l22 125q4 25 4 43q0 41 -18 59q-20 25 -80 25q-55 0 -88 -25q-20 -16 -31.5 -45t-15.5 -57l-6 -35q-4 -29 -4 -41q0 -70 51 -121q8 -8 30.5 -23.5t39.5 -25.5q96 -55 131 -94 q100 -106 100 -256q0 -35 -6 -76l-17 -90q-28 -170 -149 -268z" glyph-name="S" horiz-adv-x="778" unicode="S"/><glyph d="M956 1434l-38 -226h-230l-213 -1208h-225l213 1208h-230l39 226h684z" glyph-name="T" horiz-adv-x="722" unicode="T"/><glyph d="M662 68q-109 -84 -252 -84q-150 0 -224 84q-63 72 -63 186q0 41 8 82l193 1098h225l-193 -1098q-4 -29 -4 -49q0 -39 15 -54q23 -25 82 -24q55 0 88 24q35 27 49 103l192 1098h226l-193 -1098q-28 -166 -149 -268z" glyph-name="U" horiz-adv-x="823" unicode="U"/><glyph d="M504 465l340 969h229l-538 -1434h-226l-35 1434h230v-969z" glyph-name="V" horiz-adv-x="843" unicode="V"/><glyph d="M1057 1434h227l-428 -1434h-125l-76 713l-323 -713h-125l76 1434h227l-47 -715l217 487h129l45 -487z" glyph-name="W" horiz-adv-x="1062" unicode="W"/><glyph d="M827 0h-239l-86 424l-232 -424h-239l393 715l-141 719h239l84 -424l232 424h241l-393 -719z" glyph-name="X" horiz-adv-x="858" unicode="X"/><glyph d="M1044 1434l-442 -930l-88 -504h-227l88 504l-113 930h238l61 -514l246 514h237z" glyph-name="Y" horiz-adv-x="802" unicode="Y"/><glyph d="M733 0h-682l586 1206h-373l39 228h682l-584 -1207h373z" glyph-name="Z" horiz-adv-x="784" unicode="Z"/><glyph d="M422 0h-340l252 1434h340l-39 -226h-115l-174 -983h115z" glyph-name="bracketleft" horiz-adv-x="483" unicode="["/><glyph d="M770 0h-195l-313 1434h195z" glyph-name="backslash" horiz-adv-x="780" unicode="\"/><glyph d="M61 0l39 225h115l174 983h-115l39 226h340l-252 -1434h-340z" glyph-name="bracketright" horiz-adv-x="483" unicode="]"/><glyph d="M629 1174l-211 -340h-230l373 600h225l162 -600h-227z" glyph-name="asciicircum" horiz-adv-x="841" unicode="^"/><glyph d="M59 225h1024l-39 -225h-1024z" glyph-name="underscore" horiz-adv-x="1064" unicode="_"/><glyph d="M512 1509l-186 226h225l74 -226h-113z" glyph-name="grave" horiz-adv-x="378" unicode="`"/><glyph d="M596 0v227h-258l-82 -227h-229l538 1434h226l34 -1434h-229zM416 453h180v514z" glyph-name="a" unicode="a"/><glyph d="M672 80q-104 -80 -250 -80h-340l252 1434h309q147 0 223 -80q45 -49 58 -115q6 -31 6 -68q0 -41 -6 -84l-25 -133q-27 -145 -121 -221q74 -59 74 -180q0 -35 -6 -78l-23 -131q-16 -84 -53 -149q-37 -70 -98 -115zM414 602l-68 -377h115q63 0 90 23q35 27 47 96l23 131 q4 29 4 45q0 39 -17 58q-25 25 -80 24h-114zM520 1208l-67 -381h84q59 0 88 25q35 31 49 102l24 133q2 12 2 39q0 43 -14 60q-20 23 -82 22h-84z" glyph-name="b" horiz-adv-x="815" unicode="b"/><glyph d="M653 68q-106 -84 -252 -84q-145 0 -223 84q-63 78 -63 188q0 23 8 80l135 762q29 166 150 268q106 84 251 84t224 -84q63 -72 63 -186q0 -41 -8 -82l-23 -127h-225l23 127q4 29 4 45q0 39 -17 57q-23 25 -82 25q-55 0 -88 -25q-20 -16 -31.5 -45t-15.5 -57l-135 -762 q-4 -25 -4 -43q0 -41 16 -60q23 -25 80 -24q57 0 90 24q33 27 48 103l32 184h226l-33 -184q-29 -170 -150 -268z" glyph-name="c" horiz-adv-x="798" unicode="c"/><glyph d="M672 80q-104 -80 -250 -80h-340l252 1434h340q147 0 223 -86q63 -72 64 -185q0 -41 -9 -82l-129 -737q-14 -80 -51 -149q-41 -72 -100 -115zM520 1208l-174 -983h115q63 0 90 23q33 25 47 96l129 737q4 25 4 43q0 41 -16 60q-23 25 -80 24h-115z" glyph-name="d" horiz-adv-x="825" unicode="d"/><glyph d="M889 1208h-369l-63 -360h254l-39 -225h-254l-72 -398h369l-39 -225h-594l252 1434h594z" glyph-name="e" horiz-adv-x="733" unicode="e"/><glyph d="M889 1208h-369l-63 -360h256l-39 -225h-256l-111 -623h-225l252 1434h594z" glyph-name="f" horiz-adv-x="704" unicode="f"/><glyph d="M653 68q-106 -84 -252 -84q-145 0 -223 84q-63 78 -63 188q0 23 8 80l135 762q29 166 150 268q106 84 251 84t224 -84q63 -72 63 -186q0 -41 -8 -82l-23 -127h-225l23 127q4 29 4 45q0 39 -17 57q-23 25 -82 25q-55 0 -88 -25q-20 -16 -31.5 -45t-15.5 -57l-135 -762 q-4 -25 -4 -43q0 -41 16 -60q23 -25 80 -24q57 0 90 24q33 27 48 103l47 268h-113l39 225h338l-86 -493q-29 -170 -150 -268z" glyph-name="g" horiz-adv-x="808" unicode="g"/><glyph d="M788 1434h226l-252 -1434h-225l110 623h-229l-111 -623h-225l252 1434h225l-102 -586h229z" glyph-name="h" horiz-adv-x="843" unicode="h"/><glyph d="M307 0h-225l252 1434h225z" glyph-name="i" horiz-adv-x="389" unicode="i"/><glyph d="M621 68q-109 -84 -252 -84q-150 0 -224 84q-63 72 -63 186q0 41 8 82l31 178h225l-31 -178q-4 -29 -4 -49q0 -39 15 -54q23 -25 82 -24q55 0 88 24q35 27 49 103l192 1098h226l-193 -1098q-28 -166 -149 -268z" glyph-name="j" horiz-adv-x="782" unicode="j"/><glyph d="M645 754l156 -754h-242l-94 459l-109 -178l-49 -281h-225l252 1434h225l-102 -582l352 582h244z" glyph-name="k" horiz-adv-x="827" unicode="k"/><glyph d="M676 0h-594l252 1434h225l-213 -1209h369z" glyph-name="l" horiz-adv-x="702" unicode="l"/><glyph d="M1151 1434h129l-252 -1434h-225l127 715l-271 -490h-131l-94 490l-127 -715h-225l252 1434h129l205 -795z" glyph-name="m" horiz-adv-x="1110" unicode="m"/><glyph d="M1026 1434l-252 -1434h-131l-215 727l-129 -727h-225l252 1434h131l217 -725l127 725h225z" glyph-name="n" horiz-adv-x="847" unicode="n"/><glyph d="M653 68q-106 -84 -252 -84q-150 0 -223 84q-63 72 -63 186q0 41 8 82l135 762q29 170 150 268q102 84 251 84q145 0 224 -84q63 -72 63 -186q0 -41 -8 -82l-135 -762q-29 -170 -150 -268zM698 1200q-20 25 -80 25q-55 0 -88 -25q-20 -16 -31.5 -45t-15.5 -57l-135 -762 q-4 -25 -4 -43q0 -41 16 -60q23 -25 80 -24q59 0 88 24q35 25 50 103l135 762q4 25 4 43q-1 41 -19 59z" glyph-name="o" horiz-adv-x="806" unicode="o"/><glyph d="M408 573l-101 -573h-225l252 1434h340q147 0 223 -86q63 -72 64 -185q0 -41 -9 -82l-26 -155q-33 -174 -150 -269q-106 -84 -254 -84h-114zM520 1208l-71 -409h114q55 0 88 24q37 29 49 103l27 155q4 25 4 43q0 41 -16 60q-23 25 -80 24h-115z" glyph-name="p" horiz-adv-x="802" unicode="p"/><glyph d="M766 -45l-39 -225h-29q-145 0 -223 84q-59 68 -61 170h-13q-72 0 -129 22.5t-94 63.5q-63 72 -63 184q0 41 8 82l135 762q31 176 150 268q49 41 114.5 62.5t136.5 21.5q145 0 224 -84q63 -72 63 -186q0 -41 -8 -82l-135 -762q-31 -174 -150 -266q-2 -4 -5 -5.5t-5 -3.5 v-24q0 -41 14 -57q23 -25 80 -25h29zM440 209q59 0 88 24q35 29 50 103l135 762q4 29 4 43q0 41 -19 59q-20 25 -80 25q-55 0 -88 -25q-33 -27 -47 -102l-135 -762q-4 -25 -4 -43q0 -41 16 -60q23 -24 80 -24z" glyph-name="q" horiz-adv-x="821" unicode="q"/><glyph d="M756 0h-230l-14 575h-102l-103 -575h-225l252 1434h340q147 0 223 -86q63 -72 64 -185q0 -41 -9 -82l-26 -153q-29 -172 -150 -269q-16 -14 -39 -26zM727 1081q4 25 4 43q0 41 -16 60q-23 25 -80 24h-115l-71 -407h114q55 0 88 24q37 29 49 103z" glyph-name="r" horiz-adv-x="813" unicode="r"/><glyph d="M639 68q-106 -84 -252 -84q-150 0 -223 84q-63 72 -64 186q0 41 9 82l32 186h226l-33 -186q-4 -25 -4 -43q0 -41 16 -60q23 -25 80 -24q59 0 88 24q35 25 49 103l17 90q4 25 4 37q0 74 -52 127q-18 18 -77 53q-92 57 -125 90q-100 104 -101 250q0 45 9 80l6 35 q29 170 149 268q102 84 252 84q145 0 223 -84q63 -72 64 -186q0 -41 -8 -82l-23 -125h-225l22 125q4 25 4 43q0 41 -18 59q-20 25 -80 25q-55 0 -88 -25q-20 -16 -31.5 -45t-15.5 -57l-6 -35q-4 -29 -4 -41q0 -70 51 -121q8 -8 30.5 -23.5t39.5 -25.5q96 -55 131 -94 q100 -106 100 -256q0 -35 -6 -76l-17 -90q-28 -170 -149 -268z" glyph-name="s" horiz-adv-x="778" unicode="s"/><glyph d="M956 1434l-38 -226h-230l-213 -1208h-225l213 1208h-230l39 226h684z" glyph-name="t" horiz-adv-x="722" unicode="t"/><glyph d="M662 68q-109 -84 -252 -84q-150 0 -224 84q-63 72 -63 186q0 41 8 82l193 1098h225l-193 -1098q-4 -29 -4 -49q0 -39 15 -54q23 -25 82 -24q55 0 88 24q35 27 49 103l192 1098h226l-193 -1098q-28 -166 -149 -268z" glyph-name="u" horiz-adv-x="823" unicode="u"/><glyph d="M504 465l340 969h229l-538 -1434h-226l-35 1434h230v-969z" glyph-name="v" horiz-adv-x="843" unicode="v"/><glyph d="M1057 1434h227l-428 -1434h-125l-76 713l-323 -713h-125l76 1434h227l-47 -715l217 487h129l45 -487z" glyph-name="w" horiz-adv-x="1062" unicode="w"/><glyph d="M827 0h-239l-86 424l-232 -424h-239l393 715l-141 719h239l84 -424l232 424h241l-393 -719z" glyph-name="x" horiz-adv-x="858" unicode="x"/><glyph d="M1044 1434l-442 -930l-88 -504h-227l88 504l-113 930h238l61 -514l246 514h237z" glyph-name="y" horiz-adv-x="802" unicode="y"/><glyph d="M733 0h-682l586 1206h-373l39 228h682l-584 -1207h373z" glyph-name="z" horiz-adv-x="784" unicode="z"/><glyph d="M618 211l-38 -225q-72 0 -129.5 21.5t-94.5 62.5q-63 72 -63 186q0 41 8 82l18 108q4 29 5 41q0 84 -70 142l-104 90l137 90q111 74 129 182l20 109q29 170 150 268q106 84 252 84l-39 -225q-59 0 -88 -25q-35 -27 -49 -102l-21 -109q-23 -127 -102 -229l-39 -43l22 -43 q31 -70 31 -148q0 -43 -8 -82l-19 -108q-4 -25 -4 -43q0 -41 17 -59q24 -25 79 -25z" glyph-name="braceleft" horiz-adv-x="643" unicode="{"/><glyph d="M612 -123h-225l297 1679h225z" glyph-name="bar" horiz-adv-x="1044" unicode="|"/><glyph d="M311 70q-106 -84 -252 -84l39 225q59 0 88 25q35 27 50 102l18 108q25 129 104 230l39 43q-16 29 -22 43q-31 72 -31 151q0 39 6 78l21 109q4 25 4 43q0 41 -17 59q-25 25 -79 25l38 225q72 0 129.5 -21.5t94.5 -62.5q63 -72 63 -186q0 -41 -8 -82l-21 -109 q-4 -25 -4 -37q0 -84 72 -145l105 -90l-138 -90q-109 -74 -131 -183l-18 -108q-29 -170 -150 -268z" glyph-name="braceright" horiz-adv-x="643" unicode="}"/><glyph glyph-name="uni00A0" horiz-adv-x="317" unicode=" "/><glyph d="M547 1337l-2 -18q-10 -47 -49 -81t-86 -34q-41 0 -69 26.5t-28 67.5q0 12 2 21q8 47 47 81t87 34q43 0 70.5 -28t27.5 -69zM473 1104l-37 -385l-127 -719h-225l127 719l96 385h166z" glyph-name="exclamdown" horiz-adv-x="393" unicode="¡"/><glyph d="M711 971l18 110q4 25 4 43q0 41 -16 60q-23 25 -80 24q-59 0 -88 -24q-35 -29 -49 -103l-129 -729q-4 -25 -4 -43q0 -41 18 -59q20 -25 78 -25q57 0 90 25q20 16 31.5 45t15.5 57l31 168h225l-31 -168q-29 -170 -149 -268q-61 -49 -137 -68l-13 -75h-225l12 75 q-61 16 -112 68q-63 72 -64 186q0 41 8 82l129 729q29 170 150 269q68 51 137 67l14 76h226l-15 -76q66 -18 113 -67q63 -72 64 -187q0 -41 -9 -82l-18 -110h-225z" glyph-name="cent" horiz-adv-x="839" unicode="¢"/><glyph d="M887 229l-41 -229h-783l41 229h76q59 4 99 35q51 41 69 146l29 163h-170l41 228h84q-6 41 -6 80q0 47 10 108l20 109q29 170 152 270q106 84 252 84q147 0 225 -84q63 -72 64 -188q0 -41 -9 -82l-8 -37h-227l8 37q4 25 4 39q0 43 -18 63q-23 25 -80 25t-86 -25 q-33 -25 -47 -102l-21 -109q-6 -39 -6 -74q0 -74 21 -114h292l-41 -228h-225l-28 -163q-18 -104 -62 -181h371z" glyph-name="sterling" horiz-adv-x="913" unicode="£"/><glyph d="M776 397l58 -188l-220 -96l-51 168q-35 -8 -84 -9q-47 0 -80 9l-108 -168l-189 96l127 192q-35 66 -34 144q0 41 8 80l33 184q25 135 104 223l-57 193l221 96l49 -168q39 8 84 8q49 0 80 -8l110 168l185 -96l-123 -189q35 -63 35 -149q0 -35 -6 -78l-33 -184 q-23 -130 -109 -228zM520 498q57 0 90 24q37 29 49 103l33 184q4 29 4 43q0 41 -18 59q-23 25 -80 25t-90 -25q-35 -29 -47 -102l-33 -184q-4 -29 -4 -45q0 -39 16 -58q23 -24 80 -24z" glyph-name="currency" horiz-adv-x="862" unicode="¤"/><glyph d="M1049 1434l-414 -873h164l-19 -112h-182l-20 -117h182l-21 -113h-182l-39 -219h-227l39 219h-185l21 113h184l21 117h-185l19 112h168l-107 873h238l61 -514l246 514h238z" glyph-name="yen" horiz-adv-x="811" unicode="¥"/><glyph d="M909 1556l-114 -647h-226l115 647h225zM387 -123l121 684h225l-121 -684h-225z" glyph-name="brokenbar" horiz-adv-x="1044" unicode="¦"/><glyph d="M624.5 728.5q-28.5 19.5 -75.5 19.5q-49 0 -85 -21.5t-44 -64.5t20.5 -66t77.5 -23q117 0 133 97q2 39 -26.5 58.5zM723 1085l10 54q2 6 2 18q0 37 -28.5 53.5t-71.5 16.5q-51 0 -87 -22.5t-44 -65.5q-2 -10 -2 -29q0 -51 33.5 -75.5t107.5 -51.5q96 -35 137 -65 q51 -37 77 -90.5t26 -112.5q0 -74 -39 -148.5t-113 -134.5l-24 -18q45 -35 67.5 -71t22.5 -93q0 -29 -6 -66q-25 -143 -137.5 -228t-258.5 -85q-131 0 -211 68.5t-80 183.5q0 31 7 61l10 56h225l-10 -56q-8 -43 20.5 -65.5t77.5 -22.5q51 0 87 22.5t44 65.5q2 10 2 29 q0 51 -33.5 75.5t-105.5 49.5q-55 18 -93 35.5t-69 48.5q-82 82 -82 188q0 72 40 144.5t114 134.5q4 4 22 16q-43 37 -65.5 73t-22.5 95q0 29 7 66q25 143 137 228t258 85q131 0 211 -68.5t80 -183.5q0 -31 -7 -61l-10 -54h-225z" glyph-name="section" horiz-adv-x="835" unicode="§"/><glyph d="M321.5 1537q-24.5 30 -18.5 71q8 43 43 72.5t76 29.5q37 0 60.5 -23.5t23.5 -60.5q0 -12 -2 -18q-6 -41 -41 -71t-76 -30t-65.5 30zM632.5 1537q-24.5 30 -18.5 71q8 43 43 72.5t76 29.5q37 0 60.5 -23.5t23.5 -60.5q0 -12 -2 -18q-6 -41 -41 -71t-76 -30t-65.5 30z" glyph-name="dieresis" horiz-adv-x="552" unicode="¨"/><glyph d="M328 1094q123 168 302 262t380 94q176 0 311 -73.5t210 -208t75 -308.5q0 -70 -13 -143q-37 -209 -159.5 -377t-302 -262t-379.5 -94q-176 0 -312.5 73.5t-211 206.5t-74.5 307q0 55 14 146q37 209 160 377zM305 596q0 -137 58.5 -243.5t165 -166t247.5 -59.5 q160 0 302.5 76t239.5 211t128 303q10 68 10 117q0 139 -59.5 246.5t-166 167t-247.5 59.5q-160 0 -302 -76t-239.5 -211t-126.5 -303q-10 -51 -10 -121zM1061.5 336q-107.5 -96 -264.5 -96q-135 0 -211 71.5t-76 198.5q0 43 8 82l43 250q29 162 137.5 257t266.5 95 q135 0 209.5 -71.5t74.5 -196.5q0 -43 -8 -84l-6 -41h-225l6 41q6 29 6 49q0 41 -22.5 59.5t-75.5 18.5q-61 0 -93 -29t-45 -98l-43 -250q-4 -33 -4 -45q0 -43 22.5 -62.5t74.5 -19.5q63 0 94 29.5t43 97.5l6 41h225l-6 -41q-29 -160 -136.5 -256z" glyph-name="copyright" horiz-adv-x="1507" unicode="©"/><glyph d="M967 1282l-219 -547l26 -547h-231l-25 547l217 547h232zM610 1282l-219 -547l27 -547h-232l-24 547l217 547h231z" glyph-name="guillemotleft" horiz-adv-x="774" unicode="«"/><glyph d="M328 1094q123 168 302 262t380 94q176 0 311 -73.5t210 -208t75 -308.5q0 -70 -13 -143q-37 -209 -159.5 -377t-302 -262t-379.5 -94q-176 0 -312.5 73.5t-211 206.5t-74.5 307q0 55 14 146q37 209 160 377zM305 596q0 -137 58.5 -243.5t165 -166t247.5 -59.5 q160 0 302.5 76t239.5 211t128 303q10 68 10 117q0 139 -59.5 246.5t-166 167t-247.5 59.5q-160 0 -302 -76t-239.5 -211t-126.5 -303q-10 -51 -10 -121zM707 301h-226l148 832h340q141 0 221 -70t80 -172q0 -72 -40 -144.5t-116 -132.5q-8 -6 -39 -24l84 -289h-227l-55 229 h-129zM786 756h115q61 0 98 25.5t37 58.5q0 29 -27.5 48t-80.5 19h-115z" glyph-name="registered" horiz-adv-x="1507" unicode="®"/><glyph d="M741 1509h-454l20 113h455z" glyph-name="macron" horiz-adv-x="495" unicode="¯"/><glyph d="M399 1509h-112l151 226h226z" glyph-name="acute" horiz-adv-x="378" unicode="´"/><glyph d="M1012 1434l-252 -1434h-225l213 1208h-41l-213 -1208h-226l105 586q-76 18 -125 73q-63 72 -64 185q0 41 9 82l26 155q29 166 150 269q109 84 252 84h391z" glyph-name="paragraph" horiz-adv-x="841" unicode="¶"/><glyph d="M442 756q0 -12 -2 -21q-8 -47 -48 -80.5t-87 -33.5q-43 0 -69.5 27.5t-26.5 68.5q0 12 2 18q10 47 49 81t86 34q41 0 68.5 -26.5t27.5 -67.5z" glyph-name="periodcentered" horiz-adv-x="393" unicode="·"/><glyph d="M221 -245q-49 -42 -108 -42q-51 0 -86 34t-35 85q0 14 2 23h112q-2 -12 6.5 -20.5t20.5 -8.5t21.5 8t11.5 21q4 12 1 18t-20 18q-43 35 -43 89q0 14 2 20v2h113v-2q0 -10 10 -16q27 -23 40.5 -42.5t13.5 -56.5q0 -10 -4 -30q-9 -58 -58 -100z" glyph-name="cedilla" horiz-adv-x="325" unicode="¸"/><glyph d="M258 1282h231l25 -547l-217 -547h-231l219 547zM614 1282h232l24 -547l-217 -547h-231l219 547z" glyph-name="guillemotright" horiz-adv-x="774" unicode="»"/><glyph d="M625 1298q0 12 2 21q8 47 47 81t86 34q45 0 72.5 -28t27.5 -69l-2 -18q-10 -49 -49 -83t-88 -34q-41 0 -68.5 27.5t-27.5 68.5zM813 1096l-12 -70q-18 -104 -62.5 -186t-126.5 -146q-100 -76 -144 -114.5t-72.5 -82.5t-39.5 -108l-8 -55q-4 -25 -4 -43q0 -41 16 -60 q23 -25 80 -24q59 0 88 24q35 25 50 103l18 125h225l-18 -125q-33 -172 -150 -268q-106 -84 -254 -84q-147 0 -221 84q-63 72 -63 184q0 43 8 84l8 55q18 104 62.5 186t125.5 144q100 76 144.5 114.5t73 84t38.5 108.5l13 70h225z" glyph-name="questiondown" horiz-adv-x="804" unicode="¿"/><glyph d="M596 0v227h-258l-82 -227h-229l538 1434h226l34 -1434h-229zM416 453h180v514zM647 1509l-186 226h225l74 -226h-113z" glyph-name="Agrave" unicode="À"/><glyph d="M596 0v227h-258l-82 -227h-229l538 1434h226l34 -1434h-229zM416 453h180v514zM758 1509h-113l152 226h225z" glyph-name="Aacute" unicode="Á"/><glyph d="M596 0v227h-258l-82 -227h-229l538 1434h226l34 -1434h-229zM416 453h180v514zM918 1509h-113l-92 113l-133 -113h-115l153 226h226z" glyph-name="Acircumflex" unicode="Â"/><glyph d="M596 0v227h-258l-82 -227h-229l538 1434h226l34 -1434h-229zM416 453h180v514zM598 1571q-35 -6 -88 -66l-80 68q88 90 164 108q25 4 39 5q61 0 119 -44q39 -29 67 -22q35 10 84 66l80 -66q-102 -115 -192 -115q-59 0 -117 43q-43 31 -76 23z" glyph-name="Atilde" unicode="Ã"/><glyph d="M596 0v227h-258l-82 -227h-229l538 1434h226l34 -1434h-229zM416 453h180v514zM471 1537q-25 30 -18 71q8 43 42.5 72.5t75.5 29.5q37 0 60.5 -23.5t23.5 -60.5q0 -12 -2 -18q-6 -41 -40.5 -71t-75.5 -30t-66 30zM782.5 1537q-24.5 30 -18.5 71q8 43 43 72.5t76 29.5 q37 0 60.5 -23.5t23.5 -60.5q0 -12 -2 -18q-6 -41 -41 -71t-76 -30t-65.5 30z" glyph-name="Adieresis" unicode="Ä"/><glyph d="M596 0v227h-258l-82 -227h-229l538 1434h226l34 -1434h-229zM416 453h180v514zM801 1557.5q-49 -41.5 -109 -41.5q-53 0 -86 32.5t-33 81.5q0 18 2 27q10 59 59.5 101t108.5 42q51 0 85 -33.5t34 -83.5q0 -18 -2 -26q-10 -58 -59 -99.5zM742.5 1678.5q-7.5 9.5 -19.5 9.5 t-22.5 -9.5t-12.5 -21.5t5 -20.5t20 -8.5q12 0 21 8.5t14 20.5q2 12 -5.5 21.5z" glyph-name="Aring" unicode="Å"/><glyph d="M16 0l580 1434h776l-39 -226h-368l-64 -360h254l-39 -225h-254l-71 -398h368l-39 -225h-594l39 225h-227l-90 -225h-232zM606 451l133 759l-307 -759h174z" glyph-name="AE" horiz-adv-x="1177" unicode="Æ"/><glyph d="M690 973l23 127q4 29 4 49q0 39 -15 53q-25 25 -81 25q-59 0 -89 -25q-35 -27 -49 -102l-135 -762q-4 -25 -4 -43q0 -41 16 -59q25 -25 80 -25q61 0 90 25q33 27 48 102l32 184h226l-33 -184q-29 -170 -150 -268q-82 -68 -198 -80v-2q0 -10 8 -17q27 -23 40 -42t13 -56 q0 -10 -4 -31q-8 -57 -57 -99t-109 -42q-51 0 -85 34t-34 85q0 14 2 22h113v-4q0 -10 7 -17t18 -7q12 0 21 8t11 20l2 8q0 8 -9 17.5t-11 11.5q-41 33 -41 86q0 14 2 23v2q-102 16 -164 80q-63 78 -63 188q0 23 8 80l135 762q29 166 150 268q109 84 251 84q150 0 224 -84 q63 -72 63 -186q0 -41 -8 -82l-23 -127h-225z" glyph-name="Ccedilla" horiz-adv-x="798" unicode="Ç"/><glyph d="M889 1208h-369l-63 -360h254l-39 -225h-254l-72 -398h369l-39 -225h-594l252 1434h594zM590 1509l-187 226h226l73 -226h-112z" glyph-name="Egrave" horiz-adv-x="733" unicode="È"/><glyph d="M889 1208h-369l-63 -360h254l-39 -225h-254l-72 -398h369l-39 -225h-594l252 1434h594zM700 1509h-112l151 226h226z" glyph-name="Eacute" horiz-adv-x="733" unicode="É"/><glyph d="M889 1208h-369l-63 -360h254l-39 -225h-254l-72 -398h369l-39 -225h-594l252 1434h594zM883 1509h-113l-92 113l-133 -113h-115l154 226h225z" glyph-name="Ecircumflex" horiz-adv-x="733" unicode="Ê"/><glyph d="M889 1208h-369l-63 -360h254l-39 -225h-254l-72 -398h369l-39 -225h-594l252 1434h594zM424 1537q-25 30 -18 71q8 43 42.5 72.5t75.5 29.5q37 0 60.5 -23.5t23.5 -60.5q0 -12 -2 -18q-6 -41 -41 -71t-76 -30q-40 0 -65 30zM735.5 1537q-24.5 30 -18.5 71q8 43 43 72.5 t76 29.5q37 0 60.5 -23.5t23.5 -60.5q0 -12 -2 -18q-6 -41 -41 -71t-76 -30t-65.5 30z" glyph-name="Edieresis" horiz-adv-x="733" unicode="Ë"/><glyph d="M307 0h-225l252 1434h225zM406 1509l-187 226h225l74 -226h-112z" glyph-name="Igrave" horiz-adv-x="389" unicode="Ì"/><glyph d="M307 0h-225l252 1434h225zM516 1509h-113l152 226h225z" glyph-name="Iacute" horiz-adv-x="389" unicode="Í"/><glyph d="M307 0h-225l252 1434h225zM686 1509h-113l-92 113l-133 -113h-115l154 226h225z" glyph-name="Icircumflex" horiz-adv-x="387" unicode="Î"/><glyph d="M307 0h-225l252 1434h225zM239.5 1537q-24.5 30 -18.5 71q8 43 43 72.5t76 29.5q37 0 60.5 -23.5t23.5 -60.5q0 -12 -2 -18q-6 -41 -41 -71t-76 -30t-65.5 30zM550.5 1537q-24.5 30 -18.5 71q8 43 43 72.5t76 29.5q37 0 60.5 -23.5t23.5 -60.5q0 -12 -2 -18 q-6 -41 -41 -71t-76 -30t-65.5 30z" glyph-name="Idieresis" horiz-adv-x="389" unicode="Ï"/><glyph d="M971 1163q0 -41 -8 -82l-129 -737q-14 -80 -52 -149q-41 -72 -100 -115q-104 -80 -250 -80h-340l107 602h-82l39 225h82l106 607h340q147 0 223 -86q64 -72 64 -185zM737 1081q4 25 4 43q0 41 -16 60q-23 25 -80 24h-115l-67 -381h102l-39 -225h-102l-68 -377h115 q63 0 90 23q33 25 47 96z" glyph-name="Eth" horiz-adv-x="835" unicode="Ð"/><glyph d="M1026 1434l-252 -1434h-131l-215 727l-129 -727h-225l252 1434h131l217 -725l127 725h225zM596 1571q-35 -6 -88 -66l-80 68q88 90 164 108q25 4 39 5q61 0 119 -44q39 -29 67 -22q35 10 84 66l80 -66q-102 -115 -193 -115q-59 0 -116 43q-43 31 -76 23z" glyph-name="Ntilde" horiz-adv-x="847" unicode="Ñ"/><glyph d="M653 68q-106 -84 -252 -84q-150 0 -223 84q-63 72 -63 186q0 41 8 82l135 762q29 170 150 268q102 84 251 84q145 0 224 -84q63 -72 63 -186q0 -41 -8 -82l-135 -762q-29 -170 -150 -268zM698 1200q-20 25 -80 25q-55 0 -88 -25q-20 -16 -31.5 -45t-15.5 -57l-135 -762 q-4 -25 -4 -43q0 -41 16 -60q23 -25 80 -24q59 0 88 24q35 25 50 103l135 762q4 25 4 43q-1 41 -19 59zM614 1509l-186 226h225l74 -226h-113z" glyph-name="Ograve" horiz-adv-x="806" unicode="Ò"/><glyph d="M653 68q-106 -84 -252 -84q-150 0 -223 84q-63 72 -63 186q0 41 8 82l135 762q29 170 150 268q102 84 251 84q145 0 224 -84q63 -72 63 -186q0 -41 -8 -82l-135 -762q-29 -170 -150 -268zM698 1200q-20 25 -80 25q-55 0 -88 -25q-20 -16 -31.5 -45t-15.5 -57l-135 -762 q-4 -25 -4 -43q0 -41 16 -60q23 -25 80 -24q59 0 88 24q35 25 50 103l135 762q4 25 4 43q-1 41 -19 59zM725 1509h-113l152 226h225z" glyph-name="Oacute" horiz-adv-x="806" unicode="Ó"/><glyph d="M653 68q-106 -84 -252 -84q-150 0 -223 84q-63 72 -63 186q0 41 8 82l135 762q29 170 150 268q102 84 251 84q145 0 224 -84q63 -72 63 -186q0 -41 -8 -82l-135 -762q-29 -170 -150 -268zM698 1200q-20 25 -80 25q-55 0 -88 -25q-20 -16 -31.5 -45t-15.5 -57l-135 -762 q-4 -25 -4 -43q0 -41 16 -60q23 -25 80 -24q59 0 88 24q35 25 50 103l135 762q4 25 4 43q-1 41 -19 59zM444 1509l152 226h225l76 -226h-115l-92 113l-133 -113h-113z" glyph-name="Ocircumflex" horiz-adv-x="806" unicode="Ô"/><glyph d="M342 287q0 -98 96 -99q119 0 142 142l137 774q4 16 4 45q0 96 -96 96q-117 0 -142 -141l-137 -774q-4 -33 -4 -43zM391.5 1356q104.5 94 270.5 94q141 0 213.5 -67.5t72.5 -196.5q0 -49 -8 -96l-131 -746q-31 -172 -135.5 -266t-270.5 -94q-141 0 -213.5 67.5 t-72.5 196.5q0 49 8 96l131 746q31 172 135.5 266zM578 1571q-35 -6 -89 -66l-79 68q88 90 163 108q25 4 39 5q59 0 119 -44q39 -29 68 -22q35 10 84 66l80 -66q-102 -115 -193 -115q-59 0 -117 43q-42 31 -75 23z" glyph-name="Otilde" horiz-adv-x="811" unicode="Õ"/><glyph d="M653 68q-106 -84 -252 -84q-150 0 -223 84q-63 72 -63 186q0 41 8 82l135 762q29 170 150 268q102 84 251 84q145 0 224 -84q63 -72 63 -186q0 -41 -8 -82l-135 -762q-29 -170 -150 -268zM698 1200q-20 25 -80 25q-55 0 -88 -25q-20 -16 -31.5 -45t-15.5 -57l-135 -762 q-4 -25 -4 -43q0 -41 16 -60q23 -25 80 -24q59 0 88 24q35 25 50 103l135 762q4 25 4 43q-1 41 -19 59zM448.5 1537q-24.5 30 -18.5 71q8 43 43 72.5t76 29.5q37 0 60.5 -23.5t23.5 -60.5q0 -12 -2 -18q-6 -41 -41 -71t-76 -30t-65.5 30zM759.5 1537q-24.5 30 -18.5 71 q8 43 43 72.5t76 29.5q37 0 60.5 -23.5t23.5 -60.5q0 -12 -2 -18q-6 -41 -41 -71t-76 -30t-65.5 30z" glyph-name="Odieresis" horiz-adv-x="806" unicode="Ö"/><glyph d="M852 887l-176 -152l123 -149l-191 -162l-121 151l-180 -151l-133 162l178 149l-125 152l191 162l125 -152l176 152z" glyph-name="multiply" horiz-adv-x="768" unicode="×"/><glyph d="M936 1257q8 -31 8 -75q0 -43 -8 -86l-133 -762q-33 -172 -150 -268q-106 -84 -254 -84q-147 0 -221 84l-72 -113l-94 47l111 174q-8 49 -8 80q0 41 8 80l133 762q31 168 150 268q106 84 253 84t222 -82l71 113l95 -45zM395 602l318 498q4 25 4 37q0 43 -19 61 q-20 25 -80 25q-55 0 -88 -25q-35 -27 -49 -102zM664 829l-316 -497q-4 -25 -4 -43q0 -39 16 -58q23 -25 80 -24q59 0 88 24q35 25 50 103z" glyph-name="Oslash" horiz-adv-x="806" unicode="Ø"/><glyph d="M662 68q-109 -84 -252 -84q-150 0 -224 84q-63 72 -63 186q0 41 8 82l193 1098h225l-193 -1098q-4 -29 -4 -49q0 -39 15 -54q23 -25 82 -24q55 0 88 24q35 27 49 103l192 1098h226l-193 -1098q-28 -166 -149 -268zM623 1509l-187 226h226l73 -226h-112z" glyph-name="Ugrave" horiz-adv-x="823" unicode="Ù"/><glyph d="M662 68q-109 -84 -252 -84q-150 0 -224 84q-63 72 -63 186q0 41 8 82l193 1098h225l-193 -1098q-4 -29 -4 -49q0 -39 15 -54q23 -25 82 -24q55 0 88 24q35 27 49 103l192 1098h226l-193 -1098q-28 -166 -149 -268zM733 1509h-112l151 226h225z" glyph-name="Uacute" horiz-adv-x="823" unicode="Ú"/><glyph d="M662 68q-109 -84 -252 -84q-150 0 -224 84q-63 72 -63 186q0 41 8 82l193 1098h225l-193 -1098q-4 -29 -4 -49q0 -39 15 -54q23 -25 82 -24q55 0 88 24q35 27 49 103l192 1098h226l-193 -1098q-28 -166 -149 -268zM903 1509h-112l-93 113l-133 -113h-114l153 226h225z " glyph-name="Ucircumflex" horiz-adv-x="823" unicode="Û"/><glyph d="M662 68q-109 -84 -252 -84q-150 0 -224 84q-63 72 -63 186q0 41 8 82l193 1098h225l-193 -1098q-4 -29 -4 -49q0 -39 15 -54q23 -25 82 -24q55 0 88 24q35 27 49 103l192 1098h226l-193 -1098q-28 -166 -149 -268zM456.5 1537q-24.5 30 -18.5 71q8 43 43 72.5t76 29.5 q37 0 60.5 -23.5t23.5 -60.5q0 -12 -2 -18q-6 -41 -41 -71t-76 -30t-65.5 30zM768 1537q-25 30 -18 71q8 43 42.5 72.5t75.5 29.5q37 0 60.5 -23.5t23.5 -60.5q0 -12 -2 -18q-6 -41 -41 -71t-75 -30q-41 0 -66 30z" glyph-name="Udieresis" horiz-adv-x="823" unicode="Ü"/><glyph d="M1044 1434l-442 -930l-88 -504h-227l88 504l-113 930h238l61 -514l246 514h237zM723 1509h-113l152 226h225z" glyph-name="Yacute" horiz-adv-x="802" unicode="Ý"/><glyph d="M500 1090l-72 -410h115q55 0 88 25q33 27 47 102l29 156q4 25 4 43q0 41 -17 59q-25 25 -80 25h-114zM387 455l-80 -455h-225l252 1434h225l-20 -119h114q147 0 224 -86q63 -72 63 -185q0 -41 -8 -81l-29 -156q-31 -176 -149 -268q-102 -84 -252 -84h-115z" glyph-name="Thorn" horiz-adv-x="802" unicode="Þ"/><glyph d="M854 557q0 -41 -8 -82l-23 -131q-16 -90 -53 -149q-37 -70 -98 -115q-100 -80 -250 -80h-33l41 225h33q59 0 90 23q31 25 45 96l23 131q4 29 4 45q0 39 -17 58q-23 25 -80 24h-32l41 225q57 0 90 25q35 31 49 102l22 133q4 29 4 43q0 39 -14 56q-20 23 -67 22 q-45 0 -74 -22q-35 -29 -47 -99l-193 -1087h-225l192 1087q16 90 54 152q37 70 98 115q104 80 233 80q131 0 207 -80q45 -49 58 -115q8 -31 8 -72t-8 -80l-23 -133q-27 -145 -121 -221q74 -59 74 -176z" glyph-name="germandbls" horiz-adv-x="815" unicode="ß"/><glyph d="M596 0v227h-258l-82 -227h-229l538 1434h226l34 -1434h-229zM416 453h180v514zM647 1509l-186 226h225l74 -226h-113z" glyph-name="agrave" unicode="à"/><glyph d="M596 0v227h-258l-82 -227h-229l538 1434h226l34 -1434h-229zM416 453h180v514zM758 1509h-113l152 226h225z" glyph-name="aacute" unicode="á"/><glyph d="M596 0v227h-258l-82 -227h-229l538 1434h226l34 -1434h-229zM416 453h180v514zM918 1509h-113l-92 113l-133 -113h-115l153 226h226z" glyph-name="acircumflex" unicode="â"/><glyph d="M596 0v227h-258l-82 -227h-229l538 1434h226l34 -1434h-229zM416 453h180v514zM598 1571q-35 -6 -88 -66l-80 68q88 90 164 108q25 4 39 5q61 0 119 -44q39 -29 67 -22q35 10 84 66l80 -66q-102 -115 -192 -115q-59 0 -117 43q-43 31 -76 23z" glyph-name="atilde" unicode="ã"/><glyph d="M596 0v227h-258l-82 -227h-229l538 1434h226l34 -1434h-229zM416 453h180v514zM471 1537q-25 30 -18 71q8 43 42.5 72.5t75.5 29.5q37 0 60.5 -23.5t23.5 -60.5q0 -12 -2 -18q-6 -41 -40.5 -71t-75.5 -30t-66 30zM782.5 1537q-24.5 30 -18.5 71q8 43 43 72.5t76 29.5 q37 0 60.5 -23.5t23.5 -60.5q0 -12 -2 -18q-6 -41 -41 -71t-76 -30t-65.5 30z" glyph-name="adieresis" unicode="ä"/><glyph d="M596 0v227h-258l-82 -227h-229l538 1434h226l34 -1434h-229zM416 453h180v514zM801 1557.5q-49 -41.5 -109 -41.5q-53 0 -86 32.5t-33 81.5q0 18 2 27q10 59 59.5 101t108.5 42q51 0 85 -33.5t34 -83.5q0 -18 -2 -26q-10 -58 -59 -99.5zM742.5 1678.5q-7.5 9.5 -19.5 9.5 t-22.5 -9.5t-12.5 -21.5t5 -20.5t20 -8.5q12 0 21 8.5t14 20.5q2 12 -5.5 21.5z" glyph-name="aring" unicode="å"/><glyph d="M16 0l580 1434h776l-39 -226h-368l-64 -360h254l-39 -225h-254l-71 -398h368l-39 -225h-594l39 225h-227l-90 -225h-232zM606 451l133 759l-307 -759h174z" glyph-name="ae" horiz-adv-x="1177" unicode="æ"/><glyph d="M690 973l23 127q4 29 4 49q0 39 -15 53q-25 25 -81 25q-59 0 -89 -25q-35 -27 -49 -102l-135 -762q-4 -25 -4 -43q0 -41 16 -59q25 -25 80 -25q61 0 90 25q33 27 48 102l32 184h226l-33 -184q-29 -170 -150 -268q-82 -68 -198 -80v-2q0 -10 8 -17q27 -23 40 -42t13 -56 q0 -10 -4 -31q-8 -57 -57 -99t-109 -42q-51 0 -85 34t-34 85q0 14 2 22h113v-4q0 -10 7 -17t18 -7q12 0 21 8t11 20l2 8q0 8 -9 17.5t-11 11.5q-41 33 -41 86q0 14 2 23v2q-102 16 -164 80q-63 78 -63 188q0 23 8 80l135 762q29 166 150 268q109 84 251 84q150 0 224 -84 q63 -72 63 -186q0 -41 -8 -82l-23 -127h-225z" glyph-name="ccedilla" horiz-adv-x="798" unicode="ç"/><glyph d="M889 1208h-369l-63 -360h254l-39 -225h-254l-72 -398h369l-39 -225h-594l252 1434h594zM590 1509l-187 226h226l73 -226h-112z" glyph-name="egrave" horiz-adv-x="733" unicode="è"/><glyph d="M889 1208h-369l-63 -360h254l-39 -225h-254l-72 -398h369l-39 -225h-594l252 1434h594zM700 1509h-112l151 226h226z" glyph-name="eacute" horiz-adv-x="733" unicode="é"/><glyph d="M889 1208h-369l-63 -360h254l-39 -225h-254l-72 -398h369l-39 -225h-594l252 1434h594zM883 1509h-113l-92 113l-133 -113h-115l154 226h225z" glyph-name="ecircumflex" horiz-adv-x="733" unicode="ê"/><glyph d="M889 1208h-369l-63 -360h254l-39 -225h-254l-72 -398h369l-39 -225h-594l252 1434h594zM424 1537q-25 30 -18 71q8 43 42.5 72.5t75.5 29.5q37 0 60.5 -23.5t23.5 -60.5q0 -12 -2 -18q-6 -41 -41 -71t-76 -30q-40 0 -65 30zM735.5 1537q-24.5 30 -18.5 71q8 43 43 72.5 t76 29.5q37 0 60.5 -23.5t23.5 -60.5q0 -12 -2 -18q-6 -41 -41 -71t-76 -30t-65.5 30z" glyph-name="edieresis" horiz-adv-x="733" unicode="ë"/><glyph d="M307 0h-225l252 1434h225zM406 1509l-187 226h225l74 -226h-112z" glyph-name="igrave" horiz-adv-x="389" unicode="ì"/><glyph d="M307 0h-225l252 1434h225zM516 1509h-113l152 226h225z" glyph-name="iacute" horiz-adv-x="389" unicode="í"/><glyph d="M307 0h-225l252 1434h225zM686 1509h-113l-92 113l-133 -113h-115l154 226h225z" glyph-name="icircumflex" horiz-adv-x="387" unicode="î"/><glyph d="M307 0h-225l252 1434h225zM239.5 1537q-24.5 30 -18.5 71q8 43 43 72.5t76 29.5q37 0 60.5 -23.5t23.5 -60.5q0 -12 -2 -18q-6 -41 -41 -71t-76 -30t-65.5 30zM550.5 1537q-24.5 30 -18.5 71q8 43 43 72.5t76 29.5q37 0 60.5 -23.5t23.5 -60.5q0 -12 -2 -18 q-6 -41 -41 -71t-76 -30t-65.5 30z" glyph-name="idieresis" horiz-adv-x="389" unicode="ï"/><glyph d="M971 1163q0 -41 -8 -82l-129 -737q-14 -80 -52 -149q-41 -72 -100 -115q-104 -80 -250 -80h-340l107 602h-82l39 225h82l106 607h340q147 0 223 -86q64 -72 64 -185zM737 1081q4 25 4 43q0 41 -16 60q-23 25 -80 24h-115l-67 -381h102l-39 -225h-102l-68 -377h115 q63 0 90 23q33 25 47 96z" glyph-name="eth" horiz-adv-x="835" unicode="ð"/><glyph d="M1026 1434l-252 -1434h-131l-215 727l-129 -727h-225l252 1434h131l217 -725l127 725h225zM596 1571q-35 -6 -88 -66l-80 68q88 90 164 108q25 4 39 5q61 0 119 -44q39 -29 67 -22q35 10 84 66l80 -66q-102 -115 -193 -115q-59 0 -116 43q-43 31 -76 23z" glyph-name="ntilde" horiz-adv-x="847" unicode="ñ"/><glyph d="M653 68q-106 -84 -252 -84q-150 0 -223 84q-63 72 -63 186q0 41 8 82l135 762q29 170 150 268q102 84 251 84q145 0 224 -84q63 -72 63 -186q0 -41 -8 -82l-135 -762q-29 -170 -150 -268zM698 1200q-20 25 -80 25q-55 0 -88 -25q-20 -16 -31.5 -45t-15.5 -57l-135 -762 q-4 -25 -4 -43q0 -41 16 -60q23 -25 80 -24q59 0 88 24q35 25 50 103l135 762q4 25 4 43q-1 41 -19 59zM614 1509l-186 226h225l74 -226h-113z" glyph-name="ograve" horiz-adv-x="806" unicode="ò"/><glyph d="M653 68q-106 -84 -252 -84q-150 0 -223 84q-63 72 -63 186q0 41 8 82l135 762q29 170 150 268q102 84 251 84q145 0 224 -84q63 -72 63 -186q0 -41 -8 -82l-135 -762q-29 -170 -150 -268zM698 1200q-20 25 -80 25q-55 0 -88 -25q-20 -16 -31.5 -45t-15.5 -57l-135 -762 q-4 -25 -4 -43q0 -41 16 -60q23 -25 80 -24q59 0 88 24q35 25 50 103l135 762q4 25 4 43q-1 41 -19 59zM725 1509h-113l152 226h225z" glyph-name="oacute" horiz-adv-x="806" unicode="ó"/><glyph d="M653 68q-106 -84 -252 -84q-150 0 -223 84q-63 72 -63 186q0 41 8 82l135 762q29 170 150 268q102 84 251 84q145 0 224 -84q63 -72 63 -186q0 -41 -8 -82l-135 -762q-29 -170 -150 -268zM698 1200q-20 25 -80 25q-55 0 -88 -25q-20 -16 -31.5 -45t-15.5 -57l-135 -762 q-4 -25 -4 -43q0 -41 16 -60q23 -25 80 -24q59 0 88 24q35 25 50 103l135 762q4 25 4 43q-1 41 -19 59zM444 1509l152 226h225l76 -226h-115l-92 113l-133 -113h-113z" glyph-name="ocircumflex" horiz-adv-x="806" unicode="ô"/><glyph d="M342 287q0 -98 96 -99q119 0 142 142l137 774q4 16 4 45q0 96 -96 96q-117 0 -142 -141l-137 -774q-4 -33 -4 -43zM391.5 1356q104.5 94 270.5 94q141 0 213.5 -67.5t72.5 -196.5q0 -49 -8 -96l-131 -746q-31 -172 -135.5 -266t-270.5 -94q-141 0 -213.5 67.5 t-72.5 196.5q0 49 8 96l131 746q31 172 135.5 266zM578 1571q-35 -6 -89 -66l-79 68q88 90 163 108q25 4 39 5q59 0 119 -44q39 -29 68 -22q35 10 84 66l80 -66q-102 -115 -193 -115q-59 0 -117 43q-42 31 -75 23z" glyph-name="otilde" horiz-adv-x="811" unicode="õ"/><glyph d="M653 68q-106 -84 -252 -84q-150 0 -223 84q-63 72 -63 186q0 41 8 82l135 762q29 170 150 268q102 84 251 84q145 0 224 -84q63 -72 63 -186q0 -41 -8 -82l-135 -762q-29 -170 -150 -268zM698 1200q-20 25 -80 25q-55 0 -88 -25q-20 -16 -31.5 -45t-15.5 -57l-135 -762 q-4 -25 -4 -43q0 -41 16 -60q23 -25 80 -24q59 0 88 24q35 25 50 103l135 762q4 25 4 43q-1 41 -19 59zM448.5 1537q-24.5 30 -18.5 71q8 43 43 72.5t76 29.5q37 0 60.5 -23.5t23.5 -60.5q0 -12 -2 -18q-6 -41 -41 -71t-76 -30t-65.5 30zM759.5 1537q-24.5 30 -18.5 71 q8 43 43 72.5t76 29.5q37 0 60.5 -23.5t23.5 -60.5q0 -12 -2 -18q-6 -41 -41 -71t-76 -30t-65.5 30z" glyph-name="odieresis" horiz-adv-x="806" unicode="ö"/><glyph d="M774 621h-594l41 227h594zM664 1036q0 -12 -2 -20q-8 -47 -47.5 -81t-86.5 -34q-43 0 -70.5 27.5t-27.5 68.5l2 19q10 47 49 80.5t86 33.5q41 0 69 -26.5t28 -67.5zM565 471q0 -12 -2 -18q-8 -47 -48 -81t-87 -34q-43 0 -69.5 27.5t-26.5 68.5q0 12 2 19q8 47 48 80.5 t87 33.5q43 0 69.5 -27.5t26.5 -68.5z" glyph-name="divide" horiz-adv-x="737" unicode="÷"/><glyph d="M936 1257q8 -31 8 -75q0 -43 -8 -86l-133 -762q-33 -172 -150 -268q-106 -84 -254 -84q-147 0 -221 84l-72 -113l-94 47l111 174q-8 49 -8 80q0 41 8 80l133 762q31 168 150 268q106 84 253 84t222 -82l71 113l95 -45zM395 602l318 498q4 25 4 37q0 43 -19 61 q-20 25 -80 25q-55 0 -88 -25q-35 -27 -49 -102zM664 829l-316 -497q-4 -25 -4 -43q0 -39 16 -58q23 -25 80 -24q59 0 88 24q35 25 50 103z" glyph-name="oslash" horiz-adv-x="806" unicode="ø"/><glyph d="M662 68q-109 -84 -252 -84q-150 0 -224 84q-63 72 -63 186q0 41 8 82l193 1098h225l-193 -1098q-4 -29 -4 -49q0 -39 15 -54q23 -25 82 -24q55 0 88 24q35 27 49 103l192 1098h226l-193 -1098q-28 -166 -149 -268zM623 1509l-187 226h226l73 -226h-112z" glyph-name="ugrave" horiz-adv-x="823" unicode="ù"/><glyph d="M662 68q-109 -84 -252 -84q-150 0 -224 84q-63 72 -63 186q0 41 8 82l193 1098h225l-193 -1098q-4 -29 -4 -49q0 -39 15 -54q23 -25 82 -24q55 0 88 24q35 27 49 103l192 1098h226l-193 -1098q-28 -166 -149 -268zM733 1509h-112l151 226h225z" glyph-name="uacute" horiz-adv-x="823" unicode="ú"/><glyph d="M662 68q-109 -84 -252 -84q-150 0 -224 84q-63 72 -63 186q0 41 8 82l193 1098h225l-193 -1098q-4 -29 -4 -49q0 -39 15 -54q23 -25 82 -24q55 0 88 24q35 27 49 103l192 1098h226l-193 -1098q-28 -166 -149 -268zM903 1509h-112l-93 113l-133 -113h-114l153 226h225z " glyph-name="ucircumflex" horiz-adv-x="823" unicode="û"/><glyph d="M662 68q-109 -84 -252 -84q-150 0 -224 84q-63 72 -63 186q0 41 8 82l193 1098h225l-193 -1098q-4 -29 -4 -49q0 -39 15 -54q23 -25 82 -24q55 0 88 24q35 27 49 103l192 1098h226l-193 -1098q-28 -166 -149 -268zM456.5 1537q-24.5 30 -18.5 71q8 43 43 72.5t76 29.5 q37 0 60.5 -23.5t23.5 -60.5q0 -12 -2 -18q-6 -41 -41 -71t-76 -30t-65.5 30zM768 1537q-25 30 -18 71q8 43 42.5 72.5t75.5 29.5q37 0 60.5 -23.5t23.5 -60.5q0 -12 -2 -18q-6 -41 -41 -71t-75 -30q-41 0 -66 30z" glyph-name="udieresis" horiz-adv-x="823" unicode="ü"/><glyph d="M1044 1434l-442 -930l-88 -504h-227l88 504l-113 930h238l61 -514l246 514h237zM723 1509h-113l152 226h225z" glyph-name="yacute" horiz-adv-x="802" unicode="ý"/><glyph d="M500 1090l-72 -410h115q55 0 88 25q33 27 47 102l29 156q4 25 4 43q0 41 -17 59q-25 25 -80 25h-114zM387 455l-80 -455h-225l252 1434h225l-20 -119h114q147 0 224 -86q63 -72 63 -185q0 -41 -8 -81l-29 -156q-31 -176 -149 -268q-102 -84 -252 -84h-115z" glyph-name="thorn" horiz-adv-x="802" unicode="þ"/><glyph d="M1044 1434l-442 -930l-88 -504h-227l88 504l-113 930h238l61 -514l246 514h237zM446.5 1537q-24.5 30 -18.5 71q8 43 43 72.5t76 29.5q37 0 60.5 -23.5t23.5 -60.5q0 -12 -2 -18q-6 -41 -41 -71t-76 -30t-65.5 30zM757.5 1537q-24.5 30 -18.5 71q8 43 43 72.5t76 29.5 q37 0 60.5 -23.5t23.5 -60.5q0 -12 -2 -18q-6 -41 -41 -71t-76 -30t-65.5 30z" glyph-name="ydieresis" horiz-adv-x="802" unicode="ÿ"/><glyph d="M596 0v227h-258l-82 -227h-229l538 1434h226l34 -1434h-229zM416 453h180v514zM918 1509h-453l20 113h453z" glyph-name="Amacron" unicode="Ā"/><glyph d="M596 0v227h-258l-82 -227h-229l538 1434h226l34 -1434h-229zM416 453h180v514zM918 1509h-453l20 113h453z" glyph-name="amacron" unicode="ā"/><glyph d="M596 0v227h-258l-82 -227h-229l538 1434h226l34 -1434h-229zM416 453h180v514zM950 1726q-16 -90 -92 -154.5t-166 -64.5q-80 0 -132 51.5t-52 129.5q0 10 4 38h113q-2 -6 -2 -18q0 -39 24.5 -63.5t63.5 -24.5q45 0 81.5 30.5t45.5 75.5h112z" glyph-name="Abreve" unicode="Ă"/><glyph d="M596 0v227h-258l-82 -227h-229l538 1434h226l34 -1434h-229zM416 453h180v514zM950 1726q-16 -90 -92 -154.5t-166 -64.5q-80 0 -132 51.5t-52 129.5q0 10 4 38h113q-2 -6 -2 -18q0 -39 24.5 -63.5t63.5 -24.5q45 0 81.5 30.5t45.5 75.5h112z" glyph-name="abreve" unicode="ă"/><glyph d="M596 0v227h-258l-82 -227h-229l538 1434h226l34 -1434h-229zM416 453h180v514zM762 -279h-39q-68 0 -113 26t-45 77q0 12 2 18q10 49 52.5 92t91.5 66h114q-43 -8 -80.5 -42t-46.5 -73q-6 -29 16.5 -40t49.5 -11h18z" glyph-name="Aogonek" unicode="Ą"/><glyph d="M596 0v227h-258l-82 -227h-229l538 1434h226l34 -1434h-229zM416 453h180v514zM762 -279h-39q-68 0 -113 26t-45 77q0 12 2 18q10 49 52.5 92t91.5 66h114q-43 -8 -80.5 -42t-46.5 -73q-6 -29 16.5 -40t49.5 -11h18z" glyph-name="aogonek" unicode="ą"/><glyph d="M653 68q-106 -84 -252 -84q-145 0 -223 84q-63 78 -63 188q0 23 8 80l135 762q29 166 150 268q106 84 251 84t224 -84q63 -72 63 -186q0 -41 -8 -82l-23 -127h-225l23 127q4 29 4 45q0 39 -17 57q-23 25 -82 25q-55 0 -88 -25q-20 -16 -31.5 -45t-15.5 -57l-135 -762 q-4 -25 -4 -43q0 -41 16 -60q23 -25 80 -24q57 0 90 24q33 27 48 103l32 184h226l-33 -184q-29 -170 -150 -268zM715 1509h-113l152 226h225z" glyph-name="Cacute" horiz-adv-x="798" unicode="Ć"/><glyph d="M653 68q-106 -84 -252 -84q-145 0 -223 84q-63 78 -63 188q0 23 8 80l135 762q29 166 150 268q106 84 251 84t224 -84q63 -72 63 -186q0 -41 -8 -82l-23 -127h-225l23 127q4 29 4 45q0 39 -17 57q-23 25 -82 25q-55 0 -88 -25q-20 -16 -31.5 -45t-15.5 -57l-135 -762 q-4 -25 -4 -43q0 -41 16 -60q23 -25 80 -24q57 0 90 24q33 27 48 103l32 184h226l-33 -184q-29 -170 -150 -268zM715 1509h-113l152 226h225z" glyph-name="cacute" horiz-adv-x="798" unicode="ć"/><glyph d="M653 68q-106 -84 -252 -84q-145 0 -223 84q-63 78 -63 188q0 23 8 80l135 762q29 166 150 268q106 84 251 84t224 -84q63 -72 63 -186q0 -41 -8 -82l-23 -127h-225l23 127q4 29 4 45q0 39 -17 57q-23 25 -82 25q-55 0 -88 -25q-20 -16 -31.5 -45t-15.5 -57l-135 -762 q-4 -25 -4 -43q0 -41 16 -60q23 -25 80 -24q57 0 90 24q33 27 48 103l32 184h226l-33 -184q-29 -170 -150 -268zM604.5 1537q-24.5 30 -18.5 71q8 43 43 72.5t76 29.5q37 0 60 -23.5t23 -60.5q0 -12 -2 -18q-6 -41 -40.5 -71t-75.5 -30t-65.5 30z" glyph-name="Cdotaccent" horiz-adv-x="798" unicode="Ċ"/><glyph d="M653 68q-106 -84 -252 -84q-145 0 -223 84q-63 78 -63 188q0 23 8 80l135 762q29 166 150 268q106 84 251 84t224 -84q63 -72 63 -186q0 -41 -8 -82l-23 -127h-225l23 127q4 29 4 45q0 39 -17 57q-23 25 -82 25q-55 0 -88 -25q-20 -16 -31.5 -45t-15.5 -57l-135 -762 q-4 -25 -4 -43q0 -41 16 -60q23 -25 80 -24q57 0 90 24q33 27 48 103l32 184h226l-33 -184q-29 -170 -150 -268zM604.5 1537q-24.5 30 -18.5 71q8 43 43 72.5t76 29.5q37 0 60 -23.5t23 -60.5q0 -12 -2 -18q-6 -41 -40.5 -71t-75.5 -30t-65.5 30z" glyph-name="cdotaccent" horiz-adv-x="798" unicode="ċ"/><glyph d="M653 68q-106 -84 -252 -84q-145 0 -223 84q-63 78 -63 188q0 23 8 80l135 762q29 166 150 268q106 84 251 84t224 -84q63 -72 63 -186q0 -41 -8 -82l-23 -127h-225l23 127q4 29 4 45q0 39 -17 57q-23 25 -82 25q-55 0 -88 -25q-20 -16 -31.5 -45t-15.5 -57l-135 -762 q-4 -25 -4 -43q0 -41 16 -60q23 -25 80 -24q57 0 90 24q33 27 48 103l32 184h226l-33 -184q-29 -170 -150 -268zM934 1735l-152 -226h-225l-76 226h115l94 -113l131 113h113z" glyph-name="Ccaron" horiz-adv-x="798" unicode="Č"/><glyph d="M653 68q-106 -84 -252 -84q-145 0 -223 84q-63 78 -63 188q0 23 8 80l135 762q29 166 150 268q106 84 251 84t224 -84q63 -72 63 -186q0 -41 -8 -82l-23 -127h-225l23 127q4 29 4 45q0 39 -17 57q-23 25 -82 25q-55 0 -88 -25q-20 -16 -31.5 -45t-15.5 -57l-135 -762 q-4 -25 -4 -43q0 -41 16 -60q23 -25 80 -24q57 0 90 24q33 27 48 103l32 184h226l-33 -184q-29 -170 -150 -268zM934 1735l-152 -226h-225l-76 226h115l94 -113l131 113h113z" glyph-name="ccaron" horiz-adv-x="798" unicode="č"/><glyph d="M672 80q-104 -80 -250 -80h-340l252 1434h340q147 0 223 -86q63 -72 64 -185q0 -41 -9 -82l-129 -737q-14 -80 -51 -149q-41 -72 -100 -115zM520 1208l-174 -983h115q63 0 90 23q33 25 47 96l129 737q4 25 4 43q0 41 -16 60q-23 25 -80 24h-115zM952 1735l-151 -226h-226 l-75 226h114l95 -113l131 113h112z" glyph-name="Dcaron" horiz-adv-x="825" unicode="Ď"/><glyph d="M672 80q-104 -80 -250 -80h-340l252 1434h340q147 0 223 -86q63 -72 64 -185q0 -41 -9 -82l-129 -737q-14 -80 -51 -149q-41 -72 -100 -115zM520 1208l-174 -983h115q63 0 90 23q33 25 47 96l129 737q4 25 4 43q0 41 -16 60q-23 25 -80 24h-115zM952 1735l-151 -226h-226 l-75 226h114l95 -113l131 113h112z" glyph-name="dcaron" horiz-adv-x="825" unicode="ď"/><glyph d="M971 1163q0 -41 -8 -82l-129 -737q-14 -80 -52 -149q-41 -72 -100 -115q-104 -80 -250 -80h-340l107 602h-82l39 225h82l106 607h340q147 0 223 -86q64 -72 64 -185zM737 1081q4 25 4 43q0 41 -16 60q-23 25 -80 24h-115l-67 -381h102l-39 -225h-102l-68 -377h115 q63 0 90 23q33 25 47 96z" glyph-name="Dcroat" horiz-adv-x="835" unicode="Đ"/><glyph d="M971 1163q0 -41 -8 -82l-129 -737q-14 -80 -52 -149q-41 -72 -100 -115q-104 -80 -250 -80h-340l107 602h-82l39 225h82l106 607h340q147 0 223 -86q64 -72 64 -185zM737 1081q4 25 4 43q0 41 -16 60q-23 25 -80 24h-115l-67 -381h102l-39 -225h-102l-68 -377h115 q63 0 90 23q33 25 47 96z" glyph-name="dcroat" horiz-adv-x="835" unicode="đ"/><glyph d="M889 1208h-369l-63 -360h254l-39 -225h-254l-72 -398h369l-39 -225h-594l252 1434h594zM872 1509h-454l20 113h455z" glyph-name="Emacron" horiz-adv-x="733" unicode="Ē"/><glyph d="M889 1208h-369l-63 -360h254l-39 -225h-254l-72 -398h369l-39 -225h-594l252 1434h594zM872 1509h-454l20 113h455z" glyph-name="emacron" horiz-adv-x="733" unicode="ē"/><glyph d="M591.5 1537q-24.5 30 -18.5 71q8 43 43 72.5t76 29.5q37 0 60.5 -23.5t23.5 -60.5q0 -12 -2 -18q-6 -41 -41 -71t-76 -30t-65.5 30zM889 1208h-369l-63 -360h254l-39 -225h-254l-72 -398h369l-39 -225h-594l252 1434h594z" glyph-name="Edotaccent" horiz-adv-x="733" unicode="Ė"/><glyph d="M591.5 1537q-24.5 30 -18.5 71q8 43 43 72.5t76 29.5q37 0 60.5 -23.5t23.5 -60.5q0 -12 -2 -18q-6 -41 -41 -71t-76 -30t-65.5 30zM889 1208h-369l-63 -360h254l-39 -225h-254l-72 -398h369l-39 -225h-594l252 1434h594z" glyph-name="edotaccent" horiz-adv-x="733" unicode="ė"/><glyph d="M520 1208l-63 -360h254l-39 -225h-254l-72 -398h369l-39 -225q-43 -8 -81 -42t-46 -73q-6 -29 16.5 -40t48.5 -11h19l-21 -113h-39q-68 0 -112.5 26t-44.5 77q0 12 2 18q10 49 52 92t91 66h-479l252 1434h594l-39 -226h-369z" glyph-name="Eogonek" horiz-adv-x="733" unicode="Ę"/><glyph d="M520 1208l-63 -360h254l-39 -225h-254l-72 -398h369l-39 -225q-43 -8 -81 -42t-46 -73q-6 -29 16.5 -40t48.5 -11h19l-21 -113h-39q-68 0 -112.5 26t-44.5 77q0 12 2 18q10 49 52 92t91 66h-479l252 1434h594l-39 -226h-369z" glyph-name="eogonek" horiz-adv-x="733" unicode="ę"/><glyph d="M889 1208h-369l-63 -360h254l-39 -225h-254l-72 -398h369l-39 -225h-594l252 1434h594zM922 1735l-152 -226h-225l-76 226h115l94 -113l131 113h113z" glyph-name="Ecaron" horiz-adv-x="733" unicode="Ě"/><glyph d="M889 1208h-369l-63 -360h254l-39 -225h-254l-72 -398h369l-39 -225h-594l252 1434h594zM922 1735l-152 -226h-225l-76 226h115l94 -113l131 113h113z" glyph-name="ecaron" horiz-adv-x="733" unicode="ě"/><glyph d="M653 68q-106 -84 -252 -84q-145 0 -223 84q-63 78 -63 188q0 23 8 80l135 762q29 166 150 268q106 84 251 84t224 -84q63 -72 63 -186q0 -41 -8 -82l-23 -127h-225l23 127q4 29 4 45q0 39 -17 57q-23 25 -82 25q-55 0 -88 -25q-20 -16 -31.5 -45t-15.5 -57l-135 -762 q-4 -25 -4 -43q0 -41 16 -60q23 -25 80 -24q57 0 90 24q33 27 48 103l47 268h-113l39 225h338l-86 -493q-29 -170 -150 -268zM928 1726q-16 -90 -92 -154.5t-166 -64.5q-80 0 -132.5 51.5t-52.5 129.5q0 10 4 38h113q-2 -6 -2 -18q0 -39 24.5 -63.5t63.5 -24.5q45 0 82 30.5 t45 75.5h113z" glyph-name="Gbreve" horiz-adv-x="808" unicode="Ğ"/><glyph d="M653 68q-106 -84 -252 -84q-145 0 -223 84q-63 78 -63 188q0 23 8 80l135 762q29 166 150 268q106 84 251 84t224 -84q63 -72 63 -186q0 -41 -8 -82l-23 -127h-225l23 127q4 29 4 45q0 39 -17 57q-23 25 -82 25q-55 0 -88 -25q-20 -16 -31.5 -45t-15.5 -57l-135 -762 q-4 -25 -4 -43q0 -41 16 -60q23 -25 80 -24q57 0 90 24q33 27 48 103l47 268h-113l39 225h338l-86 -493q-29 -170 -150 -268zM928 1726q-16 -90 -92 -154.5t-166 -64.5q-80 0 -132.5 51.5t-52.5 129.5q0 10 4 38h113q-2 -6 -2 -18q0 -39 24.5 -63.5t63.5 -24.5q45 0 82 30.5 t45 75.5h113z" glyph-name="gbreve" horiz-adv-x="808" unicode="ğ"/><glyph d="M604.5 1537q-24.5 30 -18.5 71q8 43 43 72.5t76 29.5q37 0 60 -23.5t23 -60.5q0 -12 -2 -18q-6 -41 -40.5 -71t-75.5 -30t-65.5 30zM653 68q-106 -84 -252 -84q-145 0 -223 84q-63 78 -63 188q0 23 8 80l135 762q29 166 150 268q106 84 251 84t224 -84q63 -72 63 -186 q0 -41 -8 -82l-23 -127h-225l23 127q4 29 4 45q0 39 -17 57q-23 25 -82 25q-55 0 -88 -25q-20 -16 -31.5 -45t-15.5 -57l-135 -762q-4 -25 -4 -43q0 -41 16 -60q23 -25 80 -24q57 0 90 24q33 27 48 103l47 268h-113l39 225h338l-86 -493q-29 -170 -150 -268z" glyph-name="Gdotaccent" horiz-adv-x="808" unicode="Ġ"/><glyph d="M604.5 1537q-24.5 30 -18.5 71q8 43 43 72.5t76 29.5q37 0 60 -23.5t23 -60.5q0 -12 -2 -18q-6 -41 -40.5 -71t-75.5 -30t-65.5 30zM653 68q-106 -84 -252 -84q-145 0 -223 84q-63 78 -63 188q0 23 8 80l135 762q29 166 150 268q106 84 251 84t224 -84q63 -72 63 -186 q0 -41 -8 -82l-23 -127h-225l23 127q4 29 4 45q0 39 -17 57q-23 25 -82 25q-55 0 -88 -25q-20 -16 -31.5 -45t-15.5 -57l-135 -762q-4 -25 -4 -43q0 -41 16 -60q23 -25 80 -24q57 0 90 24q33 27 48 103l47 268h-113l39 225h338l-86 -493q-29 -170 -150 -268z" glyph-name="gdotaccent" horiz-adv-x="808" unicode="ġ"/><glyph d="M653 68q-106 -84 -252 -84q-145 0 -223 84q-63 78 -63 188q0 23 8 80l135 762q29 166 150 268q106 84 251 84t224 -84q63 -72 63 -186q0 -41 -8 -82l-23 -127h-225l23 127q4 29 4 45q0 39 -17 57q-23 25 -82 25q-55 0 -88 -25q-20 -16 -31.5 -45t-15.5 -57l-135 -762 q-4 -25 -4 -43q0 -41 16 -60q23 -25 80 -24q57 0 90 24q33 27 48 103l47 268h-113l39 225h338l-86 -493q-29 -170 -150 -268zM432 -256q-33 -47 -88 -111h-74l31 58q12 25 12 37q0 14 -10 22q-14 16 -22.5 31.5t-8.5 38.5q0 12 2 18q8 41 43 71t76 30q39 0 62.5 -24 t23.5 -58q0 -12 -2 -19q-6 -43 -45 -94z" glyph-name="Gcommaaccent" horiz-adv-x="808" unicode="Ģ"/><glyph d="M653 68q-106 -84 -252 -84q-145 0 -223 84q-63 78 -63 188q0 23 8 80l135 762q29 166 150 268q106 84 251 84t224 -84q63 -72 63 -186q0 -41 -8 -82l-23 -127h-225l23 127q4 29 4 45q0 39 -17 57q-23 25 -82 25q-55 0 -88 -25q-20 -16 -31.5 -45t-15.5 -57l-135 -762 q-4 -25 -4 -43q0 -41 16 -60q23 -25 80 -24q57 0 90 24q33 27 48 103l47 268h-113l39 225h338l-86 -493q-29 -170 -150 -268zM432 -256q-33 -47 -88 -111h-74l31 58q12 25 12 37q0 14 -10 22q-14 16 -22.5 31.5t-8.5 38.5q0 12 2 18q8 41 43 71t76 30q39 0 62.5 -24 t23.5 -58q0 -12 -2 -19q-6 -43 -45 -94z" glyph-name="gcommaaccent" horiz-adv-x="808" unicode="ģ"/><glyph d="M1057 1155l-19 -113h-82l-184 -1042h-225l110 623h-229l-111 -623h-225l184 1042h-81l18 113h82l49 279h225l-49 -279h230l49 279h225l-49 -279h82zM696 848l35 194h-229l-35 -194h229z" glyph-name="Hbar" horiz-adv-x="864" unicode="Ħ"/><glyph d="M1057 1155l-19 -113h-82l-184 -1042h-225l110 623h-229l-111 -623h-225l184 1042h-81l18 113h82l49 279h225l-49 -279h230l49 279h225l-49 -279h82zM696 848l35 194h-229l-35 -194h229z" glyph-name="hbar" horiz-adv-x="864" unicode="ħ"/><glyph d="M307 0h-225l252 1434h225zM367 1571q-35 -6 -88 -66l-80 68q88 90 163 108q25 4 39 5q59 0 119 -44q39 -29 68 -22q35 10 84 66l80 -66q-102 -115 -193 -115q-59 0 -117 43q-42 31 -75 23z" glyph-name="Itilde" horiz-adv-x="389" unicode="Ĩ"/><glyph d="M307 0h-225l252 1434h225zM367 1571q-35 -6 -88 -66l-80 68q88 90 163 108q25 4 39 5q59 0 119 -44q39 -29 68 -22q35 10 84 66l80 -66q-102 -115 -193 -115q-59 0 -117 43q-42 31 -75 23z" glyph-name="itilde" horiz-adv-x="389" unicode="ĩ"/><glyph d="M307 0h-225l252 1434h225zM688 1509h-455l21 113h455z" glyph-name="Imacron" horiz-adv-x="389" unicode="Ī"/><glyph d="M307 0h-225l252 1434h225zM688 1509h-455l21 113h455z" glyph-name="imacron" horiz-adv-x="389" unicode="ī"/><glyph d="M563 1434l-252 -1434q-43 -8 -80.5 -42t-46.5 -73q-6 -29 16.5 -40t49.5 -11h18l-20 -113h-39q-68 0 -113 26t-45 77q0 12 2 18q10 49 52 92t92 66h-111l252 1434h225z" glyph-name="Iogonek" horiz-adv-x="393" unicode="Į"/><glyph d="M563 1434l-252 -1434q-43 -8 -80.5 -42t-46.5 -73q-6 -29 16.5 -40t49.5 -11h18l-20 -113h-39q-68 0 -113 26t-45 77q0 12 2 18q10 49 52 92t92 66h-111l252 1434h225z" glyph-name="iogonek" horiz-adv-x="393" unicode="į"/><glyph d="M307 0h-225l252 1434h225zM395.5 1537q-24.5 30 -18.5 71q8 43 43 72.5t76 29.5q37 0 60.5 -23.5t23.5 -60.5q0 -12 -2 -18q-6 -41 -41 -71t-76 -30t-65.5 30z" glyph-name="Idotaccent" horiz-adv-x="389" unicode="İ"/><glyph d="M307 0h-225l252 1434h225z" glyph-name="dotlessi" horiz-adv-x="389" unicode="ı"/><glyph d="M645 754l156 -754h-242l-94 459l-109 -178l-49 -281h-225l252 1434h225l-102 -582l352 582h244zM461 -256q-33 -47 -88 -111h-74l31 58q12 25 12 37q0 14 -10 22q-14 16 -22.5 31.5t-8.5 38.5q0 12 2 18q8 41 43 71t76 30q39 0 62.5 -24t23.5 -58q0 -12 -2 -19 q-6 -43 -45 -94z" glyph-name="Kcommaaccent" horiz-adv-x="827" unicode="Ķ"/><glyph d="M645 754l156 -754h-242l-94 459l-109 -178l-49 -281h-225l252 1434h225l-102 -582l352 582h244zM461 -256q-33 -47 -88 -111h-74l31 58q12 25 12 37q0 14 -10 22q-14 16 -22.5 31.5t-8.5 38.5q0 12 2 18q8 41 43 71t76 30q39 0 62.5 -24t23.5 -58q0 -12 -2 -19 q-6 -43 -45 -94z" glyph-name="kcommaaccent" horiz-adv-x="827" unicode="ķ"/><glyph d="M676 0h-594l252 1434h225l-213 -1209h369zM516 1509h-113l152 226h225z" glyph-name="Lacute" horiz-adv-x="702" unicode="Ĺ"/><glyph d="M676 0h-594l252 1434h225l-213 -1209h369zM516 1509h-113l152 226h225z" glyph-name="lacute" horiz-adv-x="702" unicode="ĺ"/><glyph d="M676 0h-594l252 1434h225l-213 -1209h369zM422 -276q-20 -31 -86 -111h-74q12 29 31 57q12 25 12 37t-10 23q-33 33 -33 69q0 12 2 19q8 41 43 70.5t76 29.5q39 0 62.5 -23.5t23.5 -58.5q0 -12 -2 -18q-6 -43 -45 -94z" glyph-name="Lcommaaccent" horiz-adv-x="702" unicode="Ļ"/><glyph d="M676 0h-594l252 1434h225l-213 -1209h369zM422 -276q-20 -31 -86 -111h-74q12 29 31 57q12 25 12 37t-10 23q-33 33 -33 69q0 12 2 19q8 41 43 70.5t76 29.5q39 0 62.5 -23.5t23.5 -58.5q0 -12 -2 -18q-6 -43 -45 -94z" glyph-name="lcommaaccent" horiz-adv-x="702" unicode="ļ"/><glyph d="M676 0h-594l252 1434h225l-213 -1209h369zM823 1239q-33 -47 -88 -111h-73l30 58q12 25 13 37q0 14 -11 22q-14 16 -22 31.5t-8 38.5q0 12 2 18q8 41 41.5 71t74.5 30q39 0 63.5 -24t24.5 -58q0 -12 -2 -19q-8 -41 -45 -94z" glyph-name="Lcaron" horiz-adv-x="702" unicode="Ľ"/><glyph d="M676 0h-594l252 1434h225l-213 -1209h369zM823 1239q-33 -47 -88 -111h-73l30 58q12 25 13 37q0 14 -11 22q-14 16 -22 31.5t-8 38.5q0 12 2 18q8 41 41.5 71t74.5 30q39 0 63.5 -24t24.5 -58q0 -12 -2 -19q-8 -41 -45 -94z" glyph-name="lcaron" horiz-adv-x="702" unicode="ľ"/><glyph d="M457 748l297 266l-31 -164l-295 -266l-63 -359h368l-39 -225h-594l60 342l-119 -109l29 166l120 107l162 928h226z" glyph-name="Lslash" horiz-adv-x="720" unicode="Ł"/><glyph d="M457 748l297 266l-31 -164l-295 -266l-63 -359h368l-39 -225h-594l60 342l-119 -109l29 166l120 107l162 928h226z" glyph-name="lslash" horiz-adv-x="720" unicode="ł"/><glyph d="M1026 1434l-252 -1434h-131l-215 727l-129 -727h-225l252 1434h131l217 -725l127 725h225zM745 1509h-112l151 226h226z" glyph-name="Nacute" horiz-adv-x="847" unicode="Ń"/><glyph d="M1026 1434l-252 -1434h-131l-215 727l-129 -727h-225l252 1434h131l217 -725l127 725h225zM745 1509h-112l151 226h226z" glyph-name="nacute" horiz-adv-x="847" unicode="ń"/><glyph d="M1026 1434l-252 -1434h-131l-215 727l-129 -727h-225l252 1434h131l217 -725l127 725h225zM449 -276q-20 -31 -87 -111h-73q12 29 30 57q12 25 13 37q0 12 -10 23q-33 33 -33 69q0 12 2 19q8 41 43 70.5t76 29.5q39 0 62.5 -23.5t23.5 -58.5q0 -12 -2 -18q-6 -43 -45 -94 z" glyph-name="Ncommaaccent" horiz-adv-x="847" unicode="Ņ"/><glyph d="M1026 1434l-252 -1434h-131l-215 727l-129 -727h-225l252 1434h131l217 -725l127 725h225zM449 -276q-20 -31 -87 -111h-73q12 29 30 57q12 25 13 37q0 12 -10 23q-33 33 -33 69q0 12 2 19q8 41 43 70.5t76 29.5q39 0 62.5 -23.5t23.5 -58.5q0 -12 -2 -18q-6 -43 -45 -94 z" glyph-name="ncommaaccent" horiz-adv-x="847" unicode="ņ"/><glyph d="M1026 1434l-252 -1434h-131l-215 727l-129 -727h-225l252 1434h131l217 -725l127 725h225zM954 1735l-151 -226h-225l-76 226h114l95 -113l131 113h112z" glyph-name="Ncaron" horiz-adv-x="847" unicode="Ň"/><glyph d="M1026 1434l-252 -1434h-131l-215 727l-129 -727h-225l252 1434h131l217 -725l127 725h225zM954 1735l-151 -226h-225l-76 226h114l95 -113l131 113h112z" glyph-name="ncaron" horiz-adv-x="847" unicode="ň"/><glyph d="M1026 1434l-266 -1520q-10 -57 -59.5 -99t-108.5 -42l20 112q12 0 21.5 8.5t13.5 20.5l15 86l-234 727l-129 -727h-225l252 1434h131l217 -725l127 725h225z" glyph-name="Eng" horiz-adv-x="847" unicode="Ŋ"/><glyph d="M1026 1434l-266 -1520q-10 -57 -59.5 -99t-108.5 -42l20 112q12 0 21.5 8.5t13.5 20.5l15 86l-234 727l-129 -727h-225l252 1434h131l217 -725l127 725h225z" glyph-name="eng" horiz-adv-x="847" unicode="ŋ"/><glyph d="M653 68q-106 -84 -252 -84q-150 0 -223 84q-63 72 -63 186q0 41 8 82l135 762q29 170 150 268q102 84 251 84q145 0 224 -84q63 -72 63 -186q0 -41 -8 -82l-135 -762q-29 -170 -150 -268zM698 1200q-20 25 -80 25q-55 0 -88 -25q-20 -16 -31.5 -45t-15.5 -57l-135 -762 q-4 -25 -4 -43q0 -41 16 -60q23 -25 80 -24q59 0 88 24q35 25 50 103l135 762q4 25 4 43q-1 41 -19 59zM897 1509h-455l21 113h455z" glyph-name="Omacron" horiz-adv-x="806" unicode="Ō"/><glyph d="M653 68q-106 -84 -252 -84q-150 0 -223 84q-63 72 -63 186q0 41 8 82l135 762q29 170 150 268q102 84 251 84q145 0 224 -84q63 -72 63 -186q0 -41 -8 -82l-135 -762q-29 -170 -150 -268zM698 1200q-20 25 -80 25q-55 0 -88 -25q-20 -16 -31.5 -45t-15.5 -57l-135 -762 q-4 -25 -4 -43q0 -41 16 -60q23 -25 80 -24q59 0 88 24q35 25 50 103l135 762q4 25 4 43q-1 41 -19 59zM897 1509h-455l21 113h455z" glyph-name="omacron" horiz-adv-x="806" unicode="ō"/><glyph d="M653 68q-106 -84 -252 -84q-150 0 -223 84q-63 72 -63 186q0 41 8 82l135 762q29 170 150 268q102 84 251 84q145 0 224 -84q63 -72 63 -186q0 -41 -8 -82l-135 -762q-29 -170 -150 -268zM698 1200q-20 25 -80 25q-55 0 -88 -25q-20 -16 -31.5 -45t-15.5 -57l-135 -762 q-4 -25 -4 -43q0 -41 16 -60q23 -25 80 -24q59 0 88 24q35 25 50 103l135 762q4 25 4 43q-1 41 -19 59zM573 1509h-112l151 226h226zM879 1509h-113l152 226h225z" glyph-name="Ohungarumlaut" horiz-adv-x="806" unicode="Ő"/><glyph d="M653 68q-106 -84 -252 -84q-150 0 -223 84q-63 72 -63 186q0 41 8 82l135 762q29 170 150 268q102 84 251 84q145 0 224 -84q63 -72 63 -186q0 -41 -8 -82l-135 -762q-29 -170 -150 -268zM698 1200q-20 25 -80 25q-55 0 -88 -25q-20 -16 -31.5 -45t-15.5 -57l-135 -762 q-4 -25 -4 -43q0 -41 16 -60q23 -25 80 -24q59 0 88 24q35 25 50 103l135 762q4 25 4 43q-1 41 -19 59zM573 1509h-112l151 226h226zM879 1509h-113l152 226h225z" glyph-name="ohungarumlaut" horiz-adv-x="806" unicode="ő"/><glyph d="M958 1208l-63 -360h254l-39 -225h-254l-72 -398h369l-39 -225h-711q-145 0 -223 84q-63 72 -63 186q0 41 8 82l129 729q31 174 149 267q111 86 252 86h711l-39 -226h-369zM731 1208h-115q-55 0 -88 -24q-35 -31 -49 -103l-129 -729q-4 -25 -4 -43q0 -41 19 -59 q23 -25 77 -25h115z" glyph-name="OE" horiz-adv-x="1171" unicode="Œ"/><glyph d="M958 1208l-63 -360h254l-39 -225h-254l-72 -398h369l-39 -225h-711q-145 0 -223 84q-63 72 -63 186q0 41 8 82l129 729q31 174 149 267q111 86 252 86h711l-39 -226h-369zM731 1208h-115q-55 0 -88 -24q-35 -31 -49 -103l-129 -729q-4 -25 -4 -43q0 -41 19 -59 q23 -25 77 -25h115z" glyph-name="oe" horiz-adv-x="1171" unicode="œ"/><glyph d="M756 0h-230l-14 575h-102l-103 -575h-225l252 1434h340q147 0 223 -86q63 -72 64 -185q0 -41 -9 -82l-26 -153q-29 -172 -150 -269q-16 -14 -39 -26zM727 1081q4 25 4 43q0 41 -16 60q-23 25 -80 24h-115l-71 -407h114q55 0 88 24q37 29 49 103zM745 1509h-112l151 226 h226z" glyph-name="Racute" horiz-adv-x="813" unicode="Ŕ"/><glyph d="M756 0h-230l-14 575h-102l-103 -575h-225l252 1434h340q147 0 223 -86q63 -72 64 -185q0 -41 -9 -82l-26 -153q-29 -172 -150 -269q-16 -14 -39 -26zM727 1081q4 25 4 43q0 41 -16 60q-23 25 -80 24h-115l-71 -407h114q55 0 88 24q37 29 49 103zM745 1509h-112l151 226 h226z" glyph-name="racute" horiz-adv-x="813" unicode="ŕ"/><glyph d="M756 0h-230l-14 575h-102l-103 -575h-225l252 1434h340q147 0 223 -86q63 -72 64 -185q0 -41 -9 -82l-26 -153q-29 -172 -150 -269q-16 -14 -39 -26zM727 1081q4 25 4 43q0 41 -16 60q-23 25 -80 24h-115l-71 -407h114q55 0 88 24q37 29 49 103zM444 -256 q-33 -47 -88 -111h-73l30 58q12 25 13 37q0 14 -11 22q-14 16 -22 31.5t-8 38.5q0 12 2 18q8 41 43 71t76 30q39 0 62.5 -24t23.5 -58q0 -12 -3 -19q-6 -43 -45 -94z" glyph-name="Rcommaaccent" horiz-adv-x="813" unicode="Ŗ"/><glyph d="M756 0h-230l-14 575h-102l-103 -575h-225l252 1434h340q147 0 223 -86q63 -72 64 -185q0 -41 -9 -82l-26 -153q-29 -172 -150 -269q-16 -14 -39 -26zM727 1081q4 25 4 43q0 41 -16 60q-23 25 -80 24h-115l-71 -407h114q55 0 88 24q37 29 49 103zM444 -256 q-33 -47 -88 -111h-73l30 58q12 25 13 37q0 14 -11 22q-14 16 -22 31.5t-8 38.5q0 12 2 18q8 41 43 71t76 30q39 0 62.5 -24t23.5 -58q0 -12 -3 -19q-6 -43 -45 -94z" glyph-name="rcommaaccent" horiz-adv-x="813" unicode="ŗ"/><glyph d="M756 0h-230l-14 575h-102l-103 -575h-225l252 1434h340q147 0 223 -86q63 -72 64 -185q0 -41 -9 -82l-26 -153q-29 -172 -150 -269q-16 -14 -39 -26zM727 1081q4 25 4 43q0 41 -16 60q-23 25 -80 24h-115l-71 -407h114q55 0 88 24q37 29 49 103zM952 1735l-151 -226h-226 l-75 226h114l95 -113l131 113h112z" glyph-name="Rcaron" horiz-adv-x="813" unicode="Ř"/><glyph d="M756 0h-230l-14 575h-102l-103 -575h-225l252 1434h340q147 0 223 -86q63 -72 64 -185q0 -41 -9 -82l-26 -153q-29 -172 -150 -269q-16 -14 -39 -26zM727 1081q4 25 4 43q0 41 -16 60q-23 25 -80 24h-115l-71 -407h114q55 0 88 24q37 29 49 103zM952 1735l-151 -226h-226 l-75 226h114l95 -113l131 113h112z" glyph-name="rcaron" horiz-adv-x="813" unicode="ř"/><glyph d="M639 68q-106 -84 -252 -84q-150 0 -223 84q-63 72 -64 186q0 41 9 82l32 186h226l-33 -186q-4 -25 -4 -43q0 -41 16 -60q23 -25 80 -24q59 0 88 24q35 25 49 103l17 90q4 25 4 37q0 74 -52 127q-18 18 -77 53q-92 57 -125 90q-100 104 -101 250q0 45 9 80l6 35 q29 170 149 268q102 84 252 84q145 0 223 -84q63 -72 64 -186q0 -41 -8 -82l-23 -125h-225l22 125q4 25 4 43q0 41 -18 59q-20 25 -80 25q-55 0 -88 -25q-20 -16 -31.5 -45t-15.5 -57l-6 -35q-4 -29 -4 -41q0 -70 51 -121q8 -8 30.5 -23.5t39.5 -25.5q96 -55 131 -94 q100 -106 100 -256q0 -35 -6 -76l-17 -90q-28 -170 -149 -268zM711 1509h-113l152 226h225z" glyph-name="Sacute" horiz-adv-x="778" unicode="Ś"/><glyph d="M639 68q-106 -84 -252 -84q-150 0 -223 84q-63 72 -64 186q0 41 9 82l32 186h226l-33 -186q-4 -25 -4 -43q0 -41 16 -60q23 -25 80 -24q59 0 88 24q35 25 49 103l17 90q4 25 4 37q0 74 -52 127q-18 18 -77 53q-92 57 -125 90q-100 104 -101 250q0 45 9 80l6 35 q29 170 149 268q102 84 252 84q145 0 223 -84q63 -72 64 -186q0 -41 -8 -82l-23 -125h-225l22 125q4 25 4 43q0 41 -18 59q-20 25 -80 25q-55 0 -88 -25q-20 -16 -31.5 -45t-15.5 -57l-6 -35q-4 -29 -4 -41q0 -70 51 -121q8 -8 30.5 -23.5t39.5 -25.5q96 -55 131 -94 q100 -106 100 -256q0 -35 -6 -76l-17 -90q-28 -170 -149 -268zM711 1509h-113l152 226h225z" glyph-name="sacute" horiz-adv-x="778" unicode="ś"/><glyph d="M676 975l22 125q4 29 4 47q0 39 -16 55q-23 25 -80 25q-59 0 -88 -25q-35 -27 -49 -102l-6 -35q-4 -29 -4 -39q0 -68 51 -123q8 -8 30.5 -23.5t39.5 -25.5q96 -55 131 -94q100 -106 100 -254q0 -37 -6 -78l-17 -90q-29 -170 -149 -268q-82 -68 -199 -80v-2q0 -10 9 -17 q27 -23 40 -42t13 -56q0 -10 -4 -31q-8 -57 -57.5 -99t-108.5 -42q-51 0 -85 34t-34 85q0 14 2 22h113v-4q0 -10 7 -17t17 -7q12 0 21.5 8t11.5 20l2 8q0 8 -9 17.5t-11 11.5q-41 33 -41 86q0 14 2 23v2q-106 16 -164 80q-63 72 -64 186q0 41 9 82l32 186h226l-33 -186 q-4 -25 -4 -43q0 -41 16 -59q25 -25 80 -25q61 0 88 25q35 25 49 102l17 90q4 25 4 37q0 74 -52 127q-18 18 -77 53q-92 57 -125 90q-98 102 -99 252q0 39 7 78l6 35q29 170 149 268q106 84 252 84q150 0 223 -84q63 -72 64 -186q0 -41 -8 -82l-23 -125h-225z" glyph-name="Scedilla" horiz-adv-x="778" unicode="Ş"/><glyph d="M676 975l22 125q4 29 4 47q0 39 -16 55q-23 25 -80 25q-59 0 -88 -25q-35 -27 -49 -102l-6 -35q-4 -29 -4 -39q0 -68 51 -123q8 -8 30.5 -23.5t39.5 -25.5q96 -55 131 -94q100 -106 100 -254q0 -37 -6 -78l-17 -90q-29 -170 -149 -268q-82 -68 -199 -80v-2q0 -10 9 -17 q27 -23 40 -42t13 -56q0 -10 -4 -31q-8 -57 -57.5 -99t-108.5 -42q-51 0 -85 34t-34 85q0 14 2 22h113v-4q0 -10 7 -17t17 -7q12 0 21.5 8t11.5 20l2 8q0 8 -9 17.5t-11 11.5q-41 33 -41 86q0 14 2 23v2q-106 16 -164 80q-63 72 -64 186q0 41 9 82l32 186h226l-33 -186 q-4 -25 -4 -43q0 -41 16 -59q25 -25 80 -25q61 0 88 25q35 25 49 102l17 90q4 25 4 37q0 74 -52 127q-18 18 -77 53q-92 57 -125 90q-98 102 -99 252q0 39 7 78l6 35q29 170 149 268q106 84 252 84q150 0 223 -84q63 -72 64 -186q0 -41 -8 -82l-23 -125h-225z" glyph-name="scedilla" horiz-adv-x="778" unicode="ş"/><glyph d="M639 68q-106 -84 -252 -84q-150 0 -223 84q-63 72 -64 186q0 41 9 82l32 186h226l-33 -186q-4 -25 -4 -43q0 -41 16 -60q23 -25 80 -24q59 0 88 24q35 25 49 103l17 90q4 25 4 37q0 74 -52 127q-18 18 -77 53q-92 57 -125 90q-100 104 -101 250q0 45 9 80l6 35 q29 170 149 268q102 84 252 84q145 0 223 -84q63 -72 64 -186q0 -41 -8 -82l-23 -125h-225l22 125q4 25 4 43q0 41 -18 59q-20 25 -80 25q-55 0 -88 -25q-20 -16 -31.5 -45t-15.5 -57l-6 -35q-4 -29 -4 -41q0 -70 51 -121q8 -8 30.5 -23.5t39.5 -25.5q96 -55 131 -94 q100 -106 100 -256q0 -35 -6 -76l-17 -90q-28 -170 -149 -268zM469 1735h113l94 -113l131 113h115l-154 -226h-225z" glyph-name="Scaron" horiz-adv-x="778" unicode="Š"/><glyph d="M639 68q-106 -84 -252 -84q-150 0 -223 84q-63 72 -64 186q0 41 9 82l32 186h226l-33 -186q-4 -25 -4 -43q0 -41 16 -60q23 -25 80 -24q59 0 88 24q35 25 49 103l17 90q4 25 4 37q0 74 -52 127q-18 18 -77 53q-92 57 -125 90q-100 104 -101 250q0 45 9 80l6 35 q29 170 149 268q102 84 252 84q145 0 223 -84q63 -72 64 -186q0 -41 -8 -82l-23 -125h-225l22 125q4 25 4 43q0 41 -18 59q-20 25 -80 25q-55 0 -88 -25q-20 -16 -31.5 -45t-15.5 -57l-6 -35q-4 -29 -4 -41q0 -70 51 -121q8 -8 30.5 -23.5t39.5 -25.5q96 -55 131 -94 q100 -106 100 -256q0 -35 -6 -76l-17 -90q-28 -170 -149 -268zM469 1735h113l94 -113l131 113h115l-154 -226h-225z" glyph-name="scaron" horiz-adv-x="778" unicode="š"/><glyph d="M416 0l-2 -12q0 -10 8 -17q27 -23 40 -42t13 -56q0 -10 -4 -31q-8 -57 -57 -99t-109 -42q-51 0 -85 34t-34 85q0 14 2 22h113v-4q0 -10 7 -17t18 -7q12 0 21 8t11 20l2 8q0 8 -9 17.5t-11 11.5q-41 33 -41 86q0 14 2 23l2 12h-53l213 1208h-230l39 226h684l-38 -226h-230 l-213 -1208h-59z" glyph-name="Tcommaaccent" horiz-adv-x="722" unicode="Ţ"/><glyph d="M416 0l-2 -12q0 -10 8 -17q27 -23 40 -42t13 -56q0 -10 -4 -31q-8 -57 -57 -99t-109 -42q-51 0 -85 34t-34 85q0 14 2 22h113v-4q0 -10 7 -17t18 -7q12 0 21 8t11 20l2 8q0 8 -9 17.5t-11 11.5q-41 33 -41 86q0 14 2 23l2 12h-53l213 1208h-230l39 226h684l-38 -226h-230 l-213 -1208h-59z" glyph-name="tcommaaccent" horiz-adv-x="722" unicode="ţ"/><glyph d="M956 1434l-38 -226h-230l-213 -1208h-225l213 1208h-230l39 226h684zM893 1735l-152 -226h-225l-76 226h115l94 -113l131 113h113z" glyph-name="Tcaron" horiz-adv-x="722" unicode="Ť"/><glyph d="M956 1434l-38 -226h-230l-213 -1208h-225l213 1208h-230l39 226h684zM893 1735l-152 -226h-225l-76 226h115l94 -113l131 113h113z" glyph-name="tcaron" horiz-adv-x="722" unicode="ť"/><glyph d="M918 1208h-230l-41 -231h113l-21 -113h-112l-152 -864h-225l151 864h-118l20 113h119l41 231h-230l39 226h684z" glyph-name="Tbar" horiz-adv-x="722" unicode="Ŧ"/><glyph d="M918 1208h-230l-41 -231h113l-21 -113h-112l-152 -864h-225l151 864h-118l20 113h119l41 231h-230l39 226h684z" glyph-name="tbar" horiz-adv-x="722" unicode="ŧ"/><glyph d="M662 68q-109 -84 -252 -84q-150 0 -224 84q-63 72 -63 186q0 41 8 82l193 1098h225l-193 -1098q-4 -29 -4 -49q0 -39 15 -54q23 -25 82 -24q55 0 88 24q35 27 49 103l192 1098h226l-193 -1098q-28 -166 -149 -268zM584 1575q-37 -6 -90 -66l-78 68q84 90 162 109 q25 4 38 4q59 0 121 -43q37 -29 68 -23q33 10 82 66l82 -66q-47 -51 -94.5 -83t-100.5 -32q-59 0 -115 43q-44 31 -75 23z" glyph-name="Utilde" horiz-adv-x="823" unicode="Ũ"/><glyph d="M662 68q-109 -84 -252 -84q-150 0 -224 84q-63 72 -63 186q0 41 8 82l193 1098h225l-193 -1098q-4 -29 -4 -49q0 -39 15 -54q23 -25 82 -24q55 0 88 24q35 27 49 103l192 1098h226l-193 -1098q-28 -166 -149 -268zM584 1575q-37 -6 -90 -66l-78 68q84 90 162 109 q25 4 38 4q59 0 121 -43q37 -29 68 -23q33 10 82 66l82 -66q-47 -51 -94.5 -83t-100.5 -32q-59 0 -115 43q-44 31 -75 23z" glyph-name="utilde" horiz-adv-x="823" unicode="ũ"/><glyph d="M662 68q-109 -84 -252 -84q-150 0 -224 84q-63 72 -63 186q0 41 8 82l193 1098h225l-193 -1098q-4 -29 -4 -49q0 -39 15 -54q23 -25 82 -24q55 0 88 24q35 27 49 103l192 1098h226l-193 -1098q-28 -166 -149 -268zM905 1509h-454l20 113h455z" glyph-name="Umacron" horiz-adv-x="823" unicode="Ū"/><glyph d="M662 68q-109 -84 -252 -84q-150 0 -224 84q-63 72 -63 186q0 41 8 82l193 1098h225l-193 -1098q-4 -29 -4 -49q0 -39 15 -54q23 -25 82 -24q55 0 88 24q35 27 49 103l192 1098h226l-193 -1098q-28 -166 -149 -268zM905 1509h-454l20 113h455z" glyph-name="umacron" horiz-adv-x="823" unicode="ū"/><glyph d="M784.5 1550q-49.5 -41 -106.5 -41q-53 0 -87 34t-34 83q0 16 2 25q10 59 59.5 101t108.5 42q51 0 85 -34t34 -83q0 -18 -2 -26q-10 -60 -59.5 -101zM728 1672q-7 9 -19 9t-22.5 -9t-14.5 -21q-2 -12 6 -20.5t20 -8.5t21.5 8t11.5 21q4 12 -3 21zM662 68 q-109 -84 -252 -84q-150 0 -224 84q-63 72 -63 186q0 41 8 82l193 1098h225l-193 -1098q-4 -29 -4 -49q0 -39 15 -54q23 -25 82 -24q55 0 88 24q35 27 49 103l192 1098h226l-193 -1098q-28 -166 -149 -268z" glyph-name="Uring" horiz-adv-x="823" unicode="Ů"/><glyph d="M784.5 1550q-49.5 -41 -106.5 -41q-53 0 -87 34t-34 83q0 16 2 25q10 59 59.5 101t108.5 42q51 0 85 -34t34 -83q0 -18 -2 -26q-10 -60 -59.5 -101zM728 1672q-7 9 -19 9t-22.5 -9t-14.5 -21q-2 -12 6 -20.5t20 -8.5t21.5 8t11.5 21q4 12 -3 21zM662 68 q-109 -84 -252 -84q-150 0 -224 84q-63 72 -63 186q0 41 8 82l193 1098h225l-193 -1098q-4 -29 -4 -49q0 -39 15 -54q23 -25 82 -24q55 0 88 24q35 27 49 103l192 1098h226l-193 -1098q-28 -166 -149 -268z" glyph-name="uring" horiz-adv-x="823" unicode="ů"/><glyph d="M662 68q-109 -84 -252 -84q-150 0 -224 84q-63 72 -63 186q0 41 8 82l193 1098h225l-193 -1098q-4 -29 -4 -49q0 -39 15 -54q23 -25 82 -24q55 0 88 24q35 27 49 103l192 1098h226l-193 -1098q-28 -166 -149 -268zM582 1509h-113l152 226h225zM887 1509h-113l152 226h225 z" glyph-name="Uhungarumlaut" horiz-adv-x="823" unicode="Ű"/><glyph d="M662 68q-109 -84 -252 -84q-150 0 -224 84q-63 72 -63 186q0 41 8 82l193 1098h225l-193 -1098q-4 -29 -4 -49q0 -39 15 -54q23 -25 82 -24q55 0 88 24q35 27 49 103l192 1098h226l-193 -1098q-28 -166 -149 -268zM582 1509h-113l152 226h225zM887 1509h-113l152 226h225 z" glyph-name="uhungarumlaut" horiz-adv-x="823" unicode="ű"/><glyph d="M1004 1434l-193 -1098q-16 -94 -56 -156.5t-93 -111.5q-74 -66 -107 -107t-39 -76q-6 -29 19.5 -40t54.5 -11h18l-20 -113h-39q-68 0 -113 26t-45 77q0 12 2 18q8 41 45 84t82 72q-51 -14 -110 -14q-150 0 -224 84q-63 72 -63 186q0 41 8 82l193 1098h225l-193 -1098 q-4 -29 -4 -49q0 -39 15 -54q23 -25 82 -24q55 0 88 24q35 27 49 103l192 1098h226z" glyph-name="Uogonek" horiz-adv-x="823" unicode="Ų"/><glyph d="M1004 1434l-193 -1098q-16 -94 -56 -156.5t-93 -111.5q-74 -66 -107 -107t-39 -76q-6 -29 19.5 -40t54.5 -11h18l-20 -113h-39q-68 0 -113 26t-45 77q0 12 2 18q8 41 45 84t82 72q-51 -14 -110 -14q-150 0 -224 84q-63 72 -63 186q0 41 8 82l193 1098h225l-193 -1098 q-4 -29 -4 -49q0 -39 15 -54q23 -25 82 -24q55 0 88 24q35 27 49 103l192 1098h226z" glyph-name="uogonek" horiz-adv-x="823" unicode="ų"/><glyph d="M1057 1434h227l-428 -1434h-125l-76 713l-323 -713h-125l76 1434h227l-47 -715l217 487h129l45 -487zM1022 1509h-113l-92 113l-133 -113h-115l154 226h225z" glyph-name="Wcircumflex" horiz-adv-x="1062" unicode="Ŵ"/><glyph d="M1057 1434h227l-428 -1434h-125l-76 713l-323 -713h-125l76 1434h227l-47 -715l217 487h129l45 -487zM1022 1509h-113l-92 113l-133 -113h-115l154 226h225z" glyph-name="wcircumflex" horiz-adv-x="1062" unicode="ŵ"/><glyph d="M1044 1434l-442 -930l-88 -504h-227l88 504l-113 930h238l61 -514l246 514h237zM891 1509h-113l-92 113l-133 -113h-115l154 226h225z" glyph-name="Ycircumflex" horiz-adv-x="802" unicode="Ŷ"/><glyph d="M1044 1434l-442 -930l-88 -504h-227l88 504l-113 930h238l61 -514l246 514h237zM891 1509h-113l-92 113l-133 -113h-115l154 226h225z" glyph-name="ycircumflex" horiz-adv-x="802" unicode="ŷ"/><glyph d="M1044 1434l-442 -930l-88 -504h-227l88 504l-113 930h238l61 -514l246 514h237zM446.5 1537q-24.5 30 -18.5 71q8 43 43 72.5t76 29.5q37 0 60.5 -23.5t23.5 -60.5q0 -12 -2 -18q-6 -41 -41 -71t-76 -30t-65.5 30zM757.5 1537q-24.5 30 -18.5 71q8 43 43 72.5t76 29.5 q37 0 60.5 -23.5t23.5 -60.5q0 -12 -2 -18q-6 -41 -41 -71t-76 -30t-65.5 30z" glyph-name="Ydieresis" horiz-adv-x="802" unicode="Ÿ"/><glyph d="M733 0h-682l586 1206h-373l39 228h682l-584 -1207h373zM715 1509h-113l152 226h225z" glyph-name="Zacute" horiz-adv-x="784" unicode="Ź"/><glyph d="M733 0h-682l586 1206h-373l39 228h682l-584 -1207h373zM715 1509h-113l152 226h225z" glyph-name="zacute" horiz-adv-x="784" unicode="ź"/><glyph d="M733 0h-682l586 1206h-373l39 228h682l-584 -1207h373zM573 1591q0 12 2 19q8 43 42 72.5t75 29.5q37 0 61.5 -24.5t24.5 -59.5q0 -12 -2 -18q-8 -41 -43 -71t-76 -30q-37 0 -60.5 23.5t-23.5 58.5z" glyph-name="Zdotaccent" horiz-adv-x="784" unicode="Ż"/><glyph d="M733 0h-682l586 1206h-373l39 228h682l-584 -1207h373zM573 1591q0 12 2 19q8 43 42 72.5t75 29.5q37 0 61.5 -24.5t24.5 -59.5q0 -12 -2 -18q-8 -41 -43 -71t-76 -30q-37 0 -60.5 23.5t-23.5 58.5z" glyph-name="zdotaccent" horiz-adv-x="784" unicode="ż"/><glyph d="M733 0h-682l586 1206h-373l39 228h682l-584 -1207h373zM924 1735l-152 -226h-225l-76 226h115l94 -113l131 113h113z" glyph-name="Zcaron" horiz-adv-x="784" unicode="Ž"/><glyph d="M733 0h-682l586 1206h-373l39 228h682l-584 -1207h373zM924 1735l-152 -226h-225l-76 226h115l94 -113l131 113h113z" glyph-name="zcaron" horiz-adv-x="784" unicode="ž"/><glyph d="M866 553q0 -35 -6 -78l-24 -131q-12 -80 -52 -149q-41 -72 -100 -115q-100 -80 -248 -80h-340l51 301h-94l39 225h96l160 908h309q147 0 224 -80q45 -49 57 -115q6 -31 6 -68q0 -41 -6 -84l-25 -133q-27 -145 -120 -221q73 -59 73 -180zM467 827h84q59 0 88 25 q35 29 49 102l25 133q2 12 2 39q0 43 -15 60q-23 23 -82 22h-83zM635 475q4 29 4 45q0 39 -16 58q-23 25 -80 24h-117l-12 -76h94l-39 -225h-96l-13 -76h115q59 0 90 23q18 14 29.5 40.5t15.5 55.5z" glyph-name="uni0180" horiz-adv-x="829" unicode="ƀ"/><glyph d="M956 553q0 -35 -6 -78l-22 -131q-16 -84 -54 -149q-37 -70 -98 -115q-104 -80 -250 -80h-340l234 1321h-86q-12 0 -21.5 -8t-13.5 -21h-113q10 59 59.5 100.5t106.5 41.5h396q147 0 223 -80q45 -49 57 -115q6 -31 6 -68q0 -41 -6 -84l-24 -133q-27 -145 -121 -221 q73 -59 73 -180zM557 827h84q59 0 88 25q35 31 49 102l25 133q2 12 2 39q0 43 -14 60q-20 23 -82 22h-84zM725 475q4 29 4 45q0 39 -16 58q-25 25 -80 24h-115l-67 -377h114q63 0 90 23q35 27 47 96z" glyph-name="uni0181" horiz-adv-x="919" unicode="Ɓ"/><glyph d="M645 68q-109 -84 -252 -84q-150 0 -223 84q-63 72 -64 186q0 41 9 82l32 184h226l-33 -184q-4 -29 -4 -49q0 -39 14 -54q23 -25 82 -24q55 0 88 24q35 27 49 103l136 762q2 12 2 39q0 45 -17 63q-23 25 -80 25t-90 -25q-35 -29 -45 -102l-22 -127h-226l23 127 q29 170 149 268q102 84 252 84q143 0 223 -84q63 -78 64 -188q0 -23 -8 -80l-135 -762q-29 -166 -150 -268z" glyph-name="uni0186" horiz-adv-x="798" unicode="Ɔ"/><glyph d="M946 1552q49 41 109 41l-21 -112q-12 0 -22.5 -8.5t-12.5 -20.5l-84 -481h-225l23 127q4 29 4 45q0 39 -17 57q-23 25 -82 25q-55 0 -88 -25q-20 -16 -31.5 -45t-15.5 -57l-135 -762q-4 -25 -4 -43q0 -41 16 -60q23 -25 80 -24q57 0 90 24q33 27 48 103l32 184h226 l-33 -184q-29 -170 -150 -268q-106 -84 -252 -84q-145 0 -223 84q-63 78 -63 188q0 23 8 80l135 762q29 166 150 268q106 84 251 84q68 0 123.5 -19.5t89.5 -56.5l15 78q10 59 59 100z" glyph-name="uni0187" horiz-adv-x="798" unicode="Ƈ"/><glyph d="M946 1552q49 41 109 41l-21 -112q-12 0 -22.5 -8.5t-12.5 -20.5l-84 -481h-225l23 127q4 29 4 45q0 39 -17 57q-23 25 -82 25q-55 0 -88 -25q-20 -16 -31.5 -45t-15.5 -57l-135 -762q-4 -25 -4 -43q0 -41 16 -60q23 -25 80 -24q57 0 90 24q33 27 48 103l32 184h226 l-33 -184q-29 -170 -150 -268q-106 -84 -252 -84q-145 0 -223 84q-63 78 -63 188q0 23 8 80l135 762q29 166 150 268q106 84 251 84q68 0 123.5 -19.5t89.5 -56.5l15 78q10 59 59 100z" glyph-name="uni0188" horiz-adv-x="798" unicode="ƈ"/><glyph d="M971 1163q0 -41 -8 -82l-129 -737q-14 -80 -52 -149q-41 -72 -100 -115q-104 -80 -250 -80h-340l107 602h-82l39 225h82l106 607h340q147 0 223 -86q64 -72 64 -185zM737 1081q4 25 4 43q0 41 -16 60q-23 25 -80 24h-115l-67 -381h102l-39 -225h-102l-68 -377h115 q63 0 90 23q33 25 47 96z" glyph-name="uni0189" horiz-adv-x="835" unicode="Ɖ"/><glyph d="M1065 1163q0 -41 -8 -82l-129 -737q-14 -80 -51 -149q-41 -72 -101 -115q-104 -80 -250 -80h-340l234 1321h-86q-12 0 -21.5 -8t-13.5 -21h-113q10 59 59.5 100.5t106.5 41.5h426q147 0 223 -86q64 -72 64 -185zM831 1081q4 25 5 43q0 41 -17 60q-23 25 -80 24h-114 l-174 -983h114q63 0 90 23q33 25 47 96z" glyph-name="uni018A" horiz-adv-x="929" unicode="Ɗ"/><glyph d="M270 1208l39 226h594l-252 -1434h-594l39 225h369l72 398h-254l39 225h253l64 360h-369z" glyph-name="uni018E" horiz-adv-x="733" unicode="Ǝ"/><glyph d="M520 1208l-63 -360h256l-39 -225h-256l-111 -623q-23 -135 -90 -181t-205 -46l21 112q12 0 21 8.5t14 20.5l266 1520h594l-39 -226h-369z" glyph-name="uni0191" horiz-adv-x="704" unicode="Ƒ"/><glyph d="M946 1552q49 41 107 41l-21 -112q-12 0 -21.5 -8.5t-11.5 -20.5l-84 -481h-225l23 127q4 29 4 45q0 39 -17 57q-23 25 -82 25q-55 0 -88 -25q-20 -16 -31.5 -45t-15.5 -57l-135 -762q-4 -25 -4 -43q0 -41 16 -60q23 -25 80 -24q57 0 90 24q33 27 48 103l47 268h-113 l39 225h338l-86 -493q-29 -170 -150 -268q-106 -84 -252 -84q-145 0 -223 84q-63 78 -63 188q0 23 8 80l135 762q29 166 150 268q106 84 251 84q137 0 213 -76l15 78q10 59 59 100z" glyph-name="uni0193" horiz-adv-x="808" unicode="Ɠ"/><glyph d="M539 793l-19 -113h-82l-121 -680h-225l121 680h-82l19 113h81l113 641h225l-112 -641h82z" glyph-name="uni0197" horiz-adv-x="409" unicode="Ɨ"/><glyph d="M1176.5 1400q33.5 -34 33.5 -83q0 -16 -2 -25h-112v6q0 10 -7.5 16.5t-17.5 6.5h-84l-342 -567l156 -754h-242l-94 459l-109 -178l-49 -281h-225l252 1434h225l-102 -582l352 582h281q53 0 86.5 -34z" glyph-name="uni0198" horiz-adv-x="940" unicode="Ƙ"/><glyph d="M1176.5 1400q33.5 -34 33.5 -83q0 -16 -2 -25h-112v6q0 10 -7.5 16.5t-17.5 6.5h-84l-342 -567l156 -754h-242l-94 459l-109 -178l-49 -281h-225l252 1434h225l-102 -582l352 582h281q53 0 86.5 -34z" glyph-name="uni0199" horiz-adv-x="940" unicode="ƙ"/><glyph d="M1026 1434l-252 -1434h-131l-215 727l-129 -727q-23 -135 -90.5 -181t-204.5 -46l21 112q12 0 21 8.5t13 20.5l267 1520h131l217 -725l127 725h225z" glyph-name="uni019D" horiz-adv-x="847" unicode="Ɲ"/><glyph d="M1149 1479q-8 -57 -58.5 -99.5t-109.5 -42.5h-78q43 -66 43 -157q0 -41 -8 -82l-135 -762q-29 -170 -150 -268q-106 -84 -252 -84q-150 0 -223 84q-63 72 -63 186q0 41 8 82l135 762q29 170 150 268q102 84 251 84h342q12 0 22.5 8t12.5 21h113zM713 1098q4 25 4 43 q0 41 -19 59q-20 25 -80 25q-55 0 -88 -25q-20 -16 -31.5 -45t-15.5 -57l-135 -762q-4 -25 -4 -43q0 -41 16 -60q23 -25 80 -24q59 0 88 24q35 25 50 103z" glyph-name="Ohorn" horiz-adv-x="847" unicode="Ơ"/><glyph d="M1149 1479q-8 -57 -58.5 -99.5t-109.5 -42.5h-78q43 -66 43 -157q0 -41 -8 -82l-135 -762q-29 -170 -150 -268q-106 -84 -252 -84q-150 0 -223 84q-63 72 -63 186q0 41 8 82l135 762q29 170 150 268q102 84 251 84h342q12 0 22.5 8t12.5 21h113zM713 1098q4 25 4 43 q0 41 -19 59q-20 25 -80 25q-55 0 -88 -25q-20 -16 -31.5 -45t-15.5 -57l-135 -762q-4 -25 -4 -43q0 -41 16 -60q23 -25 80 -24q59 0 88 24q35 25 50 103z" glyph-name="ohorn" horiz-adv-x="847" unicode="ơ"/><glyph d="M1065 1163q0 -41 -8 -82l-27 -155q-33 -174 -149 -269q-106 -84 -254 -84h-115l-100 -573h-226l234 1321h-86q-12 0 -21.5 -8t-13.5 -21h-113q10 59 59.5 100.5t106.5 41.5h426q147 0 223 -86q64 -72 64 -185zM831 1081q4 25 5 43q0 41 -17 60q-23 25 -80 24h-114 l-72 -409h115q55 0 88 24q37 29 49 103z" glyph-name="uni01A4" horiz-adv-x="907" unicode="Ƥ"/><glyph d="M1065 1163q0 -41 -8 -82l-27 -155q-33 -174 -149 -269q-106 -84 -254 -84h-115l-100 -573h-226l234 1321h-86q-12 0 -21.5 -8t-13.5 -21h-113q10 59 59.5 100.5t106.5 41.5h426q147 0 223 -86q64 -72 64 -185zM831 1081q4 25 5 43q0 41 -17 60q-23 25 -80 24h-114 l-72 -409h115q55 0 88 24q37 29 49 103z" glyph-name="uni01A5" horiz-adv-x="907" unicode="ƥ"/><glyph d="M1036 1434l-39 -226h-229l-213 -1208h-225l213 1208h-230q-12 0 -21 -8t-11 -20h-113q23 135 79 194.5t191 59.5h598z" glyph-name="uni01AC" horiz-adv-x="802" unicode="Ƭ"/><glyph d="M1036 1434l-39 -226h-229l-213 -1208h-225l213 1208h-230q-12 0 -21 -8t-11 -20h-113q23 135 79 194.5t191 59.5h598z" glyph-name="uni01AD" horiz-adv-x="802" unicode="ƭ"/><glyph d="M475 0v-4q0 -10 7 -17.5t18 -7.5l-21 -112q-117 0 -170 31.5t-53 119.5q0 18 8 76l199 1122h-230l39 226h684l-38 -226h-230z" glyph-name="uni01AE" horiz-adv-x="722" unicode="Ʈ"/><glyph d="M1237 1462q-10 -59 -59.5 -100t-106.5 -41h-86l-174 -985q-29 -166 -149 -268q-109 -84 -252 -84q-150 0 -224 84q-63 72 -63 186q0 41 8 82l193 1098h225l-193 -1098q-4 -29 -4 -49q0 -39 15 -54q23 -25 82 -24q55 0 88 24q35 27 49 103l192 1098h312q12 0 21 8t13 20 h113z" glyph-name="Uhorn" horiz-adv-x="937" unicode="Ư"/><glyph d="M1237 1462q-10 -59 -59.5 -100t-106.5 -41h-86l-174 -985q-29 -166 -149 -268q-109 -84 -252 -84q-150 0 -224 84q-63 72 -63 186q0 41 8 82l193 1098h225l-193 -1098q-4 -29 -4 -49q0 -39 15 -54q23 -25 82 -24q55 0 88 24q35 27 49 103l192 1098h312q12 0 21 8t13 20 h113z" glyph-name="uhorn" horiz-adv-x="937" unicode="ư"/><glyph d="M1183 1400q34 -34 34 -83q0 -16 -3 -25h-112v6q0 23 -23 23h-86l-391 -817l-88 -504h-227l88 504l-113 930h238l61 -514l246 514h291q51 0 85 -34z" glyph-name="uni01B3" horiz-adv-x="946" unicode="Ƴ"/><glyph d="M1183 1400q34 -34 34 -83q0 -16 -3 -25h-112v6q0 23 -23 23h-86l-391 -817l-88 -504h-227l88 504l-113 930h238l61 -514l246 514h291q51 0 85 -34z" glyph-name="uni01B4" horiz-adv-x="946" unicode="ƴ"/><glyph d="M596 0v227h-258l-82 -227h-229l538 1434h226l34 -1434h-229zM416 453h180v514zM956 1735l-151 -226h-225l-76 226h114l95 -113l131 113h112z" glyph-name="uni01CD" unicode="Ǎ"/><glyph d="M596 0v227h-258l-82 -227h-229l538 1434h226l34 -1434h-229zM416 453h180v514zM956 1735l-151 -226h-225l-76 226h114l95 -113l131 113h112z" glyph-name="uni01CE" unicode="ǎ"/><glyph d="M307 0h-225l252 1434h225zM725 1735l-152 -226h-225l-76 226h115l94 -113l131 113h113z" glyph-name="uni01CF" horiz-adv-x="387" unicode="Ǐ"/><glyph d="M307 0h-225l252 1434h225zM725 1735l-152 -226h-225l-76 226h115l94 -113l131 113h113z" glyph-name="uni01D0" horiz-adv-x="387" unicode="ǐ"/><glyph d="M653 68q-106 -84 -252 -84q-150 0 -223 84q-63 72 -63 186q0 41 8 82l135 762q29 170 150 268q102 84 251 84q145 0 224 -84q63 -72 63 -186q0 -41 -8 -82l-135 -762q-29 -170 -150 -268zM698 1200q-20 25 -80 25q-55 0 -88 -25q-20 -16 -31.5 -45t-15.5 -57l-135 -762 q-4 -25 -4 -43q0 -41 16 -60q23 -25 80 -24q59 0 88 24q35 25 50 103l135 762q4 25 4 43q-1 41 -19 59zM483 1735h113l94 -113l131 113h115l-154 -226h-225z" glyph-name="uni01D1" horiz-adv-x="806" unicode="Ǒ"/><glyph d="M653 68q-106 -84 -252 -84q-150 0 -223 84q-63 72 -63 186q0 41 8 82l135 762q29 170 150 268q102 84 251 84q145 0 224 -84q63 -72 63 -186q0 -41 -8 -82l-135 -762q-29 -170 -150 -268zM698 1200q-20 25 -80 25q-55 0 -88 -25q-20 -16 -31.5 -45t-15.5 -57l-135 -762 q-4 -25 -4 -43q0 -41 16 -60q23 -25 80 -24q59 0 88 24q35 25 50 103l135 762q4 25 4 43q-1 41 -19 59zM483 1735h113l94 -113l131 113h115l-154 -226h-225z" glyph-name="uni01D2" horiz-adv-x="806" unicode="ǒ"/><glyph d="M662 68q-109 -84 -252 -84q-150 0 -224 84q-63 72 -63 186q0 41 8 82l193 1098h225l-193 -1098q-4 -29 -4 -49q0 -39 15 -54q23 -25 82 -24q55 0 88 24q35 27 49 103l192 1098h226l-193 -1098q-28 -166 -149 -268zM942 1735l-151 -226h-226l-76 226h115l94 -113l131 113 h113z" glyph-name="uni01D3" horiz-adv-x="823" unicode="Ǔ"/><glyph d="M662 68q-109 -84 -252 -84q-150 0 -224 84q-63 72 -63 186q0 41 8 82l193 1098h225l-193 -1098q-4 -29 -4 -49q0 -39 15 -54q23 -25 82 -24q55 0 88 24q35 27 49 103l192 1098h226l-193 -1098q-28 -166 -149 -268zM942 1735l-151 -226h-226l-76 226h115l94 -113l131 113 h113z" glyph-name="uni01D4" horiz-adv-x="823" unicode="ǔ"/><glyph d="M662 68q-109 -84 -252 -84q-150 0 -224 84q-63 72 -63 186q0 41 8 82l193 1098h225l-193 -1098q-4 -29 -4 -49q0 -39 15 -54q23 -25 82 -24q55 0 88 24q35 27 49 103l192 1098h226l-193 -1098q-28 -166 -149 -268zM456.5 1537q-24.5 30 -18.5 71q8 43 43 72.5t76 29.5 q37 0 60.5 -23.5t23.5 -60.5q0 -12 -2 -18q-6 -41 -41 -71t-76 -30t-65.5 30zM768 1537q-25 30 -18 71q8 43 42.5 72.5t75.5 29.5q37 0 60.5 -23.5t23.5 -60.5q0 -12 -2 -18q-6 -41 -41 -71t-75 -30q-41 0 -66 30zM952 1778h-454l20 112h455z" glyph-name="uni01D5" horiz-adv-x="823" unicode="Ǖ"/><glyph d="M662 68q-109 -84 -252 -84q-150 0 -224 84q-63 72 -63 186q0 41 8 82l193 1098h225l-193 -1098q-4 -29 -4 -49q0 -39 15 -54q23 -25 82 -24q55 0 88 24q35 27 49 103l192 1098h226l-193 -1098q-28 -166 -149 -268zM456.5 1537q-24.5 30 -18.5 71q8 43 43 72.5t76 29.5 q37 0 60.5 -23.5t23.5 -60.5q0 -12 -2 -18q-6 -41 -41 -71t-76 -30t-65.5 30zM768 1537q-25 30 -18 71q8 43 42.5 72.5t75.5 29.5q37 0 60.5 -23.5t23.5 -60.5q0 -12 -2 -18q-6 -41 -41 -71t-75 -30q-41 0 -66 30zM952 1778h-454l20 112h455z" glyph-name="uni01D6" horiz-adv-x="823" unicode="ǖ"/><glyph d="M760 1778h-113l152 225h225zM662 68q-109 -84 -252 -84q-150 0 -224 84q-63 72 -63 186q0 41 8 82l193 1098h225l-193 -1098q-4 -29 -4 -49q0 -39 15 -54q23 -25 82 -24q55 0 88 24q35 27 49 103l192 1098h226l-193 -1098q-28 -166 -149 -268zM436.5 1537 q-24.5 30 -18.5 71q8 43 43 72.5t76 29.5q37 0 60.5 -23.5t23.5 -60.5q0 -12 -3 -18q-6 -41 -40.5 -71t-75.5 -30t-65.5 30zM747.5 1537q-24.5 30 -18.5 71q8 43 43 72.5t76 29.5q37 0 60.5 -23.5t23.5 -60.5q0 -12 -2 -18q-6 -41 -41 -71t-76 -30t-65.5 30z" glyph-name="uni01D7" horiz-adv-x="823" unicode="Ǘ"/><glyph d="M760 1778h-113l152 225h225zM662 68q-109 -84 -252 -84q-150 0 -224 84q-63 72 -63 186q0 41 8 82l193 1098h225l-193 -1098q-4 -29 -4 -49q0 -39 15 -54q23 -25 82 -24q55 0 88 24q35 27 49 103l192 1098h226l-193 -1098q-28 -166 -149 -268zM436.5 1537 q-24.5 30 -18.5 71q8 43 43 72.5t76 29.5q37 0 60.5 -23.5t23.5 -60.5q0 -12 -3 -18q-6 -41 -40.5 -71t-75.5 -30t-65.5 30zM747.5 1537q-24.5 30 -18.5 71q8 43 43 72.5t76 29.5q37 0 60.5 -23.5t23.5 -60.5q0 -12 -2 -18q-6 -41 -41 -71t-76 -30t-65.5 30z" glyph-name="uni01D8" horiz-adv-x="823" unicode="ǘ"/><glyph d="M662 68q-109 -84 -252 -84q-150 0 -224 84q-63 72 -63 186q0 41 8 82l193 1098h225l-193 -1098q-4 -29 -4 -49q0 -39 15 -54q23 -25 82 -24q55 0 88 24q35 27 49 103l192 1098h226l-193 -1098q-28 -166 -149 -268zM436.5 1537q-24.5 30 -18.5 71q8 43 43 72.5t76 29.5 q37 0 60.5 -23.5t23.5 -60.5q0 -12 -3 -18q-6 -41 -40.5 -71t-75.5 -30t-65.5 30zM747.5 1537q-24.5 30 -18.5 71q8 43 43 72.5t76 29.5q37 0 60.5 -23.5t23.5 -60.5q0 -12 -2 -18q-6 -41 -41 -71t-76 -30t-65.5 30zM989 2003l-151 -225h-226l-75 225h114l94 -113l132 113 h112z" glyph-name="uni01D9" horiz-adv-x="823" unicode="Ǚ"/><glyph d="M662 68q-109 -84 -252 -84q-150 0 -224 84q-63 72 -63 186q0 41 8 82l193 1098h225l-193 -1098q-4 -29 -4 -49q0 -39 15 -54q23 -25 82 -24q55 0 88 24q35 27 49 103l192 1098h226l-193 -1098q-28 -166 -149 -268zM436.5 1537q-24.5 30 -18.5 71q8 43 43 72.5t76 29.5 q37 0 60.5 -23.5t23.5 -60.5q0 -12 -3 -18q-6 -41 -40.5 -71t-75.5 -30t-65.5 30zM747.5 1537q-24.5 30 -18.5 71q8 43 43 72.5t76 29.5q37 0 60.5 -23.5t23.5 -60.5q0 -12 -2 -18q-6 -41 -41 -71t-76 -30t-65.5 30zM989 2003l-151 -225h-226l-75 225h114l94 -113l132 113 h112z" glyph-name="uni01DA" horiz-adv-x="823" unicode="ǚ"/><glyph d="M690 1778l-186 225h225l74 -225h-113zM662 68q-106 -84 -252 -84q-145 0 -224 84q-63 78 -63 188q0 23 8 80l193 1098h225l-193 -1098q-4 -25 -4 -43q0 -41 17 -60q23 -25 80 -24q57 0 90 24q33 27 47 103l192 1098h226l-193 -1098q-28 -170 -149 -268zM973 1626 q0 -12 -2 -18q-6 -41 -41 -71t-76 -30t-65.5 30t-18.5 71q8 43 43 72.5t76 29.5q37 0 60.5 -23.5t23.5 -60.5zM662 1626q0 -12 -3 -18q-6 -41 -40.5 -71t-75.5 -30t-65.5 30t-18.5 71q8 43 43 72.5t76 29.5q37 0 60.5 -23.5t23.5 -60.5z" glyph-name="uni01DB" horiz-adv-x="823" unicode="Ǜ"/><glyph d="M690 1778l-186 225h225l74 -225h-113zM662 68q-106 -84 -252 -84q-145 0 -224 84q-63 78 -63 188q0 23 8 80l193 1098h225l-193 -1098q-4 -25 -4 -43q0 -41 17 -60q23 -25 80 -24q57 0 90 24q33 27 47 103l192 1098h226l-193 -1098q-28 -170 -149 -268zM973 1626 q0 -12 -2 -18q-6 -41 -41 -71t-76 -30t-65.5 30t-18.5 71q8 43 43 72.5t76 29.5q37 0 60.5 -23.5t23.5 -60.5zM662 1626q0 -12 -3 -18q-6 -41 -40.5 -71t-75.5 -30t-65.5 30t-18.5 71q8 43 43 72.5t76 29.5q37 0 60.5 -23.5t23.5 -60.5z" glyph-name="uni01DC" horiz-adv-x="823" unicode="ǜ"/><glyph d="M270 1208l39 226h594l-252 -1434h-594l39 225h369l72 398h-254l39 225h253l64 360h-369z" glyph-name="uni01DD" horiz-adv-x="733" unicode="ǝ"/><glyph d="M596 0v227h-258l-82 -227h-229l538 1434h226l34 -1434h-229zM416 453h180v514zM471 1537q-25 30 -18 71q8 43 42.5 72.5t75.5 29.5q37 0 60.5 -23.5t23.5 -60.5q0 -12 -2 -18q-6 -41 -40.5 -71t-75.5 -30t-66 30zM782.5 1537q-24.5 30 -18.5 71q8 43 43 72.5t76 29.5 q37 0 60.5 -23.5t23.5 -60.5q0 -12 -2 -18q-6 -41 -41 -71t-76 -30t-65.5 30zM967 1778h-455l20 112h455z" glyph-name="uni01DE" unicode="Ǟ"/><glyph d="M596 0v227h-258l-82 -227h-229l538 1434h226l34 -1434h-229zM416 453h180v514zM471 1537q-25 30 -18 71q8 43 42.5 72.5t75.5 29.5q37 0 60.5 -23.5t23.5 -60.5q0 -12 -2 -18q-6 -41 -40.5 -71t-75.5 -30t-66 30zM782.5 1537q-24.5 30 -18.5 71q8 43 43 72.5t76 29.5 q37 0 60.5 -23.5t23.5 -60.5q0 -12 -2 -18q-6 -41 -41 -71t-76 -30t-65.5 30zM967 1778h-455l20 112h455z" glyph-name="uni01DF" unicode="ǟ"/><glyph d="M934 1735l-152 -226h-225l-76 226h115l94 -113l131 113h113zM653 68q-106 -84 -252 -84q-145 0 -223 84q-63 78 -63 188q0 23 8 80l135 762q29 166 150 268q106 84 251 84t224 -84q63 -72 63 -186q0 -41 -8 -82l-23 -127h-225l23 127q4 29 4 45q0 39 -17 57 q-23 25 -82 25q-55 0 -88 -25q-20 -16 -31.5 -45t-15.5 -57l-135 -762q-4 -25 -4 -43q0 -41 16 -60q23 -25 80 -24q57 0 90 24q33 27 48 103l47 268h-113l39 225h338l-86 -493q-29 -170 -150 -268z" glyph-name="Gcaron" horiz-adv-x="808" unicode="Ǧ"/><glyph d="M934 1735l-152 -226h-225l-76 226h115l94 -113l131 113h113zM653 68q-106 -84 -252 -84q-145 0 -223 84q-63 78 -63 188q0 23 8 80l135 762q29 166 150 268q106 84 251 84t224 -84q63 -72 63 -186q0 -41 -8 -82l-23 -127h-225l23 127q4 29 4 45q0 39 -17 57 q-23 25 -82 25q-55 0 -88 -25q-20 -16 -31.5 -45t-15.5 -57l-135 -762q-4 -25 -4 -43q0 -41 16 -60q23 -25 80 -24q57 0 90 24q33 27 48 103l47 268h-113l39 225h338l-86 -493q-29 -170 -150 -268z" glyph-name="gcaron" horiz-adv-x="808" unicode="ǧ"/><glyph d="M936 1257q8 -31 8 -75q0 -43 -8 -86l-133 -762q-33 -172 -150 -268q-106 -84 -254 -84q-147 0 -221 84l-72 -113l-94 47l111 174q-8 49 -8 80q0 41 8 80l133 762q31 168 150 268q106 84 253 84t222 -82l71 113l95 -45zM395 602l318 498q4 25 4 37q0 43 -19 61 q-20 25 -80 25q-55 0 -88 -25q-35 -27 -49 -102zM664 829l-316 -497q-4 -25 -4 -43q0 -39 16 -58q23 -25 80 -24q59 0 88 24q35 25 50 103z" glyph-name="Oslashacute" horiz-adv-x="806" unicode="Ǿ"/><glyph d="M936 1257q8 -31 8 -75q0 -43 -8 -86l-133 -762q-33 -172 -150 -268q-106 -84 -254 -84q-147 0 -221 84l-72 -113l-94 47l111 174q-8 49 -8 80q0 41 8 80l133 762q31 168 150 268q106 84 253 84t222 -82l71 113l95 -45zM395 602l318 498q4 25 4 37q0 43 -19 61 q-20 25 -80 25q-55 0 -88 -25q-35 -27 -49 -102zM664 829l-316 -497q-4 -25 -4 -43q0 -39 16 -58q23 -25 80 -24q59 0 88 24q35 25 50 103z" glyph-name="oslashacute" horiz-adv-x="806" unicode="ǿ"/><glyph d="M639 68q-106 -84 -252 -84q-150 0 -223 84q-63 72 -64 186q0 41 9 82l32 186h226l-33 -186q-4 -25 -4 -43q0 -41 16 -60q23 -25 80 -24q59 0 88 24q35 25 49 103l17 90q4 25 4 37q0 74 -52 127q-18 18 -77 53q-92 57 -125 90q-100 104 -101 250q0 45 9 80l6 35 q29 170 149 268q102 84 252 84q145 0 223 -84q63 -72 64 -186q0 -41 -8 -82l-23 -125h-225l22 125q4 25 4 43q0 41 -18 59q-20 25 -80 25q-55 0 -88 -25q-20 -16 -31.5 -45t-15.5 -57l-6 -35q-4 -29 -4 -41q0 -70 51 -121q8 -8 30.5 -23.5t39.5 -25.5q96 -55 131 -94 q100 -106 100 -256q0 -35 -6 -76l-17 -90q-28 -170 -149 -268zM418 -256q-33 -47 -88 -111h-74l31 58q12 25 12 37q0 14 -10 22q-14 16 -22.5 31.5t-8.5 38.5q0 12 2 18q8 41 43 71t76 30q39 0 62.5 -24t23.5 -58q0 -12 -2 -19q-6 -43 -45 -94z" glyph-name="Scommaaccent" horiz-adv-x="778" unicode="Ș"/><glyph d="M639 68q-106 -84 -252 -84q-150 0 -223 84q-63 72 -64 186q0 41 9 82l32 186h226l-33 -186q-4 -25 -4 -43q0 -41 16 -60q23 -25 80 -24q59 0 88 24q35 25 49 103l17 90q4 25 4 37q0 74 -52 127q-18 18 -77 53q-92 57 -125 90q-100 104 -101 250q0 45 9 80l6 35 q29 170 149 268q102 84 252 84q145 0 223 -84q63 -72 64 -186q0 -41 -8 -82l-23 -125h-225l22 125q4 25 4 43q0 41 -18 59q-20 25 -80 25q-55 0 -88 -25q-20 -16 -31.5 -45t-15.5 -57l-6 -35q-4 -29 -4 -41q0 -70 51 -121q8 -8 30.5 -23.5t39.5 -25.5q96 -55 131 -94 q100 -106 100 -256q0 -35 -6 -76l-17 -90q-28 -170 -149 -268zM418 -256q-33 -47 -88 -111h-74l31 58q12 25 12 37q0 14 -10 22q-14 16 -22.5 31.5t-8.5 38.5q0 12 2 18q8 41 43 71t76 30q39 0 62.5 -24t23.5 -58q0 -12 -2 -19q-6 -43 -45 -94z" glyph-name="scommaaccent" horiz-adv-x="778" unicode="ș"/><glyph d="M956 1434l-38 -226h-230l-213 -1208h-225l213 1208h-230l39 226h684zM387 -276q-20 -31 -86 -111h-74q12 29 31 57q12 25 12 37t-10 23q-33 33 -33 69q0 12 2 19q8 41 43 70.5t76 29.5q39 0 62.5 -23.5t23.5 -58.5q0 -12 -2 -18q-6 -43 -45 -94z" glyph-name="uni021A" horiz-adv-x="722" unicode="Ț"/><glyph d="M956 1434l-38 -226h-230l-213 -1208h-225l213 1208h-230l39 226h684zM387 -276q-20 -31 -86 -111h-74q12 29 31 57q12 25 12 37t-10 23q-33 33 -33 69q0 12 2 19q8 41 43 70.5t76 29.5q39 0 62.5 -23.5t23.5 -58.5q0 -12 -2 -18q-6 -43 -45 -94z" glyph-name="uni021B" horiz-adv-x="722" unicode="ț"/><glyph d="M520 1208l-63 -360h254l-39 -225h-254l-72 -398h369l-39 -225h-244v-2q-4 -6 6 -16q27 -20 41.5 -41t14.5 -58q0 -10 -5 -30q-8 -57 -57 -99.5t-108 -42.5q-51 0 -85 34t-34 85q0 14 2 23h112v-5q0 -10 7.5 -17t17.5 -7q12 0 21.5 8t11.5 21l2 8q0 6 -6 13t-17 15 q-39 33 -39 84q0 16 2 25v2h-237l252 1434h594l-39 -226h-369z" glyph-name="uni0228" horiz-adv-x="733" unicode="Ȩ"/><glyph d="M520 1208l-63 -360h254l-39 -225h-254l-72 -398h369l-39 -225h-244v-2q-4 -6 6 -16q27 -20 41.5 -41t14.5 -58q0 -10 -5 -30q-8 -57 -57 -99.5t-108 -42.5q-51 0 -85 34t-34 85q0 14 2 23h112v-5q0 -10 7.5 -17t17.5 -7q12 0 21.5 8t11.5 21l2 8q0 6 -6 13t-17 15 q-39 33 -39 84q0 16 2 25v2h-237l252 1434h594l-39 -226h-369z" glyph-name="uni0229" horiz-adv-x="733" unicode="ȩ"/><glyph d="M653 68q-106 -84 -252 -84q-150 0 -223 84q-63 72 -63 186q0 41 8 82l135 762q29 170 150 268q102 84 251 84q145 0 224 -84q63 -72 63 -186q0 -41 -8 -82l-135 -762q-29 -170 -150 -268zM698 1200q-20 25 -80 25q-55 0 -88 -25q-20 -16 -31.5 -45t-15.5 -57l-135 -762 q-4 -25 -4 -43q0 -41 16 -60q23 -25 80 -24q59 0 88 24q35 25 50 103l135 762q4 25 4 43q-1 41 -19 59zM448.5 1537q-24.5 30 -18.5 71q8 43 43 72.5t76 29.5q37 0 60.5 -23.5t23.5 -60.5q0 -12 -2 -18q-6 -41 -41 -71t-76 -30t-65.5 30zM759.5 1537q-24.5 30 -18.5 71 q8 43 43 72.5t76 29.5q37 0 60.5 -23.5t23.5 -60.5q0 -12 -2 -18q-6 -41 -41 -71t-76 -30t-65.5 30zM944 1778h-455l21 112h455z" glyph-name="uni022A" horiz-adv-x="806" unicode="Ȫ"/><glyph d="M653 68q-106 -84 -252 -84q-150 0 -223 84q-63 72 -63 186q0 41 8 82l135 762q29 170 150 268q102 84 251 84q145 0 224 -84q63 -72 63 -186q0 -41 -8 -82l-135 -762q-29 -170 -150 -268zM698 1200q-20 25 -80 25q-55 0 -88 -25q-20 -16 -31.5 -45t-15.5 -57l-135 -762 q-4 -25 -4 -43q0 -41 16 -60q23 -25 80 -24q59 0 88 24q35 25 50 103l135 762q4 25 4 43q-1 41 -19 59zM448.5 1537q-24.5 30 -18.5 71q8 43 43 72.5t76 29.5q37 0 60.5 -23.5t23.5 -60.5q0 -12 -2 -18q-6 -41 -41 -71t-76 -30t-65.5 30zM759.5 1537q-24.5 30 -18.5 71 q8 43 43 72.5t76 29.5q37 0 60.5 -23.5t23.5 -60.5q0 -12 -2 -18q-6 -41 -41 -71t-76 -30t-65.5 30zM944 1778h-455l21 112h455z" glyph-name="uni022B" horiz-adv-x="806" unicode="ȫ"/><glyph d="M866 553q0 -35 -6 -78l-24 -131q-12 -80 -52 -149q-41 -72 -100 -115q-100 -80 -248 -80h-340l51 301h-94l39 225h96l160 908h309q147 0 224 -80q45 -49 57 -115q6 -31 6 -68q0 -41 -6 -84l-25 -133q-27 -145 -120 -221q73 -59 73 -180zM467 827h84q59 0 88 25 q35 29 49 102l25 133q2 12 2 39q0 43 -15 60q-23 23 -82 22h-83zM635 475q4 29 4 45q0 39 -16 58q-23 25 -80 24h-117l-12 -76h94l-39 -225h-96l-13 -76h115q59 0 90 23q18 14 29.5 40.5t15.5 55.5z" glyph-name="uni0243" horiz-adv-x="829" unicode="Ƀ"/><glyph d="M965 680h-82l-62 -344q-29 -166 -149 -268q-109 -84 -252 -84q-150 0 -223 84q-63 72 -64 186q0 41 8 82l62 344h-82l18 113h82l113 641h225l-113 -641h230l112 641h226l-113 -641h82zM657 680h-229l-61 -344q-4 -29 -5 -49q0 -39 15 -54q23 -25 82 -24q55 0 88 24 q35 27 49 103z" glyph-name="uni0244" horiz-adv-x="843" unicode="Ʉ"/><glyph d="M592 969l-340 -969h-229l538 1434h225l35 -1434h-229v969z" glyph-name="uni0245" horiz-adv-x="843" unicode="Ʌ"/><glyph d="M786 659q-16 -14 -38 -26l18 -633h-229l-15 575h-102l-103 -575h-225l103 575h-82l39 226h81l111 633h340q147 0 223 -86q63 -72 64 -185q0 -41 -8 -82l-27 -153q-29 -173 -150 -269zM737 1081q4 25 4 43q0 41 -16 60q-23 25 -80 24h-115l-71 -407h114q55 0 89 24 q37 29 49 103z" glyph-name="uni024C" horiz-adv-x="823" unicode="Ɍ"/><glyph d="M786 659q-16 -14 -38 -26l18 -633h-229l-15 575h-102l-103 -575h-225l103 575h-82l39 226h81l111 633h340q147 0 223 -86q63 -72 64 -185q0 -41 -8 -82l-27 -153q-29 -173 -150 -269zM737 1081q4 25 4 43q0 41 -16 60q-23 25 -80 24h-115l-71 -407h114q55 0 89 24 q37 29 49 103z" glyph-name="uni024D" horiz-adv-x="823" unicode="ɍ"/><glyph d="M852 1434h229l-540 -1434h-226l-32 1434h229v-228h258zM512 981v-514l180 514h-180z" glyph-name="uni0250" unicode="ɐ"/><glyph d="M956 553q0 -35 -6 -78l-22 -131q-16 -84 -54 -149q-37 -70 -98 -115q-104 -80 -250 -80h-340l234 1321h-86q-12 0 -21.5 -8t-13.5 -21h-113q10 59 59.5 100.5t106.5 41.5h396q147 0 223 -80q45 -49 57 -115q6 -31 6 -68q0 -41 -6 -84l-24 -133q-27 -145 -121 -221 q73 -59 73 -180zM557 827h84q59 0 88 25q35 31 49 102l25 133q2 12 2 39q0 43 -14 60q-20 23 -82 22h-84zM725 475q4 29 4 45q0 39 -16 58q-25 25 -80 24h-115l-67 -377h114q63 0 90 23q35 27 47 96z" glyph-name="uni0253" horiz-adv-x="919" unicode="ɓ"/><glyph d="M645 68q-109 -84 -252 -84q-150 0 -223 84q-63 72 -64 186q0 41 9 82l32 184h226l-33 -184q-4 -29 -4 -49q0 -39 14 -54q23 -25 82 -24q55 0 88 24q35 27 49 103l136 762q2 12 2 39q0 45 -17 63q-23 25 -80 25t-90 -25q-35 -29 -45 -102l-22 -127h-226l23 127 q29 170 149 268q102 84 252 84q143 0 223 -84q63 -78 64 -188q0 -23 -8 -80l-135 -762q-29 -166 -150 -268z" glyph-name="uni0254" horiz-adv-x="798" unicode="ɔ"/><glyph d="M1065 1163q0 -41 -8 -82l-129 -737q-14 -80 -51 -149q-41 -72 -101 -115q-104 -80 -250 -80h-340l234 1321h-86q-12 0 -21.5 -8t-13.5 -21h-113q10 59 59.5 100.5t106.5 41.5h426q147 0 223 -86q64 -72 64 -185zM831 1081q4 25 5 43q0 41 -17 60q-23 25 -80 24h-114 l-174 -983h114q63 0 90 23q33 25 47 96z" glyph-name="uni0257" horiz-adv-x="929" unicode="ɗ"/><glyph d="M270 1208l39 226h594l-252 -1434h-594l39 225h369l72 398h-254l39 225h253l64 360h-369z" glyph-name="uni0258" horiz-adv-x="733" unicode="ɘ"/><glyph d="M946 1552q49 41 107 41l-21 -112q-12 0 -21.5 -8.5t-11.5 -20.5l-84 -481h-225l23 127q4 29 4 45q0 39 -17 57q-23 25 -82 25q-55 0 -88 -25q-20 -16 -31.5 -45t-15.5 -57l-135 -762q-4 -25 -4 -43q0 -41 16 -60q23 -25 80 -24q57 0 90 24q33 27 48 103l47 268h-113 l39 225h338l-86 -493q-29 -170 -150 -268q-106 -84 -252 -84q-145 0 -223 84q-63 78 -63 188q0 23 8 80l135 762q29 166 150 268q106 84 251 84q137 0 213 -76l15 78q10 59 59 100z" glyph-name="uni0260" horiz-adv-x="808" unicode="ɠ"/><glyph d="M653 68q-106 -84 -252 -84q-145 0 -223 84q-63 78 -63 188q0 23 8 80l98 557q29 166 150 268q109 84 252 84q150 0 223 -84q63 -72 63 -186q0 -41 -8 -82l-4 -25h-225l4 25q4 29 4 49q0 39 -14 53q-25 25 -82 25q-59 0 -88 -25q-35 -27 -50 -102l-98 -557q-4 -25 -4 -43 q0 -41 16 -60q23 -25 80 -24q57 0 90 24q33 27 48 103l28 166h-112l41 225h337l-69 -391q-29 -170 -150 -268z" glyph-name="uni0262" horiz-adv-x="808" unicode="ɢ"/><glyph d="M788 1434h226l-252 -1434h-225l110 623h-229l-111 -623h-225l252 1434h225l-102 -586h229z" glyph-name="uni0265" horiz-adv-x="843" unicode="ɥ"/><glyph d="M1118 1434l-252 -1434h-225l111 623h-230l-110 -623h-226l234 1321h-86q-12 0 -21.5 -8t-13.5 -21h-113q10 59 59.5 100.5t106.5 41.5h312l-103 -586h230l102 586h225z" glyph-name="uni0266" horiz-adv-x="948" unicode="ɦ"/><glyph d="M539 793l-19 -113h-82l-121 -680h-225l121 680h-82l19 113h81l113 641h225l-112 -641h82z" glyph-name="uni0268" horiz-adv-x="409" unicode="ɨ"/><glyph d="M307 0h-225l217 1229h225z" glyph-name="uni026A" horiz-adv-x="389" unicode="ɪ"/><glyph d="M899 0l-203 795l-485 -795h-129l254 1434h225l-127 -715l268 489h132l96 -489l127 715h225l-254 -1434h-129z" glyph-name="uni026F" horiz-adv-x="1110" unicode="ɯ"/><glyph d="M1026 1434l-252 -1434h-131l-215 727l-129 -727q-23 -135 -90.5 -181t-204.5 -46l21 112q12 0 21 8.5t13 20.5l267 1520h131l217 -725l127 725h225z" glyph-name="uni0272" horiz-adv-x="847" unicode="ɲ"/><glyph d="M991 1229l-217 -1229h-131l-233 625l-111 -625h-225l217 1229h131l233 -623l111 623h225z" glyph-name="uni0274" horiz-adv-x="847" unicode="ɴ"/><glyph d="M922 1004l-45 -259h253l-38 -225h-254l-54 -295h369l-39 -225h-711q-145 0 -223 84q-63 72 -63 186q0 41 8 82l92 525q33 172 150 266q111 86 254 86h710l-41 -225h-368zM694 1004h-114q-55 0 -88 -25q-35 -31 -50 -102l-92 -525q-4 -25 -4 -43q0 -41 19 -59 q23 -25 77 -25h115z" glyph-name="uni0276" horiz-adv-x="1171" unicode="ɶ"/><glyph d="M756 0h-230l-32 473h-103l-84 -473h-225l217 1229h340q145 0 221 -86q63 -63 64 -180q0 -45 -9 -86l-8 -52q-31 -176 -149 -268q-12 -10 -37 -27zM690 877q4 25 4 43q0 41 -16 59q-23 25 -80 25h-115l-53 -306h115q55 0 88 25q37 29 49 102z" glyph-name="uni0280" horiz-adv-x="813" unicode="ʀ"/><glyph d="M778 672q63 -72 64 -187q0 -41 -8 -82l-11 -51q-31 -174 -149 -266q-104 -86 -252 -86h-340l217 1229h225l-84 -473h103l200 473h230l-223 -531q20 -16 28 -26zM612 449q0 39 -16 57q-25 25 -80 24h-115l-55 -305h115q57 0 90 25q20 16 31.5 45t15.5 57l10 51q4 30 4 46z " glyph-name="uni0281" horiz-adv-x="813" unicode="ʁ"/><glyph d="M475 0v-4q0 -10 7 -17.5t18 -7.5l-21 -112q-117 0 -170 31.5t-53 119.5q0 18 8 76l199 1122h-230l39 226h684l-38 -226h-230z" glyph-name="uni0288" horiz-adv-x="722" unicode="ʈ"/><glyph d="M965 680h-82l-62 -344q-29 -166 -149 -268q-109 -84 -252 -84q-150 0 -223 84q-63 72 -64 186q0 41 8 82l62 344h-82l18 113h82l113 641h225l-113 -641h230l112 641h226l-113 -641h82zM657 680h-229l-61 -344q-4 -29 -5 -49q0 -39 15 -54q23 -25 82 -24q55 0 88 24 q35 27 49 103z" glyph-name="uni0289" horiz-adv-x="843" unicode="ʉ"/><glyph d="M592 969l-340 -969h-229l538 1434h225l35 -1434h-229v969z" glyph-name="uni028C" horiz-adv-x="843" unicode="ʌ"/><glyph d="M805 0l49 715l-217 -488h-129l-45 488l-205 -715h-227l428 1434h125l73 -713l326 713h125l-76 -1434h-227z" glyph-name="uni028D" horiz-adv-x="1062" unicode="ʍ"/><glyph d="M793 0h-238l-63 514l-244 -514h-238l441 930l90 504h227l-90 -504z" glyph-name="uni028E" horiz-adv-x="802" unicode="ʎ"/><glyph d="M1010 1229l-424 -828l-72 -401h-227l71 401l-131 828h238l61 -514l246 514h238z" glyph-name="uni028F" horiz-adv-x="802" unicode="ʏ"/><glyph d="M672 80q-104 -80 -250 -80h-340l217 1229h309q147 0 221 -80q45 -49 58 -115q8 -31 8 -71q0 -41 -8 -80l-6 -31q-23 -145 -121 -221q76 -61 76 -178q0 -41 -9 -80l-4 -29q-16 -84 -53 -149q-37 -70 -98 -115zM395 500l-49 -275h115q63 0 90 23q35 27 47 96l4 29 q4 29 4 45q0 39 -16 57q-23 25 -80 25h-115zM483 1004l-49 -279h84q57 0 90 25q20 16 31.5 44.5t15.5 57.5l7 31q4 25 4 41q0 39 -17 57q-20 23 -82 23h-84z" glyph-name="uni0299" horiz-adv-x="815" unicode="ʙ"/><glyph d="M909 1347q49 42 109 42l-21 -113q-12 0 -21 -8t-13 -21l-66 -379h-225l4 25q4 29 4 49q0 39 -14 53q-25 25 -82 25q-59 0 -88 -25q-35 -27 -50 -102l-98 -557q-4 -25 -4 -43q0 -41 16 -60q23 -25 80 -24q57 0 90 24q33 27 48 103l28 166h-112l41 225h337l-69 -391 q-29 -170 -150 -268q-106 -84 -252 -84q-145 0 -223 84q-63 78 -63 188q0 23 8 80l98 557q29 166 150 268q109 84 252 84q135 0 215 -76l12 78q10 58 59 100z" glyph-name="uni029B" horiz-adv-x="808" unicode="ʛ"/><glyph d="M754 1229h225l-217 -1229h-225l92 520h-230l-92 -520h-225l217 1229h225l-86 -484h230z" glyph-name="uni029C" horiz-adv-x="843" unicode="ʜ"/><glyph d="M676 0h-594l217 1229h225l-178 -1004h369z" glyph-name="uni029F" horiz-adv-x="702" unicode="ʟ"/><glyph d="M739 1509h-112l-92 113l-134 -113h-114l153 226h226z" glyph-name="circumflex" horiz-adv-x="493" unicode="ˆ"/><glyph d="M778 1735l-151 -226h-226l-75 226h114l95 -113l131 113h112z" glyph-name="caron" horiz-adv-x="493" unicode="ˇ"/><glyph d="M764 1729q-16 -90 -92 -155t-166 -65q-80 0 -132 51.5t-52 129.5q0 10 4 39h112q-2 -6 -2 -19q0 -39 25.5 -63.5t64.5 -24.5q45 0 81 30.5t44 76.5h113z" glyph-name="breve" horiz-adv-x="479" unicode="˘"/><glyph d="M321.5 1537q-24.5 30 -18.5 71q8 43 43 72.5t76 29.5q37 0 60.5 -23.5t23.5 -60.5q0 -12 -2 -18q-6 -41 -41 -71t-76 -30t-65.5 30z" glyph-name="dotaccent" horiz-adv-x="241" unicode="˙"/><glyph d="M575.5 1551q-57.5 -48 -124.5 -48q-61 0 -99.5 38t-38.5 97q0 18 2 29q10 68 67.5 116t127.5 48q61 0 99 -39t38 -98q0 -18 -2 -27q-12 -68 -69.5 -116zM523.5 1704q-13.5 14 -34.5 14q-23 0 -41 -15t-20 -36q-4 -20 8.5 -35.5t34.5 -15.5q20 0 38.5 14.5t22.5 36.5 q5 23 -8.5 37z" glyph-name="ring" horiz-adv-x="370" unicode="˚"/><glyph d="M725 1677.5q23 12.5 45 46.5l96 -75q-76 -139 -198 -140q-31 0 -53.5 7.5t-51.5 21.5q-41 23 -71 23q-31 0 -52.5 -11.5t-46.5 -48.5l-94 76q76 139 199 139q31 0 53 -7t49 -21q41 -23 72 -23q30 0 53 12.5z" glyph-name="tilde" horiz-adv-x="595" unicode="˜"/><glyph d="M399 1509h-112l151 226h226zM705 1509h-113l151 226h226z" glyph-name="hungarumlaut" horiz-adv-x="684" unicode="˝"/><glyph d="M133 1509l-186 226h225l74 -226h-113z" glyph-name="gravecomb" horiz-adv-x="0" unicode="̀"/><glyph d="M18 1509h-112l153 226h226z" glyph-name="acutecomb" horiz-adv-x="0" unicode="́"/><glyph d="M246 1509h-113l-92 113l-133 -113h-115l154 226h225z" glyph-name="uni0302" horiz-adv-x="0" unicode="̂"/><glyph d="M129 1677.5q23 12.5 45 46.5l96 -75q-76 -139 -198 -140q-31 0 -53.5 7.5t-51.5 21.5q-41 23 -71 23q-31 0 -52.5 -11.5t-46.5 -48.5l-94 76q76 139 199 139q31 0 53 -7t49 -21q41 -23 72 -23q30 0 53 12.5z" glyph-name="tildecomb" horiz-adv-x="0" unicode="̃"/><glyph d="M246 1509h-453l21 113h452z" glyph-name="uni0304" horiz-adv-x="0" unicode="̄"/><glyph d="M285 1729q-16 -90 -92 -155t-166 -65q-80 0 -132.5 51.5t-52.5 129.5q0 10 4 39h113q-2 -6 -2 -19q0 -39 25.5 -63.5t64.5 -24.5q45 0 81 30.5t44 76.5h113z" glyph-name="uni0306" horiz-adv-x="0" unicode="̆"/><glyph d="M79.5 1537q-24.5 30 -18.5 71q8 43 43 72.5t76 29.5q37 0 60.5 -23.5t23.5 -60.5q0 -12 -2 -18q-6 -41 -41 -71t-76 -30t-65.5 30z" glyph-name="uni0307" horiz-adv-x="0" unicode="̇"/><glyph d="M-231.5 1537q-24.5 30 -18.5 71q8 43 43 72.5t76 29.5q37 0 60.5 -23.5t23.5 -60.5q0 -12 -2 -18q-6 -41 -41 -71t-76 -30t-65.5 30zM79.5 1537q-24.5 30 -18.5 71q8 43 43 72.5t76 29.5q37 0 60.5 -23.5t23.5 -60.5q0 -12 -2 -18q-6 -41 -41 -71t-76 -30t-65.5 30z" glyph-name="uni0308" horiz-adv-x="0" unicode="̈"/><glyph d="M198.5 1677.5q51.5 -51.5 51.5 -131.5q0 -12 -4 -37h-113q2 6 2 19q0 39 -25.5 63.5t-64.5 24.5l-76 92q43 20 97 21q81 0 132.5 -51.5z" glyph-name="hookabovecomb" horiz-adv-x="0" unicode="̉"/><glyph d="M204.5 1551q-57.5 -48 -124.5 -48q-61 0 -99 38t-38 97q0 18 2 29q10 68 67.5 116t126.5 48q61 0 99 -39t38 -98q0 -18 -2 -27q-12 -68 -69.5 -116zM152.5 1704q-13.5 14 -33.5 14q-23 0 -41.5 -15t-20.5 -36q-4 -20 8.5 -35.5t34.5 -15.5q20 0 39 14.5t23 36.5 q4 23 -9.5 37z" glyph-name="uni030A" horiz-adv-x="0" unicode="̊"/><glyph d="M-285 1509h-112l151 226h226zM20 1509h-112l151 226h226z" glyph-name="uni030B" horiz-adv-x="0" unicode="̋"/><glyph d="M285 1735l-152 -226h-225l-76 226h115l94 -113l131 113h113z" glyph-name="uni030C" horiz-adv-x="0" unicode="̌"/><glyph d="M109 1702q33 51 84 110h73l-13 -26t-17 -31q-12 -25 -13 -37q0 -14 10 -22q31 -31 31 -68q0 -12 -2 -20q-6 -41 -41 -71t-76 -30q-43 0 -66.5 29t-17.5 72q11 43 48 94z" glyph-name="uni0312" horiz-adv-x="0" unicode="̒"/><glyph d="M111.5 1317q15.5 12 17.5 31l14 86h88l-14 -86q-10 -53 -54 -92t-97 -39l14 88q16 0 31.5 12z" glyph-name="uni031B" horiz-adv-x="0" unicode="̛"/><glyph d="M-256 -203q0 12 2 19q8 43 43 72.5t76 29.5q37 0 60.5 -23.5t23.5 -60.5q0 -12 -2 -18q-8 -41 -43 -71t-76 -30q-37 0 -60.5 23.5t-23.5 58.5z" glyph-name="dotbelowcomb" horiz-adv-x="0" unicode="̣"/><glyph d="M-98 -276q-20 -31 -86 -111h-74q12 29 31 57q12 25 12 37t-10 23q-33 33 -33 69q0 12 2 19q8 41 43 70.5t76 29.5q39 0 62.5 -23.5t23.5 -58.5q0 -12 -2 -18q-6 -43 -45 -94z" glyph-name="uni0326" horiz-adv-x="0" unicode="̦"/><glyph d="M-105 -9q-1 -7 1 -11.5t6 -8.5q27 -23 40 -42t13 -56q0 -10 -4 -31q-8 -57 -57.5 -99t-108.5 -42q-51 0 -85 34t-34 85q0 14 2 22h113v-4q0 -10 7 -17t17 -7q12 0 21.5 8t11.5 20l2 8q0 8 -9 17.5t-11 11.5q-41 33 -41 86q0 14 2 23l2 12h113q0 -2 -1 -9z" glyph-name="uni0327" horiz-adv-x="0" unicode="̧"/><glyph d="M-84 -279h-39q-68 0 -113 26t-45 77q0 12 2 18q10 49 52.5 92t91.5 66h115q-43 -8 -81 -42t-46 -73q-6 -29 16 -40t49 -11h19z" glyph-name="uni0328" horiz-adv-x="0" unicode="̨"/><glyph d="M-55 -195h-453l21 113h452z" glyph-name="uni0331" horiz-adv-x="0" unicode="̱"/><glyph d="M100 680h-454l18 113h455z" glyph-name="uni0335" horiz-adv-x="0" unicode="̵"/><glyph d="M100 680h-454l18 113h455z" glyph-name="uni0336" horiz-adv-x="0" unicode="̶"/><glyph d="M672 80q-104 -80 -250 -80h-340l252 1434h309q147 0 223 -80q45 -49 58 -115q6 -31 6 -68q0 -41 -6 -84l-25 -133q-27 -145 -121 -221q74 -59 74 -180q0 -35 -6 -78l-23 -131q-16 -84 -53 -149q-37 -70 -98 -115zM414 602l-68 -377h115q63 0 90 23q35 27 47 96l23 131 q4 29 4 45q0 39 -17 58q-25 25 -80 24h-114zM520 1208l-67 -381h84q59 0 88 25q35 31 49 102l24 133q2 12 2 39q0 43 -14 60q-20 23 -82 22h-84zM287 -203q0 12 2 19q8 43 43 72.5t76 29.5q37 0 60.5 -23.5t23.5 -60.5q0 -12 -3 -18q-8 -41 -42.5 -71t-75.5 -30 q-37 0 -60.5 23.5t-23.5 58.5z" glyph-name="uni1E04" horiz-adv-x="815" unicode="Ḅ"/><glyph d="M672 80q-104 -80 -250 -80h-340l252 1434h309q147 0 223 -80q45 -49 58 -115q6 -31 6 -68q0 -41 -6 -84l-25 -133q-27 -145 -121 -221q74 -59 74 -180q0 -35 -6 -78l-23 -131q-16 -84 -53 -149q-37 -70 -98 -115zM414 602l-68 -377h115q63 0 90 23q35 27 47 96l23 131 q4 29 4 45q0 39 -17 58q-25 25 -80 24h-114zM520 1208l-67 -381h84q59 0 88 25q35 31 49 102l24 133q2 12 2 39q0 43 -14 60q-20 23 -82 22h-84zM287 -203q0 12 2 19q8 43 43 72.5t76 29.5q37 0 60.5 -23.5t23.5 -60.5q0 -12 -3 -18q-8 -41 -42.5 -71t-75.5 -30 q-37 0 -60.5 23.5t-23.5 58.5z" glyph-name="uni1E05" horiz-adv-x="815" unicode="ḅ"/><glyph d="M672 80q-104 -80 -250 -80h-340l252 1434h340q147 0 223 -86q63 -72 64 -185q0 -41 -9 -82l-129 -737q-14 -80 -51 -149q-41 -72 -100 -115zM520 1208l-174 -983h115q63 0 90 23q33 25 47 96l129 737q4 25 4 43q0 41 -16 60q-23 25 -80 24h-115zM287 -203q0 12 2 19 q8 43 43 72.5t76 29.5q37 0 60.5 -23.5t23.5 -60.5q0 -12 -3 -18q-8 -41 -42.5 -71t-75.5 -30q-37 0 -60.5 23.5t-23.5 58.5z" glyph-name="uni1E0C" horiz-adv-x="825" unicode="Ḍ"/><glyph d="M672 80q-104 -80 -250 -80h-340l252 1434h340q147 0 223 -86q63 -72 64 -185q0 -41 -9 -82l-129 -737q-14 -80 -51 -149q-41 -72 -100 -115zM520 1208l-174 -983h115q63 0 90 23q33 25 47 96l129 737q4 25 4 43q0 41 -16 60q-23 25 -80 24h-115zM287 -203q0 12 2 19 q8 43 43 72.5t76 29.5q37 0 60.5 -23.5t23.5 -60.5q0 -12 -3 -18q-8 -41 -42.5 -71t-75.5 -30q-37 0 -60.5 23.5t-23.5 58.5z" glyph-name="uni1E0D" horiz-adv-x="825" unicode="ḍ"/><glyph d="M672 80q-104 -80 -250 -80h-340l252 1434h340q147 0 223 -86q63 -72 64 -185q0 -41 -9 -82l-129 -737q-14 -80 -51 -149q-41 -72 -100 -115zM520 1208l-174 -983h115q63 0 90 23q33 25 47 96l129 737q4 25 4 43q0 41 -16 60q-23 25 -80 24h-115zM612 -195h-452l20 113 h453z" glyph-name="uni1E0E" horiz-adv-x="825" unicode="Ḏ"/><glyph d="M672 80q-104 -80 -250 -80h-340l252 1434h340q147 0 223 -86q63 -72 64 -185q0 -41 -9 -82l-129 -737q-14 -80 -51 -149q-41 -72 -100 -115zM520 1208l-174 -983h115q63 0 90 23q33 25 47 96l129 737q4 25 4 43q0 41 -16 60q-23 25 -80 24h-115zM612 -195h-452l20 113 h453z" glyph-name="uni1E0F" horiz-adv-x="825" unicode="ḏ"/><glyph d="M672 80q-104 -80 -250 -80h-340l252 1434h340q147 0 223 -86q63 -72 64 -185q0 -41 -9 -82l-129 -737q-14 -80 -51 -149q-41 -72 -100 -115zM520 1208l-174 -983h115q63 0 90 23q33 25 47 96l129 737q4 25 4 43q0 41 -16 60q-23 25 -80 24h-115zM594 -307h-113l-94 112 l-131 -112h-115l154 225h225z" glyph-name="uni1E12" horiz-adv-x="825" unicode="Ḓ"/><glyph d="M672 80q-104 -80 -250 -80h-340l252 1434h340q147 0 223 -86q63 -72 64 -185q0 -41 -9 -82l-129 -737q-14 -80 -51 -149q-41 -72 -100 -115zM520 1208l-174 -983h115q63 0 90 23q33 25 47 96l129 737q4 25 4 43q0 41 -16 60q-23 25 -80 24h-115zM594 -307h-113l-94 112 l-131 -112h-115l154 225h225z" glyph-name="uni1E13" horiz-adv-x="825" unicode="ḓ"/><glyph d="M788 1434h226l-252 -1434h-225l110 623h-229l-111 -623h-225l252 1434h225l-102 -586h229zM287 -203q0 12 2 19q8 43 43 72.5t76 29.5q37 0 60.5 -23.5t23.5 -60.5q0 -12 -3 -18q-8 -41 -42.5 -71t-75.5 -30q-37 0 -60.5 23.5t-23.5 58.5z" glyph-name="uni1E24" horiz-adv-x="843" unicode="Ḥ"/><glyph d="M788 1434h226l-252 -1434h-225l110 623h-229l-111 -623h-225l252 1434h225l-102 -586h229zM287 -203q0 12 2 19q8 43 43 72.5t76 29.5q37 0 60.5 -23.5t23.5 -60.5q0 -12 -3 -18q-8 -41 -42.5 -71t-75.5 -30q-37 0 -60.5 23.5t-23.5 58.5z" glyph-name="uni1E25" horiz-adv-x="843" unicode="ḥ"/><glyph d="M239.5 1537q-24.5 30 -18.5 71q8 43 43 72.5t76 29.5q37 0 60.5 -23.5t23.5 -60.5q0 -12 -2 -18q-6 -41 -41 -71t-76 -30t-65.5 30zM550.5 1537q-24.5 30 -18.5 71q8 43 43 72.5t76 29.5q37 0 60.5 -23.5t23.5 -60.5q0 -12 -2 -18q-6 -41 -41 -71t-76 -30t-65.5 30z M307 0h-225l252 1434h225zM563 1778h-112l151 225h225z" glyph-name="uni1E2E" horiz-adv-x="389" unicode="Ḯ"/><glyph d="M239.5 1537q-24.5 30 -18.5 71q8 43 43 72.5t76 29.5q37 0 60.5 -23.5t23.5 -60.5q0 -12 -2 -18q-6 -41 -41 -71t-76 -30t-65.5 30zM550.5 1537q-24.5 30 -18.5 71q8 43 43 72.5t76 29.5q37 0 60.5 -23.5t23.5 -60.5q0 -12 -2 -18q-6 -41 -41 -71t-76 -30t-65.5 30z M307 0h-225l252 1434h225zM563 1778h-112l151 225h225z" glyph-name="uni1E2F" horiz-adv-x="389" unicode="ḯ"/><glyph d="M676 0h-594l252 1434h225l-213 -1209h369zM264 -203q0 12 2 19q8 43 43 72.5t76 29.5q37 0 60.5 -23.5t23.5 -60.5q0 -12 -2 -18q-8 -41 -43 -71t-76 -30q-37 0 -60.5 23.5t-23.5 58.5z" glyph-name="uni1E36" horiz-adv-x="702" unicode="Ḷ"/><glyph d="M676 0h-594l252 1434h225l-213 -1209h369zM264 -203q0 12 2 19q8 43 43 72.5t76 29.5q37 0 60.5 -23.5t23.5 -60.5q0 -12 -2 -18q-8 -41 -43 -71t-76 -30q-37 0 -60.5 23.5t-23.5 58.5z" glyph-name="uni1E37" horiz-adv-x="702" unicode="ḷ"/><glyph d="M676 0h-594l252 1434h225l-213 -1209h369zM553 -307h-113l-94 112l-131 -112h-115l154 225h225z" glyph-name="uni1E3C" horiz-adv-x="702" unicode="Ḽ"/><glyph d="M676 0h-594l252 1434h225l-213 -1209h369zM553 -307h-113l-94 112l-131 -112h-115l154 225h225z" glyph-name="uni1E3D" horiz-adv-x="702" unicode="ḽ"/><glyph d="M1151 1434h129l-252 -1434h-225l127 715l-271 -490h-131l-94 490l-127 -715h-225l252 1434h129l205 -795zM877 1509h-113l151 226h226z" glyph-name="uni1E3E" horiz-adv-x="1110" unicode="Ḿ"/><glyph d="M1151 1434h129l-252 -1434h-225l127 715l-271 -490h-131l-94 490l-127 -715h-225l252 1434h129l205 -795zM877 1509h-113l151 226h226z" glyph-name="uni1E3F" horiz-adv-x="1110" unicode="ḿ"/><glyph d="M1026 1434l-252 -1434h-131l-215 727l-129 -727h-225l252 1434h131l217 -725l127 725h225zM624.5 1537q-24.5 30 -18.5 71q8 43 43 72.5t76 29.5q37 0 60.5 -23.5t23.5 -60.5q0 -12 -2 -18q-6 -41 -41 -71t-76 -30t-65.5 30z" glyph-name="uni1E44" horiz-adv-x="847" unicode="Ṅ"/><glyph d="M1026 1434l-252 -1434h-131l-215 727l-129 -727h-225l252 1434h131l217 -725l127 725h225zM624.5 1537q-24.5 30 -18.5 71q8 43 43 72.5t76 29.5q37 0 60.5 -23.5t23.5 -60.5q0 -12 -2 -18q-6 -41 -41 -71t-76 -30t-65.5 30z" glyph-name="uni1E45" horiz-adv-x="847" unicode="ṅ"/><glyph d="M1026 1434l-252 -1434h-131l-215 727l-129 -727h-225l252 1434h131l217 -725l127 725h225zM289 -203q0 12 2 19q8 43 43 72.5t76 29.5q37 0 60.5 -23.5t23.5 -60.5q0 -12 -2 -18q-8 -41 -43 -71t-76 -30q-37 0 -60.5 23.5t-23.5 58.5z" glyph-name="uni1E46" horiz-adv-x="847" unicode="Ṇ"/><glyph d="M1026 1434l-252 -1434h-131l-215 727l-129 -727h-225l252 1434h131l217 -725l127 725h225zM289 -203q0 12 2 19q8 43 43 72.5t76 29.5q37 0 60.5 -23.5t23.5 -60.5q0 -12 -2 -18q-8 -41 -43 -71t-76 -30q-37 0 -60.5 23.5t-23.5 58.5z" glyph-name="uni1E47" horiz-adv-x="847" unicode="ṇ"/><glyph d="M1026 1434l-252 -1434h-131l-215 727l-129 -727h-225l252 1434h131l217 -725l127 725h225zM596 -307h-113l-94 112l-131 -112h-115l154 225h225z" glyph-name="uni1E4A" horiz-adv-x="847" unicode="Ṋ"/><glyph d="M1026 1434l-252 -1434h-131l-215 727l-129 -727h-225l252 1434h131l217 -725l127 725h225zM596 -307h-113l-94 112l-131 -112h-115l154 225h225z" glyph-name="uni1E4B" horiz-adv-x="847" unicode="ṋ"/><glyph d="M342 287q0 -98 96 -99q119 0 142 142l137 774q4 16 4 45q0 96 -96 96q-117 0 -142 -141l-137 -774q-4 -33 -4 -43zM391.5 1356q104.5 94 270.5 94q141 0 213.5 -67.5t72.5 -196.5q0 -49 -8 -96l-131 -746q-31 -172 -135.5 -266t-270.5 -94q-141 0 -213.5 67.5 t-72.5 196.5q0 49 8 96l131 746q31 172 135.5 266zM578 1571q-35 -6 -89 -66l-79 68q88 90 163 108q25 4 39 5q59 0 119 -44q39 -29 68 -22q35 10 84 66l80 -66q-102 -115 -193 -115q-59 0 -117 43q-42 31 -75 23zM770 1751h-113l152 225h225z" glyph-name="uni1E4C" horiz-adv-x="811" unicode="Ṍ"/><glyph d="M342 287q0 -98 96 -99q119 0 142 142l137 774q4 16 4 45q0 96 -96 96q-117 0 -142 -141l-137 -774q-4 -33 -4 -43zM391.5 1356q104.5 94 270.5 94q141 0 213.5 -67.5t72.5 -196.5q0 -49 -8 -96l-131 -746q-31 -172 -135.5 -266t-270.5 -94q-141 0 -213.5 67.5 t-72.5 196.5q0 49 8 96l131 746q31 172 135.5 266zM578 1571q-35 -6 -89 -66l-79 68q88 90 163 108q25 4 39 5q59 0 119 -44q39 -29 68 -22q35 10 84 66l80 -66q-102 -115 -193 -115q-59 0 -117 43q-42 31 -75 23zM770 1751h-113l152 225h225z" glyph-name="uni1E4D" horiz-adv-x="811" unicode="ṍ"/><glyph d="M653 68q-106 -84 -252 -84q-150 0 -223 84q-63 72 -63 186q0 41 8 82l135 762q29 170 150 268q102 84 251 84q145 0 224 -84q63 -72 63 -186q0 -41 -8 -82l-135 -762q-29 -170 -150 -268zM698 1200q-20 25 -80 25q-55 0 -88 -25q-20 -16 -31.5 -45t-15.5 -57l-135 -762 q-4 -25 -4 -43q0 -41 16 -60q23 -25 80 -24q59 0 88 24q35 25 50 103l135 762q4 25 4 43q-1 41 -19 59zM645 1690l-184 225h225l72 -225h-113zM897 1509h-455l21 113h455z" glyph-name="uni1E50" horiz-adv-x="806" unicode="Ṑ"/><glyph d="M653 68q-106 -84 -252 -84q-150 0 -223 84q-63 72 -63 186q0 41 8 82l135 762q29 170 150 268q102 84 251 84q145 0 224 -84q63 -72 63 -186q0 -41 -8 -82l-135 -762q-29 -170 -150 -268zM698 1200q-20 25 -80 25q-55 0 -88 -25q-20 -16 -31.5 -45t-15.5 -57l-135 -762 q-4 -25 -4 -43q0 -41 16 -60q23 -25 80 -24q59 0 88 24q35 25 50 103l135 762q4 25 4 43q-1 41 -19 59zM645 1690l-184 225h225l72 -225h-113zM897 1509h-455l21 113h455z" glyph-name="uni1E51" horiz-adv-x="806" unicode="ṑ"/><glyph d="M653 68q-106 -84 -252 -84q-150 0 -223 84q-63 72 -63 186q0 41 8 82l135 762q29 170 150 268q102 84 251 84q145 0 224 -84q63 -72 63 -186q0 -41 -8 -82l-135 -762q-29 -170 -150 -268zM698 1200q-23 25 -80 25q-59 0 -88 -25q-37 -29 -47 -102l-135 -762 q-4 -29 -4 -47q0 -39 16 -56q20 -25 80 -24q55 0 88 24q35 27 50 103l135 762q2 12 2 39q-1 45 -17 63zM756 1690h-113l154 225h225zM442 1509l21 113h455l-21 -113h-455z" glyph-name="uni1E52" horiz-adv-x="806" unicode="Ṓ"/><glyph d="M653 68q-106 -84 -252 -84q-150 0 -223 84q-63 72 -63 186q0 41 8 82l135 762q29 170 150 268q102 84 251 84q145 0 224 -84q63 -72 63 -186q0 -41 -8 -82l-135 -762q-29 -170 -150 -268zM698 1200q-23 25 -80 25q-59 0 -88 -25q-37 -29 -47 -102l-135 -762 q-4 -29 -4 -47q0 -39 16 -56q20 -25 80 -24q55 0 88 24q35 27 50 103l135 762q2 12 2 39q-1 45 -17 63zM756 1690h-113l154 225h225zM442 1509l21 113h455l-21 -113h-455z" glyph-name="uni1E53" horiz-adv-x="806" unicode="ṓ"/><glyph d="M639 68q-106 -84 -252 -84q-150 0 -223 84q-63 72 -64 186q0 41 9 82l32 186h226l-33 -186q-4 -25 -4 -43q0 -41 16 -60q23 -25 80 -24q59 0 88 24q35 25 49 103l17 90q4 25 4 37q0 74 -52 127q-18 18 -77 53q-92 57 -125 90q-100 104 -101 250q0 45 9 80l6 35 q29 170 149 268q102 84 252 84q145 0 223 -84q63 -72 64 -186q0 -41 -8 -82l-23 -125h-225l22 125q4 25 4 43q0 41 -18 59q-20 25 -80 25q-55 0 -88 -25q-20 -16 -31.5 -45t-15.5 -57l-6 -35q-4 -29 -4 -41q0 -70 51 -121q8 -8 30.5 -23.5t39.5 -25.5q96 -55 131 -94 q100 -106 100 -256q0 -35 -6 -76l-17 -90q-28 -170 -149 -268zM254 -203q0 12 2 19q8 43 43 72.5t76 29.5q37 0 60.5 -23.5t23.5 -60.5q0 -12 -2 -18q-8 -41 -43 -71t-76 -30q-37 0 -60.5 23.5t-23.5 58.5z" glyph-name="uni1E62" horiz-adv-x="778" unicode="Ṣ"/><glyph d="M639 68q-106 -84 -252 -84q-150 0 -223 84q-63 72 -64 186q0 41 9 82l32 186h226l-33 -186q-4 -25 -4 -43q0 -41 16 -60q23 -25 80 -24q59 0 88 24q35 25 49 103l17 90q4 25 4 37q0 74 -52 127q-18 18 -77 53q-92 57 -125 90q-100 104 -101 250q0 45 9 80l6 35 q29 170 149 268q102 84 252 84q145 0 223 -84q63 -72 64 -186q0 -41 -8 -82l-23 -125h-225l22 125q4 25 4 43q0 41 -18 59q-20 25 -80 25q-55 0 -88 -25q-20 -16 -31.5 -45t-15.5 -57l-6 -35q-4 -29 -4 -41q0 -70 51 -121q8 -8 30.5 -23.5t39.5 -25.5q96 -55 131 -94 q100 -106 100 -256q0 -35 -6 -76l-17 -90q-28 -170 -149 -268zM254 -203q0 12 2 19q8 43 43 72.5t76 29.5q37 0 60.5 -23.5t23.5 -60.5q0 -12 -2 -18q-8 -41 -43 -71t-76 -30q-37 0 -60.5 23.5t-23.5 58.5z" glyph-name="uni1E63" horiz-adv-x="778" unicode="ṣ"/><glyph d="M956 1434l-38 -226h-230l-213 -1208h-225l213 1208h-230l39 226h684zM227 -203q0 12 2 19q8 43 43 72.5t76 29.5q37 0 60.5 -23.5t23.5 -60.5q0 -12 -2 -18q-8 -41 -43 -71t-76 -30q-37 0 -60.5 23.5t-23.5 58.5z" glyph-name="uni1E6C" horiz-adv-x="722" unicode="Ṭ"/><glyph d="M956 1434l-38 -226h-230l-213 -1208h-225l213 1208h-230l39 226h684zM227 -203q0 12 2 19q8 43 43 72.5t76 29.5q37 0 60.5 -23.5t23.5 -60.5q0 -12 -2 -18q-8 -41 -43 -71t-76 -30q-37 0 -60.5 23.5t-23.5 58.5z" glyph-name="uni1E6D" horiz-adv-x="722" unicode="ṭ"/><glyph d="M956 1434l-38 -226h-230l-213 -1208h-225l213 1208h-230l39 226h684zM555 -195h-453l21 113h452z" glyph-name="uni1E6E" horiz-adv-x="724" unicode="Ṯ"/><glyph d="M956 1434l-38 -226h-230l-213 -1208h-225l213 1208h-230l39 226h684zM555 -195h-453l21 113h452z" glyph-name="uni1E6F" horiz-adv-x="724" unicode="ṯ"/><glyph d="M956 1434l-38 -226h-230l-213 -1208h-225l213 1208h-230l39 226h684zM535 -307h-113l-94 112l-131 -112h-115l154 225h225z" glyph-name="uni1E70" horiz-adv-x="722" unicode="Ṱ"/><glyph d="M956 1434l-38 -226h-230l-213 -1208h-225l213 1208h-230l39 226h684zM535 -307h-113l-94 112l-131 -112h-115l154 225h225z" glyph-name="uni1E71" horiz-adv-x="722" unicode="ṱ"/><glyph d="M1057 1434h227l-428 -1434h-125l-76 713l-323 -713h-125l76 1434h227l-47 -715l217 487h129l45 -487zM741 1509l-186 226h225l74 -226h-113z" glyph-name="Wgrave" horiz-adv-x="1062" unicode="Ẁ"/><glyph d="M1057 1434h227l-428 -1434h-125l-76 713l-323 -713h-125l76 1434h227l-47 -715l217 487h129l45 -487zM741 1509l-186 226h225l74 -226h-113z" glyph-name="wgrave" horiz-adv-x="1062" unicode="ẁ"/><glyph d="M1057 1434h227l-428 -1434h-125l-76 713l-323 -713h-125l76 1434h227l-47 -715l217 487h129l45 -487zM854 1509h-113l152 226h225z" glyph-name="Wacute" horiz-adv-x="1062" unicode="Ẃ"/><glyph d="M1057 1434h227l-428 -1434h-125l-76 713l-323 -713h-125l76 1434h227l-47 -715l217 487h129l45 -487zM854 1509h-113l152 226h225z" glyph-name="wacute" horiz-adv-x="1062" unicode="ẃ"/><glyph d="M1057 1434h227l-428 -1434h-125l-76 713l-323 -713h-125l76 1434h227l-47 -715l217 487h129l45 -487zM575.5 1537q-24.5 30 -18.5 71q8 43 43 72.5t76 29.5q37 0 60.5 -23.5t23.5 -60.5q0 -12 -2 -18q-6 -41 -41 -71t-76 -30t-65.5 30zM886.5 1537q-24.5 30 -18.5 71 q8 43 43 72.5t76 29.5q37 0 60.5 -23.5t23.5 -60.5q0 -12 -2 -18q-6 -41 -41 -71t-76 -30t-65.5 30z" glyph-name="Wdieresis" horiz-adv-x="1062" unicode="Ẅ"/><glyph d="M1057 1434h227l-428 -1434h-125l-76 713l-323 -713h-125l76 1434h227l-47 -715l217 487h129l45 -487zM575.5 1537q-24.5 30 -18.5 71q8 43 43 72.5t76 29.5q37 0 60.5 -23.5t23.5 -60.5q0 -12 -2 -18q-6 -41 -41 -71t-76 -30t-65.5 30zM886.5 1537q-24.5 30 -18.5 71 q8 43 43 72.5t76 29.5q37 0 60.5 -23.5t23.5 -60.5q0 -12 -2 -18q-6 -41 -41 -71t-76 -30t-65.5 30z" glyph-name="wdieresis" horiz-adv-x="1062" unicode="ẅ"/><glyph d="M733 0h-682l586 1206h-373l39 228h682l-584 -1207h373zM256 -203q0 12 2 19q8 43 43 72.5t76 29.5q37 0 60.5 -23.5t23.5 -60.5q0 -12 -2 -18q-8 -41 -43 -71t-76 -30q-37 0 -60.5 23.5t-23.5 58.5z" glyph-name="uni1E92" horiz-adv-x="784" unicode="Ẓ"/><glyph d="M733 0h-682l586 1206h-373l39 228h682l-584 -1207h373zM256 -203q0 12 2 19q8 43 43 72.5t76 29.5q37 0 60.5 -23.5t23.5 -60.5q0 -12 -2 -18q-8 -41 -43 -71t-76 -30q-37 0 -60.5 23.5t-23.5 58.5z" glyph-name="uni1E93" horiz-adv-x="784" unicode="ẓ"/><glyph d="M596 0v227h-258l-82 -227h-229l538 1434h226l34 -1434h-229zM416 453h180v514zM291 -203q0 12 2 19q8 43 43 72.5t76 29.5q37 0 60.5 -23.5t23.5 -60.5q0 -12 -2 -18q-8 -41 -43 -71t-76 -30q-37 0 -60.5 23.5t-23.5 58.5z" glyph-name="uni1EA0" unicode="Ạ"/><glyph d="M596 0v227h-258l-82 -227h-229l538 1434h226l34 -1434h-229zM416 453h180v514zM291 -203q0 12 2 19q8 43 43 72.5t76 29.5q37 0 60.5 -23.5t23.5 -60.5q0 -12 -2 -18q-8 -41 -43 -71t-76 -30q-37 0 -60.5 23.5t-23.5 58.5z" glyph-name="uni1EA1" unicode="ạ"/><glyph d="M700.5 1677.5q51.5 -51.5 51.5 -131.5q0 -12 -4 -37h-113q2 6 2 19q0 39 -25.5 63.5t-64.5 24.5l-76 92q43 20 96 21q82 0 133.5 -51.5zM596 0v227h-258l-82 -227h-229l538 1434h226l34 -1434h-229zM416 453h180v514z" glyph-name="uni1EA2" unicode="Ả"/><glyph d="M700.5 1677.5q51.5 -51.5 51.5 -131.5q0 -12 -4 -37h-113q2 6 2 19q0 39 -25.5 63.5t-64.5 24.5l-76 92q43 20 96 21q82 0 133.5 -51.5zM596 0v227h-258l-82 -227h-229l538 1434h226l34 -1434h-229zM416 453h180v514z" glyph-name="uni1EA3" unicode="ả"/><glyph d="M596 0v227h-258l-82 -227h-229l538 1434h226l34 -1434h-229zM416 453h180v514zM1026 1714h-113l152 225h225zM467 1509l151 226h226l76 -226h-115l-92 113l-133 -113h-113z" glyph-name="uni1EA4" horiz-adv-x="976" unicode="Ấ"/><glyph d="M596 0v227h-258l-82 -227h-229l538 1434h226l34 -1434h-229zM416 453h180v514zM1026 1714h-113l152 225h225zM467 1509l151 226h226l76 -226h-115l-92 113l-133 -113h-113z" glyph-name="uni1EA5" horiz-adv-x="976" unicode="ấ"/><glyph d="M256 0h-229l538 1434h226l34 -1434h-229v227h-258zM596 453v514l-180 -514h180zM913 1714l-186 225h225l74 -225h-113zM467 1509l151 226h226l76 -226h-115l-92 113l-133 -113h-113z" glyph-name="uni1EA6" unicode="Ầ"/><glyph d="M256 0h-229l538 1434h226l34 -1434h-229v227h-258zM596 453v514l-180 -514h180zM913 1714l-186 225h225l74 -225h-113zM467 1509l151 226h226l76 -226h-115l-92 113l-133 -113h-113z" glyph-name="uni1EA7" unicode="ầ"/><glyph d="M256 0h-229l538 1434h226l34 -1434h-229v227h-258zM596 453v514l-180 -514h180zM977 1881q53 -52 53 -130q0 -12 -4 -37h-113q2 6 2 19q0 39 -25.5 63.5t-64.5 24.5l-75 92q43 20 94 20q80 0 133 -52zM467 1509l151 226h226l76 -226h-115l-92 113l-133 -113h-113z" glyph-name="uni1EA8" unicode="Ẩ"/><glyph d="M256 0h-229l538 1434h226l34 -1434h-229v227h-258zM596 453v514l-180 -514h180zM977 1881q53 -52 53 -130q0 -12 -4 -37h-113q2 6 2 19q0 39 -25.5 63.5t-64.5 24.5l-75 92q43 20 94 20q80 0 133 -52zM467 1509l151 226h226l76 -226h-115l-92 113l-133 -113h-113z" glyph-name="uni1EA9" unicode="ẩ"/><glyph d="M596 0v227h-258l-82 -227h-229l538 1434h226l34 -1434h-229zM416 453h180v514zM918 1509h-113l-92 113l-133 -113h-115l153 226h226zM643 1843q-37 -6 -90 -65l-78 67q84 90 162 109q25 4 39 4q59 0 121 -43q39 -29 67 -23q31 10 84 66l80 -66q-47 -51 -94 -82.5 t-100 -31.5q-59 0 -115 43q-45 30 -76 22z" glyph-name="uni1EAA" unicode="Ẫ"/><glyph d="M596 0v227h-258l-82 -227h-229l538 1434h226l34 -1434h-229zM416 453h180v514zM918 1509h-113l-92 113l-133 -113h-115l153 226h226zM643 1843q-37 -6 -90 -65l-78 67q84 90 162 109q25 4 39 4q59 0 121 -43q39 -29 67 -23q31 10 84 66l80 -66q-47 -51 -94 -82.5 t-100 -31.5q-59 0 -115 43q-45 30 -76 22z" glyph-name="uni1EAB" unicode="ẫ"/><glyph d="M596 0v227h-258l-82 -227h-229l538 1434h226l34 -1434h-229zM416 453h180v514zM918 1509h-113l-92 113l-133 -113h-115l153 226h226zM291 -203q0 12 2 19q8 43 43 72.5t76 29.5q37 0 60.5 -23.5t23.5 -60.5q0 -12 -2 -18q-8 -41 -43 -71t-76 -30q-37 0 -60.5 23.5 t-23.5 58.5z" glyph-name="uni1EAC" unicode="Ậ"/><glyph d="M596 0v227h-258l-82 -227h-229l538 1434h226l34 -1434h-229zM416 453h180v514zM918 1509h-113l-92 113l-133 -113h-115l153 226h226zM291 -203q0 12 2 19q8 43 43 72.5t76 29.5q37 0 60.5 -23.5t23.5 -60.5q0 -12 -2 -18q-8 -41 -43 -71t-76 -30q-37 0 -60.5 23.5 t-23.5 58.5z" glyph-name="uni1EAD" unicode="ậ"/><glyph d="M596 0v227h-258l-82 -227h-229l538 1434h226l34 -1434h-229zM416 453h180v514zM797 1778h-113l152 225h225zM948 1720q-14 -90 -91 -154.5t-167 -64.5q-80 0 -132 52.5t-52 129.5q0 12 4 37h113q-2 -6 -2 -18q0 -39 25.5 -63.5t64.5 -24.5q45 0 80.5 30.5t44.5 75.5h112z " glyph-name="uni1EAE" unicode="Ắ"/><glyph d="M596 0v227h-258l-82 -227h-229l538 1434h226l34 -1434h-229zM416 453h180v514zM797 1778h-113l152 225h225zM948 1720q-14 -90 -91 -154.5t-167 -64.5q-80 0 -132 52.5t-52 129.5q0 12 4 37h113q-2 -6 -2 -18q0 -39 25.5 -63.5t64.5 -24.5q45 0 80.5 30.5t44.5 75.5h112z " glyph-name="uni1EAF" unicode="ắ"/><glyph d="M256 0h-229l538 1434h226l34 -1434h-229v227h-258zM596 453v514l-180 -514h180zM682 1778l-186 225h225l74 -225h-113zM948 1720q-14 -90 -91 -154.5t-167 -64.5q-80 0 -132 52.5t-52 129.5q0 12 4 37h113q-2 -6 -2 -18q0 -39 25.5 -63.5t64.5 -24.5q45 0 80.5 30.5 t44.5 75.5h112z" glyph-name="uni1EB0" unicode="Ằ"/><glyph d="M256 0h-229l538 1434h226l34 -1434h-229v227h-258zM596 453v514l-180 -514h180zM682 1778l-186 225h225l74 -225h-113zM948 1720q-14 -90 -91 -154.5t-167 -64.5q-80 0 -132 52.5t-52 129.5q0 12 4 37h113q-2 -6 -2 -18q0 -39 25.5 -63.5t64.5 -24.5q45 0 80.5 30.5 t44.5 75.5h112z" glyph-name="uni1EB1" unicode="ằ"/><glyph d="M256 0h-229l538 1434h226l34 -1434h-229v227h-258zM596 453v514l-180 -514h180zM747.5 1945.5q51.5 -51.5 51.5 -130.5q0 -12 -4 -37h-113q2 6 2 18q0 39 -25.5 63.5t-64.5 24.5l-76 92q43 20 96 21q82 0 133.5 -51.5zM948 1720q-14 -90 -91 -154.5t-167 -64.5 q-80 0 -132 52.5t-52 129.5q0 12 4 37h113q-2 -6 -2 -18q0 -39 25.5 -63.5t64.5 -24.5q45 0 80.5 30.5t44.5 75.5h112z" glyph-name="uni1EB2" unicode="Ẳ"/><glyph d="M256 0h-229l538 1434h226l34 -1434h-229v227h-258zM596 453v514l-180 -514h180zM747.5 1945.5q51.5 -51.5 51.5 -130.5q0 -12 -4 -37h-113q2 6 2 18q0 39 -25.5 63.5t-64.5 24.5l-76 92q43 20 96 21q82 0 133.5 -51.5zM948 1720q-14 -90 -91 -154.5t-167 -64.5 q-80 0 -132 52.5t-52 129.5q0 12 4 37h113q-2 -6 -2 -18q0 -39 25.5 -63.5t64.5 -24.5q45 0 80.5 30.5t44.5 75.5h112z" glyph-name="uni1EB3" unicode="ẳ"/><glyph d="M596 0v227h-258l-82 -227h-229l538 1434h226l34 -1434h-229zM416 453h180v514zM643 1843q-37 -6 -90 -65l-78 67q84 90 162 109q25 4 39 4q59 0 121 -43q39 -29 67 -23q31 10 84 66l80 -66q-47 -51 -94 -82.5t-100 -31.5q-59 0 -115 43q-45 30 -76 22zM948 1720 q-14 -90 -91 -154.5t-167 -64.5q-80 0 -132 52.5t-52 129.5q0 12 4 37h113q-2 -6 -2 -18q0 -39 25.5 -63.5t64.5 -24.5q45 0 80.5 30.5t44.5 75.5h112z" glyph-name="uni1EB4" unicode="Ẵ"/><glyph d="M596 0v227h-258l-82 -227h-229l538 1434h226l34 -1434h-229zM416 453h180v514zM643 1843q-37 -6 -90 -65l-78 67q84 90 162 109q25 4 39 4q59 0 121 -43q39 -29 67 -23q31 10 84 66l80 -66q-47 -51 -94 -82.5t-100 -31.5q-59 0 -115 43q-45 30 -76 22zM948 1720 q-14 -90 -91 -154.5t-167 -64.5q-80 0 -132 52.5t-52 129.5q0 12 4 37h113q-2 -6 -2 -18q0 -39 25.5 -63.5t64.5 -24.5q45 0 80.5 30.5t44.5 75.5h112z" glyph-name="uni1EB5" unicode="ẵ"/><glyph d="M596 0v227h-258l-82 -227h-229l538 1434h226l34 -1434h-229zM416 453h180v514zM948 1720q-14 -90 -91 -154.5t-167 -64.5q-80 0 -132 52.5t-52 129.5q0 12 4 37h113q-2 -6 -2 -18q0 -39 25.5 -63.5t64.5 -24.5q45 0 80.5 30.5t44.5 75.5h112zM291 -203q0 12 2 19 q8 43 43 72.5t76 29.5q37 0 60.5 -23.5t23.5 -60.5q0 -12 -2 -18q-8 -41 -43 -71t-76 -30q-37 0 -60.5 23.5t-23.5 58.5z" glyph-name="uni1EB6" unicode="Ặ"/><glyph d="M596 0v227h-258l-82 -227h-229l538 1434h226l34 -1434h-229zM416 453h180v514zM948 1720q-14 -90 -91 -154.5t-167 -64.5q-80 0 -132 52.5t-52 129.5q0 12 4 37h113q-2 -6 -2 -18q0 -39 25.5 -63.5t64.5 -24.5q45 0 80.5 30.5t44.5 75.5h112zM291 -203q0 12 2 19 q8 43 43 72.5t76 29.5q37 0 60.5 -23.5t23.5 -60.5q0 -12 -2 -18q-8 -41 -43 -71t-76 -30q-37 0 -60.5 23.5t-23.5 58.5z" glyph-name="uni1EB7" unicode="ặ"/><glyph d="M256 -203q0 12 2 19q8 43 43 72.5t76 29.5q37 0 60.5 -23.5t23.5 -60.5q0 -12 -2 -18q-8 -41 -43 -71t-76 -30q-37 0 -60.5 23.5t-23.5 58.5zM889 1208h-369l-63 -360h254l-39 -225h-254l-72 -398h369l-39 -225h-594l252 1434h594z" glyph-name="uni1EB8" horiz-adv-x="733" unicode="Ẹ"/><glyph d="M256 -203q0 12 2 19q8 43 43 72.5t76 29.5q37 0 60.5 -23.5t23.5 -60.5q0 -12 -2 -18q-8 -41 -43 -71t-76 -30q-37 0 -60.5 23.5t-23.5 58.5zM889 1208h-369l-63 -360h254l-39 -225h-254l-72 -398h369l-39 -225h-594l252 1434h594z" glyph-name="uni1EB9" horiz-adv-x="733" unicode="ẹ"/><glyph d="M655.5 1677.5q51.5 -51.5 51.5 -131.5q0 -12 -5 -37h-112q2 6 2 19q0 39 -25.5 63.5t-64.5 24.5l-76 92q43 20 96 21q82 0 133.5 -51.5zM889 1208h-369l-63 -360h254l-39 -225h-254l-72 -398h369l-39 -225h-594l252 1434h594z" glyph-name="uni1EBA" horiz-adv-x="733" unicode="Ẻ"/><glyph d="M655.5 1677.5q51.5 -51.5 51.5 -131.5q0 -12 -5 -37h-112q2 6 2 19q0 39 -25.5 63.5t-64.5 24.5l-76 92q43 20 96 21q82 0 133.5 -51.5zM889 1208h-369l-63 -360h254l-39 -225h-254l-72 -398h369l-39 -225h-594l252 1434h594z" glyph-name="uni1EBB" horiz-adv-x="733" unicode="ẻ"/><glyph d="M551 1571q-35 -6 -88 -66l-80 68q88 90 164 108q25 4 39 5q59 0 119 -44q39 -29 67 -22q35 10 84 66l80 -66q-102 -115 -193 -115q-59 0 -116 43q-43 31 -76 23zM889 1208h-369l-63 -360h254l-39 -225h-254l-72 -398h369l-39 -225h-594l252 1434h594z" glyph-name="uni1EBC" horiz-adv-x="733" unicode="Ẽ"/><glyph d="M551 1571q-35 -6 -88 -66l-80 68q88 90 164 108q25 4 39 5q59 0 119 -44q39 -29 67 -22q35 10 84 66l80 -66q-102 -115 -193 -115q-59 0 -116 43q-43 31 -76 23zM889 1208h-369l-63 -360h254l-39 -225h-254l-72 -398h369l-39 -225h-594l252 1434h594z" glyph-name="uni1EBD" horiz-adv-x="733" unicode="ẽ"/><glyph d="M989 1714h-112l151 225h225zM889 1208h-369l-63 -360h254l-39 -225h-254l-72 -398h369l-39 -225h-594l252 1434h594zM883 1509h-113l-92 113l-133 -113h-115l154 226h225z" glyph-name="uni1EBE" horiz-adv-x="733" unicode="Ế"/><glyph d="M989 1714h-112l151 225h225zM889 1208h-369l-63 -360h254l-39 -225h-254l-72 -398h369l-39 -225h-594l252 1434h594zM883 1509h-113l-92 113l-133 -113h-115l154 226h225z" glyph-name="uni1EBF" horiz-adv-x="733" unicode="ế"/><glyph d="M879 1714l-187 225h226l73 -225h-112zM889 1208h-369l-63 -360h254l-39 -225h-254l-72 -398h369l-39 -225h-594l252 1434h594zM883 1509h-113l-92 113l-133 -113h-115l154 226h225z" glyph-name="uni1EC0" horiz-adv-x="733" unicode="Ề"/><glyph d="M879 1714l-187 225h226l73 -225h-112zM889 1208h-369l-63 -360h254l-39 -225h-254l-72 -398h369l-39 -225h-594l252 1434h594zM883 1509h-113l-92 113l-133 -113h-115l154 226h225z" glyph-name="uni1EC1" horiz-adv-x="733" unicode="ề"/><glyph d="M942 1881q53 -52 53 -130q0 -12 -4 -37h-112q2 6 2 19q0 39 -26 63.5t-64 24.5l-76 92q43 20 94 20q80 0 133 -52zM889 1208h-369l-63 -360h254l-39 -225h-254l-72 -398h369l-39 -225h-594l252 1434h594zM883 1509h-113l-92 113l-133 -113h-115l154 226h225z" glyph-name="uni1EC2" horiz-adv-x="733" unicode="Ể"/><glyph d="M942 1881q53 -52 53 -130q0 -12 -4 -37h-112q2 6 2 19q0 39 -26 63.5t-64 24.5l-76 92q43 20 94 20q80 0 133 -52zM889 1208h-369l-63 -360h254l-39 -225h-254l-72 -398h369l-39 -225h-594l252 1434h594zM883 1509h-113l-92 113l-133 -113h-115l154 226h225z" glyph-name="uni1EC3" horiz-adv-x="733" unicode="ể"/><glyph d="M608 1843q-37 -6 -90 -65l-78 67q84 90 162 109q25 4 39 4q59 0 121 -43q39 -29 67 -23q31 10 84 66l80 -66q-47 -51 -94 -82.5t-100 -31.5q-59 0 -115 43q-45 30 -76 22zM889 1208h-369l-63 -360h254l-39 -225h-254l-72 -398h369l-39 -225h-594l252 1434h594zM883 1509 h-113l-92 113l-133 -113h-115l154 226h225z" glyph-name="uni1EC4" horiz-adv-x="733" unicode="Ễ"/><glyph d="M608 1843q-37 -6 -90 -65l-78 67q84 90 162 109q25 4 39 4q59 0 121 -43q39 -29 67 -23q31 10 84 66l80 -66q-47 -51 -94 -82.5t-100 -31.5q-59 0 -115 43q-45 30 -76 22zM889 1208h-369l-63 -360h254l-39 -225h-254l-72 -398h369l-39 -225h-594l252 1434h594zM883 1509 h-113l-92 113l-133 -113h-115l154 226h225z" glyph-name="uni1EC5" horiz-adv-x="733" unicode="ễ"/><glyph d="M256 -203q0 12 2 19q8 43 43 72.5t76 29.5q37 0 60.5 -23.5t23.5 -60.5q0 -12 -2 -18q-8 -41 -43 -71t-76 -30q-37 0 -60.5 23.5t-23.5 58.5zM889 1208h-369l-63 -360h254l-39 -225h-254l-72 -398h369l-39 -225h-594l252 1434h594zM883 1509h-113l-92 113l-133 -113h-115 l154 226h225z" glyph-name="uni1EC6" horiz-adv-x="733" unicode="Ệ"/><glyph d="M256 -203q0 12 2 19q8 43 43 72.5t76 29.5q37 0 60.5 -23.5t23.5 -60.5q0 -12 -2 -18q-8 -41 -43 -71t-76 -30q-37 0 -60.5 23.5t-23.5 58.5zM889 1208h-369l-63 -360h254l-39 -225h-254l-72 -398h369l-39 -225h-594l252 1434h594zM883 1509h-113l-92 113l-133 -113h-115 l154 226h225z" glyph-name="uni1EC7" horiz-adv-x="733" unicode="ệ"/><glyph d="M307 0h-225l252 1434h225zM471 1677.5q51 -51.5 51 -131.5q0 -12 -4 -37h-112q2 6 2 19q0 39 -26 63.5t-65 24.5l-75 92q43 20 96 21q82 0 133 -51.5z" glyph-name="uni1EC8" horiz-adv-x="389" unicode="Ỉ"/><glyph d="M307 0h-225l252 1434h225zM471 1677.5q51 -51.5 51 -131.5q0 -12 -4 -37h-112q2 6 2 19q0 39 -26 63.5t-65 24.5l-75 92q43 20 96 21q82 0 133 -51.5z" glyph-name="uni1EC9" horiz-adv-x="389" unicode="ỉ"/><glyph d="M307 0h-225l252 1434h225zM59 -203q0 12 2 19q8 43 43 72.5t76 29.5q37 0 60.5 -23.5t23.5 -60.5q0 -12 -2 -18q-8 -41 -43 -71t-76 -30q-37 0 -60.5 23.5t-23.5 58.5z" glyph-name="uni1ECA" horiz-adv-x="389" unicode="Ị"/><glyph d="M307 0h-225l252 1434h225zM59 -203q0 12 2 19q8 43 43 72.5t76 29.5q37 0 60.5 -23.5t23.5 -60.5q0 -12 -2 -18q-8 -41 -43 -71t-76 -30q-37 0 -60.5 23.5t-23.5 58.5z" glyph-name="uni1ECB" horiz-adv-x="389" unicode="ị"/><glyph d="M653 68q-106 -84 -252 -84q-150 0 -223 84q-63 72 -63 186q0 41 8 82l135 762q29 170 150 268q102 84 251 84q145 0 224 -84q63 -72 63 -186q0 -41 -8 -82l-135 -762q-29 -170 -150 -268zM698 1200q-20 25 -80 25q-55 0 -88 -25q-20 -16 -31.5 -45t-15.5 -57l-135 -762 q-4 -25 -4 -43q0 -41 16 -60q23 -25 80 -24q59 0 88 24q35 25 50 103l135 762q4 25 4 43q-1 41 -19 59zM268 -203q0 12 2 19q8 43 43 72.5t76 29.5q37 0 60.5 -23.5t23.5 -60.5q0 -12 -2 -18q-8 -41 -43 -71t-76 -30q-37 0 -60.5 23.5t-23.5 58.5z" glyph-name="uni1ECC" horiz-adv-x="806" unicode="Ọ"/><glyph d="M653 68q-106 -84 -252 -84q-150 0 -223 84q-63 72 -63 186q0 41 8 82l135 762q29 170 150 268q102 84 251 84q145 0 224 -84q63 -72 63 -186q0 -41 -8 -82l-135 -762q-29 -170 -150 -268zM698 1200q-20 25 -80 25q-55 0 -88 -25q-20 -16 -31.5 -45t-15.5 -57l-135 -762 q-4 -25 -4 -43q0 -41 16 -60q23 -25 80 -24q59 0 88 24q35 25 50 103l135 762q4 25 4 43q-1 41 -19 59zM268 -203q0 12 2 19q8 43 43 72.5t76 29.5q37 0 60.5 -23.5t23.5 -60.5q0 -12 -2 -18q-8 -41 -43 -71t-76 -30q-37 0 -60.5 23.5t-23.5 58.5z" glyph-name="uni1ECD" horiz-adv-x="806" unicode="ọ"/><glyph d="M653 68q-106 -84 -252 -84q-150 0 -223 84q-63 72 -63 186q0 41 8 82l135 762q29 170 150 268q102 84 251 84q145 0 224 -84q63 -72 63 -186q0 -41 -8 -82l-135 -762q-29 -170 -150 -268zM698 1200q-20 25 -80 25q-55 0 -88 -25q-20 -16 -31.5 -45t-15.5 -57l-135 -762 q-4 -25 -4 -43q0 -41 16 -60q23 -25 80 -24q59 0 88 24q35 25 50 103l135 762q4 25 4 43q-1 41 -19 59zM680 1677.5q51 -51.5 51 -131.5q0 -12 -4 -37h-113q2 6 2 19q0 39 -25.5 63.5t-64.5 24.5l-75 92q43 20 96 21q82 0 133 -51.5z" glyph-name="uni1ECE" horiz-adv-x="806" unicode="Ỏ"/><glyph d="M653 68q-106 -84 -252 -84q-150 0 -223 84q-63 72 -63 186q0 41 8 82l135 762q29 170 150 268q102 84 251 84q145 0 224 -84q63 -72 63 -186q0 -41 -8 -82l-135 -762q-29 -170 -150 -268zM698 1200q-20 25 -80 25q-55 0 -88 -25q-20 -16 -31.5 -45t-15.5 -57l-135 -762 q-4 -25 -4 -43q0 -41 16 -60q23 -25 80 -24q59 0 88 24q35 25 50 103l135 762q4 25 4 43q-1 41 -19 59zM680 1677.5q51 -51.5 51 -131.5q0 -12 -4 -37h-113q2 6 2 19q0 39 -25.5 63.5t-64.5 24.5l-75 92q43 20 96 21q82 0 133 -51.5z" glyph-name="uni1ECF" horiz-adv-x="806" unicode="ỏ"/><glyph d="M653 68q-106 -84 -252 -84q-150 0 -223 84q-63 72 -63 186q0 41 8 82l135 762q29 170 150 268q102 84 251 84q145 0 224 -84q63 -72 63 -186q0 -41 -8 -82l-135 -762q-29 -170 -150 -268zM698 1200q-20 25 -80 25q-55 0 -88 -25q-20 -16 -31.5 -45t-15.5 -57l-135 -762 q-4 -25 -4 -43q0 -41 16 -60q23 -25 80 -24q59 0 88 24q35 25 50 103l135 762q4 25 4 43q-1 41 -19 59zM1004 1714h-113l151 225h226zM444 1509l152 226h225l76 -226h-115l-92 113l-133 -113h-113z" glyph-name="uni1ED0" horiz-adv-x="806" unicode="Ố"/><glyph d="M653 68q-106 -84 -252 -84q-150 0 -223 84q-63 72 -63 186q0 41 8 82l135 762q29 170 150 268q102 84 251 84q145 0 224 -84q63 -72 63 -186q0 -41 -8 -82l-135 -762q-29 -170 -150 -268zM698 1200q-20 25 -80 25q-55 0 -88 -25q-20 -16 -31.5 -45t-15.5 -57l-135 -762 q-4 -25 -4 -43q0 -41 16 -60q23 -25 80 -24q59 0 88 24q35 25 50 103l135 762q4 25 4 43q-1 41 -19 59zM1004 1714h-113l151 225h226zM444 1509l152 226h225l76 -226h-115l-92 113l-133 -113h-113z" glyph-name="uni1ED1" horiz-adv-x="806" unicode="ố"/><glyph d="M653 68q-106 -84 -252 -84q-150 0 -223 84q-63 72 -63 186q0 41 8 82l135 762q29 170 150 268q102 84 251 84q145 0 224 -84q63 -72 63 -186q0 -41 -8 -82l-135 -762q-29 -170 -150 -268zM698 1200q-20 25 -80 25q-55 0 -88 -25q-20 -16 -31.5 -45t-15.5 -57l-135 -762 q-4 -25 -4 -43q0 -41 16 -60q23 -25 80 -24q59 0 88 24q35 25 50 103l135 762q4 25 4 43q-1 41 -19 59zM891 1714l-186 225h225l74 -225h-113zM444 1509l152 226h225l76 -226h-115l-92 113l-133 -113h-113z" glyph-name="uni1ED2" horiz-adv-x="806" unicode="Ồ"/><glyph d="M653 68q-106 -84 -252 -84q-150 0 -223 84q-63 72 -63 186q0 41 8 82l135 762q29 170 150 268q102 84 251 84q145 0 224 -84q63 -72 63 -186q0 -41 -8 -82l-135 -762q-29 -170 -150 -268zM698 1200q-20 25 -80 25q-55 0 -88 -25q-20 -16 -31.5 -45t-15.5 -57l-135 -762 q-4 -25 -4 -43q0 -41 16 -60q23 -25 80 -24q59 0 88 24q35 25 50 103l135 762q4 25 4 43q-1 41 -19 59zM891 1714l-186 225h225l74 -225h-113zM444 1509l152 226h225l76 -226h-115l-92 113l-133 -113h-113z" glyph-name="uni1ED3" horiz-adv-x="806" unicode="ồ"/><glyph d="M653 68q-106 -84 -252 -84q-150 0 -223 84q-63 72 -63 186q0 41 8 82l135 762q29 170 150 268q102 84 251 84q145 0 224 -84q63 -72 63 -186q0 -41 -8 -82l-135 -762q-29 -170 -150 -268zM698 1200q-20 25 -80 25q-55 0 -88 -25q-20 -16 -31.5 -45t-15.5 -57l-135 -762 q-4 -25 -4 -43q0 -41 16 -60q23 -25 80 -24q59 0 88 24q35 25 50 103l135 762q4 25 4 43q-1 41 -19 59zM954.5 1881q53.5 -52 53.5 -130q0 -12 -4 -37h-113q2 6 2 19q0 39 -25.5 63.5t-64.5 24.5l-76 92q43 20 94 20q80 0 133.5 -52zM444 1509l152 226h225l76 -226h-115 l-92 113l-133 -113h-113z" glyph-name="uni1ED4" horiz-adv-x="806" unicode="Ổ"/><glyph d="M653 68q-106 -84 -252 -84q-150 0 -223 84q-63 72 -63 186q0 41 8 82l135 762q29 170 150 268q102 84 251 84q145 0 224 -84q63 -72 63 -186q0 -41 -8 -82l-135 -762q-29 -170 -150 -268zM698 1200q-20 25 -80 25q-55 0 -88 -25q-20 -16 -31.5 -45t-15.5 -57l-135 -762 q-4 -25 -4 -43q0 -41 16 -60q23 -25 80 -24q59 0 88 24q35 25 50 103l135 762q4 25 4 43q-1 41 -19 59zM954.5 1881q53.5 -52 53.5 -130q0 -12 -4 -37h-113q2 6 2 19q0 39 -25.5 63.5t-64.5 24.5l-76 92q43 20 94 20q80 0 133.5 -52zM444 1509l152 226h225l76 -226h-115 l-92 113l-133 -113h-113z" glyph-name="uni1ED5" horiz-adv-x="806" unicode="ổ"/><glyph d="M653 68q-106 -84 -252 -84q-150 0 -223 84q-63 72 -63 186q0 41 8 82l135 762q29 170 150 268q102 84 251 84q145 0 224 -84q63 -72 63 -186q0 -41 -8 -82l-135 -762q-29 -170 -150 -268zM698 1200q-20 25 -80 25q-55 0 -88 -25q-20 -16 -31.5 -45t-15.5 -57l-135 -762 q-4 -25 -4 -43q0 -41 16 -60q23 -25 80 -24q59 0 88 24q35 25 50 103l135 762q4 25 4 43q-1 41 -19 59zM895 1509h-113l-92 113l-133 -113h-115l154 226h225zM621 1843q-37 -6 -91 -65l-77 67q84 90 161 109q25 4 39 4q59 0 121 -43q39 -29 68 -23q31 10 84 66l80 -66 q-47 -51 -94.5 -82.5t-100.5 -31.5q-59 0 -115 43q-44 30 -75 22z" glyph-name="uni1ED6" horiz-adv-x="806" unicode="Ỗ"/><glyph d="M653 68q-106 -84 -252 -84q-150 0 -223 84q-63 72 -63 186q0 41 8 82l135 762q29 170 150 268q102 84 251 84q145 0 224 -84q63 -72 63 -186q0 -41 -8 -82l-135 -762q-29 -170 -150 -268zM698 1200q-20 25 -80 25q-55 0 -88 -25q-20 -16 -31.5 -45t-15.5 -57l-135 -762 q-4 -25 -4 -43q0 -41 16 -60q23 -25 80 -24q59 0 88 24q35 25 50 103l135 762q4 25 4 43q-1 41 -19 59zM895 1509h-113l-92 113l-133 -113h-115l154 226h225zM621 1843q-37 -6 -91 -65l-77 67q84 90 161 109q25 4 39 4q59 0 121 -43q39 -29 68 -23q31 10 84 66l80 -66 q-47 -51 -94.5 -82.5t-100.5 -31.5q-59 0 -115 43q-44 30 -75 22z" glyph-name="uni1ED7" horiz-adv-x="806" unicode="ỗ"/><glyph d="M653 68q-106 -84 -252 -84q-150 0 -223 84q-63 72 -63 186q0 41 8 82l135 762q29 170 150 268q102 84 251 84q145 0 224 -84q63 -72 63 -186q0 -41 -8 -82l-135 -762q-29 -170 -150 -268zM698 1200q-20 25 -80 25q-55 0 -88 -25q-20 -16 -31.5 -45t-15.5 -57l-135 -762 q-4 -25 -4 -43q0 -41 16 -60q23 -25 80 -24q59 0 88 24q35 25 50 103l135 762q4 25 4 43q-1 41 -19 59zM444 1509l152 226h225l76 -226h-115l-92 113l-133 -113h-113zM268 -203q0 12 2 19q8 43 43 72.5t76 29.5q37 0 60.5 -23.5t23.5 -60.5q0 -12 -2 -18q-8 -41 -43 -71 t-76 -30q-37 0 -60.5 23.5t-23.5 58.5z" glyph-name="uni1ED8" horiz-adv-x="806" unicode="Ộ"/><glyph d="M653 68q-106 -84 -252 -84q-150 0 -223 84q-63 72 -63 186q0 41 8 82l135 762q29 170 150 268q102 84 251 84q145 0 224 -84q63 -72 63 -186q0 -41 -8 -82l-135 -762q-29 -170 -150 -268zM698 1200q-20 25 -80 25q-55 0 -88 -25q-20 -16 -31.5 -45t-15.5 -57l-135 -762 q-4 -25 -4 -43q0 -41 16 -60q23 -25 80 -24q59 0 88 24q35 25 50 103l135 762q4 25 4 43q-1 41 -19 59zM444 1509l152 226h225l76 -226h-115l-92 113l-133 -113h-113zM268 -203q0 12 2 19q8 43 43 72.5t76 29.5q37 0 60.5 -23.5t23.5 -60.5q0 -12 -2 -18q-8 -41 -43 -71 t-76 -30q-37 0 -60.5 23.5t-23.5 58.5z" glyph-name="uni1ED9" horiz-adv-x="806" unicode="ộ"/><glyph d="M1149 1479q-8 -57 -58.5 -99.5t-109.5 -42.5h-78q43 -66 43 -157q0 -41 -8 -82l-135 -762q-29 -170 -150 -268q-106 -84 -252 -84q-150 0 -223 84q-63 72 -63 186q0 41 8 82l135 762q29 170 150 268q102 84 251 84h342q12 0 22.5 8t12.5 21h113zM713 1098q4 25 4 43 q0 41 -19 59q-20 25 -80 25q-55 0 -88 -25q-20 -16 -31.5 -45t-15.5 -57l-135 -762q-4 -25 -4 -43q0 -41 16 -60q23 -25 80 -24q59 0 88 24q35 25 50 103zM725 1509h-113l152 226h225z" glyph-name="uni1EDA" horiz-adv-x="847" unicode="Ớ"/><glyph d="M1149 1479q-8 -57 -58.5 -99.5t-109.5 -42.5h-78q43 -66 43 -157q0 -41 -8 -82l-135 -762q-29 -170 -150 -268q-106 -84 -252 -84q-150 0 -223 84q-63 72 -63 186q0 41 8 82l135 762q29 170 150 268q102 84 251 84h342q12 0 22.5 8t12.5 21h113zM713 1098q4 25 4 43 q0 41 -19 59q-20 25 -80 25q-55 0 -88 -25q-20 -16 -31.5 -45t-15.5 -57l-135 -762q-4 -25 -4 -43q0 -41 16 -60q23 -25 80 -24q59 0 88 24q35 25 50 103zM725 1509h-113l152 226h225z" glyph-name="uni1EDB" horiz-adv-x="847" unicode="ớ"/><glyph d="M1149 1479q-8 -57 -58.5 -99.5t-109.5 -42.5h-78q43 -66 43 -157q0 -41 -8 -82l-135 -762q-29 -170 -150 -268q-106 -84 -252 -84q-150 0 -223 84q-63 72 -63 186q0 41 8 82l135 762q29 170 150 268q102 84 251 84h342q12 0 22.5 8t12.5 21h113zM713 1098q4 25 4 43 q0 41 -19 59q-20 25 -80 25q-55 0 -88 -25q-20 -16 -31.5 -45t-15.5 -57l-135 -762q-4 -25 -4 -43q0 -41 16 -60q23 -25 80 -24q59 0 88 24q35 25 50 103zM614 1509l-186 226h225l74 -226h-113z" glyph-name="uni1EDC" horiz-adv-x="847" unicode="Ờ"/><glyph d="M1149 1479q-8 -57 -58.5 -99.5t-109.5 -42.5h-78q43 -66 43 -157q0 -41 -8 -82l-135 -762q-29 -170 -150 -268q-106 -84 -252 -84q-150 0 -223 84q-63 72 -63 186q0 41 8 82l135 762q29 170 150 268q102 84 251 84h342q12 0 22.5 8t12.5 21h113zM713 1098q4 25 4 43 q0 41 -19 59q-20 25 -80 25q-55 0 -88 -25q-20 -16 -31.5 -45t-15.5 -57l-135 -762q-4 -25 -4 -43q0 -41 16 -60q23 -25 80 -24q59 0 88 24q35 25 50 103zM614 1509l-186 226h225l74 -226h-113z" glyph-name="uni1EDD" horiz-adv-x="847" unicode="ờ"/><glyph d="M1149 1479q-8 -57 -58.5 -99.5t-109.5 -42.5h-78q43 -66 43 -157q0 -41 -8 -82l-135 -762q-29 -170 -150 -268q-106 -84 -252 -84q-150 0 -223 84q-63 72 -63 186q0 41 8 82l135 762q29 170 150 268q102 84 251 84h342q12 0 22.5 8t12.5 21h113zM713 1098q4 25 4 43 q0 41 -19 59q-20 25 -80 25q-55 0 -88 -25q-20 -16 -31.5 -45t-15.5 -57l-135 -762q-4 -25 -4 -43q0 -41 16 -60q23 -25 80 -24q59 0 88 24q35 25 50 103zM680 1677.5q51 -51.5 51 -131.5q0 -12 -4 -37h-113q2 6 2 19q0 39 -25.5 63.5t-64.5 24.5l-75 92q43 20 96 21 q82 0 133 -51.5z" glyph-name="uni1EDE" horiz-adv-x="847" unicode="Ở"/><glyph d="M1149 1479q-8 -57 -58.5 -99.5t-109.5 -42.5h-78q43 -66 43 -157q0 -41 -8 -82l-135 -762q-29 -170 -150 -268q-106 -84 -252 -84q-150 0 -223 84q-63 72 -63 186q0 41 8 82l135 762q29 170 150 268q102 84 251 84h342q12 0 22.5 8t12.5 21h113zM713 1098q4 25 4 43 q0 41 -19 59q-20 25 -80 25q-55 0 -88 -25q-20 -16 -31.5 -45t-15.5 -57l-135 -762q-4 -25 -4 -43q0 -41 16 -60q23 -25 80 -24q59 0 88 24q35 25 50 103zM680 1677.5q51 -51.5 51 -131.5q0 -12 -4 -37h-113q2 6 2 19q0 39 -25.5 63.5t-64.5 24.5l-75 92q43 20 96 21 q82 0 133 -51.5z" glyph-name="uni1EDF" horiz-adv-x="847" unicode="ở"/><glyph d="M1149 1479q-8 -57 -58.5 -99.5t-109.5 -42.5h-78q43 -66 43 -157q0 -41 -8 -82l-135 -762q-29 -170 -150 -268q-106 -84 -252 -84q-150 0 -223 84q-63 72 -63 186q0 41 8 82l135 762q29 170 150 268q102 84 251 84h342q12 0 22.5 8t12.5 21h113zM713 1098q4 25 4 43 q0 41 -19 59q-20 25 -80 25q-55 0 -88 -25q-20 -16 -31.5 -45t-15.5 -57l-135 -762q-4 -25 -4 -43q0 -41 16 -60q23 -25 80 -24q59 0 88 24q35 25 50 103zM578 1571q-35 -6 -89 -66l-79 68q88 90 163 108q25 4 39 5q59 0 119 -44q39 -29 68 -22q35 10 84 66l80 -66 q-102 -115 -193 -115q-59 0 -117 43q-42 31 -75 23z" glyph-name="uni1EE0" horiz-adv-x="847" unicode="Ỡ"/><glyph d="M1149 1479q-8 -57 -58.5 -99.5t-109.5 -42.5h-78q43 -66 43 -157q0 -41 -8 -82l-135 -762q-29 -170 -150 -268q-106 -84 -252 -84q-150 0 -223 84q-63 72 -63 186q0 41 8 82l135 762q29 170 150 268q102 84 251 84h342q12 0 22.5 8t12.5 21h113zM713 1098q4 25 4 43 q0 41 -19 59q-20 25 -80 25q-55 0 -88 -25q-20 -16 -31.5 -45t-15.5 -57l-135 -762q-4 -25 -4 -43q0 -41 16 -60q23 -25 80 -24q59 0 88 24q35 25 50 103zM578 1571q-35 -6 -89 -66l-79 68q88 90 163 108q25 4 39 5q59 0 119 -44q39 -29 68 -22q35 10 84 66l80 -66 q-102 -115 -193 -115q-59 0 -117 43q-42 31 -75 23z" glyph-name="uni1EE1" horiz-adv-x="847" unicode="ỡ"/><glyph d="M1149 1479q-8 -57 -58.5 -99.5t-109.5 -42.5h-78q43 -66 43 -157q0 -41 -8 -82l-135 -762q-29 -170 -150 -268q-106 -84 -252 -84q-150 0 -223 84q-63 72 -63 186q0 41 8 82l135 762q29 170 150 268q102 84 251 84h342q12 0 22.5 8t12.5 21h113zM713 1098q4 25 4 43 q0 41 -19 59q-20 25 -80 25q-55 0 -88 -25q-20 -16 -31.5 -45t-15.5 -57l-135 -762q-4 -25 -4 -43q0 -41 16 -60q23 -25 80 -24q59 0 88 24q35 25 50 103zM268 -203q0 12 2 19q8 43 43 72.5t76 29.5q37 0 60.5 -23.5t23.5 -60.5q0 -12 -2 -18q-8 -41 -43 -71t-76 -30 q-37 0 -60.5 23.5t-23.5 58.5z" glyph-name="uni1EE2" horiz-adv-x="847" unicode="Ợ"/><glyph d="M1149 1479q-8 -57 -58.5 -99.5t-109.5 -42.5h-78q43 -66 43 -157q0 -41 -8 -82l-135 -762q-29 -170 -150 -268q-106 -84 -252 -84q-150 0 -223 84q-63 72 -63 186q0 41 8 82l135 762q29 170 150 268q102 84 251 84h342q12 0 22.5 8t12.5 21h113zM713 1098q4 25 4 43 q0 41 -19 59q-20 25 -80 25q-55 0 -88 -25q-20 -16 -31.5 -45t-15.5 -57l-135 -762q-4 -25 -4 -43q0 -41 16 -60q23 -25 80 -24q59 0 88 24q35 25 50 103zM268 -203q0 12 2 19q8 43 43 72.5t76 29.5q37 0 60.5 -23.5t23.5 -60.5q0 -12 -2 -18q-8 -41 -43 -71t-76 -30 q-37 0 -60.5 23.5t-23.5 58.5z" glyph-name="uni1EE3" horiz-adv-x="847" unicode="ợ"/><glyph d="M662 68q-109 -84 -252 -84q-150 0 -224 84q-63 72 -63 186q0 41 8 82l193 1098h225l-193 -1098q-4 -29 -4 -49q0 -39 15 -54q23 -25 82 -24q55 0 88 24q35 27 49 103l192 1098h226l-193 -1098q-28 -166 -149 -268zM276 -203q0 12 3 19q8 43 42.5 72.5t75.5 29.5 q37 0 60.5 -23.5t23.5 -60.5q0 -12 -2 -18q-8 -41 -43 -71t-76 -30q-37 0 -60.5 23.5t-23.5 58.5z" glyph-name="uni1EE4" horiz-adv-x="823" unicode="Ụ"/><glyph d="M662 68q-109 -84 -252 -84q-150 0 -224 84q-63 72 -63 186q0 41 8 82l193 1098h225l-193 -1098q-4 -29 -4 -49q0 -39 15 -54q23 -25 82 -24q55 0 88 24q35 27 49 103l192 1098h226l-193 -1098q-28 -166 -149 -268zM276 -203q0 12 3 19q8 43 42.5 72.5t75.5 29.5 q37 0 60.5 -23.5t23.5 -60.5q0 -12 -2 -18q-8 -41 -43 -71t-76 -30q-37 0 -60.5 23.5t-23.5 58.5z" glyph-name="uni1EE5" horiz-adv-x="823" unicode="ụ"/><glyph d="M662 68q-109 -84 -252 -84q-150 0 -224 84q-63 72 -63 186q0 41 8 82l193 1098h225l-193 -1098q-4 -29 -4 -49q0 -39 15 -54q23 -25 82 -24q55 0 88 24q35 27 49 103l192 1098h226l-193 -1098q-28 -166 -149 -268zM688 1677.5q51 -51.5 51 -131.5q0 -12 -4 -37h-112 q2 6 2 19q0 39 -26 63.5t-64 24.5l-76 92q43 20 96 21q82 0 133 -51.5z" glyph-name="uni1EE6" horiz-adv-x="823" unicode="Ủ"/><glyph d="M662 68q-109 -84 -252 -84q-150 0 -224 84q-63 72 -63 186q0 41 8 82l193 1098h225l-193 -1098q-4 -29 -4 -49q0 -39 15 -54q23 -25 82 -24q55 0 88 24q35 27 49 103l192 1098h226l-193 -1098q-28 -166 -149 -268zM688 1677.5q51 -51.5 51 -131.5q0 -12 -4 -37h-112 q2 6 2 19q0 39 -26 63.5t-64 24.5l-76 92q43 20 96 21q82 0 133 -51.5z" glyph-name="uni1EE7" horiz-adv-x="823" unicode="ủ"/><glyph d="M1237 1462q-10 -59 -59.5 -100t-106.5 -41h-86l-174 -985q-29 -166 -149 -268q-109 -84 -252 -84q-150 0 -224 84q-63 72 -63 186q0 41 8 82l193 1098h225l-193 -1098q-4 -29 -4 -49q0 -39 15 -54q23 -25 82 -24q55 0 88 24q35 27 49 103l192 1098h312q12 0 21 8t13 20 h113zM733 1509h-112l151 226h225z" glyph-name="uni1EE8" horiz-adv-x="937" unicode="Ứ"/><glyph d="M1237 1462q-10 -59 -59.5 -100t-106.5 -41h-86l-174 -985q-29 -166 -149 -268q-109 -84 -252 -84q-150 0 -224 84q-63 72 -63 186q0 41 8 82l193 1098h225l-193 -1098q-4 -29 -4 -49q0 -39 15 -54q23 -25 82 -24q55 0 88 24q35 27 49 103l192 1098h312q12 0 21 8t13 20 h113zM733 1509h-112l151 226h225z" glyph-name="uni1EE9" horiz-adv-x="937" unicode="ứ"/><glyph d="M1237 1462q-10 -59 -59.5 -100t-106.5 -41h-86l-174 -985q-29 -166 -149 -268q-109 -84 -252 -84q-150 0 -224 84q-63 72 -63 186q0 41 8 82l193 1098h225l-193 -1098q-4 -29 -4 -49q0 -39 15 -54q23 -25 82 -24q55 0 88 24q35 27 49 103l192 1098h312q12 0 21 8t13 20 h113zM623 1509l-187 226h226l73 -226h-112z" glyph-name="uni1EEA" horiz-adv-x="937" unicode="Ừ"/><glyph d="M1237 1462q-10 -59 -59.5 -100t-106.5 -41h-86l-174 -985q-29 -166 -149 -268q-109 -84 -252 -84q-150 0 -224 84q-63 72 -63 186q0 41 8 82l193 1098h225l-193 -1098q-4 -29 -4 -49q0 -39 15 -54q23 -25 82 -24q55 0 88 24q35 27 49 103l192 1098h312q12 0 21 8t13 20 h113zM623 1509l-187 226h226l73 -226h-112z" glyph-name="uni1EEB" horiz-adv-x="937" unicode="ừ"/><glyph d="M1237 1462q-10 -59 -59.5 -100t-106.5 -41h-86l-174 -985q-29 -166 -149 -268q-109 -84 -252 -84q-150 0 -224 84q-63 72 -63 186q0 41 8 82l193 1098h225l-193 -1098q-4 -29 -4 -49q0 -39 15 -54q23 -25 82 -24q55 0 88 24q35 27 49 103l192 1098h312q12 0 21 8t13 20 h113zM688 1677.5q51 -51.5 51 -131.5q0 -12 -4 -37h-112q2 6 2 19q0 39 -26 63.5t-64 24.5l-76 92q43 20 96 21q82 0 133 -51.5z" glyph-name="uni1EEC" horiz-adv-x="937" unicode="Ử"/><glyph d="M1237 1462q-10 -59 -59.5 -100t-106.5 -41h-86l-174 -985q-29 -166 -149 -268q-109 -84 -252 -84q-150 0 -224 84q-63 72 -63 186q0 41 8 82l193 1098h225l-193 -1098q-4 -29 -4 -49q0 -39 15 -54q23 -25 82 -24q55 0 88 24q35 27 49 103l192 1098h312q12 0 21 8t13 20 h113zM688 1677.5q51 -51.5 51 -131.5q0 -12 -4 -37h-112q2 6 2 19q0 39 -26 63.5t-64 24.5l-76 92q43 20 96 21q82 0 133 -51.5z" glyph-name="uni1EED" horiz-adv-x="937" unicode="ử"/><glyph d="M1237 1462q-10 -59 -59.5 -100t-106.5 -41h-86l-174 -985q-29 -166 -149 -268q-109 -84 -252 -84q-150 0 -224 84q-63 72 -63 186q0 41 8 82l193 1098h225l-193 -1098q-4 -29 -4 -49q0 -39 15 -54q23 -25 82 -24q55 0 88 24q35 27 49 103l192 1098h312q12 0 21 8t13 20 h113zM586 1571q-35 -6 -88 -66l-80 68q88 90 164 108q25 4 39 5q61 0 118 -44q39 -29 68 -22q35 10 84 66l80 -66q-102 -115 -193 -115q-59 0 -116 43q-43 31 -76 23z" glyph-name="uni1EEE" horiz-adv-x="937" unicode="Ữ"/><glyph d="M1237 1462q-10 -59 -59.5 -100t-106.5 -41h-86l-174 -985q-29 -166 -149 -268q-109 -84 -252 -84q-150 0 -224 84q-63 72 -63 186q0 41 8 82l193 1098h225l-193 -1098q-4 -29 -4 -49q0 -39 15 -54q23 -25 82 -24q55 0 88 24q35 27 49 103l192 1098h312q12 0 21 8t13 20 h113zM586 1571q-35 -6 -88 -66l-80 68q88 90 164 108q25 4 39 5q61 0 118 -44q39 -29 68 -22q35 10 84 66l80 -66q-102 -115 -193 -115q-59 0 -116 43q-43 31 -76 23z" glyph-name="uni1EEF" horiz-adv-x="937" unicode="ữ"/><glyph d="M1237 1462q-10 -59 -59.5 -100t-106.5 -41h-86l-174 -985q-29 -166 -149 -268q-109 -84 -252 -84q-150 0 -224 84q-63 72 -63 186q0 41 8 82l193 1098h225l-193 -1098q-4 -29 -4 -49q0 -39 15 -54q23 -25 82 -24q55 0 88 24q35 27 49 103l192 1098h312q12 0 21 8t13 20 h113zM409.5 -16q-96.5 0 0 0t0 0zM272 -182q0 12 2 18q8 43 43 73t76 30q37 0 60.5 -24t23.5 -60q0 -12 -2 -19q-8 -41 -43 -70.5t-76 -29.5q-37 0 -60.5 23.5t-23.5 58.5z" glyph-name="uni1EF0" horiz-adv-x="937" unicode="Ự"/><glyph d="M1237 1462q-10 -59 -59.5 -100t-106.5 -41h-86l-174 -985q-29 -166 -149 -268q-109 -84 -252 -84q-150 0 -224 84q-63 72 -63 186q0 41 8 82l193 1098h225l-193 -1098q-4 -29 -4 -49q0 -39 15 -54q23 -25 82 -24q55 0 88 24q35 27 49 103l192 1098h312q12 0 21 8t13 20 h113zM409.5 -16q-96.5 0 0 0t0 0zM272 -182q0 12 2 18q8 43 43 73t76 30q37 0 60.5 -24t23.5 -60q0 -12 -2 -19q-8 -41 -43 -70.5t-76 -29.5q-37 0 -60.5 23.5t-23.5 58.5z" glyph-name="uni1EF1" horiz-adv-x="937" unicode="ự"/><glyph d="M262 1434h238l65 -514l242 514h237l-440 -930l-88 -504h-227l88 504zM612 1509l-186 226h225l74 -226h-113z" glyph-name="Ygrave" horiz-adv-x="802" unicode="Ỳ"/><glyph d="M262 1434h238l65 -514l242 514h237l-440 -930l-88 -504h-227l88 504zM612 1509l-186 226h225l74 -226h-113z" glyph-name="ygrave" horiz-adv-x="802" unicode="ỳ"/><glyph d="M1044 1434l-442 -930l-88 -504h-227l88 504l-113 930h238l61 -514l246 514h237zM264 -203q0 12 2 19q8 43 43 72.5t76 29.5q37 0 60.5 -23.5t23.5 -60.5q0 -12 -2 -18q-8 -41 -43 -71t-76 -30q-37 0 -60.5 23.5t-23.5 58.5z" glyph-name="uni1EF4" horiz-adv-x="802" unicode="Ỵ"/><glyph d="M1044 1434l-442 -930l-88 -504h-227l88 504l-113 930h238l61 -514l246 514h237zM264 -203q0 12 2 19q8 43 43 72.5t76 29.5q37 0 60.5 -23.5t23.5 -60.5q0 -12 -2 -18q-8 -41 -43 -71t-76 -30q-37 0 -60.5 23.5t-23.5 58.5z" glyph-name="uni1EF5" horiz-adv-x="802" unicode="ỵ"/><glyph d="M1044 1434l-442 -930l-88 -504h-227l88 504l-113 930h238l61 -514l246 514h237zM676 1677.5q51 -51.5 51 -131.5q0 -12 -4 -37h-113q2 6 2 19q0 39 -25.5 63.5t-64.5 24.5l-76 92q43 20 97 21q82 0 133 -51.5z" glyph-name="uni1EF6" horiz-adv-x="802" unicode="Ỷ"/><glyph d="M1044 1434l-442 -930l-88 -504h-227l88 504l-113 930h238l61 -514l246 514h237zM676 1677.5q51 -51.5 51 -131.5q0 -12 -4 -37h-113q2 6 2 19q0 39 -25.5 63.5t-64.5 24.5l-76 92q43 20 97 21q82 0 133 -51.5z" glyph-name="uni1EF7" horiz-adv-x="802" unicode="ỷ"/><glyph d="M1044 1434l-442 -930l-88 -504h-227l88 504l-113 930h238l61 -514l246 514h237zM578 1575q-37 -6 -91 -66l-77 68q84 90 161 109q25 4 39 4q59 0 121 -43q37 -29 68 -23q33 10 82 66l82 -66q-47 -51 -94.5 -83t-100.5 -32q-59 0 -115 43q-44 31 -75 23z" glyph-name="uni1EF8" horiz-adv-x="802" unicode="Ỹ"/><glyph d="M1044 1434l-442 -930l-88 -504h-227l88 504l-113 930h238l61 -514l246 514h237zM578 1575q-37 -6 -91 -66l-77 68q84 90 161 109q25 4 39 4q59 0 121 -43q37 -29 68 -23q33 10 82 66l82 -66q-47 -51 -94.5 -83t-100.5 -32q-59 0 -115 43q-44 31 -75 23z" glyph-name="uni1EF9" horiz-adv-x="802" unicode="ỹ"/><glyph d="M725 621h-596l41 227h596z" glyph-name="figuredash" horiz-adv-x="636" unicode="‒"/><glyph d="M170 848h1188l-39 -225h-1188z" glyph-name="endash" horiz-adv-x="1228" unicode="–"/><glyph d="M170 848h1188l-39 -225h-1188z" glyph-name="emdash" horiz-adv-x="1228" unicode="—"/><glyph d="M310.5 1056.5q-27.5 26.5 -27.5 67.5q0 12 2 21q6 45 51 106q29 43 80 103.5t67 79.5h66q-6 -12 -25.5 -48t-42.5 -75q-12 -25 -12 -39q0 -18 10 -29q37 -33 37 -78q0 -12 -2 -20q-10 -47 -49 -81t-86 -34q-41 0 -68.5 26.5z" glyph-name="quoteleft" horiz-adv-x="393" unicode="‘"/><glyph d="M519.5 1413q27.5 -27 27.5 -67q0 -12 -2 -21q-8 -43 -51 -106q-29 -43 -81.5 -103.5t-68.5 -79.5h-65l69 123q12 25 12 39q0 18 -10 29q-37 33 -37 76q0 14 2 22q10 47 49 81t87 34q41 0 68.5 -27z" glyph-name="quoteright" horiz-adv-x="393" unicode="’"/><glyph d="M294 196.5q28 -26.5 28 -67.5q0 -12 -3 -20q-6 -45 -51 -107q-29 -43 -81 -103.5t-68 -78.5h-66l70 123q12 25 12 39q0 18 -10 28q-37 33 -37 78q0 12 2 21q10 47 49 80.5t86 33.5q41 0 69 -26.5z" glyph-name="quotesinglbase" horiz-adv-x="372" unicode="‚"/><glyph d="M300 1056.5q-28 26.5 -28 67.5q0 12 2 21q6 45 52 106q29 43 80 103.5t67 79.5h66q-6 -12 -25.5 -48t-42.5 -75q-12 -25 -12 -39q0 -18 10 -29q37 -33 37 -78q0 -12 -2 -20q-10 -47 -49 -81t-86 -34q-41 0 -69 26.5zM599 1056.5q-28 26.5 -28 67.5q0 12 2 21q6 45 52 106 q29 43 80 103.5t67 79.5h66q-6 -12 -25.5 -48t-42.5 -75q-12 -25 -12 -39q0 -18 10 -29q37 -33 37 -78q0 -12 -2 -20q-10 -47 -49 -81t-86 -34q-41 0 -69 26.5z" glyph-name="quotedblleft" horiz-adv-x="681" unicode="“"/><glyph d="M519.5 1413q27.5 -27 27.5 -67q0 -12 -2 -21q-8 -43 -51 -106q-29 -43 -81.5 -103.5t-68.5 -79.5h-65l69 123q12 25 12 39q0 18 -10 29q-37 33 -37 76q0 14 2 22q10 47 49 81t87 34q41 0 68.5 -27zM818.5 1413q27.5 -27 27.5 -67q0 -12 -2 -21q-8 -43 -51 -106 q-29 -43 -81.5 -103.5t-68.5 -79.5h-65l69 123q12 25 12 39q0 18 -10 29q-37 33 -37 76q0 14 2 22q10 47 49 81t87 34q41 0 68.5 -27z" glyph-name="quotedblright" horiz-adv-x="681" unicode="”"/><glyph d="M294 196.5q28 -26.5 28 -67.5q0 -12 -3 -20q-6 -45 -51 -107q-29 -43 -81 -103.5t-68 -78.5h-66l70 123q12 25 12 39q0 18 -10 28q-37 33 -37 78q0 12 2 21q10 47 49 80.5t86 33.5q41 0 69 -26.5zM593 196.5q28 -26.5 28 -67.5q0 -12 -3 -20q-6 -45 -51 -107 q-29 -43 -81 -103.5t-68 -78.5h-66l70 123q12 25 12 39q0 18 -10 28q-37 33 -37 78q0 12 2 21q10 47 49 80.5t86 33.5q41 0 69 -26.5z" glyph-name="quotedblbase" horiz-adv-x="671" unicode="„"/><glyph d="M273.5 831.5q48.5 77.5 126 123.5t163.5 46q104 0 172 -67.5t68 -167.5q0 -88 -48 -165t-127 -123t-165 -46q-104 0 -171 66.5t-67 167.5q0 88 48.5 165.5z" glyph-name="bullet" horiz-adv-x="774" unicode="•"/><glyph d="M322 129q0 -12 -3 -20q-8 -47 -48 -81t-87 -34q-43 0 -69.5 27.5t-26.5 68.5q0 12 2 19q10 47 49 80.5t86 33.5q41 0 69 -26.5t28 -67.5zM641 129q0 -12 -2 -20q-8 -47 -48 -81t-87 -34q-43 0 -69.5 27.5t-26.5 68.5q0 12 2 19q10 47 49 80.5t86 33.5q41 0 68.5 -26.5 t27.5 -67.5zM961 129q0 -12 -3 -20q-8 -47 -48 -81t-87 -34q-43 0 -69.5 27.5t-26.5 68.5q0 12 2 19q10 47 49 80.5t86 33.5q41 0 69 -26.5t28 -67.5z" glyph-name="ellipsis" horiz-adv-x="1011" unicode="…"/><glyph d="M1022 36.5q-47 -20.5 -94 -20.5t-87 20.5t-67 57.5q-35 49 -35 121q0 35 4 51l5 21q16 102 90 170q39 39 87 59.5t95 20.5t87 -20.5t64 -59.5q37 -51 37 -123q0 -14 -4 -47l-4 -21q-20 -102 -92 -172q-39 -37 -86 -57.5zM998.5 320.5q-5.5 13.5 -13.5 13.5t-20.5 -13.5 t-14.5 -33.5l-4 -21q-4 -20 3 -33.5t16 -13.5q6 0 17 13.5t15 33.5l4 21q3 20 -2.5 33.5zM552 927.5q-48 -20.5 -95 -20.5q-96 0 -152 78q-35 49 -35 121q0 33 4 51l2 19q18 102 93 172q39 37 86 58t94 21t87 -21.5t66 -57.5q35 -53 35 -123q0 -33 -4 -49l-2 -19 q-18 -98 -92 -172q-39 -37 -87 -57.5zM527.5 1210.5q-7.5 14.5 -15.5 14.5t-18.5 -14.5t-14.5 -34.5l-2 -19q-4 -20 2 -33.5t15 -13.5q8 0 19 13.5t15 33.5l2 19q5 20 -2.5 34.5zM979 1434h211l-694 -1434h-211zM1540 36.5q-47 -20.5 -94 -20.5t-87 20.5t-67 57.5 q-35 49 -35 121q0 35 5 51l4 21q16 102 90 170q39 39 87 59.5t95 20.5t87 -20.5t65 -59.5q37 -51 36 -123q0 -14 -4 -47l-4 -21q-20 -102 -92 -172q-39 -37 -86 -57.5zM1516.5 320.5q-5.5 13.5 -13.5 13.5t-20.5 -13.5t-14.5 -33.5l-4 -21q-4 -20 3.5 -33.5t15.5 -13.5 q6 0 17 13.5t16 33.5l4 21q2 20 -3.5 33.5z" glyph-name="perthousand" horiz-adv-x="1740" unicode="‰"/><glyph d="M610 1282l-219 -547l27 -547h-232l-24 547l217 547h231z" glyph-name="guilsinglleft" horiz-adv-x="417" unicode="‹"/><glyph d="M258 1282h231l25 -547l-217 -547h-231l219 547z" glyph-name="guilsinglright" horiz-adv-x="417" unicode="›"/><glyph d="M762 16q-88 -35 -174 -34q-94 0 -168 37.5t-119 109.5q-66 98 -65 260q0 23 4 80h-101l41 227h96l11 62h-97l41 227h101q59 211 178 330q70 70 158 108.5t182 38.5q78 0 139 -26l-119 -213q-20 10 -61 10q-70 0 -137.5 -53.5t-110.5 -194.5h268l-41 -227h-272l-10 -62 h272l-41 -227h-268q-2 -16 -2 -45q0 -121 48 -168t114 -47q39 0 76 16z" glyph-name="Euro" horiz-adv-x="811" unicode="€"/><glyph d="M1049 1208h-119q2 -10 2 -32q0 -16 -4 -58h104l-39 -227h-104q-39 -150 -141 -232q-88 -72 -218 -84l203 -575h-256l-280 801h338q59 0 88 24q23 14 41 66h-453l39 227h452q0 47 -16 66q-20 25 -80 24h-340l39 226h340h442z" glyph-name="uni20B9" horiz-adv-x="876" unicode="₹"/><glyph d="M328 1094q123 168 302 262t380 94q176 0 311 -73.5t210 -208t75 -308.5q0 -70 -13 -143q-37 -209 -159.5 -377t-302 -262t-379.5 -94q-176 0 -312.5 73.5t-211 206.5t-74.5 307q0 55 14 146q37 209 160 377zM305 596q0 -137 58.5 -243.5t165 -166t247.5 -59.5 q160 0 302.5 76t239.5 211t128 303q10 68 10 117q0 139 -59.5 246.5t-166 167t-247.5 59.5q-160 0 -302 -76t-239.5 -211t-126.5 -303q-10 -51 -10 -121zM791 530l-41 -225h-226l148 828h340q150 0 225.5 -68t75.5 -172q0 -86 -51.5 -170t-144.5 -138.5t-212 -54.5h-114z M856 907l-27 -151h115q63 0 101 25.5t38 58.5q0 29 -29.5 48t-82.5 19h-115z" glyph-name="uni2117" horiz-adv-x="1507" unicode="℗"/><glyph d="M776 621h-596l41 227h596z" glyph-name="minus" horiz-adv-x="739" unicode="−"/><glyph d="M776 659q-16 -14 -39 -26l19 -633h-230l-14 575h-102l-117 -661v-6q0 -23 22 -23l-20 -112q-115 0 -168 31.5t-53 119.5q0 18 8 76l252 1434h340q147 0 223 -86q63 -72 64 -185q0 -41 -9 -82l-26 -153q-29 -173 -150 -269zM727 1081q4 25 4 43q0 41 -16 60q-23 25 -80 24 h-115l-71 -407h114q55 0 88 24q37 29 49 103z" glyph-name="uni2C64" horiz-adv-x="813" unicode="Ɽ"/><glyph d="M1443 1400q34 -34 34 -83q0 -16 -2 -25h-113v6q0 10 -7 16.5t-18 6.5h-86l-395 -1321h-125l-76 713l-323 -713h-125l76 1434h227l-47 -715l217 487h129l45 -487l203 715h299q53 0 87 -34z" glyph-name="uni2C72" horiz-adv-x="1206" unicode="Ⱳ"/><glyph d="M1443 1400q34 -34 34 -83q0 -16 -2 -25h-113v6q0 10 -7 16.5t-18 6.5h-86l-395 -1321h-125l-76 713l-323 -713h-125l76 1434h227l-47 -715l217 487h129l45 -487l203 715h299q53 0 87 -34z" glyph-name="uni2C73" horiz-adv-x="1206" unicode="ⱳ"/><glyph d="M1118 1434l-252 -1434h-225l111 623h-230l-110 -623h-226l234 1321h-86q-12 0 -21.5 -8t-13.5 -21h-113q10 59 59.5 100.5t106.5 41.5h312l-103 -586h230l102 586h225z" glyph-name="uniA7AA" horiz-adv-x="948" unicode="Ɦ"/><glyph glyph-name="uniAB53" horiz-adv-x="1228" unicode="ꭓ"/><glyph glyph-name="glyph558" horiz-adv-x="0"/><glyph d="M307 0h-225l252 1434h225zM395.5 1537q-24.5 30 -18.5 71q8 43 43 72.5t76 29.5q37 0 60.5 -23.5t23.5 -60.5q0 -12 -2 -18q-6 -41 -41 -71t-76 -30t-65.5 30z" glyph-name="glyph559" horiz-adv-x="389"/><glyph d="M1171 180l-118 -211q-88 35 -189 142q-156 -129 -323 -129q-92 0 -171 29.5t-132 82.5q-57 63 -76 146q-12 49 -12 100q0 47 8 88q18 104 91 195.5t193 162.5q-51 141 -51 246q0 33 6 64l4 20q14 88 66 160q39 59 111 106q104 66 223 66q43 0 96 -13.5t100 -52.5 q55 -43 76 -106q14 -41 14 -90q0 -33 -6 -70l-2 -18q-16 -96 -70.5 -180t-142.5 -150q-53 -41 -118 -72q37 -70 59 -106l92 -139q18 20 92 116l56 70l174 -113q-23 -31 -76 -99.5t-113 -135.5q86 -91 139 -109zM606 451q-43 70 -82 143q-125 -76 -141 -166q-4 -18 -4 -53 q0 -72 39 -111q57 -57 164 -57q72 0 147 59q-70 95 -123 185zM834 1198q-27 25 -74 25q-45 0 -84 -25q-37 -20 -49 -82l-4 -20q-2 -6 -2 -25q0 -72 41 -182h2q10 4 36.5 18.5t53.5 34.5q82 63 100 156l2 18q2 10 2 27q1 39 -24 55z" glyph-name="glyph560" horiz-adv-x="1220"/><glyph d="M971 1163q0 -41 -8 -82l-129 -737q-14 -80 -52 -149q-41 -72 -100 -115q-104 -80 -250 -80h-340l107 602h-82l39 225h82l106 607h340q147 0 223 -86q64 -72 64 -185zM737 1081q4 25 4 43q0 41 -16 60q-23 25 -80 24h-115l-67 -381h102l-39 -225h-102l-68 -377h115 q63 0 90 23q33 25 47 96z" glyph-name="glyph561" horiz-adv-x="835"/><glyph d="M520 1208l-63 -360h256l-39 -225h-256l-111 -623q-23 -135 -90 -181t-205 -46l21 112q12 0 21 8.5t14 20.5l266 1520h594l-39 -226h-369z" glyph-name="glyph562" horiz-adv-x="704"/><glyph d="M776 659q-16 -14 -39 -26l19 -633h-230l-14 575h-102l-117 -661v-6q0 -23 22 -23l-20 -112q-115 0 -168 31.5t-53 119.5q0 18 8 76l252 1434h340q147 0 223 -86q63 -72 64 -185q0 -41 -9 -82l-26 -153q-29 -173 -150 -269zM727 1081q4 25 4 43q0 41 -16 60q-23 25 -80 24 h-115l-71 -407h114q55 0 88 24q37 29 49 103z" glyph-name="glyph563" horiz-adv-x="813"/><glyph glyph-name="glyph564" horiz-adv-x="1228"/></font>
</defs>
</svg>
