<?xml version="1.0" standalone="no"?>
<!DOCTYPE svg PUBLIC "-//W3C//DTD SVG 1.1//EN" "http://www.w3.org/Graphics/SVG/1.1/DTD/svg11.dtd">
<svg xmlns="http://www.w3.org/2000/svg"><metadata>This SVG WebFont was generated by YouWorkForThem.
EllenLuff.2018</metadata><defs><font horiz-adv-x="835" id="ywftsvg"><font-face ascent="1638" bbox="-641 -358 1624 1989" cap-height="1434" descent="-410" font-family="" font-stretch="normal" font-weight="600" panose-1="0 0 7 0 0 0 0 0 0 0" underline-position="0" underline-thickness="0" unicode-range="U+0020-AB53" units-per-em="2048" x-height="1434"/><missing-glyph horiz-adv-x="1228"/><glyph glyph-name=".notdef" horiz-adv-x="1228"/><glyph glyph-name="glyph1" horiz-adv-x="0"/><glyph glyph-name="glyph2" horiz-adv-x="1228"/><glyph glyph-name="space" horiz-adv-x="317" unicode=" "/><glyph d="M240 324h-134l-20 391v719h174v-719zM237.5 157.5q26.5 -26.5 26.5 -65.5t-26.5 -65.5t-63.5 -26.5q-39 0 -65.5 26.5t-26.5 65.5t26.5 65.5t65.5 26.5q37 0 63.5 -26.5z" glyph-name="exclam" horiz-adv-x="346" unicode="!"/><glyph d="M215 1030h-84l-49 404h184zM463 1030h-84l-49 404h184z" glyph-name="quotedbl" horiz-adv-x="595" unicode="&quot;"/><glyph d="M1184 866h-195l-92 -303h233v-174h-286l-121 -389h-182l121 389h-256l-121 -389h-183l121 389h-141v174h197l92 303h-234v174h287l123 394h182l-123 -394h256l123 394h180l-121 -394h140v-174zM715 563l94 303h-256l-92 -303h254z" glyph-name="numbersign" horiz-adv-x="1265" unicode="#"/><glyph d="M545 979v117q0 84 -36 124t-114 40t-114.5 -40t-36.5 -124v-25q0 -96 51 -153q23 -27 55.5 -47.5t85.5 -51.5q61 -33 105.5 -63.5t81.5 -71.5q96 -109 96 -274v-72q0 -166 -98 -258q-53 -51 -140 -70v-69h-174v69q-86 18 -139 70q-98 92 -98 258v172h174v-172 q0 -84 36.5 -124t114.5 -40t114 40t36 124v72q0 59 -15.5 96t-37.5 63q-23 27 -56 47.5t-86 51.5q-72 41 -110.5 67.5t-73.5 65.5q-96 109 -96 270v25q0 170 98 258q57 55 139 69v70h174v-70q82 -14 140 -69q98 -88 98 -258v-117h-174z" glyph-name="dollar" horiz-adv-x="788" unicode="$"/><glyph d="M990 25.5q-42 -19.5 -87 -19.5q-96 0 -162 76q-59 72 -59 166v18q0 96 59 168q70 76 162 76q45 0 87 -20.5t73 -55.5q59 -70 59 -168v-18q0 -96 -59 -166q-31 -37 -73 -56.5zM934 315.5q-14 20.5 -31 20.5q-18 0 -32.5 -20.5t-14.5 -49.5v-18q0 -29 14.5 -48.5 t32.5 -19.5q16 0 30.5 19.5t14.5 48.5v18q0 29 -14 49.5zM378 953.5q-42 -19.5 -87 -19.5q-47 0 -88 19.5t-72 56.5q-61 72 -61 166v20q0 94 61 166q31 35 73 55.5t87 20.5t87 -20.5t73 -55.5q59 -70 59 -166v-20q0 -96 -59 -166q-31 -37 -73 -56.5zM321.5 1244.5 q-14.5 19.5 -30.5 19.5q-18 0 -32.5 -19.5t-14.5 -48.5v-20q0 -29 14 -48.5t33 -19.5q16 0 30.5 19.5t14.5 48.5v20q0 29 -14.5 48.5zM727 1434h182l-442 -1434h-182z" glyph-name="percent" horiz-adv-x="1191" unicode="%"/><glyph d="M1141 164l-60 -164q-94 33 -225 147q-68 -66 -150.5 -99.5t-173.5 -33.5q-92 0 -172.5 30t-142.5 83q-68 61 -100 141q-35 82 -35 181q0 102 46 188t134 149q16 12 49 33q-102 190 -102 309v37q0 164 121 254q51 37 106.5 50.5t95.5 13.5q41 0 96.5 -13.5t106.5 -50.5 q123 -90 123 -254v-16q0 -188 -127 -309q-68 -63 -164 -101h-2q43 -66 109 -147q68 -86 160 -182q68 115 129 237l155 -78q-18 -37 -63 -122t-94 -160q117 -100 180 -123zM539 483q-68 84 -138 187q-12 -6 -36 -23q-109 -82 -109 -198q0 -123 78 -191q37 -33 88 -51.5 t110 -18.5q113 0 197 78q-112 115 -190 217zM633 1278q-41 31 -101 31q-59 0 -100 -31q-49 -37 -49 -113v-37q0 -78 80 -225q4 -8 8 -12l18 6q8 0 13 4h2q180 70 180 248v16q0 76 -51 113z" glyph-name="ampersand" horiz-adv-x="1222" unicode="&amp;"/><glyph d="M215 1030h-84l-49 404h184z" glyph-name="quotesingle" horiz-adv-x="348" unicode="'"/><glyph d="M408 156v-174q-137 0 -228 79q-96 90 -96 256v797q0 166 96 258q90 80 228 80v-174q-78 0 -114 -40t-36 -124v-797q0 -84 36 -122.5t114 -38.5z" glyph-name="parenleft" horiz-adv-x="468" unicode="("/><glyph d="M289 61q-90 -80 -228 -79v174q78 0 114 38.5t36 122.5v797q0 84 -36 124t-114 40v174q137 0 228 -80q96 -92 96 -258v-797q0 -166 -96 -256z" glyph-name="parenright" horiz-adv-x="468" unicode=")"/><glyph d="M686 1223l-213 -111l213 -113l-102 -141l-172 168l-41 -235l-166 53l104 215l-237 -35v174l237 -33l-104 215l166 54l41 -236l172 166z" glyph-name="asterisk" horiz-adv-x="757" unicode="*"/><glyph d="M754 821v-174h-254v-254h-174v254h-254v174h254v254h174v-254h254z" glyph-name="plus" horiz-adv-x="825" unicode="+"/><glyph d="M209 153.5q27 -26.5 27 -65.5q0 -35 -27 -84q-18 -33 -50 -82t-42 -63h-54l37 96q0 4 3 12t3 15q0 16 -14 28q-41 31 -41 78q0 39 26.5 65.5t65.5 26.5t66 -26.5z" glyph-name="comma" horiz-adv-x="286" unicode=","/><glyph d="M412 647h-392v174h392v-174z" glyph-name="hyphen" horiz-adv-x="432" unicode="-"/><glyph d="M77.5 151.5q26.5 26.5 65.5 26.5t66 -26.5t27 -63.5q0 -39 -27 -65.5t-66 -26.5t-65.5 26.5t-26.5 65.5q0 37 26.5 63.5z" glyph-name="period" horiz-adv-x="286" unicode="."/><glyph d="M193 0h-183l445 1434h180z" glyph-name="slash" horiz-adv-x="645" unicode="/"/><glyph d="M521.5 2.5q-58.5 -20.5 -126.5 -20.5q-141 0 -227 79q-98 90 -98 258v795q0 166 98 258q86 80 227 80q68 0 126.5 -20.5t99.5 -59.5q98 -92 98 -258v-795q0 -168 -98 -258q-41 -38 -99.5 -58.5zM509 1238q-36 40 -114 40t-114.5 -40t-36.5 -124v-795q0 -84 36.5 -123.5 t114.5 -39.5t114 40t36 123v795q0 84 -36 124z" glyph-name="zero" horiz-adv-x="788" unicode="0"/><glyph d="M57 1206l301 228h99v-1434h-174v1159l-226 -170v217z" glyph-name="one" horiz-adv-x="538" unicode="1"/><glyph d="M625 1372q98 -88 98 -256v-65q0 -164 -96 -277q-37 -41 -76 -67.5t-111 -67.5q-53 -31 -85.5 -51.5t-55.5 -44.5q-51 -59 -51 -156v-213h475v-174h-649v387q0 162 96 270q35 41 77 70t107 64q102 57 142 100q53 57 53 160v65q0 84 -36 123t-114 39t-114.5 -39t-36.5 -123 v-201h-174v201q0 168 98 256q84 80 227 80q144 0 226 -80z" glyph-name="two" horiz-adv-x="792" unicode="2"/><glyph d="M530 762q51 -37 82 -70q98 -111 99 -274v-99q0 -168 -99 -258q-86 -80 -227 -79q-68 0 -126 20.5t-99 58.5q-98 90 -99 258v95h175v-95q0 -84 35.5 -123.5t113.5 -39.5t115 40t37 123v99q0 72 -27 119t-78 81.5t-160 92.5v104q104 51 157.5 88t80.5 82t27 115v14 q0 84 -37 124t-115 40t-113.5 -40t-35.5 -124v-39h-175v39q0 166 99 258q41 39 99 59.5t126 20.5q141 0 227 -80q98 -92 99 -258v-14q0 -160 -99 -269q-31 -32 -82 -69z" glyph-name="three" horiz-adv-x="770" unicode="3"/><glyph d="M547 1434h172v-1028h92v-175h-92v-231h-174v231h-492v93zM545 406v667l-264 -667h264z" glyph-name="four" horiz-adv-x="868" unicode="4"/><glyph d="M618 61q-90 -80 -227 -79q-137 0 -227 79q-96 90 -96 258v191h174v-191q0 -84 35.5 -123.5t113.5 -39.5t114 40t36 123v107q0 100 -52 162q-23 27 -54.5 46t-88.5 52q-68 39 -107.5 66.5t-74.5 66.5q-96 104 -96 271v344h647v-174h-473v-170q0 -96 51 -154 q23 -27 53.5 -46.5t85.5 -51.5q68 -39 110 -67t76 -69q96 -109 97 -276v-107q-1 -168 -97 -258z" glyph-name="five" horiz-adv-x="774" unicode="5"/><glyph d="M545 997v117q0 84 -37 124t-115 40t-113.5 -40t-35.5 -124v-311q63 31 149 31q137 0 228 -80q98 -88 98 -258v-177q0 -168 -98 -258q-90 -80 -228 -79q-137 0 -227 79q-96 90 -96 258v177v618q0 166 96 258q90 80 227 80t228 -80q98 -92 98 -258v-117h-174zM279.5 619.5 q-35.5 -39.5 -35.5 -123.5v-177q0 -84 35.5 -123.5t113.5 -39.5t115 40t37 123v177q0 84 -37 123.5t-115 39.5t-113.5 -39.5z" glyph-name="six" horiz-adv-x="780" unicode="6"/><glyph d="M698 1434l-368 -1434h-180l325 1260h-438v174h661z" glyph-name="seven" horiz-adv-x="724" unicode="7"/><glyph d="M610 61q-90 -80 -227 -79q-137 0 -227 79q-98 90 -99 258v95q0 168 99 274q18 23 63 60q-39 29 -65 57q-96 109 -97 270v39q0 166 99 258q90 80 227 80t227 -80q96 -92 97 -258v-39q0 -166 -97 -270q-23 -27 -63 -57q37 -31 63 -60q96 -104 97 -274v-95q-1 -168 -97 -258 zM479 573q-27 31 -96 74q-66 -37 -98 -74q-23 -27 -38.5 -63.5t-15.5 -95.5v-95q0 -84 37 -123.5t115 -39.5t113.5 40t35.5 123v95q0 59 -15 95.5t-38 63.5zM496.5 1238q-35.5 40 -113.5 40t-115 -40t-37 -124v-39q0 -96 52 -153q31 -35 100 -74q70 41 98 74q51 57 51 153 v39q0 84 -35.5 124z" glyph-name="eight" horiz-adv-x="763" unicode="8"/><glyph d="M709 319q0 -168 -99 -258q-86 -80 -227 -79q-139 0 -225 79q-98 90 -99 258v115h174v-115q0 -84 36 -123.5t114 -39.5t115 40t37 123v308q-70 -29 -152 -29q-141 0 -225 80q-98 90 -99 256v180q0 166 99 258q86 80 225 80q141 0 227 -80q98 -92 99 -258v-795zM498 811 q37 39 37 123v180q0 84 -37 124t-115 40t-114 -40t-36 -124v-180q0 -84 36 -123t114 -39t115 39z" glyph-name="nine" horiz-adv-x="776" unicode="9"/><glyph d="M77.5 956.5q26.5 26.5 65.5 26.5t66 -26.5t27 -65.5t-27 -65.5t-66 -26.5t-65.5 26.5t-26.5 65.5t26.5 65.5zM77.5 153.5q26.5 26.5 65.5 26.5t66 -26.5t27 -65.5t-27 -65.5t-66 -26.5t-65.5 26.5t-26.5 65.5t26.5 65.5z" glyph-name="colon" horiz-adv-x="286" unicode=":"/><glyph d="M209 153.5q27 -26.5 27 -65.5q0 -35 -27 -84q-18 -33 -50 -82t-42 -63h-54l37 96q0 4 3 12t3 15q0 16 -14 28q-41 31 -41 78q0 39 26.5 65.5t65.5 26.5t66 -26.5zM77.5 956.5q26.5 26.5 65.5 26.5t66 -26.5t27 -65.5t-27 -65.5t-66 -26.5t-65.5 26.5t-26.5 65.5 t26.5 65.5z" glyph-name="semicolon" horiz-adv-x="286" unicode=";"/><glyph d="M295 733l387 -172v-190l-621 276v174l621 277v-193z" glyph-name="less" horiz-adv-x="763" unicode="&lt;"/><glyph d="M756 823h-684v174h684v-174zM756 471h-684v174h684v-174z" glyph-name="equal" horiz-adv-x="827" unicode="="/><glyph d="M469 733l-387 172v193l620 -277v-174l-620 -276v190z" glyph-name="greater" horiz-adv-x="763" unicode=">"/><glyph d="M331.5 157.5q26.5 -26.5 26.5 -65.5t-26.5 -65.5t-65.5 -26.5q-37 0 -63.5 26.5t-26.5 65.5t26.5 65.5t63.5 26.5q39 0 65.5 -26.5zM180 293v100q0 141 57.5 244.5t165.5 165.5q80 45 106 106.5t26 165.5v39q0 84 -36 124t-114 40t-113.5 -40t-35.5 -124v-131h-175v131 q0 166 97 256q88 82 227 82t227 -82q96 -90 97 -256v-39q0 -147 -51.5 -251.5t-168.5 -172.5q-76 -43 -105.5 -104.5t-29.5 -153.5v-100h-174z" glyph-name="question" horiz-adv-x="770" unicode="?"/><glyph d="M965 205q72 0 135 22q-41 -70 -99 -121q-72 -63 -170 -97t-213 -34q-236 0 -385 131q-80 70 -127 183q-45 117 -45 254v344q0 137 45 256q47 109 127 180q150 131 385 131q115 0 213.5 -34t169.5 -97q86 -76 127 -180q45 -111 46 -256v-199q0 -156 -62 -242 q-31 -45 -77 -69.5t-99 -24.5q-94 0 -162 74q-61 -49 -156 -49q-111 0 -178 67q-76 74 -75 205v131q0 133 75 207q70 66 178 66q49 0 80 -11v27h174v-381q0 -100 29 -141q14 -20 35 -21q20 0 35 21q29 41 28 141v199q0 227 -115.5 310t-265.5 83t-266 -83t-116 -310v-344 q0 -227 116.5 -310t265.5 -83q150 0 244 67q46 -12 103 -12zM696 649v131q0 61 -22 82q-16 16 -56 17q-41 0 -57 -17q-23 -23 -22 -82v-131q0 -59 22 -82q16 -16 57 -16q39 0 56 16q22 21 22 82z" glyph-name="at" horiz-adv-x="1234" unicode="@"/><glyph d="M623 0l-56 297h-299l-57 -297h-178l301 1434h168l299 -1434h-178zM301 471h234l-117 616z" glyph-name="A" unicode="A"/><glyph d="M408 0h-326v1432h293q143 0 225 -76q98 -86 98 -254v-137q0 -76 -21.5 -133.5t-72.5 -100.5q127 -84 127 -266v-135q0 -168 -98 -254q-88 -76 -225 -76zM408 629h-152v-455h152q74 0 110 31q39 39 39 125v135q0 84 -35.5 124t-113.5 40zM256 1257v-454h119q78 0 113.5 39 t35.5 123v137q0 84 -34.5 119.5t-114.5 35.5h-119z" glyph-name="B" horiz-adv-x="790" unicode="B"/><glyph d="M621 61q-90 -80 -228 -79q-139 0 -225 79q-98 90 -98 258v797q0 166 98 258q86 80 225 80q137 0 228 -80q98 -92 98 -258v-131h-174v131q0 84 -37 124t-115 40t-113.5 -40t-35.5 -124v-797q0 -84 35.5 -123.5t113.5 -39.5t115 40t37 123v193h174v-193q0 -168 -98 -258z " glyph-name="C" horiz-adv-x="780" unicode="C"/><glyph d="M633 74q-86 -74 -225 -74h-326v1434h326q139 0 225 -80q98 -92 98 -258v-766q0 -166 -98 -256zM256 1260v-1086h152q76 0 108 31q41 37 41 125v766q0 84 -36 124t-113 40h-152z" glyph-name="D" horiz-adv-x="800" unicode="D"/><glyph d="M647 1260h-391v-439h272v-174h-272v-473h391v-174h-565v1434h565v-174z" glyph-name="E" horiz-adv-x="710" unicode="E"/><glyph d="M647 1257h-391v-434h272v-174h-272v-649h-174v1432h565v-175z" glyph-name="F" horiz-adv-x="681" unicode="F"/><glyph d="M623 61q-90 -80 -228 -79q-137 0 -227 79q-98 90 -98 258v795q0 166 98 258q90 80 227 80t228 -80q96 -92 96 -258v-131h-174v131q0 84 -36 124t-114 40t-114.5 -40t-36.5 -124v-795q0 -84 36.5 -123.5t114.5 -39.5t114 40t36 123v310h-150v174h324v-484q0 -168 -96 -258 z" glyph-name="G" horiz-adv-x="788" unicode="G"/><glyph d="M555 1434h174v-1434h-174v647h-299v-647h-174v1434h174v-613h299v613z" glyph-name="H" horiz-adv-x="811" unicode="H"/><glyph d="M256 0h-174v1434h174v-1434z" glyph-name="I" horiz-adv-x="337" unicode="I"/><glyph d="M588 61q-90 -80 -228 -79q-137 0 -227 79q-96 88 -96 258v185h174v-185q0 -84 36 -123.5t113 -39.5q78 0 114 40t36 123v1115h174v-1115q0 -168 -96 -258z" glyph-name="J" horiz-adv-x="761" unicode="J"/><glyph d="M256 334v-334h-174v1434h174v-691l322 691h192l-317 -680l317 -754h-188l-230 541z" glyph-name="K" horiz-adv-x="802" unicode="K"/><glyph d="M647 0h-565v1434h174v-1260h391v-174z" glyph-name="L" horiz-adv-x="679" unicode="L"/><glyph d="M541 485l358 949h98v-1434h-174v809l-235 -633h-96l-236 633v-809h-174v1434h98z" glyph-name="M" horiz-adv-x="1079" unicode="M"/><glyph d="M254 864v-864h-174v1434h96l399 -867v867h175v-1434h-97z" glyph-name="N" horiz-adv-x="829" unicode="N"/><glyph d="M621 61q-90 -80 -228 -79q-137 0 -227 79q-96 90 -96 258v795q0 166 96 258q90 80 227 80t228 -80q96 -92 96 -258v-795q0 -168 -96 -258zM507 1238q-36 40 -114 40t-113.5 -40t-35.5 -124v-795q0 -84 35.5 -123.5t113.5 -39.5t114 40t36 123v795q0 84 -36 124z" glyph-name="O" horiz-adv-x="786" unicode="O"/><glyph d="M256 598v-598h-174v1434h324q137 0 227 -80q96 -90 96 -258v-162q0 -166 -96 -256q-86 -80 -227 -80h-150zM256 1260v-488h150q78 0 113.5 39t35.5 123v162q0 84 -36 124t-113 40h-150z" glyph-name="P" horiz-adv-x="776" unicode="P"/><glyph d="M764 -96v-174h-27q-137 0 -221 77q-47 45 -70 107q-12 33 -18 72q-10 -2 -33 -2q-137 0 -227 79q-98 92 -98 259v792q0 170 98 258q90 80 227 80t228 -80q96 -90 96 -258v-792q0 -166 -96 -259l-27 -20q2 -72 39 -109q37 -31 102 -30h27zM280.5 198q36.5 -40 114.5 -40 t114 40t36 124v792q0 84 -36 124t-114 40t-114.5 -40t-36.5 -124v-792q0 -84 36.5 -124z" glyph-name="Q" horiz-adv-x="786" unicode="Q"/><glyph d="M731 0h-180l-164 598h-131v-598h-174v1434h324q141 0 227 -80q98 -88 98 -258v-162q0 -166 -98 -256q-31 -31 -74 -49zM557 1096q0 84 -37 124t-114 40h-150v-488h150q78 0 114.5 39t36.5 123v162z" glyph-name="R" horiz-adv-x="788" unicode="R"/><glyph d="M606 61q-86 -80 -227 -79q-68 0 -126 20.5t-99 58.5q-98 90 -99 258v195h174v-195q0 -84 36 -123.5t114 -39.5t114.5 40t36.5 123v95q0 59 -15 96t-38 63q-23 27 -55.5 47.5t-85.5 51.5q-66 37 -108 65.5t-76 67.5q-96 104 -97 270v39q0 166 99 258q41 39 99 59.5 t126 20.5q141 0 227 -80q98 -92 99 -258v-131h-175v131q0 84 -36.5 124t-114.5 40t-114 -40t-36 -124v-39q0 -96 52 -153q23 -27 53.5 -46.5t85.5 -52.5q61 -33 105 -63.5t81 -71.5q98 -106 99 -274v-95q-1 -168 -99 -258z" glyph-name="S" horiz-adv-x="759" unicode="S"/><glyph d="M682 1432v-175h-242v-1257h-174v1257h-239v175h655z" glyph-name="T" horiz-adv-x="706" unicode="T"/><glyph d="M529.5 2.5q-58.5 -20.5 -126.5 -20.5q-141 0 -227 79q-98 90 -98 258v1115h174v-1115q0 -84 37 -123.5t114 -39.5q78 0 114 40t36 123v1115h174v-1115q0 -168 -98 -258q-41 -38 -99.5 -58.5z" glyph-name="U" horiz-adv-x="804" unicode="U"/><glyph d="M618 1434h179l-299 -1434h-170l-299 1434h178l207 -1088z" glyph-name="V" horiz-adv-x="825" unicode="V"/><glyph d="M512 780l-227 -780h-72l-176 1434h176l94 -809l168 583h76l168 -583l94 809h174l-174 -1434h-74z" glyph-name="W" horiz-adv-x="1024" unicode="W"/><glyph d="M522 715l277 -715h-187l-194 500l-195 -500h-186l278 715l-276 719h186l193 -504l194 504h187z" glyph-name="X" unicode="X"/><glyph d="M391 807l193 627h180l-287 -936v-498h-174v498l-287 936h183z" glyph-name="Y" horiz-adv-x="778" unicode="Y"/><glyph d="M713 0h-656l414 1260h-416v174h656l-414 -1260h416v-174z" glyph-name="Z" horiz-adv-x="768" unicode="Z"/><glyph d="M354 0h-323v1434h323v-174h-149v-1086h149v-174z" glyph-name="bracketleft" horiz-adv-x="415" unicode="["/><glyph d="M453 0l-443 1434h180l445 -1434h-182z" glyph-name="backslash" horiz-adv-x="645" unicode="\"/><glyph d="M57 0v174h150v1086h-150v174h324v-1434h-324z" glyph-name="bracketright" horiz-adv-x="462" unicode="]"/><glyph d="M406 1202l-175 -387h-190l276 619h175l276 -619h-190z" glyph-name="asciicircum" horiz-adv-x="808" unicode="^"/><glyph d="M967 0h-947v174h947v-174z" glyph-name="underscore" horiz-adv-x="987" unicode="_"/><glyph d="M197 1724l137 -215h-103l-211 215h177z" glyph-name="grave" horiz-adv-x="354" unicode="`"/><glyph d="M623 0l-56 297h-299l-57 -297h-178l301 1434h168l299 -1434h-178zM301 471h234l-117 616z" glyph-name="a" unicode="a"/><glyph d="M408 0h-326v1432h293q143 0 225 -76q98 -86 98 -254v-137q0 -76 -21.5 -133.5t-72.5 -100.5q127 -84 127 -266v-135q0 -168 -98 -254q-88 -76 -225 -76zM408 629h-152v-455h152q74 0 110 31q39 39 39 125v135q0 84 -35.5 124t-113.5 40zM256 1257v-454h119q78 0 113.5 39 t35.5 123v137q0 84 -34.5 119.5t-114.5 35.5h-119z" glyph-name="b" horiz-adv-x="790" unicode="b"/><glyph d="M621 61q-90 -80 -228 -79q-139 0 -225 79q-98 90 -98 258v797q0 166 98 258q86 80 225 80q137 0 228 -80q98 -92 98 -258v-131h-174v131q0 84 -37 124t-115 40t-113.5 -40t-35.5 -124v-797q0 -84 35.5 -123.5t113.5 -39.5t115 40t37 123v193h174v-193q0 -168 -98 -258z " glyph-name="c" horiz-adv-x="780" unicode="c"/><glyph d="M633 74q-86 -74 -225 -74h-326v1434h326q139 0 225 -80q98 -92 98 -258v-766q0 -166 -98 -256zM256 1260v-1086h152q76 0 108 31q41 37 41 125v766q0 84 -36 124t-113 40h-152z" glyph-name="d" horiz-adv-x="800" unicode="d"/><glyph d="M647 1260h-391v-439h272v-174h-272v-473h391v-174h-565v1434h565v-174z" glyph-name="e" horiz-adv-x="710" unicode="e"/><glyph d="M647 1257h-391v-434h272v-174h-272v-649h-174v1432h565v-175z" glyph-name="f" horiz-adv-x="681" unicode="f"/><glyph d="M623 61q-90 -80 -228 -79q-137 0 -227 79q-98 90 -98 258v795q0 166 98 258q90 80 227 80t228 -80q96 -92 96 -258v-131h-174v131q0 84 -36 124t-114 40t-114.5 -40t-36.5 -124v-795q0 -84 36.5 -123.5t114.5 -39.5t114 40t36 123v310h-150v174h324v-484q0 -168 -96 -258 z" glyph-name="g" horiz-adv-x="788" unicode="g"/><glyph d="M555 1434h174v-1434h-174v647h-299v-647h-174v1434h174v-613h299v613z" glyph-name="h" horiz-adv-x="811" unicode="h"/><glyph d="M256 0h-174v1434h174v-1434z" glyph-name="i" horiz-adv-x="337" unicode="i"/><glyph d="M588 61q-90 -80 -228 -79q-137 0 -227 79q-96 88 -96 258v185h174v-185q0 -84 36 -123.5t113 -39.5q78 0 114 40t36 123v1115h174v-1115q0 -168 -96 -258z" glyph-name="j" horiz-adv-x="761" unicode="j"/><glyph d="M256 334v-334h-174v1434h174v-691l322 691h192l-317 -680l317 -754h-188l-230 541z" glyph-name="k" horiz-adv-x="802" unicode="k"/><glyph d="M647 0h-565v1432h174v-1258h391v-174z" glyph-name="l" horiz-adv-x="679" unicode="l"/><glyph d="M541 485l358 949h98v-1434h-174v809l-235 -633h-96l-236 633v-809h-174v1434h98z" glyph-name="m" horiz-adv-x="1079" unicode="m"/><glyph d="M254 864v-864h-174v1434h96l399 -867v867h175v-1434h-97z" glyph-name="n" horiz-adv-x="829" unicode="n"/><glyph d="M621 61q-90 -80 -228 -79q-137 0 -227 79q-96 90 -96 258v795q0 166 96 258q90 80 227 80t228 -80q96 -92 96 -258v-795q0 -168 -96 -258zM507 1238q-36 40 -114 40t-113.5 -40t-35.5 -124v-795q0 -84 35.5 -123.5t113.5 -39.5t114 40t36 123v795q0 84 -36 124z" glyph-name="o" horiz-adv-x="786" unicode="o"/><glyph d="M256 598v-598h-174v1434h324q137 0 227 -80q96 -90 96 -258v-162q0 -166 -96 -256q-86 -80 -227 -80h-150zM256 1260v-488h150q78 0 113.5 39t35.5 123v162q0 84 -36 124t-113 40h-150z" glyph-name="p" horiz-adv-x="776" unicode="p"/><glyph d="M764 -96v-174h-27q-137 0 -221 77q-47 45 -70 107q-12 33 -18 72q-10 -2 -33 -2q-137 0 -227 79q-98 92 -98 259v792q0 170 98 258q90 80 227 80t228 -80q96 -90 96 -258v-792q0 -166 -96 -259l-27 -20q2 -72 39 -109q37 -31 102 -30h27zM280.5 198q36.5 -40 114.5 -40 t114 40t36 124v792q0 84 -36 124t-114 40t-114.5 -40t-36.5 -124v-792q0 -84 36.5 -124z" glyph-name="q" horiz-adv-x="786" unicode="q"/><glyph d="M729 0h-182l-195 598h-96v-598h-174v1434h324q137 0 227 -80q96 -90 96 -258v-162q0 -166 -96 -256q-43 -39 -105 -62zM519 811q36 39 36 123v162q0 84 -36 124t-113 40h-150v-488h150q77 0 113 39z" glyph-name="r" horiz-adv-x="786" unicode="r"/><glyph d="M606 61q-86 -80 -227 -79q-68 0 -126 20.5t-99 58.5q-98 90 -99 258v195h174v-195q0 -84 36 -123.5t114 -39.5t114.5 40t36.5 123v95q0 59 -15 96t-38 63q-23 27 -55.5 47.5t-85.5 51.5q-66 37 -108 65.5t-76 67.5q-96 104 -97 270v39q0 166 99 258q41 39 99 59.5 t126 20.5q141 0 227 -80q98 -92 99 -258v-131h-175v131q0 84 -36.5 124t-114.5 40t-114 -40t-36 -124v-39q0 -96 52 -153q23 -27 53.5 -46.5t85.5 -52.5q61 -33 105 -63.5t81 -71.5q98 -106 99 -274v-95q-1 -168 -99 -258z" glyph-name="s" horiz-adv-x="759" unicode="s"/><glyph d="M682 1432v-175h-242v-1257h-174v1257h-239v175h655z" glyph-name="t" horiz-adv-x="706" unicode="t"/><glyph d="M529.5 2.5q-58.5 -20.5 -126.5 -20.5q-141 0 -227 79q-98 90 -98 258v1115h174v-1115q0 -84 37 -123.5t114 -39.5q78 0 114 40t36 123v1115h174v-1115q0 -168 -98 -258q-41 -38 -99.5 -58.5z" glyph-name="u" horiz-adv-x="804" unicode="u"/><glyph d="M618 1434h179l-299 -1434h-170l-299 1434h178l207 -1088z" glyph-name="v" horiz-adv-x="825" unicode="v"/><glyph d="M512 780l-227 -780h-72l-176 1434h176l94 -809l168 583h76l168 -583l94 809h174l-174 -1434h-74z" glyph-name="w" horiz-adv-x="1024" unicode="w"/><glyph d="M522 715l277 -715h-187l-194 500l-195 -500h-186l278 715l-276 719h186l193 -504l194 504h187z" glyph-name="x" unicode="x"/><glyph d="M391 807l193 627h180l-287 -936v-498h-174v498l-287 936h183z" glyph-name="y" horiz-adv-x="778" unicode="y"/><glyph d="M713 0h-656l414 1260h-416v174h656l-414 -1260h416v-174z" glyph-name="z" horiz-adv-x="768" unicode="z"/><glyph d="M561 156v-174q-137 0 -227 79q-96 90 -96 256v115q0 129 -115 213l-94 70l94 69q115 86 115 215v113q0 166 96 258q90 80 227 80v-174q-78 0 -113.5 -40t-35.5 -124v-113q0 -123 -64 -223q-12 -20 -45 -61q31 -33 45 -62q63 -96 64 -221v-115q0 -84 35.5 -122.5 t113.5 -38.5z" glyph-name="braceleft" horiz-adv-x="622" unicode="{"/><glyph d="M584 -123h-174v1679h174v-1679z" glyph-name="bar" horiz-adv-x="993" unicode="|"/><glyph d="M289 61q-90 -80 -228 -79v174q78 0 114 38.5t36 122.5v115q0 125 63 221q14 29 45 62q-33 41 -45 61q-63 100 -63 223v115q0 84 -36 124t-114 40v174q137 0 228 -80q96 -92 96 -258v-115q0 -129 115 -215l94 -69l-94 -70q-115 -84 -115 -213v-115q0 -166 -96 -256z" glyph-name="braceright" horiz-adv-x="616" unicode="}"/><glyph glyph-name="uni00A0" horiz-adv-x="1228" unicode=" "/><glyph d="M240 1110l20 -391v-719h-174v719l20 391h134zM237.5 1407q26.5 -27 26.5 -66t-26.5 -65.5t-63.5 -26.5q-39 0 -65.5 27t-26.5 65q0 39 26.5 66t65.5 27q37 0 63.5 -27z" glyph-name="exclamdown" horiz-adv-x="346" unicode="¡"/><glyph d="M559 981v115q0 84 -36 124t-113 40q-78 0 -115 -40t-37 -124v-758q0 -84 37 -124t115 -40t113.5 40t35.5 124v174h174v-174q0 -166 -98 -258q-53 -51 -139 -70v-69h-174v69q-86 18 -140 70q-98 92 -98 258v758q0 170 98 258q57 55 140 69v70h174v-70q82 -14 139 -69 q98 -88 98 -258v-115h-174z" glyph-name="cent" horiz-adv-x="808" unicode="¢"/><glyph d="M846 174v-174h-783v174h37q12 0 46 6t67 25q98 53 98 190v35v168h-209v174h127q0 4 -2 6q-35 98 -34 221v113q0 166 98 258q86 80 225 80q137 0 227 -80q98 -92 99 -258v-39h-174v39q0 84 -37 124t-115 40t-113.5 -40t-35.5 -124v-113q0 -78 17 -136t42 -91h328v-174 h-269v-168v-35q0 -131 -57 -221h418z" glyph-name="sterling" horiz-adv-x="913" unicode="£"/><glyph d="M713 629q0 -150 -80 -240l74 -162l-158 -71l-68 145q-47 -10 -92 -10t-92 10l-66 -145l-159 71l73 162q-80 86 -79 240v178q0 152 79 240l-73 159l159 72l66 -145q37 10 92 10t92 -10l68 145l158 -72l-74 -159q80 -88 80 -240v-178zM275.5 505q35.5 -40 113.5 -40t114 40 t36 124v178q0 84 -36 123t-114 39t-113.5 -39t-35.5 -123v-178q0 -84 35.5 -124z" glyph-name="currency" horiz-adv-x="778" unicode="¤"/><glyph d="M764 1432l-275 -893h211v-86h-223v-88h223v-86h-223v-279h-174v279h-223v86h223v88h-223v86h209l-275 893h183l192 -625l193 625h182z" glyph-name="yen" horiz-adv-x="778" unicode="¥"/><glyph d="M410 -123v684h174v-684h-174zM584 1556v-647h-174v647h174z" glyph-name="brokenbar" horiz-adv-x="993" unicode="¦"/><glyph d="M632 -55q-93 -82 -233 -82q-137 0 -230 77.5t-93 219.5v61h174v-61q0 -61 48 -92t101 -31t102.5 30.5t49.5 92.5q0 51 -21.5 80.5t-54.5 47t-94 40.5q-68 25 -113 45t-90 57q-55 45 -78.5 100.5t-25.5 126.5q0 78 32.5 139.5t92.5 100.5q-72 49 -99.5 107.5t-27.5 150.5 q0 133 93 215t232 82q137 0 230.5 -78t93.5 -219v-61h-174v61q0 61 -48 92t-102 31q-53 0 -102 -30.5t-49 -92.5q0 -51 20.5 -81t53 -46t94.5 -39q68 -25 116 -46t93 -60q100 -80 100 -226q0 -78 -33 -139t-92 -100q72 -49 99.5 -107.5t27.5 -150.5q0 -133 -93 -215z M297 748.5q-49 -31.5 -49 -93.5q0 -61 47 -90.5t102 -29.5q53 0 102.5 31.5t49.5 92.5q0 59 -45 90t-105 31q-53 0 -102 -31.5z" glyph-name="section" horiz-adv-x="798" unicode="§"/><glyph d="M178.5 1667q26.5 -27 26.5 -65q0 -39 -26.5 -66t-65.5 -27t-66 27t-27 66t27 65.5t66 26.5t65.5 -27zM473 1667q27 -27 27 -65q0 -39 -27 -66t-65 -27q-39 0 -66 27t-27 66t27 65.5t66 26.5q38 0 65 -27z" glyph-name="dieresis" horiz-adv-x="520" unicode="¨"/><glyph d="M134 1094q93 168 256 262t364 94t363.5 -94t255.5 -262t93 -377t-93 -377t-256 -262t-363 -94q-201 0 -364 94t-256 262t-93 377t93 377zM262 414q74 -135 203 -211t289 -76t288.5 76t202.5 211t74 303t-74 303t-203 211t-288 76q-160 0 -289 -76t-203 -211t-74 -303 t74 -303zM981 319q-90 -80 -227 -79q-139 0 -226 79q-98 90 -98 259v278q0 166 98 258q86 80 226 80q137 0 227 -80q98 -92 98 -258v-61h-174v61q0 84 -37 124t-114 40q-78 0 -114 -40t-36 -124v-278q0 -84 36 -124t114 -40t114.5 40t36.5 124v61h174v-61q0 -169 -98 -259z " glyph-name="copyright" horiz-adv-x="1507" unicode="©"/><glyph d="M530 733l183 -547h-185l-180 547l180 547h185zM215 733l182 -547h-184l-180 547l180 547h184z" glyph-name="guillemotleft" horiz-adv-x="745" unicode="«"/><glyph d="M134 1094q93 168 256 262t364 94t363.5 -94t255.5 -262t93 -377t-93 -377t-256 -262t-363 -94q-201 0 -364 94t-256 262t-93 377t93 377zM262 414q74 -135 203 -211t289 -76t288.5 76t202.5 211t74 303t-74 303t-203 211t-288 76q-160 0 -289 -76t-203 -211t-74 -303 t74 -303zM1087 301h-184l-192 281h-97v-281h-174v832h324q102 0 180 -40t119 -104.5t41 -136.5q0 -80 -52.5 -148.5t-154.5 -103.5zM879 785.5q41 29.5 41 70.5t-41 71.5t-115 30.5h-150v-202h150q74 0 115 29.5z" glyph-name="registered" horiz-adv-x="1507" unicode="®"/><glyph d="M643 1509h-623v93h623v-93z" glyph-name="macron" horiz-adv-x="663" unicode="¯"/><glyph d="M158 1724h176l-211 -215h-103z" glyph-name="acute" horiz-adv-x="354" unicode="´"/><glyph d="M678 1434v-1434h-174v1260h-39v-1260h-174l-4 602q-92 14 -160 76q-98 90 -98 256v162q0 170 98 258q86 80 227 80h324z" glyph-name="paragraph" horiz-adv-x="759" unicode="¶"/><glyph d="M108.5 798.5q26.5 26.5 65.5 26.5t65.5 -26.5t26.5 -65.5t-26.5 -65.5t-65.5 -26.5t-65.5 26.5t-26.5 65.5t26.5 65.5z" glyph-name="periodcentered" horiz-adv-x="348" unicode="·"/><glyph d="M241 -236.5q-38 -37.5 -91 -37.5t-91.5 37.5t-38.5 91.5h89q0 -16 12 -28.5t29 -12.5q16 0 28 12t12 29q0 14 -6 23t-24 22l-4 4q-51 39 -52 96v10h89v-10q0 -14 14 -25l6 -4q29 -23 47.5 -47t18.5 -69q0 -54 -38 -91.5z" glyph-name="cedilla" horiz-adv-x="299" unicode="¸"/><glyph d="M215 733l-182 547h184l180 -547l-180 -547h-184zM530 733l-182 547h184l181 -547l-181 -547h-184z" glyph-name="guillemotright" horiz-adv-x="745" unicode="»"/><glyph d="M438.5 1276q-26.5 27 -26.5 65q0 39 26.5 66t65.5 27q37 0 63.5 -27t26.5 -66t-26.5 -65.5t-63.5 -26.5q-39 0 -65.5 27zM590 1141v-101q0 -141 -57.5 -244.5t-165.5 -164.5q-80 -45 -105.5 -106.5t-25.5 -166.5v-39q0 -84 35.5 -123.5t113.5 -39.5t114 40t36 123v132 h174v-132q0 -166 -97 -256q-88 -82 -227 -81q-139 0 -227 81q-96 90 -97 256v39q0 147 51.5 252t168.5 172q76 43 105.5 104.5t29.5 153.5v101h174z" glyph-name="questiondown" horiz-adv-x="770" unicode="¿"/><glyph d="M623 0l-56 297h-299l-57 -297h-178l301 1434h168l299 -1434h-178zM301 471h234l-117 616zM332 1724l137 -215h-102l-211 215h176z" glyph-name="Agrave" unicode="À"/><glyph d="M623 0l-56 297h-299l-57 -297h-178l301 1434h168l299 -1434h-178zM301 471h234l-117 616zM504 1724h176l-211 -215h-102z" glyph-name="Aacute" unicode="Á"/><glyph d="M623 0l-56 297h-299l-57 -297h-178l301 1434h168l299 -1434h-178zM301 471h234l-117 616zM643 1509h-102l-123 117l-123 -117h-105l140 211h174z" glyph-name="Acircumflex" unicode="Â"/><glyph d="M623 0l-56 297h-299l-57 -297h-178l301 1434h168l299 -1434h-178zM301 471h234l-117 616zM299 1569q-37 -6 -86 -64l-68 56q80 98 166 98q55 0 125 -41q47 -29 84 -23q39 8 82 62l70 -53q-76 -98 -166 -99q-55 0 -115 37q-55 33 -92 27z" glyph-name="Atilde" unicode="Ã"/><glyph d="M623 0l-56 297h-299l-57 -297h-178l301 1434h168l299 -1434h-178zM301 471h234l-117 616zM335.5 1667q26.5 -27 26.5 -65q0 -39 -26.5 -66t-65.5 -27t-65.5 27t-26.5 66t26.5 65.5t65.5 26.5t65.5 -27zM630.5 1667q26.5 -27 26.5 -65q0 -39 -26.5 -66t-65.5 -27t-65.5 27 t-26.5 66t26.5 65.5t65.5 26.5t65.5 -27z" glyph-name="Adieresis" unicode="Ä"/><glyph d="M623 0l-56 297h-299l-57 -297h-178l301 1434h168l299 -1434h-178zM301 471h234l-117 616zM509 1553.5q-38 -37.5 -91 -37.5t-92 37.5t-39 91.5q0 53 39 92t92 39t91 -39t38 -92q0 -54 -38 -91.5zM446.5 1675.5q-12.5 12.5 -28.5 12.5t-29.5 -12.5t-13.5 -30.5 q0 -16 13 -28.5t30 -12.5q16 0 28.5 12t12.5 29q0 18 -12.5 30.5z" glyph-name="Aring" unicode="Å"/><glyph d="M1100 1260h-389v-439h270v-174h-270v-473h389v-174h-563v258h-258l-66 -258h-180l364 1434h703v-174zM324 432h213v828z" glyph-name="AE" horiz-adv-x="1163" unicode="Æ"/><glyph d="M545 983v131q0 84 -36 124t-114 40t-114.5 -40t-36.5 -124v-792q0 -84 36.5 -124t114.5 -40t114 40t36 124v192h174v-192q0 -166 -98 -259q-72 -66 -181 -77q4 -8 11 -13q4 0 4 -4q29 -20 48 -45.5t19 -68.5q0 -53 -38 -92t-91 -39t-92 38.5t-39 92.5h88 q0 -16 12.5 -29.5t30.5 -13.5q16 0 28.5 13t12.5 30q0 14 -6 23t-25 22q-2 0 -6 4q-45 35 -47 82q-111 12 -182 77q-98 92 -98 259v792q0 170 98 258q86 80 227 80q68 0 126.5 -20.5t99.5 -59.5q98 -88 98 -258v-131h-174z" glyph-name="Ccedilla" horiz-adv-x="780" unicode="Ç"/><glyph d="M647 1260h-391v-439h272v-174h-272v-473h391v-174h-565v1434h565v-174zM279 1724l137 -215h-103l-211 215h177z" glyph-name="Egrave" horiz-adv-x="710" unicode="È"/><glyph d="M647 1260h-391v-439h272v-174h-272v-473h391v-174h-565v1434h565v-174zM451 1724h176l-211 -215h-103z" glyph-name="Eacute" horiz-adv-x="710" unicode="É"/><glyph d="M647 1260h-391v-439h272v-174h-272v-473h391v-174h-565v1434h565v-174zM590 1509h-103l-122 117l-123 -117h-105l139 211h175z" glyph-name="Ecircumflex" horiz-adv-x="710" unicode="Ê"/><glyph d="M647 1260h-391v-439h272v-174h-272v-473h391v-174h-565v1434h565v-174zM282.5 1667q26.5 -27 26.5 -65q0 -39 -26.5 -66t-65.5 -27t-65.5 27t-26.5 66t26.5 65.5t65.5 26.5t65.5 -27zM577.5 1667q26.5 -27 26.5 -65q0 -39 -26.5 -66t-65.5 -27t-65.5 27t-26.5 66 t26.5 65.5t65.5 26.5t65.5 -27z" glyph-name="Edieresis" horiz-adv-x="710" unicode="Ë"/><glyph d="M256 0h-174v1434h174v-1434zM117 1509h104h-104zM82 1722l139 -213h-104l-209 213h174z" glyph-name="Igrave" horiz-adv-x="337" unicode="Ì"/><glyph d="M256 0h-174v1434h174v-1434zM256 1722h174l-209 -213h-104z" glyph-name="Iacute" horiz-adv-x="337" unicode="Í"/><glyph d="M256 0h-174v1434h174v-1434zM395 1509h-102l-123 117l-123 -117h-104l139 211h174z" glyph-name="Icircumflex" horiz-adv-x="337" unicode="Î"/><glyph d="M256 0h-174v1434h174v-1434zM86 1667q27 -27 27 -65q0 -39 -27 -66t-66 -27t-65.5 27t-26.5 66t27 65.5t65 26.5q39 0 66 -27zM381 1667q27 -27 27 -65q0 -39 -27 -66t-66 -27t-65.5 27t-26.5 66t26.5 65.5t65.5 26.5t66 -27z" glyph-name="Idieresis" horiz-adv-x="335" unicode="Ï"/><glyph d="M739 1096v-766q0 -166 -98 -256q-86 -74 -225 -74h-324v629h-82v174h82v631h324q137 0 227 -80q96 -92 96 -258zM565 1096q0 84 -35.5 124t-113.5 40h-150v-457h123v-174h-123v-455h150q74 0 110 31q39 37 39 125v766z" glyph-name="Eth" horiz-adv-x="808" unicode="Ð"/><glyph d="M254 864v-864h-174v1434h96l399 -867v867h175v-1434h-97zM305 1569q-37 -6 -86 -64l-67 56q80 98 165 98q55 0 125 -41q47 -29 84 -23q39 8 82 62l70 -53q-76 -98 -166 -99q-57 0 -115 37q-55 33 -92 27z" glyph-name="Ntilde" horiz-adv-x="829" unicode="Ñ"/><glyph d="M621 61q-90 -80 -228 -79q-137 0 -227 79q-96 90 -96 258v795q0 166 96 258q90 80 227 80t228 -80q96 -92 96 -258v-795q0 -168 -96 -258zM507 1238q-36 40 -114 40t-113.5 -40t-35.5 -124v-795q0 -84 35.5 -123.5t113.5 -39.5t114 40t36 123v795q0 84 -36 124zM305 1722 l139 -213h-104l-209 213h174z" glyph-name="Ograve" horiz-adv-x="786" unicode="Ò"/><glyph d="M621 61q-90 -80 -228 -79q-137 0 -227 79q-96 90 -96 258v795q0 166 96 258q90 80 227 80t228 -80q96 -92 96 -258v-795q0 -168 -96 -258zM507 1238q-36 40 -114 40t-113.5 -40t-35.5 -124v-795q0 -84 35.5 -123.5t113.5 -39.5t114 40t36 123v795q0 84 -36 124zM479 1722 h174l-209 -213h-104z" glyph-name="Oacute" horiz-adv-x="786" unicode="Ó"/><glyph d="M621 61q-90 -80 -228 -79q-137 0 -227 79q-96 90 -96 258v795q0 166 96 258q90 80 227 80t228 -80q96 -92 96 -258v-795q0 -168 -96 -258zM507 1238q-36 40 -114 40t-113.5 -40t-35.5 -124v-795q0 -84 35.5 -123.5t113.5 -39.5t114 40t36 123v795q0 84 -36 124zM618 1509 h-102l-123 117l-123 -117h-104l139 211h174z" glyph-name="Ocircumflex" horiz-adv-x="786" unicode="Ô"/><glyph d="M621 61q-90 -80 -228 -79q-137 0 -227 79q-96 90 -96 258v795q0 166 96 258q90 80 227 80t228 -80q96 -92 96 -258v-795q0 -168 -96 -258zM507 1238q-36 40 -114 40t-113.5 -40t-35.5 -124v-795q0 -84 35.5 -123.5t113.5 -39.5t114 40t36 123v795q0 84 -36 124zM285 1569 q-37 -6 -86 -64l-68 56q80 98 166 98q55 0 125 -41q47 -29 84 -23q39 8 82 62l69 -53q-76 -98 -165 -99q-55 0 -115 37q-55 33 -92 27z" glyph-name="Otilde" horiz-adv-x="786" unicode="Õ"/><glyph d="M621 61q-90 -80 -228 -79q-137 0 -227 79q-96 90 -96 258v795q0 166 96 258q90 80 227 80t228 -80q96 -92 96 -258v-795q0 -168 -96 -258zM507 1238q-36 40 -114 40t-113.5 -40t-35.5 -124v-795q0 -84 35.5 -123.5t113.5 -39.5t114 40t36 123v795q0 84 -36 124z M311.5 1667q26.5 -27 26.5 -65q0 -39 -26.5 -66t-65.5 -27t-65.5 27t-26.5 66t26.5 65.5t65.5 26.5t65.5 -27zM606.5 1667q26.5 -27 26.5 -65q0 -39 -26.5 -66t-65.5 -27t-65.5 27t-26.5 66t26.5 65.5t65.5 26.5t65.5 -27z" glyph-name="Odieresis" horiz-adv-x="786" unicode="Ö"/><glyph d="M676 913l-178 -180l178 -178l-123 -123l-178 178l-180 -178l-123 123l178 178l-178 180l123 123l180 -180l178 180z" glyph-name="multiply" horiz-adv-x="747" unicode="×"/><glyph d="M688 1272q31 -68 31 -160v-795q0 -166 -98 -256q-82 -80 -226 -79q-143 0 -227 79q-6 2 -8 9l-49 -109l-82 37l71 160q-31 68 -30 159v795q0 168 98 256q82 80 227 80q143 0 226 -80q6 -2 8 -8l49 108l82 -36zM244 485l297 674q-8 59 -44 87t-102 28q-78 0 -114.5 -39 t-36.5 -123v-627zM545 944l-297 -674q8 -59 45 -86.5t102 -27.5q78 0 114 38.5t36 122.5v627z" glyph-name="Oslash" horiz-adv-x="788" unicode="Ø"/><glyph d="M529.5 2.5q-58.5 -20.5 -126.5 -20.5q-141 0 -227 79q-98 90 -98 258v1115h174v-1115q0 -84 37 -123.5t114 -39.5q78 0 114 40t36 123v1115h174v-1115q0 -168 -98 -258q-41 -38 -99.5 -58.5zM350 1509h105h-105zM315 1722l140 -213h-105l-209 213h174z" glyph-name="Ugrave" horiz-adv-x="804" unicode="Ù"/><glyph d="M529.5 2.5q-58.5 -20.5 -126.5 -20.5q-141 0 -227 79q-98 90 -98 258v1115h174v-1115q0 -84 37 -123.5t114 -39.5q78 0 114 40t36 123v1115h174v-1115q0 -168 -98 -258q-41 -38 -99.5 -58.5zM489 1722h175l-209 -213h-105z" glyph-name="Uacute" horiz-adv-x="804" unicode="Ú"/><glyph d="M529.5 2.5q-58.5 -20.5 -126.5 -20.5q-141 0 -227 79q-98 90 -98 258v1115h174v-1115q0 -84 37 -123.5t114 -39.5q78 0 114 40t36 123v1115h174v-1115q0 -168 -98 -258q-41 -38 -99.5 -58.5zM629 1509h-103l-123 117l-122 -117h-105l139 211h174z" glyph-name="Ucircumflex" horiz-adv-x="804" unicode="Û"/><glyph d="M529.5 2.5q-58.5 -20.5 -126.5 -20.5q-141 0 -227 79q-98 90 -98 258v1115h174v-1115q0 -84 37 -123.5t114 -39.5q78 0 114 40t36 123v1115h174v-1115q0 -168 -98 -258q-41 -38 -99.5 -58.5zM319.5 1667q26.5 -27 26.5 -65q0 -39 -26.5 -66t-65.5 -27t-65.5 27t-26.5 66 t26.5 65.5t65.5 26.5t65.5 -27zM614.5 1667q26.5 -27 26.5 -65q0 -39 -26.5 -66t-65.5 -27t-65.5 27t-26.5 66t26.5 65.5t65.5 26.5t65.5 -27z" glyph-name="Udieresis" horiz-adv-x="804" unicode="Ü"/><glyph d="M391 807l193 627h180l-287 -936v-498h-174v498l-287 936h183zM477 1722h174l-209 -213h-104z" glyph-name="Yacute" horiz-adv-x="778" unicode="Ý"/><glyph d="M256 1141v-488h150q78 0 113.5 39t35.5 123v162q0 84 -36 124t-113 40h-150zM256 479v-479h-174v1434h174v-119h150q137 0 227 -80q96 -90 96 -258v-162q0 -166 -96 -256q-86 -80 -227 -80h-150z" glyph-name="Thorn" horiz-adv-x="776" unicode="Þ"/><glyph d="M731 465v-135q0 -168 -98 -254q-88 -76 -225 -76h-70v174h70q74 0 110 31q39 39 39 125v135q0 84 -36 124t-113 40h-70v174h37q78 0 113.5 39t35.5 123v139q0 80 -31.5 116.5t-101.5 39.5q-72 0 -103.5 -38t-31.5 -118v-930v-174h-174v1104q0 168 98 254q39 35 93.5 55.5 t117.5 20.5t116.5 -20.5t92.5 -55.5q98 -86 98 -254v-139q0 -76 -21.5 -133.5t-72.5 -100.5q127 -84 127 -266z" glyph-name="germandbls" horiz-adv-x="790" unicode="ß"/><glyph d="M623 0l-56 297h-299l-57 -297h-178l301 1434h168l299 -1434h-178zM301 471h234l-117 616zM332 1724l137 -215h-102l-211 215h176z" glyph-name="agrave" unicode="à"/><glyph d="M623 0l-56 297h-299l-57 -297h-178l301 1434h168l299 -1434h-178zM301 471h234l-117 616zM504 1724h176l-211 -215h-102z" glyph-name="aacute" unicode="á"/><glyph d="M623 0l-56 297h-299l-57 -297h-178l301 1434h168l299 -1434h-178zM301 471h234l-117 616zM643 1509h-102l-123 117l-123 -117h-105l140 211h174z" glyph-name="acircumflex" unicode="â"/><glyph d="M623 0l-56 297h-299l-57 -297h-178l301 1434h168l299 -1434h-178zM301 471h234l-117 616zM299 1569q-37 -6 -86 -64l-68 56q80 98 166 98q55 0 125 -41q47 -29 84 -23q39 8 82 62l70 -53q-76 -98 -166 -99q-55 0 -115 37q-55 33 -92 27z" glyph-name="atilde" unicode="ã"/><glyph d="M623 0l-56 297h-299l-57 -297h-178l301 1434h168l299 -1434h-178zM301 471h234l-117 616zM335.5 1667q26.5 -27 26.5 -65q0 -39 -26.5 -66t-65.5 -27t-65.5 27t-26.5 66t26.5 65.5t65.5 26.5t65.5 -27zM630.5 1667q26.5 -27 26.5 -65q0 -39 -26.5 -66t-65.5 -27t-65.5 27 t-26.5 66t26.5 65.5t65.5 26.5t65.5 -27z" glyph-name="adieresis" unicode="ä"/><glyph d="M623 0l-56 297h-299l-57 -297h-178l301 1434h168l299 -1434h-178zM301 471h234l-117 616zM509 1553.5q-38 -37.5 -91 -37.5t-92 37.5t-39 91.5q0 53 39 92t92 39t91 -39t38 -92q0 -54 -38 -91.5zM446.5 1675.5q-12.5 12.5 -28.5 12.5t-29.5 -12.5t-13.5 -30.5 q0 -16 13 -28.5t30 -12.5q16 0 28.5 12t12.5 29q0 18 -12.5 30.5z" glyph-name="aring" unicode="å"/><glyph d="M1100 1260h-389v-439h270v-174h-270v-473h389v-174h-563v258h-258l-66 -258h-180l364 1434h703v-174zM324 432h213v828z" glyph-name="ae" horiz-adv-x="1163" unicode="æ"/><glyph d="M545 983v131q0 84 -36 124t-114 40t-114.5 -40t-36.5 -124v-792q0 -84 36.5 -124t114.5 -40t114 40t36 124v192h174v-192q0 -166 -98 -259q-72 -66 -181 -77q4 -8 11 -13q4 0 4 -4q29 -20 48 -45.5t19 -68.5q0 -53 -38 -92t-91 -39t-92 38.5t-39 92.5h88 q0 -16 12.5 -29.5t30.5 -13.5q16 0 28.5 13t12.5 30q0 14 -6 23t-25 22q-2 0 -6 4q-45 35 -47 82q-111 12 -182 77q-98 92 -98 259v792q0 170 98 258q86 80 227 80q68 0 126.5 -20.5t99.5 -59.5q98 -88 98 -258v-131h-174z" glyph-name="ccedilla" horiz-adv-x="780" unicode="ç"/><glyph d="M647 1260h-391v-439h272v-174h-272v-473h391v-174h-565v1434h565v-174zM279 1724l137 -215h-103l-211 215h177z" glyph-name="egrave" horiz-adv-x="710" unicode="è"/><glyph d="M647 1260h-391v-439h272v-174h-272v-473h391v-174h-565v1434h565v-174zM451 1724h176l-211 -215h-103z" glyph-name="eacute" horiz-adv-x="710" unicode="é"/><glyph d="M647 1260h-391v-439h272v-174h-272v-473h391v-174h-565v1434h565v-174zM590 1509h-103l-122 117l-123 -117h-105l139 211h175z" glyph-name="ecircumflex" horiz-adv-x="710" unicode="ê"/><glyph d="M647 1260h-391v-439h272v-174h-272v-473h391v-174h-565v1434h565v-174zM282.5 1667q26.5 -27 26.5 -65q0 -39 -26.5 -66t-65.5 -27t-65.5 27t-26.5 66t26.5 65.5t65.5 26.5t65.5 -27zM577.5 1667q26.5 -27 26.5 -65q0 -39 -26.5 -66t-65.5 -27t-65.5 27t-26.5 66 t26.5 65.5t65.5 26.5t65.5 -27z" glyph-name="edieresis" horiz-adv-x="710" unicode="ë"/><glyph d="M256 0h-174v1434h174v-1434zM117 1509h104h-104zM82 1722l139 -213h-104l-209 213h174z" glyph-name="igrave" horiz-adv-x="337" unicode="ì"/><glyph d="M256 0h-174v1434h174v-1434zM256 1722h174l-209 -213h-104z" glyph-name="iacute" horiz-adv-x="337" unicode="í"/><glyph d="M256 0h-174v1434h174v-1434zM395 1509h-102l-123 117l-123 -117h-104l139 211h174z" glyph-name="icircumflex" horiz-adv-x="337" unicode="î"/><glyph d="M256 0h-174v1434h174v-1434zM86 1667q27 -27 27 -65q0 -39 -27 -66t-66 -27t-65.5 27t-26.5 66t27 65.5t65 26.5q39 0 66 -27zM381 1667q27 -27 27 -65q0 -39 -27 -66t-66 -27t-65.5 27t-26.5 66t26.5 65.5t65.5 26.5t66 -27z" glyph-name="idieresis" horiz-adv-x="335" unicode="ï"/><glyph d="M739 1096v-766q0 -166 -98 -256q-86 -74 -225 -74h-324v629h-82v174h82v631h324q137 0 227 -80q96 -92 96 -258zM565 1096q0 84 -35.5 124t-113.5 40h-150v-457h123v-174h-123v-455h150q74 0 110 31q39 37 39 125v766z" glyph-name="eth" horiz-adv-x="808" unicode="ð"/><glyph d="M254 864v-864h-174v1434h96l399 -867v867h175v-1434h-97zM305 1569q-37 -6 -86 -64l-67 56q80 98 165 98q55 0 125 -41q47 -29 84 -23q39 8 82 62l70 -53q-76 -98 -166 -99q-57 0 -115 37q-55 33 -92 27z" glyph-name="ntilde" horiz-adv-x="829" unicode="ñ"/><glyph d="M621 61q-90 -80 -228 -79q-137 0 -227 79q-96 90 -96 258v795q0 166 96 258q90 80 227 80t228 -80q96 -92 96 -258v-795q0 -168 -96 -258zM507 1238q-36 40 -114 40t-113.5 -40t-35.5 -124v-795q0 -84 35.5 -123.5t113.5 -39.5t114 40t36 123v795q0 84 -36 124zM305 1722 l139 -213h-104l-209 213h174z" glyph-name="ograve" horiz-adv-x="786" unicode="ò"/><glyph d="M621 61q-90 -80 -228 -79q-137 0 -227 79q-96 90 -96 258v795q0 166 96 258q90 80 227 80t228 -80q96 -92 96 -258v-795q0 -168 -96 -258zM507 1238q-36 40 -114 40t-113.5 -40t-35.5 -124v-795q0 -84 35.5 -123.5t113.5 -39.5t114 40t36 123v795q0 84 -36 124zM479 1722 h174l-209 -213h-104z" glyph-name="oacute" horiz-adv-x="786" unicode="ó"/><glyph d="M621 61q-90 -80 -228 -79q-137 0 -227 79q-96 90 -96 258v795q0 166 96 258q90 80 227 80t228 -80q96 -92 96 -258v-795q0 -168 -96 -258zM507 1238q-36 40 -114 40t-113.5 -40t-35.5 -124v-795q0 -84 35.5 -123.5t113.5 -39.5t114 40t36 123v795q0 84 -36 124zM618 1509 h-102l-123 117l-123 -117h-104l139 211h174z" glyph-name="ocircumflex" horiz-adv-x="786" unicode="ô"/><glyph d="M621 61q-90 -80 -228 -79q-137 0 -227 79q-96 90 -96 258v795q0 166 96 258q90 80 227 80t228 -80q96 -92 96 -258v-795q0 -168 -96 -258zM507 1238q-36 40 -114 40t-113.5 -40t-35.5 -124v-795q0 -84 35.5 -123.5t113.5 -39.5t114 40t36 123v795q0 84 -36 124zM285 1569 q-37 -6 -86 -64l-68 56q80 98 166 98q55 0 125 -41q47 -29 84 -23q39 8 82 62l69 -53q-76 -98 -165 -99q-55 0 -115 37q-55 33 -92 27z" glyph-name="otilde" horiz-adv-x="786" unicode="õ"/><glyph d="M621 61q-90 -80 -228 -79q-137 0 -227 79q-96 90 -96 258v795q0 166 96 258q90 80 227 80t228 -80q96 -92 96 -258v-795q0 -168 -96 -258zM507 1238q-36 40 -114 40t-113.5 -40t-35.5 -124v-795q0 -84 35.5 -123.5t113.5 -39.5t114 40t36 123v795q0 84 -36 124z M311.5 1667q26.5 -27 26.5 -65q0 -39 -26.5 -66t-65.5 -27t-65.5 27t-26.5 66t26.5 65.5t65.5 26.5t65.5 -27zM606.5 1667q26.5 -27 26.5 -65q0 -39 -26.5 -66t-65.5 -27t-65.5 27t-26.5 66t26.5 65.5t65.5 26.5t65.5 -27z" glyph-name="odieresis" horiz-adv-x="786" unicode="ö"/><glyph d="M690 655h-618v174h618v-174zM443.5 1075.5q27.5 -26.5 27.5 -65.5t-27.5 -65.5t-64.5 -26.5q-39 0 -65.5 26.5t-26.5 65.5t26.5 65.5t65.5 26.5q37 0 64.5 -26.5zM443.5 540.5q27.5 -26.5 27.5 -65.5t-27.5 -65.5t-64.5 -26.5q-39 0 -65.5 26.5t-26.5 65.5t26.5 65.5 t65.5 26.5q37 0 64.5 -26.5z" glyph-name="divide" horiz-adv-x="761" unicode="÷"/><glyph d="M688 1272q31 -68 31 -160v-795q0 -166 -98 -256q-82 -80 -226 -79q-143 0 -227 79q-6 2 -8 9l-49 -109l-82 37l71 160q-31 68 -30 159v795q0 168 98 256q82 80 227 80q143 0 226 -80q6 -2 8 -8l49 108l82 -36zM244 485l297 674q-8 59 -44 87t-102 28q-78 0 -114.5 -39 t-36.5 -123v-627zM545 944l-297 -674q8 -59 45 -86.5t102 -27.5q78 0 114 38.5t36 122.5v627z" glyph-name="oslash" horiz-adv-x="788" unicode="ø"/><glyph d="M529.5 2.5q-58.5 -20.5 -126.5 -20.5q-141 0 -227 79q-98 90 -98 258v1115h174v-1115q0 -84 37 -123.5t114 -39.5q78 0 114 40t36 123v1115h174v-1115q0 -168 -98 -258q-41 -38 -99.5 -58.5zM350 1509h105h-105zM315 1722l140 -213h-105l-209 213h174z" glyph-name="ugrave" horiz-adv-x="804" unicode="ù"/><glyph d="M529.5 2.5q-58.5 -20.5 -126.5 -20.5q-141 0 -227 79q-98 90 -98 258v1115h174v-1115q0 -84 37 -123.5t114 -39.5q78 0 114 40t36 123v1115h174v-1115q0 -168 -98 -258q-41 -38 -99.5 -58.5zM489 1722h175l-209 -213h-105z" glyph-name="uacute" horiz-adv-x="804" unicode="ú"/><glyph d="M529.5 2.5q-58.5 -20.5 -126.5 -20.5q-141 0 -227 79q-98 90 -98 258v1115h174v-1115q0 -84 37 -123.5t114 -39.5q78 0 114 40t36 123v1115h174v-1115q0 -168 -98 -258q-41 -38 -99.5 -58.5zM629 1509h-103l-123 117l-122 -117h-105l139 211h174z" glyph-name="ucircumflex" horiz-adv-x="804" unicode="û"/><glyph d="M529.5 2.5q-58.5 -20.5 -126.5 -20.5q-141 0 -227 79q-98 90 -98 258v1115h174v-1115q0 -84 37 -123.5t114 -39.5q78 0 114 40t36 123v1115h174v-1115q0 -168 -98 -258q-41 -38 -99.5 -58.5zM319.5 1667q26.5 -27 26.5 -65q0 -39 -26.5 -66t-65.5 -27t-65.5 27t-26.5 66 t26.5 65.5t65.5 26.5t65.5 -27zM614.5 1667q26.5 -27 26.5 -65q0 -39 -26.5 -66t-65.5 -27t-65.5 27t-26.5 66t26.5 65.5t65.5 26.5t65.5 -27z" glyph-name="udieresis" horiz-adv-x="804" unicode="ü"/><glyph d="M391 807l193 627h180l-287 -936v-498h-174v498l-287 936h183zM477 1722h174l-209 -213h-104z" glyph-name="yacute" horiz-adv-x="778" unicode="ý"/><glyph d="M256 1141v-488h150q78 0 113.5 39t35.5 123v162q0 84 -36 124t-113 40h-150zM256 479v-479h-174v1434h174v-119h150q137 0 227 -80q96 -90 96 -258v-162q0 -166 -96 -256q-86 -80 -227 -80h-150z" glyph-name="thorn" horiz-adv-x="776" unicode="þ"/><glyph d="M309.5 1667q26.5 -27 26.5 -65q0 -39 -26.5 -66t-65.5 -27t-65.5 27t-26.5 66t26.5 65.5t65.5 26.5t65.5 -27zM604.5 1667q26.5 -27 26.5 -65q0 -39 -26.5 -66t-65.5 -27t-66 27t-27 66t27 65.5t66 26.5t65.5 -27zM391 807l193 627h180l-287 -936v-498h-174v498l-287 936 h183z" glyph-name="ydieresis" horiz-adv-x="778" unicode="ÿ"/><glyph d="M623 0l-56 297h-299l-57 -297h-178l301 1434h168l299 -1434h-178zM301 471h234l-117 616zM727 1509h-621v93h621v-93z" glyph-name="Amacron" unicode="Ā"/><glyph d="M623 0l-56 297h-299l-57 -297h-178l301 1434h168l299 -1434h-178zM301 471h234l-117 616zM727 1509h-621v93h621v-93z" glyph-name="amacron" unicode="ā"/><glyph d="M623 0l-56 297h-299l-57 -297h-178l301 1434h168l299 -1434h-178zM301 471h234l-117 616zM625 1716q0 -84 -60.5 -145.5t-146.5 -61.5t-146.5 61.5t-60.5 145.5h88q0 -49 35 -84t84 -35t84 35t35 84h88z" glyph-name="Abreve" unicode="Ă"/><glyph d="M623 0l-56 297h-299l-57 -297h-178l301 1434h168l299 -1434h-178zM301 471h234l-117 616zM625 1716q0 -84 -60.5 -145.5t-146.5 -61.5t-146.5 61.5t-60.5 145.5h88q0 -49 35 -84t84 -35t84 35t35 84h88z" glyph-name="abreve" unicode="ă"/><glyph d="M768 -166h18v-92h-38q-78 0 -127.5 25.5t-49.5 82.5q0 78 138 150h-86l-56 297h-299l-57 -297h-178l301 1434h168l299 -1434q-47 -16 -81 -52t-34 -69q0 -45 82 -45zM301 471h234l-117 616z" glyph-name="Aogonek" unicode="Ą"/><glyph d="M768 -166h18v-92h-38q-78 0 -127.5 25.5t-49.5 82.5q0 78 138 150h-86l-56 297h-299l-57 -297h-178l301 1434h168l299 -1434q-47 -16 -81 -52t-34 -69q0 -45 82 -45zM301 471h234l-117 616z" glyph-name="aogonek" unicode="ą"/><glyph d="M621 61q-90 -80 -228 -79q-139 0 -225 79q-98 90 -98 258v797q0 166 98 258q86 80 225 80q137 0 228 -80q98 -92 98 -258v-131h-174v131q0 84 -37 124t-115 40t-113.5 -40t-35.5 -124v-797q0 -84 35.5 -123.5t113.5 -39.5t115 40t37 123v193h174v-193q0 -168 -98 -258z M477 1724h176l-211 -215h-102z" glyph-name="Cacute" horiz-adv-x="780" unicode="Ć"/><glyph d="M621 61q-90 -80 -228 -79q-139 0 -225 79q-98 90 -98 258v797q0 166 98 258q86 80 225 80q137 0 228 -80q98 -92 98 -258v-131h-174v131q0 84 -37 124t-115 40t-113.5 -40t-35.5 -124v-797q0 -84 35.5 -123.5t113.5 -39.5t115 40t37 123v193h174v-193q0 -168 -98 -258z M477 1724h176l-211 -215h-102z" glyph-name="cacute" horiz-adv-x="780" unicode="ć"/><glyph d="M621 61q-90 -80 -228 -79q-139 0 -225 79q-98 90 -98 258v797q0 166 98 258q86 80 225 80q137 0 228 -80q98 -92 98 -258v-131h-174v131q0 84 -37 124t-115 40t-113.5 -40t-35.5 -124v-797q0 -84 35.5 -123.5t113.5 -39.5t115 40t37 123v193h174v-193q0 -168 -98 -258z M458.5 1667q26.5 -27 26.5 -65q0 -39 -26.5 -66t-65.5 -27t-65.5 27t-26.5 66t26.5 65.5t65.5 26.5t65.5 -27z" glyph-name="Cdotaccent" horiz-adv-x="780" unicode="Ċ"/><glyph d="M621 61q-90 -80 -228 -79q-139 0 -225 79q-98 90 -98 258v797q0 166 98 258q86 80 225 80q137 0 228 -80q98 -92 98 -258v-131h-174v131q0 84 -37 124t-115 40t-113.5 -40t-35.5 -124v-797q0 -84 35.5 -123.5t113.5 -39.5t115 40t37 123v193h174v-193q0 -168 -98 -258z M458.5 1667q26.5 -27 26.5 -65q0 -39 -26.5 -66t-65.5 -27t-65.5 27t-26.5 66t26.5 65.5t65.5 26.5t65.5 -27z" glyph-name="cdotaccent" horiz-adv-x="780" unicode="ċ"/><glyph d="M621 61q-90 -80 -228 -79q-139 0 -225 79q-98 90 -98 258v797q0 166 98 258q86 80 225 80q137 0 228 -80q98 -92 98 -258v-131h-174v131q0 84 -37 124t-115 40t-113.5 -40t-35.5 -124v-797q0 -84 35.5 -123.5t113.5 -39.5t115 40t37 123v193h174v-193q0 -168 -98 -258z M618 1720l-139 -211h-174l-139 211h104l123 -116l123 116h102z" glyph-name="Ccaron" horiz-adv-x="780" unicode="Č"/><glyph d="M621 61q-90 -80 -228 -79q-139 0 -225 79q-98 90 -98 258v797q0 166 98 258q86 80 225 80q137 0 228 -80q98 -92 98 -258v-131h-174v131q0 84 -37 124t-115 40t-113.5 -40t-35.5 -124v-797q0 -84 35.5 -123.5t113.5 -39.5t115 40t37 123v193h174v-193q0 -168 -98 -258z M618 1720l-139 -211h-174l-139 211h104l123 -116l123 116h102z" glyph-name="ccaron" horiz-adv-x="780" unicode="č"/><glyph d="M633 74q-86 -74 -225 -74h-326v1434h326q139 0 225 -80q98 -92 98 -258v-766q0 -166 -98 -256zM256 1260v-1086h152q76 0 108 31q41 37 41 125v766q0 84 -36 124t-113 40h-152zM633 1720l-139 -211h-175l-139 211h105l123 -116l122 116h103z" glyph-name="Dcaron" horiz-adv-x="800" unicode="Ď"/><glyph d="M633 74q-86 -74 -225 -74h-326v1434h326q139 0 225 -80q98 -92 98 -258v-766q0 -166 -98 -256zM256 1260v-1086h152q76 0 108 31q41 37 41 125v766q0 84 -36 124t-113 40h-152zM633 1720l-139 -211h-175l-139 211h105l123 -116l122 116h103z" glyph-name="dcaron" horiz-adv-x="800" unicode="ď"/><glyph d="M739 1096v-766q0 -166 -98 -256q-86 -74 -225 -74h-324v629h-82v174h82v631h324q137 0 227 -80q96 -92 96 -258zM565 1096q0 84 -35.5 124t-113.5 40h-150v-457h123v-174h-123v-455h150q74 0 110 31q39 37 39 125v766z" glyph-name="Dcroat" horiz-adv-x="808" unicode="Đ"/><glyph d="M739 1096v-766q0 -166 -98 -256q-86 -74 -225 -74h-324v629h-82v174h82v631h324q137 0 227 -80q96 -92 96 -258zM565 1096q0 84 -35.5 124t-113.5 40h-150v-457h123v-174h-123v-455h150q74 0 110 31q39 37 39 125v766z" glyph-name="dcroat" horiz-adv-x="808" unicode="đ"/><glyph d="M647 1260h-391v-439h272v-174h-272v-473h391v-174h-565v1434h565v-174zM676 1509h-623v93h623v-93z" glyph-name="Emacron" horiz-adv-x="710" unicode="Ē"/><glyph d="M647 1260h-391v-439h272v-174h-272v-473h391v-174h-565v1434h565v-174zM676 1509h-623v93h623v-93z" glyph-name="emacron" horiz-adv-x="710" unicode="ē"/><glyph d="M647 1260h-391v-439h272v-174h-272v-473h391v-174h-565v1434h565v-174zM299 1667q27 27 66 27t65.5 -27t26.5 -65q0 -39 -27 -66t-65 -27q-39 0 -66 27t-27 66q0 38 27 65z" glyph-name="Edotaccent" horiz-adv-x="1228" unicode="Ė"/><glyph d="M647 1260h-391v-439h272v-174h-272v-473h391v-174h-565v1434h565v-174zM299 1667q27 27 66 27t65.5 -27t26.5 -65q0 -39 -27 -66t-65 -27q-39 0 -66 27t-27 66q0 38 27 65z" glyph-name="edotaccent" horiz-adv-x="1228" unicode="ė"/><glyph d="M256 1260v-439h272v-174h-272v-473h391v-174q-47 -16 -81 -52t-34 -69q0 -45 82 -45h19v-92h-39q-78 0 -127 25.5t-49 82.5q0 78 137 150h-473v1434h565v-174h-391z" glyph-name="Eogonek" horiz-adv-x="710" unicode="Ę"/><glyph d="M256 1260v-439h272v-174h-272v-473h391v-174q-47 -16 -81 -52t-34 -69q0 -45 82 -45h19v-92h-39q-78 0 -127 25.5t-49 82.5q0 78 137 150h-473v1434h565v-174h-391z" glyph-name="eogonek" horiz-adv-x="710" unicode="ę"/><glyph d="M647 1260h-391v-439h272v-174h-272v-473h391v-174h-565v1434h565v-174zM590 1720l-139 -211h-175l-139 211h105l123 -116l122 116h103z" glyph-name="Ecaron" horiz-adv-x="1228" unicode="Ě"/><glyph d="M647 1260h-391v-439h272v-174h-272v-473h391v-174h-565v1434h565v-174zM590 1720l-139 -211h-175l-139 211h105l123 -116l122 116h103z" glyph-name="ecaron" horiz-adv-x="1228" unicode="ě"/><glyph d="M623 61q-90 -80 -228 -79q-137 0 -227 79q-98 90 -98 258v795q0 166 98 258q90 80 227 80t228 -80q96 -92 96 -258v-131h-174v131q0 84 -36 124t-114 40t-114.5 -40t-36.5 -124v-795q0 -84 36.5 -123.5t114.5 -39.5t114 40t36 123v310h-150v174h324v-484q0 -168 -96 -258 zM600 1716q0 -84 -60.5 -145.5t-146.5 -61.5t-146.5 61.5t-60.5 145.5h88q0 -49 35 -84t84 -35t84 35t35 84h88z" glyph-name="Gbreve" horiz-adv-x="1228" unicode="Ğ"/><glyph d="M623 61q-90 -80 -228 -79q-137 0 -227 79q-98 90 -98 258v795q0 166 98 258q90 80 227 80t228 -80q96 -92 96 -258v-131h-174v131q0 84 -36 124t-114 40t-114.5 -40t-36.5 -124v-795q0 -84 36.5 -123.5t114.5 -39.5t114 40t36 123v310h-150v174h324v-484q0 -168 -96 -258 zM600 1716q0 -84 -60.5 -145.5t-146.5 -61.5t-146.5 61.5t-60.5 145.5h88q0 -49 35 -84t84 -35t84 35t35 84h88z" glyph-name="gbreve" horiz-adv-x="1228" unicode="ğ"/><glyph d="M623 61q-90 -80 -228 -79q-137 0 -227 79q-98 90 -98 258v795q0 166 98 258q90 80 227 80t228 -80q96 -92 96 -258v-131h-174v131q0 84 -36 124t-114 40t-114.5 -40t-36.5 -124v-795q0 -84 36.5 -123.5t114.5 -39.5t114 40t36 123v310h-150v174h324v-484q0 -168 -96 -258 zM458.5 1667q26.5 -27 26.5 -65q0 -39 -26.5 -66t-65.5 -27t-65.5 27t-26.5 66t26.5 65.5t65.5 26.5t65.5 -27z" glyph-name="Gdotaccent" horiz-adv-x="1228" unicode="Ġ"/><glyph d="M623 61q-90 -80 -228 -79q-137 0 -227 79q-98 90 -98 258v795q0 166 98 258q90 80 227 80t228 -80q96 -92 96 -258v-131h-174v131q0 84 -36 124t-114 40t-114.5 -40t-36.5 -124v-795q0 -84 36.5 -123.5t114.5 -39.5t114 40t36 123v310h-150v174h324v-484q0 -168 -96 -258 zM458.5 1667q26.5 -27 26.5 -65q0 -39 -26.5 -66t-65.5 -27t-65.5 27t-26.5 66t26.5 65.5t65.5 26.5t65.5 -27z" glyph-name="gdotaccent" horiz-adv-x="1228" unicode="ġ"/><glyph d="M623 61q-90 -80 -228 -79q-137 0 -227 79q-98 90 -98 258v795q0 166 98 258q90 80 227 80t228 -80q96 -92 96 -258v-131h-174v131q0 84 -36 124t-114 40t-114.5 -40t-36.5 -124v-795q0 -84 36.5 -123.5t114.5 -39.5t114 40t36 123v310h-150v174h324v-484q0 -168 -96 -258 zM461 -260q-12 -25 -62 -98h-67l20 51q0 4 3 12t3 14q0 16 -14 29q-41 31 -41 78q0 39 26.5 65.5t65.5 26.5t65.5 -26.5t26.5 -65.5q1 -33 -26 -86z" glyph-name="Gcommaaccent" horiz-adv-x="1228" unicode="Ģ"/><glyph d="M623 61q-90 -80 -228 -79q-137 0 -227 79q-98 90 -98 258v795q0 166 98 258q90 80 227 80t228 -80q96 -92 96 -258v-131h-174v131q0 84 -36 124t-114 40t-114.5 -40t-36.5 -124v-795q0 -84 36.5 -123.5t114.5 -39.5t114 40t36 123v310h-150v174h324v-484q0 -168 -96 -258 zM461 -260q-12 -25 -62 -98h-67l20 51q0 4 3 12t3 14q0 16 -14 29q-41 31 -41 78q0 39 26.5 65.5t65.5 26.5t65.5 -26.5t26.5 -65.5q1 -33 -26 -86z" glyph-name="gcommaaccent" horiz-adv-x="1228" unicode="ģ"/><glyph d="M741 1434v-291h82v-90h-82v-1053h-174v647h-301v-647h-174v1053h-82v90h82v291h174v-291h301v291h174zM567 821v232h-301v-232h301z" glyph-name="Hbar" horiz-adv-x="833" unicode="Ħ"/><glyph d="M741 1434v-291h82v-90h-82v-1053h-174v647h-301v-647h-174v1053h-82v90h82v291h174v-291h301v291h174zM567 821v232h-301v-232h301z" glyph-name="hbar" horiz-adv-x="833" unicode="ħ"/><glyph d="M256 0h-174v1434h174v-1434zM51 1569q-37 -6 -86 -64l-67 56q80 98 165 98q55 0 125 -41q47 -29 84 -23q39 8 82 62l70 -53q-76 -98 -166 -99q-55 0 -115 37q-55 33 -92 27z" glyph-name="Itilde" horiz-adv-x="321" unicode="Ĩ"/><glyph d="M256 0h-174v1434h174v-1434zM51 1569q-37 -6 -86 -64l-67 56q80 98 165 98q55 0 125 -41q47 -29 84 -23q39 8 82 62l70 -53q-76 -98 -166 -99q-55 0 -115 37q-55 33 -92 27z" glyph-name="itilde" horiz-adv-x="321" unicode="ĩ"/><glyph d="M256 0h-174v1434h174v-1434zM479 1509h-622v93h622v-93z" glyph-name="Imacron" horiz-adv-x="335" unicode="Ī"/><glyph d="M256 0h-174v1434h174v-1434zM479 1509h-622v93h622v-93z" glyph-name="imacron" horiz-adv-x="335" unicode="ī"/><glyph d="M256 1434v-1434q-47 -16 -81 -52t-34 -69q0 -45 82 -45h19v-92h-39q-78 0 -127 25.5t-49 82.5q0 78 137 150h-82v1434h174z" glyph-name="Iogonek" horiz-adv-x="337" unicode="Į"/><glyph d="M256 1434v-1434q-47 -16 -81 -52t-34 -69q0 -45 82 -45h19v-92h-39q-78 0 -127 25.5t-49 82.5q0 78 137 150h-82v1434h174z" glyph-name="iogonek" horiz-adv-x="337" unicode="į"/><glyph d="M262 0h-174v1434h174v-1434zM239.5 1667q26.5 -27 26.5 -65q0 -39 -26.5 -66t-65.5 -27t-65.5 27t-26.5 66t26.5 65.5t65.5 26.5t65.5 -27z" glyph-name="Idotaccent" horiz-adv-x="348" unicode="İ"/><glyph d="M256 0h-174v1434h174v-1434z" glyph-name="dotlessi" horiz-adv-x="337" unicode="ı"/><glyph d="M256 334v-334h-174v1434h174v-691l322 691h192l-317 -680l317 -754h-188l-230 541zM483 -260q-12 -25 -61 -98h-68l21 51q0 4 3 12t3 14q0 16 -14 29q-41 31 -41 78q0 39 26.5 65.5t65.5 26.5t65.5 -26.5t26.5 -65.5q0 -33 -27 -86z" glyph-name="Kcommaaccent" horiz-adv-x="802" unicode="Ķ"/><glyph d="M256 334v-334h-174v1434h174v-691l322 691h192l-317 -680l317 -754h-188l-230 541zM483 -260q-12 -25 -61 -98h-68l21 51q0 4 3 12t3 14q0 16 -14 29q-41 31 -41 78q0 39 26.5 65.5t65.5 26.5t65.5 -26.5t26.5 -65.5q0 -33 -27 -86z" glyph-name="kcommaaccent" horiz-adv-x="802" unicode="ķ"/><glyph d="M647 0h-565v1432h174v-1258h391v-174zM256 1722h174l-209 -213h-104z" glyph-name="Lacute" horiz-adv-x="679" unicode="Ĺ"/><glyph d="M647 0h-565v1432h174v-1258h391v-174zM256 1722h174l-209 -213h-104z" glyph-name="lacute" horiz-adv-x="679" unicode="ĺ"/><glyph d="M647 0h-565v1432h174v-1258h391v-174zM430 -260q-12 -25 -61 -98h-68l21 51q0 4 3 12t3 14q0 16 -15 29q-41 31 -41 78q0 39 27 65.5t66 26.5t65.5 -26.5t26.5 -65.5q0 -33 -27 -86z" glyph-name="Lcommaaccent" horiz-adv-x="679" unicode="Ļ"/><glyph d="M647 0h-565v1432h174v-1258h391v-174zM430 -260q-12 -25 -61 -98h-68l21 51q0 4 3 12t3 14q0 16 -15 29q-41 31 -41 78q0 39 27 65.5t66 26.5t65.5 -26.5t26.5 -65.5q0 -33 -27 -86z" glyph-name="lcommaaccent" horiz-adv-x="679" unicode="ļ"/><glyph d="M647 0h-565v1432h174v-1258h391v-174zM578 1253q-12 -25 -62 -98h-67l20 51q0 4 3 12.5t3 14.5q0 16 -14 29q-41 31 -41 77q0 39 26.5 66t65.5 27t65.5 -27t26.5 -66q1 -33 -26 -86z" glyph-name="Lcaron" horiz-adv-x="679" unicode="Ľ"/><glyph d="M647 0h-565v1432h174v-1258h391v-174zM578 1253q-12 -25 -62 -98h-67l20 51q0 4 3 12.5t3 14.5q0 16 -14 29q-41 31 -41 77q0 39 26.5 66t65.5 27t65.5 -27t26.5 -66q1 -33 -26 -86z" glyph-name="lcaron" horiz-adv-x="679" unicode="ľ"/><glyph d="M256 174h391v-174h-565v385l-111 -117v129l111 117v918h174v-732l256 277v-129l-256 -277v-397z" glyph-name="Lslash" horiz-adv-x="679" unicode="Ł"/><glyph d="M256 174h391v-174h-565v385l-111 -117v129l111 117v918h174v-732l256 277v-129l-256 -277v-397z" glyph-name="lslash" horiz-adv-x="679" unicode="ł"/><glyph d="M254 864v-864h-174v1434h96l399 -867v867h175v-1434h-97zM502 1722h174l-209 -213h-105z" glyph-name="Nacute" horiz-adv-x="829" unicode="Ń"/><glyph d="M254 864v-864h-174v1434h96l399 -867v867h175v-1434h-97zM502 1722h174l-209 -213h-105z" glyph-name="nacute" horiz-adv-x="829" unicode="ń"/><glyph d="M481 -260q-12 -25 -61 -98h-68l21 51q0 4 3 12t3 14q0 16 -14 29q-41 31 -41 78q0 39 26.5 65.5t65.5 26.5t65.5 -26.5t26.5 -65.5q0 -33 -27 -86zM254 864v-864h-174v1434h96l399 -867v867h175v-1434h-97z" glyph-name="Ncommaaccent" horiz-adv-x="829" unicode="Ņ"/><glyph d="M481 -260q-12 -25 -61 -98h-68l21 51q0 4 3 12t3 14q0 16 -14 29q-41 31 -41 78q0 39 26.5 65.5t65.5 26.5t65.5 -26.5t26.5 -65.5q0 -33 -27 -86zM254 864v-864h-174v1434h96l399 -867v867h175v-1434h-97z" glyph-name="ncommaaccent" horiz-adv-x="829" unicode="ņ"/><glyph d="M254 864v-864h-174v1434h96l399 -867v867h175v-1434h-97zM641 1720l-139 -211h-174l-140 211h105l123 -116l123 116h102z" glyph-name="Ncaron" horiz-adv-x="829" unicode="Ň"/><glyph d="M254 864v-864h-174v1434h96l399 -867v867h175v-1434h-97zM641 1720l-139 -211h-174l-140 211h105l123 -116l123 116h102z" glyph-name="ncaron" horiz-adv-x="829" unicode="ň"/><glyph d="M750 1434v-1520q0 -53 -38 -91t-91 -38v88q16 0 28.5 12.5t12.5 28.5v86l-408 864v-864h-174v1434h96l399 -867v867h175z" glyph-name="Eng" horiz-adv-x="829" unicode="Ŋ"/><glyph d="M750 1434v-1520q0 -53 -38 -91t-91 -38v88q16 0 28.5 12.5t12.5 28.5v86l-408 864v-864h-174v1434h96l399 -867v867h175z" glyph-name="eng" horiz-adv-x="829" unicode="ŋ"/><glyph d="M621 61q-90 -80 -228 -79q-137 0 -227 79q-96 90 -96 258v795q0 166 96 258q90 80 227 80t228 -80q96 -92 96 -258v-795q0 -168 -96 -258zM507 1238q-36 40 -114 40t-113.5 -40t-35.5 -124v-795q0 -84 35.5 -123.5t113.5 -39.5t114 40t36 123v795q0 84 -36 124zM705 1509 h-623v93h623v-93z" glyph-name="Omacron" horiz-adv-x="786" unicode="Ō"/><glyph d="M621 61q-90 -80 -228 -79q-137 0 -227 79q-96 90 -96 258v795q0 166 96 258q90 80 227 80t228 -80q96 -92 96 -258v-795q0 -168 -96 -258zM507 1238q-36 40 -114 40t-113.5 -40t-35.5 -124v-795q0 -84 35.5 -123.5t113.5 -39.5t114 40t36 123v795q0 84 -36 124zM705 1509 h-623v93h623v-93z" glyph-name="omacron" horiz-adv-x="786" unicode="ō"/><glyph d="M621 61q-90 -80 -228 -79q-137 0 -227 79q-96 90 -96 258v795q0 166 96 258q90 80 227 80t228 -80q96 -92 96 -258v-795q0 -168 -96 -258zM507 1238q-36 40 -114 40t-113.5 -40t-35.5 -124v-795q0 -84 35.5 -123.5t113.5 -39.5t114 40t36 123v795q0 84 -36 124zM340 1724 h176l-211 -215h-102zM616 1724h177l-211 -215h-103z" glyph-name="Ohungarumlaut" horiz-adv-x="786" unicode="Ő"/><glyph d="M621 61q-90 -80 -228 -79q-137 0 -227 79q-96 90 -96 258v795q0 166 96 258q90 80 227 80t228 -80q96 -92 96 -258v-795q0 -168 -96 -258zM507 1238q-36 40 -114 40t-113.5 -40t-35.5 -124v-795q0 -84 35.5 -123.5t113.5 -39.5t114 40t36 123v795q0 84 -36 124zM340 1724 h176l-211 -215h-102zM616 1724h177l-211 -215h-103z" glyph-name="ohungarumlaut" horiz-adv-x="786" unicode="ő"/><glyph d="M627 1260v-437h272v-174h-272v-475h391v-174h-625q-137 0 -227 80q-96 92 -96 258v758q0 168 96 258q90 80 227 80h625v-174h-391zM279.5 214q35.5 -40 113.5 -40h60v1086h-60q-78 0 -113.5 -40t-35.5 -124v-758q0 -84 35.5 -124z" glyph-name="OE" horiz-adv-x="1081" unicode="Œ"/><glyph d="M627 1260v-437h272v-174h-272v-475h391v-174h-625q-137 0 -227 80q-96 92 -96 258v758q0 168 96 258q90 80 227 80h625v-174h-391zM279.5 214q35.5 -40 113.5 -40h60v1086h-60q-78 0 -113.5 -40t-35.5 -124v-758q0 -84 35.5 -124z" glyph-name="oe" horiz-adv-x="1081" unicode="œ"/><glyph d="M731 0h-180l-164 598h-131v-598h-174v1434h324q141 0 227 -80q98 -88 98 -258v-162q0 -166 -98 -256q-31 -31 -74 -49zM557 1096q0 84 -37 124t-114 40h-150v-488h150q78 0 114.5 39t36.5 123v162zM496 1722h174l-209 -213h-105z" glyph-name="Racute" horiz-adv-x="788" unicode="Ŕ"/><glyph d="M731 0h-180l-164 598h-131v-598h-174v1434h324q141 0 227 -80q98 -88 98 -258v-162q0 -166 -98 -256q-31 -31 -74 -49zM557 1096q0 84 -37 124t-114 40h-150v-488h150q78 0 114.5 39t36.5 123v162zM496 1722h174l-209 -213h-105z" glyph-name="racute" horiz-adv-x="788" unicode="ŕ"/><glyph d="M731 0h-180l-164 598h-131v-598h-174v1434h324q141 0 227 -80q98 -88 98 -258v-162q0 -166 -98 -256q-31 -31 -74 -49zM557 1096q0 84 -37 124t-114 40h-150v-488h150q78 0 114.5 39t36.5 123v162zM473 -260q-12 -25 -61 -98h-68l21 51q0 4 3 12t3 14q0 16 -15 29 q-41 31 -41 78q0 39 27 65.5t66 26.5t65.5 -26.5t26.5 -65.5q0 -33 -27 -86z" glyph-name="Rcommaaccent" horiz-adv-x="788" unicode="Ŗ"/><glyph d="M731 0h-180l-164 598h-131v-598h-174v1434h324q141 0 227 -80q98 -88 98 -258v-162q0 -166 -98 -256q-31 -31 -74 -49zM557 1096q0 84 -37 124t-114 40h-150v-488h150q78 0 114.5 39t36.5 123v162zM473 -260q-12 -25 -61 -98h-68l21 51q0 4 3 12t3 14q0 16 -15 29 q-41 31 -41 78q0 39 27 65.5t66 26.5t65.5 -26.5t26.5 -65.5q0 -33 -27 -86z" glyph-name="rcommaaccent" horiz-adv-x="788" unicode="ŗ"/><glyph d="M731 0h-180l-164 598h-131v-598h-174v1434h324q141 0 227 -80q98 -88 98 -258v-162q0 -166 -98 -256q-31 -31 -74 -49zM557 1096q0 84 -37 124t-114 40h-150v-488h150q78 0 114.5 39t36.5 123v162zM631 1509h-103l-122 117l-123 -117h-105l139 211h175z" glyph-name="Rcaron" horiz-adv-x="788" unicode="Ř"/><glyph d="M731 0h-180l-164 598h-131v-598h-174v1434h324q141 0 227 -80q98 -88 98 -258v-162q0 -166 -98 -256q-31 -31 -74 -49zM557 1096q0 84 -37 124t-114 40h-150v-488h150q78 0 114.5 39t36.5 123v162zM631 1509h-103l-122 117l-123 -117h-105l139 211h175z" glyph-name="rcaron" horiz-adv-x="788" unicode="ř"/><glyph d="M606 61q-86 -80 -227 -79q-68 0 -126 20.5t-99 58.5q-98 90 -99 258v195h174v-195q0 -84 36 -123.5t114 -39.5t114.5 40t36.5 123v95q0 59 -15 96t-38 63q-23 27 -55.5 47.5t-85.5 51.5q-66 37 -108 65.5t-76 67.5q-96 104 -97 270v39q0 166 99 258q41 39 99 59.5 t126 20.5q141 0 227 -80q98 -92 99 -258v-131h-175v131q0 84 -36.5 124t-114.5 40t-114 -40t-36 -124v-39q0 -96 52 -153q23 -27 53.5 -46.5t85.5 -52.5q61 -33 105 -63.5t81 -71.5q98 -106 99 -274v-95q-1 -168 -99 -258zM467 1722h174l-209 -213h-104z" glyph-name="Sacute" horiz-adv-x="759" unicode="Ś"/><glyph d="M606 61q-86 -80 -227 -79q-68 0 -126 20.5t-99 58.5q-98 90 -99 258v195h174v-195q0 -84 36 -123.5t114 -39.5t114.5 40t36.5 123v95q0 59 -15 96t-38 63q-23 27 -55.5 47.5t-85.5 51.5q-66 37 -108 65.5t-76 67.5q-96 104 -97 270v39q0 166 99 258q41 39 99 59.5 t126 20.5q141 0 227 -80q98 -92 99 -258v-131h-175v131q0 84 -36.5 124t-114.5 40t-114 -40t-36 -124v-39q0 -96 52 -153q23 -27 53.5 -46.5t85.5 -52.5q61 -33 105 -63.5t81 -71.5q98 -106 99 -274v-95q-1 -168 -99 -258zM467 1722h174l-209 -213h-104z" glyph-name="sacute" horiz-adv-x="759" unicode="ś"/><glyph d="M530 983v131q0 84 -36.5 124t-114.5 40t-114 -40t-36 -124v-39q0 -96 52 -153q23 -27 53.5 -46.5t85.5 -52.5q61 -33 105 -63.5t81 -71.5q98 -106 99 -274v-95q0 -168 -99 -258q-68 -66 -180 -77q10 -10 10 -11q4 0 4 -4q29 -20 48.5 -45.5t19.5 -68.5q0 -53 -38 -92 t-91 -39t-92 38.5t-39 92.5h88q0 -16 12 -29.5t31 -13.5q16 0 28.5 13t12.5 30q0 14 -6 23t-25 22q-2 0 -6 4q-45 35 -47 80q-111 12 -182 77q-98 90 -99 258v195h174v-195q0 -84 36 -123.5t114 -39.5t114.5 40t36.5 123v95q0 59 -15 96t-38 63q-23 27 -55.5 47.5 t-85.5 51.5q-66 37 -108 65.5t-76 67.5q-96 104 -97 270v39q0 166 99 258q41 39 99 59.5t126 20.5q141 0 227 -80q98 -92 99 -258v-131h-175z" glyph-name="Scedilla" horiz-adv-x="759" unicode="Ş"/><glyph d="M530 983v131q0 84 -36.5 124t-114.5 40t-114 -40t-36 -124v-39q0 -96 52 -153q23 -27 53.5 -46.5t85.5 -52.5q61 -33 105 -63.5t81 -71.5q98 -106 99 -274v-95q0 -168 -99 -258q-68 -66 -180 -77q10 -10 10 -11q4 0 4 -4q29 -20 48.5 -45.5t19.5 -68.5q0 -53 -38 -92 t-91 -39t-92 38.5t-39 92.5h88q0 -16 12 -29.5t31 -13.5q16 0 28.5 13t12.5 30q0 14 -6 23t-25 22q-2 0 -6 4q-45 35 -47 80q-111 12 -182 77q-98 90 -99 258v195h174v-195q0 -84 36 -123.5t114 -39.5t114.5 40t36.5 123v95q0 59 -15 96t-38 63q-23 27 -55.5 47.5 t-85.5 51.5q-66 37 -108 65.5t-76 67.5q-96 104 -97 270v39q0 166 99 258q41 39 99 59.5t126 20.5q141 0 227 -80q98 -92 99 -258v-131h-175z" glyph-name="scedilla" horiz-adv-x="759" unicode="ş"/><glyph d="M606 61q-86 -80 -227 -79q-68 0 -126 20.5t-99 58.5q-98 90 -99 258v195h174v-195q0 -84 36 -123.5t114 -39.5t114.5 40t36.5 123v95q0 59 -15 96t-38 63q-23 27 -55.5 47.5t-85.5 51.5q-66 37 -108 65.5t-76 67.5q-96 104 -97 270v39q0 166 99 258q41 39 99 59.5 t126 20.5q141 0 227 -80q98 -92 99 -258v-131h-175v131q0 84 -36.5 124t-114.5 40t-114 -40t-36 -124v-39q0 -96 52 -153q23 -27 53.5 -46.5t85.5 -52.5q61 -33 105 -63.5t81 -71.5q98 -106 99 -274v-95q-1 -168 -99 -258zM606 1720l-139 -211h-174l-139 211h104l123 -116 l123 116h102z" glyph-name="Scaron" horiz-adv-x="759" unicode="Š"/><glyph d="M606 61q-86 -80 -227 -79q-68 0 -126 20.5t-99 58.5q-98 90 -99 258v195h174v-195q0 -84 36 -123.5t114 -39.5t114.5 40t36.5 123v95q0 59 -15 96t-38 63q-23 27 -55.5 47.5t-85.5 51.5q-66 37 -108 65.5t-76 67.5q-96 104 -97 270v39q0 166 99 258q41 39 99 59.5 t126 20.5q141 0 227 -80q98 -92 99 -258v-131h-175v131q0 84 -36.5 124t-114.5 40t-114 -40t-36 -124v-39q0 -96 52 -153q23 -27 53.5 -46.5t85.5 -52.5q61 -33 105 -63.5t81 -71.5q98 -106 99 -274v-95q-1 -168 -99 -258zM606 1720l-139 -211h-174l-139 211h104l123 -116 l123 116h102z" glyph-name="scaron" horiz-adv-x="759" unicode="š"/><glyph d="M399 2v-16q4 -8 11 -13q4 0 4 -4q29 -20 48 -45.5t19 -68.5q0 -53 -37.5 -92t-91.5 -39q-53 0 -92 38.5t-39 92.5h88q0 -16 12.5 -29.5t30.5 -13.5q16 0 28.5 13t12.5 30q0 14 -6 23t-25 22q-2 0 -6 4q-45 35 -47 82v16h-43v1258h-239v174h655v-174h-242v-1258h-41z" glyph-name="Tcommaaccent" horiz-adv-x="706" unicode="Ţ"/><glyph d="M399 2v-16q4 -8 11 -13q4 0 4 -4q29 -20 48 -45.5t19 -68.5q0 -53 -37.5 -92t-91.5 -39q-53 0 -92 38.5t-39 92.5h88q0 -16 12.5 -29.5t30.5 -13.5q16 0 28.5 13t12.5 30q0 14 -6 23t-25 22q-2 0 -6 4q-45 35 -47 82v16h-43v1258h-239v174h655v-174h-242v-1258h-41z" glyph-name="tcommaaccent" horiz-adv-x="706" unicode="ţ"/><glyph d="M682 1432v-175h-242v-1257h-174v1257h-239v175h655zM580 1720l-140 -211h-174l-139 211h104l123 -116l123 116h103z" glyph-name="Tcaron" horiz-adv-x="706" unicode="Ť"/><glyph d="M682 1432v-175h-242v-1257h-174v1257h-239v175h655zM580 1720l-140 -211h-174l-139 211h104l123 -116l123 116h103z" glyph-name="tcaron" horiz-adv-x="706" unicode="ť"/><glyph d="M682 1257h-242v-294h123v-91h-123v-872h-174v872h-123v91h123v294h-239v175h655v-175z" glyph-name="Tbar" horiz-adv-x="706" unicode="Ŧ"/><glyph d="M682 1257h-242v-294h123v-91h-123v-872h-174v872h-123v91h123v294h-239v175h655v-175z" glyph-name="tbar" horiz-adv-x="706" unicode="ŧ"/><glyph d="M529.5 2.5q-58.5 -20.5 -126.5 -20.5q-141 0 -227 79q-98 90 -98 258v1115h174v-1115q0 -84 37 -123.5t114 -39.5q78 0 114 40t36 123v1115h174v-1115q0 -168 -98 -258q-41 -38 -99.5 -58.5zM293 1569q-37 -6 -86 -64l-68 56q80 98 166 98q55 0 125 -41q47 -29 84 -23 q39 8 82 62l70 -53q-76 -98 -166 -99q-57 0 -115 37q-55 33 -92 27z" glyph-name="Utilde" horiz-adv-x="804" unicode="Ũ"/><glyph d="M529.5 2.5q-58.5 -20.5 -126.5 -20.5q-141 0 -227 79q-98 90 -98 258v1115h174v-1115q0 -84 37 -123.5t114 -39.5q78 0 114 40t36 123v1115h174v-1115q0 -168 -98 -258q-41 -38 -99.5 -58.5zM293 1569q-37 -6 -86 -64l-68 56q80 98 166 98q55 0 125 -41q47 -29 84 -23 q39 8 82 62l70 -53q-76 -98 -166 -99q-57 0 -115 37q-55 33 -92 27z" glyph-name="utilde" horiz-adv-x="804" unicode="ũ"/><glyph d="M529.5 2.5q-58.5 -20.5 -126.5 -20.5q-141 0 -227 79q-98 90 -98 258v1115h174v-1115q0 -84 37 -123.5t114 -39.5q78 0 114 40t36 123v1115h174v-1115q0 -168 -98 -258q-41 -38 -99.5 -58.5zM715 1509h-623v93h623v-93z" glyph-name="Umacron" horiz-adv-x="804" unicode="Ū"/><glyph d="M529.5 2.5q-58.5 -20.5 -126.5 -20.5q-141 0 -227 79q-98 90 -98 258v1115h174v-1115q0 -84 37 -123.5t114 -39.5q78 0 114 40t36 123v1115h174v-1115q0 -168 -98 -258q-41 -38 -99.5 -58.5zM715 1509h-623v93h623v-93z" glyph-name="umacron" horiz-adv-x="804" unicode="ū"/><glyph d="M529.5 2.5q-58.5 -20.5 -126.5 -20.5q-141 0 -227 79q-98 90 -98 258v1115h174v-1115q0 -84 37 -123.5t114 -39.5q78 0 114 40t36 123v1115h174v-1115q0 -168 -98 -258q-41 -38 -99.5 -58.5zM494.5 1553.5q-37.5 -37.5 -91.5 -37.5q-53 0 -92 37.5t-39 91.5q0 53 39 92 t92 39t91 -39t38 -92q0 -54 -37.5 -91.5zM432 1675.5q-12 12.5 -29 12.5q-16 0 -29.5 -12.5t-13.5 -30.5q0 -16 13.5 -28.5t29.5 -12.5t28.5 12t12.5 29q0 18 -12 30.5z" glyph-name="Uring" horiz-adv-x="804" unicode="Ů"/><glyph d="M529.5 2.5q-58.5 -20.5 -126.5 -20.5q-141 0 -227 79q-98 90 -98 258v1115h174v-1115q0 -84 37 -123.5t114 -39.5q78 0 114 40t36 123v1115h174v-1115q0 -168 -98 -258q-41 -38 -99.5 -58.5zM494.5 1553.5q-37.5 -37.5 -91.5 -37.5q-53 0 -92 37.5t-39 91.5q0 53 39 92 t92 39t91 -39t38 -92q0 -54 -37.5 -91.5zM432 1675.5q-12 12.5 -29 12.5q-16 0 -29.5 -12.5t-13.5 -30.5q0 -16 13.5 -28.5t29.5 -12.5t28.5 12t12.5 29q0 18 -12 30.5z" glyph-name="uring" horiz-adv-x="804" unicode="ů"/><glyph d="M529.5 2.5q-58.5 -20.5 -126.5 -20.5q-141 0 -227 79q-98 90 -98 258v1115h174v-1115q0 -84 37 -123.5t114 -39.5q78 0 114 40t36 123v1115h174v-1115q0 -168 -98 -258q-41 -38 -99.5 -58.5zM350 1724h176l-211 -215h-102zM627 1724h176l-211 -215h-103z" glyph-name="Uhungarumlaut" horiz-adv-x="804" unicode="Ű"/><glyph d="M529.5 2.5q-58.5 -20.5 -126.5 -20.5q-141 0 -227 79q-98 90 -98 258v1115h174v-1115q0 -84 37 -123.5t114 -39.5q78 0 114 40t36 123v1115h174v-1115q0 -168 -98 -258q-41 -38 -99.5 -58.5zM350 1724h176l-211 -215h-102zM627 1724h176l-211 -215h-103z" glyph-name="uhungarumlaut" horiz-adv-x="804" unicode="ű"/><glyph d="M727 1434v-1115q0 -168 -98 -258q-55 -53 -84 -92t-29 -82q0 -29 27.5 -41t54.5 -12h18v-92h-38q-78 0 -127.5 25.5t-49.5 82.5q0 51 70 138q-33 -6 -68 -6q-141 0 -227 79q-98 90 -98 258v1115h174v-1115q0 -84 37 -123.5t114 -39.5q78 0 114 40t36 123v1115h174z" glyph-name="Uogonek" horiz-adv-x="804" unicode="Ų"/><glyph d="M727 1434v-1115q0 -168 -98 -258q-55 -53 -84 -92t-29 -82q0 -29 27.5 -41t54.5 -12h18v-92h-38q-78 0 -127.5 25.5t-49.5 82.5q0 51 70 138q-33 -6 -68 -6q-141 0 -227 79q-98 90 -98 258v1115h174v-1115q0 -84 37 -123.5t114 -39.5q78 0 114 40t36 123v1115h174z" glyph-name="uogonek" horiz-adv-x="804" unicode="ų"/><glyph d="M512 780l-227 -780h-72l-176 1434h176l94 -809l168 583h76l168 -583l94 809h174l-174 -1434h-74zM737 1509h-102l-123 117l-123 -117h-104l139 211h174z" glyph-name="Wcircumflex" horiz-adv-x="1024" unicode="Ŵ"/><glyph d="M512 780l-227 -780h-72l-176 1434h176l94 -809l168 583h76l168 -583l94 809h174l-174 -1434h-74zM737 1509h-102l-123 117l-123 -117h-104l139 211h174z" glyph-name="wcircumflex" horiz-adv-x="1024" unicode="ŵ"/><glyph d="M391 807l193 627h180l-287 -936v-498h-174v498l-287 936h183zM616 1509h-102l-123 117l-123 -117h-104l139 211h174z" glyph-name="Ycircumflex" horiz-adv-x="778" unicode="Ŷ"/><glyph d="M391 807l193 627h180l-287 -936v-498h-174v498l-287 936h183zM616 1509h-102l-123 117l-123 -117h-104l139 211h174z" glyph-name="ycircumflex" horiz-adv-x="778" unicode="ŷ"/><glyph d="M309.5 1667q26.5 -27 26.5 -65q0 -39 -26.5 -66t-65.5 -27t-65.5 27t-26.5 66t26.5 65.5t65.5 26.5t65.5 -27zM604.5 1667q26.5 -27 26.5 -65q0 -39 -26.5 -66t-65.5 -27t-66 27t-27 66t27 65.5t66 26.5t65.5 -27zM391 807l193 627h180l-287 -936v-498h-174v498l-287 936 h183z" glyph-name="Ydieresis" horiz-adv-x="778" unicode="Ÿ"/><glyph d="M713 0h-656l414 1260h-416v174h656l-414 -1260h416v-174zM469 1722h174l-209 -213h-104z" glyph-name="Zacute" horiz-adv-x="768" unicode="Ź"/><glyph d="M713 0h-656l414 1260h-416v174h656l-414 -1260h416v-174zM469 1722h174l-209 -213h-104z" glyph-name="zacute" horiz-adv-x="768" unicode="ź"/><glyph d="M713 0h-656l414 1260h-416v174h656l-414 -1260h416v-174zM448.5 1667q26.5 -27 26.5 -65q0 -39 -26.5 -66t-65.5 -27t-65.5 27t-26.5 66t26.5 65.5t65.5 26.5t65.5 -27z" glyph-name="Zdotaccent" horiz-adv-x="768" unicode="Ż"/><glyph d="M713 0h-656l414 1260h-416v174h656l-414 -1260h416v-174zM448.5 1667q26.5 -27 26.5 -65q0 -39 -26.5 -66t-65.5 -27t-65.5 27t-26.5 66t26.5 65.5t65.5 26.5t65.5 -27z" glyph-name="zdotaccent" horiz-adv-x="768" unicode="ż"/><glyph d="M713 0h-656l414 1260h-416v174h656l-414 -1260h416v-174zM608 1720l-139 -211h-174l-139 211h104l123 -116l123 116h102z" glyph-name="Zcaron" horiz-adv-x="768" unicode="Ž"/><glyph d="M713 0h-656l414 1260h-416v174h656l-414 -1260h416v-174zM608 1720l-139 -211h-174l-139 211h104l123 -116l123 116h102z" glyph-name="zcaron" horiz-adv-x="768" unicode="ž"/><glyph d="M772 465v-135q0 -166 -100 -254q-86 -76 -226 -76h-235h-88v315h-123v174h123v945h293q141 0 225 -76q98 -86 98 -254v-139q0 -76 -21.5 -133.5t-72.5 -100.5q127 -84 127 -266zM297 803h119q78 0 113.5 39t35.5 123v139q0 84 -34.5 120t-114.5 36h-119v-457zM598 465 q0 84 -37 124t-115 40h-149v-140h119v-174h-119v-141h149q76 0 111 31q41 37 41 125v135z" glyph-name="uni0180" horiz-adv-x="1228" unicode="ƀ"/><glyph d="M823 465v-135q0 -168 -98 -254q-88 -76 -225 -76h-326v1343h-86q-16 0 -28.5 -12t-12.5 -28h-88q0 53 38 91t91 38h379q143 0 225 -76q98 -86 99 -254v-137q0 -76 -21.5 -133.5t-73.5 -100.5q127 -84 127 -266zM348 803h119q78 0 113.5 39t35.5 123v137q0 84 -34.5 119.5 t-114.5 35.5h-119v-454zM649 465q0 84 -35.5 124t-113.5 40h-152v-455h152q74 0 110 31q39 39 39 125v135z" glyph-name="uni0181" horiz-adv-x="882" unicode="Ɓ"/><glyph d="M612 61q-86 -80 -225 -79q-137 0 -227 79q-98 90 -99 258v193h175v-193q0 -84 36.5 -123.5t114.5 -39.5t114 40t36 123v797q0 84 -36 124t-114 40t-114.5 -40t-36.5 -124v-131h-175v131q0 166 99 258q90 80 227 80q139 0 225 -80q98 -92 99 -258v-797q-1 -168 -99 -258z " glyph-name="uni0186" horiz-adv-x="780" unicode="Ɔ"/><glyph d="M670 1547q39 38 92 38v-88q-18 0 -30.5 -12t-12.5 -29v-471h-174v131q0 84 -37 124t-115 40t-113.5 -40t-35.5 -124v-797q0 -84 35.5 -123.5t113.5 -39.5t115 40t37 123v193h174v-193q0 -168 -98 -258q-90 -80 -228 -79q-139 0 -225 79q-98 90 -98 258v797q0 166 98 258 q86 80 225 80q137 0 228 -80l10 -10v92q0 53 39 91z" glyph-name="uni0187" horiz-adv-x="780" unicode="Ƈ"/><glyph d="M670 1547q39 38 92 38v-88q-18 0 -30.5 -12t-12.5 -29v-471h-174v131q0 84 -37 124t-115 40t-113.5 -40t-35.5 -124v-797q0 -84 35.5 -123.5t113.5 -39.5t115 40t37 123v193h174v-193q0 -168 -98 -258q-90 -80 -228 -79q-139 0 -225 79q-98 90 -98 258v797q0 166 98 258 q86 80 225 80q137 0 228 -80l10 -10v92q0 53 39 91z" glyph-name="uni0188" horiz-adv-x="780" unicode="ƈ"/><glyph d="M739 1096v-766q0 -166 -98 -256q-86 -74 -225 -74h-324v629h-82v174h82v631h324q137 0 227 -80q96 -92 96 -258zM565 1096q0 84 -35.5 124t-113.5 40h-150v-457h123v-174h-123v-455h150q74 0 110 31q39 37 39 125v766z" glyph-name="uni0189" horiz-adv-x="808" unicode="Ɖ"/><glyph d="M823 1096v-766q0 -166 -98 -256q-86 -74 -225 -74h-326v1346h-86q-16 0 -28.5 -12.5t-12.5 -28.5h-88q0 53 38 91t91 38h412q139 0 225 -80q98 -92 98 -258zM649 1096q0 84 -35.5 124t-113.5 40h-152v-1086h152q76 0 108 31q41 37 41 125v766z" glyph-name="uni018A" horiz-adv-x="892" unicode="Ɗ"/><glyph d="M61 1260v174h566v-1434h-566v174h392v473h-273v174h273v439h-392z" glyph-name="uni018E" horiz-adv-x="688" unicode="Ǝ"/><glyph d="M256 1257v-434h272v-174h-272v-649q0 -88 -48 -151.5t-167 -63.5v88q16 0 28.5 12.5t12.5 28.5v1518h565v-175h-391z" glyph-name="uni0191" horiz-adv-x="681" unicode="Ƒ"/><glyph d="M669 1545q38 38 91 38v-88q-16 0 -28.5 -12.5t-12.5 -28.5v-471h-174v131q0 84 -36 124t-114 40t-114.5 -40t-36.5 -124v-795q0 -84 36.5 -123.5t114.5 -39.5t114 40t36 123v310h-150v174h324v-484q0 -168 -96 -258q-90 -80 -228 -79q-137 0 -227 79q-98 90 -98 258v795 q0 166 98 258q90 80 227 80t228 -80l8 -8v90q0 53 38 91z" glyph-name="uni0193" horiz-adv-x="788" unicode="Ɠ"/><glyph d="M348 782v-90h-82v-692h-174v692h-82v90h82v652h174v-652h82z" glyph-name="uni0197" horiz-adv-x="358" unicode="Ɨ"/><glyph d="M906 1396q38 -38 38 -91h-88q0 16 -12.5 28.5t-28.5 12.5h-86l-276 -592l317 -754h-188l-230 541l-96 -207v-334h-174v1434h174v-691l322 691h237q53 0 91 -38z" glyph-name="uni0198" horiz-adv-x="903" unicode="Ƙ"/><glyph d="M906 1396q38 -38 38 -91h-88q0 16 -12.5 28.5t-28.5 12.5h-86l-276 -592l317 -754h-188l-230 541l-96 -207v-334h-174v1434h174v-691l322 691h237q53 0 91 -38z" glyph-name="uni0199" horiz-adv-x="903" unicode="ƙ"/><glyph d="M750 1434v-1434h-97l-399 864v-864q0 -88 -48 -151.5t-167 -63.5v88q16 0 28.5 12.5t12.5 28.5v1520h96l399 -867v867h175z" glyph-name="uni019D" horiz-adv-x="829" unicode="Ɲ"/><glyph d="M848 1493q0 -53 -39 -91t-92 -38h-88q88 -94 88 -250v-795q0 -168 -96 -258q-90 -80 -228 -79q-137 0 -227 79q-96 90 -96 258v795q0 166 96 258q90 80 227 80h324q16 0 29.5 12.5t13.5 28.5h88zM543 1114q0 84 -36 124t-114 40t-113.5 -40t-35.5 -124v-795 q0 -84 35.5 -123.5t113.5 -39.5t114 40t36 123v795z" glyph-name="Ohorn" horiz-adv-x="806" unicode="Ơ"/><glyph d="M848 1493q0 -53 -39 -91t-92 -38h-88q88 -94 88 -250v-795q0 -168 -96 -258q-90 -80 -228 -79q-137 0 -227 79q-96 90 -96 258v795q0 166 96 258q90 80 227 80h324q16 0 29.5 12.5t13.5 28.5h88zM543 1114q0 84 -36 124t-114 40t-113.5 -40t-35.5 -124v-795 q0 -84 35.5 -123.5t113.5 -39.5t114 40t36 123v795z" glyph-name="ohorn" horiz-adv-x="806" unicode="ơ"/><glyph d="M821 1096v-162q0 -166 -96 -256q-86 -80 -227 -80h-150v-598h-174v1346h-86q-16 0 -28.5 -12.5t-12.5 -28.5h-88q0 53 38 91t91 38h410q137 0 227 -80q96 -90 96 -258zM647 1096q0 84 -36 124t-113 40h-150v-488h150q78 0 113.5 39t35.5 123v162z" glyph-name="uni01A4" horiz-adv-x="868" unicode="Ƥ"/><glyph d="M821 1096v-162q0 -166 -96 -256q-86 -80 -227 -80h-150v-598h-174v1346h-86q-16 0 -28.5 -12.5t-12.5 -28.5h-88q0 53 38 91t91 38h410q137 0 227 -80q96 -90 96 -258zM647 1096q0 84 -36 124t-113 40h-150v-488h150q78 0 113.5 39t35.5 123v162z" glyph-name="uni01A5" horiz-adv-x="868" unicode="ƥ"/><glyph d="M743 1432v-175h-241v-1257h-174v1257h-240q-16 0 -28.5 -12t-12.5 -28h-88q0 119 63.5 167t151.5 48h569z" glyph-name="uni01AC" horiz-adv-x="768" unicode="Ƭ"/><glyph d="M743 1432v-175h-241v-1257h-174v1257h-240q-16 0 -28.5 -12t-12.5 -28h-88q0 119 63.5 167t151.5 48h569z" glyph-name="uni01AD" horiz-adv-x="768" unicode="ƭ"/><glyph d="M440 1257v-1343q0 -16 12.5 -28.5t28.5 -12.5v-88q-119 0 -167 63.5t-48 151.5v1257h-239v175h655v-175h-242z" glyph-name="uni01AE" horiz-adv-x="706" unicode="Ʈ"/><glyph d="M942 1475q0 -53 -38 -91t-91 -38h-86v-1027q0 -168 -98 -258q-41 -39 -99.5 -59t-126.5 -20q-141 0 -227 79q-98 90 -98 258v1115h174v-1115q0 -84 37 -123.5t114 -39.5q78 0 114 40t36 123v1115h260q16 0 28.5 12t12.5 29h88z" glyph-name="Uhorn" horiz-adv-x="901" unicode="Ư"/><glyph d="M942 1475q0 -53 -38 -91t-91 -38h-86v-1027q0 -168 -98 -258q-41 -39 -99.5 -59t-126.5 -20q-141 0 -227 79q-98 90 -98 258v1115h174v-1115q0 -84 37 -123.5t114 -39.5q78 0 114 40t36 123v1115h260q16 0 28.5 12t12.5 29h88z" glyph-name="uhorn" horiz-adv-x="901" unicode="ư"/><glyph d="M914.5 1396q37.5 -38 37.5 -91h-88q0 16 -12 28.5t-29 12.5h-86l-260 -848v-498h-174v498l-287 936h183l192 -627l193 627h239q54 0 91.5 -38z" glyph-name="uni01B3" horiz-adv-x="911" unicode="Ƴ"/><glyph d="M914.5 1396q37.5 -38 37.5 -91h-88q0 16 -12 28.5t-29 12.5h-86l-260 -848v-498h-174v498l-287 936h183l192 -627l193 627h239q54 0 91.5 -38z" glyph-name="uni01B4" horiz-adv-x="911" unicode="ƴ"/><glyph d="M623 0l-56 297h-299l-57 -297h-178l301 1434h168l299 -1434h-178zM301 471h234l-117 616zM643 1720l-139 -211h-174l-140 211h105l123 -116l123 116h102z" glyph-name="uni01CD" unicode="Ǎ"/><glyph d="M623 0l-56 297h-299l-57 -297h-178l301 1434h168l299 -1434h-178zM301 471h234l-117 616zM643 1720l-139 -211h-174l-140 211h105l123 -116l123 116h102z" glyph-name="uni01CE" unicode="ǎ"/><glyph d="M256 0h-174v1434h174v-1434zM395 1720l-139 -211h-174l-139 211h104l123 -116l123 116h102z" glyph-name="uni01CF" horiz-adv-x="337" unicode="Ǐ"/><glyph d="M256 0h-174v1434h174v-1434zM395 1720l-139 -211h-174l-139 211h104l123 -116l123 116h102z" glyph-name="uni01D0" horiz-adv-x="337" unicode="ǐ"/><glyph d="M621 61q-90 -80 -228 -79q-137 0 -227 79q-96 90 -96 258v795q0 166 96 258q90 80 227 80t228 -80q96 -92 96 -258v-795q0 -168 -96 -258zM507 1238q-36 40 -114 40t-113.5 -40t-35.5 -124v-795q0 -84 35.5 -123.5t113.5 -39.5t114 40t36 123v795q0 84 -36 124zM618 1720 l-139 -211h-174l-139 211h104l123 -116l123 116h102z" glyph-name="uni01D1" horiz-adv-x="786" unicode="Ǒ"/><glyph d="M621 61q-90 -80 -228 -79q-137 0 -227 79q-96 90 -96 258v795q0 166 96 258q90 80 227 80t228 -80q96 -92 96 -258v-795q0 -168 -96 -258zM507 1238q-36 40 -114 40t-113.5 -40t-35.5 -124v-795q0 -84 35.5 -123.5t113.5 -39.5t114 40t36 123v795q0 84 -36 124zM618 1720 l-139 -211h-174l-139 211h104l123 -116l123 116h102z" glyph-name="uni01D2" horiz-adv-x="786" unicode="ǒ"/><glyph d="M529.5 2.5q-58.5 -20.5 -126.5 -20.5q-141 0 -227 79q-98 90 -98 258v1115h174v-1115q0 -84 37 -123.5t114 -39.5q78 0 114 40t36 123v1115h174v-1115q0 -168 -98 -258q-41 -38 -99.5 -58.5zM629 1720l-140 -211h-174l-139 211h105l122 -116l123 116h103z" glyph-name="uni01D3" horiz-adv-x="804" unicode="Ǔ"/><glyph d="M529.5 2.5q-58.5 -20.5 -126.5 -20.5q-141 0 -227 79q-98 90 -98 258v1115h174v-1115q0 -84 37 -123.5t114 -39.5q78 0 114 40t36 123v1115h174v-1115q0 -168 -98 -258q-41 -38 -99.5 -58.5zM629 1720l-140 -211h-174l-139 211h105l122 -116l123 116h103z" glyph-name="uni01D4" horiz-adv-x="804" unicode="ǔ"/><glyph d="M629 61q-86 -80 -228 -79q-68 0 -126 20.5t-99 58.5q-98 90 -98 258v1115h174v-1115q0 -84 36 -123.5t113 -39.5q78 0 115 40t37 123v1115h174v-1115q0 -168 -98 -258zM485.5 1536q-26.5 27 -26.5 66t26.5 65.5t65.5 26.5t65.5 -27t26.5 -65q0 -39 -26.5 -66t-65.5 -27 t-65.5 27zM190.5 1536q-26.5 27 -26.5 66t26.5 65.5t65.5 26.5t65.5 -27t26.5 -65q0 -39 -26.5 -66t-65.5 -27t-65.5 27zM715 1772h-623v92h623v-92z" glyph-name="uni01D5" horiz-adv-x="804" unicode="Ǖ"/><glyph d="M629 61q-86 -80 -228 -79q-68 0 -126 20.5t-99 58.5q-98 90 -98 258v1115h174v-1115q0 -84 36 -123.5t113 -39.5q78 0 115 40t37 123v1115h174v-1115q0 -168 -98 -258zM485.5 1536q-26.5 27 -26.5 66t26.5 65.5t65.5 26.5t65.5 -27t26.5 -65q0 -39 -26.5 -66t-65.5 -27 t-65.5 27zM190.5 1536q-26.5 27 -26.5 66t26.5 65.5t65.5 26.5t65.5 -27t26.5 -65q0 -39 -26.5 -66t-65.5 -27t-65.5 27zM715 1772h-623v92h623v-92z" glyph-name="uni01D6" horiz-adv-x="804" unicode="ǖ"/><glyph d="M529.5 2.5q-58.5 -20.5 -126.5 -20.5q-141 0 -227 79q-98 90 -98 258v1115h174v-1115q0 -84 37 -123.5t114 -39.5q78 0 114 40t36 123v1115h174v-1115q0 -168 -98 -258q-41 -38 -99.5 -58.5zM319.5 1667q26.5 -27 26.5 -65q0 -39 -26.5 -66t-65.5 -27t-65.5 27t-26.5 66 t26.5 65.5t65.5 26.5t65.5 -27zM614.5 1667q26.5 -27 26.5 -65q0 -39 -26.5 -66t-65.5 -27t-65.5 27t-26.5 66t26.5 65.5t65.5 26.5t65.5 -27zM489 1985h175l-209 -213h-105z" glyph-name="uni01D7" horiz-adv-x="804" unicode="Ǘ"/><glyph d="M529.5 2.5q-58.5 -20.5 -126.5 -20.5q-141 0 -227 79q-98 90 -98 258v1115h174v-1115q0 -84 37 -123.5t114 -39.5q78 0 114 40t36 123v1115h174v-1115q0 -168 -98 -258q-41 -38 -99.5 -58.5zM319.5 1667q26.5 -27 26.5 -65q0 -39 -26.5 -66t-65.5 -27t-65.5 27t-26.5 66 t26.5 65.5t65.5 26.5t65.5 -27zM614.5 1667q26.5 -27 26.5 -65q0 -39 -26.5 -66t-65.5 -27t-65.5 27t-26.5 66t26.5 65.5t65.5 26.5t65.5 -27zM489 1985h175l-209 -213h-105z" glyph-name="uni01D8" horiz-adv-x="804" unicode="ǘ"/><glyph d="M529.5 2.5q-58.5 -20.5 -126.5 -20.5q-141 0 -227 79q-98 90 -98 258v1115h174v-1115q0 -84 37 -123.5t114 -39.5q78 0 114 40t36 123v1115h174v-1115q0 -168 -98 -258q-41 -38 -99.5 -58.5zM319.5 1667q26.5 -27 26.5 -65q0 -39 -26.5 -66t-65.5 -27t-65.5 27t-26.5 66 t26.5 65.5t65.5 26.5t65.5 -27zM614.5 1667q26.5 -27 26.5 -65q0 -39 -26.5 -66t-65.5 -27t-65.5 27t-26.5 66t26.5 65.5t65.5 26.5t65.5 -27zM629 1982l-140 -210h-174l-139 210h105l122 -116l123 116h103z" glyph-name="uni01D9" horiz-adv-x="804" unicode="Ǚ"/><glyph d="M529.5 2.5q-58.5 -20.5 -126.5 -20.5q-141 0 -227 79q-98 90 -98 258v1115h174v-1115q0 -84 37 -123.5t114 -39.5q78 0 114 40t36 123v1115h174v-1115q0 -168 -98 -258q-41 -38 -99.5 -58.5zM319.5 1667q26.5 -27 26.5 -65q0 -39 -26.5 -66t-65.5 -27t-65.5 27t-26.5 66 t26.5 65.5t65.5 26.5t65.5 -27zM614.5 1667q26.5 -27 26.5 -65q0 -39 -26.5 -66t-65.5 -27t-65.5 27t-26.5 66t26.5 65.5t65.5 26.5t65.5 -27zM629 1982l-140 -210h-174l-139 210h105l122 -116l123 116h103z" glyph-name="uni01DA" horiz-adv-x="804" unicode="ǚ"/><glyph d="M629 61q-86 -80 -228 -79q-68 0 -126 20.5t-99 58.5q-98 90 -98 258v1115h174v-1115q0 -84 36 -123.5t113 -39.5q78 0 115 40t37 123v1115h174v-1115q0 -168 -98 -258zM485.5 1536q-26.5 27 -26.5 66t26.5 65.5t65.5 26.5t65.5 -27t26.5 -65q0 -39 -26.5 -66t-65.5 -27 t-65.5 27zM190.5 1536q-26.5 27 -26.5 66t26.5 65.5t65.5 26.5t65.5 -27t26.5 -65q0 -39 -26.5 -66t-65.5 -27t-65.5 27zM315 1985l140 -213h-105l-209 213h174z" glyph-name="uni01DB" horiz-adv-x="804" unicode="Ǜ"/><glyph d="M629 61q-86 -80 -228 -79q-68 0 -126 20.5t-99 58.5q-98 90 -98 258v1115h174v-1115q0 -84 36 -123.5t113 -39.5q78 0 115 40t37 123v1115h174v-1115q0 -168 -98 -258zM485.5 1536q-26.5 27 -26.5 66t26.5 65.5t65.5 26.5t65.5 -27t26.5 -65q0 -39 -26.5 -66t-65.5 -27 t-65.5 27zM190.5 1536q-26.5 27 -26.5 66t26.5 65.5t65.5 26.5t65.5 -27t26.5 -65q0 -39 -26.5 -66t-65.5 -27t-65.5 27zM315 1985l140 -213h-105l-209 213h174z" glyph-name="uni01DC" horiz-adv-x="804" unicode="ǜ"/><glyph d="M63 1260v174h566v-1434h-566v174h392v473h-273v174h273v439h-392z" glyph-name="uni01DD" horiz-adv-x="710" unicode="ǝ"/><glyph d="M623 0l-56 297h-299l-57 -297h-178l301 1434h168l299 -1434h-178zM301 471h234l-117 616zM335.5 1667q26.5 -27 26.5 -65q0 -39 -26.5 -66t-65.5 -27t-65.5 27t-26.5 66t26.5 65.5t65.5 26.5t65.5 -27zM630.5 1667q26.5 -27 26.5 -65q0 -39 -26.5 -66t-65.5 -27t-65.5 27 t-26.5 66t26.5 65.5t65.5 26.5t65.5 -27zM729 1772h-623v92h623v-92z" glyph-name="uni01DE" unicode="Ǟ"/><glyph d="M623 0l-56 297h-299l-57 -297h-178l301 1434h168l299 -1434h-178zM301 471h234l-117 616zM335.5 1667q26.5 -27 26.5 -65q0 -39 -26.5 -66t-65.5 -27t-65.5 27t-26.5 66t26.5 65.5t65.5 26.5t65.5 -27zM630.5 1667q26.5 -27 26.5 -65q0 -39 -26.5 -66t-65.5 -27t-65.5 27 t-26.5 66t26.5 65.5t65.5 26.5t65.5 -27zM729 1772h-623v92h623v-92z" glyph-name="uni01DF" unicode="ǟ"/><glyph d="M623 61q-90 -80 -228 -79q-137 0 -227 79q-98 90 -98 258v795q0 166 98 258q90 80 227 80t228 -80q96 -92 96 -258v-131h-174v131q0 84 -36 124t-114 40t-114.5 -40t-36.5 -124v-795q0 -84 36.5 -123.5t114.5 -39.5t114 40t36 123v310h-150v174h324v-484q0 -168 -96 -258 zM618 1720l-139 -211h-174l-139 211h104l123 -116l123 116h102z" glyph-name="Gcaron" horiz-adv-x="1228" unicode="Ǧ"/><glyph d="M623 61q-90 -80 -228 -79q-137 0 -227 79q-98 90 -98 258v795q0 166 98 258q90 80 227 80t228 -80q96 -92 96 -258v-131h-174v131q0 84 -36 124t-114 40t-114.5 -40t-36.5 -124v-795q0 -84 36.5 -123.5t114.5 -39.5t114 40t36 123v310h-150v174h324v-484q0 -168 -96 -258 zM618 1720l-139 -211h-174l-139 211h104l123 -116l123 116h102z" glyph-name="gcaron" horiz-adv-x="1228" unicode="ǧ"/><glyph d="M688 1272q31 -68 31 -160v-795q0 -166 -98 -256q-82 -80 -226 -79q-143 0 -227 79q-6 2 -8 9l-49 -109l-82 37l71 160q-31 68 -30 159v795q0 168 98 256q82 80 227 80q143 0 226 -80q6 -2 8 -8l49 108l82 -36zM244 485l297 674q-8 59 -44 87t-102 28q-78 0 -114.5 -39 t-36.5 -123v-627zM545 944l-297 -674q8 -59 45 -86.5t102 -27.5q78 0 114 38.5t36 122.5v627z" glyph-name="Oslashacute" horiz-adv-x="788" unicode="Ǿ"/><glyph d="M688 1272q31 -68 31 -160v-795q0 -166 -98 -256q-82 -80 -226 -79q-143 0 -227 79q-6 2 -8 9l-49 -109l-82 37l71 160q-31 68 -30 159v795q0 168 98 256q82 80 227 80q143 0 226 -80q6 -2 8 -8l49 108l82 -36zM244 485l297 674q-8 59 -44 87t-102 28q-78 0 -114.5 -39 t-36.5 -123v-627zM545 944l-297 -674q8 -59 45 -86.5t102 -27.5q78 0 114 38.5t36 122.5v627z" glyph-name="oslashacute" horiz-adv-x="788" unicode="ǿ"/><glyph d="M606 61q-86 -80 -227 -79q-68 0 -126 20.5t-99 58.5q-98 90 -99 258v195h174v-195q0 -84 36 -123.5t114 -39.5t114.5 40t36.5 123v95q0 59 -15 96t-38 63q-23 27 -55.5 47.5t-85.5 51.5q-66 37 -108 65.5t-76 67.5q-96 104 -97 270v39q0 166 99 258q41 39 99 59.5 t126 20.5q141 0 227 -80q98 -92 99 -258v-131h-175v131q0 84 -36.5 124t-114.5 40t-114 -40t-36 -124v-39q0 -96 52 -153q23 -27 53.5 -46.5t85.5 -52.5q61 -33 105 -63.5t81 -71.5q98 -106 99 -274v-95q-1 -168 -99 -258zM446 -260q-12 -25 -61 -98h-68l21 51q0 4 3 12 t3 14q0 16 -14 29q-41 31 -41 78q0 39 26.5 65.5t65.5 26.5t65.5 -26.5t26.5 -65.5q0 -33 -27 -86z" glyph-name="Scommaaccent" horiz-adv-x="759" unicode="Ș"/><glyph d="M606 61q-86 -80 -227 -79q-68 0 -126 20.5t-99 58.5q-98 90 -99 258v195h174v-195q0 -84 36 -123.5t114 -39.5t114.5 40t36.5 123v95q0 59 -15 96t-38 63q-23 27 -55.5 47.5t-85.5 51.5q-66 37 -108 65.5t-76 67.5q-96 104 -97 270v39q0 166 99 258q41 39 99 59.5 t126 20.5q141 0 227 -80q98 -92 99 -258v-131h-175v131q0 84 -36.5 124t-114.5 40t-114 -40t-36 -124v-39q0 -96 52 -153q23 -27 53.5 -46.5t85.5 -52.5q61 -33 105 -63.5t81 -71.5q98 -106 99 -274v-95q-1 -168 -99 -258zM446 -260q-12 -25 -61 -98h-68l21 51q0 4 3 12 t3 14q0 16 -14 29q-41 31 -41 78q0 39 26.5 65.5t65.5 26.5t65.5 -26.5t26.5 -65.5q0 -33 -27 -86z" glyph-name="scommaaccent" horiz-adv-x="759" unicode="ș"/><glyph d="M682 1432v-175h-242v-1257h-174v1257h-239v175h655zM418 -260q-12 -25 -62 -98h-67l20 51q0 4 3 12t3 14q0 16 -14 29q-41 31 -41 78q0 39 26.5 65.5t65.5 26.5t65.5 -26.5t26.5 -65.5q1 -33 -26 -86z" glyph-name="uni021A" horiz-adv-x="706" unicode="Ț"/><glyph d="M682 1432v-175h-242v-1257h-174v1257h-239v175h655zM418 -260q-12 -25 -62 -98h-67l20 51q0 4 3 12t3 14q0 16 -14 29q-41 31 -41 78q0 39 26.5 65.5t65.5 26.5t65.5 -26.5t26.5 -65.5q1 -33 -26 -86z" glyph-name="uni021B" horiz-adv-x="706" unicode="ț"/><glyph d="M285 1260v-439h272v-174h-272v-473h391v-174h-238q4 -8 11 -12q4 0 4 -4q29 -20 48 -46t19 -69q0 -53 -38 -92t-91 -39t-92 39t-39 92h88q0 -16 12.5 -29.5t30.5 -13.5q16 0 28.5 13.5t12.5 29.5q0 14 -6 23.5t-25 21.5q-2 0 -6 4q-45 35 -47 82h-237v1434h565v-174h-391 z" glyph-name="uni0228" horiz-adv-x="1228" unicode="Ȩ"/><glyph d="M285 1260v-439h272v-174h-272v-473h391v-174h-238q4 -8 11 -12q4 0 4 -4q29 -20 48 -46t19 -69q0 -53 -38 -92t-91 -39t-92 39t-39 92h88q0 -16 12.5 -29.5t30.5 -13.5q16 0 28.5 13.5t12.5 29.5q0 14 -6 23.5t-25 21.5q-2 0 -6 4q-45 35 -47 82h-237v1434h565v-174h-391 z" glyph-name="uni0229" horiz-adv-x="1228" unicode="ȩ"/><glyph d="M621 61q-90 -80 -228 -79q-137 0 -227 79q-96 90 -96 258v795q0 166 96 258q90 80 227 80t228 -80q96 -92 96 -258v-795q0 -168 -96 -258zM507 1238q-36 40 -114 40t-113.5 -40t-35.5 -124v-795q0 -84 35.5 -123.5t113.5 -39.5t114 40t36 123v795q0 84 -36 124z M311.5 1667q26.5 -27 26.5 -65q0 -39 -26.5 -66t-65.5 -27t-65.5 27t-26.5 66t26.5 65.5t65.5 26.5t65.5 -27zM606.5 1667q26.5 -27 26.5 -65q0 -39 -26.5 -66t-65.5 -27t-65.5 27t-26.5 66t26.5 65.5t65.5 26.5t65.5 -27zM705 1772h-623v92h623v-92z" glyph-name="uni022A" horiz-adv-x="786" unicode="Ȫ"/><glyph d="M621 61q-90 -80 -228 -79q-137 0 -227 79q-96 90 -96 258v795q0 166 96 258q90 80 227 80t228 -80q96 -92 96 -258v-795q0 -168 -96 -258zM507 1238q-36 40 -114 40t-113.5 -40t-35.5 -124v-795q0 -84 35.5 -123.5t113.5 -39.5t114 40t36 123v795q0 84 -36 124z M311.5 1667q26.5 -27 26.5 -65q0 -39 -26.5 -66t-65.5 -27t-65.5 27t-26.5 66t26.5 65.5t65.5 26.5t65.5 -27zM606.5 1667q26.5 -27 26.5 -65q0 -39 -26.5 -66t-65.5 -27t-65.5 27t-26.5 66t26.5 65.5t65.5 26.5t65.5 -27zM705 1772h-623v92h623v-92z" glyph-name="uni022B" horiz-adv-x="786" unicode="ȫ"/><glyph d="M772 465v-135q0 -166 -100 -254q-86 -76 -226 -76h-235h-88v315h-123v174h123v945h293q141 0 225 -76q98 -86 98 -254v-139q0 -76 -21.5 -133.5t-72.5 -100.5q127 -84 127 -266zM297 803h119q78 0 113.5 39t35.5 123v139q0 84 -34.5 120t-114.5 36h-119v-457zM598 465 q0 84 -37 124t-115 40h-149v-140h119v-174h-119v-141h149q76 0 111 31q41 37 41 125v135z" glyph-name="uni0243" horiz-adv-x="1228" unicode="Ƀ"/><glyph d="M819 692h-82v-373q0 -168 -98 -258q-41 -39 -99.5 -59t-125.5 -20q-141 0 -228 79q-98 90 -98 258v373h-82v90h82v652h174v-652h301v652h174v-652h82v-90zM563 692h-301v-373q0 -84 37 -123.5t115 -39.5t113.5 40t35.5 123v373z" glyph-name="uni0244" horiz-adv-x="825" unicode="Ʉ"/><glyph d="M618 0l-204 1087l-207 -1087h-178l299 1434h170l299 -1434h-179z" glyph-name="uni0245" horiz-adv-x="825" unicode="Ʌ"/><glyph d="M643 678q-31 -31 -74 -49l172 -629h-180l-164 598h-131v-598h-174v598h-82v174h82v662h324q141 0 227 -80q98 -88 98 -258v-162q0 -166 -98 -256zM567 1096q0 84 -36.5 124t-114.5 40h-150v-488h150q78 0 114.5 39t36.5 123v162z" glyph-name="uni024C" horiz-adv-x="798" unicode="Ɍ"/><glyph d="M643 678q-31 -31 -74 -49l172 -629h-180l-164 598h-131v-598h-174v598h-82v174h82v662h324q141 0 227 -80q98 -88 98 -258v-162q0 -166 -98 -256zM567 1096q0 84 -36.5 124t-114.5 40h-150v-488h150q78 0 114.5 39t36.5 123v162z" glyph-name="uni024D" horiz-adv-x="798" unicode="ɍ"/><glyph d="M623 1434h178l-299 -1434h-168l-301 1434h178l57 -297h299zM301 963l117 -617l117 617h-234z" glyph-name="uni0250" unicode="ɐ"/><glyph d="M823 465v-135q0 -168 -98 -254q-88 -76 -225 -76h-326v1343h-86q-16 0 -28.5 -12t-12.5 -28h-88q0 53 38 91t91 38h379q143 0 225 -76q98 -86 99 -254v-137q0 -76 -21.5 -133.5t-73.5 -100.5q127 -84 127 -266zM348 803h119q78 0 113.5 39t35.5 123v137q0 84 -34.5 119.5 t-114.5 35.5h-119v-454zM649 465q0 84 -35.5 124t-113.5 40h-152v-455h152q74 0 110 31q39 39 39 125v135z" glyph-name="uni0253" horiz-adv-x="882" unicode="ɓ"/><glyph d="M612 61q-86 -80 -225 -79q-137 0 -227 79q-98 90 -99 258v193h175v-193q0 -84 36.5 -123.5t114.5 -39.5t114 40t36 123v797q0 84 -36 124t-114 40t-114.5 -40t-36.5 -124v-131h-175v131q0 166 99 258q90 80 227 80q139 0 225 -80q98 -92 99 -258v-797q-1 -168 -99 -258z " glyph-name="uni0254" horiz-adv-x="780" unicode="ɔ"/><glyph d="M823 1096v-766q0 -166 -98 -256q-86 -74 -225 -74h-326v1346h-86q-16 0 -28.5 -12.5t-12.5 -28.5h-88q0 53 38 91t91 38h412q139 0 225 -80q98 -92 98 -258zM649 1096q0 84 -35.5 124t-113.5 40h-152v-1086h152q76 0 108 31q41 37 41 125v766z" glyph-name="uni0257" horiz-adv-x="892" unicode="ɗ"/><glyph d="M63 1260v174h566v-1434h-566v174h392v473h-273v174h273v439h-392z" glyph-name="uni0258" horiz-adv-x="710" unicode="ɘ"/><glyph d="M669 1545q38 38 91 38v-88q-16 0 -28.5 -12.5t-12.5 -28.5v-471h-174v131q0 84 -36 124t-114 40t-114.5 -40t-36.5 -124v-795q0 -84 36.5 -123.5t114.5 -39.5t114 40t36 123v310h-150v174h324v-484q0 -168 -96 -258q-90 -80 -228 -79q-137 0 -227 79q-98 90 -98 258v795 q0 166 98 258q90 80 227 80t228 -80l8 -8v90q0 53 38 91z" glyph-name="uni0260" horiz-adv-x="788" unicode="ɠ"/><glyph d="M623 61q-90 -80 -228 -79q-137 0 -227 79q-98 90 -98 258v590q0 166 98 258q90 80 227 80t228 -80q96 -92 96 -258v-28h-174v28q0 84 -36 124t-114 40t-114.5 -40t-36.5 -124v-590q0 -84 36.5 -123.5t114.5 -39.5t114 40t36 123v207h-150v174h324v-381q0 -168 -96 -258z " glyph-name="uni0262" horiz-adv-x="788" unicode="ɢ"/><glyph d="M555 1434h174v-1434h-174v647h-299v-647h-174v1434h174v-613h299v613z" glyph-name="uni0265" horiz-adv-x="811" unicode="ɥ"/><glyph d="M821 1434v-1434h-174v647h-299v-647h-174v1346h-86q-16 0 -28.5 -12.5t-12.5 -28.5h-88q0 53 38 91t91 38h260v-613h299v613h174z" glyph-name="uni0266" horiz-adv-x="903" unicode="ɦ"/><glyph d="M348 782v-90h-82v-692h-174v692h-82v90h82v652h174v-652h82z" glyph-name="uni0268" horiz-adv-x="358" unicode="ɨ"/><glyph d="M256 0h-174v1229h174v-1229z" glyph-name="uni026A" horiz-adv-x="337" unicode="ɪ"/><glyph d="M541 948l-361 -948h-98v1434h174v-809l236 632h96l235 -632v809h174v-1434h-98z" glyph-name="uni026F" horiz-adv-x="1079" unicode="ɯ"/><glyph d="M750 1434v-1434h-97l-399 864v-864q0 -88 -48 -151.5t-167 -63.5v88q16 0 28.5 12.5t12.5 28.5v1520h96l399 -867v867h175z" glyph-name="uni0272" horiz-adv-x="829" unicode="ɲ"/><glyph d="M254 721v-721h-174v1229h96l399 -723v723h175v-1229h-97z" glyph-name="uni0274" horiz-adv-x="829" unicode="ɴ"/><glyph d="M627 1055v-334h272v-174h-272v-373h391v-174h-625q-137 0 -227 80q-96 92 -96 258v553q0 168 96 258q90 80 227 80h625v-174h-391zM279.5 214q35.5 -40 113.5 -40h60v881h-60q-78 0 -113.5 -40t-35.5 -124v-553q0 -84 35.5 -124z" glyph-name="uni0276" horiz-adv-x="1081" unicode="ɶ"/><glyph d="M729 0h-182l-195 496h-96v-496h-174v1229h324q137 0 227 -80q96 -90 96 -258v-60q0 -166 -96 -256q-43 -39 -105 -61zM519 709q36 39 36 122v60q0 84 -36 124t-113 40h-150v-385h150q77 0 113 39z" glyph-name="uni0280" horiz-adv-x="786" unicode="ʀ"/><glyph d="M633 653q96 -90 96 -256v-59q0 -168 -96 -258q-90 -80 -227 -80h-324v1229h174v-496h96l195 496h182l-201 -514q62 -21 105 -62zM256 559v-385h150q78 0 113.5 40t35.5 124v59q0 84 -36 123t-113 39h-150z" glyph-name="uni0281" horiz-adv-x="786" unicode="ʁ"/><glyph d="M440 1257v-1343q0 -16 12.5 -28.5t28.5 -12.5v-88q-119 0 -167 63.5t-48 151.5v1257h-239v175h655v-175h-242z" glyph-name="uni0288" horiz-adv-x="706" unicode="ʈ"/><glyph d="M819 692h-82v-373q0 -168 -98 -258q-41 -39 -99.5 -59t-125.5 -20q-141 0 -228 79q-98 90 -98 258v373h-82v90h82v652h174v-652h301v652h174v-652h82v-90zM563 692h-301v-373q0 -84 37 -123.5t115 -39.5t113.5 40t35.5 123v373z" glyph-name="uni0289" horiz-adv-x="825" unicode="ʉ"/><glyph d="M618 0l-204 1087l-207 -1087h-178l299 1434h170l299 -1434h-179z" glyph-name="uni028C" horiz-adv-x="825" unicode="ʌ"/><glyph d="M512 653l227 781h74l174 -1434h-174l-94 809l-168 -584h-76l-168 584l-94 -809h-176l176 1434h72z" glyph-name="uni028D" horiz-adv-x="1024" unicode="ʍ"/><glyph d="M391 627l-192 -627h-183l287 936v498h174v-498l287 -936h-180z" glyph-name="uni028E" horiz-adv-x="778" unicode="ʎ"/><glyph d="M391 705l193 524h180l-287 -834v-395h-174v395l-287 834h183z" glyph-name="uni028F" horiz-adv-x="778" unicode="ʏ"/><glyph d="M408 0h-326v1227h293q143 0 225 -76q98 -86 98 -254v-35q0 -76 -21.5 -133t-72.5 -100q127 -84 127 -267v-32q0 -168 -98 -254q-88 -76 -225 -76zM408 526h-152v-352h152q74 0 110 31q39 39 39 125v32q0 84 -35.5 124t-113.5 40zM256 1053v-353h119q78 0 113.5 39 t35.5 123v35q0 84 -34.5 120t-114.5 36h-119z" glyph-name="uni0299" horiz-adv-x="790" unicode="ʙ"/><glyph d="M669 1340.5q38 37.5 91 37.5v-88q-16 0 -28.5 -12t-12.5 -29v-368h-174v28q0 84 -36 124t-114 40t-114.5 -40t-36.5 -124v-590q0 -84 36.5 -123.5t114.5 -39.5t114 40t36 123v207h-150v174h324v-381q0 -168 -96 -258q-90 -80 -228 -79q-137 0 -227 79q-98 90 -98 258v590 q0 166 98 258q90 80 227 80t228 -80l8 -8v90q0 54 38 91.5z" glyph-name="uni029B" horiz-adv-x="788" unicode="ʛ"/><glyph d="M555 1229h174v-1229h-174v545h-299v-545h-174v1229h174v-510h299v510z" glyph-name="uni029C" horiz-adv-x="811" unicode="ʜ"/><glyph d="M647 0h-565v1227h174v-1053h391v-174z" glyph-name="uni029F" horiz-adv-x="679" unicode="ʟ"/><glyph d="M473 1720l-139 -211h-174l-140 211h105l123 -116l123 116h102z" glyph-name="circumflex" horiz-adv-x="493" unicode="ˆ"/><glyph d="M473 1509h-102l-123 117l-123 -117h-105l140 211h174z" glyph-name="caron" horiz-adv-x="493" unicode="ˇ"/><glyph d="M434 1716q0 -84 -60.5 -145.5t-146.5 -61.5t-146.5 61.5t-60.5 145.5h89q0 -49 34.5 -84t83.5 -35t84 35t35 84h88z" glyph-name="breve" horiz-adv-x="454" unicode="˘"/><glyph d="M178.5 1667q26.5 -27 26.5 -65q0 -39 -26.5 -66t-65.5 -27t-66 27t-27 66t27 65.5t66 26.5t65.5 -27z" glyph-name="dotaccent" horiz-adv-x="225" unicode="˙"/><glyph d="M243 1553.5q-38 -37.5 -91 -37.5t-92.5 37.5t-39.5 91.5q0 53 39 92t93 39q53 0 91 -39t38 -92q0 -54 -38 -91.5zM180.5 1675.5q-12.5 12.5 -28.5 12.5t-29.5 -12.5t-13.5 -30.5q0 -16 13 -28.5t30 -12.5q16 0 28.5 12t12.5 29q0 18 -12.5 30.5z" glyph-name="ring" horiz-adv-x="301" unicode="˚"/><glyph d="M174 1569q-37 -6 -86 -64l-68 56q80 98 166 98q55 0 125 -41q47 -29 84 -23q39 8 82 62l70 -53q-76 -98 -166 -99q-57 0 -115 37q-55 33 -92 27z" glyph-name="tilde" horiz-adv-x="567" unicode="˜"/><glyph d="M158 1724h176l-211 -215h-103zM434 1724h176l-211 -215h-102z" glyph-name="hungarumlaut" horiz-adv-x="630" unicode="˝"/><glyph d="M-158 1724l138 -215h-103l-211 215h176z" glyph-name="gravecomb" horiz-adv-x="0" unicode="̀"/><glyph d="M-197 1724h177l-211 -215h-103z" glyph-name="acutecomb" horiz-adv-x="0" unicode="́"/><glyph d="M-20 1509h-103l-123 117l-123 -117h-104l139 211h174z" glyph-name="uni0302" horiz-adv-x="0" unicode="̂"/><glyph d="M-393 1569q-37 -6 -86 -64l-68 56q80 98 166 98q55 0 125 -41q47 -29 84 -23q39 8 82 62l70 -53q-76 -98 -166 -99q-57 0 -115 37q-55 33 -92 27z" glyph-name="tildecomb" horiz-adv-x="0" unicode="̃"/><glyph d="M-20 1509h-621v93h621v-93z" glyph-name="uni0304" horiz-adv-x="0" unicode="̄"/><glyph d="M-20 1716q0 -84 -60.5 -145.5t-146.5 -61.5t-146.5 61.5t-60.5 145.5h88q0 -49 35 -84t84 -35t83.5 35t34.5 84h89z" glyph-name="uni0306" horiz-adv-x="0" unicode="̆"/><glyph d="M-47 1667q27 -27 27 -65q0 -39 -27 -66t-66 -27t-65.5 27t-26.5 66t26.5 65.5t65.5 26.5t66 -27z" glyph-name="uni0307" horiz-adv-x="0" unicode="̇"/><glyph d="M-342 1667q27 -27 27 -65q0 -39 -27 -66t-66 -27t-65.5 27t-26.5 66t27 65.5t65 26.5q39 0 66 -27zM-47 1667q27 -27 27 -65q0 -39 -27 -66t-66 -27t-65.5 27t-26.5 66t26.5 65.5t65.5 26.5t66 -27z" glyph-name="uni0308" horiz-adv-x="0" unicode="̈"/><glyph d="M-125 1509h105h-105zM-90.5 1655.5q61.5 -60.5 61.5 -146.5h-88q0 49 -34.5 84t-84.5 35l-75 74q35 14 75 14q84 0 145.5 -60.5z" glyph-name="hookabovecomb" horiz-adv-x="0" unicode="̉"/><glyph d="M-58 1553.5q-38 -37.5 -92 -37.5q-53 0 -92 37.5t-39 91.5q0 53 39 92t92 39t91.5 -39t38.5 -92q0 -54 -38 -91.5zM-121 1675.5q-12 12.5 -29 12.5q-16 0 -29.5 -12.5t-13.5 -30.5q0 -16 13.5 -28.5t29.5 -12.5t28.5 12t12.5 29q0 18 -12 30.5z" glyph-name="uni030A" horiz-adv-x="0" unicode="̊"/><glyph d="M-473 1724h176l-211 -215h-102zM-197 1724h177l-211 -215h-103z" glyph-name="uni030B" horiz-adv-x="0" unicode="̋"/><glyph d="M-20 1720l-140 -211h-174l-139 211h104l123 -116l123 116h103z" glyph-name="uni030C" horiz-adv-x="0" unicode="̌"/><glyph d="M-178 1688q12 25 61 98h68l-21 -51q0 -4 -3 -12.5t-3 -14.5q0 -16 15 -29q41 -31 41 -77q0 -39 -27 -66t-66 -27t-65.5 27t-26.5 66q0 33 27 86z" glyph-name="uni0312" horiz-adv-x="0" unicode="̒"/><glyph d="M-110.5 1313.5q14.5 13.5 14.5 34.5v86h76v-86q0 -51 -37 -87t-88 -36v75q20 0 34.5 13.5z" glyph-name="uni031B" horiz-adv-x="0" unicode="̛"/><glyph d="M-178.5 -108.5q26.5 26.5 65.5 26.5t66 -26.5t27 -65.5t-27 -65.5t-66 -26.5t-65.5 26.5t-26.5 65.5t26.5 65.5z" glyph-name="dotbelowcomb" horiz-adv-x="0" unicode="̣"/><glyph d="M-47 -260q-12 -25 -62 -98h-67l20 51q0 4 3 12t3 14q0 16 -14 29q-41 31 -41 78q0 39 26.5 65.5t65.5 26.5t66 -26.5t27 -65.5q0 -33 -27 -86z" glyph-name="uni0326" horiz-adv-x="0" unicode="̦"/><glyph d="M-102 0v-8q0 -12 14 -23q29 -20 48.5 -45.5t19.5 -68.5q0 -53 -38 -92t-92 -39q-53 0 -92 38.5t-39 92.5h88q0 -16 12.5 -29.5t30.5 -13.5q16 0 28.5 13t12.5 30q0 14 -6 23t-24 22q-29 20 -41.5 36.5t-12.5 49.5v14l132 2z" glyph-name="uni0327" horiz-adv-x="0" unicode="̧"/><glyph d="M-35 -258h-39q-78 0 -127 25.5t-49 82.5q0 80 135 150h95q-47 -16 -81 -52t-34 -69q0 -45 82 -45h18v-92z" glyph-name="uni0328" horiz-adv-x="0" unicode="̨"/><glyph d="M-20 -174h-621v92h621v-92z" glyph-name="uni0331" horiz-adv-x="0" unicode="̱"/><glyph d="M-20 688h-621v92h621v-92z" glyph-name="uni0335" horiz-adv-x="0" unicode="̵"/><glyph d="M-20 688h-621v92h621v-92z" glyph-name="uni0336" horiz-adv-x="0" unicode="̶"/><glyph d="M408 0h-326v1432h293q143 0 225 -76q98 -86 98 -254v-137q0 -76 -21.5 -133.5t-72.5 -100.5q127 -84 127 -266v-135q0 -168 -98 -254q-88 -76 -225 -76zM408 629h-152v-455h152q74 0 110 31q39 39 39 125v135q0 84 -35.5 124t-113.5 40zM256 1257v-454h119q78 0 113.5 39 t35.5 123v137q0 84 -34.5 119.5t-114.5 35.5h-119zM342 -108.5q27 26.5 66 26.5t65.5 -26.5t26.5 -65.5t-27 -65.5t-65 -26.5q-39 0 -66 26.5t-27 65.5t27 65.5z" glyph-name="uni1E04" horiz-adv-x="1228" unicode="Ḅ"/><glyph d="M408 0h-326v1432h293q143 0 225 -76q98 -86 98 -254v-137q0 -76 -21.5 -133.5t-72.5 -100.5q127 -84 127 -266v-135q0 -168 -98 -254q-88 -76 -225 -76zM408 629h-152v-455h152q74 0 110 31q39 39 39 125v135q0 84 -35.5 124t-113.5 40zM256 1257v-454h119q78 0 113.5 39 t35.5 123v137q0 84 -34.5 119.5t-114.5 35.5h-119zM342 -108.5q27 26.5 66 26.5t65.5 -26.5t26.5 -65.5t-27 -65.5t-65 -26.5q-39 0 -66 26.5t-27 65.5t27 65.5z" glyph-name="uni1E05" horiz-adv-x="1228" unicode="ḅ"/><glyph d="M633 74q-86 -74 -225 -74h-326v1434h326q139 0 225 -80q98 -92 98 -258v-766q0 -166 -98 -256zM256 1260v-1086h152q76 0 108 31q41 37 41 125v766q0 84 -36 124t-113 40h-152zM342 -108.5q27 26.5 66 26.5t65.5 -26.5t26.5 -65.5t-27 -65.5t-65 -26.5q-39 0 -66 26.5 t-27 65.5t27 65.5z" glyph-name="uni1E0C" horiz-adv-x="800" unicode="Ḍ"/><glyph d="M633 74q-86 -74 -225 -74h-326v1434h326q139 0 225 -80q98 -92 98 -258v-766q0 -166 -98 -256zM256 1260v-1086h152q76 0 108 31q41 37 41 125v766q0 84 -36 124t-113 40h-152zM342 -108.5q27 26.5 66 26.5t65.5 -26.5t26.5 -65.5t-27 -65.5t-65 -26.5q-39 0 -66 26.5 t-27 65.5t27 65.5z" glyph-name="uni1E0D" horiz-adv-x="800" unicode="ḍ"/><glyph d="M633 74q-86 -74 -225 -74h-326v1434h326q139 0 225 -80q98 -92 98 -258v-766q0 -166 -98 -256zM256 1260v-1086h152q76 0 108 31q41 37 41 125v766q0 84 -36 124t-113 40h-152zM717 -174h-621v92h621v-92z" glyph-name="uni1E0E" horiz-adv-x="800" unicode="Ḏ"/><glyph d="M633 74q-86 -74 -225 -74h-326v1434h326q139 0 225 -80q98 -92 98 -258v-766q0 -166 -98 -256zM256 1260v-1086h152q76 0 108 31q41 37 41 125v766q0 84 -36 124t-113 40h-152zM717 -174h-621v92h621v-92z" glyph-name="uni1E0F" horiz-adv-x="800" unicode="ḏ"/><glyph d="M633 74q-86 -74 -225 -74h-326v1434h326q139 0 225 -80q98 -92 98 -258v-766q0 -166 -98 -256zM256 1260v-1086h152q76 0 108 31q41 37 41 125v766q0 84 -36 124t-113 40h-152zM633 -293h-103l-122 117l-123 -117h-105l139 211h175z" glyph-name="uni1E12" horiz-adv-x="800" unicode="Ḓ"/><glyph d="M633 74q-86 -74 -225 -74h-326v1434h326q139 0 225 -80q98 -92 98 -258v-766q0 -166 -98 -256zM256 1260v-1086h152q76 0 108 31q41 37 41 125v766q0 84 -36 124t-113 40h-152zM633 -293h-103l-122 117l-123 -117h-105l139 211h175z" glyph-name="uni1E13" horiz-adv-x="800" unicode="ḓ"/><glyph d="M555 1434h174v-1434h-174v647h-299v-647h-174v1434h174v-613h299v613zM471 -260q-12 -25 -61 -98h-68l20 51q0 4 3.5 12t3.5 14q0 16 -15 29q-41 31 -41 78q0 39 27 65.5t66 26.5t65.5 -26.5t26.5 -65.5q0 -33 -27 -86z" glyph-name="uni1E24" horiz-adv-x="1228" unicode="Ḥ"/><glyph d="M555 1434h174v-1434h-174v647h-299v-647h-174v1434h174v-613h299v613zM471 -260q-12 -25 -61 -98h-68l20 51q0 4 3.5 12t3.5 14q0 16 -15 29q-41 31 -41 78q0 39 27 65.5t66 26.5t65.5 -26.5t26.5 -65.5q0 -33 -27 -86z" glyph-name="uni1E25" horiz-adv-x="1228" unicode="ḥ"/><glyph d="M256 0h-174v1434h174v-1434zM86 1667q27 -27 27 -65q0 -39 -27 -66t-66 -27t-65.5 27t-26.5 66t27 65.5t65 26.5q39 0 66 -27zM381 1667q27 -27 27 -65q0 -39 -27 -66t-66 -27t-65.5 27t-26.5 66t26.5 65.5t65.5 26.5t66 -27zM256 1985h174l-209 -213h-104z" glyph-name="uni1E2E" horiz-adv-x="337" unicode="Ḯ"/><glyph d="M256 0h-174v1434h174v-1434zM86 1667q27 -27 27 -65q0 -39 -27 -66t-66 -27t-65.5 27t-26.5 66t27 65.5t65 26.5q39 0 66 -27zM381 1667q27 -27 27 -65q0 -39 -27 -66t-66 -27t-65.5 27t-26.5 66t26.5 65.5t65.5 26.5t66 -27zM256 1985h174l-209 -213h-104z" glyph-name="uni1E2F" horiz-adv-x="337" unicode="ḯ"/><glyph d="M647 0h-565v1432h174v-1258h391v-174zM299 -108.5q27 26.5 66 26.5t65.5 -26.5t26.5 -65.5t-27 -65.5t-65 -26.5q-39 0 -66 26.5t-27 65.5t27 65.5z" glyph-name="uni1E36" horiz-adv-x="679" unicode="Ḷ"/><glyph d="M647 0h-565v1432h174v-1258h391v-174zM299 -108.5q27 26.5 66 26.5t65.5 -26.5t26.5 -65.5t-27 -65.5t-65 -26.5q-39 0 -66 26.5t-27 65.5t27 65.5z" glyph-name="uni1E37" horiz-adv-x="679" unicode="ḷ"/><glyph d="M647 0h-565v1432h174v-1258h391v-174zM592 -293h-103l-122 117l-123 -117h-105l140 211h174z" glyph-name="uni1E3C" horiz-adv-x="679" unicode="Ḽ"/><glyph d="M647 0h-565v1432h174v-1258h391v-174zM592 -293h-103l-122 117l-123 -117h-105l140 211h174z" glyph-name="uni1E3D" horiz-adv-x="679" unicode="ḽ"/><glyph d="M541 485l358 949h98v-1434h-174v809l-235 -633h-96l-236 633v-809h-174v1434h98zM627 1722h174l-209 -213h-105z" glyph-name="uni1E3E" horiz-adv-x="1079" unicode="Ḿ"/><glyph d="M541 485l358 949h98v-1434h-174v809l-235 -633h-96l-236 633v-809h-174v1434h98zM627 1722h174l-209 -213h-105z" glyph-name="uni1E3F" horiz-adv-x="1079" unicode="ḿ"/><glyph d="M254 864v-864h-174v1434h96l399 -867v867h175v-1434h-97zM350.5 1667q26.5 27 65.5 27t65.5 -27t26.5 -65q0 -39 -26.5 -66t-65.5 -27t-65.5 27t-26.5 66q0 38 26.5 65z" glyph-name="uni1E44" horiz-adv-x="829" unicode="Ṅ"/><glyph d="M254 864v-864h-174v1434h96l399 -867v867h175v-1434h-97zM350.5 1667q26.5 27 65.5 27t65.5 -27t26.5 -65q0 -39 -26.5 -66t-65.5 -27t-65.5 27t-26.5 66q0 38 26.5 65z" glyph-name="uni1E45" horiz-adv-x="829" unicode="ṅ"/><glyph d="M254 864v-864h-174v1434h96l399 -867v867h175v-1434h-97zM350.5 -108.5q26.5 26.5 65.5 26.5t65.5 -26.5t26.5 -65.5t-26.5 -65.5t-65.5 -26.5t-65.5 26.5t-26.5 65.5t26.5 65.5z" glyph-name="uni1E46" horiz-adv-x="829" unicode="Ṇ"/><glyph d="M254 864v-864h-174v1434h96l399 -867v867h175v-1434h-97zM350.5 -108.5q26.5 26.5 65.5 26.5t65.5 -26.5t26.5 -65.5t-26.5 -65.5t-65.5 -26.5t-65.5 26.5t-26.5 65.5t26.5 65.5z" glyph-name="uni1E47" horiz-adv-x="829" unicode="ṇ"/><glyph d="M254 864v-864h-174v1434h96l399 -867v867h175v-1434h-97zM641 -293h-102l-123 117l-123 -117h-105l140 211h174z" glyph-name="uni1E4A" horiz-adv-x="829" unicode="Ṋ"/><glyph d="M254 864v-864h-174v1434h96l399 -867v867h175v-1434h-97zM641 -293h-102l-123 117l-123 -117h-105l140 211h174z" glyph-name="uni1E4B" horiz-adv-x="829" unicode="ṋ"/><glyph d="M621 61q-90 -80 -228 -79q-137 0 -227 79q-96 90 -96 258v795q0 166 96 258q90 80 227 80t228 -80q96 -92 96 -258v-795q0 -168 -96 -258zM507 1238q-36 40 -114 40t-113.5 -40t-35.5 -124v-795q0 -84 35.5 -123.5t113.5 -39.5t114 40t36 123v795q0 84 -36 124zM285 1569 q-37 -6 -86 -64l-68 56q80 98 166 98q55 0 125 -41q47 -29 84 -23q39 8 82 62l69 -53q-76 -98 -165 -99q-55 0 -115 37q-55 33 -92 27zM481 1950h174l-209 -213h-104z" glyph-name="uni1E4C" horiz-adv-x="786" unicode="Ṍ"/><glyph d="M621 61q-90 -80 -228 -79q-137 0 -227 79q-96 90 -96 258v795q0 166 96 258q90 80 227 80t228 -80q96 -92 96 -258v-795q0 -168 -96 -258zM507 1238q-36 40 -114 40t-113.5 -40t-35.5 -124v-795q0 -84 35.5 -123.5t113.5 -39.5t114 40t36 123v795q0 84 -36 124zM285 1569 q-37 -6 -86 -64l-68 56q80 98 166 98q55 0 125 -41q47 -29 84 -23q39 8 82 62l69 -53q-76 -98 -165 -99q-55 0 -115 37q-55 33 -92 27zM481 1950h174l-209 -213h-104z" glyph-name="uni1E4D" horiz-adv-x="786" unicode="ṍ"/><glyph d="M621 61q-90 -80 -228 -79q-137 0 -227 79q-96 90 -96 258v795q0 166 96 258q90 80 227 80t228 -80q96 -92 96 -258v-795q0 -168 -96 -258zM507 1238q-36 40 -114 40t-113.5 -40t-35.5 -124v-795q0 -84 35.5 -123.5t113.5 -39.5t114 40t36 123v795q0 84 -36 124zM481 1892 h174l-209 -213h-104zM705 1509h-623v93h623v-93z" glyph-name="uni1E50" horiz-adv-x="786" unicode="Ṑ"/><glyph d="M621 61q-90 -80 -228 -79q-137 0 -227 79q-96 90 -96 258v795q0 166 96 258q90 80 227 80t228 -80q96 -92 96 -258v-795q0 -168 -96 -258zM507 1238q-36 40 -114 40t-113.5 -40t-35.5 -124v-795q0 -84 35.5 -123.5t113.5 -39.5t114 40t36 123v795q0 84 -36 124zM481 1892 h174l-209 -213h-104zM705 1509h-623v93h623v-93z" glyph-name="uni1E51" horiz-adv-x="786" unicode="ṑ"/><glyph d="M621 61q-90 -80 -228 -79q-137 0 -227 79q-96 90 -96 258v795q0 166 96 258q90 80 227 80t228 -80q96 -92 96 -258v-795q0 -168 -96 -258zM507 1238q-36 40 -114 40t-113.5 -40t-35.5 -124v-795q0 -84 35.5 -123.5t113.5 -39.5t114 40t36 123v795q0 84 -36 124zM305 1892 l139 -213h-104l-209 213h174zM705 1509h-623v93h623v-93z" glyph-name="uni1E52" horiz-adv-x="786" unicode="Ṓ"/><glyph d="M621 61q-90 -80 -228 -79q-137 0 -227 79q-96 90 -96 258v795q0 166 96 258q90 80 227 80t228 -80q96 -92 96 -258v-795q0 -168 -96 -258zM507 1238q-36 40 -114 40t-113.5 -40t-35.5 -124v-795q0 -84 35.5 -123.5t113.5 -39.5t114 40t36 123v795q0 84 -36 124zM305 1892 l139 -213h-104l-209 213h174zM705 1509h-623v93h623v-93z" glyph-name="uni1E53" horiz-adv-x="786" unicode="ṓ"/><glyph d="M606 61q-86 -80 -227 -79q-68 0 -126 20.5t-99 58.5q-98 90 -99 258v195h174v-195q0 -84 36 -123.5t114 -39.5t114.5 40t36.5 123v95q0 59 -15 96t-38 63q-23 27 -55.5 47.5t-85.5 51.5q-66 37 -108 65.5t-76 67.5q-96 104 -97 270v39q0 166 99 258q41 39 99 59.5 t126 20.5q141 0 227 -80q98 -92 99 -258v-131h-175v131q0 84 -36.5 124t-114.5 40t-114 -40t-36 -124v-39q0 -96 52 -153q23 -27 53.5 -46.5t85.5 -52.5q61 -33 105 -63.5t81 -71.5q98 -106 99 -274v-95q-1 -168 -99 -258zM313.5 -108.5q26.5 26.5 65.5 26.5t65.5 -26.5 t26.5 -65.5t-26.5 -65.5t-65.5 -26.5t-65.5 26.5t-26.5 65.5t26.5 65.5z" glyph-name="uni1E62" horiz-adv-x="759" unicode="Ṣ"/><glyph d="M606 61q-86 -80 -227 -79q-68 0 -126 20.5t-99 58.5q-98 90 -99 258v195h174v-195q0 -84 36 -123.5t114 -39.5t114.5 40t36.5 123v95q0 59 -15 96t-38 63q-23 27 -55.5 47.5t-85.5 51.5q-66 37 -108 65.5t-76 67.5q-96 104 -97 270v39q0 166 99 258q41 39 99 59.5 t126 20.5q141 0 227 -80q98 -92 99 -258v-131h-175v131q0 84 -36.5 124t-114.5 40t-114 -40t-36 -124v-39q0 -96 52 -153q23 -27 53.5 -46.5t85.5 -52.5q61 -33 105 -63.5t81 -71.5q98 -106 99 -274v-95q-1 -168 -99 -258zM313.5 -108.5q26.5 26.5 65.5 26.5t65.5 -26.5 t26.5 -65.5t-26.5 -65.5t-65.5 -26.5t-65.5 26.5t-26.5 65.5t26.5 65.5z" glyph-name="uni1E63" horiz-adv-x="759" unicode="ṣ"/><glyph d="M682 1432v-175h-242v-1257h-174v1257h-239v175h655zM286.5 -108.5q26.5 26.5 65.5 26.5t65.5 -26.5t26.5 -65.5t-26.5 -65.5t-65.5 -26.5t-65.5 26.5t-26.5 65.5t26.5 65.5z" glyph-name="uni1E6C" horiz-adv-x="706" unicode="Ṭ"/><glyph d="M682 1432v-175h-242v-1257h-174v1257h-239v175h655zM286.5 -108.5q26.5 26.5 65.5 26.5t65.5 -26.5t26.5 -65.5t-26.5 -65.5t-65.5 -26.5t-65.5 26.5t-26.5 65.5t26.5 65.5z" glyph-name="uni1E6D" horiz-adv-x="706" unicode="ṭ"/><glyph d="M682 1432v-175h-242v-1257h-174v1257h-239v175h655zM666 -174h-621v92h621v-92z" glyph-name="uni1E6E" horiz-adv-x="708" unicode="Ṯ"/><glyph d="M682 1432v-175h-242v-1257h-174v1257h-239v175h655zM666 -174h-621v92h621v-92z" glyph-name="uni1E6F" horiz-adv-x="708" unicode="ṯ"/><glyph d="M682 1432v-175h-242v-1257h-174v1257h-239v175h655zM580 -293h-103l-123 117l-123 -117h-104l139 211h174z" glyph-name="uni1E70" horiz-adv-x="706" unicode="Ṱ"/><glyph d="M682 1432v-175h-242v-1257h-174v1257h-239v175h655zM580 -293h-103l-123 117l-123 -117h-104l139 211h174z" glyph-name="uni1E71" horiz-adv-x="706" unicode="ṱ"/><glyph d="M512 780l-227 -780h-72l-176 1434h176l94 -809l168 583h76l168 -583l94 809h174l-174 -1434h-74zM426 1722l139 -213h-104l-209 213h174z" glyph-name="Wgrave" horiz-adv-x="1024" unicode="Ẁ"/><glyph d="M512 780l-227 -780h-72l-176 1434h176l94 -809l168 583h76l168 -583l94 809h174l-174 -1434h-74zM426 1722l139 -213h-104l-209 213h174z" glyph-name="wgrave" horiz-adv-x="1024" unicode="ẁ"/><glyph d="M512 780l-227 -780h-72l-176 1434h176l94 -809l168 583h76l168 -583l94 809h174l-174 -1434h-74zM600 1722h174l-209 -213h-104z" glyph-name="Wacute" horiz-adv-x="1024" unicode="Ẃ"/><glyph d="M512 780l-227 -780h-72l-176 1434h176l94 -809l168 583h76l168 -583l94 809h174l-174 -1434h-74zM600 1722h174l-209 -213h-104z" glyph-name="wacute" horiz-adv-x="1024" unicode="ẃ"/><glyph d="M512 780l-227 -780h-72l-176 1434h176l94 -809l168 583h76l168 -583l94 809h174l-174 -1434h-74zM430 1667q27 -27 27 -65q0 -39 -27 -66t-65 -27q-39 0 -66 27t-27 66t27 65.5t66 26.5q38 0 65 -27zM725 1667q27 -27 27 -65q0 -39 -27 -66t-66 -27t-65.5 27t-26.5 66 t27 65.5t65 26.5q39 0 66 -27z" glyph-name="Wdieresis" horiz-adv-x="1024" unicode="Ẅ"/><glyph d="M512 780l-227 -780h-72l-176 1434h176l94 -809l168 583h76l168 -583l94 809h174l-174 -1434h-74zM430 1667q27 -27 27 -65q0 -39 -27 -66t-65 -27q-39 0 -66 27t-27 66t27 65.5t66 26.5q38 0 65 -27zM725 1667q27 -27 27 -65q0 -39 -27 -66t-66 -27t-65.5 27t-26.5 66 t27 65.5t65 26.5q39 0 66 -27z" glyph-name="wdieresis" horiz-adv-x="1024" unicode="ẅ"/><glyph d="M713 0h-656l414 1260h-416v174h656l-414 -1260h416v-174zM448.5 -108.5q26.5 -26.5 26.5 -65.5t-26.5 -65.5t-65.5 -26.5t-65.5 26.5t-26.5 65.5t26.5 65.5t65.5 26.5t65.5 -26.5z" glyph-name="uni1E92" horiz-adv-x="768" unicode="Ẓ"/><glyph d="M713 0h-656l414 1260h-416v174h656l-414 -1260h416v-174zM448.5 -108.5q26.5 -26.5 26.5 -65.5t-26.5 -65.5t-65.5 -26.5t-65.5 26.5t-26.5 65.5t26.5 65.5t65.5 26.5t65.5 -26.5z" glyph-name="uni1E93" horiz-adv-x="768" unicode="ẓ"/><glyph d="M623 0l-56 297h-299l-57 -297h-178l301 1434h168l299 -1434h-178zM301 471h234l-117 616zM352.5 -108.5q26.5 26.5 65.5 26.5t65.5 -26.5t26.5 -65.5t-26.5 -65.5t-65.5 -26.5t-65.5 26.5t-26.5 65.5t26.5 65.5z" glyph-name="uni1EA0" unicode="Ạ"/><glyph d="M623 0l-56 297h-299l-57 -297h-178l301 1434h168l299 -1434h-178zM301 471h234l-117 616zM352.5 -108.5q26.5 26.5 65.5 26.5t65.5 -26.5t26.5 -65.5t-26.5 -65.5t-65.5 -26.5t-65.5 26.5t-26.5 65.5t26.5 65.5z" glyph-name="uni1EA1" unicode="ạ"/><glyph d="M623 0l-56 297h-299l-57 -297h-178l301 1434h168l299 -1434h-178zM301 471h234l-117 616zM401.5 1655.5q61.5 -60.5 61.5 -146.5h-88q0 49 -35 84t-84 35l-76 74q35 14 76 14q84 0 145.5 -60.5z" glyph-name="uni1EA2" unicode="Ả"/><glyph d="M623 0l-56 297h-299l-57 -297h-178l301 1434h168l299 -1434h-178zM301 471h234l-117 616zM401.5 1655.5q61.5 -60.5 61.5 -146.5h-88q0 49 -35 84t-84 35l-76 74q35 14 76 14q84 0 145.5 -60.5z" glyph-name="uni1EA3" unicode="ả"/><glyph d="M623 0l-56 297h-299l-57 -297h-178l301 1434h168l299 -1434h-178zM301 471h234l-117 616zM643 1509h-102l-123 117l-123 -117h-105l140 211h174zM735 1929h176l-211 -215h-102z" glyph-name="uni1EA4" horiz-adv-x="946" unicode="Ấ"/><glyph d="M623 0l-56 297h-299l-57 -297h-178l301 1434h168l299 -1434h-178zM301 471h234l-117 616zM643 1509h-102l-123 117l-123 -117h-105l140 211h174zM735 1929h176l-211 -215h-102z" glyph-name="uni1EA5" horiz-adv-x="946" unicode="ấ"/><glyph d="M623 0l-56 297h-299l-57 -297h-178l301 1434h168l299 -1434h-178zM301 471h234l-117 616zM643 1509h-102l-123 117l-123 -117h-105l140 211h174zM563 1929l137 -215h-102l-211 215h176z" glyph-name="uni1EA6" unicode="Ầ"/><glyph d="M623 0l-56 297h-299l-57 -297h-178l301 1434h168l299 -1434h-178zM301 471h234l-117 616zM643 1509h-102l-123 117l-123 -117h-105l140 211h174zM563 1929l137 -215h-102l-211 215h176z" glyph-name="uni1EA7" unicode="ầ"/><glyph d="M623 0l-56 297h-299l-57 -297h-178l301 1434h168l299 -1434h-178zM301 471h234l-117 616zM643 1509h-102l-123 117l-123 -117h-105l140 211h174zM624.5 1860.5q61.5 -60.5 61.5 -146.5h-88q0 49 -35 84t-84 35l-76 74q35 14 76 14q84 0 145.5 -60.5z" glyph-name="uni1EA8" unicode="Ẩ"/><glyph d="M623 0l-56 297h-299l-57 -297h-178l301 1434h168l299 -1434h-178zM301 471h234l-117 616zM643 1509h-102l-123 117l-123 -117h-105l140 211h174zM624.5 1860.5q61.5 -60.5 61.5 -146.5h-88q0 49 -35 84t-84 35l-76 74q35 14 76 14q84 0 145.5 -60.5z" glyph-name="uni1EA9" unicode="ẩ"/><glyph d="M623 0l-56 297h-299l-57 -297h-178l301 1434h168l299 -1434h-178zM301 471h234l-117 616zM299 1835q-37 -6 -86 -63l-68 55q80 98 166 98q55 0 125 -41q47 -29 84 -22q39 8 82 61l70 -53q-76 -98 -166 -98q-55 0 -115 36q-55 33 -92 27zM643 1509h-102l-123 117 l-123 -117h-105l140 211h174z" glyph-name="uni1EAA" unicode="Ẫ"/><glyph d="M623 0l-56 297h-299l-57 -297h-178l301 1434h168l299 -1434h-178zM301 471h234l-117 616zM299 1835q-37 -6 -86 -63l-68 55q80 98 166 98q55 0 125 -41q47 -29 84 -22q39 8 82 61l70 -53q-76 -98 -166 -98q-55 0 -115 36q-55 33 -92 27zM643 1509h-102l-123 117 l-123 -117h-105l140 211h174z" glyph-name="uni1EAB" unicode="ẫ"/><glyph d="M623 0l-56 297h-299l-57 -297h-178l301 1434h168l299 -1434h-178zM301 471h234l-117 616zM352.5 -108.5q26.5 26.5 65.5 26.5t65.5 -26.5t26.5 -65.5t-26.5 -65.5t-65.5 -26.5t-65.5 26.5t-26.5 65.5t26.5 65.5zM643 1509h-102l-123 117l-123 -117h-105l140 211h174z" glyph-name="uni1EAC" unicode="Ậ"/><glyph d="M623 0l-56 297h-299l-57 -297h-178l301 1434h168l299 -1434h-178zM301 471h234l-117 616zM352.5 -108.5q26.5 26.5 65.5 26.5t65.5 -26.5t26.5 -65.5t-26.5 -65.5t-65.5 -26.5t-65.5 26.5t-26.5 65.5t26.5 65.5zM643 1509h-102l-123 117l-123 -117h-105l140 211h174z" glyph-name="uni1EAD" unicode="ậ"/><glyph d="M623 0l-56 297h-299l-57 -297h-178l301 1434h168l299 -1434h-178zM301 471h234l-117 616zM625 1716q0 -84 -60.5 -145.5t-146.5 -61.5t-146.5 61.5t-60.5 145.5h88q0 -49 35 -84t84 -35t84 35t35 84h88zM502 1989h176l-211 -215h-102z" glyph-name="uni1EAE" unicode="Ắ"/><glyph d="M623 0l-56 297h-299l-57 -297h-178l301 1434h168l299 -1434h-178zM301 471h234l-117 616zM625 1716q0 -84 -60.5 -145.5t-146.5 -61.5t-146.5 61.5t-60.5 145.5h88q0 -49 35 -84t84 -35t84 35t35 84h88zM502 1989h176l-211 -215h-102z" glyph-name="uni1EAF" unicode="ắ"/><glyph d="M211 0h-178l299 1434h168l301 -1434h-178l-58 297h-299zM532 471l-116 616l-117 -616h233zM332 1632q35 -35 84 -35t84 35t35 84h88q0 -84 -60.5 -145.5t-146.5 -61.5t-146.5 61.5t-60.5 145.5h88q0 -49 35 -84zM332 1989l137 -215h-102l-211 215h176z" glyph-name="uni1EB0" unicode="Ằ"/><glyph d="M211 0h-178l299 1434h168l301 -1434h-178l-58 297h-299zM532 471l-116 616l-117 -616h233zM332 1632q35 -35 84 -35t84 35t35 84h88q0 -84 -60.5 -145.5t-146.5 -61.5t-146.5 61.5t-60.5 145.5h88q0 -49 35 -84zM332 1989l137 -215h-102l-211 215h176z" glyph-name="uni1EB1" unicode="ằ"/><glyph d="M211 0h-178l299 1434h168l301 -1434h-178l-58 297h-299zM532 471l-116 616l-117 -616h233zM332 1632q35 -35 84 -35t84 35t35 84h88q0 -84 -60.5 -145.5t-146.5 -61.5t-146.5 61.5t-60.5 145.5h88q0 -49 35 -84zM399.5 1920q61.5 -60 61.5 -146h-88q0 49 -35 83.5 t-84 34.5l-76 74q35 14 76 14q84 0 145.5 -60z" glyph-name="uni1EB2" unicode="Ẳ"/><glyph d="M211 0h-178l299 1434h168l301 -1434h-178l-58 297h-299zM532 471l-116 616l-117 -616h233zM332 1632q35 -35 84 -35t84 35t35 84h88q0 -84 -60.5 -145.5t-146.5 -61.5t-146.5 61.5t-60.5 145.5h88q0 -49 35 -84zM399.5 1920q61.5 -60 61.5 -146h-88q0 49 -35 83.5 t-84 34.5l-76 74q35 14 76 14q84 0 145.5 -60z" glyph-name="uni1EB3" unicode="ẳ"/><glyph d="M211 0h-178l299 1434h168l301 -1434h-178l-58 297h-299zM532 471l-116 616l-117 -616h233zM332 1632q35 -35 84 -35t84 35t35 84h88q0 -84 -60.5 -145.5t-146.5 -61.5t-146.5 61.5t-60.5 145.5h88q0 -49 35 -84zM305 1835q-37 -6 -86 -63l-67 55q80 98 165 98 q55 0 125 -41q47 -29 84 -22q39 8 82 61l70 -53q-76 -98 -166 -98q-57 0 -115 36q-55 33 -92 27z" glyph-name="uni1EB4" unicode="Ẵ"/><glyph d="M211 0h-178l299 1434h168l301 -1434h-178l-58 297h-299zM532 471l-116 616l-117 -616h233zM332 1632q35 -35 84 -35t84 35t35 84h88q0 -84 -60.5 -145.5t-146.5 -61.5t-146.5 61.5t-60.5 145.5h88q0 -49 35 -84zM305 1835q-37 -6 -86 -63l-67 55q80 98 165 98 q55 0 125 -41q47 -29 84 -22q39 8 82 61l70 -53q-76 -98 -166 -98q-57 0 -115 36q-55 33 -92 27z" glyph-name="uni1EB5" unicode="ẵ"/><glyph d="M623 0l-56 297h-299l-57 -297h-178l301 1434h168l299 -1434h-178zM301 471h234l-117 616zM625 1716q0 -84 -60.5 -145.5t-146.5 -61.5t-146.5 61.5t-60.5 145.5h88q0 -49 35 -84t84 -35t84 35t35 84h88zM352.5 -108.5q26.5 26.5 65.5 26.5t65.5 -26.5t26.5 -65.5 t-26.5 -65.5t-65.5 -26.5t-65.5 26.5t-26.5 65.5t26.5 65.5z" glyph-name="uni1EB6" unicode="Ặ"/><glyph d="M623 0l-56 297h-299l-57 -297h-178l301 1434h168l299 -1434h-178zM301 471h234l-117 616zM625 1716q0 -84 -60.5 -145.5t-146.5 -61.5t-146.5 61.5t-60.5 145.5h88q0 -49 35 -84t84 -35t84 35t35 84h88zM352.5 -108.5q26.5 26.5 65.5 26.5t65.5 -26.5t26.5 -65.5 t-26.5 -65.5t-65.5 -26.5t-65.5 26.5t-26.5 65.5t26.5 65.5z" glyph-name="uni1EB7" unicode="ặ"/><glyph d="M647 1260h-391v-439h272v-174h-272v-473h391v-174h-565v1434h565v-174zM299 -108.5q27 26.5 66 26.5t65.5 -26.5t26.5 -65.5t-27 -65.5t-65 -26.5q-39 0 -66 26.5t-27 65.5t27 65.5z" glyph-name="uni1EB8" horiz-adv-x="1228" unicode="Ẹ"/><glyph d="M647 1260h-391v-439h272v-174h-272v-473h391v-174h-565v1434h565v-174zM299 -108.5q27 26.5 66 26.5t65.5 -26.5t26.5 -65.5t-27 -65.5t-65 -26.5q-39 0 -66 26.5t-27 65.5t27 65.5z" glyph-name="uni1EB9" horiz-adv-x="1228" unicode="ẹ"/><glyph d="M647 1260h-391v-439h272v-174h-272v-473h391v-174h-565v1434h565v-174zM360.5 1655.5q61.5 -60.5 61.5 -146.5h-88q0 49 -35 84t-84 35l-76 74q35 14 76 14q84 0 145.5 -60.5z" glyph-name="uni1EBA" horiz-adv-x="1228" unicode="Ẻ"/><glyph d="M647 1260h-391v-439h272v-174h-272v-473h391v-174h-565v1434h565v-174zM360.5 1655.5q61.5 -60.5 61.5 -146.5h-88q0 49 -35 84t-84 35l-76 74q35 14 76 14q84 0 145.5 -60.5z" glyph-name="uni1EBB" horiz-adv-x="1228" unicode="ẻ"/><glyph d="M647 1260h-391v-439h272v-174h-272v-473h391v-174h-565v1434h565v-174zM254 1573q-37 -6 -86 -64l-68 56q80 98 166 98q55 0 125 -41q47 -29 84 -23q39 8 82 62l70 -53q-76 -98 -166 -99q-57 0 -115 37q-55 33 -92 27z" glyph-name="uni1EBC" horiz-adv-x="710" unicode="Ẽ"/><glyph d="M647 1260h-391v-439h272v-174h-272v-473h391v-174h-565v1434h565v-174zM254 1573q-37 -6 -86 -64l-68 56q80 98 166 98q55 0 125 -41q47 -29 84 -23q39 8 82 62l70 -53q-76 -98 -166 -99q-57 0 -115 37q-55 33 -92 27z" glyph-name="uni1EBD" horiz-adv-x="710" unicode="ẽ"/><glyph d="M647 1260h-391v-439h272v-174h-272v-473h391v-174h-565v1434h565v-174zM590 1509h-103l-122 117l-123 -117h-105l139 211h175zM682 1929h176l-211 -215h-102z" glyph-name="uni1EBE" horiz-adv-x="710" unicode="Ế"/><glyph d="M647 1260h-391v-439h272v-174h-272v-473h391v-174h-565v1434h565v-174zM590 1509h-103l-122 117l-123 -117h-105l139 211h175zM682 1929h176l-211 -215h-102z" glyph-name="uni1EBF" horiz-adv-x="710" unicode="ế"/><glyph d="M647 1260h-391v-439h272v-174h-272v-473h391v-174h-565v1434h565v-174zM590 1509h-103l-122 117l-123 -117h-105l139 211h175zM510 1929l137 -215h-102l-211 215h176z" glyph-name="uni1EC0" horiz-adv-x="710" unicode="Ề"/><glyph d="M647 1260h-391v-439h272v-174h-272v-473h391v-174h-565v1434h565v-174zM590 1509h-103l-122 117l-123 -117h-105l139 211h175zM510 1929l137 -215h-102l-211 215h176z" glyph-name="uni1EC1" horiz-adv-x="710" unicode="ề"/><glyph d="M647 1260h-391v-439h272v-174h-272v-473h391v-174h-565v1434h565v-174zM590 1509h-103l-122 117l-123 -117h-105l139 211h175zM571.5 1860.5q61.5 -60.5 61.5 -146.5h-88q0 49 -35 84t-84 35l-76 74q35 14 76 14q84 0 145.5 -60.5z" glyph-name="uni1EC2" horiz-adv-x="710" unicode="Ể"/><glyph d="M647 1260h-391v-439h272v-174h-272v-473h391v-174h-565v1434h565v-174zM590 1509h-103l-122 117l-123 -117h-105l139 211h175zM571.5 1860.5q61.5 -60.5 61.5 -146.5h-88q0 49 -35 84t-84 35l-76 74q35 14 76 14q84 0 145.5 -60.5z" glyph-name="uni1EC3" horiz-adv-x="710" unicode="ể"/><glyph d="M647 1260h-391v-439h272v-174h-272v-473h391v-174h-565v1434h565v-174zM246 1835q-37 -6 -86 -63l-68 55q80 98 166 98q55 0 125 -41q47 -29 84 -22q39 8 82 61l69 -53q-78 -98 -165 -98q-55 0 -115 36q-55 33 -92 27zM590 1509h-103l-122 117l-123 -117h-105l139 211 h175z" glyph-name="uni1EC4" horiz-adv-x="710" unicode="Ễ"/><glyph d="M647 1260h-391v-439h272v-174h-272v-473h391v-174h-565v1434h565v-174zM246 1835q-37 -6 -86 -63l-68 55q80 98 166 98q55 0 125 -41q47 -29 84 -22q39 8 82 61l69 -53q-78 -98 -165 -98q-55 0 -115 36q-55 33 -92 27zM590 1509h-103l-122 117l-123 -117h-105l139 211 h175z" glyph-name="uni1EC5" horiz-adv-x="710" unicode="ễ"/><glyph d="M647 1260h-391v-439h272v-174h-272v-473h391v-174h-565v1434h565v-174zM299 -108.5q27 26.5 66 26.5t65.5 -26.5t26.5 -65.5t-27 -65.5t-65 -26.5q-39 0 -66 26.5t-27 65.5t27 65.5zM590 1509h-103l-122 117l-123 -117h-105l139 211h175z" glyph-name="uni1EC6" horiz-adv-x="1228" unicode="Ệ"/><glyph d="M647 1260h-391v-439h272v-174h-272v-473h391v-174h-565v1434h565v-174zM299 -108.5q27 26.5 66 26.5t65.5 -26.5t26.5 -65.5t-27 -65.5t-65 -26.5q-39 0 -66 26.5t-27 65.5t27 65.5zM590 1509h-103l-122 117l-123 -117h-105l139 211h175z" glyph-name="uni1EC7" horiz-adv-x="1228" unicode="ệ"/><glyph d="M151.5 1655.5q61.5 -60.5 61.5 -146.5h-88q0 49 -35 84t-84 35l-76 74q35 14 76 14q84 0 145.5 -60.5zM256 0h-174v1434h174v-1434z" glyph-name="uni1EC8" horiz-adv-x="337" unicode="Ỉ"/><glyph d="M151.5 1655.5q61.5 -60.5 61.5 -146.5h-88q0 49 -35 84t-84 35l-76 74q35 14 76 14q84 0 145.5 -60.5zM256 0h-174v1434h174v-1434z" glyph-name="uni1EC9" horiz-adv-x="337" unicode="ỉ"/><glyph d="M108.5 -108.5q26.5 26.5 65.5 26.5t65.5 -26.5t26.5 -65.5t-26.5 -65.5t-65.5 -26.5t-65.5 26.5t-26.5 65.5t26.5 65.5zM260 0h-174v1434h174v-1434z" glyph-name="uni1ECA" horiz-adv-x="348" unicode="Ị"/><glyph d="M108.5 -108.5q26.5 26.5 65.5 26.5t65.5 -26.5t26.5 -65.5t-26.5 -65.5t-65.5 -26.5t-65.5 26.5t-26.5 65.5t26.5 65.5zM260 0h-174v1434h174v-1434z" glyph-name="uni1ECB" horiz-adv-x="348" unicode="ị"/><glyph d="M621 61q-90 -80 -228 -79q-137 0 -227 79q-96 90 -96 258v795q0 166 96 258q90 80 227 80t228 -80q96 -92 96 -258v-795q0 -168 -96 -258zM507 1238q-36 40 -114 40t-113.5 -40t-35.5 -124v-795q0 -84 35.5 -123.5t113.5 -39.5t114 40t36 123v795q0 84 -36 124z M327.5 -108.5q26.5 26.5 65.5 26.5t65.5 -26.5t26.5 -65.5t-26.5 -65.5t-65.5 -26.5t-65.5 26.5t-26.5 65.5t26.5 65.5z" glyph-name="uni1ECC" horiz-adv-x="786" unicode="Ọ"/><glyph d="M621 61q-90 -80 -228 -79q-137 0 -227 79q-96 90 -96 258v795q0 166 96 258q90 80 227 80t228 -80q96 -92 96 -258v-795q0 -168 -96 -258zM507 1238q-36 40 -114 40t-113.5 -40t-35.5 -124v-795q0 -84 35.5 -123.5t113.5 -39.5t114 40t36 123v795q0 84 -36 124z M327.5 -108.5q26.5 26.5 65.5 26.5t65.5 -26.5t26.5 -65.5t-26.5 -65.5t-65.5 -26.5t-65.5 26.5t-26.5 65.5t26.5 65.5z" glyph-name="uni1ECD" horiz-adv-x="786" unicode="ọ"/><glyph d="M621 61q-90 -80 -228 -79q-137 0 -227 79q-96 90 -96 258v795q0 166 96 258q90 80 227 80t228 -80q96 -92 96 -258v-795q0 -168 -96 -258zM507 1238q-36 40 -114 40t-113.5 -40t-35.5 -124v-795q0 -84 35.5 -123.5t113.5 -39.5t114 40t36 123v795q0 84 -36 124z M374.5 1655.5q61.5 -60.5 61.5 -146.5h-88q0 49 -34.5 84t-84.5 35l-75 74q35 14 75 14q84 0 145.5 -60.5z" glyph-name="uni1ECE" horiz-adv-x="786" unicode="Ỏ"/><glyph d="M621 61q-90 -80 -228 -79q-137 0 -227 79q-96 90 -96 258v795q0 166 96 258q90 80 227 80t228 -80q96 -92 96 -258v-795q0 -168 -96 -258zM507 1238q-36 40 -114 40t-113.5 -40t-35.5 -124v-795q0 -84 35.5 -123.5t113.5 -39.5t114 40t36 123v795q0 84 -36 124z M374.5 1655.5q61.5 -60.5 61.5 -146.5h-88q0 49 -34.5 84t-84.5 35l-75 74q35 14 75 14q84 0 145.5 -60.5z" glyph-name="uni1ECF" horiz-adv-x="786" unicode="ỏ"/><glyph d="M621 61q-90 -80 -228 -79q-137 0 -227 79q-96 90 -96 258v795q0 166 96 258q90 80 227 80t228 -80q96 -92 96 -258v-795q0 -168 -96 -258zM507 1238q-36 40 -114 40t-113.5 -40t-35.5 -124v-795q0 -84 35.5 -123.5t113.5 -39.5t114 40t36 123v795q0 84 -36 124zM618 1509 h-102l-123 117l-123 -117h-104l139 211h174zM711 1929h176l-211 -215h-103z" glyph-name="uni1ED0" horiz-adv-x="786" unicode="Ố"/><glyph d="M621 61q-90 -80 -228 -79q-137 0 -227 79q-96 90 -96 258v795q0 166 96 258q90 80 227 80t228 -80q96 -92 96 -258v-795q0 -168 -96 -258zM507 1238q-36 40 -114 40t-113.5 -40t-35.5 -124v-795q0 -84 35.5 -123.5t113.5 -39.5t114 40t36 123v795q0 84 -36 124zM618 1509 h-102l-123 117l-123 -117h-104l139 211h174zM711 1929h176l-211 -215h-103z" glyph-name="uni1ED1" horiz-adv-x="786" unicode="ố"/><glyph d="M621 61q-90 -80 -228 -79q-137 0 -227 79q-96 90 -96 258v795q0 166 96 258q90 80 227 80t228 -80q96 -92 96 -258v-795q0 -168 -96 -258zM507 1238q-36 40 -114 40t-113.5 -40t-35.5 -124v-795q0 -84 35.5 -123.5t113.5 -39.5t114 40t36 123v795q0 84 -36 124zM618 1509 h-102l-123 117l-123 -117h-104l139 211h174zM539 1929l137 -215h-103l-211 215h177z" glyph-name="uni1ED2" horiz-adv-x="786" unicode="Ồ"/><glyph d="M621 61q-90 -80 -228 -79q-137 0 -227 79q-96 90 -96 258v795q0 166 96 258q90 80 227 80t228 -80q96 -92 96 -258v-795q0 -168 -96 -258zM507 1238q-36 40 -114 40t-113.5 -40t-35.5 -124v-795q0 -84 35.5 -123.5t113.5 -39.5t114 40t36 123v795q0 84 -36 124zM618 1509 h-102l-123 117l-123 -117h-104l139 211h174zM539 1929l137 -215h-103l-211 215h177z" glyph-name="uni1ED3" horiz-adv-x="786" unicode="ồ"/><glyph d="M621 61q-90 -80 -228 -79q-137 0 -227 79q-96 90 -96 258v795q0 166 96 258q90 80 227 80t228 -80q96 -92 96 -258v-795q0 -168 -96 -258zM507 1238q-36 40 -114 40t-113.5 -40t-35.5 -124v-795q0 -84 35.5 -123.5t113.5 -39.5t114 40t36 123v795q0 84 -36 124zM618 1509 h-102l-123 117l-123 -117h-104l139 211h174zM600.5 1860.5q61.5 -60.5 61.5 -146.5h-89q0 49 -34.5 84t-83.5 35l-76 74q35 14 76 14q84 0 145.5 -60.5z" glyph-name="uni1ED4" horiz-adv-x="786" unicode="Ổ"/><glyph d="M621 61q-90 -80 -228 -79q-137 0 -227 79q-96 90 -96 258v795q0 166 96 258q90 80 227 80t228 -80q96 -92 96 -258v-795q0 -168 -96 -258zM507 1238q-36 40 -114 40t-113.5 -40t-35.5 -124v-795q0 -84 35.5 -123.5t113.5 -39.5t114 40t36 123v795q0 84 -36 124zM618 1509 h-102l-123 117l-123 -117h-104l139 211h174zM600.5 1860.5q61.5 -60.5 61.5 -146.5h-89q0 49 -34.5 84t-83.5 35l-76 74q35 14 76 14q84 0 145.5 -60.5z" glyph-name="uni1ED5" horiz-adv-x="786" unicode="ổ"/><glyph d="M621 61q-90 -80 -228 -79q-137 0 -227 79q-96 90 -96 258v795q0 166 96 258q90 80 227 80t228 -80q96 -92 96 -258v-795q0 -168 -96 -258zM507 1238q-36 40 -114 40t-113.5 -40t-35.5 -124v-795q0 -84 35.5 -123.5t113.5 -39.5t114 40t36 123v795q0 84 -36 124zM274 1835 q-37 -6 -86 -63l-67 55q80 98 166 98q55 0 125 -41q47 -29 84 -22q39 8 82 61l69 -53q-76 -98 -166 -98q-55 0 -114 36q-56 33 -93 27zM618 1509h-102l-123 117l-123 -117h-104l139 211h174z" glyph-name="uni1ED6" horiz-adv-x="786" unicode="Ỗ"/><glyph d="M621 61q-90 -80 -228 -79q-137 0 -227 79q-96 90 -96 258v795q0 166 96 258q90 80 227 80t228 -80q96 -92 96 -258v-795q0 -168 -96 -258zM507 1238q-36 40 -114 40t-113.5 -40t-35.5 -124v-795q0 -84 35.5 -123.5t113.5 -39.5t114 40t36 123v795q0 84 -36 124zM274 1835 q-37 -6 -86 -63l-67 55q80 98 166 98q55 0 125 -41q47 -29 84 -22q39 8 82 61l69 -53q-76 -98 -166 -98q-55 0 -114 36q-56 33 -93 27zM618 1509h-102l-123 117l-123 -117h-104l139 211h174z" glyph-name="uni1ED7" horiz-adv-x="786" unicode="ỗ"/><glyph d="M621 61q-90 -80 -228 -79q-137 0 -227 79q-96 90 -96 258v795q0 166 96 258q90 80 227 80t228 -80q96 -92 96 -258v-795q0 -168 -96 -258zM507 1238q-36 40 -114 40t-113.5 -40t-35.5 -124v-795q0 -84 35.5 -123.5t113.5 -39.5t114 40t36 123v795q0 84 -36 124z M327.5 -108.5q26.5 26.5 65.5 26.5t65.5 -26.5t26.5 -65.5t-26.5 -65.5t-65.5 -26.5t-65.5 26.5t-26.5 65.5t26.5 65.5zM618 1509h-102l-123 117l-123 -117h-104l139 211h174z" glyph-name="uni1ED8" horiz-adv-x="786" unicode="Ộ"/><glyph d="M621 61q-90 -80 -228 -79q-137 0 -227 79q-96 90 -96 258v795q0 166 96 258q90 80 227 80t228 -80q96 -92 96 -258v-795q0 -168 -96 -258zM507 1238q-36 40 -114 40t-113.5 -40t-35.5 -124v-795q0 -84 35.5 -123.5t113.5 -39.5t114 40t36 123v795q0 84 -36 124z M327.5 -108.5q26.5 26.5 65.5 26.5t65.5 -26.5t26.5 -65.5t-26.5 -65.5t-65.5 -26.5t-65.5 26.5t-26.5 65.5t26.5 65.5zM618 1509h-102l-123 117l-123 -117h-104l139 211h174z" glyph-name="uni1ED9" horiz-adv-x="786" unicode="ộ"/><glyph d="M848 1493q0 -53 -39 -91t-92 -38h-88q88 -94 88 -250v-795q0 -168 -96 -258q-90 -80 -228 -79q-137 0 -227 79q-96 90 -96 258v795q0 166 96 258q90 80 227 80h324q16 0 29.5 12.5t13.5 28.5h88zM543 1114q0 84 -36 124t-114 40t-113.5 -40t-35.5 -124v-795 q0 -84 35.5 -123.5t113.5 -39.5t114 40t36 123v795zM479 1722h174l-209 -213h-104z" glyph-name="uni1EDA" horiz-adv-x="806" unicode="Ớ"/><glyph d="M848 1493q0 -53 -39 -91t-92 -38h-88q88 -94 88 -250v-795q0 -168 -96 -258q-90 -80 -228 -79q-137 0 -227 79q-96 90 -96 258v795q0 166 96 258q90 80 227 80h324q16 0 29.5 12.5t13.5 28.5h88zM543 1114q0 84 -36 124t-114 40t-113.5 -40t-35.5 -124v-795 q0 -84 35.5 -123.5t113.5 -39.5t114 40t36 123v795zM479 1722h174l-209 -213h-104z" glyph-name="uni1EDB" horiz-adv-x="806" unicode="ớ"/><glyph d="M848 1493q0 -53 -39 -91t-92 -38h-88q88 -94 88 -250v-795q0 -168 -96 -258q-90 -80 -228 -79q-137 0 -227 79q-96 90 -96 258v795q0 166 96 258q90 80 227 80h324q16 0 29.5 12.5t13.5 28.5h88zM543 1114q0 84 -36 124t-114 40t-113.5 -40t-35.5 -124v-795 q0 -84 35.5 -123.5t113.5 -39.5t114 40t36 123v795zM305 1722l139 -213h-104l-209 213h174z" glyph-name="uni1EDC" horiz-adv-x="806" unicode="Ờ"/><glyph d="M848 1493q0 -53 -39 -91t-92 -38h-88q88 -94 88 -250v-795q0 -168 -96 -258q-90 -80 -228 -79q-137 0 -227 79q-96 90 -96 258v795q0 166 96 258q90 80 227 80h324q16 0 29.5 12.5t13.5 28.5h88zM543 1114q0 84 -36 124t-114 40t-113.5 -40t-35.5 -124v-795 q0 -84 35.5 -123.5t113.5 -39.5t114 40t36 123v795zM305 1722l139 -213h-104l-209 213h174z" glyph-name="uni1EDD" horiz-adv-x="806" unicode="ờ"/><glyph d="M848 1493q0 -53 -39 -91t-92 -38h-88q88 -94 88 -250v-795q0 -168 -96 -258q-90 -80 -228 -79q-137 0 -227 79q-96 90 -96 258v795q0 166 96 258q90 80 227 80h324q16 0 29.5 12.5t13.5 28.5h88zM543 1114q0 84 -36 124t-114 40t-113.5 -40t-35.5 -124v-795 q0 -84 35.5 -123.5t113.5 -39.5t114 40t36 123v795zM374.5 1655.5q61.5 -60.5 61.5 -146.5h-88q0 49 -34.5 84t-84.5 35l-75 74q35 14 75 14q84 0 145.5 -60.5z" glyph-name="uni1EDE" horiz-adv-x="806" unicode="Ở"/><glyph d="M848 1493q0 -53 -39 -91t-92 -38h-88q88 -94 88 -250v-795q0 -168 -96 -258q-90 -80 -228 -79q-137 0 -227 79q-96 90 -96 258v795q0 166 96 258q90 80 227 80h324q16 0 29.5 12.5t13.5 28.5h88zM543 1114q0 84 -36 124t-114 40t-113.5 -40t-35.5 -124v-795 q0 -84 35.5 -123.5t113.5 -39.5t114 40t36 123v795zM374.5 1655.5q61.5 -60.5 61.5 -146.5h-88q0 49 -34.5 84t-84.5 35l-75 74q35 14 75 14q84 0 145.5 -60.5z" glyph-name="uni1EDF" horiz-adv-x="806" unicode="ở"/><glyph d="M848 1493q0 -53 -39 -91t-92 -38h-88q88 -94 88 -250v-795q0 -168 -96 -258q-90 -80 -228 -79q-137 0 -227 79q-96 90 -96 258v795q0 166 96 258q90 80 227 80h324q16 0 29.5 12.5t13.5 28.5h88zM543 1114q0 84 -36 124t-114 40t-113.5 -40t-35.5 -124v-795 q0 -84 35.5 -123.5t113.5 -39.5t114 40t36 123v795zM285 1569q-37 -6 -86 -64l-68 56q80 98 166 98q55 0 125 -41q47 -29 84 -23q39 8 82 62l69 -53q-76 -98 -165 -99q-55 0 -115 37q-55 33 -92 27z" glyph-name="uni1EE0" horiz-adv-x="806" unicode="Ỡ"/><glyph d="M848 1493q0 -53 -39 -91t-92 -38h-88q88 -94 88 -250v-795q0 -168 -96 -258q-90 -80 -228 -79q-137 0 -227 79q-96 90 -96 258v795q0 166 96 258q90 80 227 80h324q16 0 29.5 12.5t13.5 28.5h88zM543 1114q0 84 -36 124t-114 40t-113.5 -40t-35.5 -124v-795 q0 -84 35.5 -123.5t113.5 -39.5t114 40t36 123v795zM285 1569q-37 -6 -86 -64l-68 56q80 98 166 98q55 0 125 -41q47 -29 84 -23q39 8 82 62l69 -53q-76 -98 -165 -99q-55 0 -115 37q-55 33 -92 27z" glyph-name="uni1EE1" horiz-adv-x="806" unicode="ỡ"/><glyph d="M848 1493q0 -53 -39 -91t-92 -38h-88q88 -94 88 -250v-795q0 -168 -96 -258q-90 -80 -228 -79q-137 0 -227 79q-96 90 -96 258v795q0 166 96 258q90 80 227 80h324q16 0 29.5 12.5t13.5 28.5h88zM543 1114q0 84 -36 124t-114 40t-113.5 -40t-35.5 -124v-795 q0 -84 35.5 -123.5t113.5 -39.5t114 40t36 123v795zM327.5 -108.5q26.5 26.5 65.5 26.5t65.5 -26.5t26.5 -65.5t-26.5 -65.5t-65.5 -26.5t-65.5 26.5t-26.5 65.5t26.5 65.5z" glyph-name="uni1EE2" horiz-adv-x="806" unicode="Ợ"/><glyph d="M848 1493q0 -53 -39 -91t-92 -38h-88q88 -94 88 -250v-795q0 -168 -96 -258q-90 -80 -228 -79q-137 0 -227 79q-96 90 -96 258v795q0 166 96 258q90 80 227 80h324q16 0 29.5 12.5t13.5 28.5h88zM543 1114q0 84 -36 124t-114 40t-113.5 -40t-35.5 -124v-795 q0 -84 35.5 -123.5t113.5 -39.5t114 40t36 123v795zM327.5 -108.5q26.5 26.5 65.5 26.5t65.5 -26.5t26.5 -65.5t-26.5 -65.5t-65.5 -26.5t-65.5 26.5t-26.5 65.5t26.5 65.5z" glyph-name="uni1EE3" horiz-adv-x="806" unicode="ợ"/><glyph d="M529.5 2.5q-58.5 -20.5 -126.5 -20.5q-141 0 -227 79q-98 90 -98 258v1115h174v-1115q0 -84 37 -123.5t114 -39.5q78 0 114 40t36 123v1115h174v-1115q0 -168 -98 -258q-41 -38 -99.5 -58.5zM338 -108.5q27 26.5 65 26.5q39 0 66 -26.5t27 -65.5t-27 -65.5t-66 -26.5 t-65.5 26.5t-26.5 65.5t27 65.5z" glyph-name="uni1EE4" horiz-adv-x="804" unicode="Ụ"/><glyph d="M529.5 2.5q-58.5 -20.5 -126.5 -20.5q-141 0 -227 79q-98 90 -98 258v1115h174v-1115q0 -84 37 -123.5t114 -39.5q78 0 114 40t36 123v1115h174v-1115q0 -168 -98 -258q-41 -38 -99.5 -58.5zM338 -108.5q27 26.5 65 26.5q39 0 66 -26.5t27 -65.5t-27 -65.5t-66 -26.5 t-65.5 26.5t-26.5 65.5t27 65.5z" glyph-name="uni1EE5" horiz-adv-x="804" unicode="ụ"/><glyph d="M529.5 2.5q-58.5 -20.5 -126.5 -20.5q-141 0 -227 79q-98 90 -98 258v1115h174v-1115q0 -84 37 -123.5t114 -39.5q78 0 114 40t36 123v1115h174v-1115q0 -168 -98 -258q-41 -38 -99.5 -58.5zM350 1509h105h-105zM385 1655.5q61 -60.5 61 -146.5h-88q0 49 -34.5 84 t-83.5 35l-76 74q35 14 76 14q84 0 145 -60.5z" glyph-name="uni1EE6" horiz-adv-x="804" unicode="Ủ"/><glyph d="M529.5 2.5q-58.5 -20.5 -126.5 -20.5q-141 0 -227 79q-98 90 -98 258v1115h174v-1115q0 -84 37 -123.5t114 -39.5q78 0 114 40t36 123v1115h174v-1115q0 -168 -98 -258q-41 -38 -99.5 -58.5zM350 1509h105h-105zM385 1655.5q61 -60.5 61 -146.5h-88q0 49 -34.5 84 t-83.5 35l-76 74q35 14 76 14q84 0 145 -60.5z" glyph-name="uni1EE7" horiz-adv-x="804" unicode="ủ"/><glyph d="M942 1475q0 -53 -38 -91t-91 -38h-86v-1027q0 -168 -98 -258q-41 -39 -99.5 -59t-126.5 -20q-141 0 -227 79q-98 90 -98 258v1115h174v-1115q0 -84 37 -123.5t114 -39.5q78 0 114 40t36 123v1115h260q16 0 28.5 12t12.5 29h88zM489 1722h175l-209 -213h-105z" glyph-name="uni1EE8" horiz-adv-x="901" unicode="Ứ"/><glyph d="M942 1475q0 -53 -38 -91t-91 -38h-86v-1027q0 -168 -98 -258q-41 -39 -99.5 -59t-126.5 -20q-141 0 -227 79q-98 90 -98 258v1115h174v-1115q0 -84 37 -123.5t114 -39.5q78 0 114 40t36 123v1115h260q16 0 28.5 12t12.5 29h88zM489 1722h175l-209 -213h-105z" glyph-name="uni1EE9" horiz-adv-x="901" unicode="ứ"/><glyph d="M942 1475q0 -53 -38 -91t-91 -38h-86v-1027q0 -168 -98 -258q-41 -39 -99.5 -59t-126.5 -20q-141 0 -227 79q-98 90 -98 258v1115h174v-1115q0 -84 37 -123.5t114 -39.5q78 0 114 40t36 123v1115h260q16 0 28.5 12t12.5 29h88zM315 1722l140 -213h-105l-209 213h174z" glyph-name="uni1EEA" horiz-adv-x="901" unicode="Ừ"/><glyph d="M942 1475q0 -53 -38 -91t-91 -38h-86v-1027q0 -168 -98 -258q-41 -39 -99.5 -59t-126.5 -20q-141 0 -227 79q-98 90 -98 258v1115h174v-1115q0 -84 37 -123.5t114 -39.5q78 0 114 40t36 123v1115h260q16 0 28.5 12t12.5 29h88zM315 1722l140 -213h-105l-209 213h174z" glyph-name="uni1EEB" horiz-adv-x="901" unicode="ừ"/><glyph d="M942 1475q0 -53 -38 -91t-91 -38h-86v-1027q0 -168 -98 -258q-41 -39 -99.5 -59t-126.5 -20q-141 0 -227 79q-98 90 -98 258v1115h174v-1115q0 -84 37 -123.5t114 -39.5q78 0 114 40t36 123v1115h260q16 0 28.5 12t12.5 29h88zM385 1655.5q61 -60.5 61 -146.5h-88 q0 49 -34.5 84t-83.5 35l-76 74q35 14 76 14q84 0 145 -60.5z" glyph-name="uni1EEC" horiz-adv-x="901" unicode="Ử"/><glyph d="M942 1475q0 -53 -38 -91t-91 -38h-86v-1027q0 -168 -98 -258q-41 -39 -99.5 -59t-126.5 -20q-141 0 -227 79q-98 90 -98 258v1115h174v-1115q0 -84 37 -123.5t114 -39.5q78 0 114 40t36 123v1115h260q16 0 28.5 12t12.5 29h88zM385 1655.5q61 -60.5 61 -146.5h-88 q0 49 -34.5 84t-83.5 35l-76 74q35 14 76 14q84 0 145 -60.5z" glyph-name="uni1EED" horiz-adv-x="901" unicode="ử"/><glyph d="M942 1475q0 -53 -38 -91t-91 -38h-86v-1027q0 -168 -98 -258q-41 -39 -99.5 -59t-126.5 -20q-141 0 -227 79q-98 90 -98 258v1115h174v-1115q0 -84 37 -123.5t114 -39.5q78 0 114 40t36 123v1115h260q16 0 28.5 12t12.5 29h88zM295 1569q-37 -6 -86 -64l-68 56 q80 98 166 98q55 0 125 -41q47 -29 84 -23q39 8 82 62l70 -53q-76 -98 -166 -99q-57 0 -115 37q-55 33 -92 27z" glyph-name="uni1EEE" horiz-adv-x="901" unicode="Ữ"/><glyph d="M942 1475q0 -53 -38 -91t-91 -38h-86v-1027q0 -168 -98 -258q-41 -39 -99.5 -59t-126.5 -20q-141 0 -227 79q-98 90 -98 258v1115h174v-1115q0 -84 37 -123.5t114 -39.5q78 0 114 40t36 123v1115h260q16 0 28.5 12t12.5 29h88zM295 1569q-37 -6 -86 -64l-68 56 q80 98 166 98q55 0 125 -41q47 -29 84 -23q39 8 82 62l70 -53q-76 -98 -166 -99q-57 0 -115 37q-55 33 -92 27z" glyph-name="uni1EEF" horiz-adv-x="901" unicode="ữ"/><glyph d="M942 1475q0 -53 -38 -91t-91 -38h-86v-1027q0 -168 -98 -258q-41 -39 -99.5 -59t-126.5 -20q-141 0 -227 79q-98 90 -98 258v1115h174v-1115q0 -84 37 -123.5t114 -39.5q78 0 114 40t36 123v1115h260q16 0 28.5 12t12.5 29h88zM338 -108.5q27 26.5 65 26.5q39 0 66 -26.5 t27 -65.5t-27 -65.5t-66 -26.5t-65.5 26.5t-26.5 65.5t27 65.5z" glyph-name="uni1EF0" horiz-adv-x="901" unicode="Ự"/><glyph d="M942 1475q0 -53 -38 -91t-91 -38h-86v-1027q0 -168 -98 -258q-41 -39 -99.5 -59t-126.5 -20q-141 0 -227 79q-98 90 -98 258v1115h174v-1115q0 -84 37 -123.5t114 -39.5q78 0 114 40t36 123v1115h260q16 0 28.5 12t12.5 29h88zM338 -108.5q27 26.5 65 26.5q39 0 66 -26.5 t27 -65.5t-27 -65.5t-66 -26.5t-65.5 26.5t-26.5 65.5t27 65.5z" glyph-name="uni1EF1" horiz-adv-x="901" unicode="ự"/><glyph d="M389 807l193 627h182l-287 -936v-498h-174v498l-287 936h181zM303 1722l139 -213h-104l-209 213h174z" glyph-name="Ygrave" horiz-adv-x="778" unicode="Ỳ"/><glyph d="M389 807l193 627h182l-287 -936v-498h-174v498l-287 936h181zM303 1722l139 -213h-104l-209 213h174z" glyph-name="ygrave" horiz-adv-x="778" unicode="ỳ"/><glyph d="M323.5 -108.5q26.5 26.5 65.5 26.5t65.5 -26.5t26.5 -65.5t-26.5 -65.5t-65.5 -26.5t-65.5 26.5t-26.5 65.5t26.5 65.5zM389 807l193 627h182l-287 -936v-498h-174v498l-287 936h181z" glyph-name="uni1EF4" horiz-adv-x="778" unicode="Ỵ"/><glyph d="M323.5 -108.5q26.5 26.5 65.5 26.5t65.5 -26.5t26.5 -65.5t-26.5 -65.5t-65.5 -26.5t-65.5 26.5t-26.5 65.5t26.5 65.5zM389 807l193 627h182l-287 -936v-498h-174v498l-287 936h181z" glyph-name="uni1EF5" horiz-adv-x="778" unicode="ỵ"/><glyph d="M389 807l193 627h182l-287 -936v-498h-174v498l-287 936h181zM372.5 1655.5q61.5 -60.5 61.5 -146.5h-88q0 49 -35 84t-84 35l-75 74q35 14 75 14q84 0 145.5 -60.5z" glyph-name="uni1EF6" horiz-adv-x="778" unicode="Ỷ"/><glyph d="M389 807l193 627h182l-287 -936v-498h-174v498l-287 936h181zM372.5 1655.5q61.5 -60.5 61.5 -146.5h-88q0 49 -35 84t-84 35l-75 74q35 14 75 14q84 0 145.5 -60.5z" glyph-name="uni1EF7" horiz-adv-x="778" unicode="ỷ"/><glyph d="M389 807l193 627h182l-287 -936v-498h-174v498l-287 936h181zM281 1573q-37 -6 -86 -64l-68 56q80 98 166 98q55 0 125 -41q47 -29 84 -23q39 8 82 62l69 -53q-76 -98 -166 -99q-57 0 -114 37q-55 33 -92 27z" glyph-name="uni1EF8" horiz-adv-x="778" unicode="Ỹ"/><glyph d="M389 807l193 627h182l-287 -936v-498h-174v498l-287 936h181zM281 1573q-37 -6 -86 -64l-68 56q80 98 166 98q55 0 125 -41q47 -29 84 -23q39 8 82 62l69 -53q-76 -98 -166 -99q-57 0 -114 37q-55 33 -92 27z" glyph-name="uni1EF9" horiz-adv-x="778" unicode="ỹ"/><glyph d="M586 647h-566v174h566v-174z" glyph-name="figuredash" horiz-adv-x="606" unicode="‒"/><glyph d="M967 647h-947v174h947v-174z" glyph-name="endash" horiz-adv-x="987" unicode="–"/><glyph d="M967 647h-947v174h947v-174z" glyph-name="emdash" horiz-adv-x="987" unicode="—"/><glyph d="M108.5 1138.5q-26.5 26.5 -26.5 65.5q0 35 27 84q18 33 49.5 82t42.5 64h53l-37 -97q0 -4 -3 -12t-3 -14q0 -16 14 -29q41 -31 41 -78q0 -39 -26.5 -65.5t-65.5 -26.5t-65.5 26.5z" glyph-name="quoteleft" horiz-adv-x="348" unicode="‘"/><glyph d="M239.5 1411q26.5 -27 26.5 -65q0 -35 -26 -84q-18 -33 -50 -82.5t-43 -63.5h-53l37 96q0 4 3 12.5t3 14.5q0 16 -14 29q-41 31 -41 78q0 39 26.5 65.5t65.5 26.5t65.5 -27z" glyph-name="quoteright" horiz-adv-x="348" unicode="’"/><glyph d="M229.5 153.5q26.5 -26.5 26.5 -65.5q0 -35 -27 -84q-18 -33 -50 -82t-42 -63h-53l37 96q0 4 3 12t3 15q0 16 -14 28q-41 31 -41 78q0 39 26.5 65.5t65.5 26.5t65.5 -26.5z" glyph-name="quotesinglbase" horiz-adv-x="327" unicode="‚"/><glyph d="M352.5 1138.5q-26.5 26.5 -26.5 65.5q0 35 26 84q18 33 50 82t42 64h54l-37 -97q0 -4 -3 -12t-3 -14q0 -16 14 -29q41 -31 41 -78q0 -39 -26.5 -65.5t-65.5 -26.5t-65.5 26.5zM98.5 1138.5q-26.5 26.5 -26.5 65.5q0 35 26 84q18 33 50 82t42 64h54l-37 -97q0 -4 -3 -12 t-3 -14q0 -16 14 -29q41 -31 41 -78q0 -39 -26.5 -65.5t-65.5 -26.5t-65.5 26.5z" glyph-name="quotedblleft" horiz-adv-x="591" unicode="“"/><glyph d="M239.5 1411q26.5 -27 26.5 -65q0 -35 -26 -84q-18 -33 -50 -82.5t-43 -63.5h-53l37 96q0 4 3 12.5t3 14.5q0 16 -14 29q-41 31 -41 78q0 39 26.5 65.5t65.5 26.5t65.5 -27zM493.5 1411q26.5 -27 26.5 -65q0 -35 -26 -84q-18 -33 -50 -82.5t-43 -63.5h-53l37 96 q0 4 3 12.5t3 14.5q0 16 -14 29q-41 31 -41 78q0 39 26.5 65.5t65.5 26.5t65.5 -27z" glyph-name="quotedblright" horiz-adv-x="591" unicode="”"/><glyph d="M229.5 153.5q26.5 -26.5 26.5 -65.5q0 -35 -27 -84q-18 -33 -50 -82t-42 -63h-53l37 96q0 4 3 12t3 15q0 16 -14 28q-41 31 -41 78q0 39 26.5 65.5t65.5 26.5t65.5 -26.5zM483.5 153.5q26.5 -26.5 26.5 -65.5q0 -35 -27 -84q-18 -33 -50 -82t-42 -63h-53l37 96q0 4 3 12 t3 15q0 16 -14 28q-41 31 -41 78q0 39 26.5 65.5t65.5 26.5t65.5 -26.5z" glyph-name="quotedblbase" horiz-adv-x="581" unicode="„"/><glyph d="M378 854q48 -47 48 -115t-48 -114.5t-114 -46.5q-68 0 -115 47t-47 114q0 68 47.5 115t114.5 47q66 0 114 -47z" glyph-name="bullet" horiz-adv-x="528" unicode="•"/><glyph d="M77.5 151.5q26.5 26.5 65.5 26.5t66 -26.5t27 -63.5q0 -39 -27 -65.5t-66 -26.5t-65.5 26.5t-26.5 65.5q0 37 26.5 63.5zM352.5 151.5q26.5 26.5 65.5 26.5t65.5 -26.5t26.5 -63.5q0 -39 -26.5 -65.5t-65.5 -26.5t-65.5 26.5t-26.5 65.5q0 37 26.5 63.5zM626.5 151.5 q26.5 26.5 65.5 26.5t65.5 -26.5t26.5 -63.5q0 -39 -26.5 -65.5t-65.5 -26.5t-65.5 26.5t-26.5 65.5q0 37 26.5 63.5z" glyph-name="ellipsis" unicode="…"/><glyph d="M990 25.5q-42 -19.5 -87 -19.5q-96 0 -162 76q-59 72 -59 166v18q0 96 59 168q70 76 162 76q45 0 87 -20.5t73 -55.5q59 -70 59 -168v-18q0 -96 -59 -166q-31 -37 -73 -56.5zM934 315.5q-14 20.5 -31 20.5q-18 0 -32.5 -20.5t-14.5 -49.5v-18q0 -29 14.5 -48.5 t32.5 -19.5q16 0 30.5 19.5t14.5 48.5v18q0 29 -14 49.5zM378 953.5q-42 -19.5 -87 -19.5q-47 0 -88 19.5t-72 56.5q-61 72 -61 166v20q0 94 61 166q31 35 73 55.5t87 20.5t87 -20.5t73 -55.5q59 -70 59 -166v-20q0 -96 -59 -166q-31 -37 -73 -56.5zM321.5 1244.5 q-14.5 19.5 -30.5 19.5q-18 0 -32.5 -19.5t-14.5 -48.5v-20q0 -29 14 -48.5t33 -19.5q16 0 30.5 19.5t14.5 48.5v20q0 29 -14.5 48.5zM727 1434h182l-442 -1434h-182zM1492 25.5q-42 -19.5 -87 -19.5q-96 0 -162 76q-59 72 -59 166v18q0 96 59 168q70 76 162 76 q45 0 87 -20.5t73 -55.5q59 -70 59 -168v-18q0 -96 -59 -166q-31 -37 -73 -56.5zM1435.5 315.5q-14.5 20.5 -30.5 20.5q-18 0 -32.5 -20.5t-14.5 -49.5v-18q0 -29 14 -48.5t33 -19.5q16 0 30.5 19.5t14.5 48.5v18q0 29 -14.5 49.5z" glyph-name="perthousand" horiz-adv-x="1693" unicode="‰"/><glyph d="M217 733l180 -547h-182l-182 547l182 547h182z" glyph-name="guilsinglleft" horiz-adv-x="430" unicode="‹"/><glyph d="M215 733l-182 547h184l180 -547l-180 -547h-184z" glyph-name="guilsinglright" horiz-adv-x="430" unicode="›"/><glyph d="M776 14q-82 -33 -164 -32q-88 0 -166.5 36.5t-134.5 104.5q-109 137 -121 369h-133v174h133v120h-133v175h136q12 227 118 358q55 68 133 104.5t168 36.5q76 0 142 -24l-62 -162q-37 12 -80 12q-102 0 -166 -76q-68 -86 -79 -249h313v-175h-315v-120h315v-174h-313 q8 -168 79 -259q66 -78 166 -77q53 0 93 18z" glyph-name="Euro" horiz-adv-x="827" unicode="€"/><glyph d="M702 0h-202l-445 774h322q74 0 110.5 35t38.5 111h-473v174h473v4q0 84 -35.5 123t-113.5 39h-324v88v86h756v-174h-139q31 -68 30 -162v-4h109v-174h-109q-2 -154 -96 -240q-90 -80 -227 -80h-21z" glyph-name="uni20B9" horiz-adv-x="849" unicode="₹"/><glyph d="M134 1094q93 168 256 262t364 94t363.5 -94t255.5 -262t93 -377t-93 -377t-256 -262t-363 -94q-201 0 -364 94t-256 262t-93 377t93 377zM262 414q74 -135 203 -211t289 -76t288.5 76t202.5 211t74 303t-74 303t-203 211t-288 76q-160 0 -289 -76t-203 -211t-74 -303 t74 -303zM659 541v-236h-174v828h324q109 0 184.5 -40t112.5 -104.5t37 -138.5q0 -80 -40 -150.5t-116 -114.5t-178 -44h-150zM659 958v-243h150q74 0 115 35.5t41 85.5q0 49 -41 85.5t-115 36.5h-150z" glyph-name="uni2117" horiz-adv-x="1507" unicode="℗"/><glyph d="M692 647h-620v174h620v-174z" glyph-name="minus" horiz-adv-x="763" unicode="−"/><glyph d="M633 678q-31 -31 -74 -49l172 -629h-180l-164 598h-131v-684q0 -16 12.5 -28.5t28.5 -12.5v-88q-119 0 -167 63.5t-48 151.5v1434h324q141 0 227 -80q98 -88 98 -258v-162q0 -166 -98 -256zM557 1096q0 84 -37 124t-114 40h-150v-488h150q78 0 114.5 39t36.5 123v162z " glyph-name="uni2C64" horiz-adv-x="788" unicode="Ɽ"/><glyph d="M1154 1396q38 -38 38 -91h-88q0 16 -12.5 28.5t-28.5 12.5h-86l-164 -1346h-74l-227 780l-227 -780h-72l-176 1434h176l94 -809l168 583h76l168 -583l94 809h250q53 0 91 -38z" glyph-name="uni2C72" horiz-adv-x="1150" unicode="Ⱳ"/><glyph d="M1154 1396q38 -38 38 -91h-88q0 16 -12.5 28.5t-28.5 12.5h-86l-164 -1346h-74l-227 780l-227 -780h-72l-176 1434h176l94 -809l168 583h76l168 -583l94 809h250q53 0 91 -38z" glyph-name="uni2C73" horiz-adv-x="1150" unicode="ⱳ"/><glyph d="M821 1434v-1434h-174v647h-299v-647h-174v1346h-86q-16 0 -28.5 -12.5t-12.5 -28.5h-88q0 53 38 91t91 38h260v-613h299v613h174z" glyph-name="uniA7AA" horiz-adv-x="903" unicode="Ɦ"/><glyph glyph-name="uniAB53" horiz-adv-x="1228" unicode="ꭓ"/><glyph glyph-name="glyph558" horiz-adv-x="1228"/><glyph d="M262 0h-174v1434h174v-1434zM239.5 1667q26.5 -27 26.5 -65q0 -39 -26.5 -66t-65.5 -27t-65.5 27t-26.5 66t26.5 65.5t65.5 26.5t65.5 -27z" glyph-name="glyph559" horiz-adv-x="348"/><glyph d="M1112 2h-174q-6 80 -43 166l-31 -35q-66 -72 -152.5 -110.5t-176.5 -38.5q-92 0 -174 29.5t-144 86.5q-66 61 -98 142q-37 84 -37 182q0 96 48 181t138 151l58 37q0 4 -4 4q-111 135 -111 301v37q0 166 119 254q86 63 205 63t204 -63q119 -92 119 -254v-17 q0 -188 -129 -311q-33 -31 -86 -64q47 -37 74 -59q92 -76 186 -192q41 78 60 120l159 -69q-55 -125 -112 -213q96 -174 102 -328zM528 612l-69 54q-53 -27 -90 -52q-113 -82 -113 -190q0 -121 80 -195q37 -35 88 -53t111 -18q53 0 106 24.5t96 69.5q27 31 66 82 q-92 131 -197 217q-49 41 -78 61zM637 1247q-45 31 -102 31t-103 -31q-47 -33 -47 -112v-37q0 -100 72 -191l37 -41l10 4h2q61 23 104 64q74 72 74 184v17q0 77 -47 112z" glyph-name="glyph560" horiz-adv-x="1204"/><glyph d="M739 1096v-766q0 -166 -98 -256q-86 -74 -225 -74h-324v629h-82v174h82v631h324q137 0 227 -80q96 -92 96 -258zM565 1096q0 84 -35.5 124t-113.5 40h-150v-457h123v-174h-123v-455h150q74 0 110 31q39 37 39 125v766z" glyph-name="glyph561" horiz-adv-x="808"/><glyph d="M256 1257v-434h272v-174h-272v-649q0 -88 -48 -151.5t-167 -63.5v88q16 0 28.5 12.5t12.5 28.5v1518h565v-175h-391z" glyph-name="glyph562" horiz-adv-x="681"/><glyph d="M633 678q-31 -31 -74 -49l172 -629h-180l-164 598h-131v-684q0 -16 12.5 -28.5t28.5 -12.5v-88q-119 0 -167 63.5t-48 151.5v1434h324q141 0 227 -80q98 -88 98 -258v-162q0 -166 -98 -256zM557 1096q0 84 -37 124t-114 40h-150v-488h150q78 0 114.5 39t36.5 123v162z " glyph-name="glyph563" horiz-adv-x="788"/><glyph glyph-name="glyph564" horiz-adv-x="1228"/></font>
</defs>
</svg>
