<?xml version="1.0" standalone="no"?>
<!DOCTYPE svg PUBLIC "-//W3C//DTD SVG 1.1//EN" "http://www.w3.org/Graphics/SVG/1.1/DTD/svg11.dtd">
<svg xmlns="http://www.w3.org/2000/svg"><metadata>This SVG WebFont was generated by YouWorkForThem.
EllenLuff.2018</metadata><defs><font horiz-adv-x="835" id="ywftsvg"><font-face ascent="1638" bbox="-676 -362 1679.03 1993" cap-height="1438" descent="-410" font-family="" font-stretch="normal" font-weight="900" panose-1="0 0 10 0 0 0 0 0 0 0" underline-position="0" underline-thickness="0" unicode-range="U+0020-AB53" units-per-em="2048" x-height="1438"/><missing-glyph horiz-adv-x="1228"/><glyph glyph-name=".notdef" horiz-adv-x="1228"/><glyph glyph-name="glyph1" horiz-adv-x="0"/><glyph glyph-name="glyph2" horiz-adv-x="1228"/><glyph glyph-name="space" horiz-adv-x="317" unicode=" "/><glyph d="M293 328l90 387l125 715h-166l-125 -715l-49 -387h125zM301 319h-141l49 396l125 723h182l-125 -723zM259.5 159.5q-19.5 20.5 -52.5 20.5q-41 0 -74 -30.5t-33 -73.5q0 -31 20.5 -51.5t53.5 -20.5q39 0 72 31t33 74q0 30 -19.5 50.5zM252 29.5q-35 -33.5 -78 -33.5 q-35 0 -58.5 23.5t-23.5 58.5q0 43 36 76.5t79 33.5q35 0 57.5 -22.5t22.5 -56.5q0 -46 -35 -79.5z" glyph-name="exclam" horiz-adv-x="346" unicode="!"/><glyph d="M395 1034l117 396h-174l-21 -396h78zM399 1026h-90l21 412h194zM643 1034l117 396h-174l-21 -396h78zM647 1026h-90l21 412h194z" glyph-name="quotedbl" horiz-adv-x="595" unicode="&quot;"/><glyph d="M1341 862h-196l-144 -295h232l-29 -182h-289l-190 -389h-190l190 389h-248l-190 -389h-191l191 389h-140l29 182h199l143 295h-231l30 182h289l191 394h190l-190 -394h247l191 394h188l-188 -394h137zM1333 870l31 166h-141l188 394h-172l-190 -394h-265l191 394h-174 l-191 -394h-284l-31 -166h235l-151 -311h-195l-28 -166h143l-190 -389h174l190 389h264l-190 -389h174l190 389h285l29 166h-236l152 311h192zM811 567l145 295h-247l-144 -295h246zM815 559h-262l152 311h264z" glyph-name="numbersign" horiz-adv-x="1265" unicode="#"/><glyph d="M713 975l20 121q6 31 6 53q0 106 -123 106q-76 0 -117.5 -37.5t-58.5 -121.5l-4 -25q-6 -31 -6 -55q0 -55 31 -96q18 -27 44.5 -46.5t78.5 -50.5q111 -68 164 -137q55 -80 55 -184q0 -49 -8 -92l-13 -72q-29 -166 -145 -262q-59 -47 -150 -70l-12 -69h-182l12 69 q-84 23 -125 72q-63 66 -63 178q0 25 8 82l31 176h182l-31 -176q-6 -27 -6 -51q0 -55 30.5 -82t94.5 -27q76 0 117 39t57 121l12 72q6 35 6 57q0 57 -30 100q-18 27 -45 46.5t-78 50.5q-8 6 -45 29.5t-66.5 50t-50.5 55.5q-57 82 -57 190q0 25 8 82l4 25q31 174 148 262 q68 55 149 69l12 70h183l-13 -70q78 -16 125 -71q61 -68 62 -176q0 -43 -9 -84l-20 -121h-182zM907 1096q8 41 8 84q0 104 -57 172q-53 55 -129 67l12 70h-166l-12 -70q-84 -12 -153 -69q-113 -84 -144 -254l-4 -25q-8 -57 -8 -84q0 -104 57 -184q25 -35 56.5 -60.5 t62.5 -45t39 -25.5q90 -55 127 -101q31 -43 31 -104q0 -23 -6 -57l-13 -72q-14 -88 -59 -128t-123 -40q-133 0 -133 115q0 27 6 53l31 168h-166l-31 -168q-6 -43 -6 -80q0 -111 57 -176q47 -49 129 -68l-12 -69h166l12 69q94 18 154 70q113 88 141 254l12 72q8 41 9 88 q0 109 -56 184q-29 41 -65.5 69.5t-93.5 63.5q-90 55 -127 100q-31 43 -31 101q0 25 6 55l4 25q14 86 59.5 127t124.5 41q131 0 132 -115q0 -25 -7 -53l-20 -113h166z" glyph-name="dollar" horiz-adv-x="788" unicode="$"/><glyph d="M994 29.5q44 19.5 81 54.5q70 70 86 164l4 18q4 33 4 49q0 70 -34 117q-23 35 -61 54.5t-81 19.5t-89 -19.5t-85 -54.5q-74 -80 -86 -166l-4 -18q-4 -29 -4 -43q0 -68 35 -121q51 -74 145 -74q45 0 89 19.5zM818 21.5q-40 19.5 -66 58.5q-35 57 -35 123q0 16 4 45l4 18 q14 94 90 170q39 37 86 57.5t92 20.5q43 0 83 -20.5t67 -57.5q35 -51 35 -123q0 -14 -4 -47l-5 -18q-16 -100 -90 -168q-35 -37 -81 -57.5t-93 -20.5t-87 19.5zM992.5 317.5q11.5 -22.5 6.5 -51.5l-4 -18q-4 -29 -22.5 -50.5t-36.5 -21.5q-20 0 -32.5 21.5t-8.5 50.5l4 18 q4 31 23.5 52.5t40.5 21.5q18 0 29.5 -22.5zM928.5 312.5q-17.5 -19.5 -21.5 -46.5l-4 -18l-2 -15q0 -20 10.5 -34.5t24.5 -14.5q16 0 31.5 18.5t19.5 45.5l4 18l2 15q0 20 -9 35.5t-21 15.5q-17 0 -34.5 -19.5zM545 957.5q45 19.5 82 54.5q70 70 86 164l4 20q4 29 4 43 q0 70 -35 121q-23 35 -60.5 54.5t-80.5 19.5t-88 -19.5t-84 -54.5q-72 -72 -88 -164l-4 -20q-4 -29 -5 -43q0 -68 37 -121q23 -35 60 -54.5t82 -19.5t90 19.5zM305 1008q-37 55 -37 127q0 12 4 41l4 20q14 94 93 168q37 37 83 57.5t93 20.5q43 0 83 -20.5t66 -57.5 q35 -51 35 -123q0 -12 -4 -45l-4 -20q-16 -100 -90 -168q-37 -37 -83 -57.5t-93 -20.5q-97 0 -150 78zM543.5 1246.5q11.5 -21.5 7.5 -50.5l-4 -20q-4 -27 -23.5 -49.5t-38.5 -22.5q-20 0 -31.5 21.5t-7.5 50.5l5 20q4 29 23.5 50.5t39.5 21.5q18 0 29.5 -21.5z M480.5 1241.5q-17.5 -18.5 -21.5 -45.5l-4 -20l-2 -15q0 -20 9 -34.5t23 -14.5q16 0 33 19.5t21 44.5l4 20l2 14q0 20 -9.5 35t-21.5 15q-16 0 -33.5 -18.5zM977 1438h190l-698 -1442h-190zM981 1430l-690 -1426h174l690 1426h-174z" glyph-name="percent" horiz-adv-x="1191" unicode="%"/><glyph d="M1163 162q-66 29 -157 125q104 127 206 280l-133 74q-123 -172 -174 -238q-82 106 -131 187q-53 86 -82 147l4 6h2h-2q100 37 181 101q147 119 180 305l2 16q6 35 6 66q0 117 -82 184q-78 63 -188 64q-113 0 -213 -64q-135 -90 -164 -250l-6 -37q-4 -18 -4 -59 q0 -106 53 -252q-37 -20 -58 -35q-203 -129 -237 -333q-8 -39 -8 -87q0 -43 10 -94q20 -82 74 -139q53 -53 127.5 -82t165.5 -29q186 0 348 136q111 -115 196 -150zM883 141q-166 -131 -348 -131q-92 0 -168 29t-129 86q-59 59 -78 143q-10 51 -10 97q0 45 8 84 q16 102 78.5 189t162.5 153l54 30q-53 141 -54 248q0 41 4 59l7 37q29 166 168 258q59 37 116.5 50.5t100.5 13.5q41 0 94 -13.5t98 -50.5q86 -74 86 -192q0 -31 -6 -66l-2 -16q-35 -193 -184 -313q-80 -63 -181 -101h-2h-2l4 6q29 -61 82 -147q47 -80 123 -178 q96 125 170 237l146 -80l2 -6q-25 -37 -84.5 -119.5t-120.5 -160.5q96 -98 158 -121l-93 -170q-87 30 -200 145zM629 485q51 -96 153 -219q-98 -82 -217 -82q-59 0 -108 18.5t-80 53.5q-51 51 -51 135q0 82 36.5 144.5t114.5 115.5l45 25q58 -123 107 -191zM481 643 q-78 -51 -112.5 -112.5t-34.5 -141.5q0 -78 47 -129q63 -68 184 -67q113 0 205 73q-102 133 -149 215q-59 94 -103 183q-12 -5 -37 -21zM815 1305.5q27 -7.5 45 -23.5q37 -31 37 -80q0 -12 -4 -37l-2 -16q-31 -178 -225 -252h-2h-2h2q-8 -4 -17 -4h2l-20 -6q-10 6 -11 16v-2 q-43 121 -43 197q0 23 3 30l6 37q16 78 71 117q47 31 109 31q24 0 51 -7.5zM659 1274q-53 -35 -67 -109l-6 -37q-2 -8 -2 -30q0 -76 43 -193v-2q0 -4 4 -8l14 6h2q6 0 12 4h3h2h-2q96 35 151 95.5t70 148.5l2 16q4 25 4 35q0 47 -33 74q-33 31 -92 31q-58 0 -105 -31z" glyph-name="ampersand" horiz-adv-x="1222" unicode="&amp;"/><glyph d="M395 1034l117 396h-174l-21 -396h78zM399 1026h-90l21 412h194z" glyph-name="quotesingle" horiz-adv-x="348" unicode="'"/><glyph d="M430 152q-66 2 -95.5 29.5t-29.5 84.5q0 14 4 51l142 797q14 86 57 126t121 42l30 166q-131 0 -235 -80q-113 -94 -139 -254l-142 -797q-6 -43 -6 -79q0 -109 56 -175q78 -78 206 -77zM188 59q-61 66 -61 177q0 25 8 81l141 797q29 166 144 262q106 80 248 80l-31 -182 q-78 2 -120 -37t-58 -123l-142 -797q-4 -18 -4 -51q0 -57 30 -82.5t95 -23.5l-30 -183q-144 0 -220 82z" glyph-name="parenleft" horiz-adv-x="468" unicode="("/><glyph d="M297 66q113 90 139 251l142 797q8 61 8 84q0 104 -58 172q-74 78 -206 78l-31 -166q127 -2 127 -115q0 -23 -6 -53l-142 -797q-14 -84 -57 -123.5t-121 -41.5l-31 -166q138 0 236 80zM84 160q78 -2 121 37t57 120l141 797q6 31 7 55q0 55 -31 81t-96 24l30 182 q145 0 222 -82q59 -70 59 -178q0 -25 -8 -82l-142 -797q-29 -166 -143 -260q-104 -80 -248 -80z" glyph-name="parenright" horiz-adv-x="468" unicode=")"/><glyph d="M907 1221l-229 -109l190 -113l-133 -147l-141 166l-82 -234l-164 58l139 211l-239 -33l31 182l229 -33l-64 213l183 58v-234l198 164zM895 1225l-74 133l-203 -168v237l-165 -49l67 -217l-233 33l-31 -166l248 37l-144 -219l148 -49l82 237l145 -170l121 135l-194 113z " glyph-name="asterisk" horiz-adv-x="757" unicode="*"/><glyph d="M903 825l-31 -182h-254l-45 -254h-182l45 254h-254l31 182h254l45 254h182l-45 -254h254zM895 817h-254l45 254h-166l-45 -254h-254l-31 -166h254l-45 -254h166l45 254h254z" glyph-name="plus" horiz-adv-x="825" unicode="+"/><glyph d="M238.5 156.5q23.5 -27.5 17.5 -68.5q-8 -37 -43 -86q-23 -33 -63.5 -82t-53.5 -63l-4 -2h-53l-4 6q6 10 21.5 38.5t31.5 57.5q10 16 10 33q0 10 -6 16q-31 29 -31 66q0 10 2 16q6 39 39 67.5t74 28.5q39 0 62.5 -27.5zM108.5 150.5q30.5 25.5 67.5 25.5t57.5 -25.5 t14.5 -62.5q-10 -37 -43 -82q-29 -41 -70 -90t-45 -53h-51l4 -6q6 10 21.5 38.5t31.5 57.5q10 18 10 35q0 16 -8 24q-29 25 -28 60q0 10 2 16q6 37 36.5 62.5z" glyph-name="comma" horiz-adv-x="286" unicode=","/><glyph d="M522 651l31 166h-383l-31 -166h383zM530 643h-399l31 182h399z" glyph-name="hyphen" horiz-adv-x="432" unicode="-"/><glyph d="M101.5 142.5q-31.5 -31.5 -31.5 -72.5q0 -29 20.5 -49.5t52.5 -20.5q41 0 74 30.5t33 71.5q0 31 -21.5 51.5t-54.5 20.5q-41 0 -72.5 -31.5zM234.5 159.5q23.5 -22.5 23.5 -57.5q0 -45 -36 -77.5t-79 -32.5q-35 0 -58.5 22.5t-23.5 55.5q0 45 34 78.5t79 33.5 q37 0 60.5 -22.5z" glyph-name="period" horiz-adv-x="286" unicode="."/><glyph d="M195 -4h-191l701 1442h188zM190 4l691 1426h-172l-693 -1426h174z" glyph-name="slash" horiz-adv-x="645" unicode="/"/><glyph d="M521.5 6.5q62.5 20.5 107.5 59.5q113 88 143 253l139 795q6 43 7 80q0 106 -60 176q-33 37 -86 57.5t-121 20.5q-137 0 -239 -80q-113 -88 -142 -254l-139 -795q-8 -41 -8 -86q0 -106 57 -170q74 -78 211 -77q68 0 130.5 20.5zM176 59q-61 63 -61 174q0 45 8 86l139 795 q29 166 146 262q100 80 243 80q68 0 124 -21.5t89 -60.5q63 -66 64 -178q0 -25 -8 -82l-140 -795q-31 -170 -147 -262q-49 -39 -111.5 -59.5t-130.5 -20.5q-141 0 -215 82zM752 1167q0 -25 -7 -53l-139 -795q-14 -86 -60 -126.5t-124 -40.5q-131 0 -131 114q0 23 6 53 l139 795q14 86 59.5 127t125.5 41q131 0 131 -115zM503 1236q-42 -38 -59 -122l-139 -795q-6 -31 -6 -53q0 -106 123 -106q76 0 118 39t58 120l139 795q6 31 6 53q0 106 -122 107q-76 0 -118 -38z" glyph-name="zero" horiz-adv-x="788" unicode="0"/><glyph d="M266 1208l342 230h105l-252 -1442h-182l202 1155l-256 -170zM274 1204l-36 -207l256 170l-207 -1163h166l252 1426h-93z" glyph-name="one" horiz-adv-x="538" unicode="1"/><glyph d="M868 1374q63 -66 64 -176q0 -43 -8 -82l-13 -65q-27 -166 -145 -279q-45 -41 -89 -68.5t-122 -68.5q-115 -57 -158 -94q-61 -61 -78 -154l-36 -209h475l-31 -182h-657l67 391q31 168 148 272q43 43 89 72t118 64q109 53 159 98q61 57 78 158l12 65q6 31 7 53 q0 104 -123 105q-76 0 -118 -38t-58 -120l-35 -205h-183l35 205q31 170 146 260q98 80 243 80t213 -82zM416 1368q-113 -90 -142 -252l-34 -196h166l34 196q14 86 59.5 126t125.5 40q131 0 131 -113q0 -25 -6 -53l-13 -65q-16 -100 -82 -162q-49 -47 -159 -103 q-72 -35 -118 -63.5t-89 -67.5q-113 -106 -144 -268l-67 -383h641l31 166h-476l37 217q18 100 82 158q29 27 65 48t93 50q78 41 122 67.5t89 65.5q115 115 141 275l12 65q8 39 9 82q0 109 -62 172q-66 78 -207 78t-239 -80z" glyph-name="two" horiz-adv-x="792" unicode="2"/><glyph d="M672 762q43 -37 67 -68q57 -86 58 -194q0 -25 -9 -82l-16 -99q-31 -170 -147 -262q-49 -39 -112.5 -59.5t-131.5 -20.5q-66 0 -121 21.5t-92 60.5q-61 66 -62 174q0 45 9 86l16 99h182l-16 -99q-6 -31 -6 -53q0 -106 121 -106q76 0 118.5 39t59.5 120l16 99q6 31 6 55 q0 51 -23.5 88t-66.5 66.5t-129 81.5l19 108q115 53 174 89t94 81t47 113l2 14q6 29 6 51q0 55 -30.5 82t-94.5 27q-76 0 -116.5 -39t-57.5 -121l-6 -43h-182l6 43q29 166 145 262q104 80 242 80q70 0 126 -21.5t89 -60.5q63 -66 64 -178q0 -25 -9 -82l-2 -14 q-31 -166 -147 -273q-45 -38 -90 -65zM901 1100l2 14q6 43 6 80q0 106 -59 176q-33 37 -87 57.5t-122 20.5q-135 0 -238 -80q-113 -88 -141 -254l-6 -35h166l6 35q14 88 59 128t123 40q133 0 133 -115q0 -25 -6 -53l-2 -14q-12 -70 -47 -117t-95.5 -83t-172.5 -87l-19 -100 q86 -51 129 -82t67 -69t24 -89q0 -25 -7 -55l-16 -99q-14 -86 -60 -126.5t-126 -40.5q-129 0 -129 112q0 25 6 55l16 91h-166l-16 -91q-8 -41 -8 -86q0 -106 57 -170q74 -78 209 -77q141 0 240 80q113 88 143 253l16 99q8 57 8 84q0 106 -57 188q-27 33 -72 72 q16 12 46 32.5t53 39.5q112 106 143 266z" glyph-name="three" horiz-adv-x="770" unicode="3"/><glyph d="M797 1438h178l-180 -1028h92l-31 -183h-92l-41 -231h-182l41 231h-492l16 97v2zM801 1430l-686 -1108v2l-17 -88h492l-41 -232h166l41 232h92l31 165h-93l181 1029h-166zM612 410l113 641l-367 -641h254zM621 401h-275l395 695z" glyph-name="four" horiz-adv-x="868" unicode="4"/><glyph d="M627 66q111 88 141 253l18 107q8 61 9 86q0 106 -58 188q-25 41 -59.5 67t-99.5 67q-47 31 -76 52t-47 48q-31 43 -31 100q0 25 6 56l29 174h473l31 166h-639l-60 -340q-8 -41 -8 -86q0 -106 57 -183q25 -39 59 -64.5t97 -66.5q55 -35 82 -54.5t47 -45.5q29 -47 29 -105 q0 -25 -6 -59l-19 -107q-14 -86 -59 -126.5t-125 -40.5q-129 0 -129 112q0 25 6 55l33 187h-166l-33 -187q-8 -41 -8 -88q0 -106 55 -168q74 -78 211 -77q138 0 240 80zM172 59q-59 61 -59 174q0 45 8 86l33 195h182l-33 -195q-6 -31 -6 -55q0 -55 29.5 -79.5t91.5 -24.5 q76 0 118 38t58 121l18 107q6 35 6 59q0 53 -28 101q-18 25 -44 43t-81 53q-57 37 -94 66.5t-66 68.5q-57 78 -57 187q0 45 8 86l59 348h656l-31 -183h-473l-29 -165q-6 -31 -6 -56q0 -57 31 -96q14 -23 36.5 -41t47 -33.5t35.5 -21.5q59 -37 97 -67t66 -70q57 -78 58 -191 q0 -27 -8 -88l-19 -107q-31 -170 -145 -262q-100 -80 -244 -80q-139 0 -215 82z" glyph-name="five" horiz-adv-x="774" unicode="5"/><glyph d="M717 993l20 121q6 29 6 51q0 55 -30.5 82t-94.5 27q-76 0 -116.5 -39t-57.5 -121l-55 -311l-6 4q74 31 158 31q139 0 215 -82q63 -63 63 -178q0 -25 -8 -82l-31 -177q-31 -170 -147 -262q-100 -80 -244 -80q-139 0 -215 82q-59 61 -59 174q0 45 8 86l31 177l108 618 q29 166 144 262q104 80 243 80q141 0 215 -82q63 -66 64 -178q0 -25 -8 -82l-21 -121h-182zM911 1114q6 43 7 80q0 111 -58 176q-74 78 -211 78t-239 -80q-113 -94 -140 -254l-108 -618l-31 -177q-8 -41 -8 -88q0 -106 55 -168q74 -78 211 -77q137 0 240 80q113 88 143 253 l31 177q6 43 6 82q0 111 -57 174q-74 78 -211 77q-86 0 -154 -30l-6 4l55 311q14 88 59.5 128t122.5 40q133 0 134 -115q0 -25 -7 -53l-20 -113h166zM392 616.5q-42 -38.5 -56 -120.5l-31 -177q-6 -31 -6 -53q0 -106 121 -106q76 0 119 39t59 120l31 177q4 18 4 51 q0 55 -30 81.5t-93 26.5q-76 0 -118 -38.5zM609.5 635q31.5 -29 31.5 -90q0 -12 -4 -49l-31 -177q-14 -86 -60 -126.5t-126 -40.5q-129 0 -129 112q0 25 6 55l31 177q14 86 59 127t123 41q68 0 99.5 -29z" glyph-name="six" horiz-adv-x="780" unicode="6"/><glyph d="M956 1438l-624 -1442h-189l547 1259h-436l31 183h671zM944 1430h-651l-31 -166h440l-546 -1260h172z" glyph-name="seven" horiz-adv-x="724" unicode="7"/><glyph d="M618 66q111 88 142 253l16 95q8 61 8 86q0 106 -57 186q-27 37 -55 62q53 37 78 59q113 106 143 268l6 39q8 61 8 84q0 104 -57 172q-74 78 -211 78t-240 -80q-113 -88 -141 -254l-6 -39q-8 -41 -8 -88q0 -102 55 -180q16 -25 57 -59q-16 -12 -39.5 -31t-37.5 -31 q-117 -106 -144 -272l-16 -95q-8 -41 -8 -86q0 -106 57 -170q74 -78 211 -77q137 0 239 80zM164 59q-61 66 -62 174q0 45 9 86l16 95q29 170 147 276q25 29 70 58q-37 33 -53 55q-55 80 -55 182q0 49 8 90l6 39q29 166 145 262q104 80 244 80q141 0 217 -82q59 -70 59 -178 q0 -25 -8 -82l-6 -39q-31 -168 -147 -272q-27 -29 -70 -55q18 -16 51 -58q57 -76 58 -188q0 -27 -9 -88l-16 -95q-31 -170 -145 -262q-100 -80 -244 -80q-139 0 -215 82zM584 575q31 -43 30 -108q0 -33 -4 -53l-16 -95q-14 -86 -60.5 -126.5t-123.5 -40.5q-131 0 -131 114 q0 23 6 53l16 95q10 59 30.5 95t51.5 69q39 35 115 73q61 -41 86 -76zM387 571q-61 -61 -78 -157l-16 -95q-6 -31 -6 -53q0 -106 123 -106q76 0 117.5 39t58.5 120l16 95q4 20 4 53q0 61 -31 104q-16 27 -77 72q-64 -33 -111 -72zM739 1167q0 -25 -6 -53l-6 -39 q-18 -100 -82 -155q-31 -33 -113 -76q-61 37 -92 76q-29 45 -28 98q0 27 6 57l6 39q14 86 59 127t125 41q131 0 131 -115zM490.5 1236q-41.5 -38 -58.5 -122l-6 -39q-6 -31 -6 -55q0 -55 29 -96q23 -29 83 -72q72 37 109 72q61 57 78 151l6 39q6 31 6 53q0 106 -123 107 q-76 0 -117.5 -38z" glyph-name="eight" horiz-adv-x="763" unicode="8"/><glyph d="M770 319q-31 -170 -147 -262q-49 -39 -113 -59.5t-131 -20.5q-139 0 -213 82q-61 63 -62 174q0 45 9 86l18 119h182l-18 -119q-6 -31 -6 -53q0 -106 121 -106q76 0 118.5 39t59.5 120l53 308l6 -4q-80 -29 -160 -29q-143 0 -213 82q-63 63 -63 176q0 25 8 82l33 180 q29 166 145 262q102 80 242 80q70 0 126 -21.5t89 -60.5q63 -66 64 -178q0 -25 -9 -82zM907 1194q0 106 -59 176q-33 37 -87 57.5t-122 20.5q-135 0 -238 -80q-113 -88 -141 -254l-33 -180q-6 -43 -6 -82q0 -109 58 -172q72 -78 208 -78q80 0 156 29l6 -4l-53 -308 q-14 -86 -60.5 -126.5t-125.5 -40.5q-129 0 -129 112q0 25 6 55l18 111h-166l-18 -111q-8 -41 -8 -86q0 -106 57 -170q74 -78 209 -77q141 0 239 80q113 88 144 253l139 795q6 43 6 80zM638 814q42 38 56 120l33 180q6 29 6 51q0 55 -30.5 82t-94.5 27q-76 0 -116.5 -39 t-57.5 -121l-33 -180q-4 -37 -4 -49q0 -57 30 -83t91 -26q78 0 120 38zM420 795.5q-31 27.5 -31 87.5q0 14 4 51l33 180q14 88 59 128t123 40q133 0 133 -115q0 -25 -6 -53l-33 -180q-14 -86 -59 -126t-125 -40q-67 0 -98 27.5z" glyph-name="nine" horiz-adv-x="776" unicode="9"/><glyph d="M250 953.5q-31 -25.5 -37 -62.5q-2 -6 -2 -19q0 -29 20.5 -49t53.5 -20q37 0 66.5 25.5t37.5 62.5q6 37 -14.5 62.5t-57.5 25.5q-36 0 -67 -25.5zM379.5 959.5q23.5 -27.5 17.5 -68.5q-8 -41 -40.5 -68.5t-71.5 -27.5q-35 0 -58.5 22.5t-23.5 54.5q0 12 2 19 q6 39 38.5 67.5t73.5 28.5q39 0 62.5 -27.5zM108.5 150.5q-30.5 -25.5 -36.5 -62.5q-2 -6 -2 -18q0 -29 20.5 -49.5t52.5 -20.5q37 0 67 25.5t38 62.5q6 37 -14.5 62.5t-57.5 25.5t-67.5 -25.5zM238.5 156.5q23.5 -27.5 17.5 -68.5q-8 -41 -41 -68.5t-72 -27.5 q-35 0 -58.5 22.5t-23.5 55.5q0 12 2 18q6 39 39 67.5t74 28.5q39 0 62.5 -27.5z" glyph-name="colon" horiz-adv-x="286" unicode=":"/><glyph d="M238.5 156.5q23.5 -27.5 17.5 -68.5q-8 -37 -43 -86q-23 -33 -63.5 -82t-53.5 -63l-4 -2h-53l-4 6q6 10 21.5 38.5t31.5 57.5q10 16 10 33q0 10 -6 16q-31 29 -31 66q0 10 2 16q6 39 39 67.5t74 28.5q39 0 62.5 -27.5zM108.5 150.5q30.5 25.5 67.5 25.5t57.5 -25.5 t14.5 -62.5q-10 -37 -43 -82q-29 -41 -70 -90t-45 -53h-51l4 -6q6 10 21.5 38.5t31.5 57.5q10 18 10 35q0 16 -8 24q-29 25 -28 60q0 10 2 16q6 37 36.5 62.5zM250 953.5q-31 -25.5 -37 -62.5q-2 -6 -2 -19q0 -29 20.5 -49t53.5 -20q37 0 66.5 25.5t37.5 62.5 q6 37 -14.5 62.5t-57.5 25.5q-36 0 -67 -25.5zM379.5 959.5q23.5 -27.5 17.5 -68.5q-8 -41 -40.5 -68.5t-71.5 -27.5q-35 0 -58.5 22.5t-23.5 54.5q0 12 2 19q6 39 38.5 67.5t73.5 28.5q39 0 62.5 -27.5z" glyph-name="semicolon" horiz-adv-x="286" unicode=";"/><glyph d="M434 733l350 -170l-32 -198l-580 280l31 178l680 281l-37 -201zM414 733l424 174l32 185l-659 -273l-31 -170l563 -272l33 182z" glyph-name="less" horiz-adv-x="763" unicode="&lt;"/><glyph d="M897 827l31 166h-676l-31 -166h676zM905 819h-692l31 182h692zM836 475l30 166h-676l-30 -166h676zM844 467h-692l30 182h692z" glyph-name="equal" horiz-adv-x="827" unicode="="/><glyph d="M588 733l-350 170l36 201l578 -281l-31 -178l-680 -280l35 198zM608 733l-424 -174l-30 -182l659 272l31 170l-565 273l-33 -185z" glyph-name="greater" horiz-adv-x="763" unicode=">"/><glyph d="M352.5 159.5q-20.5 20.5 -53.5 20.5q-39 0 -71.5 -30.5t-32.5 -73.5q0 -31 19 -51.5t52 -20.5q41 0 74 31t33 74q0 30 -20.5 50.5zM345 29.5q-36 -33.5 -79 -33.5q-35 0 -57.5 22.5t-22.5 57.5q0 45 35 78.5t78 33.5q35 0 58.5 -23.5t23.5 -58.5q0 -43 -36 -76.5z M227 289l19 104q25 141 99.5 245.5t197.5 168.5q86 43 122.5 104.5t55.5 163.5l6 39q6 31 6 53q0 106 -123 107q-76 0 -116.5 -38t-57.5 -122l-22 -135h-183l23 135q29 166 143 260q102 82 244 82q143 0 215 -84q61 -63 62 -176q0 -25 -9 -82l-6 -39q-29 -158 -100.5 -260 t-196.5 -168q-82 -41 -122 -101.5t-56 -152.5l-18 -104h-183zM420 393q16 92 57 154.5t125 107.5q129 68 197.5 170.5t95.5 249.5l6 39q6 43 6 80q0 111 -55 174q-74 80 -211 80q-135 0 -240 -82q-111 -86 -139 -252l-22 -127h166l22 127q14 88 59 128t123 40 q131 0 131 -115q0 -23 -6 -53l-6 -39q-18 -106 -56 -168.5t-126 -107.5q-119 -59 -193.5 -163t-99.5 -243l-18 -96h165z" glyph-name="question" horiz-adv-x="770" unicode="?"/><glyph d="M1001 209q70 0 138 22l6 -6q-55 -72 -123 -123q-82 -63 -186.5 -97t-221.5 -34t-209 34t-155 99q-66 70 -96 185q-12 55 -13 121q0 66 13 133l59 344q23 133 90 258q72 113 162 182q84 63 189.5 97t219.5 34q117 0 209.5 -33.5t153.5 -99.5q76 -76 96 -182 q12 -51 13 -115q0 -63 -13 -141l-35 -199q-29 -158 -104 -244q-39 -47 -89 -71.5t-108 -24.5q-92 0 -147 72q-76 -47 -166 -47q-113 0 -170 69q-45 51 -45 138q0 33 6 69l23 131q25 135 114 211q84 66 193 66q47 0 74 -8l4 24h182l-68 -385q-8 -57 -8 -78q0 -43 12 -61 q10 -18 27 -19q18 0 35 19q37 43 53 139l35 199q10 66 10 106q0 162 -95 222.5t-222 60.5q-147 0 -277.5 -83t-171.5 -306l-59 -344q-10 -66 -10 -107q0 -162 96 -222t223 -60q150 0 256 67q41 -12 100 -12zM645 145q-129 0 -228.5 62.5t-99.5 230.5q0 39 11 105l59 344 q41 229 174 313t283 84q129 0 227 -62.5t98 -228.5q0 -41 -10 -106l-35 -199q-16 -100 -53 -143q-18 -23 -43 -23q-23 0 -35 23t-12 63q0 18 8 80l68 377h-166l-4 -29q-33 12 -82 13q-111 0 -189 -66q-86 -70 -110 -203l-23 -131q-6 -37 -6 -71q0 -84 45 -132 q53 -66 162 -65q96 0 166 51q53 -76 147 -76q53 0 102.5 23.5t88.5 69.5q76 84 102 239l35 199q12 74 12 139q0 61 -12 117q-20 100 -92 178q-125 129 -359 129q-238 0 -405 -131q-88 -68 -158 -178q-68 -121 -90 -254l-59 -344q-12 -70 -12 -135q0 -63 12 -119 q29 -113 92 -180q129 -129 360 -129q238 0 404 131q68 51 119 118l6 -6q-74 -23 -142 -22q-55 0 -100 12q-109 -68 -256 -68zM807 649l22 131q4 25 5 41q0 27 -13 39q-12 14 -47 14q-43 0 -59 -14q-27 -27 -35 -80l-23 -131q-4 -25 -4 -39q0 -25 13 -41q12 -14 49 -14 q39 0 57 16q25 23 35 78zM715 547q-43 0 -56 18q-14 14 -14 45q0 14 4 39l23 131q8 59 39 86q20 16 63 17q39 0 53 -19q14 -14 15 -43q0 -16 -4 -41l-23 -131q-10 -63 -39 -86q-18 -16 -61 -16z" glyph-name="at" horiz-adv-x="1234" unicode="@"/><glyph d="M618 -4l-2 297h-292l-111 -297h-186l557 1442h174l47 -1442h-187zM627 4h170l-47 1426h-162l-549 -1426h170l110 297h306zM391 475h223l-8 590zM379 467l235 643l9 -643h-244z" glyph-name="A" unicode="A"/><glyph d="M408 4q133 0 237 76q111 86 139 250l25 135q8 57 8 78q0 123 -90 188q55 43 89 99.5t48 134.5l25 137q6 43 6 82q0 111 -57 170q-70 74 -211 73h-289l-252 -1423h322zM330 1436h297q145 0 215 -78q63 -63 63 -174q0 -25 -8 -82l-25 -137q-27 -152 -133 -234 q86 -68 86 -188q0 -39 -8 -78l-24 -135q-29 -170 -144 -258q-102 -76 -241 -76h-330zM518 633q131 0 131 -115q0 -25 -6 -53l-25 -135q-16 -90 -61 -129q-47 -31 -119 -31h-155l79 463h156zM291 178h147q76 0 115 31q43 35 57 121l25 135q6 31 6 53q0 106 -123 107h-147z M473 1262h123q68 0 99.5 -27t31.5 -84q0 -12 -4 -49l-25 -137q-14 -88 -58 -127t-124 -39h-123zM516 807q76 0 117 37t57 121l25 137q4 18 4 51q0 53 -28.5 76.5t-94.5 23.5h-115l-80 -446h115z" glyph-name="B" horiz-adv-x="790" unicode="B"/><glyph d="M629 66q113 88 143 253l33 189h-166l-33 -189q-14 -86 -60 -126.5t-126 -40.5q-129 0 -129 112q0 25 6 55l139 797q14 88 59.5 128t122.5 40q133 0 134 -115q0 -25 -7 -53l-22 -127h166l22 127q8 39 9 82q0 104 -60 174q-74 78 -211 78q-135 0 -237 -80 q-111 -90 -142 -254l-139 -797q-8 -41 -8 -86q0 -106 57 -170q74 -78 209 -77q138 0 240 80zM176 59q-61 63 -61 174q0 45 8 86l139 797q31 168 146 262q100 80 241 80t215 -82q63 -70 64 -178q0 -43 -8 -82l-23 -135h-182l22 135q6 29 6 51q0 55 -30.5 82t-94.5 27 q-76 0 -116.5 -39t-57.5 -121l-139 -797q-6 -31 -6 -53q0 -106 121 -106q76 0 119 39t59 120l33 197h182l-33 -197q-31 -170 -147 -262q-100 -80 -244 -80q-139 0 -213 82z" glyph-name="C" horiz-adv-x="780" unicode="C"/><glyph d="M643 78q115 90 141 252l136 766q8 41 8 84q0 102 -58 172q-74 78 -211 78h-321l-252 -1426h322q141 0 235 74zM78 -4l252 1442h329q141 0 218 -82q59 -66 59 -174q0 -45 -8 -86l-135 -766q-29 -166 -146 -260q-98 -74 -239 -74h-330zM473 1264h156q131 0 131 -115 q0 -25 -6 -53l-136 -766q-16 -90 -63 -129q-43 -31 -117 -31h-155zM438 178q76 0 113 31q45 35 59 121l135 766q6 31 7 53q0 106 -123 106h-148l-190 -1077h147z" glyph-name="D" horiz-adv-x="800" unicode="D"/><glyph d="M872 1255h-391l-75 -430h272l-31 -182h-272l-84 -465h391l-31 -182h-573l252 1442h573zM864 1264l31 166h-557l-252 -1426h557l31 166h-391l84 481h272l31 166h-273l76 447h391z" glyph-name="E" horiz-adv-x="710" unicode="E"/><glyph d="M872 1253h-391l-75 -426h272l-31 -182h-272l-115 -649h-182l252 1440h573zM864 1262l31 165h-557l-252 -1423h166l115 649h272l31 166h-273l76 443h391z" glyph-name="F" horiz-adv-x="681" unicode="F"/><glyph d="M631 66q111 88 141 253l84 480h-315l-31 -166h149l-53 -314q-14 -86 -60 -126.5t-124 -40.5q-131 0 -131 114q0 23 6 53l139 795q14 86 59.5 127t125.5 41q131 0 131 -115q0 -25 -7 -53l-22 -127h166l22 127q8 61 9 84q0 104 -58 172q-74 78 -211 78t-239 -80 q-113 -88 -142 -254l-139 -795q-8 -41 -8 -86q0 -106 57 -170q74 -78 211 -77q138 0 240 80zM176 59q-61 63 -61 174q0 45 8 86l139 795q29 166 146 262q104 80 243 80q141 0 217 -82q59 -70 60 -178q0 -25 -8 -82l-23 -135h-182l22 135q6 31 6 53q0 106 -122 107 q-76 0 -118 -38t-59 -122l-139 -795q-6 -31 -6 -53q0 -106 123 -106q76 0 118 39t58 120l53 306h-149l30 182h332l-84 -488q-31 -170 -145 -262q-100 -80 -244 -80q-139 0 -215 82z" glyph-name="G" horiz-adv-x="788" unicode="G"/><glyph d="M803 1438h182l-252 -1442h-182l115 647h-291l-115 -647h-182l252 1442h182l-106 -613h290zM811 1430l-106 -613h-308l107 613h-166l-252 -1426h166l115 647h307l-115 -647h166l252 1426h-166z" glyph-name="H" horiz-adv-x="811" unicode="H"/><glyph d="M252 4l252 1426h-166l-252 -1426h166zM260 -4h-182l252 1442h182z" glyph-name="I" horiz-adv-x="337" unicode="I"/><glyph d="M596 66q111 88 141 253l195 1111h-166l-195 -1111q-14 -86 -60 -126.5t-124 -40.5q-129 0 -129 112q0 25 6 55l31 181h-166l-31 -181q-8 -43 -8 -90q0 -104 55 -166q74 -78 211 -77q138 0 240 80zM141 59q-59 61 -59 170q0 47 8 90l31 189h182l-31 -189q-6 -31 -6 -55 q0 -55 30 -79.5t91 -24.5q76 0 118 39t58 120l195 1119h182l-195 -1119q-31 -170 -145 -262q-100 -80 -244 -80q-139 0 -215 82z" glyph-name="J" horiz-adv-x="761" unicode="J"/><glyph d="M319 334l-59 -338h-182l252 1442h182l-117 -676l432 676h203l-440 -684l186 -758h-198l-132 534l-127 -198v2zM311 336l140 215l135 -547h178l-182 750l432 676h-183l-452 -705l125 705h-166l-252 -1426h166l59 330v2z" glyph-name="K" horiz-adv-x="802" unicode="K"/><glyph d="M643 4l31 166h-391l221 1260h-166l-252 -1426h557zM651 -4h-573l252 1442h182l-221 -1260h391z" glyph-name="L" horiz-adv-x="679" unicode="L"/><glyph d="M629 498l520 940h104l-252 -1442h-182l139 788l-337 -612h-103l-119 614l-139 -790h-182l252 1442h106zM625 473l-197 957h-90l-252 -1426h166l147 827l127 -651h90l359 654l-148 -830h166l252 1426h-92z" glyph-name="M" horiz-adv-x="1079" unicode="M"/><glyph d="M406 846l-148 -850h-182l252 1442h104l244 -852l147 852h183l-252 -1442h-105zM406 883l251 -879h88l252 1426h-166l-155 -881l-252 881h-88l-252 -1426h166z" glyph-name="N" horiz-adv-x="829" unicode="N"/><glyph d="M629 66q111 88 141 253l139 795q8 61 9 84q0 104 -58 172q-74 78 -211 78t-239 -80q-113 -94 -140 -254l-139 -795q-8 -41 -8 -88q0 -106 55 -168q74 -78 211 -77q138 0 240 80zM174 59q-59 61 -59 174q0 45 8 86l139 795q29 166 144 262q104 80 243 80q141 0 217 -82 q59 -70 60 -178q0 -25 -8 -82l-140 -795q-31 -170 -145 -262q-100 -80 -244 -80q-139 0 -215 82zM750 1167q0 -23 -7 -53l-139 -795q-14 -86 -59 -126.5t-125 -40.5q-129 0 -129 112q0 25 6 55l139 795q14 88 59.5 128t122.5 40q132 0 132 -115zM502 1236q-41 -38 -58 -122 l-139 -795q-6 -31 -6 -55q0 -55 29.5 -79.5t91.5 -24.5q76 0 118 38t58 121l139 795q6 31 6 53q0 106 -123 107q-75 0 -116 -38z" glyph-name="O" horiz-adv-x="786" unicode="O"/><glyph d="M356 602h154q141 0 240 80q111 86 139 252l29 162q8 41 8 84q0 104 -56 172q-78 78 -213 78h-319l-252 -1426h166zM78 -4l252 1442h327q139 0 220 -82q57 -66 57 -174q0 -47 -8 -86l-29 -162q-29 -166 -143 -260q-98 -80 -244 -80h-145l-105 -598h-182zM473 1264h154 q131 0 131 -115q0 -25 -6 -53l-29 -162q-14 -86 -58 -126t-124 -40h-154zM541 776q76 0 117.5 39t56.5 119l28 162q6 31 7 53q0 106 -123 106h-146l-86 -479h146z" glyph-name="P" horiz-adv-x="776" unicode="P"/><glyph d="M752 -92l-31 -182h-31q-139 0 -213 79q-41 47 -49 109q-6 31 -6 68q-10 -2 -29 -2q-139 0 -219 81q-59 66 -59 175q0 45 8 86l139 792q29 170 146 262q104 80 243 80q141 0 215 -82q61 -63 62 -178q0 -25 -8 -82l-140 -792q-31 -168 -145 -263l-27 -18q-4 -25 -4 -35 q0 -43 21 -69q33 -29 96 -29h31zM618 -68q-23 29 -22 74q0 10 4 39l31 23q111 90 141 254l139 792q6 43 7 82q0 111 -56 174q-74 78 -211 78t-239 -80q-115 -88 -142 -254l-139 -792q-8 -41 -8 -84q0 -102 57 -172q78 -78 213 -78q27 0 37 4q0 -45 6 -78q10 -57 47 -104 q72 -76 207 -76h23l30 166h-22q-70 -1 -103 32zM299 270q0 -55 30.5 -81.5t94.5 -26.5q76 0 117 39t57 121l139 792q6 31 6 53q0 106 -122 107q-76 0 -118 -38t-59 -122l-139 -792q-6 -27 -6 -52zM436 1114q14 86 59.5 127t125.5 41q131 0 131 -115q0 -25 -7 -53l-139 -792 q-14 -88 -59 -128t-123 -40q-133 0 -133 114q0 27 6 54z" glyph-name="Q" horiz-adv-x="786" unicode="Q"/><glyph d="M735 -4h-188l-60 598h-122l-105 -598h-182l252 1442h327q68 0 125.5 -21.5t91.5 -60.5q61 -68 62 -176q0 -43 -8 -84l-29 -162q-29 -170 -145 -258q-29 -29 -80 -49zM750 682q113 88 141 252l29 162q8 41 8 84q0 104 -58 172q-74 78 -213 78h-319l-252 -1426h166l104 598 h140l59 -598h172l-61 627q55 22 84 51zM745 1096q6 29 7 51q0 55 -31 81.5t-94 26.5h-146l-86 -479h146q78 0 119.5 38t56.5 120zM666 808q-45 -40 -125 -40h-154l86 496h154q133 0 133 -115q0 -25 -6 -53l-29 -162q-14 -86 -59 -126z" glyph-name="R" horiz-adv-x="788" unicode="R"/><glyph d="M614 66q113 88 144 253l16 95q8 61 8 86q0 109 -59 186q-27 41 -63.5 69.5t-96.5 63.5q-53 35 -78.5 54.5t-46.5 46.5q-29 45 -28 98q0 27 6 57l6 39q14 88 59 128t123 40q133 0 133 -115q0 -25 -6 -53l-22 -127h165l23 127q6 43 6 80q0 106 -59 176q-33 37 -87.5 57.5 t-121.5 20.5q-135 0 -238 -80q-113 -88 -141 -254l-6 -39q-8 -41 -8 -88q0 -106 55 -180q27 -39 61.5 -65.5t98.5 -65.5q47 -29 76.5 -51.5t48.5 -49.5q31 -43 30 -108q0 -33 -4 -53l-16 -95q-14 -86 -60.5 -126.5t-125.5 -40.5q-129 0 -130 112q0 25 7 55l32 191h-165 l-33 -191q-8 -41 -8 -86q0 -106 57 -170q74 -78 209 -77q141 0 239 80zM254 -1.5q-55 21.5 -92 60.5q-61 66 -62 174q0 45 9 86l32 199h183l-33 -199q-6 -31 -6 -53q0 -106 121 -106q76 0 118.5 39t59.5 120l16 95q4 20 4 53q0 61 -31 104q-16 25 -40.5 43.5t-79.5 53.5 t-94.5 64.5t-69.5 70.5q-55 76 -56 182q0 47 9 90l6 39q29 166 145 262q104 80 242 80q70 0 126 -21.5t89 -60.5q63 -66 63 -178q0 -25 -8 -82l-22 -135h-183l23 135q6 29 6 51q0 55 -30.5 82t-94.5 27q-76 0 -117 -39t-57 -121l-6 -39q-6 -31 -6 -55q0 -55 28 -96 q18 -25 43 -43.5t78 -53.5q115 -68 164 -137q59 -82 60 -192q0 -27 -9 -84l-16 -95q-31 -170 -148 -262q-49 -39 -112.5 -59.5t-130.5 -20.5q-66 0 -121 21.5z" glyph-name="S" horiz-adv-x="759" unicode="S"/><glyph d="M938 1436l-31 -183h-241l-222 -1257h-182l221 1257h-239l30 183h664zM930 1427h-647l-31 -165h240l-222 -1258h166l221 1258h242z" glyph-name="T" horiz-adv-x="706" unicode="T"/><glyph d="M529.5 6.5q62.5 20.5 107.5 59.5q113 88 143 253l195 1111h-166l-195 -1111q-14 -86 -60 -126.5t-124 -40.5q-131 0 -131 114q0 23 6 53l195 1111h-166l-195 -1111q-8 -41 -8 -86q0 -106 57 -170q74 -78 211 -77q68 0 130.5 20.5zM184 59q-61 66 -61 174q0 45 8 86 l195 1119h182l-195 -1119q-6 -31 -6 -53q0 -106 123 -106q76 0 118 39t58 120l195 1119h182l-195 -1119q-31 -170 -147 -262q-49 -39 -111.5 -59.5t-130.5 -20.5q-141 0 -215 82z" glyph-name="U" horiz-adv-x="804" unicode="U"/><glyph d="M868 1438h187l-555 -1442h-176l-48 1442h187l16 -1069zM872 1430l-401 -1106l-16 1106h-170l47 -1426h164l546 1426h-170z" glyph-name="V" horiz-adv-x="825" unicode="V"/><glyph d="M647 766l-360 -770h-78l76 1442h184l-45 -793l262 567h82l63 -567l230 793h184l-430 -1442h-80zM651 795l92 -791h68l422 1426h-164l-242 -826l-67 600h-70l-278 -600l49 826h-168l-76 -1426h66z" glyph-name="W" horiz-adv-x="1024" unicode="W"/><glyph d="M653 715l150 -719h-195l-104 491l-279 -491h-194l407 719l-151 723h194l103 -496l278 496h195zM645 715l399 715h-178l-286 -512l-107 512h-178l151 -715l-403 -711h178l287 508l108 -508h179z" glyph-name="X" unicode="X"/><glyph d="M535 821l299 617h188l-453 -942v2l-88 -502h-182l88 502v0l-123 940h191zM530 793l-84 637h-174l123 -932v0l-88 -494h166l88 494v2l449 930h-172z" glyph-name="Y" horiz-adv-x="778" unicode="Y"/><glyph d="M709 4l30 166h-417l634 1260h-645l-30 -166h417l-635 -1260h646zM717 -4h-666l635 1259h-414l31 183h666l-635 -1260h414z" glyph-name="Z" horiz-adv-x="768" unicode="Z"/><glyph d="M350 4l31 166h-150l191 1094h149l31 166h-315l-252 -1426h315zM358 -4h-331l252 1442h331l-30 -183h-150l-190 -1077h149z" glyph-name="bracketleft" horiz-adv-x="415" unicode="["/><glyph d="M449 -4l-191 1442h188l193 -1442h-190zM457 4h174l-193 1426h-172z" glyph-name="backslash" horiz-adv-x="645" unicode="\"/><glyph d="M61 4h316l252 1426h-316l-30 -166h149l-190 -1094h-150zM53 -4l31 182h149l191 1077h-150l31 183h332l-252 -1442h-332z" glyph-name="bracketright" horiz-adv-x="462" unicode="]"/><glyph d="M616 1192l-239 -381h-201l391 627h181l170 -627h-201zM621 1212l104 -393h180l-166 611h-168l-378 -611h180z" glyph-name="asciicircum" horiz-adv-x="808" unicode="^"/><glyph d="M963 4l30 166h-938l-30 -166h938zM971 -4h-955l31 182h954z" glyph-name="underscore" horiz-adv-x="987" unicode="_"/><glyph d="M498 1720h-166l168 -207h94zM502 1729l104 -224h-110l-181 224h187z" glyph-name="grave" horiz-adv-x="354" unicode="`"/><glyph d="M618 -4l-2 297h-292l-111 -297h-186l557 1442h174l47 -1442h-187zM627 4h170l-47 1426h-162l-549 -1426h170l110 297h306zM391 475h223l-8 590zM379 467l235 643l9 -643h-244z" glyph-name="a" unicode="a"/><glyph d="M408 4q133 0 237 76q111 86 139 250l25 135q8 57 8 78q0 123 -90 188q55 43 89 99.5t48 134.5l25 137q6 43 6 82q0 111 -57 170q-70 74 -211 73h-289l-252 -1423h322zM330 1436h297q145 0 215 -78q63 -63 63 -174q0 -25 -8 -82l-25 -137q-27 -152 -133 -234 q86 -68 86 -188q0 -39 -8 -78l-24 -135q-29 -170 -144 -258q-102 -76 -241 -76h-330zM518 633q131 0 131 -115q0 -25 -6 -53l-25 -135q-16 -90 -61 -129q-47 -31 -119 -31h-155l79 463h156zM291 178h147q76 0 115 31q43 35 57 121l25 135q6 31 6 53q0 106 -123 107h-147z M473 1262h123q68 0 99.5 -27t31.5 -84q0 -12 -4 -49l-25 -137q-14 -88 -58 -127t-124 -39h-123zM516 807q76 0 117 37t57 121l25 137q4 18 4 51q0 53 -28.5 76.5t-94.5 23.5h-115l-80 -446h115z" glyph-name="b" horiz-adv-x="790" unicode="b"/><glyph d="M629 66q113 88 143 253l33 189h-166l-33 -189q-14 -86 -60 -126.5t-126 -40.5q-129 0 -129 112q0 25 6 55l139 797q14 88 59.5 128t122.5 40q133 0 134 -115q0 -25 -7 -53l-22 -127h166l22 127q8 39 9 82q0 104 -60 174q-74 78 -211 78q-135 0 -237 -80 q-111 -90 -142 -254l-139 -797q-8 -41 -8 -86q0 -106 57 -170q74 -78 209 -77q138 0 240 80zM176 59q-61 63 -61 174q0 45 8 86l139 797q31 168 146 262q100 80 241 80t215 -82q63 -70 64 -178q0 -43 -8 -82l-23 -135h-182l22 135q6 29 6 51q0 55 -30.5 82t-94.5 27 q-76 0 -116.5 -39t-57.5 -121l-139 -797q-6 -31 -6 -53q0 -106 121 -106q76 0 119 39t59 120l33 197h182l-33 -197q-31 -170 -147 -262q-100 -80 -244 -80q-139 0 -213 82z" glyph-name="c" horiz-adv-x="780" unicode="c"/><glyph d="M643 78q115 90 141 252l136 766q8 41 8 84q0 102 -58 172q-74 78 -211 78h-321l-252 -1426h322q141 0 235 74zM78 -4l252 1442h329q141 0 218 -82q59 -66 59 -174q0 -45 -8 -86l-135 -766q-29 -166 -146 -260q-98 -74 -239 -74h-330zM473 1264h156q131 0 131 -115 q0 -25 -6 -53l-136 -766q-16 -90 -63 -129q-43 -31 -117 -31h-155zM438 178q76 0 113 31q45 35 59 121l135 766q6 31 7 53q0 106 -123 106h-148l-190 -1077h147z" glyph-name="d" horiz-adv-x="800" unicode="d"/><glyph d="M872 1255h-391l-75 -430h272l-31 -182h-272l-84 -465h391l-31 -182h-573l252 1442h573zM864 1264l31 166h-557l-252 -1426h557l31 166h-391l84 481h272l31 166h-273l76 447h391z" glyph-name="e" horiz-adv-x="710" unicode="e"/><glyph d="M872 1253h-391l-75 -426h272l-31 -182h-272l-115 -649h-182l252 1440h573zM864 1262l31 165h-557l-252 -1423h166l115 649h272l31 166h-273l76 443h391z" glyph-name="f" horiz-adv-x="681" unicode="f"/><glyph d="M631 66q111 88 141 253l84 480h-315l-31 -166h149l-53 -314q-14 -86 -60 -126.5t-124 -40.5q-131 0 -131 114q0 23 6 53l139 795q14 86 59.5 127t125.5 41q131 0 131 -115q0 -25 -7 -53l-22 -127h166l22 127q8 61 9 84q0 104 -58 172q-74 78 -211 78t-239 -80 q-113 -88 -142 -254l-139 -795q-8 -41 -8 -86q0 -106 57 -170q74 -78 211 -77q138 0 240 80zM176 59q-61 63 -61 174q0 45 8 86l139 795q29 166 146 262q104 80 243 80q141 0 217 -82q59 -70 60 -178q0 -25 -8 -82l-23 -135h-182l22 135q6 31 6 53q0 106 -122 107 q-76 0 -118 -38t-59 -122l-139 -795q-6 -31 -6 -53q0 -106 123 -106q76 0 118 39t58 120l53 306h-149l30 182h332l-84 -488q-31 -170 -145 -262q-100 -80 -244 -80q-139 0 -215 82z" glyph-name="g" horiz-adv-x="788" unicode="g"/><glyph d="M803 1438h182l-252 -1442h-182l115 647h-291l-115 -647h-182l252 1442h182l-106 -613h290zM811 1430l-106 -613h-308l107 613h-166l-252 -1426h166l115 647h307l-115 -647h166l252 1426h-166z" glyph-name="h" horiz-adv-x="811" unicode="h"/><glyph d="M252 4l252 1426h-166l-252 -1426h166zM260 -4h-182l252 1442h182z" glyph-name="i" horiz-adv-x="337" unicode="i"/><glyph d="M596 66q111 88 141 253l195 1111h-166l-195 -1111q-14 -86 -60 -126.5t-124 -40.5q-129 0 -129 112q0 25 6 55l31 181h-166l-31 -181q-8 -43 -8 -90q0 -104 55 -166q74 -78 211 -77q138 0 240 80zM141 59q-59 61 -59 170q0 47 8 90l31 189h182l-31 -189q-6 -31 -6 -55 q0 -55 30 -79.5t91 -24.5q76 0 118 39t58 120l195 1119h182l-195 -1119q-31 -170 -145 -262q-100 -80 -244 -80q-139 0 -215 82z" glyph-name="j" horiz-adv-x="761" unicode="j"/><glyph d="M319 334l-59 -338h-182l252 1442h182l-117 -676l432 676h203l-440 -684l186 -758h-198l-132 534l-127 -198v2zM311 336l140 215l135 -547h178l-182 750l432 676h-183l-452 -705l125 705h-166l-252 -1426h166l59 330v2z" glyph-name="k" horiz-adv-x="802" unicode="k"/><glyph d="M643 4l31 166h-391l221 1257h-166l-252 -1423h557zM651 -4h-573l252 1440h182l-221 -1258h391z" glyph-name="l" horiz-adv-x="679" unicode="l"/><glyph d="M629 498l520 940h104l-252 -1442h-182l139 788l-337 -612h-103l-119 614l-139 -790h-182l252 1442h106zM625 473l-197 957h-90l-252 -1426h166l147 827l127 -651h90l359 654l-148 -830h166l252 1426h-92z" glyph-name="m" horiz-adv-x="1079" unicode="m"/><glyph d="M406 846l-148 -850h-182l252 1442h104l244 -852l147 852h183l-252 -1442h-105zM406 883l251 -879h88l252 1426h-166l-155 -881l-252 881h-88l-252 -1426h166z" glyph-name="n" horiz-adv-x="829" unicode="n"/><glyph d="M629 66q111 88 141 253l139 795q8 61 9 84q0 104 -58 172q-74 78 -211 78t-239 -80q-113 -94 -140 -254l-139 -795q-8 -41 -8 -88q0 -106 55 -168q74 -78 211 -77q138 0 240 80zM174 59q-59 61 -59 174q0 45 8 86l139 795q29 166 144 262q104 80 243 80q141 0 217 -82 q59 -70 60 -178q0 -25 -8 -82l-140 -795q-31 -170 -145 -262q-100 -80 -244 -80q-139 0 -215 82zM750 1167q0 -23 -7 -53l-139 -795q-14 -86 -59 -126.5t-125 -40.5q-129 0 -129 112q0 25 6 55l139 795q14 88 59.5 128t122.5 40q132 0 132 -115zM502 1236q-41 -38 -58 -122 l-139 -795q-6 -31 -6 -55q0 -55 29.5 -79.5t91.5 -24.5q76 0 118 38t58 121l139 795q6 31 6 53q0 106 -123 107q-75 0 -116 -38z" glyph-name="o" horiz-adv-x="786" unicode="o"/><glyph d="M356 602h154q141 0 240 80q111 86 139 252l29 162q8 41 8 84q0 104 -56 172q-78 78 -213 78h-319l-252 -1426h166zM78 -4l252 1442h327q139 0 220 -82q57 -66 57 -174q0 -47 -8 -86l-29 -162q-29 -166 -143 -260q-98 -80 -244 -80h-145l-105 -598h-182zM473 1264h154 q131 0 131 -115q0 -25 -6 -53l-29 -162q-14 -86 -58 -126t-124 -40h-154zM541 776q76 0 117.5 39t56.5 119l28 162q6 31 7 53q0 106 -123 106h-146l-86 -479h146z" glyph-name="p" horiz-adv-x="776" unicode="p"/><glyph d="M752 -92l-31 -182h-31q-139 0 -213 79q-41 47 -49 109q-6 31 -6 68q-10 -2 -29 -2q-139 0 -219 81q-59 66 -59 175q0 45 8 86l139 792q29 170 146 262q104 80 243 80q141 0 215 -82q61 -63 62 -178q0 -25 -8 -82l-140 -792q-31 -168 -145 -263l-27 -18q-4 -25 -4 -35 q0 -43 21 -69q33 -29 96 -29h31zM618 -68q-23 29 -22 74q0 10 4 39l31 23q111 90 141 254l139 792q6 43 7 82q0 111 -56 174q-74 78 -211 78t-239 -80q-115 -88 -142 -254l-139 -792q-8 -41 -8 -84q0 -102 57 -172q78 -78 213 -78q27 0 37 4q0 -45 6 -78q10 -57 47 -104 q72 -76 207 -76h23l30 166h-22q-70 -1 -103 32zM299 270q0 -55 30.5 -81.5t94.5 -26.5q76 0 117 39t57 121l139 792q6 31 6 53q0 106 -122 107q-76 0 -118 -38t-59 -122l-139 -792q-6 -27 -6 -52zM436 1114q14 86 59.5 127t125.5 41q131 0 131 -115q0 -25 -7 -53l-139 -792 q-14 -88 -59 -128t-123 -40q-133 0 -133 114q0 27 6 54z" glyph-name="q" horiz-adv-x="786" unicode="q"/><glyph d="M733 -4h-190l-90 598h-88l-105 -598h-182l252 1442h327q139 0 220 -82q57 -66 57 -174q0 -47 -8 -86l-29 -162q-29 -166 -143 -260q-53 -39 -113 -60zM750 682q111 86 139 252l29 162q8 41 8 84q0 104 -56 172q-78 78 -213 78h-319l-252 -1426h166l104 598h105l90 -598 h174l-92 614q70 25 117 64zM659 814q41 38 56 120l28 162q6 31 7 53q0 106 -123 106h-146l-86 -479h146q77 0 118 38zM387 768l86 496h154q131 0 131 -115q0 -23 -6 -53l-29 -162q-14 -86 -58 -126t-124 -40h-154z" glyph-name="r" horiz-adv-x="786" unicode="r"/><glyph d="M614 66q113 88 144 253l16 95q8 61 8 86q0 109 -59 186q-27 41 -63.5 69.5t-96.5 63.5q-53 35 -78.5 54.5t-46.5 46.5q-29 45 -28 98q0 27 6 57l6 39q14 88 59 128t123 40q133 0 133 -115q0 -25 -6 -53l-22 -127h165l23 127q6 43 6 80q0 106 -59 176q-33 37 -87.5 57.5 t-121.5 20.5q-135 0 -238 -80q-113 -88 -141 -254l-6 -39q-8 -41 -8 -88q0 -106 55 -180q27 -39 61.5 -65.5t98.5 -65.5q47 -29 76.5 -51.5t48.5 -49.5q31 -43 30 -108q0 -33 -4 -53l-16 -95q-14 -86 -60.5 -126.5t-125.5 -40.5q-129 0 -130 112q0 25 7 55l32 191h-165 l-33 -191q-8 -41 -8 -86q0 -106 57 -170q74 -78 209 -77q141 0 239 80zM254 -1.5q-55 21.5 -92 60.5q-61 66 -62 174q0 45 9 86l32 199h183l-33 -199q-6 -31 -6 -53q0 -106 121 -106q76 0 118.5 39t59.5 120l16 95q4 20 4 53q0 61 -31 104q-16 25 -40.5 43.5t-79.5 53.5 t-94.5 64.5t-69.5 70.5q-55 76 -56 182q0 47 9 90l6 39q29 166 145 262q104 80 242 80q70 0 126 -21.5t89 -60.5q63 -66 63 -178q0 -25 -8 -82l-22 -135h-183l23 135q6 29 6 51q0 55 -30.5 82t-94.5 27q-76 0 -117 -39t-57 -121l-6 -39q-6 -31 -6 -55q0 -55 28 -96 q18 -25 43 -43.5t78 -53.5q115 -68 164 -137q59 -82 60 -192q0 -27 -9 -84l-16 -95q-31 -170 -148 -262q-49 -39 -112.5 -59.5t-130.5 -20.5q-66 0 -121 21.5z" glyph-name="s" horiz-adv-x="759" unicode="s"/><glyph d="M938 1436l-31 -183h-241l-222 -1257h-182l221 1257h-239l30 183h664zM930 1427h-647l-31 -165h240l-222 -1258h166l221 1258h242z" glyph-name="t" horiz-adv-x="706" unicode="t"/><glyph d="M529.5 6.5q62.5 20.5 107.5 59.5q113 88 143 253l195 1111h-166l-195 -1111q-14 -86 -60 -126.5t-124 -40.5q-131 0 -131 114q0 23 6 53l195 1111h-166l-195 -1111q-8 -41 -8 -86q0 -106 57 -170q74 -78 211 -77q68 0 130.5 20.5zM184 59q-61 66 -61 174q0 45 8 86 l195 1119h182l-195 -1119q-6 -31 -6 -53q0 -106 123 -106q76 0 118 39t58 120l195 1119h182l-195 -1119q-31 -170 -147 -262q-49 -39 -111.5 -59.5t-130.5 -20.5q-141 0 -215 82z" glyph-name="u" horiz-adv-x="804" unicode="u"/><glyph d="M868 1438h187l-555 -1442h-176l-48 1442h187l16 -1069zM872 1430l-401 -1106l-16 1106h-170l47 -1426h164l546 1426h-170z" glyph-name="v" horiz-adv-x="825" unicode="v"/><glyph d="M647 766l-360 -770h-78l76 1442h184l-45 -793l262 567h82l63 -567l230 793h184l-430 -1442h-80zM651 795l92 -791h68l422 1426h-164l-242 -826l-67 600h-70l-278 -600l49 826h-168l-76 -1426h66z" glyph-name="w" horiz-adv-x="1024" unicode="w"/><glyph d="M653 715l150 -719h-195l-104 491l-279 -491h-194l407 719l-151 723h194l103 -496l278 496h195zM645 715l399 715h-178l-286 -512l-107 512h-178l151 -715l-403 -711h178l287 508l108 -508h179z" glyph-name="x" unicode="x"/><glyph d="M535 821l299 617h188l-453 -942v2l-88 -502h-182l88 502v0l-123 940h191zM530 793l-84 637h-174l123 -932v0l-88 -494h166l88 494v2l449 930h-172z" glyph-name="y" horiz-adv-x="778" unicode="y"/><glyph d="M709 4l30 166h-417l634 1260h-645l-30 -166h417l-635 -1260h646zM717 -4h-666l635 1259h-414l31 183h666l-635 -1260h414z" glyph-name="z" horiz-adv-x="768" unicode="z"/><glyph d="M584 152q-66 2 -95.5 29.5t-29.5 84.5q0 14 4 51l20 115q6 41 6 78q0 80 -30 141q-10 33 -35 64q55 59 57 63q80 98 103 221l20 113q14 86 57.5 126t120.5 42l31 166q-137 0 -235 -80q-113 -94 -140 -254l-20 -113q-20 -127 -154 -219l-102 -65l78 -66q82 -70 82 -172 q0 -12 -5 -45l-20 -115q-6 -43 -6 -79q0 -109 55 -175q78 -78 207 -77zM342 59q-61 66 -61 177q0 25 8 81l20 115q4 33 4 45q0 98 -77 164l-86 74l110 73q127 88 150 211l20 113q29 166 143 262q104 80 248 80l-30 -182q-80 2 -122 -37t-57 -123l-20 -113 q-23 -127 -103 -225q-16 -20 -30.5 -34.5t-22.5 -24.5q25 -45 31 -60q33 -63 33 -143q0 -27 -8 -80l-21 -115q-4 -18 -4 -51q0 -57 29.5 -82.5t95.5 -23.5l-31 -183q-143 0 -219 82z" glyph-name="braceleft" horiz-adv-x="622" unicode="{"/><glyph d="M557 -119l297 1671h-166l-297 -1671h166zM565 -127h-182l297 1688h182z" glyph-name="bar" horiz-adv-x="993" unicode="|"/><glyph d="M297 66q113 90 139 251l21 115q10 63 50 119.5t105 97.5l103 66l-78 65q-84 72 -84 174q0 12 4 45l21 115q8 61 8 84q0 104 -58 172q-74 78 -206 78l-31 -166q127 -2 127 -115q0 -23 -6 -53l-21 -115q-6 -39 -6 -75q0 -78 31 -146q12 -33 37 -63q-39 -35 -60 -64 q-80 -94 -102 -219l-21 -115q-14 -84 -57 -123.5t-121 -41.5l-31 -166q138 0 236 80zM84 160q78 -2 121 37t57 120l21 115q23 123 102 223q18 25 55 60q-25 41 -32 59q-31 72 -31 150q0 39 6 75l20 115q6 31 7 55q0 55 -31 81t-96 24l30 182q145 0 222 -82q59 -70 59 -178 q0 -25 -8 -82l-21 -115q-4 -33 -4 -45q0 -98 80 -166l86 -73l-111 -74q-129 -84 -151 -209l-21 -115q-29 -166 -143 -260q-104 -80 -248 -80z" glyph-name="braceright" horiz-adv-x="616" unicode="}"/><glyph glyph-name="uni00A0" horiz-adv-x="1228" unicode=" "/><glyph d="M432 1106h-125l-90 -387l-127 -715h166l127 715zM440 1114l-49 -395l-127 -723h-182l127 723l90 395h141zM498 1360q0 29 -20.5 49.5t-51.5 20.5q-37 0 -66.5 -26t-37.5 -63q-6 -37 16 -62.5t57 -25.5t64.5 27t36.5 61q2 7 2 19zM466 1272.5q-32 -27.5 -71 -27.5 q-41 0 -64.5 29t-17.5 67q8 41 41 69t72 28q33 0 56.5 -22.5t23.5 -55.5q0 -12 -2 -19q-6 -41 -38 -68.5z" glyph-name="exclamdown" horiz-adv-x="346" unicode="¡"/><glyph d="M727 977l21 119q6 31 6 53q0 106 -123 106q-76 0 -118 -37.5t-58 -121.5l-133 -758q-6 -27 -7 -51q0 -55 31 -82t94 -27q76 0 117 39t57 121l31 178h182l-30 -178q-29 -166 -146 -262q-59 -47 -149 -70l-13 -69h-182l12 69q-84 23 -124 72q-63 66 -64 178q0 25 8 82 l133 758q31 174 148 262q68 55 149 69l13 70h182l-12 -70q78 -16 125 -71q61 -68 61 -176q0 -43 -8 -84l-21 -119h-182zM922 1096q8 41 8 84q0 104 -58 172q-53 55 -129 67l13 70h-166l-12 -70q-84 -12 -154 -69q-113 -84 -143 -254l-134 -758q-6 -43 -6 -80q0 -111 58 -176 q47 -49 129 -68l-13 -69h166l13 69q94 18 153 70q113 88 141 254l31 170h-166l-30 -170q-14 -88 -59.5 -128t-123.5 -40q-133 0 -133 115q0 27 6 53l133 758q14 86 59.5 127t125.5 41q131 0 131 -115q0 -25 -6 -53l-21 -111h166z" glyph-name="cent" horiz-adv-x="808" unicode="¢"/><glyph d="M872 170h-413l-4 6q76 94 96 219l6 35l29 172h268l31 166h-326q-29 47 -29 135q0 49 9 96l20 113q14 86 59.5 127t122.5 41q68 0 99.5 -28.5t31.5 -90.5q0 -12 -4 -49l-8 -35h166l8 35q6 43 6 80q0 111 -57 176q-74 78 -211 78q-139 0 -237 -80q-113 -88 -142 -254 l-20 -113q-12 -70 -13 -131q0 -53 9 -88q2 -2 2 -6t-4 -6h-125l-31 -166h209q-6 -43 -29 -172l-6 -35q-25 -139 -133 -194q-39 -18 -74 -24.5t-47 -6.5h-33l-30 -166h774zM59 -4l31 182h41q12 0 46 6t71 25q104 51 129 186l6 35q23 123 29 164h-209l30 182h127v0 q-8 39 -8 92q0 63 13 131l20 113q29 166 145 262q49 39 112 59.5t130 20.5q139 0 215 -82q63 -66 64 -178q0 -25 -9 -82l-8 -43h-182l8 43q4 18 4 51q0 55 -29.5 82t-93.5 27q-76 0 -117.5 -39t-56.5 -121l-20 -113q-8 -47 -8 -94q0 -84 24 -129h330l-31 -182h-268 q-4 -29 -8 -45l-21 -119l-6 -35q-23 -131 -96 -223l-4 6h422l-31 -182h-791z" glyph-name="sterling" horiz-adv-x="913" unicode="£"/><glyph d="M827 629q-29 -156 -120 -242l45 -162l-179 -75l-41 147q-55 -10 -92 -10q-43 0 -88 10l-92 -147l-154 75l105 164q-47 63 -47 156q0 45 8 84l31 178q27 150 123 242l-45 159l178 76l41 -147q33 10 90 10q59 0 90 -10l92 147l154 -76l-105 -161q45 -63 45 -156 q0 -45 -8 -84zM858 893q0 94 -45 154l100 157l-137 68l-92 -144q-35 10 -94 11q-59 0 -94 -11l-41 144l-166 -68l45 -160q-94 -86 -123 -237l-31 -178q-8 -41 -8 -84q0 -96 47 -156l-100 -160l137 -67l92 143q45 -10 92 -10q45 0 97 10l41 -143l165 67l-45 162 q94 84 121 238l31 178q8 41 8 86zM348 575q0 -106 123 -106q76 0 117 38t57 122l31 178q6 31 6 53q0 104 -123 105q-76 0 -117 -37t-57 -121l-31 -178q-6 -31 -6 -54zM377 807q14 88 58 127t124 39q68 0 99.5 -27.5t31.5 -85.5q0 -23 -6 -53l-31 -178q-14 -88 -59 -128 t-123 -40q-131 0 -131 114q0 23 6 54z" glyph-name="currency" horiz-adv-x="778" unicode="¤"/><glyph d="M1022 1436l-432 -893h209l-15 -94h-223l-16 -80h223l-14 -95h-224l-49 -278h-182l49 278h-223l14 95h223l17 80h-223l14 94h209l-117 893h191l79 -615l299 615h191zM1010 1427h-174l-308 -634l-84 634h-174l117 -892h-209l-14 -78h223l-16 -97h-224l-14 -77h223l-49 -279 h166l49 279h223l15 77h-223l16 97h223l15 78h-213z" glyph-name="yen" horiz-adv-x="778" unicode="¥"/><glyph d="M383 -127l121 692h182l-121 -692h-182zM391 -119h166l121 676h-166zM862 1561l-114 -656h-183l115 656h182zM854 1552h-166l-115 -639h166z" glyph-name="brokenbar" horiz-adv-x="993" unicode="¦"/><glyph d="M626.5 -56q-108.5 -85 -251.5 -85q-123 0 -202 62.5t-79 176.5q0 31 6 62l11 65h182l-10 -65q-2 -8 -2 -23q0 -49 38.5 -72.5t86.5 -23.5q53 0 106 30.5t63 88.5q2 12 3 33q0 53 -32 77.5t-108 53.5q-61 23 -104 45t-82 59q-72 66 -72 166q0 31 6 63q12 76 54.5 137.5 t109.5 102.5q-47 39 -67.5 81t-20.5 99q0 20 8 78q23 131 131.5 216t251.5 85q123 0 202 -62.5t79 -176.5q0 -31 -6 -62l-10 -65h-183l10 65q2 8 3 23q0 49 -39 72.5t-86 23.5q-53 0 -106.5 -31t-63.5 -88q-2 -12 -2 -33q0 -51 31.5 -74.5t105.5 -54.5q63 -23 108 -46 t84 -62q70 -63 70 -168q0 -29 -6 -60q-14 -78 -57.5 -139t-108.5 -100q47 -39 67.5 -81t20.5 -99q0 -20 -8 -78q-23 -131 -131.5 -216zM758 240q0 55 -22.5 97t-71.5 81q86 49 132 127t46 172q0 98 -66 164q-39 39 -84 61.5t-106 44.5q-74 27 -109 53.5t-35 81.5 q0 80 59.5 120t121.5 40q49 0 91 -26.5t42 -77.5q0 -14 -2 -23l-11 -57h166l11 57q6 35 6 62q0 111 -76 171t-197 60q-137 0 -243.5 -81t-130.5 -212q-8 -57 -9 -80q0 -55 22.5 -97t72.5 -81q-70 -41 -114 -103.5t-56 -136.5q-6 -33 -7 -63q0 -96 68 -162q39 -37 84 -59.5 t100 -40.5q76 -29 111 -55.5t35 -83.5q0 -80 -59.5 -120t-120.5 -40q-49 0 -91.5 26.5t-42.5 77.5q0 14 2 23l11 57h-166l-10 -57q-6 -33 -7 -62q0 -111 76 -171t197 -60q137 0 243.5 81t131.5 212q8 57 8 80zM421 739q-56 -37 -56 -106q0 -49 38.5 -71.5t88.5 -22.5 q59 0 115.5 35.5t56.5 105.5q0 47 -37 71.5t-90 24.5q-60 0 -116 -37zM631 756.5q41 -27.5 41 -76.5q0 -76 -59.5 -113t-120.5 -37q-49 0 -92.5 26t-43.5 79q0 76 59.5 112.5t121.5 36.5q53 0 94 -27.5z" glyph-name="section" horiz-adv-x="798" unicode="§"/><glyph d="M469 1664q-20 26 -57 26t-68 -26t-37 -62q-2 -6 -2 -19q0 -29 20.5 -49.5t53.5 -20.5q37 0 66.5 26t37.5 63q6 36 -14 62zM450.5 1533q-32.5 -28 -71.5 -28q-35 0 -58.5 22.5t-23.5 55.5q0 12 2 19q6 39 39 67.5t74 28.5q39 0 62.5 -28t17.5 -68q-9 -41 -41.5 -69z M763.5 1664q-20.5 26 -56.5 26q-37 0 -68 -26t-37 -62q-2 -6 -2 -19q0 -29 20.5 -49.5t53.5 -20.5q37 0 66.5 26t37.5 63q6 36 -14.5 62zM745.5 1533q-32.5 -28 -71.5 -28q-35 0 -58.5 22.5t-23.5 55.5q0 12 2 19q6 39 39 67.5t74 28.5q39 0 62.5 -28t16.5 -68 q-8 -41 -40.5 -69z" glyph-name="dieresis" horiz-adv-x="520" unicode="¨"/><glyph d="M323.5 1094q122.5 168 303 264t383.5 96q178 0 314 -74.5t211 -210t75 -309.5q0 -70 -13 -143q-37 -211 -159.5 -379t-303 -263t-382.5 -95q-178 0 -315.5 74.5t-212 208.5t-74.5 306q0 57 14 148q37 209 159.5 377zM160 571q0 -170 73.5 -303t207.5 -206.5t311 -73.5 q201 0 380 94t299.5 261t157.5 374q12 74 13 145q0 170 -74 303t-208 207t-310 74q-201 0 -380 -95.5t-301 -261t-157 -372.5q-12 -74 -12 -146zM307 596q0 -135 58.5 -241.5t165 -165t245.5 -58.5q160 0 301.5 76t237.5 210t127 300q10 68 10 117q0 137 -58.5 243.5 t-165 166t-245.5 59.5q-160 0 -301 -76t-237.5 -210t-125.5 -300q-12 -62 -12 -121zM437.5 1022q97.5 135 240.5 212t305 77q141 0 249.5 -60.5t168 -169t59.5 -247.5q0 -49 -10 -117q-31 -170 -128 -305.5t-240.5 -212t-305.5 -76.5q-141 0 -249.5 60.5t-167 167 t-58.5 245.5q0 70 10 121q29 170 126.5 305zM1036 324q111 86 142 254l10 57h-166l-10 -57q-14 -86 -59.5 -127t-125.5 -41q-131 0 -131 114q0 27 6 54l50 278q14 86 59 127t123 41q68 0 99.5 -28.5t31.5 -90.5q0 -12 -4 -49l-12 -57h165l13 57q6 43 6 80q0 111 -57 176 q-74 78 -211 78q-139 0 -238 -80q-113 -88 -141 -254l-49 -278q-8 -39 -9 -82q0 -109 62 -174q68 -78 207 -78q137 0 239 80zM672.5 257.5q-56.5 21.5 -88.5 59.5q-63 66 -64 179q0 43 8 82l50 278q29 166 145 262q49 39 111.5 59.5t130.5 20.5q139 0 215 -82 q63 -66 63 -178q0 -25 -8 -82l-12 -65h-183l13 65q4 18 4 51q0 55 -30 82t-93 27q-76 0 -118 -39t-56 -121l-49 -278q-6 -31 -6 -54q0 -106 122 -106q76 0 118 38t59 122l10 65h182l-10 -65q-31 -172 -146 -263q-104 -80 -243 -79q-68 0 -124.5 21.5z" glyph-name="copyright" horiz-adv-x="1507" unicode="©"/><glyph d="M664 733l86 -551h-193l-84 551l279 551h192zM655 733l277 543h-176l-275 -543l84 -543h176zM348 733l86 -551h-192l-84 551l278 551h193zM340 733l276 543h-176l-274 -543l84 -543h176z" glyph-name="guillemotleft" horiz-adv-x="745" unicode="«"/><glyph d="M323.5 1094q122.5 168 303 264t383.5 96q178 0 314 -74.5t211 -210t75 -309.5q0 -70 -13 -143q-37 -211 -159.5 -379t-303 -263t-382.5 -95q-178 0 -315.5 74.5t-212 208.5t-74.5 306q0 57 14 148q37 209 159.5 377zM160 571q0 -170 73.5 -303t207.5 -206.5t311 -73.5 q201 0 380 94t299.5 261t157.5 374q12 74 13 145q0 170 -74 303t-208 207t-310 74q-201 0 -380 -95.5t-301 -261t-157 -372.5q-12 -74 -12 -146zM307 596q0 -135 58.5 -241.5t165 -165t245.5 -58.5q160 0 301.5 76t237.5 210t127 300q10 68 10 117q0 137 -58.5 243.5 t-165 166t-245.5 59.5q-160 0 -301 -76t-237.5 -210t-125.5 -300q-12 -62 -12 -121zM437.5 1022q97.5 135 240.5 212t305 77q141 0 249.5 -60.5t168 -169t59.5 -247.5q0 -49 -10 -117q-31 -170 -128 -305.5t-240.5 -212t-305.5 -76.5q-141 0 -249.5 60.5t-167 167 t-58.5 245.5q0 70 10 121q29 170 126.5 305zM1147 297h-193l-143 281h-90l-49 -281h-183l148 840h328q141 0 219 -70t78 -172q0 -92 -66 -174t-186 -123zM1186.5 723q66.5 82 66.5 172q0 98 -75.5 165.5t-212.5 67.5h-320l-147 -823h166l49 281h102l143 -281h177l-138 297 q123 39 189.5 121zM1021 793.5q46 33.5 46 76.5q0 35 -34 59.5t-99 24.5h-146l-36 -194h145q78 0 124 33.5zM743 752l37 211h154q70 0 106.5 -27t36.5 -66q0 -47 -49 -82.5t-131 -35.5h-154z" glyph-name="registered" horiz-adv-x="1507" unicode="®"/><glyph d="M905 1513l17 84h-615l-16 -84h614zM913 1505h-630l16 101h631z" glyph-name="macron" horiz-adv-x="663" unicode="¯"/><glyph d="M463 1720l-168 -207h92l240 207h-164zM459 1729h188l-256 -224h-112z" glyph-name="acute" horiz-adv-x="354" unicode="´"/><glyph d="M934 1438l-252 -1442h-182l221 1259h-31l-221 -1259h-182l102 602q-90 16 -145 78q-63 63 -64 176q0 25 8 82l29 162q31 174 148 262q49 39 111.5 59.5t129.5 20.5h328zM369 1350q-113 -84 -144 -254l-28 -162q-6 -43 -7 -82q0 -109 58 -172q61 -61 149 -74l-102 -602 h166l221 1260h47l-221 -1260h166l252 1426h-320q-139 0 -237 -80z" glyph-name="paragraph" horiz-adv-x="759" unicode="¶"/><glyph d="M253 795.5q-30 -25.5 -38 -62.5q-6 -37 14.5 -62.5t57.5 -25.5t67.5 25.5t36.5 62.5q2 6 2 19q0 29 -20.5 49t-53.5 20q-36 0 -66 -25.5zM377.5 806.5q23.5 -22.5 23.5 -54.5q0 -12 -2 -19q-6 -39 -38.5 -67.5t-73.5 -28.5q-39 0 -62.5 27.5t-17.5 68.5q8 41 41 68.5 t71 27.5q35 0 58.5 -22.5z" glyph-name="periodcentered" horiz-adv-x="348" unicode="·"/><glyph d="M205 -224q45 46 45 105q0 31 -11.5 49.5t-31.5 38.5q-4 0 -6 2q-12 10 -13 29l2 6h-79l-2 -6q-2 -6 -3 -18q0 -45 35 -74q4 0 4 -6q16 -12 20.5 -22.5t2.5 -24.5q-2 -18 -17.5 -31.5t-33.5 -13.5q-16 0 -27.5 11t-11.5 29h-80l-2 -18q0 -45 29.5 -73.5t74.5 -28.5 q60 0 105 46zM19.5 -248q-31.5 31 -31.5 80q0 18 2 27h96v-9q0 -14 8 -23t23 -9q16 0 28.5 11t14.5 26l2 10q0 16 -25 33v2q-39 35 -39 82q0 12 2 18l2 14h97l-2 -14q0 -14 8 -23q4 0 6 -4q20 -18 33.5 -38.5t13.5 -53.5q0 -66 -48 -113t-110 -47q-49 0 -80.5 31z" glyph-name="cedilla" horiz-adv-x="299" unicode="¸"/><glyph d="M340 733l-86 551h192l84 -551l-278 -551h-193zM348 733l-276 -543h176l274 543l-84 543h-176zM655 733l-86 551h193l84 -551l-279 -551h-192zM664 733l-277 -543h176l275 543l-84 543h-176z" glyph-name="guillemotright" horiz-adv-x="745" unicode="»"/><glyph d="M667.5 1279q22.5 -26 57.5 -26t64.5 27t35.5 61q2 6 2 19q0 29 -20.5 49.5t-50.5 20.5q-37 0 -67 -26t-38 -63q-6 -36 16.5 -62zM684 1410q33 28 72 28q33 0 56.5 -22.5t23.5 -55.5q0 -12 -2 -19q-6 -41 -38 -68.5t-71 -27.5q-41 0 -64.5 29t-17.5 67q8 41 41 69z M795 1145l-17 -105q-27 -141 -102.5 -246.5t-196.5 -166.5q-84 -43 -120.5 -104.5t-55.5 -164.5l-6 -39q-6 -31 -6 -55q0 -55 29.5 -79.5t91.5 -24.5q76 0 117.5 38t58.5 121l22 136h183l-23 -136q-31 -170 -145 -260q-104 -82 -244 -82q-139 0 -217 84q-57 66 -58 175 q0 45 9 83l6 39q27 154 97.5 257.5t197.5 170.5q82 41 123 102.5t57 151.5l16 105h183zM604 1040q-16 -92 -58 -154.5t-126 -107.5q-129 -68 -197.5 -170t-93.5 -250l-6 -39q-8 -39 -8 -83q0 -102 55 -170q76 -80 211 -80q139 0 240 82q113 90 141 251l22 127h-166l-22 -127 q-14 -86 -59 -126.5t-125 -40.5q-129 0 -129 112q0 25 6 55l6 39q18 104 55 168t125 109q119 59 193.5 162.5t101.5 242.5l16 97h-165z" glyph-name="questiondown" horiz-adv-x="770" unicode="¿"/><glyph d="M618 -4l-2 297h-292l-111 -297h-186l557 1442h174l47 -1442h-187zM627 4h170l-47 1426h-162l-549 -1426h170l110 297h306zM391 475h223l-8 590zM379 467l235 643l9 -643h-244zM633 1720h-166l168 -207h94zM637 1729l104 -224h-110l-180 224h186z" glyph-name="Agrave" unicode="À"/><glyph d="M618 -4l-2 297h-292l-111 -297h-186l557 1442h174l47 -1442h-187zM627 4h170l-47 1426h-162l-549 -1426h170l110 297h306zM391 475h223l-8 590zM379 467l235 643l9 -643h-244zM809 1720l-168 -207h92l240 207h-164zM805 1729h188l-256 -224h-112z" glyph-name="Aacute" unicode="Á"/><glyph d="M618 -4l-2 297h-292l-111 -297h-186l557 1442h174l47 -1442h-187zM627 4h170l-47 1426h-162l-549 -1426h170l110 297h306zM391 475h223l-8 590zM379 467l235 643l9 -643h-244zM915 1505h-110l-100 115l-142 -115h-114l182 219h178zM903 1513l-98 203h-170l-170 -203h94 l146 119l104 -119h94z" glyph-name="Acircumflex" unicode="Â"/><glyph d="M618 -4l-2 297h-292l-111 -297h-186l557 1442h174l47 -1442h-187zM627 4h170l-47 1426h-162l-549 -1426h170l110 297h306zM391 475h223l-8 590zM379 467l235 643l9 -643h-244zM588 1573q37 0 78 -27q53 -37 106 -37q82 0 176 95l-53 47q-51 -51 -94 -60q-37 -6 -82 23 q-63 41 -115 41q-84 0 -178 -94l53 -50q62 62 109 62zM414 1561q102 102 190 102q55 0 119 -41q43 -29 78 -23q43 10 94 64l66 -59q-96 -102 -191 -103q-55 0 -108 37q-41 27 -74 27q-20 0 -49 -16.5t-60 -49.5z" glyph-name="Atilde" unicode="Ã"/><glyph d="M618 -4l-2 297h-292l-111 -297h-186l557 1442h174l47 -1442h-187zM627 4h170l-47 1426h-162l-549 -1426h170l110 297h306zM391 475h223l-8 590zM379 467l235 643l9 -643h-244zM626.5 1664q-20.5 26 -57.5 26t-67.5 -26t-36.5 -62q-2 -6 -2 -19q0 -29 20.5 -49.5 t53.5 -20.5q37 0 66.5 26t37.5 63q6 36 -14.5 62zM608 1533q-33 -28 -71 -28q-35 0 -58.5 22.5t-23.5 55.5q0 12 2 19q6 39 38.5 67.5t73.5 28.5q39 0 62.5 -28t17.5 -68q-8 -41 -41 -69zM921.5 1664q-20.5 26 -57.5 26t-67.5 -26t-36.5 -62q-2 -6 -2 -19q0 -29 20.5 -49.5 t52.5 -20.5q37 0 67 26t38 63q6 36 -14.5 62zM903 1533q-33 -28 -72 -28q-35 0 -58 22.5t-23 55.5q0 12 2 19q6 39 38.5 67.5t73.5 28.5q39 0 62.5 -28t17.5 -68q-8 -41 -41 -69z" glyph-name="Adieresis" unicode="Ä"/><glyph d="M618 -4l-2 297h-292l-111 -297h-186l557 1442h174l47 -1442h-187zM627 4h170l-47 1426h-162l-549 -1426h170l110 297h306zM391 475h223l-8 590zM379 467l235 643l9 -643h-244zM789.5 1565q46.5 45 46.5 102q0 45 -30 75t-75 30q-57 0 -104 -47.5t-47 -104.5 q0 -43 29.5 -71.5t74.5 -28.5q59 0 105.5 45zM603 1542q-32 31 -32 78q0 63 49.5 111.5t110.5 48.5q49 0 81 -33t32 -80q0 -63 -48 -109.5t-112 -46.5q-49 0 -81 31zM742.5 1680.5q11.5 -11.5 11.5 -27.5q0 -23 -16.5 -38.5t-37.5 -15.5q-16 0 -27 11.5t-11 27.5q0 20 16 37 t37 17q16 0 27.5 -11.5zM685 1672q-13 -11 -15 -27v-7q0 -14 8 -22t22 -8q16 0 29.5 11t15.5 26v8q0 14 -8 22t-22 8q-17 0 -30 -11z" glyph-name="Aring" unicode="Å"/><glyph d="M1325 1255h-389l-76 -430h270l-30 -182h-271l-84 -465h390l-31 -182h-572l46 258h-252l-111 -258h-188l620 1442h709zM1317 1264l31 166h-697l-612 -1426h172l111 258h264l-45 -258h555l30 166h-389l84 481h271l30 166h-270l76 447h389zM406 436h202l140 791zM393 428 l375 864l-152 -864h-223z" glyph-name="AE" horiz-adv-x="1163" unicode="Æ"/><glyph d="M715 979l22 135q6 31 6 53q0 106 -122 107q-76 0 -118 -38t-59 -122l-139 -792q-6 -27 -6 -52q0 -55 30.5 -81.5t94.5 -26.5q76 0 117 39t57 121l33 196h182l-33 -196q-31 -166 -147 -263q-80 -61 -191 -77l7 -5q4 0 4 -6q23 -20 36 -39.5t13 -50.5q0 -63 -48 -112.5 t-110 -49.5q-49 0 -82 34t-33 81q0 16 2 25h97v-9q0 -14 9 -24t23 -10q16 0 28.5 12t14.5 27l3 10q0 8 -6.5 15t-16.5 16q-2 0 -3 2l-1 2q-41 35 -35 82q-106 12 -170 79q-59 66 -59 175q0 45 8 86l139 792q29 170 146 262q100 80 243 80q68 0 124 -21.5t89 -60.5 q63 -63 64 -178q0 -25 -8 -82l-23 -135h-182zM911 1114q6 43 7 80q0 111 -60 176q-33 37 -86 57.5t-121 20.5q-137 0 -239 -80q-115 -88 -142 -254l-139 -792q-8 -41 -8 -84q0 -102 57 -172q68 -68 172 -76q-6 -53 31 -84l4 -2q16 -14 21.5 -24.5t3.5 -24.5 q-2 -20 -17.5 -34t-34.5 -14q-18 0 -29.5 12.5t-11.5 30.5h-79l-2 -18q0 -45 30.5 -74.5t75.5 -29.5q59 0 104.5 46t45.5 107q0 33 -12.5 50.5t-37.5 37.5h2q-14 10 -12 21q117 12 195 78q113 88 143 254l33 188h-166l-33 -188q-14 -88 -59 -128t-123 -40q-133 0 -133 114 q0 27 6 54l139 792q14 86 59.5 127t125.5 41q131 0 131 -115q0 -25 -7 -53l-22 -127h166z" glyph-name="Ccedilla" horiz-adv-x="780" unicode="Ç"/><glyph d="M872 1255h-391l-75 -430h272l-31 -182h-272l-84 -465h391l-31 -182h-573l252 1442h573zM864 1264l31 166h-557l-252 -1426h557l31 166h-391l84 481h272l31 166h-273l76 447h391zM580 1720h-166l168 -207h94zM584 1729l104 -224h-110l-181 224h187z" glyph-name="Egrave" horiz-adv-x="710" unicode="È"/><glyph d="M872 1255h-391l-75 -430h272l-31 -182h-272l-84 -465h391l-31 -182h-573l252 1442h573zM864 1264l31 166h-557l-252 -1426h557l31 166h-391l84 481h272l31 166h-273l76 447h391zM756 1720l-168 -207h92l240 207h-164zM752 1729h188l-256 -224h-113z" glyph-name="Eacute" horiz-adv-x="710" unicode="É"/><glyph d="M872 1255h-391l-75 -430h272l-31 -182h-272l-84 -465h391l-31 -182h-573l252 1442h573zM864 1264l31 166h-557l-252 -1426h557l31 166h-391l84 481h272l31 166h-273l76 447h391zM862 1505h-110l-101 115l-141 -115h-115l183 219h178zM850 1513l-98 203h-170l-170 -203h94 l145 119l105 -119h94z" glyph-name="Ecircumflex" horiz-adv-x="710" unicode="Ê"/><glyph d="M872 1255h-391l-75 -430h272l-31 -182h-272l-84 -465h391l-31 -182h-573l252 1442h573zM864 1264l31 166h-557l-252 -1426h557l31 166h-391l84 481h272l31 166h-273l76 447h391zM573.5 1664q-20.5 26 -57.5 26t-67.5 -26t-36.5 -62q-2 -6 -2 -19q0 -29 20.5 -49.5 t52.5 -20.5q37 0 67 26t38 63q6 36 -14.5 62zM555 1533q-33 -28 -72 -28q-35 0 -58.5 22.5t-23.5 55.5q0 12 2 19q6 39 39 67.5t74 28.5q39 0 62.5 -28t17.5 -68q-8 -41 -41 -69zM868.5 1664q-20.5 26 -57.5 26t-67.5 -26t-36.5 -62q-2 -6 -2 -19q0 -29 20 -49.5t53 -20.5 q37 0 66.5 26t38.5 63q6 36 -14.5 62zM850 1533q-33 -28 -72 -28q-35 0 -58.5 22.5t-23.5 55.5q0 12 2 19q6 39 39 67.5t74 28.5q39 0 62.5 -28t17.5 -68q-8 -41 -41 -69z" glyph-name="Edieresis" horiz-adv-x="710" unicode="Ë"/><glyph d="M252 4l252 1426h-166l-252 -1426h166zM260 -4h-182l252 1442h182zM383 1513v-8h104v8h-104zM383 1513h104v-8h-104v8zM383 1718h-164l166 -205h96zM387 1726l107 -221h-113l-178 221h184z" glyph-name="Igrave" horiz-adv-x="337" unicode="Ì"/><glyph d="M252 4l252 1426h-166l-252 -1426h166zM260 -4h-182l252 1442h182zM561 1718l-170 -205h94l238 205h-162zM557 1726h186l-254 -221h-114z" glyph-name="Iacute" horiz-adv-x="337" unicode="Í"/><glyph d="M252 4l252 1426h-166l-252 -1426h166zM260 -4h-182l252 1442h182zM668 1505h-111l-100 115l-142 -115h-114l182 219h178zM655 1513l-98 203h-170l-170 -203h94l146 119l104 -119h94z" glyph-name="Icircumflex" horiz-adv-x="337" unicode="Î"/><glyph d="M252 4l252 1426h-166l-252 -1426h166zM260 -4h-182l252 1442h182zM376.5 1664q-20.5 26 -57.5 26t-67.5 -26t-36.5 -62q-2 -6 -2 -19q0 -29 20.5 -49.5t53.5 -20.5q37 0 66.5 26t37.5 63q6 36 -14.5 62zM358.5 1533q-32.5 -28 -71.5 -28q-35 0 -58.5 22.5t-23.5 55.5 q0 12 2 19q6 39 39 67.5t73 28.5q39 0 63 -28t17 -68q-8 -41 -40.5 -69zM671.5 1664q-20.5 26 -57.5 26t-67.5 -26t-36.5 -62q-2 -6 -2 -19q0 -29 20.5 -49.5t53.5 -20.5q37 0 66.5 26t37.5 63q6 36 -14.5 62zM653.5 1533q-32.5 -28 -71.5 -28q-35 0 -58.5 22.5t-23.5 55.5 q0 12 2 19q6 39 38.5 67.5t73.5 28.5q39 0 62.5 -28t17.5 -68q-8 -41 -40.5 -69z" glyph-name="Idieresis" horiz-adv-x="335" unicode="Ï"/><glyph d="M944 1180q0 -45 -8 -84l-135 -766q-29 -166 -146 -260q-98 -74 -239 -74h-328l111 629h-82l30 182h82l111 631h328q139 0 219 -82q57 -65 57 -176zM668 1430h-320l-110 -631h-82l-31 -166h82l-111 -629h320q141 0 235 74q115 90 142 252l135 766q8 39 8 84q0 100 -55 172 q-78 78 -213 78zM754 1096q6 31 6 53q0 106 -123 106h-145l-80 -448h123l-31 -182h-123l-80 -447h145q76 0 115 31q43 33 57 121zM565 201q-45 -31 -119 -31h-153l80 463h123l30 166h-123l80 465h154q131 0 131 -115q0 -23 -6 -53l-135 -766q-15 -92 -62 -129z" glyph-name="Eth" horiz-adv-x="808" unicode="Ð"/><glyph d="M406 846l-148 -850h-182l252 1442h104l244 -852l147 852h183l-252 -1442h-105zM406 883l251 -879h88l252 1426h-166l-155 -881l-252 881h-88l-252 -1426h166zM594 1573q37 0 78 -27q51 -37 106 -37q82 0 176 95l-53 47q-51 -51 -94 -60q-37 -6 -82 23q-63 41 -115 41 q-84 0 -178 -94l53 -50q62 62 109 62zM420 1561q102 102 190 102q55 0 119 -41q43 -29 78 -23q43 10 94 64l66 -59q-96 -102 -191 -103q-55 0 -108 37q-41 27 -74 27q-20 0 -49 -16.5t-60 -49.5z" glyph-name="Ntilde" horiz-adv-x="829" unicode="Ñ"/><glyph d="M629 66q111 88 141 253l139 795q8 61 9 84q0 104 -58 172q-74 78 -211 78t-239 -80q-113 -94 -140 -254l-139 -795q-8 -41 -8 -88q0 -106 55 -168q74 -78 211 -77q138 0 240 80zM174 59q-59 61 -59 174q0 45 8 86l139 795q29 166 144 262q104 80 243 80q141 0 217 -82 q59 -70 60 -178q0 -25 -8 -82l-140 -795q-31 -170 -145 -262q-100 -80 -244 -80q-139 0 -215 82zM750 1167q0 -23 -7 -53l-139 -795q-14 -86 -59 -126.5t-125 -40.5q-129 0 -129 112q0 25 6 55l139 795q14 88 59.5 128t122.5 40q132 0 132 -115zM502 1236q-41 -38 -58 -122 l-139 -795q-6 -31 -6 -55q0 -55 29.5 -79.5t91.5 -24.5q76 0 118 38t58 121l139 795q6 31 6 53q0 106 -123 107q-75 0 -116 -38zM606 1718h-164l166 -205h97zM610 1726l107 -221h-113l-178 221h184z" glyph-name="Ograve" horiz-adv-x="786" unicode="Ò"/><glyph d="M629 66q111 88 141 253l139 795q8 61 9 84q0 104 -58 172q-74 78 -211 78t-239 -80q-113 -94 -140 -254l-139 -795q-8 -41 -8 -88q0 -106 55 -168q74 -78 211 -77q138 0 240 80zM174 59q-59 61 -59 174q0 45 8 86l139 795q29 166 144 262q104 80 243 80q141 0 217 -82 q59 -70 60 -178q0 -25 -8 -82l-140 -795q-31 -170 -145 -262q-100 -80 -244 -80q-139 0 -215 82zM750 1167q0 -23 -7 -53l-139 -795q-14 -86 -59 -126.5t-125 -40.5q-129 0 -129 112q0 25 6 55l139 795q14 88 59.5 128t122.5 40q132 0 132 -115zM502 1236q-41 -38 -58 -122 l-139 -795q-6 -31 -6 -55q0 -55 29.5 -79.5t91.5 -24.5q76 0 118 38t58 121l139 795q6 31 6 53q0 106 -123 107q-75 0 -116 -38zM784 1718l-170 -205h95l237 205h-162zM780 1726h187l-254 -221h-115z" glyph-name="Oacute" horiz-adv-x="786" unicode="Ó"/><glyph d="M629 66q111 88 141 253l139 795q8 61 9 84q0 104 -58 172q-74 78 -211 78t-239 -80q-113 -94 -140 -254l-139 -795q-8 -41 -8 -88q0 -106 55 -168q74 -78 211 -77q138 0 240 80zM174 59q-59 61 -59 174q0 45 8 86l139 795q29 166 144 262q104 80 243 80q141 0 217 -82 q59 -70 60 -178q0 -25 -8 -82l-140 -795q-31 -170 -145 -262q-100 -80 -244 -80q-139 0 -215 82zM750 1167q0 -23 -7 -53l-139 -795q-14 -86 -59 -126.5t-125 -40.5q-129 0 -129 112q0 25 6 55l139 795q14 88 59.5 128t122.5 40q132 0 132 -115zM502 1236q-41 -38 -58 -122 l-139 -795q-6 -31 -6 -55q0 -55 29.5 -79.5t91.5 -24.5q76 0 118 38t58 121l139 795q6 31 6 53q0 106 -123 107q-75 0 -116 -38zM891 1505h-111l-100 115l-141 -115h-115l182 219h178zM879 1513l-99 203h-170l-170 -203h95l145 119l104 -119h95z" glyph-name="Ocircumflex" horiz-adv-x="786" unicode="Ô"/><glyph d="M629 66q111 88 141 253l139 795q8 61 9 84q0 104 -58 172q-74 78 -211 78t-239 -80q-113 -94 -140 -254l-139 -795q-8 -41 -8 -88q0 -106 55 -168q74 -78 211 -77q138 0 240 80zM174 59q-59 61 -59 174q0 45 8 86l139 795q29 166 144 262q104 80 243 80q141 0 217 -82 q59 -70 60 -178q0 -25 -8 -82l-140 -795q-31 -170 -145 -262q-100 -80 -244 -80q-139 0 -215 82zM750 1167q0 -23 -7 -53l-139 -795q-14 -86 -59 -126.5t-125 -40.5q-129 0 -129 112q0 25 6 55l139 795q14 88 59.5 128t122.5 40q132 0 132 -115zM502 1236q-41 -38 -58 -122 l-139 -795q-6 -31 -6 -55q0 -55 29.5 -79.5t91.5 -24.5q76 0 118 38t58 121l139 795q6 31 6 53q0 106 -123 107q-75 0 -116 -38zM573 1573q37 0 78 -27q53 -37 107 -37q82 0 176 95l-53 47q-51 -51 -95 -60q-37 -6 -81 23q-63 41 -115 41q-84 0 -178 -94l53 -50 q61 62 108 62zM399 1561q102 102 191 102q55 0 119 -41q43 -29 77 -23q43 10 95 64l65 -59q-96 -102 -190 -103q-57 0 -109 37q-41 27 -74 27q-20 0 -48.5 -16.5t-59.5 -49.5z" glyph-name="Otilde" horiz-adv-x="786" unicode="Õ"/><glyph d="M629 66q111 88 141 253l139 795q8 61 9 84q0 104 -58 172q-74 78 -211 78t-239 -80q-113 -94 -140 -254l-139 -795q-8 -41 -8 -88q0 -106 55 -168q74 -78 211 -77q138 0 240 80zM174 59q-59 61 -59 174q0 45 8 86l139 795q29 166 144 262q104 80 243 80q141 0 217 -82 q59 -70 60 -178q0 -25 -8 -82l-140 -795q-31 -170 -145 -262q-100 -80 -244 -80q-139 0 -215 82zM750 1167q0 -23 -7 -53l-139 -795q-14 -86 -59 -126.5t-125 -40.5q-129 0 -129 112q0 25 6 55l139 795q14 88 59.5 128t122.5 40q132 0 132 -115zM502 1236q-41 -38 -58 -122 l-139 -795q-6 -31 -6 -55q0 -55 29.5 -79.5t91.5 -24.5q76 0 118 38t58 121l139 795q6 31 6 53q0 106 -123 107q-75 0 -116 -38zM602.5 1664q-20.5 26 -57.5 26t-68 -26t-37 -62q-2 -6 -2 -19q0 -29 20.5 -49.5t53.5 -20.5q37 0 66.5 26t37.5 63q7 36 -13.5 62zM583.5 1533 q-32.5 -28 -71.5 -28q-35 0 -58.5 22.5t-23.5 55.5q0 12 2 19q6 39 39 67.5t74 28.5q39 0 62.5 -28t17.5 -68q-9 -41 -41.5 -69zM897.5 1664q-20.5 26 -57.5 26t-68 -26t-37 -62q-2 -6 -2 -19q0 -29 20.5 -49.5t53.5 -20.5q37 0 66.5 26t37.5 63q7 36 -13.5 62zM878.5 1533 q-32.5 -28 -71.5 -28q-35 0 -58.5 22.5t-23.5 55.5q0 12 2 19q6 39 39 67.5t74 28.5q39 0 62.5 -28t17.5 -68q-9 -41 -41.5 -69z" glyph-name="Odieresis" horiz-adv-x="786" unicode="Ö"/><glyph d="M844 913l-211 -180l147 -178l-151 -129l-146 178l-213 -178l-106 129l209 178l-146 180l150 129l149 -180l209 180zM831 913l-96 117l-209 -180l-149 180l-137 -117l145 -180l-209 -178l94 -117l213 178l146 -178l139 117l-147 178z" glyph-name="multiply" horiz-adv-x="747" unicode="×"/><glyph d="M915 1272q12 -37 13 -80q0 -23 -8 -80l-142 -795q-29 -168 -145 -260q-47 -39 -109.5 -59.5t-132.5 -20.5q-145 0 -215 82v-2q-4 2 -8 11h8l-70 -113l-83 41l102 162q-12 37 -12 80q0 23 8 79l141 795q29 168 146 260q98 80 243 80q143 0 213 -82v2q4 -2 8 -10h-8l70 113 l84 -41zM938 1462l-66 -104h-8q-2 6 -4 6v2q-72 78 -209 78q-143 0 -239 -80q-113 -88 -142 -252l-141 -795q-6 -43 -6 -77q0 -45 10 -82l-98 -158l67 -33l66 105h8q2 -6 4 -6v-3q72 -78 211 -77q141 0 238 80q113 88 141 251l141 795q6 43 7 78q0 45 -11 82l99 158z M338 506l403 655q2 57 -27.5 83t-92.5 26q-78 0 -120 -38t-57 -120zM496 1238q45 40 125 40q68 0 99.5 -29.5t29.5 -91.5l-428 -692l114 647q15 86 60 126zM702 924l-403 -656q-2 -57 27.5 -82.5t95.5 -25.5q76 0 118 39t56 118zM546 191.5q-44 -39.5 -124 -39.5 q-70 0 -101.5 29.5t-29.5 90.5l428 693l-115 -648q-14 -86 -58 -125.5z" glyph-name="Oslash" horiz-adv-x="788" unicode="Ø"/><glyph d="M529.5 6.5q62.5 20.5 107.5 59.5q113 88 143 253l195 1111h-166l-195 -1111q-14 -86 -60 -126.5t-124 -40.5q-131 0 -131 114q0 23 6 53l195 1111h-166l-195 -1111q-8 -41 -8 -86q0 -106 57 -170q74 -78 211 -77q68 0 130.5 20.5zM184 59q-61 66 -61 174q0 45 8 86 l195 1119h182l-195 -1119q-6 -31 -6 -53q0 -106 123 -106q76 0 118 39t58 120l195 1119h182l-195 -1119q-31 -170 -147 -262q-49 -39 -111.5 -59.5t-130.5 -20.5q-141 0 -215 82zM616 1513v-8h105v8h-105zM616 1513h105v-8h-105v8zM616 1718h-163l165 -205h97zM621 1726 l106 -221h-113l-178 221h185z" glyph-name="Ugrave" horiz-adv-x="804" unicode="Ù"/><glyph d="M529.5 6.5q62.5 20.5 107.5 59.5q113 88 143 253l195 1111h-166l-195 -1111q-14 -86 -60 -126.5t-124 -40.5q-131 0 -131 114q0 23 6 53l195 1111h-166l-195 -1111q-8 -41 -8 -86q0 -106 57 -170q74 -78 211 -77q68 0 130.5 20.5zM184 59q-61 66 -61 174q0 45 8 86 l195 1119h182l-195 -1119q-6 -31 -6 -53q0 -106 123 -106q76 0 118 39t58 120l195 1119h182l-195 -1119q-31 -170 -147 -262q-49 -39 -111.5 -59.5t-130.5 -20.5q-141 0 -215 82zM795 1718l-170 -205h94l237 205h-161zM791 1726h186l-254 -221h-115z" glyph-name="Uacute" horiz-adv-x="804" unicode="Ú"/><glyph d="M529.5 6.5q62.5 20.5 107.5 59.5q113 88 143 253l195 1111h-166l-195 -1111q-14 -86 -60 -126.5t-124 -40.5q-131 0 -131 114q0 23 6 53l195 1111h-166l-195 -1111q-8 -41 -8 -86q0 -106 57 -170q74 -78 211 -77q68 0 130.5 20.5zM184 59q-61 66 -61 174q0 45 8 86 l195 1119h182l-195 -1119q-6 -31 -6 -53q0 -106 123 -106q76 0 118 39t58 120l195 1119h182l-195 -1119q-31 -170 -147 -262q-49 -39 -111.5 -59.5t-130.5 -20.5q-141 0 -215 82zM901 1505h-110l-101 115l-141 -115h-115l182 219h179zM889 1513l-98 203h-170l-170 -203h94 l145 119l105 -119h94z" glyph-name="Ucircumflex" horiz-adv-x="804" unicode="Û"/><glyph d="M529.5 6.5q62.5 20.5 107.5 59.5q113 88 143 253l195 1111h-166l-195 -1111q-14 -86 -60 -126.5t-124 -40.5q-131 0 -131 114q0 23 6 53l195 1111h-166l-195 -1111q-8 -41 -8 -86q0 -106 57 -170q74 -78 211 -77q68 0 130.5 20.5zM184 59q-61 66 -61 174q0 45 8 86 l195 1119h182l-195 -1119q-6 -31 -6 -53q0 -106 123 -106q76 0 118 39t58 120l195 1119h182l-195 -1119q-31 -170 -147 -262q-49 -39 -111.5 -59.5t-130.5 -20.5q-141 0 -215 82zM610.5 1664q-20.5 26 -57.5 26t-67.5 -26t-36.5 -62q-2 -6 -3 -19q0 -29 20.5 -49.5 t53.5 -20.5q37 0 66.5 26t38.5 63q6 36 -14.5 62zM592 1533q-33 -28 -72 -28q-35 0 -58.5 22.5t-23.5 55.5q0 12 2 19q6 39 39 67.5t74 28.5q39 0 62.5 -28t17.5 -68q-8 -41 -41 -69zM905.5 1664q-20.5 26 -57.5 26t-67.5 -26t-37.5 -62q-2 -6 -2 -19q0 -29 20.5 -49.5 t53.5 -20.5q37 0 66.5 26t38.5 63q6 36 -14.5 62zM887 1533q-33 -28 -72 -28q-35 0 -58.5 22.5t-23.5 55.5q0 12 2 19q6 39 39 67.5t74 28.5q39 0 62.5 -28t17.5 -68q-8 -41 -41 -69z" glyph-name="Udieresis" horiz-adv-x="804" unicode="Ü"/><glyph d="M535 821l299 617h188l-453 -942v2l-88 -502h-182l88 502v0l-123 940h191zM530 793l-84 637h-174l123 -932v0l-88 -494h166l88 494v2l449 930h-172zM782 1718l-170 -205h95l237 205h-162zM778 1726h187l-254 -221h-115z" glyph-name="Yacute" horiz-adv-x="778" unicode="Ý"/><glyph d="M453 1145h153q131 0 131 -115q0 -25 -6 -53l-29 -162q-14 -86 -59 -126t-123 -40h-153zM520 657q76 0 117 38t57 120l29 162q6 31 6 53q0 106 -123 107h-145l-86 -480h145zM336 483h153q141 0 240 80q111 86 139 252l29 162q8 41 8 84q0 104 -57 172q-74 78 -211 78h-154 l21 119h-166l-252 -1426h166zM78 -4l252 1442h182l-20 -119h145q141 0 215 -82q61 -68 61 -176q0 -43 -8 -84l-28 -162q-29 -166 -144 -260q-98 -80 -244 -80h-145l-84 -479h-182z" glyph-name="Thorn" horiz-adv-x="776" unicode="Þ"/><glyph d="M829 543q0 -41 -8 -80l-24 -135q-29 -170 -146 -258q-104 -78 -243 -78h-80l34 190h76q72 0 111 29q41 33 57 121l25 135q6 29 6 51q0 102 -119 103h-80l35 190h43q76 0 115 37t55 119l25 139q6 29 6 49q0 49 -25.5 71.5t-79.5 24.5q-68 0 -103.5 -35.5t-49.5 -113.5 l-164 -930l-33 -180h-190l196 1114q31 172 148 258q45 37 103.5 57.5t123.5 20.5q61 0 115.5 -20.5t87.5 -57.5q63 -66 63 -180q0 -43 -8 -82l-24 -139q-27 -152 -129 -232q81 -69 81 -188zM868 965l25 139q8 41 8 84q0 106 -61 170q-33 35 -84 55.5t-113 20.5 q-61 0 -119.5 -20.5t-103.5 -55.5q-113 -84 -144 -254l-194 -1104h174l31 174l164 930q14 82 53 119t108 37q57 -2 84 -28t27 -77q0 -33 -4 -51l-25 -139q-14 -86 -57 -124t-121 -38h-37l-30 -174h69q127 0 127 -111q0 -25 -6 -53l-25 -135q-16 -88 -59 -125 q-43 -31 -117 -31h-69l-31 -174h70q135 0 239 76q115 88 141 254l25 135q8 39 8 78q0 121 -88 188q108 82 135 234z" glyph-name="germandbls" horiz-adv-x="790" unicode="ß"/><glyph d="M618 -4l-2 297h-292l-111 -297h-186l557 1442h174l47 -1442h-187zM627 4h170l-47 1426h-162l-549 -1426h170l110 297h306zM391 475h223l-8 590zM379 467l235 643l9 -643h-244zM633 1720h-166l168 -207h94zM637 1729l104 -224h-110l-180 224h186z" glyph-name="agrave" unicode="à"/><glyph d="M618 -4l-2 297h-292l-111 -297h-186l557 1442h174l47 -1442h-187zM627 4h170l-47 1426h-162l-549 -1426h170l110 297h306zM391 475h223l-8 590zM379 467l235 643l9 -643h-244zM809 1720l-168 -207h92l240 207h-164zM805 1729h188l-256 -224h-112z" glyph-name="aacute" unicode="á"/><glyph d="M618 -4l-2 297h-292l-111 -297h-186l557 1442h174l47 -1442h-187zM627 4h170l-47 1426h-162l-549 -1426h170l110 297h306zM391 475h223l-8 590zM379 467l235 643l9 -643h-244zM915 1505h-110l-100 115l-142 -115h-114l182 219h178zM903 1513l-98 203h-170l-170 -203h94 l146 119l104 -119h94z" glyph-name="acircumflex" unicode="â"/><glyph d="M618 -4l-2 297h-292l-111 -297h-186l557 1442h174l47 -1442h-187zM627 4h170l-47 1426h-162l-549 -1426h170l110 297h306zM391 475h223l-8 590zM379 467l235 643l9 -643h-244zM588 1573q37 0 78 -27q53 -37 106 -37q82 0 176 95l-53 47q-51 -51 -94 -60q-37 -6 -82 23 q-63 41 -115 41q-84 0 -178 -94l53 -50q62 62 109 62zM414 1561q102 102 190 102q55 0 119 -41q43 -29 78 -23q43 10 94 64l66 -59q-96 -102 -191 -103q-55 0 -108 37q-41 27 -74 27q-20 0 -49 -16.5t-60 -49.5z" glyph-name="atilde" unicode="ã"/><glyph d="M618 -4l-2 297h-292l-111 -297h-186l557 1442h174l47 -1442h-187zM627 4h170l-47 1426h-162l-549 -1426h170l110 297h306zM391 475h223l-8 590zM379 467l235 643l9 -643h-244zM626.5 1664q-20.5 26 -57.5 26t-67.5 -26t-36.5 -62q-2 -6 -2 -19q0 -29 20.5 -49.5 t53.5 -20.5q37 0 66.5 26t37.5 63q6 36 -14.5 62zM608 1533q-33 -28 -71 -28q-35 0 -58.5 22.5t-23.5 55.5q0 12 2 19q6 39 38.5 67.5t73.5 28.5q39 0 62.5 -28t17.5 -68q-8 -41 -41 -69zM921.5 1664q-20.5 26 -57.5 26t-67.5 -26t-36.5 -62q-2 -6 -2 -19q0 -29 20.5 -49.5 t52.5 -20.5q37 0 67 26t38 63q6 36 -14.5 62zM903 1533q-33 -28 -72 -28q-35 0 -58 22.5t-23 55.5q0 12 2 19q6 39 38.5 67.5t73.5 28.5q39 0 62.5 -28t17.5 -68q-8 -41 -41 -69z" glyph-name="adieresis" unicode="ä"/><glyph d="M618 -4l-2 297h-292l-111 -297h-186l557 1442h174l47 -1442h-187zM627 4h170l-47 1426h-162l-549 -1426h170l110 297h306zM391 475h223l-8 590zM379 467l235 643l9 -643h-244zM789.5 1565q46.5 45 46.5 102q0 45 -30 75t-75 30q-57 0 -104 -47.5t-47 -104.5 q0 -43 29.5 -71.5t74.5 -28.5q59 0 105.5 45zM603 1542q-32 31 -32 78q0 63 49.5 111.5t110.5 48.5q49 0 81 -33t32 -80q0 -63 -48 -109.5t-112 -46.5q-49 0 -81 31zM742.5 1680.5q11.5 -11.5 11.5 -27.5q0 -23 -16.5 -38.5t-37.5 -15.5q-16 0 -27 11.5t-11 27.5q0 20 16 37 t37 17q16 0 27.5 -11.5zM685 1672q-13 -11 -15 -27v-7q0 -14 8 -22t22 -8q16 0 29.5 11t15.5 26v8q0 14 -8 22t-22 8q-17 0 -30 -11z" glyph-name="aring" unicode="å"/><glyph d="M1325 1255h-389l-76 -430h270l-30 -182h-271l-84 -465h390l-31 -182h-572l46 258h-252l-111 -258h-188l620 1442h709zM1317 1264l31 166h-697l-612 -1426h172l111 258h264l-45 -258h555l30 166h-389l84 481h271l30 166h-270l76 447h389zM406 436h202l140 791zM393 428 l375 864l-152 -864h-223z" glyph-name="ae" horiz-adv-x="1163" unicode="æ"/><glyph d="M715 979l22 135q6 31 6 53q0 106 -122 107q-76 0 -118 -38t-59 -122l-139 -792q-6 -27 -6 -52q0 -55 30.5 -81.5t94.5 -26.5q76 0 117 39t57 121l33 196h182l-33 -196q-31 -166 -147 -263q-80 -61 -191 -77l7 -5q4 0 4 -6q23 -20 36 -39.5t13 -50.5q0 -63 -48 -112.5 t-110 -49.5q-49 0 -82 34t-33 81q0 16 2 25h97v-9q0 -14 9 -24t23 -10q16 0 28.5 12t14.5 27l3 10q0 8 -6.5 15t-16.5 16q-2 0 -3 2l-1 2q-41 35 -35 82q-106 12 -170 79q-59 66 -59 175q0 45 8 86l139 792q29 170 146 262q100 80 243 80q68 0 124 -21.5t89 -60.5 q63 -63 64 -178q0 -25 -8 -82l-23 -135h-182zM911 1114q6 43 7 80q0 111 -60 176q-33 37 -86 57.5t-121 20.5q-137 0 -239 -80q-115 -88 -142 -254l-139 -792q-8 -41 -8 -84q0 -102 57 -172q68 -68 172 -76q-6 -53 31 -84l4 -2q16 -14 21.5 -24.5t3.5 -24.5 q-2 -20 -17.5 -34t-34.5 -14q-18 0 -29.5 12.5t-11.5 30.5h-79l-2 -18q0 -45 30.5 -74.5t75.5 -29.5q59 0 104.5 46t45.5 107q0 33 -12.5 50.5t-37.5 37.5h2q-14 10 -12 21q117 12 195 78q113 88 143 254l33 188h-166l-33 -188q-14 -88 -59 -128t-123 -40q-133 0 -133 114 q0 27 6 54l139 792q14 86 59.5 127t125.5 41q131 0 131 -115q0 -25 -7 -53l-22 -127h166z" glyph-name="ccedilla" horiz-adv-x="780" unicode="ç"/><glyph d="M872 1255h-391l-75 -430h272l-31 -182h-272l-84 -465h391l-31 -182h-573l252 1442h573zM864 1264l31 166h-557l-252 -1426h557l31 166h-391l84 481h272l31 166h-273l76 447h391zM580 1720h-166l168 -207h94zM584 1729l104 -224h-110l-181 224h187z" glyph-name="egrave" horiz-adv-x="710" unicode="è"/><glyph d="M872 1255h-391l-75 -430h272l-31 -182h-272l-84 -465h391l-31 -182h-573l252 1442h573zM864 1264l31 166h-557l-252 -1426h557l31 166h-391l84 481h272l31 166h-273l76 447h391zM756 1720l-168 -207h92l240 207h-164zM752 1729h188l-256 -224h-113z" glyph-name="eacute" horiz-adv-x="710" unicode="é"/><glyph d="M872 1255h-391l-75 -430h272l-31 -182h-272l-84 -465h391l-31 -182h-573l252 1442h573zM864 1264l31 166h-557l-252 -1426h557l31 166h-391l84 481h272l31 166h-273l76 447h391zM862 1505h-110l-101 115l-141 -115h-115l183 219h178zM850 1513l-98 203h-170l-170 -203h94 l145 119l105 -119h94z" glyph-name="ecircumflex" horiz-adv-x="710" unicode="ê"/><glyph d="M872 1255h-391l-75 -430h272l-31 -182h-272l-84 -465h391l-31 -182h-573l252 1442h573zM864 1264l31 166h-557l-252 -1426h557l31 166h-391l84 481h272l31 166h-273l76 447h391zM573.5 1664q-20.5 26 -57.5 26t-67.5 -26t-36.5 -62q-2 -6 -2 -19q0 -29 20.5 -49.5 t52.5 -20.5q37 0 67 26t38 63q6 36 -14.5 62zM555 1533q-33 -28 -72 -28q-35 0 -58.5 22.5t-23.5 55.5q0 12 2 19q6 39 39 67.5t74 28.5q39 0 62.5 -28t17.5 -68q-8 -41 -41 -69zM868.5 1664q-20.5 26 -57.5 26t-67.5 -26t-36.5 -62q-2 -6 -2 -19q0 -29 20 -49.5t53 -20.5 q37 0 66.5 26t38.5 63q6 36 -14.5 62zM850 1533q-33 -28 -72 -28q-35 0 -58.5 22.5t-23.5 55.5q0 12 2 19q6 39 39 67.5t74 28.5q39 0 62.5 -28t17.5 -68q-8 -41 -41 -69z" glyph-name="edieresis" horiz-adv-x="710" unicode="ë"/><glyph d="M252 4l252 1426h-166l-252 -1426h166zM260 -4h-182l252 1442h182zM383 1513v-8h104v8h-104zM383 1513h104v-8h-104v8zM383 1718h-164l166 -205h96zM387 1726l107 -221h-113l-178 221h184z" glyph-name="igrave" horiz-adv-x="337" unicode="ì"/><glyph d="M252 4l252 1426h-166l-252 -1426h166zM260 -4h-182l252 1442h182zM561 1718l-170 -205h94l238 205h-162zM557 1726h186l-254 -221h-114z" glyph-name="iacute" horiz-adv-x="337" unicode="í"/><glyph d="M252 4l252 1426h-166l-252 -1426h166zM260 -4h-182l252 1442h182zM668 1505h-111l-100 115l-142 -115h-114l182 219h178zM655 1513l-98 203h-170l-170 -203h94l146 119l104 -119h94z" glyph-name="icircumflex" horiz-adv-x="337" unicode="î"/><glyph d="M252 4l252 1426h-166l-252 -1426h166zM260 -4h-182l252 1442h182zM376.5 1664q-20.5 26 -57.5 26t-67.5 -26t-36.5 -62q-2 -6 -2 -19q0 -29 20.5 -49.5t53.5 -20.5q37 0 66.5 26t37.5 63q6 36 -14.5 62zM358.5 1533q-32.5 -28 -71.5 -28q-35 0 -58.5 22.5t-23.5 55.5 q0 12 2 19q6 39 39 67.5t73 28.5q39 0 63 -28t17 -68q-8 -41 -40.5 -69zM671.5 1664q-20.5 26 -57.5 26t-67.5 -26t-36.5 -62q-2 -6 -2 -19q0 -29 20.5 -49.5t53.5 -20.5q37 0 66.5 26t37.5 63q6 36 -14.5 62zM653.5 1533q-32.5 -28 -71.5 -28q-35 0 -58.5 22.5t-23.5 55.5 q0 12 2 19q6 39 38.5 67.5t73.5 28.5q39 0 62.5 -28t17.5 -68q-8 -41 -40.5 -69z" glyph-name="idieresis" horiz-adv-x="335" unicode="ï"/><glyph d="M944 1180q0 -45 -8 -84l-135 -766q-29 -166 -146 -260q-98 -74 -239 -74h-328l111 629h-82l30 182h82l111 631h328q139 0 219 -82q57 -65 57 -176zM668 1430h-320l-110 -631h-82l-31 -166h82l-111 -629h320q141 0 235 74q115 90 142 252l135 766q8 39 8 84q0 100 -55 172 q-78 78 -213 78zM754 1096q6 31 6 53q0 106 -123 106h-145l-80 -448h123l-31 -182h-123l-80 -447h145q76 0 115 31q43 33 57 121zM565 201q-45 -31 -119 -31h-153l80 463h123l30 166h-123l80 465h154q131 0 131 -115q0 -23 -6 -53l-135 -766q-15 -92 -62 -129z" glyph-name="eth" horiz-adv-x="808" unicode="ð"/><glyph d="M406 846l-148 -850h-182l252 1442h104l244 -852l147 852h183l-252 -1442h-105zM406 883l251 -879h88l252 1426h-166l-155 -881l-252 881h-88l-252 -1426h166zM594 1573q37 0 78 -27q51 -37 106 -37q82 0 176 95l-53 47q-51 -51 -94 -60q-37 -6 -82 23q-63 41 -115 41 q-84 0 -178 -94l53 -50q62 62 109 62zM420 1561q102 102 190 102q55 0 119 -41q43 -29 78 -23q43 10 94 64l66 -59q-96 -102 -191 -103q-55 0 -108 37q-41 27 -74 27q-20 0 -49 -16.5t-60 -49.5z" glyph-name="ntilde" horiz-adv-x="829" unicode="ñ"/><glyph d="M629 66q111 88 141 253l139 795q8 61 9 84q0 104 -58 172q-74 78 -211 78t-239 -80q-113 -94 -140 -254l-139 -795q-8 -41 -8 -88q0 -106 55 -168q74 -78 211 -77q138 0 240 80zM174 59q-59 61 -59 174q0 45 8 86l139 795q29 166 144 262q104 80 243 80q141 0 217 -82 q59 -70 60 -178q0 -25 -8 -82l-140 -795q-31 -170 -145 -262q-100 -80 -244 -80q-139 0 -215 82zM750 1167q0 -23 -7 -53l-139 -795q-14 -86 -59 -126.5t-125 -40.5q-129 0 -129 112q0 25 6 55l139 795q14 88 59.5 128t122.5 40q132 0 132 -115zM502 1236q-41 -38 -58 -122 l-139 -795q-6 -31 -6 -55q0 -55 29.5 -79.5t91.5 -24.5q76 0 118 38t58 121l139 795q6 31 6 53q0 106 -123 107q-75 0 -116 -38zM606 1718h-164l166 -205h97zM610 1726l107 -221h-113l-178 221h184z" glyph-name="ograve" horiz-adv-x="786" unicode="ò"/><glyph d="M629 66q111 88 141 253l139 795q8 61 9 84q0 104 -58 172q-74 78 -211 78t-239 -80q-113 -94 -140 -254l-139 -795q-8 -41 -8 -88q0 -106 55 -168q74 -78 211 -77q138 0 240 80zM174 59q-59 61 -59 174q0 45 8 86l139 795q29 166 144 262q104 80 243 80q141 0 217 -82 q59 -70 60 -178q0 -25 -8 -82l-140 -795q-31 -170 -145 -262q-100 -80 -244 -80q-139 0 -215 82zM750 1167q0 -23 -7 -53l-139 -795q-14 -86 -59 -126.5t-125 -40.5q-129 0 -129 112q0 25 6 55l139 795q14 88 59.5 128t122.5 40q132 0 132 -115zM502 1236q-41 -38 -58 -122 l-139 -795q-6 -31 -6 -55q0 -55 29.5 -79.5t91.5 -24.5q76 0 118 38t58 121l139 795q6 31 6 53q0 106 -123 107q-75 0 -116 -38zM784 1718l-170 -205h95l237 205h-162zM780 1726h187l-254 -221h-115z" glyph-name="oacute" horiz-adv-x="786" unicode="ó"/><glyph d="M629 66q111 88 141 253l139 795q8 61 9 84q0 104 -58 172q-74 78 -211 78t-239 -80q-113 -94 -140 -254l-139 -795q-8 -41 -8 -88q0 -106 55 -168q74 -78 211 -77q138 0 240 80zM174 59q-59 61 -59 174q0 45 8 86l139 795q29 166 144 262q104 80 243 80q141 0 217 -82 q59 -70 60 -178q0 -25 -8 -82l-140 -795q-31 -170 -145 -262q-100 -80 -244 -80q-139 0 -215 82zM750 1167q0 -23 -7 -53l-139 -795q-14 -86 -59 -126.5t-125 -40.5q-129 0 -129 112q0 25 6 55l139 795q14 88 59.5 128t122.5 40q132 0 132 -115zM502 1236q-41 -38 -58 -122 l-139 -795q-6 -31 -6 -55q0 -55 29.5 -79.5t91.5 -24.5q76 0 118 38t58 121l139 795q6 31 6 53q0 106 -123 107q-75 0 -116 -38zM891 1505h-111l-100 115l-141 -115h-115l182 219h178zM879 1513l-99 203h-170l-170 -203h95l145 119l104 -119h95z" glyph-name="ocircumflex" horiz-adv-x="786" unicode="ô"/><glyph d="M629 66q111 88 141 253l139 795q8 61 9 84q0 104 -58 172q-74 78 -211 78t-239 -80q-113 -94 -140 -254l-139 -795q-8 -41 -8 -88q0 -106 55 -168q74 -78 211 -77q138 0 240 80zM174 59q-59 61 -59 174q0 45 8 86l139 795q29 166 144 262q104 80 243 80q141 0 217 -82 q59 -70 60 -178q0 -25 -8 -82l-140 -795q-31 -170 -145 -262q-100 -80 -244 -80q-139 0 -215 82zM750 1167q0 -23 -7 -53l-139 -795q-14 -86 -59 -126.5t-125 -40.5q-129 0 -129 112q0 25 6 55l139 795q14 88 59.5 128t122.5 40q132 0 132 -115zM502 1236q-41 -38 -58 -122 l-139 -795q-6 -31 -6 -55q0 -55 29.5 -79.5t91.5 -24.5q76 0 118 38t58 121l139 795q6 31 6 53q0 106 -123 107q-75 0 -116 -38zM573 1573q37 0 78 -27q53 -37 107 -37q82 0 176 95l-53 47q-51 -51 -95 -60q-37 -6 -81 23q-63 41 -115 41q-84 0 -178 -94l53 -50 q61 62 108 62zM399 1561q102 102 191 102q55 0 119 -41q43 -29 77 -23q43 10 95 64l65 -59q-96 -102 -190 -103q-57 0 -109 37q-41 27 -74 27q-20 0 -48.5 -16.5t-59.5 -49.5z" glyph-name="otilde" horiz-adv-x="786" unicode="õ"/><glyph d="M629 66q111 88 141 253l139 795q8 61 9 84q0 104 -58 172q-74 78 -211 78t-239 -80q-113 -94 -140 -254l-139 -795q-8 -41 -8 -88q0 -106 55 -168q74 -78 211 -77q138 0 240 80zM174 59q-59 61 -59 174q0 45 8 86l139 795q29 166 144 262q104 80 243 80q141 0 217 -82 q59 -70 60 -178q0 -25 -8 -82l-140 -795q-31 -170 -145 -262q-100 -80 -244 -80q-139 0 -215 82zM750 1167q0 -23 -7 -53l-139 -795q-14 -86 -59 -126.5t-125 -40.5q-129 0 -129 112q0 25 6 55l139 795q14 88 59.5 128t122.5 40q132 0 132 -115zM502 1236q-41 -38 -58 -122 l-139 -795q-6 -31 -6 -55q0 -55 29.5 -79.5t91.5 -24.5q76 0 118 38t58 121l139 795q6 31 6 53q0 106 -123 107q-75 0 -116 -38zM602.5 1664q-20.5 26 -57.5 26t-68 -26t-37 -62q-2 -6 -2 -19q0 -29 20.5 -49.5t53.5 -20.5q37 0 66.5 26t37.5 63q7 36 -13.5 62zM583.5 1533 q-32.5 -28 -71.5 -28q-35 0 -58.5 22.5t-23.5 55.5q0 12 2 19q6 39 39 67.5t74 28.5q39 0 62.5 -28t17.5 -68q-9 -41 -41.5 -69zM897.5 1664q-20.5 26 -57.5 26t-68 -26t-37 -62q-2 -6 -2 -19q0 -29 20.5 -49.5t53.5 -20.5q37 0 66.5 26t37.5 63q7 36 -13.5 62zM878.5 1533 q-32.5 -28 -71.5 -28q-35 0 -58.5 22.5t-23.5 55.5q0 12 2 19q6 39 39 67.5t74 28.5q39 0 62.5 -28t17.5 -68q-9 -41 -41.5 -69z" glyph-name="odieresis" horiz-adv-x="786" unicode="ö"/><glyph d="M801 659l30 166h-610l-31 -166h611zM809 651h-627l31 183h627zM626.5 1077.5q-20.5 20.5 -53.5 20.5q-41 0 -73.5 -31t-32.5 -74q0 -31 20.5 -51t53.5 -20q39 0 72.5 31.5t33.5 70.5q0 33 -20.5 53.5zM619.5 947q-35.5 -34 -78.5 -34q-35 0 -58.5 24t-23.5 58 q0 43 35.5 77t78.5 34q35 0 58.5 -23.5t23.5 -58.5q0 -43 -35.5 -77zM535.5 537.5q-21.5 25.5 -56.5 25.5q-37 0 -67.5 -25.5t-36.5 -62.5q-2 -6 -2 -18q0 -29 20.5 -49.5t52.5 -20.5q37 0 67 25.5t38 62.5q6 37 -15.5 62.5zM518 406.5q-33 -27.5 -72 -27.5q-35 0 -58 22.5 t-23 55.5q0 12 2 18q6 39 38.5 67.5t73.5 28.5q39 0 62.5 -28.5t17.5 -67.5q-8 -41 -41 -68.5z" glyph-name="divide" horiz-adv-x="761" unicode="÷"/><glyph d="M915 1272q12 -37 13 -80q0 -23 -8 -80l-142 -795q-29 -168 -145 -260q-47 -39 -109.5 -59.5t-132.5 -20.5q-145 0 -215 82v-2q-4 2 -8 11h8l-70 -113l-83 41l102 162q-12 37 -12 80q0 23 8 79l141 795q29 168 146 260q98 80 243 80q143 0 213 -82v2q4 -2 8 -10h-8l70 113 l84 -41zM938 1462l-66 -104h-8q-2 6 -4 6v2q-72 78 -209 78q-143 0 -239 -80q-113 -88 -142 -252l-141 -795q-6 -43 -6 -77q0 -45 10 -82l-98 -158l67 -33l66 105h8q2 -6 4 -6v-3q72 -78 211 -77q141 0 238 80q113 88 141 251l141 795q6 43 7 78q0 45 -11 82l99 158z M338 506l403 655q2 57 -27.5 83t-92.5 26q-78 0 -120 -38t-57 -120zM496 1238q45 40 125 40q68 0 99.5 -29.5t29.5 -91.5l-428 -692l114 647q15 86 60 126zM702 924l-403 -656q-2 -57 27.5 -82.5t95.5 -25.5q76 0 118 39t56 118zM546 191.5q-44 -39.5 -124 -39.5 q-70 0 -101.5 29.5t-29.5 90.5l428 693l-115 -648q-14 -86 -58 -125.5z" glyph-name="oslash" horiz-adv-x="788" unicode="ø"/><glyph d="M529.5 6.5q62.5 20.5 107.5 59.5q113 88 143 253l195 1111h-166l-195 -1111q-14 -86 -60 -126.5t-124 -40.5q-131 0 -131 114q0 23 6 53l195 1111h-166l-195 -1111q-8 -41 -8 -86q0 -106 57 -170q74 -78 211 -77q68 0 130.5 20.5zM184 59q-61 66 -61 174q0 45 8 86 l195 1119h182l-195 -1119q-6 -31 -6 -53q0 -106 123 -106q76 0 118 39t58 120l195 1119h182l-195 -1119q-31 -170 -147 -262q-49 -39 -111.5 -59.5t-130.5 -20.5q-141 0 -215 82zM616 1513v-8h105v8h-105zM616 1513h105v-8h-105v8zM616 1718h-163l165 -205h97zM621 1726 l106 -221h-113l-178 221h185z" glyph-name="ugrave" horiz-adv-x="804" unicode="ù"/><glyph d="M529.5 6.5q62.5 20.5 107.5 59.5q113 88 143 253l195 1111h-166l-195 -1111q-14 -86 -60 -126.5t-124 -40.5q-131 0 -131 114q0 23 6 53l195 1111h-166l-195 -1111q-8 -41 -8 -86q0 -106 57 -170q74 -78 211 -77q68 0 130.5 20.5zM184 59q-61 66 -61 174q0 45 8 86 l195 1119h182l-195 -1119q-6 -31 -6 -53q0 -106 123 -106q76 0 118 39t58 120l195 1119h182l-195 -1119q-31 -170 -147 -262q-49 -39 -111.5 -59.5t-130.5 -20.5q-141 0 -215 82zM795 1718l-170 -205h94l237 205h-161zM791 1726h186l-254 -221h-115z" glyph-name="uacute" horiz-adv-x="804" unicode="ú"/><glyph d="M529.5 6.5q62.5 20.5 107.5 59.5q113 88 143 253l195 1111h-166l-195 -1111q-14 -86 -60 -126.5t-124 -40.5q-131 0 -131 114q0 23 6 53l195 1111h-166l-195 -1111q-8 -41 -8 -86q0 -106 57 -170q74 -78 211 -77q68 0 130.5 20.5zM184 59q-61 66 -61 174q0 45 8 86 l195 1119h182l-195 -1119q-6 -31 -6 -53q0 -106 123 -106q76 0 118 39t58 120l195 1119h182l-195 -1119q-31 -170 -147 -262q-49 -39 -111.5 -59.5t-130.5 -20.5q-141 0 -215 82zM901 1505h-110l-101 115l-141 -115h-115l182 219h179zM889 1513l-98 203h-170l-170 -203h94 l145 119l105 -119h94z" glyph-name="ucircumflex" horiz-adv-x="804" unicode="û"/><glyph d="M529.5 6.5q62.5 20.5 107.5 59.5q113 88 143 253l195 1111h-166l-195 -1111q-14 -86 -60 -126.5t-124 -40.5q-131 0 -131 114q0 23 6 53l195 1111h-166l-195 -1111q-8 -41 -8 -86q0 -106 57 -170q74 -78 211 -77q68 0 130.5 20.5zM184 59q-61 66 -61 174q0 45 8 86 l195 1119h182l-195 -1119q-6 -31 -6 -53q0 -106 123 -106q76 0 118 39t58 120l195 1119h182l-195 -1119q-31 -170 -147 -262q-49 -39 -111.5 -59.5t-130.5 -20.5q-141 0 -215 82zM610.5 1664q-20.5 26 -57.5 26t-67.5 -26t-36.5 -62q-2 -6 -3 -19q0 -29 20.5 -49.5 t53.5 -20.5q37 0 66.5 26t38.5 63q6 36 -14.5 62zM592 1533q-33 -28 -72 -28q-35 0 -58.5 22.5t-23.5 55.5q0 12 2 19q6 39 39 67.5t74 28.5q39 0 62.5 -28t17.5 -68q-8 -41 -41 -69zM905.5 1664q-20.5 26 -57.5 26t-67.5 -26t-37.5 -62q-2 -6 -2 -19q0 -29 20.5 -49.5 t53.5 -20.5q37 0 66.5 26t38.5 63q6 36 -14.5 62zM887 1533q-33 -28 -72 -28q-35 0 -58.5 22.5t-23.5 55.5q0 12 2 19q6 39 39 67.5t74 28.5q39 0 62.5 -28t17.5 -68q-8 -41 -41 -69z" glyph-name="udieresis" horiz-adv-x="804" unicode="ü"/><glyph d="M535 821l299 617h188l-453 -942v2l-88 -502h-182l88 502v0l-123 940h191zM530 793l-84 637h-174l123 -932v0l-88 -494h166l88 494v2l449 930h-172zM782 1718l-170 -205h95l237 205h-162zM778 1726h187l-254 -221h-115z" glyph-name="yacute" horiz-adv-x="778" unicode="ý"/><glyph d="M453 1145h153q131 0 131 -115q0 -25 -6 -53l-29 -162q-14 -86 -59 -126t-123 -40h-153zM520 657q76 0 117 38t57 120l29 162q6 31 6 53q0 106 -123 107h-145l-86 -480h145zM336 483h153q141 0 240 80q111 86 139 252l29 162q8 41 8 84q0 104 -57 172q-74 78 -211 78h-154 l21 119h-166l-252 -1426h166zM78 -4l252 1442h182l-20 -119h145q141 0 215 -82q61 -68 61 -176q0 -43 -8 -84l-28 -162q-29 -166 -144 -260q-98 -80 -244 -80h-145l-84 -479h-182z" glyph-name="thorn" horiz-adv-x="776" unicode="þ"/><glyph d="M600.5 1664q-20.5 26 -57.5 26t-68 -26t-37 -62q-2 -6 -2 -19q0 -29 20.5 -49.5t53.5 -20.5q37 0 66.5 26t37.5 63q7 36 -13.5 62zM581.5 1533q-32.5 -28 -71.5 -28q-35 0 -58.5 22.5t-23.5 55.5q0 12 2 19q6 39 39 67.5t74 28.5q39 0 62.5 -28t17.5 -68 q-9 -41 -41.5 -69zM894.5 1664q-20.5 26 -56.5 26q-37 0 -68 -26t-37 -62q-2 -6 -2 -19q0 -29 20.5 -49.5t53.5 -20.5q37 0 66.5 26t37.5 63q6 36 -14.5 62zM876.5 1533q-32.5 -28 -71.5 -28q-35 0 -58.5 22.5t-23.5 55.5q0 12 2 19q6 39 39 67.5t74 28.5q39 0 62.5 -28 t17.5 -68q-9 -41 -41.5 -69zM535 821l299 617h188l-453 -942v2l-88 -502h-182l88 502v0l-123 940h191zM530 793l-84 637h-174l123 -932v0l-88 -494h166l88 494v2l449 930h-172z" glyph-name="ydieresis" horiz-adv-x="778" unicode="ÿ"/><glyph d="M618 -4l-2 297h-292l-111 -297h-186l557 1442h174l47 -1442h-187zM627 4h170l-47 1426h-162l-549 -1426h170l110 297h306zM391 475h223l-8 590zM379 467l235 643l9 -643h-244zM989 1513l17 84h-613l-16 -84h612zM997 1505h-628l16 101h629z" glyph-name="Amacron" unicode="Ā"/><glyph d="M618 -4l-2 297h-292l-111 -297h-186l557 1442h174l47 -1442h-187zM627 4h170l-47 1426h-162l-549 -1426h170l110 297h306zM391 475h223l-8 590zM379 467l235 643l9 -643h-244zM989 1513l17 84h-613l-16 -84h612zM997 1505h-628l16 101h629z" glyph-name="amacron" unicode="ā"/><glyph d="M618 -4l-2 297h-292l-111 -297h-186l557 1442h174l47 -1442h-187zM627 4h170l-47 1426h-162l-549 -1426h170l110 297h306zM391 475h223l-8 590zM379 467l235 643l9 -643h-244zM932 1720q-14 -88 -87 -151.5t-161 -63.5q-78 0 -128 50.5t-50 125.5q0 10 4 39h96 q-2 -8 -2 -24q0 -41 27.5 -67.5t68.5 -26.5q49 0 88 34.5t48 83.5h96zM792 1627q-42 -34 -92 -34q-45 0 -74.5 29t-29.5 72l2 18h-80q-2 -10 -2 -33q0 -72 47 -119t121 -47q82 0 152.5 58.5t87.5 140.5h-80q-10 -51 -52 -85z" glyph-name="Abreve" unicode="Ă"/><glyph d="M618 -4l-2 297h-292l-111 -297h-186l557 1442h174l47 -1442h-187zM627 4h170l-47 1426h-162l-549 -1426h170l110 297h306zM391 475h223l-8 590zM379 467l235 643l9 -643h-244zM932 1720q-14 -88 -87 -151.5t-161 -63.5q-78 0 -128 50.5t-50 125.5q0 10 4 39h96 q-2 -8 -2 -24q0 -41 27.5 -67.5t68.5 -26.5q49 0 88 34.5t48 83.5h96zM792 1627q-42 -34 -92 -34q-45 0 -74.5 29t-29.5 72l2 18h-80q-2 -10 -2 -33q0 -72 47 -119t121 -47q82 0 152.5 58.5t87.5 140.5h-80q-10 -51 -52 -85z" glyph-name="abreve" unicode="ă"/><glyph d="M739 -162h23l-17 -100h-43q-80 0 -121.5 24.5t-41.5 69.5q0 90 168 172l2 -8h-91l-2 297h-292l-111 -297h-186l557 1442h174l47 -1440q-51 -16 -91 -52t-44 -67q-9 -41 69 -41zM705.5 -51q39.5 37 91.5 53l-47 1428h-162l-549 -1426h170l110 297h306l2 -297h82l2 -8 q-164 -80 -164 -164q0 -43 41 -64.5t114 -21.5h35l17 84h-15q-86 0 -77 49q4 33 43.5 70zM391 475h223l-8 590zM379 467l235 643l9 -643h-244z" glyph-name="Aogonek" unicode="Ą"/><glyph d="M739 -162h23l-17 -100h-43q-80 0 -121.5 24.5t-41.5 69.5q0 90 168 172l2 -8h-91l-2 297h-292l-111 -297h-186l557 1442h174l47 -1440q-51 -16 -91 -52t-44 -67q-9 -41 69 -41zM705.5 -51q39.5 37 91.5 53l-47 1428h-162l-549 -1426h170l110 297h306l2 -297h82l2 -8 q-164 -80 -164 -164q0 -43 41 -64.5t114 -21.5h35l17 84h-15q-86 0 -77 49q4 33 43.5 70zM391 475h223l-8 590zM379 467l235 643l9 -643h-244z" glyph-name="aogonek" unicode="ą"/><glyph d="M629 66q113 88 143 253l33 189h-166l-33 -189q-14 -86 -60 -126.5t-126 -40.5q-129 0 -129 112q0 25 6 55l139 797q14 88 59.5 128t122.5 40q133 0 134 -115q0 -25 -7 -53l-22 -127h166l22 127q8 39 9 82q0 104 -60 174q-74 78 -211 78q-135 0 -237 -80 q-111 -90 -142 -254l-139 -797q-8 -41 -8 -86q0 -106 57 -170q74 -78 209 -77q138 0 240 80zM176 59q-61 63 -61 174q0 45 8 86l139 797q31 168 146 262q100 80 241 80t215 -82q63 -70 64 -178q0 -43 -8 -82l-23 -135h-182l22 135q6 29 6 51q0 55 -30.5 82t-94.5 27 q-76 0 -116.5 -39t-57.5 -121l-139 -797q-6 -31 -6 -53q0 -106 121 -106q76 0 119 39t59 120l33 197h182l-33 -197q-31 -170 -147 -262q-100 -80 -244 -80q-139 0 -213 82zM782 1720l-168 -207h93l239 207h-164zM778 1729h189l-256 -224h-113z" glyph-name="Cacute" horiz-adv-x="780" unicode="Ć"/><glyph d="M629 66q113 88 143 253l33 189h-166l-33 -189q-14 -86 -60 -126.5t-126 -40.5q-129 0 -129 112q0 25 6 55l139 797q14 88 59.5 128t122.5 40q133 0 134 -115q0 -25 -7 -53l-22 -127h166l22 127q8 39 9 82q0 104 -60 174q-74 78 -211 78q-135 0 -237 -80 q-111 -90 -142 -254l-139 -797q-8 -41 -8 -86q0 -106 57 -170q74 -78 209 -77q138 0 240 80zM176 59q-61 63 -61 174q0 45 8 86l139 797q31 168 146 262q100 80 241 80t215 -82q63 -70 64 -178q0 -43 -8 -82l-23 -135h-182l22 135q6 29 6 51q0 55 -30.5 82t-94.5 27 q-76 0 -116.5 -39t-57.5 -121l-139 -797q-6 -31 -6 -53q0 -106 121 -106q76 0 119 39t59 120l33 197h182l-33 -197q-31 -170 -147 -262q-100 -80 -244 -80q-139 0 -213 82zM782 1720l-168 -207h93l239 207h-164zM778 1729h189l-256 -224h-113z" glyph-name="cacute" horiz-adv-x="780" unicode="ć"/><glyph d="M629 66q113 88 143 253l33 189h-166l-33 -189q-14 -86 -60 -126.5t-126 -40.5q-129 0 -129 112q0 25 6 55l139 797q14 88 59.5 128t122.5 40q133 0 134 -115q0 -25 -7 -53l-22 -127h166l22 127q8 39 9 82q0 104 -60 174q-74 78 -211 78q-135 0 -237 -80 q-111 -90 -142 -254l-139 -797q-8 -41 -8 -86q0 -106 57 -170q74 -78 209 -77q138 0 240 80zM176 59q-61 63 -61 174q0 45 8 86l139 797q31 168 146 262q100 80 241 80t215 -82q63 -70 64 -178q0 -43 -8 -82l-23 -135h-182l22 135q6 29 6 51q0 55 -30.5 82t-94.5 27 q-76 0 -116.5 -39t-57.5 -121l-139 -797q-6 -31 -6 -53q0 -106 121 -106q76 0 119 39t59 120l33 197h182l-33 -197q-31 -170 -147 -262q-100 -80 -244 -80q-139 0 -213 82zM749.5 1664q-20.5 26 -57.5 26t-67.5 -26t-36.5 -62q-2 -6 -2 -19q0 -29 20.5 -49.5t52.5 -20.5 q37 0 67 26t38 63q6 36 -14.5 62zM731 1533q-33 -28 -72 -28q-35 0 -58 22.5t-23 55.5q0 12 2 19q6 39 38.5 67.5t73.5 28.5q39 0 62.5 -28t17.5 -68q-8 -41 -41 -69z" glyph-name="Cdotaccent" horiz-adv-x="780" unicode="Ċ"/><glyph d="M629 66q113 88 143 253l33 189h-166l-33 -189q-14 -86 -60 -126.5t-126 -40.5q-129 0 -129 112q0 25 6 55l139 797q14 88 59.5 128t122.5 40q133 0 134 -115q0 -25 -7 -53l-22 -127h166l22 127q8 39 9 82q0 104 -60 174q-74 78 -211 78q-135 0 -237 -80 q-111 -90 -142 -254l-139 -797q-8 -41 -8 -86q0 -106 57 -170q74 -78 209 -77q138 0 240 80zM176 59q-61 63 -61 174q0 45 8 86l139 797q31 168 146 262q100 80 241 80t215 -82q63 -70 64 -178q0 -43 -8 -82l-23 -135h-182l22 135q6 29 6 51q0 55 -30.5 82t-94.5 27 q-76 0 -116.5 -39t-57.5 -121l-139 -797q-6 -31 -6 -53q0 -106 121 -106q76 0 119 39t59 120l33 197h182l-33 -197q-31 -170 -147 -262q-100 -80 -244 -80q-139 0 -213 82zM749.5 1664q-20.5 26 -57.5 26t-67.5 -26t-36.5 -62q-2 -6 -2 -19q0 -29 20.5 -49.5t52.5 -20.5 q37 0 67 26t38 63q6 36 -14.5 62zM731 1533q-33 -28 -72 -28q-35 0 -58 22.5t-23 55.5q0 12 2 19q6 39 38.5 67.5t73.5 28.5q39 0 62.5 -28t17.5 -68q-8 -41 -41 -69z" glyph-name="cdotaccent" horiz-adv-x="780" unicode="ċ"/><glyph d="M629 66q113 88 143 253l33 189h-166l-33 -189q-14 -86 -60 -126.5t-126 -40.5q-129 0 -129 112q0 25 6 55l139 797q14 88 59.5 128t122.5 40q133 0 134 -115q0 -25 -7 -53l-22 -127h166l22 127q8 39 9 82q0 104 -60 174q-74 78 -211 78q-135 0 -237 -80 q-111 -90 -142 -254l-139 -797q-8 -41 -8 -86q0 -106 57 -170q74 -78 209 -77q138 0 240 80zM176 59q-61 63 -61 174q0 45 8 86l139 797q31 168 146 262q100 80 241 80t215 -82q63 -70 64 -178q0 -43 -8 -82l-23 -135h-182l22 135q6 29 6 51q0 55 -30.5 82t-94.5 27 q-76 0 -116.5 -39t-57.5 -121l-139 -797q-6 -31 -6 -53q0 -106 121 -106q76 0 119 39t59 120l33 197h182l-33 -197q-31 -170 -147 -262q-100 -80 -244 -80q-139 0 -213 82zM930 1724l-182 -219h-179l-106 219h112l101 -114l141 114h113zM913 1716h-92l-145 -119l-105 119 h-96l98 -203h170z" glyph-name="Ccaron" horiz-adv-x="780" unicode="Č"/><glyph d="M629 66q113 88 143 253l33 189h-166l-33 -189q-14 -86 -60 -126.5t-126 -40.5q-129 0 -129 112q0 25 6 55l139 797q14 88 59.5 128t122.5 40q133 0 134 -115q0 -25 -7 -53l-22 -127h166l22 127q8 39 9 82q0 104 -60 174q-74 78 -211 78q-135 0 -237 -80 q-111 -90 -142 -254l-139 -797q-8 -41 -8 -86q0 -106 57 -170q74 -78 209 -77q138 0 240 80zM176 59q-61 63 -61 174q0 45 8 86l139 797q31 168 146 262q100 80 241 80t215 -82q63 -70 64 -178q0 -43 -8 -82l-23 -135h-182l22 135q6 29 6 51q0 55 -30.5 82t-94.5 27 q-76 0 -116.5 -39t-57.5 -121l-139 -797q-6 -31 -6 -53q0 -106 121 -106q76 0 119 39t59 120l33 197h182l-33 -197q-31 -170 -147 -262q-100 -80 -244 -80q-139 0 -213 82zM930 1724l-182 -219h-179l-106 219h112l101 -114l141 114h113zM913 1716h-92l-145 -119l-105 119 h-96l98 -203h170z" glyph-name="ccaron" horiz-adv-x="780" unicode="č"/><glyph d="M643 78q115 90 141 252l136 766q8 41 8 84q0 102 -58 172q-74 78 -211 78h-321l-252 -1426h322q141 0 235 74zM78 -4l252 1442h329q141 0 218 -82q59 -66 59 -174q0 -45 -8 -86l-135 -766q-29 -166 -146 -260q-98 -74 -239 -74h-330zM473 1264h156q131 0 131 -115 q0 -25 -6 -53l-136 -766q-16 -90 -63 -129q-43 -31 -117 -31h-155zM438 178q76 0 113 31q45 35 59 121l135 766q6 31 7 53q0 106 -123 106h-148l-190 -1077h147zM944 1724l-182 -219h-178l-107 219h113l100 -114l141 114h113zM928 1716h-92l-146 -119l-104 119h-97l99 -203 h170z" glyph-name="Dcaron" horiz-adv-x="800" unicode="Ď"/><glyph d="M643 78q115 90 141 252l136 766q8 41 8 84q0 102 -58 172q-74 78 -211 78h-321l-252 -1426h322q141 0 235 74zM78 -4l252 1442h329q141 0 218 -82q59 -66 59 -174q0 -45 -8 -86l-135 -766q-29 -166 -146 -260q-98 -74 -239 -74h-330zM473 1264h156q131 0 131 -115 q0 -25 -6 -53l-136 -766q-16 -90 -63 -129q-43 -31 -117 -31h-155zM438 178q76 0 113 31q45 35 59 121l135 766q6 31 7 53q0 106 -123 106h-148l-190 -1077h147zM944 1724l-182 -219h-178l-107 219h113l100 -114l141 114h113zM928 1716h-92l-146 -119l-104 119h-97l99 -203 h170z" glyph-name="dcaron" horiz-adv-x="800" unicode="ď"/><glyph d="M944 1180q0 -45 -8 -84l-135 -766q-29 -166 -146 -260q-98 -74 -239 -74h-328l111 629h-82l30 182h82l111 631h328q139 0 219 -82q57 -65 57 -176zM668 1430h-320l-110 -631h-82l-31 -166h82l-111 -629h320q141 0 235 74q115 90 142 252l135 766q8 39 8 84q0 100 -55 172 q-78 78 -213 78zM754 1096q6 31 6 53q0 106 -123 106h-145l-80 -448h123l-31 -182h-123l-80 -447h145q76 0 115 31q43 33 57 121zM565 201q-45 -31 -119 -31h-153l80 463h123l30 166h-123l80 465h154q131 0 131 -115q0 -23 -6 -53l-135 -766q-15 -92 -62 -129z" glyph-name="Dcroat" horiz-adv-x="808" unicode="Đ"/><glyph d="M944 1180q0 -45 -8 -84l-135 -766q-29 -166 -146 -260q-98 -74 -239 -74h-328l111 629h-82l30 182h82l111 631h328q139 0 219 -82q57 -65 57 -176zM668 1430h-320l-110 -631h-82l-31 -166h82l-111 -629h320q141 0 235 74q115 90 142 252l135 766q8 39 8 84q0 100 -55 172 q-78 78 -213 78zM754 1096q6 31 6 53q0 106 -123 106h-145l-80 -448h123l-31 -182h-123l-80 -447h145q76 0 115 31q43 33 57 121zM565 201q-45 -31 -119 -31h-153l80 463h123l30 166h-123l80 465h154q131 0 131 -115q0 -23 -6 -53l-135 -766q-15 -92 -62 -129z" glyph-name="dcroat" horiz-adv-x="808" unicode="đ"/><glyph d="M872 1255h-391l-75 -430h272l-31 -182h-272l-84 -465h391l-31 -182h-573l252 1442h573zM864 1264l31 166h-557l-252 -1426h557l31 166h-391l84 481h272l31 166h-273l76 447h391zM938 1513l16 84h-614l-16 -84h614zM946 1505h-631l17 101h631z" glyph-name="Emacron" horiz-adv-x="710" unicode="Ē"/><glyph d="M872 1255h-391l-75 -430h272l-31 -182h-272l-84 -465h391l-31 -182h-573l252 1442h573zM864 1264l31 166h-557l-252 -1426h557l31 166h-391l84 481h272l31 166h-273l76 447h391zM938 1513l16 84h-614l-16 -84h614zM946 1505h-631l17 101h631z" glyph-name="emacron" horiz-adv-x="710" unicode="ē"/><glyph d="M872 1255h-391l-75 -430h272l-31 -182h-272l-84 -465h391l-31 -182h-573l252 1442h573zM864 1264l31 166h-557l-252 -1426h557l31 166h-391l84 481h272l31 166h-273l76 447h391zM596 1664q-31 -26 -37 -62q-2 -6 -2 -19q0 -29 20.5 -49.5t53.5 -20.5q37 0 66.5 26 t37.5 63q6 37 -14.5 62.5t-56.5 25.5q-37 0 -68 -26zM726 1670q24 -28 17 -68q-8 -41 -40.5 -69t-71.5 -28q-35 0 -58.5 22.5t-23.5 55.5q0 12 2 19q6 39 39 67.5t74 28.5q38 0 62 -28z" glyph-name="Edotaccent" horiz-adv-x="1228" unicode="Ė"/><glyph d="M872 1255h-391l-75 -430h272l-31 -182h-272l-84 -465h391l-31 -182h-573l252 1442h573zM864 1264l31 166h-557l-252 -1426h557l31 166h-391l84 481h272l31 166h-273l76 447h391zM596 1664q-31 -26 -37 -62q-2 -6 -2 -19q0 -29 20.5 -49.5t53.5 -20.5q37 0 66.5 26 t37.5 63q6 37 -14.5 62.5t-56.5 25.5q-37 0 -68 -26zM726 1670q24 -28 17 -68q-8 -41 -40.5 -69t-71.5 -28q-35 0 -58.5 22.5t-23.5 55.5q0 12 2 19q6 39 39 67.5t74 28.5q38 0 62 -28z" glyph-name="edotaccent" horiz-adv-x="1228" unicode="ė"/><glyph d="M481 1255l-75 -430h272l-31 -182h-272l-84 -465h391l-31 -182q-49 -14 -90 -50t-45 -67q-8 -41 70 -41h22l-16 -100h-43q-80 0 -122 24.5t-42 69.5q0 90 168 172l2 -8h-477l252 1442h573l-31 -183h-391zM895 1430h-557l-252 -1426h469l2 -8q-164 -80 -164 -164 q0 -43 41 -64.5t115 -21.5h35l16 84h-14q-86 0 -78 49q4 33 44 70t91 55l31 166h-391l84 481h272l31 166h-273l76 447h391z" glyph-name="Eogonek" horiz-adv-x="710" unicode="Ę"/><glyph d="M481 1255l-75 -430h272l-31 -182h-272l-84 -465h391l-31 -182q-49 -14 -90 -50t-45 -67q-8 -41 70 -41h22l-16 -100h-43q-80 0 -122 24.5t-42 69.5q0 90 168 172l2 -8h-477l252 1442h573l-31 -183h-391zM895 1430h-557l-252 -1426h469l2 -8q-164 -80 -164 -164 q0 -43 41 -64.5t115 -21.5h35l16 84h-14q-86 0 -78 49q4 33 44 70t91 55l31 166h-391l84 481h272l31 166h-273l76 447h391z" glyph-name="eogonek" horiz-adv-x="710" unicode="ę"/><glyph d="M872 1255h-391l-75 -430h272l-31 -182h-272l-84 -465h391l-31 -182h-573l252 1442h573zM864 1264l31 166h-557l-252 -1426h557l31 166h-391l84 481h272l31 166h-273l76 447h391zM901 1724l-182 -219h-178l-107 219h113l100 -114l141 114h113zM885 1716h-92l-146 -119 l-104 119h-97l99 -203h170z" glyph-name="Ecaron" horiz-adv-x="1228" unicode="Ě"/><glyph d="M872 1255h-391l-75 -430h272l-31 -182h-272l-84 -465h391l-31 -182h-573l252 1442h573zM864 1264l31 166h-557l-252 -1426h557l31 166h-391l84 481h272l31 166h-273l76 447h391zM901 1724l-182 -219h-178l-107 219h113l100 -114l141 114h113zM885 1716h-92l-146 -119 l-104 119h-97l99 -203h170z" glyph-name="ecaron" horiz-adv-x="1228" unicode="ě"/><glyph d="M631 66q111 88 141 253l84 480h-315l-31 -166h149l-53 -314q-14 -86 -60 -126.5t-124 -40.5q-131 0 -131 114q0 23 6 53l139 795q14 86 59.5 127t125.5 41q131 0 131 -115q0 -25 -7 -53l-22 -127h166l22 127q8 61 9 84q0 104 -58 172q-74 78 -211 78t-239 -80 q-113 -88 -142 -254l-139 -795q-8 -41 -8 -86q0 -106 57 -170q74 -78 211 -77q138 0 240 80zM176 59q-61 63 -61 174q0 45 8 86l139 795q29 166 146 262q104 80 243 80q141 0 217 -82q59 -70 60 -178q0 -25 -8 -82l-23 -135h-182l22 135q6 31 6 53q0 106 -122 107 q-76 0 -118 -38t-59 -122l-139 -795q-6 -31 -6 -53q0 -106 123 -106q76 0 118 39t58 120l53 306h-149l30 182h332l-84 -488q-31 -170 -145 -262q-100 -80 -244 -80q-139 0 -215 82zM907 1720q-14 -88 -86.5 -151.5t-161.5 -63.5q-78 0 -128 50.5t-50 125.5q0 10 4 39h97 q-2 -8 -2 -24q0 -41 27.5 -67.5t68.5 -26.5q49 0 88 34.5t47 83.5h96zM767 1627q-42 -34 -91 -34q-45 0 -75 29t-30 72l2 18h-79q-2 -10 -2 -33q0 -72 47 -119t120 -47q82 0 153 58.5t87 140.5h-80q-10 -51 -52 -85z" glyph-name="Gbreve" horiz-adv-x="1228" unicode="Ğ"/><glyph d="M631 66q111 88 141 253l84 480h-315l-31 -166h149l-53 -314q-14 -86 -60 -126.5t-124 -40.5q-131 0 -131 114q0 23 6 53l139 795q14 86 59.5 127t125.5 41q131 0 131 -115q0 -25 -7 -53l-22 -127h166l22 127q8 61 9 84q0 104 -58 172q-74 78 -211 78t-239 -80 q-113 -88 -142 -254l-139 -795q-8 -41 -8 -86q0 -106 57 -170q74 -78 211 -77q138 0 240 80zM176 59q-61 63 -61 174q0 45 8 86l139 795q29 166 146 262q104 80 243 80q141 0 217 -82q59 -70 60 -178q0 -25 -8 -82l-23 -135h-182l22 135q6 31 6 53q0 106 -122 107 q-76 0 -118 -38t-59 -122l-139 -795q-6 -31 -6 -53q0 -106 123 -106q76 0 118 39t58 120l53 306h-149l30 182h332l-84 -488q-31 -170 -145 -262q-100 -80 -244 -80q-139 0 -215 82zM907 1720q-14 -88 -86.5 -151.5t-161.5 -63.5q-78 0 -128 50.5t-50 125.5q0 10 4 39h97 q-2 -8 -2 -24q0 -41 27.5 -67.5t68.5 -26.5q49 0 88 34.5t47 83.5h96zM767 1627q-42 -34 -91 -34q-45 0 -75 29t-30 72l2 18h-79q-2 -10 -2 -33q0 -72 47 -119t120 -47q82 0 153 58.5t87 140.5h-80q-10 -51 -52 -85z" glyph-name="gbreve" horiz-adv-x="1228" unicode="ğ"/><glyph d="M631 66q111 88 141 253l84 480h-315l-31 -166h149l-53 -314q-14 -86 -60 -126.5t-124 -40.5q-131 0 -131 114q0 23 6 53l139 795q14 86 59.5 127t125.5 41q131 0 131 -115q0 -25 -7 -53l-22 -127h166l22 127q8 61 9 84q0 104 -58 172q-74 78 -211 78t-239 -80 q-113 -88 -142 -254l-139 -795q-8 -41 -8 -86q0 -106 57 -170q74 -78 211 -77q138 0 240 80zM176 59q-61 63 -61 174q0 45 8 86l139 795q29 166 146 262q104 80 243 80q141 0 217 -82q59 -70 60 -178q0 -25 -8 -82l-23 -135h-182l22 135q6 31 6 53q0 106 -122 107 q-76 0 -118 -38t-59 -122l-139 -795q-6 -31 -6 -53q0 -106 123 -106q76 0 118 39t58 120l53 306h-149l30 182h332l-84 -488q-31 -170 -145 -262q-100 -80 -244 -80q-139 0 -215 82zM749.5 1664q-20.5 26 -57.5 26t-67.5 -26t-36.5 -62q-2 -6 -2 -19q0 -29 20.5 -49.5 t52.5 -20.5q37 0 67 26t38 63q6 36 -14.5 62zM731 1533q-33 -28 -72 -28q-35 0 -58 22.5t-23 55.5q0 12 2 19q6 39 38.5 67.5t73.5 28.5q39 0 62.5 -28t17.5 -68q-8 -41 -41 -69z" glyph-name="Gdotaccent" horiz-adv-x="1228" unicode="Ġ"/><glyph d="M631 66q111 88 141 253l84 480h-315l-31 -166h149l-53 -314q-14 -86 -60 -126.5t-124 -40.5q-131 0 -131 114q0 23 6 53l139 795q14 86 59.5 127t125.5 41q131 0 131 -115q0 -25 -7 -53l-22 -127h166l22 127q8 61 9 84q0 104 -58 172q-74 78 -211 78t-239 -80 q-113 -88 -142 -254l-139 -795q-8 -41 -8 -86q0 -106 57 -170q74 -78 211 -77q138 0 240 80zM176 59q-61 63 -61 174q0 45 8 86l139 795q29 166 146 262q104 80 243 80q141 0 217 -82q59 -70 60 -178q0 -25 -8 -82l-23 -135h-182l22 135q6 31 6 53q0 106 -122 107 q-76 0 -118 -38t-59 -122l-139 -795q-6 -31 -6 -53q0 -106 123 -106q76 0 118 39t58 120l53 306h-149l30 182h332l-84 -488q-31 -170 -145 -262q-100 -80 -244 -80q-139 0 -215 82zM749.5 1664q-20.5 26 -57.5 26t-67.5 -26t-36.5 -62q-2 -6 -2 -19q0 -29 20.5 -49.5 t52.5 -20.5q37 0 67 26t38 63q6 36 -14.5 62zM731 1533q-33 -28 -72 -28q-35 0 -58 22.5t-23 55.5q0 12 2 19q6 39 38.5 67.5t73.5 28.5q39 0 62.5 -28t17.5 -68q-8 -41 -41 -69z" glyph-name="gdotaccent" horiz-adv-x="1228" unicode="ġ"/><glyph d="M631 66q111 88 141 253l84 480h-315l-31 -166h149l-53 -314q-14 -86 -60 -126.5t-124 -40.5q-131 0 -131 114q0 23 6 53l139 795q14 86 59.5 127t125.5 41q131 0 131 -115q0 -25 -7 -53l-22 -127h166l22 127q8 61 9 84q0 104 -58 172q-74 78 -211 78t-239 -80 q-113 -88 -142 -254l-139 -795q-8 -41 -8 -86q0 -106 57 -170q74 -78 211 -77q138 0 240 80zM176 59q-61 63 -61 174q0 45 8 86l139 795q29 166 146 262q104 80 243 80q141 0 217 -82q59 -70 60 -178q0 -25 -8 -82l-23 -135h-182l22 135q6 31 6 53q0 106 -122 107 q-76 0 -118 -38t-59 -122l-139 -795q-6 -31 -6 -53q0 -106 123 -106q76 0 118 39t58 120l53 306h-149l30 182h332l-84 -488q-31 -170 -145 -262q-100 -80 -244 -80q-139 0 -215 82zM452.5 -203.5q-10.5 -23.5 -32.5 -58.5q-49 -61 -82 -100h-70l-4 6q8 12 15.5 25.5 t15.5 25.5q10 25 10 33q0 10 -8 16q-31 27 -31 66q0 10 2 16q6 39 39 67.5t74 28.5q35 0 58.5 -23.5t23.5 -58.5q0 -20 -10.5 -43.5zM434.5 -106.5q20.5 -20.5 20.5 -51.5q0 -29 -43 -100q-16 -25 -78 -96h-66l4 -6q8 12 15.5 25t15.5 26q8 20 8 33q0 16 -10 26 q-27 27 -27 60q0 10 2 16q6 37 37 62.5t68 25.5q33 0 53.5 -20.5z" glyph-name="Gcommaaccent" horiz-adv-x="1228" unicode="Ģ"/><glyph d="M631 66q111 88 141 253l84 480h-315l-31 -166h149l-53 -314q-14 -86 -60 -126.5t-124 -40.5q-131 0 -131 114q0 23 6 53l139 795q14 86 59.5 127t125.5 41q131 0 131 -115q0 -25 -7 -53l-22 -127h166l22 127q8 61 9 84q0 104 -58 172q-74 78 -211 78t-239 -80 q-113 -88 -142 -254l-139 -795q-8 -41 -8 -86q0 -106 57 -170q74 -78 211 -77q138 0 240 80zM176 59q-61 63 -61 174q0 45 8 86l139 795q29 166 146 262q104 80 243 80q141 0 217 -82q59 -70 60 -178q0 -25 -8 -82l-23 -135h-182l22 135q6 31 6 53q0 106 -122 107 q-76 0 -118 -38t-59 -122l-139 -795q-6 -31 -6 -53q0 -106 123 -106q76 0 118 39t58 120l53 306h-149l30 182h332l-84 -488q-31 -170 -145 -262q-100 -80 -244 -80q-139 0 -215 82zM452.5 -203.5q-10.5 -23.5 -32.5 -58.5q-49 -61 -82 -100h-70l-4 6q8 12 15.5 25.5 t15.5 25.5q10 25 10 33q0 10 -8 16q-31 27 -31 66q0 10 2 16q6 39 39 67.5t74 28.5q35 0 58.5 -23.5t23.5 -58.5q0 -20 -10.5 -43.5zM434.5 -106.5q20.5 -20.5 20.5 -51.5q0 -29 -43 -100q-16 -25 -78 -96h-66l4 -6q8 12 15.5 25t15.5 26q8 20 8 33q0 16 -10 26 q-27 27 -27 60q0 10 2 16q6 37 37 62.5t68 25.5q33 0 53.5 -20.5z" glyph-name="gcommaaccent" horiz-adv-x="1228" unicode="ģ"/><glyph d="M997 1438l-51 -291h82l-14 -98h-82l-187 -1053h-182l115 647h-293l-115 -647h-182l186 1053h-81l14 98h82l51 291h182l-51 -291h293l51 291h182zM989 1430h-166l-51 -291h-309l51 291h-166l-51 -291h-82l-14 -82h82l-187 -1053h166l115 647h309l-115 -647h166l187 1053 h82l14 82h-82zM709 825l41 224h-293l-41 -224h293zM717 817h-309l41 240h309z" glyph-name="Hbar" horiz-adv-x="833" unicode="Ħ"/><glyph d="M997 1438l-51 -291h82l-14 -98h-82l-187 -1053h-182l115 647h-293l-115 -647h-182l186 1053h-81l14 98h82l51 291h182l-51 -291h293l51 291h182zM989 1430h-166l-51 -291h-309l51 291h-166l-51 -291h-82l-14 -82h82l-187 -1053h166l115 647h309l-115 -647h166l187 1053 h82l14 82h-82zM709 825l41 224h-293l-41 -224h293zM717 817h-309l41 240h309z" glyph-name="hbar" horiz-adv-x="833" unicode="ħ"/><glyph d="M252 4l252 1426h-166l-252 -1426h166zM260 -4h-182l252 1442h182zM340 1573q37 0 78 -27q51 -37 106 -37q82 0 176 95l-53 47q-51 -51 -94 -60q-37 -6 -82 23q-63 41 -115 41q-84 0 -178 -94l53 -50q62 62 109 62zM166 1561q102 102 190 102q55 0 119 -41q43 -29 78 -23 q43 10 94 64l66 -59q-96 -102 -191 -103q-55 0 -108 37q-41 27 -74 27q-20 0 -49 -16.5t-60 -49.5z" glyph-name="Itilde" horiz-adv-x="321" unicode="Ĩ"/><glyph d="M252 4l252 1426h-166l-252 -1426h166zM260 -4h-182l252 1442h182zM340 1573q37 0 78 -27q51 -37 106 -37q82 0 176 95l-53 47q-51 -51 -94 -60q-37 -6 -82 23q-63 41 -115 41q-84 0 -178 -94l53 -50q62 62 109 62zM166 1561q102 102 190 102q55 0 119 -41q43 -29 78 -23 q43 10 94 64l66 -59q-96 -102 -191 -103q-55 0 -108 37q-41 27 -74 27q-20 0 -49 -16.5t-60 -49.5z" glyph-name="itilde" horiz-adv-x="321" unicode="ĩ"/><glyph d="M252 4l252 1426h-166l-252 -1426h166zM260 -4h-182l252 1442h182zM741 1513l17 84h-615l-16 -84h614zM750 1505h-631l16 101h631z" glyph-name="Imacron" horiz-adv-x="335" unicode="Ī"/><glyph d="M252 4l252 1426h-166l-252 -1426h166zM260 -4h-182l252 1442h182zM741 1513l17 84h-615l-16 -84h614zM750 1505h-631l16 101h631z" glyph-name="imacron" horiz-adv-x="335" unicode="ī"/><glyph d="M512 1438l-252 -1442q-49 -14 -90 -50t-45 -67q-8 -41 70 -41h22l-16 -100h-43q-80 0 -122 24.5t-42 69.5q0 90 168 172l2 -8h-86l252 1442h182zM86 4h78l2 -8q-164 -80 -164 -164q0 -43 41 -64.5t115 -21.5h35l16 84h-14q-86 0 -78 49q4 33 44 70t91 55l252 1426h-166z " glyph-name="Iogonek" horiz-adv-x="337" unicode="Į"/><glyph d="M512 1438l-252 -1442q-49 -14 -90 -50t-45 -67q-8 -41 70 -41h22l-16 -100h-43q-80 0 -122 24.5t-42 69.5q0 90 168 172l2 -8h-86l252 1442h182zM86 4h78l2 -8q-164 -80 -164 -164q0 -43 41 -64.5t115 -21.5h35l16 84h-14q-86 0 -78 49q4 33 44 70t91 55l252 1426h-166z " glyph-name="iogonek" horiz-adv-x="337" unicode="į"/><glyph d="M258 4l252 1426h-166l-252 -1426h166zM266 -4h-182l252 1442h182zM530.5 1664q-20.5 26 -57.5 26t-67.5 -26t-36.5 -62q-2 -6 -2 -19q0 -29 20.5 -49.5t52.5 -20.5q37 0 67 26t38 63q6 36 -14.5 62zM512 1533q-33 -28 -72 -28q-35 0 -58.5 22.5t-23.5 55.5q0 12 2 19 q6 39 39 67.5t74 28.5q39 0 62.5 -28t17.5 -68q-8 -41 -41 -69z" glyph-name="Idotaccent" horiz-adv-x="348" unicode="İ"/><glyph d="M252 4l252 1426h-166l-252 -1426h166zM260 -4h-182l252 1442h182z" glyph-name="dotlessi" horiz-adv-x="337" unicode="ı"/><glyph d="M319 334l-59 -338h-182l252 1442h182l-117 -676l432 676h203l-440 -684l186 -758h-198l-132 534l-127 -198v2zM311 336l140 215l135 -547h178l-182 750l432 676h-183l-452 -705l125 705h-166l-252 -1426h166l59 330v2zM475 -203.5q-10 -23.5 -33 -58.5q-49 -61 -82 -100 h-69l-4 6q8 12 15 25.5t15 25.5q10 25 11 33q0 10 -9 16q-31 27 -30 66q0 10 2 16q6 39 38.5 67.5t73.5 28.5q35 0 58.5 -23.5t23.5 -58.5q0 -20 -10 -43.5zM456.5 -106.5q20.5 -20.5 20.5 -51.5q0 -29 -43 -100q-16 -25 -78 -96h-65l4 -6q8 12 15 25t16 26q8 20 8 33 q0 16 -10 26q-27 27 -27 60q0 10 2 16q6 37 37 62.5t67 25.5q33 0 53.5 -20.5z" glyph-name="Kcommaaccent" horiz-adv-x="802" unicode="Ķ"/><glyph d="M319 334l-59 -338h-182l252 1442h182l-117 -676l432 676h203l-440 -684l186 -758h-198l-132 534l-127 -198v2zM311 336l140 215l135 -547h178l-182 750l432 676h-183l-452 -705l125 705h-166l-252 -1426h166l59 330v2zM475 -203.5q-10 -23.5 -33 -58.5q-49 -61 -82 -100 h-69l-4 6q8 12 15 25.5t15 25.5q10 25 11 33q0 10 -9 16q-31 27 -30 66q0 10 2 16q6 39 38.5 67.5t73.5 28.5q35 0 58.5 -23.5t23.5 -58.5q0 -20 -10 -43.5zM456.5 -106.5q20.5 -20.5 20.5 -51.5q0 -29 -43 -100q-16 -25 -78 -96h-65l4 -6q8 12 15 25t16 26q8 20 8 33 q0 16 -10 26q-27 27 -27 60q0 10 2 16q6 37 37 62.5t67 25.5q33 0 53.5 -20.5z" glyph-name="kcommaaccent" horiz-adv-x="802" unicode="ķ"/><glyph d="M643 4l31 166h-391l221 1257h-166l-252 -1423h557zM651 -4h-573l252 1440h182l-221 -1258h391zM561 1718l-170 -205h94l238 205h-162zM557 1726h186l-254 -221h-114z" glyph-name="Lacute" horiz-adv-x="679" unicode="Ĺ"/><glyph d="M643 4l31 166h-391l221 1257h-166l-252 -1423h557zM651 -4h-573l252 1440h182l-221 -1258h391zM561 1718l-170 -205h94l238 205h-162zM557 1726h186l-254 -221h-114z" glyph-name="lacute" horiz-adv-x="679" unicode="ĺ"/><glyph d="M643 4l31 166h-391l221 1257h-166l-252 -1423h557zM651 -4h-573l252 1440h182l-221 -1258h391zM422 -203.5q-10 -23.5 -33 -58.5q-49 -61 -82 -100h-69l-5 6q8 12 15.5 25.5t15.5 25.5q10 25 10 33q0 10 -8 16q-31 27 -30 66q0 10 2 16q6 39 38.5 67.5t73.5 28.5 q35 0 58.5 -23.5t23.5 -58.5q0 -20 -10 -43.5zM403.5 -106.5q20.5 -20.5 20.5 -51.5q0 -29 -43 -100q-16 -25 -78 -96h-65l4 -6q8 12 15 25t15 26q8 20 9 33q0 16 -11 26q-27 27 -26 60q0 10 2 16q6 37 36.5 62.5t67.5 25.5q33 0 53.5 -20.5z" glyph-name="Lcommaaccent" horiz-adv-x="679" unicode="Ļ"/><glyph d="M643 4l31 166h-391l221 1257h-166l-252 -1423h557zM651 -4h-573l252 1440h182l-221 -1258h391zM422 -203.5q-10 -23.5 -33 -58.5q-49 -61 -82 -100h-69l-5 6q8 12 15.5 25.5t15.5 25.5q10 25 10 33q0 10 -8 16q-31 27 -30 66q0 10 2 16q6 39 38.5 67.5t73.5 28.5 q35 0 58.5 -23.5t23.5 -58.5q0 -20 -10 -43.5zM403.5 -106.5q20.5 -20.5 20.5 -51.5q0 -29 -43 -100q-16 -25 -78 -96h-65l4 -6q8 12 15 25t15 26q8 20 9 33q0 16 -11 26q-27 27 -26 60q0 10 2 16q6 37 36.5 62.5t67.5 25.5q33 0 53.5 -20.5z" glyph-name="lcommaaccent" horiz-adv-x="679" unicode="ļ"/><glyph d="M643 4l31 166h-391l221 1257h-166l-252 -1423h557zM651 -4h-573l252 1440h182l-221 -1258h391zM803 1251q-49 -61 -82 -100h-70l-4 6q10 16 31 51q10 20 10 33q0 10 -6 16q-37 33 -31 82q8 41 41 69t72 28q35 0 58.5 -22.5t23.5 -55.5q0 -41 -43 -107zM817.5 1406.5 q20.5 -20.5 20.5 -48.5q0 -37 -43 -103q-16 -25 -78 -96h-66l4 -6q10 16 31 51q10 27 10 37q0 12 -8 23q-35 31 -29 75q8 37 38 62.5t67 25.5q33 0 53.5 -20.5z" glyph-name="Lcaron" horiz-adv-x="679" unicode="Ľ"/><glyph d="M643 4l31 166h-391l221 1257h-166l-252 -1423h557zM651 -4h-573l252 1440h182l-221 -1258h391zM803 1251q-49 -61 -82 -100h-70l-4 6q10 16 31 51q10 20 10 33q0 10 -6 16q-37 33 -31 82q8 41 41 69t72 28q35 0 58.5 -22.5t23.5 -55.5q0 -41 -43 -107zM817.5 1406.5 q20.5 -20.5 20.5 -48.5q0 -37 -43 -103q-16 -25 -78 -96h-66l4 -6q10 16 31 51q10 27 10 37q0 12 -8 23q-35 31 -29 75q8 37 38 62.5t67 25.5q33 0 53.5 -20.5z" glyph-name="lcaron" horiz-adv-x="679" unicode="ľ"/><glyph d="M291 178h391l-31 -182h-573l65 379l-131 -117l25 141l131 117l162 920h182l-127 -725l305 276l-24 -141l-306 -277zM283 170l69 403l305 277l21 117l-305 -277l131 737h-166l-162 -915l-131 -117l-20 -116l131 116l-70 -391h557l31 166h-391z" glyph-name="Lslash" horiz-adv-x="679" unicode="Ł"/><glyph d="M291 178h391l-31 -182h-573l65 379l-131 -117l25 141l131 117l162 920h182l-127 -725l305 276l-24 -141l-306 -277zM283 170l69 403l305 277l21 117l-305 -277l131 737h-166l-162 -915l-131 -117l-20 -116l131 116l-70 -391h557l31 166h-391z" glyph-name="lslash" horiz-adv-x="679" unicode="ł"/><glyph d="M406 846l-148 -850h-182l252 1442h104l244 -852l147 852h183l-252 -1442h-105zM406 883l251 -879h88l252 1426h-166l-155 -881l-252 881h-88l-252 -1426h166zM807 1718l-170 -205h94l238 205h-162zM803 1726h186l-254 -221h-114z" glyph-name="Nacute" horiz-adv-x="829" unicode="Ń"/><glyph d="M406 846l-148 -850h-182l252 1442h104l244 -852l147 852h183l-252 -1442h-105zM406 883l251 -879h88l252 1426h-166l-155 -881l-252 881h-88l-252 -1426h166zM807 1718l-170 -205h94l238 205h-162zM803 1726h186l-254 -221h-114z" glyph-name="nacute" horiz-adv-x="829" unicode="ń"/><glyph d="M473 -203.5q-10 -23.5 -33 -58.5q-49 -61 -82 -100h-69l-4 6q8 12 15 25.5t15 25.5q10 25 11 33q0 10 -9 16q-31 27 -30 66q0 10 2 16q6 39 38.5 67.5t73.5 28.5q35 0 58.5 -23.5t23.5 -58.5q0 -20 -10 -43.5zM454.5 -106.5q20.5 -20.5 20.5 -51.5q0 -29 -43 -100 q-16 -25 -78 -96h-65l4 -6q8 12 15 25t16 26q8 20 8 33q0 16 -10 26q-27 27 -27 60q0 10 2 16q6 37 37 62.5t67 25.5q33 0 53.5 -20.5zM406 846l-148 -850h-182l252 1442h104l244 -852l147 852h183l-252 -1442h-105zM406 883l251 -879h88l252 1426h-166l-155 -881l-252 881 h-88l-252 -1426h166z" glyph-name="Ncommaaccent" horiz-adv-x="829" unicode="Ņ"/><glyph d="M473 -203.5q-10 -23.5 -33 -58.5q-49 -61 -82 -100h-69l-4 6q8 12 15 25.5t15 25.5q10 25 11 33q0 10 -9 16q-31 27 -30 66q0 10 2 16q6 39 38.5 67.5t73.5 28.5q35 0 58.5 -23.5t23.5 -58.5q0 -20 -10 -43.5zM454.5 -106.5q20.5 -20.5 20.5 -51.5q0 -29 -43 -100 q-16 -25 -78 -96h-65l4 -6q8 12 15 25t16 26q8 20 8 33q0 16 -10 26q-27 27 -27 60q0 10 2 16q6 37 37 62.5t67 25.5q33 0 53.5 -20.5zM406 846l-148 -850h-182l252 1442h104l244 -852l147 852h183l-252 -1442h-105zM406 883l251 -879h88l252 1426h-166l-155 -881l-252 881 h-88l-252 -1426h166z" glyph-name="ncommaaccent" horiz-adv-x="829" unicode="ņ"/><glyph d="M406 846l-148 -850h-182l252 1442h104l244 -852l147 852h183l-252 -1442h-105zM406 883l251 -879h88l252 1426h-166l-155 -881l-252 881h-88l-252 -1426h166zM952 1724l-182 -219h-178l-107 219h113l100 -114l142 114h112zM936 1716h-92l-146 -119l-104 119h-96l98 -203 h170z" glyph-name="Ncaron" horiz-adv-x="829" unicode="Ň"/><glyph d="M406 846l-148 -850h-182l252 1442h104l244 -852l147 852h183l-252 -1442h-105zM406 883l251 -879h88l252 1426h-166l-155 -881l-252 881h-88l-252 -1426h166zM952 1724l-182 -219h-178l-107 219h113l100 -114l142 114h112zM936 1716h-92l-146 -119l-104 119h-96l98 -203 h170z" glyph-name="ncaron" horiz-adv-x="829" unicode="ň"/><glyph d="M1006 1438l-267 -1524q-12 -57 -59 -96t-102 -37l16 96h4q14 0 28.5 11.5t16.5 25.5l14 86v-2l-251 848l-148 -850h-182l252 1442h104l244 -852l147 852h183zM676 549l-252 881h-88l-252 -1426h166l156 879l260 -881v-2l-15 -86q-2 -18 -17.5 -30.5t-31.5 -14.5l-16 -80 q51 2 93 38t52 87l266 1516h-166z" glyph-name="Eng" horiz-adv-x="829" unicode="Ŋ"/><glyph d="M1006 1438l-267 -1524q-12 -57 -59 -96t-102 -37l16 96h4q14 0 28.5 11.5t16.5 25.5l14 86v-2l-251 848l-148 -850h-182l252 1442h104l244 -852l147 852h183zM676 549l-252 881h-88l-252 -1426h166l156 879l260 -881v-2l-15 -86q-2 -18 -17.5 -30.5t-31.5 -14.5l-16 -80 q51 2 93 38t52 87l266 1516h-166z" glyph-name="eng" horiz-adv-x="829" unicode="ŋ"/><glyph d="M629 66q111 88 141 253l139 795q8 61 9 84q0 104 -58 172q-74 78 -211 78t-239 -80q-113 -94 -140 -254l-139 -795q-8 -41 -8 -88q0 -106 55 -168q74 -78 211 -77q138 0 240 80zM174 59q-59 61 -59 174q0 45 8 86l139 795q29 166 144 262q104 80 243 80q141 0 217 -82 q59 -70 60 -178q0 -25 -8 -82l-140 -795q-31 -170 -145 -262q-100 -80 -244 -80q-139 0 -215 82zM750 1167q0 -23 -7 -53l-139 -795q-14 -86 -59 -126.5t-125 -40.5q-129 0 -129 112q0 25 6 55l139 795q14 88 59.5 128t122.5 40q132 0 132 -115zM502 1236q-41 -38 -58 -122 l-139 -795q-6 -31 -6 -55q0 -55 29.5 -79.5t91.5 -24.5q76 0 118 38t58 121l139 795q6 31 6 53q0 106 -123 107q-75 0 -116 -38zM967 1513l16 84h-614l-17 -84h615zM975 1505h-631l16 101h631z" glyph-name="Omacron" horiz-adv-x="786" unicode="Ō"/><glyph d="M629 66q111 88 141 253l139 795q8 61 9 84q0 104 -58 172q-74 78 -211 78t-239 -80q-113 -94 -140 -254l-139 -795q-8 -41 -8 -88q0 -106 55 -168q74 -78 211 -77q138 0 240 80zM174 59q-59 61 -59 174q0 45 8 86l139 795q29 166 144 262q104 80 243 80q141 0 217 -82 q59 -70 60 -178q0 -25 -8 -82l-140 -795q-31 -170 -145 -262q-100 -80 -244 -80q-139 0 -215 82zM750 1167q0 -23 -7 -53l-139 -795q-14 -86 -59 -126.5t-125 -40.5q-129 0 -129 112q0 25 6 55l139 795q14 88 59.5 128t122.5 40q132 0 132 -115zM502 1236q-41 -38 -58 -122 l-139 -795q-6 -31 -6 -55q0 -55 29.5 -79.5t91.5 -24.5q76 0 118 38t58 121l139 795q6 31 6 53q0 106 -123 107q-75 0 -116 -38zM967 1513l16 84h-614l-17 -84h615zM975 1505h-631l16 101h631z" glyph-name="omacron" horiz-adv-x="786" unicode="ō"/><glyph d="M629 66q111 88 141 253l139 795q8 61 9 84q0 104 -58 172q-74 78 -211 78t-239 -80q-113 -94 -140 -254l-139 -795q-8 -41 -8 -88q0 -106 55 -168q74 -78 211 -77q138 0 240 80zM174 59q-59 61 -59 174q0 45 8 86l139 795q29 166 144 262q104 80 243 80q141 0 217 -82 q59 -70 60 -178q0 -25 -8 -82l-140 -795q-31 -170 -145 -262q-100 -80 -244 -80q-139 0 -215 82zM750 1167q0 -23 -7 -53l-139 -795q-14 -86 -59 -126.5t-125 -40.5q-129 0 -129 112q0 25 6 55l139 795q14 88 59.5 128t122.5 40q132 0 132 -115zM502 1236q-41 -38 -58 -122 l-139 -795q-6 -31 -6 -55q0 -55 29.5 -79.5t91.5 -24.5q76 0 118 38t58 121l139 795q6 31 6 53q0 106 -123 107q-75 0 -116 -38zM645 1720l-168 -207h92l240 207h-164zM641 1729h188l-256 -224h-112zM922 1720l-168 -207h92l239 207h-163zM918 1729h188l-256 -224h-113z" glyph-name="Ohungarumlaut" horiz-adv-x="786" unicode="Ő"/><glyph d="M629 66q111 88 141 253l139 795q8 61 9 84q0 104 -58 172q-74 78 -211 78t-239 -80q-113 -94 -140 -254l-139 -795q-8 -41 -8 -88q0 -106 55 -168q74 -78 211 -77q138 0 240 80zM174 59q-59 61 -59 174q0 45 8 86l139 795q29 166 144 262q104 80 243 80q141 0 217 -82 q59 -70 60 -178q0 -25 -8 -82l-140 -795q-31 -170 -145 -262q-100 -80 -244 -80q-139 0 -215 82zM750 1167q0 -23 -7 -53l-139 -795q-14 -86 -59 -126.5t-125 -40.5q-129 0 -129 112q0 25 6 55l139 795q14 88 59.5 128t122.5 40q132 0 132 -115zM502 1236q-41 -38 -58 -122 l-139 -795q-6 -31 -6 -55q0 -55 29.5 -79.5t91.5 -24.5q76 0 118 38t58 121l139 795q6 31 6 53q0 106 -123 107q-75 0 -116 -38zM645 1720l-168 -207h92l240 207h-164zM641 1729h188l-256 -224h-112zM922 1720l-168 -207h92l239 207h-163zM918 1729h188l-256 -224h-113z" glyph-name="ohungarumlaut" horiz-adv-x="786" unicode="ő"/><glyph d="M852 1255l-76 -428h273l-31 -182h-273l-83 -467h391l-31 -182h-629q-141 0 -217 82q-59 70 -59 178q0 25 8 82l133 758q31 172 145 262q102 80 242 80h629l-31 -183h-391zM1266 1430h-621q-135 0 -237 -80q-111 -86 -142 -254l-133 -758q-8 -61 -8 -84q0 -104 57 -172 q74 -78 211 -78h621l30 166h-391l84 483h273l30 166h-272l76 445h391zM301 285q0 -106 123 -107h55l191 1077h-56q-76 0 -116.5 -37.5t-57.5 -121.5l-133 -758q-6 -30 -6 -53zM432 1096q14 88 59.5 128t122.5 40h64l-191 -1094h-63q-131 0 -131 115q0 23 6 53z" glyph-name="OE" horiz-adv-x="1081" unicode="Œ"/><glyph d="M852 1255l-76 -428h273l-31 -182h-273l-83 -467h391l-31 -182h-629q-141 0 -217 82q-59 70 -59 178q0 25 8 82l133 758q31 172 145 262q102 80 242 80h629l-31 -183h-391zM1266 1430h-621q-135 0 -237 -80q-111 -86 -142 -254l-133 -758q-8 -61 -8 -84q0 -104 57 -172 q74 -78 211 -78h621l30 166h-391l84 483h273l30 166h-272l76 445h391zM301 285q0 -106 123 -107h55l191 1077h-56q-76 0 -116.5 -37.5t-57.5 -121.5l-133 -758q-6 -30 -6 -53zM432 1096q14 88 59.5 128t122.5 40h64l-191 -1094h-63q-131 0 -131 115q0 23 6 53z" glyph-name="oe" horiz-adv-x="1081" unicode="œ"/><glyph d="M735 -4h-188l-60 598h-122l-105 -598h-182l252 1442h327q68 0 125.5 -21.5t91.5 -60.5q61 -68 62 -176q0 -43 -8 -84l-29 -162q-29 -170 -145 -258q-29 -29 -80 -49zM750 682q113 88 141 252l29 162q8 41 8 84q0 104 -58 172q-74 78 -213 78h-319l-252 -1426h166l104 598 h140l59 -598h172l-61 627q55 22 84 51zM745 1096q6 29 7 51q0 55 -31 81.5t-94 26.5h-146l-86 -479h146q78 0 119.5 38t56.5 120zM666 808q-45 -40 -125 -40h-154l86 496h154q133 0 133 -115q0 -25 -6 -53l-29 -162q-14 -86 -59 -126zM801 1718l-170 -205h94l238 205h-162z M797 1726h186l-254 -221h-115z" glyph-name="Racute" horiz-adv-x="788" unicode="Ŕ"/><glyph d="M735 -4h-188l-60 598h-122l-105 -598h-182l252 1442h327q68 0 125.5 -21.5t91.5 -60.5q61 -68 62 -176q0 -43 -8 -84l-29 -162q-29 -170 -145 -258q-29 -29 -80 -49zM750 682q113 88 141 252l29 162q8 41 8 84q0 104 -58 172q-74 78 -213 78h-319l-252 -1426h166l104 598 h140l59 -598h172l-61 627q55 22 84 51zM745 1096q6 29 7 51q0 55 -31 81.5t-94 26.5h-146l-86 -479h146q78 0 119.5 38t56.5 120zM666 808q-45 -40 -125 -40h-154l86 496h154q133 0 133 -115q0 -25 -6 -53l-29 -162q-14 -86 -59 -126zM801 1718l-170 -205h94l238 205h-162z M797 1726h186l-254 -221h-115z" glyph-name="racute" horiz-adv-x="788" unicode="ŕ"/><glyph d="M735 -4h-188l-60 598h-122l-105 -598h-182l252 1442h327q68 0 125.5 -21.5t91.5 -60.5q61 -68 62 -176q0 -43 -8 -84l-29 -162q-29 -170 -145 -258q-29 -29 -80 -49zM750 682q113 88 141 252l29 162q8 41 8 84q0 104 -58 172q-74 78 -213 78h-319l-252 -1426h166l104 598 h140l59 -598h172l-61 627q55 22 84 51zM745 1096q6 29 7 51q0 55 -31 81.5t-94 26.5h-146l-86 -479h146q78 0 119.5 38t56.5 120zM666 808q-45 -40 -125 -40h-154l86 496h154q133 0 133 -115q0 -25 -6 -53l-29 -162q-14 -86 -59 -126zM465 -203.5q-10 -23.5 -33 -58.5 q-49 -61 -82 -100h-69l-5 6q8 12 15.5 25.5t15.5 25.5q10 25 10 33q0 10 -8 16q-31 27 -30 66q0 10 2 16q6 39 38.5 67.5t73.5 28.5q35 0 58.5 -23.5t23.5 -58.5q0 -20 -10 -43.5zM446.5 -106.5q20.5 -20.5 20.5 -51.5q0 -29 -43 -100q-16 -25 -78 -96h-65l4 -6q8 12 15 25 t15 26q8 20 9 33q0 16 -11 26q-27 27 -26 60q0 10 2 16q6 37 36.5 62.5t67.5 25.5q33 0 53.5 -20.5z" glyph-name="Rcommaaccent" horiz-adv-x="788" unicode="Ŗ"/><glyph d="M735 -4h-188l-60 598h-122l-105 -598h-182l252 1442h327q68 0 125.5 -21.5t91.5 -60.5q61 -68 62 -176q0 -43 -8 -84l-29 -162q-29 -170 -145 -258q-29 -29 -80 -49zM750 682q113 88 141 252l29 162q8 41 8 84q0 104 -58 172q-74 78 -213 78h-319l-252 -1426h166l104 598 h140l59 -598h172l-61 627q55 22 84 51zM745 1096q6 29 7 51q0 55 -31 81.5t-94 26.5h-146l-86 -479h146q78 0 119.5 38t56.5 120zM666 808q-45 -40 -125 -40h-154l86 496h154q133 0 133 -115q0 -25 -6 -53l-29 -162q-14 -86 -59 -126zM465 -203.5q-10 -23.5 -33 -58.5 q-49 -61 -82 -100h-69l-5 6q8 12 15.5 25.5t15.5 25.5q10 25 10 33q0 10 -8 16q-31 27 -30 66q0 10 2 16q6 39 38.5 67.5t73.5 28.5q35 0 58.5 -23.5t23.5 -58.5q0 -20 -10 -43.5zM446.5 -106.5q20.5 -20.5 20.5 -51.5q0 -29 -43 -100q-16 -25 -78 -96h-65l4 -6q8 12 15 25 t15 26q8 20 9 33q0 16 -11 26q-27 27 -26 60q0 10 2 16q6 37 36.5 62.5t67.5 25.5q33 0 53.5 -20.5z" glyph-name="rcommaaccent" horiz-adv-x="788" unicode="ŗ"/><glyph d="M735 -4h-188l-60 598h-122l-105 -598h-182l252 1442h327q68 0 125.5 -21.5t91.5 -60.5q61 -68 62 -176q0 -43 -8 -84l-29 -162q-29 -170 -145 -258q-29 -29 -80 -49zM750 682q113 88 141 252l29 162q8 41 8 84q0 104 -58 172q-74 78 -213 78h-319l-252 -1426h166l104 598 h140l59 -598h172l-61 627q55 22 84 51zM745 1096q6 29 7 51q0 55 -31 81.5t-94 26.5h-146l-86 -479h146q78 0 119.5 38t56.5 120zM666 808q-45 -40 -125 -40h-154l86 496h154q133 0 133 -115q0 -25 -6 -53l-29 -162q-14 -86 -59 -126zM903 1505h-110l-101 115l-141 -115 h-115l182 219h179zM891 1513l-98 203h-170l-170 -203h94l145 119l105 -119h94z" glyph-name="Rcaron" horiz-adv-x="788" unicode="Ř"/><glyph d="M735 -4h-188l-60 598h-122l-105 -598h-182l252 1442h327q68 0 125.5 -21.5t91.5 -60.5q61 -68 62 -176q0 -43 -8 -84l-29 -162q-29 -170 -145 -258q-29 -29 -80 -49zM750 682q113 88 141 252l29 162q8 41 8 84q0 104 -58 172q-74 78 -213 78h-319l-252 -1426h166l104 598 h140l59 -598h172l-61 627q55 22 84 51zM745 1096q6 29 7 51q0 55 -31 81.5t-94 26.5h-146l-86 -479h146q78 0 119.5 38t56.5 120zM666 808q-45 -40 -125 -40h-154l86 496h154q133 0 133 -115q0 -25 -6 -53l-29 -162q-14 -86 -59 -126zM903 1505h-110l-101 115l-141 -115 h-115l182 219h179zM891 1513l-98 203h-170l-170 -203h94l145 119l105 -119h94z" glyph-name="rcaron" horiz-adv-x="788" unicode="ř"/><glyph d="M614 66q113 88 144 253l16 95q8 61 8 86q0 109 -59 186q-27 41 -63.5 69.5t-96.5 63.5q-53 35 -78.5 54.5t-46.5 46.5q-29 45 -28 98q0 27 6 57l6 39q14 88 59 128t123 40q133 0 133 -115q0 -25 -6 -53l-22 -127h165l23 127q6 43 6 80q0 106 -59 176q-33 37 -87.5 57.5 t-121.5 20.5q-135 0 -238 -80q-113 -88 -141 -254l-6 -39q-8 -41 -8 -88q0 -106 55 -180q27 -39 61.5 -65.5t98.5 -65.5q47 -29 76.5 -51.5t48.5 -49.5q31 -43 30 -108q0 -33 -4 -53l-16 -95q-14 -86 -60.5 -126.5t-125.5 -40.5q-129 0 -130 112q0 25 7 55l32 191h-165 l-33 -191q-8 -41 -8 -86q0 -106 57 -170q74 -78 209 -77q141 0 239 80zM254 -1.5q-55 21.5 -92 60.5q-61 66 -62 174q0 45 9 86l32 199h183l-33 -199q-6 -31 -6 -53q0 -106 121 -106q76 0 118.5 39t59.5 120l16 95q4 20 4 53q0 61 -31 104q-16 25 -40.5 43.5t-79.5 53.5 t-94.5 64.5t-69.5 70.5q-55 76 -56 182q0 47 9 90l6 39q29 166 145 262q104 80 242 80q70 0 126 -21.5t89 -60.5q63 -66 63 -178q0 -25 -8 -82l-22 -135h-183l23 135q6 29 6 51q0 55 -30.5 82t-94.5 27q-76 0 -117 -39t-57 -121l-6 -39q-6 -31 -6 -55q0 -55 28 -96 q18 -25 43 -43.5t78 -53.5q115 -68 164 -137q59 -82 60 -192q0 -27 -9 -84l-16 -95q-31 -170 -148 -262q-49 -39 -112.5 -59.5t-130.5 -20.5q-66 0 -121 21.5zM772 1718l-170 -205h94l238 205h-162zM768 1726h186l-254 -221h-114z" glyph-name="Sacute" horiz-adv-x="759" unicode="Ś"/><glyph d="M614 66q113 88 144 253l16 95q8 61 8 86q0 109 -59 186q-27 41 -63.5 69.5t-96.5 63.5q-53 35 -78.5 54.5t-46.5 46.5q-29 45 -28 98q0 27 6 57l6 39q14 88 59 128t123 40q133 0 133 -115q0 -25 -6 -53l-22 -127h165l23 127q6 43 6 80q0 106 -59 176q-33 37 -87.5 57.5 t-121.5 20.5q-135 0 -238 -80q-113 -88 -141 -254l-6 -39q-8 -41 -8 -88q0 -106 55 -180q27 -39 61.5 -65.5t98.5 -65.5q47 -29 76.5 -51.5t48.5 -49.5q31 -43 30 -108q0 -33 -4 -53l-16 -95q-14 -86 -60.5 -126.5t-125.5 -40.5q-129 0 -130 112q0 25 7 55l32 191h-165 l-33 -191q-8 -41 -8 -86q0 -106 57 -170q74 -78 209 -77q141 0 239 80zM254 -1.5q-55 21.5 -92 60.5q-61 66 -62 174q0 45 9 86l32 199h183l-33 -199q-6 -31 -6 -53q0 -106 121 -106q76 0 118.5 39t59.5 120l16 95q4 20 4 53q0 61 -31 104q-16 25 -40.5 43.5t-79.5 53.5 t-94.5 64.5t-69.5 70.5q-55 76 -56 182q0 47 9 90l6 39q29 166 145 262q104 80 242 80q70 0 126 -21.5t89 -60.5q63 -66 63 -178q0 -25 -8 -82l-22 -135h-183l23 135q6 29 6 51q0 55 -30.5 82t-94.5 27q-76 0 -117 -39t-57 -121l-6 -39q-6 -31 -6 -55q0 -55 28 -96 q18 -25 43 -43.5t78 -53.5q115 -68 164 -137q59 -82 60 -192q0 -27 -9 -84l-16 -95q-31 -170 -148 -262q-49 -39 -112.5 -59.5t-130.5 -20.5q-66 0 -121 21.5zM772 1718l-170 -205h94l238 205h-162zM768 1726h186l-254 -221h-114z" glyph-name="sacute" horiz-adv-x="759" unicode="ś"/><glyph d="M700 979l23 135q6 29 6 51q0 55 -30.5 82t-94.5 27q-76 0 -117 -39t-57 -121l-6 -39q-6 -31 -6 -55q0 -55 28 -96q18 -25 43 -43.5t78 -53.5q115 -68 164 -137q59 -82 60 -192q0 -27 -9 -84l-16 -95q-31 -170 -148 -262q-74 -61 -188 -77l4 -3q4 0 4 -6q23 -20 36 -39.5 t13 -50.5q0 -63 -48 -112.5t-109 -49.5q-49 0 -82 34t-33 81q0 16 2 25h96v-9q0 -14 9.5 -24t23.5 -10q16 0 28.5 12t14.5 27l2 10q0 8 -6 15t-16 16q-2 0 -3 2l-1 2q-41 35 -35 80q-106 12 -168 79q-61 66 -62 174q0 45 9 86l32 199h183l-33 -199q-6 -31 -6 -53 q0 -106 121 -106q76 0 118.5 39t59.5 120l16 95q4 20 4 53q0 61 -31 104q-16 25 -40.5 43.5t-79.5 53.5t-94.5 64.5t-69.5 70.5q-55 76 -56 182q0 47 9 90l6 39q29 166 145 262q104 80 242 80q70 0 126 -21.5t89 -60.5q63 -66 63 -178q0 -25 -8 -82l-22 -135h-183zM897 1114 q6 43 6 80q0 106 -59 176q-33 37 -87.5 57.5t-121.5 20.5q-135 0 -238 -80q-113 -88 -141 -254l-6 -39q-8 -41 -8 -88q0 -106 55 -180q27 -39 61.5 -65.5t98.5 -65.5q47 -29 76.5 -51.5t48.5 -49.5q31 -43 30 -108q0 -33 -4 -53l-16 -95q-14 -86 -60.5 -126.5t-125.5 -40.5 q-129 0 -130 112q0 25 7 55l32 191h-165l-33 -191q-8 -41 -8 -86q0 -106 57 -170q68 -68 172 -75q-6 -47 31 -82l4 -2q16 -14 21 -24.5t3 -24.5q-2 -20 -17 -34t-34 -14q-18 0 -29.5 12.5t-11.5 30.5h-80l-2 -18q0 -45 31 -74.5t76 -29.5q59 0 104 46t45 107q0 33 -12 50.5 t-37 37.5h2q-8 4 -11 9.5t1 9.5q115 12 192 78q113 88 144 253l16 95q8 61 8 86q0 109 -59 186q-27 41 -63.5 69.5t-96.5 63.5q-53 35 -78.5 54.5t-46.5 46.5q-29 45 -28 98q0 27 6 57l6 39q14 88 59 128t123 40q133 0 133 -115q0 -25 -6 -53l-22 -127h165z" glyph-name="Scedilla" horiz-adv-x="759" unicode="Ş"/><glyph d="M700 979l23 135q6 29 6 51q0 55 -30.5 82t-94.5 27q-76 0 -117 -39t-57 -121l-6 -39q-6 -31 -6 -55q0 -55 28 -96q18 -25 43 -43.5t78 -53.5q115 -68 164 -137q59 -82 60 -192q0 -27 -9 -84l-16 -95q-31 -170 -148 -262q-74 -61 -188 -77l4 -3q4 0 4 -6q23 -20 36 -39.5 t13 -50.5q0 -63 -48 -112.5t-109 -49.5q-49 0 -82 34t-33 81q0 16 2 25h96v-9q0 -14 9.5 -24t23.5 -10q16 0 28.5 12t14.5 27l2 10q0 8 -6 15t-16 16q-2 0 -3 2l-1 2q-41 35 -35 80q-106 12 -168 79q-61 66 -62 174q0 45 9 86l32 199h183l-33 -199q-6 -31 -6 -53 q0 -106 121 -106q76 0 118.5 39t59.5 120l16 95q4 20 4 53q0 61 -31 104q-16 25 -40.5 43.5t-79.5 53.5t-94.5 64.5t-69.5 70.5q-55 76 -56 182q0 47 9 90l6 39q29 166 145 262q104 80 242 80q70 0 126 -21.5t89 -60.5q63 -66 63 -178q0 -25 -8 -82l-22 -135h-183zM897 1114 q6 43 6 80q0 106 -59 176q-33 37 -87.5 57.5t-121.5 20.5q-135 0 -238 -80q-113 -88 -141 -254l-6 -39q-8 -41 -8 -88q0 -106 55 -180q27 -39 61.5 -65.5t98.5 -65.5q47 -29 76.5 -51.5t48.5 -49.5q31 -43 30 -108q0 -33 -4 -53l-16 -95q-14 -86 -60.5 -126.5t-125.5 -40.5 q-129 0 -130 112q0 25 7 55l32 191h-165l-33 -191q-8 -41 -8 -86q0 -106 57 -170q68 -68 172 -75q-6 -47 31 -82l4 -2q16 -14 21 -24.5t3 -24.5q-2 -20 -17 -34t-34 -14q-18 0 -29.5 12.5t-11.5 30.5h-80l-2 -18q0 -45 31 -74.5t76 -29.5q59 0 104 46t45 107q0 33 -12 50.5 t-37 37.5h2q-8 4 -11 9.5t1 9.5q115 12 192 78q113 88 144 253l16 95q8 61 8 86q0 109 -59 186q-27 41 -63.5 69.5t-96.5 63.5q-53 35 -78.5 54.5t-46.5 46.5q-29 45 -28 98q0 27 6 57l6 39q14 88 59 128t123 40q133 0 133 -115q0 -25 -6 -53l-22 -127h165z" glyph-name="scedilla" horiz-adv-x="759" unicode="ş"/><glyph d="M614 66q113 88 144 253l16 95q8 61 8 86q0 109 -59 186q-27 41 -63.5 69.5t-96.5 63.5q-53 35 -78.5 54.5t-46.5 46.5q-29 45 -28 98q0 27 6 57l6 39q14 88 59 128t123 40q133 0 133 -115q0 -25 -6 -53l-22 -127h165l23 127q6 43 6 80q0 106 -59 176q-33 37 -87.5 57.5 t-121.5 20.5q-135 0 -238 -80q-113 -88 -141 -254l-6 -39q-8 -41 -8 -88q0 -106 55 -180q27 -39 61.5 -65.5t98.5 -65.5q47 -29 76.5 -51.5t48.5 -49.5q31 -43 30 -108q0 -33 -4 -53l-16 -95q-14 -86 -60.5 -126.5t-125.5 -40.5q-129 0 -130 112q0 25 7 55l32 191h-165 l-33 -191q-8 -41 -8 -86q0 -106 57 -170q74 -78 209 -77q141 0 239 80zM254 -1.5q-55 21.5 -92 60.5q-61 66 -62 174q0 45 9 86l32 199h183l-33 -199q-6 -31 -6 -53q0 -106 121 -106q76 0 118.5 39t59.5 120l16 95q4 20 4 53q0 61 -31 104q-16 25 -40.5 43.5t-79.5 53.5 t-94.5 64.5t-69.5 70.5q-55 76 -56 182q0 47 9 90l6 39q29 166 145 262q104 80 242 80q70 0 126 -21.5t89 -60.5q63 -66 63 -178q0 -25 -8 -82l-22 -135h-183l23 135q6 29 6 51q0 55 -30.5 82t-94.5 27q-76 0 -117 -39t-57 -121l-6 -39q-6 -31 -6 -55q0 -55 28 -96 q18 -25 43 -43.5t78 -53.5q115 -68 164 -137q59 -82 60 -192q0 -27 -9 -84l-16 -95q-31 -170 -148 -262q-49 -39 -112.5 -59.5t-130.5 -20.5q-66 0 -121 21.5zM918 1724l-183 -219h-178l-106 219h112l101 -114l141 114h113zM901 1716h-92l-145 -119l-105 119h-96l98 -203 h170z" glyph-name="Scaron" horiz-adv-x="759" unicode="Š"/><glyph d="M614 66q113 88 144 253l16 95q8 61 8 86q0 109 -59 186q-27 41 -63.5 69.5t-96.5 63.5q-53 35 -78.5 54.5t-46.5 46.5q-29 45 -28 98q0 27 6 57l6 39q14 88 59 128t123 40q133 0 133 -115q0 -25 -6 -53l-22 -127h165l23 127q6 43 6 80q0 106 -59 176q-33 37 -87.5 57.5 t-121.5 20.5q-135 0 -238 -80q-113 -88 -141 -254l-6 -39q-8 -41 -8 -88q0 -106 55 -180q27 -39 61.5 -65.5t98.5 -65.5q47 -29 76.5 -51.5t48.5 -49.5q31 -43 30 -108q0 -33 -4 -53l-16 -95q-14 -86 -60.5 -126.5t-125.5 -40.5q-129 0 -130 112q0 25 7 55l32 191h-165 l-33 -191q-8 -41 -8 -86q0 -106 57 -170q74 -78 209 -77q141 0 239 80zM254 -1.5q-55 21.5 -92 60.5q-61 66 -62 174q0 45 9 86l32 199h183l-33 -199q-6 -31 -6 -53q0 -106 121 -106q76 0 118.5 39t59.5 120l16 95q4 20 4 53q0 61 -31 104q-16 25 -40.5 43.5t-79.5 53.5 t-94.5 64.5t-69.5 70.5q-55 76 -56 182q0 47 9 90l6 39q29 166 145 262q104 80 242 80q70 0 126 -21.5t89 -60.5q63 -66 63 -178q0 -25 -8 -82l-22 -135h-183l23 135q6 29 6 51q0 55 -30.5 82t-94.5 27q-76 0 -117 -39t-57 -121l-6 -39q-6 -31 -6 -55q0 -55 28 -96 q18 -25 43 -43.5t78 -53.5q115 -68 164 -137q59 -82 60 -192q0 -27 -9 -84l-16 -95q-31 -170 -148 -262q-49 -39 -112.5 -59.5t-130.5 -20.5q-66 0 -121 21.5zM918 1724l-183 -219h-178l-106 219h112l101 -114l141 114h113zM901 1716h-92l-145 -119l-105 119h-96l98 -203 h170z" glyph-name="scaron" horiz-adv-x="759" unicode="š"/><glyph d="M403 -2l-2 -12q0 -6 7 -9q4 0 4 -6q23 -20 36 -39.5t13 -50.5q0 -63 -48 -112.5t-110 -49.5q-49 0 -82 34t-33 81q0 16 2 25h97v-9q0 -14 9 -24t23 -10q16 0 28.5 12t14.5 27l3 10q0 8 -6.5 15t-16.5 16q-2 0 -3 2l-1 2q-41 35 -35 86l2 12h-43l221 1257h-239l30 183h664 l-31 -183h-241l-222 -1257h-41zM657 1264h242l31 166h-647l-31 -166h240l-222 -1258h43l-2 -20q-6 -47 31 -80l4 -2q16 -14 21.5 -24.5t3.5 -24.5q-2 -20 -17.5 -34t-34.5 -14q-18 0 -29 12.5t-11 30.5h-80l-2 -18q0 -45 30.5 -74.5t75.5 -29.5q59 0 104.5 46t45.5 107 q0 33 -12.5 50.5t-37.5 37.5h3q-12 4 -13 17l2 20h41z" glyph-name="Tcommaaccent" horiz-adv-x="706" unicode="Ţ"/><glyph d="M403 -2l-2 -12q0 -6 7 -9q4 0 4 -6q23 -20 36 -39.5t13 -50.5q0 -63 -48 -112.5t-110 -49.5q-49 0 -82 34t-33 81q0 16 2 25h97v-9q0 -14 9 -24t23 -10q16 0 28.5 12t14.5 27l3 10q0 8 -6.5 15t-16.5 16q-2 0 -3 2l-1 2q-41 35 -35 86l2 12h-43l221 1257h-239l30 183h664 l-31 -183h-241l-222 -1257h-41zM657 1264h242l31 166h-647l-31 -166h240l-222 -1258h43l-2 -20q-6 -47 31 -80l4 -2q16 -14 21.5 -24.5t3.5 -24.5q-2 -20 -17.5 -34t-34.5 -14q-18 0 -29 12.5t-11 30.5h-80l-2 -18q0 -45 30.5 -74.5t75.5 -29.5q59 0 104.5 46t45.5 107 q0 33 -12.5 50.5t-37.5 37.5h3q-12 4 -13 17l2 20h41z" glyph-name="tcommaaccent" horiz-adv-x="706" unicode="ţ"/><glyph d="M938 1436l-31 -183h-241l-222 -1257h-182l221 1257h-239l30 183h664zM930 1427h-647l-31 -165h240l-222 -1258h166l221 1258h242zM891 1724l-182 -219h-179l-106 219h113l100 -114l141 114h113zM874 1716h-92l-145 -119l-105 119h-96l99 -203h170z" glyph-name="Tcaron" horiz-adv-x="706" unicode="Ť"/><glyph d="M938 1436l-31 -183h-241l-222 -1257h-182l221 1257h-239l30 183h664zM930 1427h-647l-31 -165h240l-222 -1258h166l221 1258h242zM891 1724l-182 -219h-179l-106 219h113l100 -114l141 114h113zM874 1716h-92l-145 -119l-105 119h-96l99 -203h170z" glyph-name="tcaron" horiz-adv-x="706" unicode="ť"/><glyph d="M907 1253h-241l-52 -286h123l-16 -99h-123l-154 -872h-182l154 872h-123l16 99h123l51 286h-239l30 183h664zM899 1262l31 165h-647l-31 -165h240l-52 -304h-123l-16 -81h123l-154 -873h166l154 873h123l16 81h-123l51 304h242z" glyph-name="Tbar" horiz-adv-x="706" unicode="Ŧ"/><glyph d="M907 1253h-241l-52 -286h123l-16 -99h-123l-154 -872h-182l154 872h-123l16 99h123l51 286h-239l30 183h664zM899 1262l31 165h-647l-31 -165h240l-52 -304h-123l-16 -81h123l-154 -873h166l154 873h123l16 81h-123l51 304h242z" glyph-name="tbar" horiz-adv-x="706" unicode="ŧ"/><glyph d="M529.5 6.5q62.5 20.5 107.5 59.5q113 88 143 253l195 1111h-166l-195 -1111q-14 -86 -60 -126.5t-124 -40.5q-131 0 -131 114q0 23 6 53l195 1111h-166l-195 -1111q-8 -41 -8 -86q0 -106 57 -170q74 -78 211 -77q68 0 130.5 20.5zM184 59q-61 66 -61 174q0 45 8 86 l195 1119h182l-195 -1119q-6 -31 -6 -53q0 -106 123 -106q76 0 118 39t58 120l195 1119h182l-195 -1119q-31 -170 -147 -262q-49 -39 -111.5 -59.5t-130.5 -20.5q-141 0 -215 82zM582 1573q37 0 77 -27q51 -37 107 -37q82 0 176 95l-53 47q-51 -51 -94 -60q-37 -6 -82 23 q-63 41 -115 41q-84 0 -178 -94l53 -50q62 62 109 62zM408 1561q102 102 190 102q55 0 119 -41q43 -29 78 -23q43 10 94 64l65 -59q-96 -102 -190 -103q-57 0 -109 37q-41 27 -73 27q-20 0 -49 -16.5t-60 -49.5z" glyph-name="Utilde" horiz-adv-x="804" unicode="Ũ"/><glyph d="M529.5 6.5q62.5 20.5 107.5 59.5q113 88 143 253l195 1111h-166l-195 -1111q-14 -86 -60 -126.5t-124 -40.5q-131 0 -131 114q0 23 6 53l195 1111h-166l-195 -1111q-8 -41 -8 -86q0 -106 57 -170q74 -78 211 -77q68 0 130.5 20.5zM184 59q-61 66 -61 174q0 45 8 86 l195 1119h182l-195 -1119q-6 -31 -6 -53q0 -106 123 -106q76 0 118 39t58 120l195 1119h182l-195 -1119q-31 -170 -147 -262q-49 -39 -111.5 -59.5t-130.5 -20.5q-141 0 -215 82zM582 1573q37 0 77 -27q51 -37 107 -37q82 0 176 95l-53 47q-51 -51 -94 -60q-37 -6 -82 23 q-63 41 -115 41q-84 0 -178 -94l53 -50q62 62 109 62zM408 1561q102 102 190 102q55 0 119 -41q43 -29 78 -23q43 10 94 64l65 -59q-96 -102 -190 -103q-57 0 -109 37q-41 27 -73 27q-20 0 -49 -16.5t-60 -49.5z" glyph-name="utilde" horiz-adv-x="804" unicode="ũ"/><glyph d="M529.5 6.5q62.5 20.5 107.5 59.5q113 88 143 253l195 1111h-166l-195 -1111q-14 -86 -60 -126.5t-124 -40.5q-131 0 -131 114q0 23 6 53l195 1111h-166l-195 -1111q-8 -41 -8 -86q0 -106 57 -170q74 -78 211 -77q68 0 130.5 20.5zM184 59q-61 66 -61 174q0 45 8 86 l195 1119h182l-195 -1119q-6 -31 -6 -53q0 -106 123 -106q76 0 118 39t58 120l195 1119h182l-195 -1119q-31 -170 -147 -262q-49 -39 -111.5 -59.5t-130.5 -20.5q-141 0 -215 82zM977 1513l16 84h-614l-17 -84h615zM985 1505h-631l17 101h630z" glyph-name="Umacron" horiz-adv-x="804" unicode="Ū"/><glyph d="M529.5 6.5q62.5 20.5 107.5 59.5q113 88 143 253l195 1111h-166l-195 -1111q-14 -86 -60 -126.5t-124 -40.5q-131 0 -131 114q0 23 6 53l195 1111h-166l-195 -1111q-8 -41 -8 -86q0 -106 57 -170q74 -78 211 -77q68 0 130.5 20.5zM184 59q-61 66 -61 174q0 45 8 86 l195 1119h182l-195 -1119q-6 -31 -6 -53q0 -106 123 -106q76 0 118 39t58 120l195 1119h182l-195 -1119q-31 -170 -147 -262q-49 -39 -111.5 -59.5t-130.5 -20.5q-141 0 -215 82zM977 1513l16 84h-614l-17 -84h615zM985 1505h-631l17 101h630z" glyph-name="umacron" horiz-adv-x="804" unicode="ū"/><glyph d="M529.5 6.5q62.5 20.5 107.5 59.5q113 88 143 253l195 1111h-166l-195 -1111q-14 -86 -60 -126.5t-124 -40.5q-131 0 -131 114q0 23 6 53l195 1111h-166l-195 -1111q-8 -41 -8 -86q0 -106 57 -170q74 -78 211 -77q68 0 130.5 20.5zM184 59q-61 66 -61 174q0 45 8 86 l195 1119h182l-195 -1119q-6 -31 -6 -53q0 -106 123 -106q76 0 118 39t58 120l195 1119h182l-195 -1119q-31 -170 -147 -262q-49 -39 -111.5 -59.5t-130.5 -20.5q-141 0 -215 82zM775 1565q46 45 46 102q0 45 -29.5 75t-74.5 30q-57 0 -104.5 -47.5t-47.5 -104.5 q0 -43 30 -71.5t75 -28.5q59 0 105 45zM589 1542q-32 31 -32 78q0 63 49 111.5t111 48.5q49 0 80.5 -33t31.5 -80q0 -63 -48 -109.5t-111 -46.5q-49 0 -81 31zM728 1680.5q11 -11.5 11 -27.5q0 -23 -16 -38.5t-37 -15.5q-16 0 -27.5 11.5t-11.5 27.5q0 20 16.5 37t36.5 17 q17 0 28 -11.5zM670.5 1672q-13.5 -11 -15.5 -27v-7q0 -14 8.5 -22t22.5 -8q16 0 29.5 11t15.5 26v8q0 14 -8 22t-23 8q-16 0 -29.5 -11z" glyph-name="Uring" horiz-adv-x="804" unicode="Ů"/><glyph d="M529.5 6.5q62.5 20.5 107.5 59.5q113 88 143 253l195 1111h-166l-195 -1111q-14 -86 -60 -126.5t-124 -40.5q-131 0 -131 114q0 23 6 53l195 1111h-166l-195 -1111q-8 -41 -8 -86q0 -106 57 -170q74 -78 211 -77q68 0 130.5 20.5zM184 59q-61 66 -61 174q0 45 8 86 l195 1119h182l-195 -1119q-6 -31 -6 -53q0 -106 123 -106q76 0 118 39t58 120l195 1119h182l-195 -1119q-31 -170 -147 -262q-49 -39 -111.5 -59.5t-130.5 -20.5q-141 0 -215 82zM775 1565q46 45 46 102q0 45 -29.5 75t-74.5 30q-57 0 -104.5 -47.5t-47.5 -104.5 q0 -43 30 -71.5t75 -28.5q59 0 105 45zM589 1542q-32 31 -32 78q0 63 49 111.5t111 48.5q49 0 80.5 -33t31.5 -80q0 -63 -48 -109.5t-111 -46.5q-49 0 -81 31zM728 1680.5q11 -11.5 11 -27.5q0 -23 -16 -38.5t-37 -15.5q-16 0 -27.5 11.5t-11.5 27.5q0 20 16.5 37t36.5 17 q17 0 28 -11.5zM670.5 1672q-13.5 -11 -15.5 -27v-7q0 -14 8.5 -22t22.5 -8q16 0 29.5 11t15.5 26v8q0 14 -8 22t-23 8q-16 0 -29.5 -11z" glyph-name="uring" horiz-adv-x="804" unicode="ů"/><glyph d="M529.5 6.5q62.5 20.5 107.5 59.5q113 88 143 253l195 1111h-166l-195 -1111q-14 -86 -60 -126.5t-124 -40.5q-131 0 -131 114q0 23 6 53l195 1111h-166l-195 -1111q-8 -41 -8 -86q0 -106 57 -170q74 -78 211 -77q68 0 130.5 20.5zM184 59q-61 66 -61 174q0 45 8 86 l195 1119h182l-195 -1119q-6 -31 -6 -53q0 -106 123 -106q76 0 118 39t58 120l195 1119h182l-195 -1119q-31 -170 -147 -262q-49 -39 -111.5 -59.5t-130.5 -20.5q-141 0 -215 82zM655 1720l-168 -207h93l239 207h-164zM651 1729h189l-256 -224h-113zM932 1720l-168 -207h92 l240 207h-164zM928 1729h188l-256 -224h-112z" glyph-name="Uhungarumlaut" horiz-adv-x="804" unicode="Ű"/><glyph d="M529.5 6.5q62.5 20.5 107.5 59.5q113 88 143 253l195 1111h-166l-195 -1111q-14 -86 -60 -126.5t-124 -40.5q-131 0 -131 114q0 23 6 53l195 1111h-166l-195 -1111q-8 -41 -8 -86q0 -106 57 -170q74 -78 211 -77q68 0 130.5 20.5zM184 59q-61 66 -61 174q0 45 8 86 l195 1119h182l-195 -1119q-6 -31 -6 -53q0 -106 123 -106q76 0 118 39t58 120l195 1119h182l-195 -1119q-31 -170 -147 -262q-49 -39 -111.5 -59.5t-130.5 -20.5q-141 0 -215 82zM655 1720l-168 -207h93l239 207h-164zM651 1729h189l-256 -224h-113zM932 1720l-168 -207h92 l240 207h-164zM928 1729h188l-256 -224h-112z" glyph-name="uhungarumlaut" horiz-adv-x="804" unicode="ű"/><glyph d="M983 1438l-195 -1119q-31 -170 -147 -262q-63 -53 -98 -91t-43 -79q-6 -27 18.5 -38t50.5 -11h19l4 -4l-17 -96h-43q-80 0 -121.5 24.5t-41.5 69.5q0 61 98 158l2 -6q-33 -6 -70 -7q-141 0 -215 82q-61 66 -61 174q0 45 8 86l195 1119h182l-195 -1119q-6 -31 -6 -53 q0 -106 123 -106q76 0 118 39t58 120l195 1119h182zM614 319q-14 -86 -60 -126.5t-124 -40.5q-131 0 -131 114q0 23 6 53l195 1111h-166l-195 -1111q-8 -41 -8 -86q0 -106 57 -170q74 -78 211 -77q39 0 70 6l2 -6q-43 -43 -68.5 -84t-25.5 -70q0 -43 41 -64.5t114 -21.5h35 l17 84h-15q-29 0 -56.5 12.5t-20.5 44.5q8 43 44.5 84t100.5 95q113 88 143 253l195 1111h-166z" glyph-name="Uogonek" horiz-adv-x="804" unicode="Ų"/><glyph d="M983 1438l-195 -1119q-31 -170 -147 -262q-63 -53 -98 -91t-43 -79q-6 -27 18.5 -38t50.5 -11h19l4 -4l-17 -96h-43q-80 0 -121.5 24.5t-41.5 69.5q0 61 98 158l2 -6q-33 -6 -70 -7q-141 0 -215 82q-61 66 -61 174q0 45 8 86l195 1119h182l-195 -1119q-6 -31 -6 -53 q0 -106 123 -106q76 0 118 39t58 120l195 1119h182zM614 319q-14 -86 -60 -126.5t-124 -40.5q-131 0 -131 114q0 23 6 53l195 1111h-166l-195 -1111q-8 -41 -8 -86q0 -106 57 -170q74 -78 211 -77q39 0 70 6l2 -6q-43 -43 -68.5 -84t-25.5 -70q0 -43 41 -64.5t114 -21.5h35 l17 84h-15q-29 0 -56.5 12.5t-20.5 44.5q8 43 44.5 84t100.5 95q113 88 143 253l195 1111h-166z" glyph-name="uogonek" horiz-adv-x="804" unicode="ų"/><glyph d="M647 766l-360 -770h-78l76 1442h184l-45 -793l262 567h82l63 -567l230 793h184l-430 -1442h-80zM651 795l92 -791h68l422 1426h-164l-242 -826l-67 600h-70l-278 -600l49 826h-168l-76 -1426h66zM1010 1505h-111l-100 115l-142 -115h-114l182 219h178zM997 1513l-98 203 h-170l-170 -203h94l146 119l104 -119h94z" glyph-name="Wcircumflex" horiz-adv-x="1024" unicode="Ŵ"/><glyph d="M647 766l-360 -770h-78l76 1442h184l-45 -793l262 567h82l63 -567l230 793h184l-430 -1442h-80zM651 795l92 -791h68l422 1426h-164l-242 -826l-67 600h-70l-278 -600l49 826h-168l-76 -1426h66zM1010 1505h-111l-100 115l-142 -115h-114l182 219h178zM997 1513l-98 203 h-170l-170 -203h94l146 119l104 -119h94z" glyph-name="wcircumflex" horiz-adv-x="1024" unicode="ŵ"/><glyph d="M535 821l299 617h188l-453 -942v2l-88 -502h-182l88 502v0l-123 940h191zM530 793l-84 637h-174l123 -932v0l-88 -494h166l88 494v2l449 930h-172zM889 1505h-111l-100 115l-141 -115h-115l182 219h178zM877 1513l-99 203h-170l-170 -203h94l146 119l104 -119h95z" glyph-name="Ycircumflex" horiz-adv-x="778" unicode="Ŷ"/><glyph d="M535 821l299 617h188l-453 -942v2l-88 -502h-182l88 502v0l-123 940h191zM530 793l-84 637h-174l123 -932v0l-88 -494h166l88 494v2l449 930h-172zM889 1505h-111l-100 115l-141 -115h-115l182 219h178zM877 1513l-99 203h-170l-170 -203h94l146 119l104 -119h95z" glyph-name="ycircumflex" horiz-adv-x="778" unicode="ŷ"/><glyph d="M600.5 1664q-20.5 26 -57.5 26t-68 -26t-37 -62q-2 -6 -2 -19q0 -29 20.5 -49.5t53.5 -20.5q37 0 66.5 26t37.5 63q7 36 -13.5 62zM581.5 1533q-32.5 -28 -71.5 -28q-35 0 -58.5 22.5t-23.5 55.5q0 12 2 19q6 39 39 67.5t74 28.5q39 0 62.5 -28t17.5 -68 q-9 -41 -41.5 -69zM894.5 1664q-20.5 26 -56.5 26q-37 0 -68 -26t-37 -62q-2 -6 -2 -19q0 -29 20.5 -49.5t53.5 -20.5q37 0 66.5 26t37.5 63q6 36 -14.5 62zM876.5 1533q-32.5 -28 -71.5 -28q-35 0 -58.5 22.5t-23.5 55.5q0 12 2 19q6 39 39 67.5t74 28.5q39 0 62.5 -28 t17.5 -68q-9 -41 -41.5 -69zM535 821l299 617h188l-453 -942v2l-88 -502h-182l88 502v0l-123 940h191zM530 793l-84 637h-174l123 -932v0l-88 -494h166l88 494v2l449 930h-172z" glyph-name="Ydieresis" horiz-adv-x="778" unicode="Ÿ"/><glyph d="M709 4l30 166h-417l634 1260h-645l-30 -166h417l-635 -1260h646zM717 -4h-666l635 1259h-414l31 183h666l-635 -1260h414zM774 1718l-170 -205h94l238 205h-162zM770 1726h186l-254 -221h-114z" glyph-name="Zacute" horiz-adv-x="768" unicode="Ź"/><glyph d="M709 4l30 166h-417l634 1260h-645l-30 -166h417l-635 -1260h646zM717 -4h-666l635 1259h-414l31 183h666l-635 -1260h414zM774 1718l-170 -205h94l238 205h-162zM770 1726h186l-254 -221h-114z" glyph-name="zacute" horiz-adv-x="768" unicode="ź"/><glyph d="M709 4l30 166h-417l634 1260h-645l-30 -166h417l-635 -1260h646zM717 -4h-666l635 1259h-414l31 183h666l-635 -1260h414zM739.5 1664q-20.5 26 -57.5 26t-67.5 -26t-36.5 -62q-2 -6 -3 -19q0 -29 20.5 -49.5t53.5 -20.5q37 0 66.5 26t38.5 63q6 36 -14.5 62zM721 1533 q-33 -28 -72 -28q-35 0 -58.5 22.5t-23.5 55.5q0 12 2 19q6 39 39 67.5t74 28.5q39 0 62.5 -28t17.5 -68q-8 -41 -41 -69z" glyph-name="Zdotaccent" horiz-adv-x="768" unicode="Ż"/><glyph d="M709 4l30 166h-417l634 1260h-645l-30 -166h417l-635 -1260h646zM717 -4h-666l635 1259h-414l31 183h666l-635 -1260h414zM739.5 1664q-20.5 26 -57.5 26t-67.5 -26t-36.5 -62q-2 -6 -3 -19q0 -29 20.5 -49.5t53.5 -20.5q37 0 66.5 26t38.5 63q6 36 -14.5 62zM721 1533 q-33 -28 -72 -28q-35 0 -58.5 22.5t-23.5 55.5q0 12 2 19q6 39 39 67.5t74 28.5q39 0 62.5 -28t17.5 -68q-8 -41 -41 -69z" glyph-name="zdotaccent" horiz-adv-x="768" unicode="ż"/><glyph d="M709 4l30 166h-417l634 1260h-645l-30 -166h417l-635 -1260h646zM717 -4h-666l635 1259h-414l31 183h666l-635 -1260h414zM920 1724l-183 -219h-178l-106 219h112l101 -114l141 114h113zM903 1716h-92l-145 -119l-105 119h-96l98 -203h170z" glyph-name="Zcaron" horiz-adv-x="768" unicode="Ž"/><glyph d="M709 4l30 166h-417l634 1260h-645l-30 -166h417l-635 -1260h646zM717 -4h-666l635 1259h-414l31 183h666l-635 -1260h414zM920 1724l-183 -219h-178l-106 219h112l101 -114l141 114h113zM903 1716h-92l-145 -119l-105 119h-96l98 -203h170z" glyph-name="zcaron" horiz-adv-x="768" unicode="ž"/><glyph d="M864 539q0 -33 -6 -74l-24 -135q-31 -168 -146 -258q-100 -76 -242 -76h-235h-92l55 315h-123l31 183h123l166 944h297q143 0 215 -78q63 -63 63 -174q0 -43 -8 -82l-25 -139q-27 -152 -133 -234q84 -67 84 -192zM857 830.5q34 56.5 48 134.5l25 139q8 39 8 82 q0 104 -59 170q-74 74 -211 74h-289l-166 -945h-123l-31 -166h123l-55 -315h84h235q137 0 238 76q111 82 141 250l25 135q6 41 6 74q0 127 -88 192q55 43 89 99.5zM442 807h115q78 0 119 38t55 120l25 139q6 31 6 53q0 51 -30 74.5t-95 23.5h-115zM637 1264q70 0 101.5 -26 t31.5 -81q0 -25 -6 -53l-25 -139q-14 -86 -58 -126t-124 -40h-123l80 465h123zM676 465q4 37 4 51q0 57 -29.5 83t-91.5 26h-147l-25 -131h119l-31 -183h-119l-24 -133h145q78 0 115 31q45 35 59 121zM596 201q-43 -31 -119 -31h-153l24 149h119l31 166h-119l24 148h156 q66 0 97.5 -29t31.5 -90q0 -12 -4 -49l-25 -135q-16 -90 -63 -129z" glyph-name="uni0180" horiz-adv-x="1228" unicode="ƀ"/><glyph d="M918 543q0 -39 -9 -78l-24 -135q-29 -170 -144 -258q-102 -76 -241 -76h-330l238 1343h-82q-16 0 -29.5 -12t-15.5 -29h-97q8 57 53.5 97.5t102.5 40.5h379q145 0 215 -78q63 -63 63 -174q0 -25 -8 -82l-24 -137q-27 -152 -134 -234q87 -67 87 -188zM908 830.5 q34 56.5 48 134.5l25 137q6 43 6 82q0 111 -57 170q-70 74 -211 73h-379q-51 0 -94 -34.5t-53 -85.5h79q4 16 20.5 28.5t33.5 12.5h90l-238 -1344h322q133 0 237 76q111 86 140 250l24 135q8 57 8 78q0 123 -90 188q55 43 89 99.5zM494 807h114q76 0 117 37t57 121l25 137 q4 18 4 51q0 53 -28.5 76.5t-94.5 23.5h-115zM688 1262q68 0 99.5 -27t31.5 -84q0 -12 -4 -49l-24 -137q-14 -88 -58.5 -127t-124.5 -39h-123l80 463h123zM727 465q6 31 6 53q0 106 -123 107h-147l-80 -447h147q76 0 115 31q43 35 57 121zM649 201q-45 -31 -119 -31h-155 l80 463h155q131 0 131 -115q0 -25 -6 -53l-24 -135q-17 -90 -62 -129z" glyph-name="uni0181" horiz-adv-x="882" unicode="Ɓ"/><glyph d="M621 66q113 88 143 253l139 797q8 39 8 82q0 106 -61 174q-68 78 -207 78q-137 0 -240 -80q-111 -90 -141 -254l-22 -127h166l22 127q14 86 59 127t125 41q131 0 131 -115q0 -25 -6 -53l-139 -797q-14 -86 -60 -126.5t-124 -40.5q-131 0 -131 114q0 23 6 53l33 189h-166 l-33 -189q-8 -41 -8 -86q0 -106 57 -170q74 -78 211 -77q140 0 238 80zM168 59q-61 66 -62 174q0 45 9 86l32 197h183l-33 -197q-6 -31 -6 -53q0 -106 123 -106q76 0 117.5 39t58.5 120l139 797q6 31 6 53q0 106 -123 107q-76 0 -117.5 -38t-58.5 -122l-22 -135h-183l23 135 q31 168 145 262q104 80 244 80q68 0 124 -21.5t89 -60.5q63 -70 64 -178q0 -43 -9 -82l-139 -797q-31 -170 -147 -262q-49 -39 -111.5 -59.5t-130.5 -20.5q-139 0 -215 82z" glyph-name="uni0186" horiz-adv-x="780" unicode="Ɔ"/><glyph d="M942 1552q47 39 102 37l-14 -96h-4q-16 0 -30.5 -11.5t-16.5 -25.5l-82 -475h-182l22 135q6 29 6 51q0 55 -30.5 82t-94.5 27q-76 0 -116.5 -39t-57.5 -121l-139 -797q-6 -31 -6 -53q0 -106 121 -106q76 0 119 39t59 120l33 197h182l-33 -197q-31 -170 -147 -262 q-100 -80 -244 -80q-139 0 -213 82q-61 63 -61 174q0 45 8 86l139 797q31 168 146 262q100 80 241 80t215 -82l10 -10l-8 -2l17 92q12 57 59 96zM874 1364l-8 -2q-4 8 -6 10q-74 78 -211 78q-135 0 -237 -80q-111 -90 -142 -254l-139 -797q-8 -41 -8 -86q0 -106 57 -170 q74 -78 209 -77q137 0 240 80q113 88 143 253l33 189h-166l-33 -189q-14 -86 -60 -126.5t-126 -40.5q-129 0 -129 112q0 25 6 55l139 797q14 88 59.5 128t122.5 40q133 0 134 -115q0 -25 -7 -53l-22 -127h166l82 467q2 18 17.5 30.5t33.5 14.5l14 80q-51 -2 -93 -38t-52 -87 z" glyph-name="uni0187" horiz-adv-x="780" unicode="Ƈ"/><glyph d="M942 1552q47 39 102 37l-14 -96h-4q-16 0 -30.5 -11.5t-16.5 -25.5l-82 -475h-182l22 135q6 29 6 51q0 55 -30.5 82t-94.5 27q-76 0 -116.5 -39t-57.5 -121l-139 -797q-6 -31 -6 -53q0 -106 121 -106q76 0 119 39t59 120l33 197h182l-33 -197q-31 -170 -147 -262 q-100 -80 -244 -80q-139 0 -213 82q-61 63 -61 174q0 45 8 86l139 797q31 168 146 262q100 80 241 80t215 -82l10 -10l-8 -2l17 92q12 57 59 96zM874 1364l-8 -2q-4 8 -6 10q-74 78 -211 78q-135 0 -237 -80q-111 -90 -142 -254l-139 -797q-8 -41 -8 -86q0 -106 57 -170 q74 -78 209 -77q137 0 240 80q113 88 143 253l33 189h-166l-33 -189q-14 -86 -60 -126.5t-126 -40.5q-129 0 -129 112q0 25 6 55l139 797q14 88 59.5 128t122.5 40q133 0 134 -115q0 -25 -7 -53l-22 -127h166l82 467q2 18 17.5 30.5t33.5 14.5l14 80q-51 -2 -93 -38t-52 -87 z" glyph-name="uni0188" horiz-adv-x="780" unicode="ƈ"/><glyph d="M944 1180q0 -45 -8 -84l-135 -766q-29 -166 -146 -260q-98 -74 -239 -74h-328l111 629h-82l30 182h82l111 631h328q139 0 219 -82q57 -65 57 -176zM668 1430h-320l-110 -631h-82l-31 -166h82l-111 -629h320q141 0 235 74q115 90 142 252l135 766q8 39 8 84q0 100 -55 172 q-78 78 -213 78zM754 1096q6 31 6 53q0 106 -123 106h-145l-80 -448h123l-31 -182h-123l-80 -447h145q76 0 115 31q43 33 57 121zM565 201q-45 -31 -119 -31h-153l80 463h123l30 166h-123l80 465h154q131 0 131 -115q0 -23 -6 -53l-135 -766q-15 -92 -62 -129z" glyph-name="uni0189" horiz-adv-x="808" unicode="Ɖ"/><glyph d="M1028 1182q0 -45 -8 -86l-135 -766q-29 -166 -146 -260q-98 -74 -239 -74h-330l238 1345h-82q-16 0 -29.5 -12t-15.5 -29h-97q8 57 53.5 97.5t102.5 40.5h412q141 0 217 -82q59 -65 59 -174zM752 1430h-412q-51 0 -94 -35t-53 -86h79q4 16 20.5 28.5t33.5 12.5h90 l-238 -1346h322q141 0 235 74q115 90 142 252l135 766q8 41 8 84q0 102 -57 172q-74 78 -211 78zM838 1096q6 31 6 53q0 106 -123 106h-148l-190 -1077h147q76 0 113 31q45 35 59 121zM647 201q-43 -31 -117 -31h-155l190 1094h156q131 0 131 -115q0 -25 -6 -53l-135 -766 q-17 -90 -64 -129z" glyph-name="uni018A" horiz-adv-x="892" unicode="Ɗ"/><glyph d="M279 1255l30 183h574l-252 -1442h-574l31 182h391l84 465h-272l31 182h272l76 430h-391zM287 1264h391l-76 -447h-272l-31 -166h272l-84 -481h-391l-30 -166h557l251 1426h-557z" glyph-name="uni018E" horiz-adv-x="688" unicode="Ǝ"/><glyph d="M481 1253l-75 -426h272l-31 -182h-272l-115 -645q-14 -90 -76.5 -155.5t-185.5 -63.5l16 96h4q14 0 28.5 11.5t16.5 25.5l267 1522h573l-31 -183h-391zM895 1427h-557l-266 -1513q-2 -18 -17.5 -30.5t-31.5 -14.5l-17 -80q115 2 173.5 63.5t72.5 147.5l115 653h272 l31 166h-273l76 443h391z" glyph-name="uni0191" horiz-adv-x="681" unicode="Ƒ"/><glyph d="M939 1550q48 39 103 37l-14 -96h-4q-14 0 -27.5 -11.5t-17.5 -25.5l-82 -475h-182l22 135q6 31 6 53q0 106 -122 107q-76 0 -118 -38t-59 -122l-139 -795q-6 -31 -6 -53q0 -106 123 -106q76 0 118 39t58 120l53 306h-149l30 182h332l-84 -488q-31 -170 -145 -262 q-100 -80 -244 -80q-139 0 -215 82q-61 63 -61 174q0 45 8 86l139 795q29 166 146 262q104 80 243 80q141 0 215 -82q8 -4 8 -10h-8l17 90q8 57 56 96zM874 1364h-8l-4 6q-74 78 -211 78t-239 -80q-113 -88 -142 -254l-139 -795q-8 -41 -8 -86q0 -106 57 -170 q74 -78 211 -77q137 0 240 80q111 88 141 253l84 480h-315l-31 -166h149l-53 -314q-14 -86 -60 -126.5t-124 -40.5q-131 0 -131 114q0 23 6 53l139 795q14 86 59.5 127t125.5 41q131 0 131 -115q0 -25 -7 -53l-22 -127h166l82 467q2 18 17.5 30.5t31.5 14.5l14 80 q-51 -2 -92 -39t-51 -86z" glyph-name="uni0193" horiz-adv-x="788" unicode="Ɠ"/><glyph d="M489 786l-14 -98h-82l-123 -692h-182l123 692h-82l14 98h82l115 652h182l-114 -652h81zM481 778h-82l115 652h-166l-115 -652h-81l-15 -82h82l-123 -692h166l123 692h82z" glyph-name="uni0197" horiz-adv-x="358" unicode="Ɨ"/><glyph d="M1149 1407q31 -31 31 -80q0 -18 -2 -27h-99q2 4 2 15q0 12 -7 19t-21 7h-84l-379 -587l186 -758h-198l-132 534l-127 -198v2l-59 -338h-182l252 1442h182l-117 -676l432 676h240q51 0 82 -31zM831 1430l-452 -705l125 705h-166l-252 -1426h166l59 330v2l140 215l135 -547 h178l-182 750l383 596h88q18 0 28.5 -12.5t8.5 -28.5h79l2 18q0 45 -29.5 74t-74.5 29h-236z" glyph-name="uni0198" horiz-adv-x="903" unicode="Ƙ"/><glyph d="M1149 1407q31 -31 31 -80q0 -18 -2 -27h-99q2 4 2 15q0 12 -7 19t-21 7h-84l-379 -587l186 -758h-198l-132 534l-127 -198v2l-59 -338h-182l252 1442h182l-117 -676l432 676h240q51 0 82 -31zM831 1430l-452 -705l125 705h-166l-252 -1426h166l59 330v2l140 215l135 -547 h178l-182 750l383 596h88q18 0 28.5 -12.5t8.5 -28.5h79l2 18q0 45 -29.5 74t-74.5 29h-236z" glyph-name="uni0199" horiz-adv-x="903" unicode="ƙ"/><glyph d="M1006 1438l-252 -1442h-105l-243 850l-148 -846q-14 -90 -76.5 -155.5t-185.5 -63.5l16 96h4q14 0 28.5 11.5t16.5 25.5l267 1524h104l244 -852l147 852h183zM676 549l-252 881h-88l-266 -1516q-2 -18 -17.5 -30.5t-32.5 -14.5l-16 -80q115 2 173.5 63.5t72.5 147.5 l156 883l251 -879h88l252 1426h-166z" glyph-name="uni019D" horiz-adv-x="829" unicode="Ɲ"/><glyph d="M1116 1497q-8 -57 -55 -97t-105 -40h-88l4 6q53 -70 54 -170q0 -43 -8 -82l-140 -795q-31 -170 -145 -262q-100 -80 -244 -80q-139 0 -215 82q-59 61 -59 174q0 45 8 86l139 795q29 166 144 262q104 80 243 80h324q16 0 30.5 12.5t16.5 28.5h96zM1007.5 1460.5 q-16.5 -12.5 -34.5 -12.5h-324q-137 0 -239 -80q-113 -94 -140 -254l-139 -795q-8 -41 -8 -88q0 -106 55 -168q74 -78 211 -77q137 0 240 80q111 88 141 253l139 795q8 57 9 80q0 98 -54 168l4 6h88q51 0 95.5 36t56.5 85h-80q-4 -16 -20.5 -28.5zM735 1114q6 31 6 53 q0 106 -123 107q-76 0 -116.5 -38t-57.5 -122l-139 -795q-6 -31 -6 -55q0 -55 29.5 -79.5t91.5 -24.5q76 0 118 38t58 121zM545 192.5q-45 -40.5 -125 -40.5q-129 0 -129 112q0 25 6 55l139 795q14 88 59.5 128t122.5 40q131 0 132 -115q0 -23 -7 -53l-139 -795 q-14 -86 -59 -126.5z" glyph-name="Ohorn" horiz-adv-x="806" unicode="Ơ"/><glyph d="M1116 1497q-8 -57 -55 -97t-105 -40h-88l4 6q53 -70 54 -170q0 -43 -8 -82l-140 -795q-31 -170 -145 -262q-100 -80 -244 -80q-139 0 -215 82q-59 61 -59 174q0 45 8 86l139 795q29 166 144 262q104 80 243 80h324q16 0 30.5 12.5t16.5 28.5h96zM1007.5 1460.5 q-16.5 -12.5 -34.5 -12.5h-324q-137 0 -239 -80q-113 -94 -140 -254l-139 -795q-8 -41 -8 -88q0 -106 55 -168q74 -78 211 -77q137 0 240 80q111 88 141 253l139 795q8 57 9 80q0 98 -54 168l4 6h88q51 0 95.5 36t56.5 85h-80q-4 -16 -20.5 -28.5zM735 1114q6 31 6 53 q0 106 -123 107q-76 0 -116.5 -38t-57.5 -122l-139 -795q-6 -31 -6 -55q0 -55 29.5 -79.5t91.5 -24.5q76 0 118 38t58 121zM545 192.5q-45 -40.5 -125 -40.5q-129 0 -129 112q0 25 6 55l139 795q14 88 59.5 128t122.5 40q131 0 132 -115q0 -23 -7 -53l-139 -795 q-14 -86 -59 -126.5z" glyph-name="ohorn" horiz-adv-x="806" unicode="ơ"/><glyph d="M1026 1182q0 -47 -8 -86l-29 -162q-29 -166 -143 -260q-98 -80 -244 -80h-145l-105 -598h-182l238 1345h-82q-16 0 -29.5 -12t-15.5 -29h-97q8 57 53.5 97.5t102.5 40.5h410q139 0 219 -82q57 -65 57 -174zM750 1430h-410q-51 0 -94 -35t-53 -86h79q4 16 20.5 28.5 t33.5 12.5h90l-238 -1346h166l105 598h153q141 0 240 80q111 86 139 252l29 162q8 41 8 84q0 104 -55 172q-78 78 -213 78zM836 1096q6 31 6 53q0 106 -123 106h-146l-86 -479h146q76 0 118 39t56 119zM757 808q-44 -40 -124 -40h-154l86 496h154q131 0 131 -115 q0 -25 -6 -53l-29 -162q-14 -86 -58 -126z" glyph-name="uni01A4" horiz-adv-x="868" unicode="Ƥ"/><glyph d="M1026 1182q0 -47 -8 -86l-29 -162q-29 -166 -143 -260q-98 -80 -244 -80h-145l-105 -598h-182l238 1345h-82q-16 0 -29.5 -12t-15.5 -29h-97q8 57 53.5 97.5t102.5 40.5h410q139 0 219 -82q57 -65 57 -174zM750 1430h-410q-51 0 -94 -35t-53 -86h79q4 16 20.5 28.5 t33.5 12.5h90l-238 -1346h166l105 598h153q141 0 240 80q111 86 139 252l29 162q8 41 8 84q0 104 -55 172q-78 78 -213 78zM836 1096q6 31 6 53q0 106 -123 106h-146l-86 -479h146q76 0 118 39t56 119zM757 808q-44 -40 -124 -40h-154l86 496h154q131 0 131 -115 q0 -25 -6 -53l-29 -162q-14 -86 -58 -126z" glyph-name="uni01A5" horiz-adv-x="868" unicode="ƥ"/><glyph d="M999 1436l-30 -183h-242l-221 -1257h-182l221 1257h-236q-16 0 -28.5 -12t-14.5 -29h-96q18 123 92 173.5t164 50.5h573zM270.5 1381q-69.5 -46 -92.5 -160h80q4 18 19.5 29.5t31.5 11.5h244l-221 -1258h166l221 1258h242l30 165h-565q-86 0 -155.5 -46z" glyph-name="uni01AC" horiz-adv-x="768" unicode="Ƭ"/><glyph d="M999 1436l-30 -183h-242l-221 -1257h-182l221 1257h-236q-16 0 -28.5 -12t-14.5 -29h-96q18 123 92 173.5t164 50.5h573zM270.5 1381q-69.5 -46 -92.5 -160h80q4 18 19.5 29.5t31.5 11.5h244l-221 -1258h166l221 1258h242l30 165h-565q-86 0 -155.5 -46z" glyph-name="uni01AD" horiz-adv-x="768" unicode="ƭ"/><glyph d="M666 1253l-236 -1339v-8q0 -14 9.5 -22.5t23.5 -6.5l-17 -96q-104 -2 -146 46t-42 120q0 20 4 53l221 1253h-239l30 183h664l-31 -183h-241zM930 1427h-647l-31 -165h240l-222 -1262q-4 -37 -4 -53q0 -156 172 -158l17 80q-16 2 -26.5 15.5t-6.5 29.5l235 1348h242z" glyph-name="uni01AE" horiz-adv-x="706" unicode="Ʈ"/><glyph d="M1206 1479q-8 -57 -53 -97.5t-102 -40.5h-82l-181 -1022q-31 -170 -147 -262q-49 -39 -111.5 -59.5t-130.5 -20.5q-141 0 -215 82q-61 66 -61 174q0 45 8 86l195 1119h182l-195 -1119q-6 -31 -6 -53q0 -106 123 -106q76 0 118 39t58 120l195 1119h264q16 0 29.5 12 t15.5 29h96zM1097.5 1442q-16.5 -12 -32.5 -12h-256l-195 -1111q-14 -86 -60 -126.5t-124 -40.5q-131 0 -131 114q0 23 6 53l195 1111h-166l-195 -1111q-8 -41 -8 -86q0 -106 57 -170q74 -78 211 -77q68 0 130.5 20.5t107.5 59.5q113 88 143 253l181 1031h90q51 0 94 34.5 t53 85.5h-80q-4 -16 -20.5 -28z" glyph-name="Uhorn" horiz-adv-x="901" unicode="Ư"/><glyph d="M1206 1479q-8 -57 -53 -97.5t-102 -40.5h-82l-181 -1022q-31 -170 -147 -262q-49 -39 -111.5 -59.5t-130.5 -20.5q-141 0 -215 82q-61 66 -61 174q0 45 8 86l195 1119h182l-195 -1119q-6 -31 -6 -53q0 -106 123 -106q76 0 118 39t58 120l195 1119h264q16 0 29.5 12 t15.5 29h96zM1097.5 1442q-16.5 -12 -32.5 -12h-256l-195 -1111q-14 -86 -60 -126.5t-124 -40.5q-131 0 -131 114q0 23 6 53l195 1111h-166l-195 -1111q-8 -41 -8 -86q0 -106 57 -170q74 -78 211 -77q68 0 130.5 20.5t107.5 59.5q113 88 143 253l181 1031h90q51 0 94 34.5 t53 85.5h-80q-4 -16 -20.5 -28z" glyph-name="uhorn" horiz-adv-x="901" unicode="ư"/><glyph d="M1157 1407q31 -31 31 -80q0 -18 -2 -27h-99q2 4 3 15q0 12 -7.5 19t-21.5 7h-84l-408 -845v2l-88 -502h-182l88 502v0l-123 940h191l80 -617l299 617h241q51 0 82 -31zM838 1430l-308 -637l-84 637h-174l123 -932v0l-88 -494h166l88 494v2l412 850h88q18 0 28.5 -12.5 t8.5 -28.5h80l2 18q0 45 -30 74t-75 29h-237z" glyph-name="uni01B3" horiz-adv-x="911" unicode="Ƴ"/><glyph d="M1157 1407q31 -31 31 -80q0 -18 -2 -27h-99q2 4 3 15q0 12 -7.5 19t-21.5 7h-84l-408 -845v2l-88 -502h-182l88 502v0l-123 940h191l80 -617l299 617h241q51 0 82 -31zM838 1430l-308 -637l-84 637h-174l123 -932v0l-88 -494h166l88 494v2l412 850h88q18 0 28.5 -12.5 t8.5 -28.5h80l2 18q0 45 -30 74t-75 29h-237z" glyph-name="uni01B4" horiz-adv-x="911" unicode="ƴ"/><glyph d="M618 -4l-2 297h-292l-111 -297h-186l557 1442h174l47 -1442h-187zM627 4h170l-47 1426h-162l-549 -1426h170l110 297h306zM391 475h223l-8 590zM379 467l235 643l9 -643h-244zM954 1724l-182 -219h-178l-107 219h113l100 -114l142 114h112zM938 1716h-92l-146 -119 l-104 119h-96l98 -203h170z" glyph-name="uni01CD" unicode="Ǎ"/><glyph d="M618 -4l-2 297h-292l-111 -297h-186l557 1442h174l47 -1442h-187zM627 4h170l-47 1426h-162l-549 -1426h170l110 297h306zM391 475h223l-8 590zM379 467l235 643l9 -643h-244zM954 1724l-182 -219h-178l-107 219h113l100 -114l142 114h112zM938 1716h-92l-146 -119 l-104 119h-96l98 -203h170z" glyph-name="uni01CE" unicode="ǎ"/><glyph d="M252 4l252 1426h-166l-252 -1426h166zM260 -4h-182l252 1442h182zM707 1724l-183 -219h-178l-106 219h112l101 -114l141 114h113zM690 1716h-92l-145 -119l-105 119h-96l98 -203h170z" glyph-name="uni01CF" horiz-adv-x="337" unicode="Ǐ"/><glyph d="M252 4l252 1426h-166l-252 -1426h166zM260 -4h-182l252 1442h182zM707 1724l-183 -219h-178l-106 219h112l101 -114l141 114h113zM690 1716h-92l-145 -119l-105 119h-96l98 -203h170z" glyph-name="uni01D0" horiz-adv-x="337" unicode="ǐ"/><glyph d="M629 66q111 88 141 253l139 795q8 61 9 84q0 104 -58 172q-74 78 -211 78t-239 -80q-113 -94 -140 -254l-139 -795q-8 -41 -8 -88q0 -106 55 -168q74 -78 211 -77q138 0 240 80zM174 59q-59 61 -59 174q0 45 8 86l139 795q29 166 144 262q104 80 243 80q141 0 217 -82 q59 -70 60 -178q0 -25 -8 -82l-140 -795q-31 -170 -145 -262q-100 -80 -244 -80q-139 0 -215 82zM750 1167q0 -23 -7 -53l-139 -795q-14 -86 -59 -126.5t-125 -40.5q-129 0 -129 112q0 25 6 55l139 795q14 88 59.5 128t122.5 40q132 0 132 -115zM502 1236q-41 -38 -58 -122 l-139 -795q-6 -31 -6 -55q0 -55 29.5 -79.5t91.5 -24.5q76 0 118 38t58 121l139 795q6 31 6 53q0 106 -123 107q-75 0 -116 -38zM930 1724l-182 -219h-179l-106 219h112l101 -114l141 114h113zM913 1716h-92l-145 -119l-105 119h-96l98 -203h170z" glyph-name="uni01D1" horiz-adv-x="786" unicode="Ǒ"/><glyph d="M629 66q111 88 141 253l139 795q8 61 9 84q0 104 -58 172q-74 78 -211 78t-239 -80q-113 -94 -140 -254l-139 -795q-8 -41 -8 -88q0 -106 55 -168q74 -78 211 -77q138 0 240 80zM174 59q-59 61 -59 174q0 45 8 86l139 795q29 166 144 262q104 80 243 80q141 0 217 -82 q59 -70 60 -178q0 -25 -8 -82l-140 -795q-31 -170 -145 -262q-100 -80 -244 -80q-139 0 -215 82zM750 1167q0 -23 -7 -53l-139 -795q-14 -86 -59 -126.5t-125 -40.5q-129 0 -129 112q0 25 6 55l139 795q14 88 59.5 128t122.5 40q132 0 132 -115zM502 1236q-41 -38 -58 -122 l-139 -795q-6 -31 -6 -55q0 -55 29.5 -79.5t91.5 -24.5q76 0 118 38t58 121l139 795q6 31 6 53q0 106 -123 107q-75 0 -116 -38zM930 1724l-182 -219h-179l-106 219h112l101 -114l141 114h113zM913 1716h-92l-145 -119l-105 119h-96l98 -203h170z" glyph-name="uni01D2" horiz-adv-x="786" unicode="ǒ"/><glyph d="M529.5 6.5q62.5 20.5 107.5 59.5q113 88 143 253l195 1111h-166l-195 -1111q-14 -86 -60 -126.5t-124 -40.5q-131 0 -131 114q0 23 6 53l195 1111h-166l-195 -1111q-8 -41 -8 -86q0 -106 57 -170q74 -78 211 -77q68 0 130.5 20.5zM184 59q-61 66 -61 174q0 45 8 86 l195 1119h182l-195 -1119q-6 -31 -6 -53q0 -106 123 -106q76 0 118 39t58 120l195 1119h182l-195 -1119q-31 -170 -147 -262q-49 -39 -111.5 -59.5t-130.5 -20.5q-141 0 -215 82zM940 1724l-182 -219h-178l-107 219h113l100 -114l141 114h113zM924 1716h-93l-145 -119 l-104 119h-97l99 -203h170z" glyph-name="uni01D3" horiz-adv-x="804" unicode="Ǔ"/><glyph d="M529.5 6.5q62.5 20.5 107.5 59.5q113 88 143 253l195 1111h-166l-195 -1111q-14 -86 -60 -126.5t-124 -40.5q-131 0 -131 114q0 23 6 53l195 1111h-166l-195 -1111q-8 -41 -8 -86q0 -106 57 -170q74 -78 211 -77q68 0 130.5 20.5zM184 59q-61 66 -61 174q0 45 8 86 l195 1119h182l-195 -1119q-6 -31 -6 -53q0 -106 123 -106q76 0 118 39t58 120l195 1119h182l-195 -1119q-31 -170 -147 -262q-49 -39 -111.5 -59.5t-130.5 -20.5q-141 0 -215 82zM940 1724l-182 -219h-178l-107 219h113l100 -114l141 114h113zM924 1716h-93l-145 -119 l-104 119h-97l99 -203h170z" glyph-name="uni01D4" horiz-adv-x="804" unicode="ǔ"/><glyph d="M637 66q113 88 143 253l195 1111h-166l-195 -1111q-14 -86 -60 -126.5t-126 -40.5q-129 0 -129 112q0 25 6 55l195 1111h-166l-195 -1111q-8 -41 -8 -86q0 -106 57 -170q74 -78 209 -77q142 0 240 80zM276.5 -1.5q-55.5 21.5 -92.5 60.5q-61 66 -61 174q0 45 8 86 l195 1119h182l-195 -1119q-6 -31 -6 -53q0 -106 121 -106q76 0 119 39t59 120l195 1119h182l-195 -1119q-31 -170 -147 -262q-49 -39 -112.5 -59.5t-131.5 -20.5q-65 0 -120.5 21.5zM743 1583q0 -29 20.5 -49.5t53.5 -20.5q37 0 66.5 26t38.5 63q6 37 -14.5 62.5t-57.5 25.5 t-67.5 -26t-37.5 -62q-2 -7 -2 -19zM776 1669q33 29 74 29q39 0 62.5 -28t17.5 -68q-8 -41 -41 -69t-72 -28q-35 0 -58.5 22.5t-23.5 55.5q0 12 2 19q6 38 39 67zM449 1583q0 -29 20 -49.5t53 -20.5q37 0 66.5 26t38.5 63q6 37 -14.5 62.5t-57.5 25.5t-67.5 -26t-36.5 -62 q-2 -7 -2 -19zM481.5 1669q32.5 29 73.5 29q39 0 62.5 -28t17.5 -68q-8 -41 -41 -69t-72 -28q-35 0 -58.5 22.5t-23.5 55.5q0 12 2 19q7 38 39.5 67zM1024 1776l14 84h-614l-14 -84h614zM1032 1767h-631l15 101h631z" glyph-name="uni01D5" horiz-adv-x="804" unicode="Ǖ"/><glyph d="M637 66q113 88 143 253l195 1111h-166l-195 -1111q-14 -86 -60 -126.5t-126 -40.5q-129 0 -129 112q0 25 6 55l195 1111h-166l-195 -1111q-8 -41 -8 -86q0 -106 57 -170q74 -78 209 -77q142 0 240 80zM276.5 -1.5q-55.5 21.5 -92.5 60.5q-61 66 -61 174q0 45 8 86 l195 1119h182l-195 -1119q-6 -31 -6 -53q0 -106 121 -106q76 0 119 39t59 120l195 1119h182l-195 -1119q-31 -170 -147 -262q-49 -39 -112.5 -59.5t-131.5 -20.5q-65 0 -120.5 21.5zM743 1583q0 -29 20.5 -49.5t53.5 -20.5q37 0 66.5 26t38.5 63q6 37 -14.5 62.5t-57.5 25.5 t-67.5 -26t-37.5 -62q-2 -7 -2 -19zM776 1669q33 29 74 29q39 0 62.5 -28t17.5 -68q-8 -41 -41 -69t-72 -28q-35 0 -58.5 22.5t-23.5 55.5q0 12 2 19q6 38 39 67zM449 1583q0 -29 20 -49.5t53 -20.5q37 0 66.5 26t38.5 63q6 37 -14.5 62.5t-57.5 25.5t-67.5 -26t-36.5 -62 q-2 -7 -2 -19zM481.5 1669q32.5 29 73.5 29q39 0 62.5 -28t17.5 -68q-8 -41 -41 -69t-72 -28q-35 0 -58.5 22.5t-23.5 55.5q0 12 2 19q7 38 39.5 67zM1024 1776l14 84h-614l-14 -84h614zM1032 1767h-631l15 101h631z" glyph-name="uni01D6" horiz-adv-x="804" unicode="ǖ"/><glyph d="M529.5 6.5q62.5 20.5 107.5 59.5q113 88 143 253l195 1111h-166l-195 -1111q-14 -86 -60 -126.5t-124 -40.5q-131 0 -131 114q0 23 6 53l195 1111h-166l-195 -1111q-8 -41 -8 -86q0 -106 57 -170q74 -78 211 -77q68 0 130.5 20.5zM184 59q-61 66 -61 174q0 45 8 86 l195 1119h182l-195 -1119q-6 -31 -6 -53q0 -106 123 -106q76 0 118 39t58 120l195 1119h182l-195 -1119q-31 -170 -147 -262q-49 -39 -111.5 -59.5t-130.5 -20.5q-141 0 -215 82zM610.5 1664q-20.5 26 -57.5 26t-67.5 -26t-36.5 -62q-2 -6 -3 -19q0 -29 20.5 -49.5 t53.5 -20.5q37 0 66.5 26t38.5 63q6 36 -14.5 62zM592 1533q-33 -28 -72 -28q-35 0 -58.5 22.5t-23.5 55.5q0 12 2 19q6 39 39 67.5t74 28.5q39 0 62.5 -28t17.5 -68q-8 -41 -41 -69zM905.5 1664q-20.5 26 -57.5 26t-67.5 -26t-37.5 -62q-2 -6 -2 -19q0 -29 20.5 -49.5 t53.5 -20.5q37 0 66.5 26t38.5 63q6 36 -14.5 62zM887 1533q-33 -28 -72 -28q-35 0 -58.5 22.5t-23.5 55.5q0 12 2 19q6 39 39 67.5t74 28.5q39 0 62.5 -28t17.5 -68q-8 -41 -41 -69zM842 1980l-170 -204h94l238 204h-162zM838 1989h186l-254 -222h-115z" glyph-name="uni01D7" horiz-adv-x="804" unicode="Ǘ"/><glyph d="M529.5 6.5q62.5 20.5 107.5 59.5q113 88 143 253l195 1111h-166l-195 -1111q-14 -86 -60 -126.5t-124 -40.5q-131 0 -131 114q0 23 6 53l195 1111h-166l-195 -1111q-8 -41 -8 -86q0 -106 57 -170q74 -78 211 -77q68 0 130.5 20.5zM184 59q-61 66 -61 174q0 45 8 86 l195 1119h182l-195 -1119q-6 -31 -6 -53q0 -106 123 -106q76 0 118 39t58 120l195 1119h182l-195 -1119q-31 -170 -147 -262q-49 -39 -111.5 -59.5t-130.5 -20.5q-141 0 -215 82zM610.5 1664q-20.5 26 -57.5 26t-67.5 -26t-36.5 -62q-2 -6 -3 -19q0 -29 20.5 -49.5 t53.5 -20.5q37 0 66.5 26t38.5 63q6 36 -14.5 62zM592 1533q-33 -28 -72 -28q-35 0 -58.5 22.5t-23.5 55.5q0 12 2 19q6 39 39 67.5t74 28.5q39 0 62.5 -28t17.5 -68q-8 -41 -41 -69zM905.5 1664q-20.5 26 -57.5 26t-67.5 -26t-37.5 -62q-2 -6 -2 -19q0 -29 20.5 -49.5 t53.5 -20.5q37 0 66.5 26t38.5 63q6 36 -14.5 62zM887 1533q-33 -28 -72 -28q-35 0 -58.5 22.5t-23.5 55.5q0 12 2 19q6 39 39 67.5t74 28.5q39 0 62.5 -28t17.5 -68q-8 -41 -41 -69zM842 1980l-170 -204h94l238 204h-162zM838 1989h186l-254 -222h-115z" glyph-name="uni01D8" horiz-adv-x="804" unicode="ǘ"/><glyph d="M529.5 6.5q62.5 20.5 107.5 59.5q113 88 143 253l195 1111h-166l-195 -1111q-14 -86 -60 -126.5t-124 -40.5q-131 0 -131 114q0 23 6 53l195 1111h-166l-195 -1111q-8 -41 -8 -86q0 -106 57 -170q74 -78 211 -77q68 0 130.5 20.5zM184 59q-61 66 -61 174q0 45 8 86 l195 1119h182l-195 -1119q-6 -31 -6 -53q0 -106 123 -106q76 0 118 39t58 120l195 1119h182l-195 -1119q-31 -170 -147 -262q-49 -39 -111.5 -59.5t-130.5 -20.5q-141 0 -215 82zM610.5 1664q-20.5 26 -57.5 26t-67.5 -26t-36.5 -62q-2 -6 -3 -19q0 -29 20.5 -49.5 t53.5 -20.5q37 0 66.5 26t38.5 63q6 36 -14.5 62zM592 1533q-33 -28 -72 -28q-35 0 -58.5 22.5t-23.5 55.5q0 12 2 19q6 39 39 67.5t74 28.5q39 0 62.5 -28t17.5 -68q-8 -41 -41 -69zM905.5 1664q-20.5 26 -57.5 26t-67.5 -26t-37.5 -62q-2 -6 -2 -19q0 -29 20.5 -49.5 t53.5 -20.5q37 0 66.5 26t38.5 63q6 36 -14.5 62zM887 1533q-33 -28 -72 -28q-35 0 -58.5 22.5t-23.5 55.5q0 12 2 19q6 39 39 67.5t74 28.5q39 0 62.5 -28t17.5 -68q-8 -41 -41 -69zM987 1987l-182 -220h-178l-107 220h113l100 -115l141 115h113zM971 1978h-92l-146 -118 l-104 118h-97l99 -202h170z" glyph-name="uni01D9" horiz-adv-x="804" unicode="Ǚ"/><glyph d="M529.5 6.5q62.5 20.5 107.5 59.5q113 88 143 253l195 1111h-166l-195 -1111q-14 -86 -60 -126.5t-124 -40.5q-131 0 -131 114q0 23 6 53l195 1111h-166l-195 -1111q-8 -41 -8 -86q0 -106 57 -170q74 -78 211 -77q68 0 130.5 20.5zM184 59q-61 66 -61 174q0 45 8 86 l195 1119h182l-195 -1119q-6 -31 -6 -53q0 -106 123 -106q76 0 118 39t58 120l195 1119h182l-195 -1119q-31 -170 -147 -262q-49 -39 -111.5 -59.5t-130.5 -20.5q-141 0 -215 82zM610.5 1664q-20.5 26 -57.5 26t-67.5 -26t-36.5 -62q-2 -6 -3 -19q0 -29 20.5 -49.5 t53.5 -20.5q37 0 66.5 26t38.5 63q6 36 -14.5 62zM592 1533q-33 -28 -72 -28q-35 0 -58.5 22.5t-23.5 55.5q0 12 2 19q6 39 39 67.5t74 28.5q39 0 62.5 -28t17.5 -68q-8 -41 -41 -69zM905.5 1664q-20.5 26 -57.5 26t-67.5 -26t-37.5 -62q-2 -6 -2 -19q0 -29 20.5 -49.5 t53.5 -20.5q37 0 66.5 26t38.5 63q6 36 -14.5 62zM887 1533q-33 -28 -72 -28q-35 0 -58.5 22.5t-23.5 55.5q0 12 2 19q6 39 39 67.5t74 28.5q39 0 62.5 -28t17.5 -68q-8 -41 -41 -69zM987 1987l-182 -220h-178l-107 220h113l100 -115l141 115h113zM971 1978h-92l-146 -118 l-104 118h-97l99 -202h170z" glyph-name="uni01DA" horiz-adv-x="804" unicode="ǚ"/><glyph d="M637 66q113 88 143 253l195 1111h-166l-195 -1111q-14 -86 -60 -126.5t-126 -40.5q-129 0 -129 112q0 25 6 55l195 1111h-166l-195 -1111q-8 -41 -8 -86q0 -106 57 -170q74 -78 209 -77q142 0 240 80zM276.5 -1.5q-55.5 21.5 -92.5 60.5q-61 66 -61 174q0 45 8 86 l195 1119h182l-195 -1119q-6 -31 -6 -53q0 -106 121 -106q76 0 119 39t59 120l195 1119h182l-195 -1119q-31 -170 -147 -262q-49 -39 -112.5 -59.5t-131.5 -20.5q-65 0 -120.5 21.5zM743 1583q0 -29 20.5 -49.5t53.5 -20.5q37 0 66.5 26t38.5 63q6 37 -14.5 62.5t-57.5 25.5 t-67.5 -26t-37.5 -62q-2 -7 -2 -19zM776 1669q33 29 74 29q39 0 62.5 -28t17.5 -68q-8 -41 -41 -69t-72 -28q-35 0 -58.5 22.5t-23.5 55.5q0 12 2 19q6 38 39 67zM449 1583q0 -29 20 -49.5t53 -20.5q37 0 66.5 26t38.5 63q6 37 -14.5 62.5t-57.5 25.5t-67.5 -26t-36.5 -62 q-2 -7 -2 -19zM481.5 1669q32.5 29 73.5 29q39 0 62.5 -28t17.5 -68q-8 -41 -41 -69t-72 -28q-35 0 -58.5 22.5t-23.5 55.5q0 12 2 19q7 38 39.5 67zM664 1980h-164l166 -204h96zM668 1989l106 -222h-112l-179 222h185z" glyph-name="uni01DB" horiz-adv-x="804" unicode="Ǜ"/><glyph d="M637 66q113 88 143 253l195 1111h-166l-195 -1111q-14 -86 -60 -126.5t-126 -40.5q-129 0 -129 112q0 25 6 55l195 1111h-166l-195 -1111q-8 -41 -8 -86q0 -106 57 -170q74 -78 209 -77q142 0 240 80zM276.5 -1.5q-55.5 21.5 -92.5 60.5q-61 66 -61 174q0 45 8 86 l195 1119h182l-195 -1119q-6 -31 -6 -53q0 -106 121 -106q76 0 119 39t59 120l195 1119h182l-195 -1119q-31 -170 -147 -262q-49 -39 -112.5 -59.5t-131.5 -20.5q-65 0 -120.5 21.5zM743 1583q0 -29 20.5 -49.5t53.5 -20.5q37 0 66.5 26t38.5 63q6 37 -14.5 62.5t-57.5 25.5 t-67.5 -26t-37.5 -62q-2 -7 -2 -19zM776 1669q33 29 74 29q39 0 62.5 -28t17.5 -68q-8 -41 -41 -69t-72 -28q-35 0 -58.5 22.5t-23.5 55.5q0 12 2 19q6 38 39 67zM449 1583q0 -29 20 -49.5t53 -20.5q37 0 66.5 26t38.5 63q6 37 -14.5 62.5t-57.5 25.5t-67.5 -26t-36.5 -62 q-2 -7 -2 -19zM481.5 1669q32.5 29 73.5 29q39 0 62.5 -28t17.5 -68q-8 -41 -41 -69t-72 -28q-35 0 -58.5 22.5t-23.5 55.5q0 12 2 19q7 38 39.5 67zM664 1980h-164l166 -204h96zM668 1989l106 -222h-112l-179 222h185z" glyph-name="uni01DC" horiz-adv-x="804" unicode="ǜ"/><glyph d="M281 1255l30 183h574l-252 -1442h-574l31 182h391l84 465h-272l31 182h272l76 430h-391zM289 1264h391l-76 -447h-272l-31 -166h272l-84 -481h-391l-30 -166h557l252 1426h-558z" glyph-name="uni01DD" horiz-adv-x="710" unicode="ǝ"/><glyph d="M618 -4l-2 297h-292l-111 -297h-186l557 1442h174l47 -1442h-187zM627 4h170l-47 1426h-162l-549 -1426h170l110 297h306zM391 475h223l-8 590zM379 467l235 643l9 -643h-244zM626.5 1664q-20.5 26 -57.5 26t-67.5 -26t-36.5 -62q-2 -6 -2 -19q0 -29 20.5 -49.5 t53.5 -20.5q37 0 66.5 26t37.5 63q6 36 -14.5 62zM608 1533q-33 -28 -71 -28q-35 0 -58.5 22.5t-23.5 55.5q0 12 2 19q6 39 38.5 67.5t73.5 28.5q39 0 62.5 -28t17.5 -68q-8 -41 -41 -69zM921.5 1664q-20.5 26 -57.5 26t-67.5 -26t-36.5 -62q-2 -6 -2 -19q0 -29 20.5 -49.5 t52.5 -20.5q37 0 67 26t38 63q6 36 -14.5 62zM903 1533q-33 -28 -72 -28q-35 0 -58 22.5t-23 55.5q0 12 2 19q6 39 38.5 67.5t73.5 28.5q39 0 62.5 -28t17.5 -68q-8 -41 -41 -69zM1038 1776l15 84h-615l-14 -84h614zM1047 1767h-631l14 101h631z" glyph-name="uni01DE" unicode="Ǟ"/><glyph d="M618 -4l-2 297h-292l-111 -297h-186l557 1442h174l47 -1442h-187zM627 4h170l-47 1426h-162l-549 -1426h170l110 297h306zM391 475h223l-8 590zM379 467l235 643l9 -643h-244zM626.5 1664q-20.5 26 -57.5 26t-67.5 -26t-36.5 -62q-2 -6 -2 -19q0 -29 20.5 -49.5 t53.5 -20.5q37 0 66.5 26t37.5 63q6 36 -14.5 62zM608 1533q-33 -28 -71 -28q-35 0 -58.5 22.5t-23.5 55.5q0 12 2 19q6 39 38.5 67.5t73.5 28.5q39 0 62.5 -28t17.5 -68q-8 -41 -41 -69zM921.5 1664q-20.5 26 -57.5 26t-67.5 -26t-36.5 -62q-2 -6 -2 -19q0 -29 20.5 -49.5 t52.5 -20.5q37 0 67 26t38 63q6 36 -14.5 62zM903 1533q-33 -28 -72 -28q-35 0 -58 22.5t-23 55.5q0 12 2 19q6 39 38.5 67.5t73.5 28.5q39 0 62.5 -28t17.5 -68q-8 -41 -41 -69zM1038 1776l15 84h-615l-14 -84h614zM1047 1767h-631l14 101h631z" glyph-name="uni01DF" unicode="ǟ"/><glyph d="M631 66q111 88 141 253l84 480h-315l-31 -166h149l-53 -314q-14 -86 -60 -126.5t-124 -40.5q-131 0 -131 114q0 23 6 53l139 795q14 86 59.5 127t125.5 41q131 0 131 -115q0 -25 -7 -53l-22 -127h166l22 127q8 61 9 84q0 104 -58 172q-74 78 -211 78t-239 -80 q-113 -88 -142 -254l-139 -795q-8 -41 -8 -86q0 -106 57 -170q74 -78 211 -77q138 0 240 80zM176 59q-61 63 -61 174q0 45 8 86l139 795q29 166 146 262q104 80 243 80q141 0 217 -82q59 -70 60 -178q0 -25 -8 -82l-23 -135h-182l22 135q6 31 6 53q0 106 -122 107 q-76 0 -118 -38t-59 -122l-139 -795q-6 -31 -6 -53q0 -106 123 -106q76 0 118 39t58 120l53 306h-149l30 182h332l-84 -488q-31 -170 -145 -262q-100 -80 -244 -80q-139 0 -215 82zM930 1724l-182 -219h-179l-106 219h112l101 -114l141 114h113zM913 1716h-92l-145 -119 l-105 119h-96l98 -203h170z" glyph-name="Gcaron" horiz-adv-x="1228" unicode="Ǧ"/><glyph d="M631 66q111 88 141 253l84 480h-315l-31 -166h149l-53 -314q-14 -86 -60 -126.5t-124 -40.5q-131 0 -131 114q0 23 6 53l139 795q14 86 59.5 127t125.5 41q131 0 131 -115q0 -25 -7 -53l-22 -127h166l22 127q8 61 9 84q0 104 -58 172q-74 78 -211 78t-239 -80 q-113 -88 -142 -254l-139 -795q-8 -41 -8 -86q0 -106 57 -170q74 -78 211 -77q138 0 240 80zM176 59q-61 63 -61 174q0 45 8 86l139 795q29 166 146 262q104 80 243 80q141 0 217 -82q59 -70 60 -178q0 -25 -8 -82l-23 -135h-182l22 135q6 31 6 53q0 106 -122 107 q-76 0 -118 -38t-59 -122l-139 -795q-6 -31 -6 -53q0 -106 123 -106q76 0 118 39t58 120l53 306h-149l30 182h332l-84 -488q-31 -170 -145 -262q-100 -80 -244 -80q-139 0 -215 82zM930 1724l-182 -219h-179l-106 219h112l101 -114l141 114h113zM913 1716h-92l-145 -119 l-105 119h-96l98 -203h170z" glyph-name="gcaron" horiz-adv-x="1228" unicode="ǧ"/><glyph d="M915 1272q12 -37 13 -80q0 -23 -8 -80l-142 -795q-29 -168 -145 -260q-47 -39 -109.5 -59.5t-132.5 -20.5q-145 0 -215 82v-2q-4 2 -8 11h8l-70 -113l-83 41l102 162q-12 37 -12 80q0 23 8 79l141 795q29 168 146 260q98 80 243 80q143 0 213 -82v2q4 -2 8 -10h-8l70 113 l84 -41zM938 1462l-66 -104h-8q-2 6 -4 6v2q-72 78 -209 78q-143 0 -239 -80q-113 -88 -142 -252l-141 -795q-6 -43 -6 -77q0 -45 10 -82l-98 -158l67 -33l66 105h8q2 -6 4 -6v-3q72 -78 211 -77q141 0 238 80q113 88 141 251l141 795q6 43 7 78q0 45 -11 82l99 158z M338 506l403 655q2 57 -27.5 83t-92.5 26q-78 0 -120 -38t-57 -120zM496 1238q45 40 125 40q68 0 99.5 -29.5t29.5 -91.5l-428 -692l114 647q15 86 60 126zM702 924l-403 -656q-2 -57 27.5 -82.5t95.5 -25.5q76 0 118 39t56 118zM546 191.5q-44 -39.5 -124 -39.5 q-70 0 -101.5 29.5t-29.5 90.5l428 693l-115 -648q-14 -86 -58 -125.5z" glyph-name="Oslashacute" horiz-adv-x="788" unicode="Ǿ"/><glyph d="M915 1272q12 -37 13 -80q0 -23 -8 -80l-142 -795q-29 -168 -145 -260q-47 -39 -109.5 -59.5t-132.5 -20.5q-145 0 -215 82v-2q-4 2 -8 11h8l-70 -113l-83 41l102 162q-12 37 -12 80q0 23 8 79l141 795q29 168 146 260q98 80 243 80q143 0 213 -82v2q4 -2 8 -10h-8l70 113 l84 -41zM938 1462l-66 -104h-8q-2 6 -4 6v2q-72 78 -209 78q-143 0 -239 -80q-113 -88 -142 -252l-141 -795q-6 -43 -6 -77q0 -45 10 -82l-98 -158l67 -33l66 105h8q2 -6 4 -6v-3q72 -78 211 -77q141 0 238 80q113 88 141 251l141 795q6 43 7 78q0 45 -11 82l99 158z M338 506l403 655q2 57 -27.5 83t-92.5 26q-78 0 -120 -38t-57 -120zM496 1238q45 40 125 40q68 0 99.5 -29.5t29.5 -91.5l-428 -692l114 647q15 86 60 126zM702 924l-403 -656q-2 -57 27.5 -82.5t95.5 -25.5q76 0 118 39t56 118zM546 191.5q-44 -39.5 -124 -39.5 q-70 0 -101.5 29.5t-29.5 90.5l428 693l-115 -648q-14 -86 -58 -125.5z" glyph-name="oslashacute" horiz-adv-x="788" unicode="ǿ"/><glyph d="M614 66q113 88 144 253l16 95q8 61 8 86q0 109 -59 186q-27 41 -63.5 69.5t-96.5 63.5q-53 35 -78.5 54.5t-46.5 46.5q-29 45 -28 98q0 27 6 57l6 39q14 88 59 128t123 40q133 0 133 -115q0 -25 -6 -53l-22 -127h165l23 127q6 43 6 80q0 106 -59 176q-33 37 -87.5 57.5 t-121.5 20.5q-135 0 -238 -80q-113 -88 -141 -254l-6 -39q-8 -41 -8 -88q0 -106 55 -180q27 -39 61.5 -65.5t98.5 -65.5q47 -29 76.5 -51.5t48.5 -49.5q31 -43 30 -108q0 -33 -4 -53l-16 -95q-14 -86 -60.5 -126.5t-125.5 -40.5q-129 0 -130 112q0 25 7 55l32 191h-165 l-33 -191q-8 -41 -8 -86q0 -106 57 -170q74 -78 209 -77q141 0 239 80zM254 -1.5q-55 21.5 -92 60.5q-61 66 -62 174q0 45 9 86l32 199h183l-33 -199q-6 -31 -6 -53q0 -106 121 -106q76 0 118.5 39t59.5 120l16 95q4 20 4 53q0 61 -31 104q-16 25 -40.5 43.5t-79.5 53.5 t-94.5 64.5t-69.5 70.5q-55 76 -56 182q0 47 9 90l6 39q29 166 145 262q104 80 242 80q70 0 126 -21.5t89 -60.5q63 -66 63 -178q0 -25 -8 -82l-22 -135h-183l23 135q6 29 6 51q0 55 -30.5 82t-94.5 27q-76 0 -117 -39t-57 -121l-6 -39q-6 -31 -6 -55q0 -55 28 -96 q18 -25 43 -43.5t78 -53.5q115 -68 164 -137q59 -82 60 -192q0 -27 -9 -84l-16 -95q-31 -170 -148 -262q-49 -39 -112.5 -59.5t-130.5 -20.5q-66 0 -121 21.5zM438.5 -203.5q-10.5 -23.5 -32.5 -58.5q-49 -61 -82 -100h-70l-4 6q8 12 15 25.5t16 25.5q10 25 10 33 q0 10 -8 16q-31 27 -31 66q0 10 2 16q6 39 39 67.5t74 28.5q35 0 58.5 -23.5t23.5 -58.5q0 -20 -10.5 -43.5zM419.5 -106.5q20.5 -20.5 20.5 -51.5q0 -29 -43 -100q-16 -25 -78 -96h-65l4 -6q8 12 15.5 25t15.5 26q8 20 8 33q0 16 -10 26q-27 27 -27 60q0 10 2 16 q6 37 37 62.5t68 25.5q32 0 52.5 -20.5z" glyph-name="Scommaaccent" horiz-adv-x="759" unicode="Ș"/><glyph d="M614 66q113 88 144 253l16 95q8 61 8 86q0 109 -59 186q-27 41 -63.5 69.5t-96.5 63.5q-53 35 -78.5 54.5t-46.5 46.5q-29 45 -28 98q0 27 6 57l6 39q14 88 59 128t123 40q133 0 133 -115q0 -25 -6 -53l-22 -127h165l23 127q6 43 6 80q0 106 -59 176q-33 37 -87.5 57.5 t-121.5 20.5q-135 0 -238 -80q-113 -88 -141 -254l-6 -39q-8 -41 -8 -88q0 -106 55 -180q27 -39 61.5 -65.5t98.5 -65.5q47 -29 76.5 -51.5t48.5 -49.5q31 -43 30 -108q0 -33 -4 -53l-16 -95q-14 -86 -60.5 -126.5t-125.5 -40.5q-129 0 -130 112q0 25 7 55l32 191h-165 l-33 -191q-8 -41 -8 -86q0 -106 57 -170q74 -78 209 -77q141 0 239 80zM254 -1.5q-55 21.5 -92 60.5q-61 66 -62 174q0 45 9 86l32 199h183l-33 -199q-6 -31 -6 -53q0 -106 121 -106q76 0 118.5 39t59.5 120l16 95q4 20 4 53q0 61 -31 104q-16 25 -40.5 43.5t-79.5 53.5 t-94.5 64.5t-69.5 70.5q-55 76 -56 182q0 47 9 90l6 39q29 166 145 262q104 80 242 80q70 0 126 -21.5t89 -60.5q63 -66 63 -178q0 -25 -8 -82l-22 -135h-183l23 135q6 29 6 51q0 55 -30.5 82t-94.5 27q-76 0 -117 -39t-57 -121l-6 -39q-6 -31 -6 -55q0 -55 28 -96 q18 -25 43 -43.5t78 -53.5q115 -68 164 -137q59 -82 60 -192q0 -27 -9 -84l-16 -95q-31 -170 -148 -262q-49 -39 -112.5 -59.5t-130.5 -20.5q-66 0 -121 21.5zM438.5 -203.5q-10.5 -23.5 -32.5 -58.5q-49 -61 -82 -100h-70l-4 6q8 12 15 25.5t16 25.5q10 25 10 33 q0 10 -8 16q-31 27 -31 66q0 10 2 16q6 39 39 67.5t74 28.5q35 0 58.5 -23.5t23.5 -58.5q0 -20 -10.5 -43.5zM419.5 -106.5q20.5 -20.5 20.5 -51.5q0 -29 -43 -100q-16 -25 -78 -96h-65l4 -6q8 12 15.5 25t15.5 26q8 20 8 33q0 16 -10 26q-27 27 -27 60q0 10 2 16 q6 37 37 62.5t68 25.5q32 0 52.5 -20.5z" glyph-name="scommaaccent" horiz-adv-x="759" unicode="ș"/><glyph d="M938 1436l-31 -183h-241l-222 -1257h-182l221 1257h-239l30 183h664zM930 1427h-647l-31 -165h240l-222 -1258h166l221 1258h242zM409.5 -203.5q-10.5 -23.5 -32.5 -58.5q-49 -61 -82 -100h-70l-4 6q8 12 15.5 25.5t15.5 25.5q10 25 10 33q0 10 -8 16q-31 27 -31 66 q0 10 2 16q6 39 39 67.5t74 28.5q35 0 58.5 -23.5t23.5 -58.5q0 -20 -10.5 -43.5zM391.5 -106.5q20.5 -20.5 20.5 -51.5q0 -29 -43 -100q-16 -25 -78 -96h-66l4 -6q8 12 15.5 25t15.5 26q8 20 8 33q0 16 -10 26q-27 27 -27 60q0 10 2 16q6 37 37 62.5t68 25.5 q33 0 53.5 -20.5z" glyph-name="uni021A" horiz-adv-x="706" unicode="Ț"/><glyph d="M938 1436l-31 -183h-241l-222 -1257h-182l221 1257h-239l30 183h664zM930 1427h-647l-31 -165h240l-222 -1258h166l221 1258h242zM409.5 -203.5q-10.5 -23.5 -32.5 -58.5q-49 -61 -82 -100h-70l-4 6q8 12 15.5 25.5t15.5 25.5q10 25 10 33q0 10 -8 16q-31 27 -31 66 q0 10 2 16q6 39 39 67.5t74 28.5q35 0 58.5 -23.5t23.5 -58.5q0 -20 -10.5 -43.5zM391.5 -106.5q20.5 -20.5 20.5 -51.5q0 -29 -43 -100q-16 -25 -78 -96h-66l4 -6q8 12 15.5 25t15.5 26q8 20 8 33q0 16 -10 26q-27 27 -27 60q0 10 2 16q6 37 37 62.5t68 25.5 q33 0 53.5 -20.5z" glyph-name="uni021B" horiz-adv-x="706" unicode="ț"/><glyph d="M510 1255l-76 -430h273l-31 -182h-273l-84 -465h392l-31 -182h-236l5 -4l6 -6q49 -39 49 -95q0 -63 -49 -110t-111 -47q-49 0 -81 31.5t-32 80.5q0 18 2 27h99q-2 -4 -2 -12q0 -12 8 -21.5t22 -9.5t27.5 11.5t18.5 27.5v8q0 16 -21 33l-6 6q-39 33 -35 80h-238l252 1442 h574l-31 -183h-391zM924 1430h-557l-252 -1426h237q-6 -49 31 -84l4 -2q18 -14 23.5 -23.5t3.5 -25.5q-2 -20 -18.5 -33.5t-35.5 -13.5q-18 0 -29.5 13t-8.5 30h-80l-2 -19q0 -45 29.5 -74.5t74.5 -29.5q57 0 104.5 46t47.5 103q0 33 -13.5 52.5t-36.5 38.5v2q-6 4 -12 14 l4 6h234l30 166h-391l84 481h273l30 166h-272l76 447h391z" glyph-name="uni0228" horiz-adv-x="1228" unicode="Ȩ"/><glyph d="M510 1255l-76 -430h273l-31 -182h-273l-84 -465h392l-31 -182h-236l5 -4l6 -6q49 -39 49 -95q0 -63 -49 -110t-111 -47q-49 0 -81 31.5t-32 80.5q0 18 2 27h99q-2 -4 -2 -12q0 -12 8 -21.5t22 -9.5t27.5 11.5t18.5 27.5v8q0 16 -21 33l-6 6q-39 33 -35 80h-238l252 1442 h574l-31 -183h-391zM924 1430h-557l-252 -1426h237q-6 -49 31 -84l4 -2q18 -14 23.5 -23.5t3.5 -25.5q-2 -20 -18.5 -33.5t-35.5 -13.5q-18 0 -29.5 13t-8.5 30h-80l-2 -19q0 -45 29.5 -74.5t74.5 -29.5q57 0 104.5 46t47.5 103q0 33 -13.5 52.5t-36.5 38.5v2q-6 4 -12 14 l4 6h234l30 166h-391l84 481h273l30 166h-272l76 447h391z" glyph-name="uni0229" horiz-adv-x="1228" unicode="ȩ"/><glyph d="M629 66q111 88 141 253l139 795q8 61 9 84q0 104 -58 172q-74 78 -211 78t-239 -80q-113 -94 -140 -254l-139 -795q-8 -41 -8 -88q0 -106 55 -168q74 -78 211 -77q138 0 240 80zM174 59q-59 61 -59 174q0 45 8 86l139 795q29 166 144 262q104 80 243 80q141 0 217 -82 q59 -70 60 -178q0 -25 -8 -82l-140 -795q-31 -170 -145 -262q-100 -80 -244 -80q-139 0 -215 82zM750 1167q0 -23 -7 -53l-139 -795q-14 -86 -59 -126.5t-125 -40.5q-129 0 -129 112q0 25 6 55l139 795q14 88 59.5 128t122.5 40q132 0 132 -115zM502 1236q-41 -38 -58 -122 l-139 -795q-6 -31 -6 -55q0 -55 29.5 -79.5t91.5 -24.5q76 0 118 38t58 121l139 795q6 31 6 53q0 106 -123 107q-75 0 -116 -38zM602.5 1664q-20.5 26 -57.5 26t-68 -26t-37 -62q-2 -6 -2 -19q0 -29 20.5 -49.5t53.5 -20.5q37 0 66.5 26t37.5 63q7 36 -13.5 62zM583.5 1533 q-32.5 -28 -71.5 -28q-35 0 -58.5 22.5t-23.5 55.5q0 12 2 19q6 39 39 67.5t74 28.5q39 0 62.5 -28t17.5 -68q-9 -41 -41.5 -69zM897.5 1664q-20.5 26 -57.5 26t-68 -26t-37 -62q-2 -6 -2 -19q0 -29 20.5 -49.5t53.5 -20.5q37 0 66.5 26t37.5 63q7 36 -13.5 62zM878.5 1533 q-32.5 -28 -71.5 -28q-35 0 -58.5 22.5t-23.5 55.5q0 12 2 19q6 39 39 67.5t74 28.5q39 0 62.5 -28t17.5 -68q-9 -41 -41.5 -69zM1014 1776l14 84h-614l-15 -84h615zM1022 1767h-631l15 101h630z" glyph-name="uni022A" horiz-adv-x="786" unicode="Ȫ"/><glyph d="M629 66q111 88 141 253l139 795q8 61 9 84q0 104 -58 172q-74 78 -211 78t-239 -80q-113 -94 -140 -254l-139 -795q-8 -41 -8 -88q0 -106 55 -168q74 -78 211 -77q138 0 240 80zM174 59q-59 61 -59 174q0 45 8 86l139 795q29 166 144 262q104 80 243 80q141 0 217 -82 q59 -70 60 -178q0 -25 -8 -82l-140 -795q-31 -170 -145 -262q-100 -80 -244 -80q-139 0 -215 82zM750 1167q0 -23 -7 -53l-139 -795q-14 -86 -59 -126.5t-125 -40.5q-129 0 -129 112q0 25 6 55l139 795q14 88 59.5 128t122.5 40q132 0 132 -115zM502 1236q-41 -38 -58 -122 l-139 -795q-6 -31 -6 -55q0 -55 29.5 -79.5t91.5 -24.5q76 0 118 38t58 121l139 795q6 31 6 53q0 106 -123 107q-75 0 -116 -38zM602.5 1664q-20.5 26 -57.5 26t-68 -26t-37 -62q-2 -6 -2 -19q0 -29 20.5 -49.5t53.5 -20.5q37 0 66.5 26t37.5 63q7 36 -13.5 62zM583.5 1533 q-32.5 -28 -71.5 -28q-35 0 -58.5 22.5t-23.5 55.5q0 12 2 19q6 39 39 67.5t74 28.5q39 0 62.5 -28t17.5 -68q-9 -41 -41.5 -69zM897.5 1664q-20.5 26 -57.5 26t-68 -26t-37 -62q-2 -6 -2 -19q0 -29 20.5 -49.5t53.5 -20.5q37 0 66.5 26t37.5 63q7 36 -13.5 62zM878.5 1533 q-32.5 -28 -71.5 -28q-35 0 -58.5 22.5t-23.5 55.5q0 12 2 19q6 39 39 67.5t74 28.5q39 0 62.5 -28t17.5 -68q-9 -41 -41.5 -69zM1014 1776l14 84h-614l-15 -84h615zM1022 1767h-631l15 101h630z" glyph-name="uni022B" horiz-adv-x="786" unicode="ȫ"/><glyph d="M864 539q0 -33 -6 -74l-24 -135q-31 -168 -146 -258q-100 -76 -242 -76h-235h-92l55 315h-123l31 183h123l166 944h297q143 0 215 -78q63 -63 63 -174q0 -43 -8 -82l-25 -139q-27 -152 -133 -234q84 -67 84 -192zM857 830.5q34 56.5 48 134.5l25 139q8 39 8 82 q0 104 -59 170q-74 74 -211 74h-289l-166 -945h-123l-31 -166h123l-55 -315h84h235q137 0 238 76q111 82 141 250l25 135q6 41 6 74q0 127 -88 192q55 43 89 99.5zM442 807h115q78 0 119 38t55 120l25 139q6 31 6 53q0 51 -30 74.5t-95 23.5h-115zM637 1264q70 0 101.5 -26 t31.5 -81q0 -25 -6 -53l-25 -139q-14 -86 -58 -126t-124 -40h-123l80 465h123zM676 465q4 37 4 51q0 57 -29.5 83t-91.5 26h-147l-25 -131h119l-31 -183h-119l-24 -133h145q78 0 115 31q45 35 59 121zM596 201q-43 -31 -119 -31h-153l24 149h119l31 166h-119l24 148h156 q66 0 97.5 -29t31.5 -90q0 -12 -4 -49l-25 -135q-16 -90 -63 -129z" glyph-name="uni0243" horiz-adv-x="1228" unicode="Ƀ"/><glyph d="M946 688h-82l-65 -369q-31 -170 -148 -262q-49 -39 -111.5 -59.5t-129.5 -20.5q-141 0 -215 82q-61 66 -62 174q0 45 8 86l66 369h-82l14 98h82l115 652h182l-115 -652h293l115 652h182l-114 -652h82zM870 778l115 652h-166l-114 -652h-310l115 652h-166l-115 -652h-82 l-14 -82h82l-65 -377q-8 -41 -9 -86q0 -106 58 -170q74 -78 211 -77q68 0 130 20.5t107 59.5q113 88 144 253l65 377h82l14 82h-82zM682 688h-293l-65 -369q-6 -31 -7 -53q0 -106 123 -106q76 0 118 39t58 120zM564 192.5q-46 -40.5 -124 -40.5q-131 0 -131 114q0 23 6 53 l66 377h309l-65 -377q-15 -86 -61 -126.5z" glyph-name="uni0244" horiz-adv-x="825" unicode="Ʉ"/><glyph d="M614 -4l-12 1069l-393 -1069h-186l555 1442h176l47 -1442h-187zM623 4h170l-48 1426h-163l-547 -1426h170l405 1106z" glyph-name="uni0245" horiz-adv-x="825" unicode="Ʌ"/><glyph d="M764 676q-29 -29 -80 -49l61 -631h-188l-59 598h-123l-105 -598h-182l105 598h-82l30 182h82l117 662h328q68 0 125 -21.5t92 -60.5q61 -68 61 -176q0 -43 -8 -84l-29 -162q-28 -170 -145 -258zM930 1096q8 41 8 84q0 104 -57 172q-74 78 -213 78h-320l-117 -662h-81 l-31 -166h82l-105 -598h166l105 598h139l59 -598h172l-61 627q55 23 84 51q113 88 141 252zM756 1096q6 29 6 51q0 55 -31 81.5t-94 26.5h-145l-86 -479h145q78 0 120 38t56 120zM676 808q-45 -40 -125 -40h-154l86 496h154q133 0 133 -115q0 -25 -6 -53l-29 -162 q-14 -86 -59 -126z" glyph-name="uni024C" horiz-adv-x="798" unicode="Ɍ"/><glyph d="M764 676q-29 -29 -80 -49l61 -631h-188l-59 598h-123l-105 -598h-182l105 598h-82l30 182h82l117 662h328q68 0 125 -21.5t92 -60.5q61 -68 61 -176q0 -43 -8 -84l-29 -162q-28 -170 -145 -258zM930 1096q8 41 8 84q0 104 -57 172q-74 78 -213 78h-320l-117 -662h-81 l-31 -166h82l-105 -598h166l105 598h139l59 -598h172l-61 627q55 23 84 51q113 88 141 252zM756 1096q6 29 6 51q0 55 -31 81.5t-94 26.5h-145l-86 -479h145q78 0 120 38t56 120zM676 808q-45 -40 -125 -40h-154l86 496h154q133 0 133 -115q0 -25 -6 -53l-29 -162 q-14 -86 -59 -126z" glyph-name="uni024D" horiz-adv-x="798" unicode="ɍ"/><glyph d="M872 1438h187l-555 -1442h-174l-49 1442h186l6 -297h293zM877 1430l-107 -297h-305l-6 297h-170l49 -1426h162l547 1426h-170zM475 958l8 -589l215 589h-223zM467 967h244l-236 -643z" glyph-name="uni0250" unicode="ɐ"/><glyph d="M918 543q0 -39 -9 -78l-24 -135q-29 -170 -144 -258q-102 -76 -241 -76h-330l238 1343h-82q-16 0 -29.5 -12t-15.5 -29h-97q8 57 53.5 97.5t102.5 40.5h379q145 0 215 -78q63 -63 63 -174q0 -25 -8 -82l-24 -137q-27 -152 -134 -234q87 -67 87 -188zM908 830.5 q34 56.5 48 134.5l25 137q6 43 6 82q0 111 -57 170q-70 74 -211 73h-379q-51 0 -94 -34.5t-53 -85.5h79q4 16 20.5 28.5t33.5 12.5h90l-238 -1344h322q133 0 237 76q111 86 140 250l24 135q8 57 8 78q0 123 -90 188q55 43 89 99.5zM494 807h114q76 0 117 37t57 121l25 137 q4 18 4 51q0 53 -28.5 76.5t-94.5 23.5h-115zM688 1262q68 0 99.5 -27t31.5 -84q0 -12 -4 -49l-24 -137q-14 -88 -58.5 -127t-124.5 -39h-123l80 463h123zM727 465q6 31 6 53q0 106 -123 107h-147l-80 -447h147q76 0 115 31q43 35 57 121zM649 201q-45 -31 -119 -31h-155 l80 463h155q131 0 131 -115q0 -25 -6 -53l-24 -135q-17 -90 -62 -129z" glyph-name="uni0253" horiz-adv-x="882" unicode="ɓ"/><glyph d="M621 66q113 88 143 253l139 797q8 39 8 82q0 106 -61 174q-68 78 -207 78q-137 0 -240 -80q-111 -90 -141 -254l-22 -127h166l22 127q14 86 59 127t125 41q131 0 131 -115q0 -25 -6 -53l-139 -797q-14 -86 -60 -126.5t-124 -40.5q-131 0 -131 114q0 23 6 53l33 189h-166 l-33 -189q-8 -41 -8 -86q0 -106 57 -170q74 -78 211 -77q140 0 238 80zM168 59q-61 66 -62 174q0 45 9 86l32 197h183l-33 -197q-6 -31 -6 -53q0 -106 123 -106q76 0 117.5 39t58.5 120l139 797q6 31 6 53q0 106 -123 107q-76 0 -117.5 -38t-58.5 -122l-22 -135h-183l23 135 q31 168 145 262q104 80 244 80q68 0 124 -21.5t89 -60.5q63 -70 64 -178q0 -43 -9 -82l-139 -797q-31 -170 -147 -262q-49 -39 -111.5 -59.5t-130.5 -20.5q-139 0 -215 82z" glyph-name="uni0254" horiz-adv-x="780" unicode="ɔ"/><glyph d="M1028 1182q0 -45 -8 -86l-135 -766q-29 -166 -146 -260q-98 -74 -239 -74h-330l238 1345h-82q-16 0 -29.5 -12t-15.5 -29h-97q8 57 53.5 97.5t102.5 40.5h412q141 0 217 -82q59 -65 59 -174zM752 1430h-412q-51 0 -94 -35t-53 -86h79q4 16 20.5 28.5t33.5 12.5h90 l-238 -1346h322q141 0 235 74q115 90 142 252l135 766q8 41 8 84q0 102 -57 172q-74 78 -211 78zM838 1096q6 31 6 53q0 106 -123 106h-148l-190 -1077h147q76 0 113 31q45 35 59 121zM647 201q-43 -31 -117 -31h-155l190 1094h156q131 0 131 -115q0 -25 -6 -53l-135 -766 q-17 -90 -64 -129z" glyph-name="uni0257" horiz-adv-x="892" unicode="ɗ"/><glyph d="M281 1255l30 183h574l-252 -1442h-574l31 182h391l84 465h-272l31 182h272l76 430h-391zM289 1264h391l-76 -447h-272l-31 -166h272l-84 -481h-391l-30 -166h557l252 1426h-558z" glyph-name="uni0258" horiz-adv-x="710" unicode="ɘ"/><glyph d="M939 1550q48 39 103 37l-14 -96h-4q-14 0 -27.5 -11.5t-17.5 -25.5l-82 -475h-182l22 135q6 31 6 53q0 106 -122 107q-76 0 -118 -38t-59 -122l-139 -795q-6 -31 -6 -53q0 -106 123 -106q76 0 118 39t58 120l53 306h-149l30 182h332l-84 -488q-31 -170 -145 -262 q-100 -80 -244 -80q-139 0 -215 82q-61 63 -61 174q0 45 8 86l139 795q29 166 146 262q104 80 243 80q141 0 215 -82q8 -4 8 -10h-8l17 90q8 57 56 96zM874 1364h-8l-4 6q-74 78 -211 78t-239 -80q-113 -88 -142 -254l-139 -795q-8 -41 -8 -86q0 -106 57 -170 q74 -78 211 -77q137 0 240 80q111 88 141 253l84 480h-315l-31 -166h149l-53 -314q-14 -86 -60 -126.5t-124 -40.5q-131 0 -131 114q0 23 6 53l139 795q14 86 59.5 127t125.5 41q131 0 131 -115q0 -25 -7 -53l-22 -127h166l82 467q2 18 17.5 30.5t31.5 14.5l14 80 q-51 -2 -92 -39t-51 -86z" glyph-name="uni0260" horiz-adv-x="788" unicode="ɠ"/><glyph d="M631 66q111 88 141 253l66 377h-316l-30 -166h149l-35 -211q-14 -86 -60 -126.5t-124 -40.5q-131 0 -131 114q0 23 6 53l102 590q14 86 59.5 127t125.5 41q131 0 131 -114q0 -25 -6 -54l-4 -24h165l4 24q8 39 9 84q0 100 -56 172q-78 78 -213 78t-237 -80 q-113 -88 -144 -254l-102 -590q-8 -41 -8 -86q0 -106 57 -170q74 -78 211 -77q138 0 240 80zM176 59q-61 63 -61 174q0 45 8 86l102 590q31 166 148 262q102 80 241 80t220 -82q57 -66 57 -176q0 -45 -8 -84l-4 -32h-183l4 32q6 31 7 54q0 106 -123 106q-76 0 -118 -38 t-58 -122l-103 -590q-6 -31 -6 -53q0 -106 123 -106q76 0 118 39t58 120l35 203h-150l31 183h332l-66 -386q-31 -170 -145 -262q-100 -80 -244 -80q-139 0 -215 82z" glyph-name="uni0262" horiz-adv-x="788" unicode="ɢ"/><glyph d="M803 1438h182l-252 -1442h-182l115 647h-291l-115 -647h-182l252 1442h182l-106 -613h290zM811 1430l-106 -613h-308l107 613h-166l-252 -1426h166l115 647h307l-115 -647h166l252 1426h-166z" glyph-name="uni0265" horiz-adv-x="811" unicode="ɥ"/><glyph d="M1077 1438l-252 -1442h-182l115 647h-291l-115 -647h-182l238 1345h-82q-16 0 -29.5 -12t-15.5 -29h-97q8 57 53.5 97.5t102.5 40.5h264l-106 -613h290l107 613h182zM797 817h-308l107 613h-256q-51 0 -94 -35t-53 -86h79q4 16 20.5 28.5t33.5 12.5h90l-238 -1346h166 l115 647h307l-115 -647h166l252 1426h-166z" glyph-name="uni0266" horiz-adv-x="903" unicode="ɦ"/><glyph d="M489 786l-14 -98h-82l-123 -692h-182l123 692h-82l14 98h82l115 652h182l-114 -652h81zM481 778h-82l115 652h-166l-115 -652h-81l-15 -82h82l-123 -692h166l123 692h82z" glyph-name="uni0268" horiz-adv-x="358" unicode="ɨ"/><glyph d="M252 4l217 1221h-166l-217 -1221h166zM260 -4h-182l217 1237h182z" glyph-name="uni026A" horiz-adv-x="337" unicode="ɪ"/><glyph d="M707 936l-525 -940h-104l252 1442h182l-137 -789l336 613h102l121 -615l137 791h182l-252 -1442h-106zM711 961l192 -957h90l252 1426h-166l-145 -828l-129 651h-90l-357 -653l146 830h-166l-252 -1426h92z" glyph-name="uni026F" horiz-adv-x="1079" unicode="ɯ"/><glyph d="M1006 1438l-252 -1442h-105l-243 850l-148 -846q-14 -90 -76.5 -155.5t-185.5 -63.5l16 96h4q14 0 28.5 11.5t16.5 25.5l267 1524h104l244 -852l147 852h183zM676 549l-252 881h-88l-266 -1516q-2 -18 -17.5 -30.5t-32.5 -14.5l-16 -80q115 2 173.5 63.5t72.5 147.5 l156 883l251 -879h88l252 1426h-166z" glyph-name="uni0272" horiz-adv-x="829" unicode="ɲ"/><glyph d="M383 705l-125 -709h-182l217 1237h102l269 -711l124 711h183l-217 -1237h-103zM379 737l276 -733h90l218 1221h-166l-129 -736l-277 736h-90l-217 -1221h166z" glyph-name="uni0274" horiz-adv-x="829" unicode="ɴ"/><glyph d="M817 1051l-59 -326h272l-31 -182h-272l-65 -365h391l-31 -182h-629q-141 0 -217 82q-59 70 -59 178q0 25 8 82l98 553q29 170 144 262q100 80 243 80h629l-31 -182h-391zM1231 1225h-621q-137 0 -239 -80q-111 -88 -140 -254l-98 -553q-8 -61 -8 -84q0 -104 57 -172 q74 -78 211 -78h621l30 166h-391l66 381h272l31 166h-272l59 342h391zM301 285q0 -106 123 -107h55l156 873h-55q-76 0 -118 -39t-56 -121l-99 -553q-6 -30 -6 -53zM397 891q14 88 58.5 128t124.5 40h63l-156 -889h-63q-131 0 -131 115q0 23 6 53z" glyph-name="uni0276" horiz-adv-x="1081" unicode="ɶ"/><glyph d="M733 -4h-190l-107 496h-88l-88 -496h-182l217 1237h328q139 0 215 -82q61 -63 61 -178q0 -25 -8 -82l-10 -60q-31 -170 -144 -260q-53 -41 -114 -59zM733 580q109 86 139 251l11 60q6 43 6 82q0 111 -55 174q-74 78 -211 78h-320l-217 -1221h166l88 496h104l107 -496h174 l-111 512q68 25 119 64zM641 711q41 37 57 120l11 60q4 18 4 51q0 57 -29 83t-92 26h-146l-67 -377h145q76 0 117 37zM371 666l67 393h154q68 0 98.5 -29t30.5 -88q0 -14 -4 -51l-10 -60q-14 -88 -58.5 -126.5t-124.5 -38.5h-153z" glyph-name="uni0280" horiz-adv-x="786" unicode="ʀ"/></font>
</defs>
</svg>
