<?xml version="1.0" standalone="no"?>
<!DOCTYPE svg PUBLIC "-//W3C//DTD SVG 1.1//EN" "http://www.w3.org/Graphics/SVG/1.1/DTD/svg11.dtd">
<svg xmlns="http://www.w3.org/2000/svg"><metadata>This SVG WebFont was generated by YouWorkForThem.
EllenLuff.2018</metadata><defs><font horiz-adv-x="708" id="ywftsvg"><font-face ascent="1638" bbox="-705 -283 1450 1954" cap-height="1434" descent="-410" font-family="" font-stretch="normal" font-weight="300" panose-1="0 0 4 0 0 0 0 0 0 0" underline-position="0" underline-thickness="0" unicode-range="U+0020-AB53" units-per-em="2048" x-height="1434"/><missing-glyph horiz-adv-x="1228"/><glyph glyph-name=".notdef" horiz-adv-x="1228"/><glyph glyph-name="glyph1" horiz-adv-x="0"/><glyph glyph-name="glyph2" horiz-adv-x="1228"/><glyph glyph-name="space" horiz-adv-x="317" unicode=" "/><glyph d="M177.5 95.5q17.5 -17.5 17.5 -40.5t-17.5 -39t-40.5 -16t-39 16.5t-16 38.5q0 23 16.5 40.5t38.5 17.5q23 0 40.5 -17.5zM154 270h-31l-8 445v719h45v-719z" glyph-name="exclam" horiz-adv-x="276" unicode="!"/><glyph d="M106 1237h-24l-10 197h45zM215 1237h-25l-10 197h45z" glyph-name="quotedbl" horiz-adv-x="296" unicode="&quot;"/><glyph d="M1300 954h-272l-147 -481h360v-45h-375l-133 -428h-47l133 428h-432l-133 -428h-47l133 428h-258v45h272l148 481h-359v45h371l135 435h47l-133 -435h432l133 435h48l-134 -435h258v-45zM834 473l147 481h-432l-148 -481h433z" glyph-name="numbersign" horiz-adv-x="1382" unicode="#"/><glyph d="M592 1010v123q0 133 -70 196q-61 57 -168 57q-109 0 -170 -57q-70 -63 -69 -196v-21q0 -143 90 -238q33 -35 69.5 -57t90.5 -47q55 -27 94 -52.5t76 -64.5q102 -109 102 -272v-80q0 -154 -84 -229q-66 -63 -176 -70v-59h-45v59q-111 6 -178 70q-84 78 -84 229v191h45 v-191q0 -133 69 -197q61 -57 170 -57q106 0 168 57q70 63 70 197v80q0 150 -90 242q-33 35 -71 59.5t-89 46.5q-59 31 -96 53.5t-74 59.5q-102 109 -102 270v21q0 152 84 229q68 63 178 70v59h45v-59q111 -6 176 -70q84 -76 84 -229v-123h-45z" glyph-name="dollar" horiz-adv-x="706" unicode="$"/><glyph d="M993 76.5q-49 -56.5 -119 -56.5t-119.5 56.5t-49.5 136.5v20q0 80 50 137.5t119 57.5q70 0 119 -57.5t49 -137.5v-20q0 -80 -49 -136.5zM961.5 339q-35.5 44 -87.5 44q-51 0 -87.5 -44t-36.5 -106v-20q0 -61 36.5 -104t87.5 -43t87 43t36 104v20q0 62 -35.5 106z M358.5 1066q-49.5 -56 -118.5 -56q-72 0 -121 56t-49 138v19q0 80 50 137t120 57t119 -57t49 -137v-19q0 -82 -49.5 -138zM326.5 1328q-35.5 44 -86.5 44t-88 -44t-37 -105v-19q0 -63 35.5 -106t89.5 -43q51 0 86.5 43t35.5 106v19q0 61 -35.5 105zM754 1434h47l-441 -1434 h-47z" glyph-name="percent" horiz-adv-x="1112" unicode="%"/><glyph d="M1153 4l-14 -43q-113 41 -271 184l-30 29l-50 -61q-61 -63 -133 -99q-68 -33 -147 -32q-88 0 -166 26.5t-135 75.5q-125 113 -125 303q0 172 147 289q47 37 136 84q-6 10 -39 69q-102 195 -103 320v49q0 70 30 124t87 87q39 23 84 34t84 11q37 0 82 -11t84 -34 q117 -63 117 -211v-39q0 -158 -105 -268q-70 -70 -170 -117l-39 -16q-25 -6 -47 -19q78 -127 176 -245q106 -133 225 -252q76 109 144.5 217t73.5 114l38 -22q-23 -39 -92 -146.5t-131 -193.5q176 -166 289 -207zM569 465q-102 131 -182 256q-260 -123 -260 -334 q0 -172 111 -268q49 -45 118.5 -68.5t151.5 -23.5q137 0 248 116l49 62q-121 119 -236 260zM572 1401q-40 8 -64 8q-25 0 -65 -7t-81 -32q-94 -51 -94 -172v-49q0 -117 97 -299l41 -72l55 23l37 14q96 47 155 107q92 98 92 237v39q0 121 -94 172q-39 23 -79 31z" glyph-name="ampersand" horiz-adv-x="1214" unicode="&amp;"/><glyph d="M106 1237h-24l-10 197h45z" glyph-name="quotesingle" horiz-adv-x="188" unicode="'"/><glyph d="M369 27v-45q-127 0 -201 67q-84 78 -84 230v876q0 150 84 229q74 68 201 68v-45q-109 0 -170 -55q-70 -63 -70 -197v-876q0 -133 70 -197q61 -55 170 -55z" glyph-name="parenleft" horiz-adv-x="430" unicode="("/><glyph d="M262 49q-74 -68 -201 -67v45q109 0 170 55q70 63 70 197v876q0 133 -70 197q-61 55 -170 55v45q127 0 201 -68q84 -80 84 -229v-876q0 -152 -84 -230z" glyph-name="parenright" horiz-adv-x="430" unicode=")"/><glyph d="M698 1270l-258 -166l258 -166l-45 -61l-237 192l-78 -295l-72 23l111 286l-305 -16v76l305 -19l-111 287l72 23l78 -295l237 192z" glyph-name="asterisk" horiz-adv-x="770" unicode="*"/><glyph d="M825 713h-753v45h753v-45zM471 358h-45v754h45v-754z" glyph-name="plus" horiz-adv-x="897" unicode="+"/><glyph d="M162.5 87q15.5 -15 15.5 -38q0 -20 -14 -49q-10 -20 -29.5 -49t-25.5 -37h-31l22 57q4 8 4 15q0 10 -8 18q-25 18 -24 45q0 23 16 38t37 15q22 0 37.5 -15z" glyph-name="comma" horiz-adv-x="249" unicode=","/><glyph d="M326 713h-306v45h306v-45z" glyph-name="hyphen" horiz-adv-x="346" unicode="-"/><glyph d="M160.5 87q15.5 -15 15.5 -38q0 -20 -15.5 -36.5t-37.5 -16.5q-20 0 -36.5 16.5t-16.5 36.5q0 23 16 38t37 15q22 0 37.5 -15z" glyph-name="period" horiz-adv-x="245" unicode="."/><glyph d="M57 0h-47l441 1434h47z" glyph-name="slash" horiz-adv-x="507" unicode="/"/><glyph d="M567 49q-78 -68 -200 -67q-123 0 -201 67q-84 80 -84 232v872q0 152 84 229q76 70 201 70t200 -70q84 -78 84 -229v-872q0 -152 -84 -232zM537 1350q-63 57 -170 57q-109 0 -170 -57q-70 -63 -70 -197v-872q0 -135 70 -197q57 -57 170 -57q111 0 170 57q70 63 69 197v872 q1 131 -69 197z" glyph-name="zero" horiz-adv-x="733" unicode="0"/><glyph d="M61 1208l246 226h25v-1434h-45v1354l-226 -207v61z" glyph-name="one" horiz-adv-x="434" unicode="1"/><glyph d="M78 0v350q0 162 102 275q37 39 76 63.5t94 50.5q59 29 93 50.5t67 54.5q90 90 90 237v72q0 133 -70 197q-61 57 -168 57q-109 0 -169 -57q-70 -63 -70 -197v-143h-45v143q0 152 84 229q74 70 200 70q125 0 199 -70q84 -76 84 -229v-72q0 -162 -102 -268 q-37 -39 -76 -63.5t-94 -49.5q-53 -27 -90 -49t-70 -57q-90 -96 -90 -244v-305h522v-45h-567z" glyph-name="two" unicode="2"/><glyph d="M553 51q-76 -70 -201 -69q-125 0 -200 69q-82 76 -82 230v102h45v-102q0 -131 67 -197q63 -57 170 -57q109 0 170 57q70 63 70 197v102q0 164 -105 262q-37 35 -76.5 55.5t-62.5 24.5q-37 4 -55 4v45q25 0 53 8q78 20 139 78q106 94 107 254v41q0 133 -70 195 q-57 57 -170 57q-111 0 -170 -57q-68 -61 -67 -195v-41h-45v41q0 150 82 229q74 68 200 68q127 0 201 -68q84 -80 84 -229v-41q0 -150 -71.5 -235.5t-164.5 -124.5q63 -29 117 -76q49 -47 84 -121t35 -174v-102q0 -152 -84 -230z" glyph-name="three" horiz-adv-x="702" unicode="3"/><glyph d="M573 299h154v-45h-154v-254h-45v254h-467v25l467 1155h45v-1135zM528 299v1018l-411 -1018h411z" glyph-name="four" horiz-adv-x="788" unicode="4"/><glyph d="M70 1434h567v-45h-522v-261q0 -147 90 -243q33 -35 69.5 -57.5t90.5 -49.5q55 -25 94 -48t76 -62q102 -109 102 -271v-116q0 -152 -84 -230q-76 -70 -201 -69q-125 0 -200 69q-82 76 -82 230v141h45v-141q0 -131 67 -197q63 -57 170 -57q109 0 170 57q70 63 70 197v116 q0 143 -90 238q-33 33 -67 54.5t-93 49.5q-55 29 -94 52.5t-76 62.5q-102 109 -102 274v306z" glyph-name="five" horiz-adv-x="702" unicode="5"/><glyph d="M598 1030v123q0 131 -70 197q-63 57 -170 57q-106 0 -170 -57q-70 -66 -69 -197v-487q25 33 39 45q76 70 200 69q125 0 201 -69q84 -78 84 -230v-200q0 -152 -84 -232q-74 -68 -201 -67q-127 0 -200 67q-84 80 -84 232v200v672q0 152 84 229q76 70 200 70q125 0 201 -70 q84 -78 84 -229v-123h-45zM119 481v-200q0 -133 69 -197q59 -57 170 -57t170 57q70 63 70 197v200q0 131 -70 197q-63 57 -170 57q-106 0 -170 -57q-69 -66 -69 -197z" glyph-name="six" unicode="6"/><glyph d="M659 1434l-466 -1434h-50l453 1389h-565v45h628z" glyph-name="seven" horiz-adv-x="679" unicode="7"/><glyph d="M549 51q-74 -70 -201 -69q-125 0 -198 69q-84 78 -84 230v102q0 166 102 274q53 55 131 95q-78 39 -131 94q-102 106 -102 268v41q0 150 84 229q72 68 198 68q129 0 201 -68q84 -80 84 -229v-41q0 -162 -103 -268q-53 -55 -131 -94q78 -39 131 -95q102 -109 103 -274 v-102q0 -152 -84 -230zM356 723l-8 4l-6 -4q-90 -41 -141 -96q-90 -96 -90 -244v-102q0 -133 69 -197q61 -57 168 -57q109 0 170 57q70 63 70 197v102q0 147 -90 244q-52 55 -142 96zM518 1350q-57 57 -170 57q-111 0 -168 -57q-70 -61 -69 -195v-41q0 -143 90 -237 q33 -33 64.5 -52.5t74.5 -42.5l8 -4q2 0 10 4q43 23 75 42.5t65 52.5q90 94 90 237v41q0 134 -70 195z" glyph-name="eight" horiz-adv-x="698" unicode="8"/><glyph d="M633 954v-673q0 -154 -84 -230q-74 -70 -199 -69q-127 0 -200 69q-84 78 -84 230v127h45v-127q0 -133 69 -197q61 -57 170 -57q106 0 168 57q70 63 70 197v491q-16 -31 -39 -47q-74 -70 -199 -70q-127 0 -200 70q-84 78 -84 229v201q0 150 84 229q72 68 200 68 q127 0 199 -68q84 -78 84 -229v-201zM588 954v201q0 133 -70 195q-57 57 -168 57q-113 0 -170 -57q-70 -61 -69 -195v-201q0 -133 69 -196q61 -57 170 -58q106 0 168 58q70 63 70 196z" glyph-name="nine" horiz-adv-x="706" unicode="9"/><glyph d="M167 87q15 -15 15 -38q0 -20 -15 -36.5t-38 -16.5q-20 0 -36.5 16.5t-16.5 36.5q0 23 16.5 38t36.5 15q23 0 38 -15zM167 889.5q15 -15.5 15 -37.5q0 -20 -15 -36.5t-38 -16.5q-20 0 -36.5 16t-16.5 37q0 23 16.5 38t36.5 15q23 0 38 -15.5z" glyph-name="colon" horiz-adv-x="253" unicode=":"/><glyph d="M162.5 87q15.5 -15 15.5 -38q0 -20 -14 -49q-10 -20 -29.5 -49t-25.5 -37h-31l22 57q4 8 4 15q0 10 -8 18q-25 18 -24 45q0 23 16 38t37 15q22 0 37.5 -15zM162.5 889.5q15.5 -15.5 15.5 -37.5q0 -20 -15.5 -36.5t-37.5 -16.5q-20 0 -36.5 16t-16.5 37q0 23 16 38t37 15 q22 0 37.5 -15.5z" glyph-name="semicolon" horiz-adv-x="235" unicode=";"/><glyph d="M121 735l608 -270v-49l-668 297v45l668 299v-49z" glyph-name="less" horiz-adv-x="811" unicode="&lt;"/><glyph d="M825 907h-753v45h753v-45zM825 516h-753v45h753v-45z" glyph-name="equal" horiz-adv-x="897" unicode="="/><glyph d="M690 735l-608 273v49l668 -299v-45l-668 -297v49z" glyph-name="greater" horiz-adv-x="811" unicode=">"/><glyph d="M247 60.5q-9 9.5 -26 9.5q-14 0 -24.5 -10.5t-10.5 -24.5t10.5 -24.5t24.5 -10.5t24.5 10t10.5 25q0 16 -9 25.5zM260 95.5q16 -17.5 16 -40.5t-16 -39t-39 -16q-25 0 -41 16.5t-16 38.5q0 23 16.5 40.5t40.5 17.5q23 0 39 -17.5zM201 276v74q0 113 27.5 185.5 t66.5 112.5t104 87q63 45 99.5 82t62 100.5t25.5 163.5v72q0 131 -70 197q-63 57 -170 57q-106 0 -170 -57q-70 -66 -70 -197v-143h-45v143q0 152 84 229q76 70 201 70t201 -70q84 -78 84 -229v-72q0 -111 -26.5 -181.5t-65.5 -109t-105 -85.5q-63 -47 -100 -84 t-62.5 -102.5t-25.5 -168.5v-74h-45z" glyph-name="question" horiz-adv-x="692" unicode="?"/><glyph d="M1036 246l56 12q-41 -94 -115 -156q-70 -63 -165 -95t-210 -32q-231 0 -375 127q-80 68 -121 172q-45 109 -45 254v377q0 150 45 254q39 102 121 174q145 127 375 127q113 0 209 -32.5t166 -94.5q82 -72 121 -174q45 -104 45 -254v-217q0 -150 -53 -227q-53 -72 -136 -72 q-86 0 -135 72q-18 23 -33 63q-16 -33 -38 -55q-53 -53 -146 -53q-92 0 -145 53q-61 61 -62 174v145q0 115 62 177q55 51 145 51t146 -51l16 -19v53h45v-313q0 -119 38 -185.5t107 -66.5q68 0 106 66.5t38 187.5v217q0 262 -150 393q-133 117 -346 117t-346 -117 q-150 -133 -150 -393v-377q0 -260 150 -393q131 -115 346 -115t346 115q49 45 88 111zM764 788q0 102 -47 142.5t-115 40.5t-115 -40t-47 -143v-145q0 -100 47.5 -141t114.5 -41q68 0 115 41t47 141v145z" glyph-name="at" horiz-adv-x="1204" unicode="@"/><glyph d="M657 0l-86 408h-395l-88 -408h-47l309 1434h45l310 -1434h-48zM184 453h377l-188 878z" glyph-name="A" horiz-adv-x="745" unicode="A"/><glyph d="M565 63q-70 -63 -198 -63h-285v1434h250q127 0 198 -66q84 -74 84 -225v-152q0 -154 -84 -229q-23 -23 -57 -39q51 -16 94 -53q82 -80 82 -232v-149q0 -154 -84 -226zM127 692v-647h240q238 0 237 244v149q0 135 -67 197q-59 57 -170 57h-240zM127 1389v-652h205 q111 0 168 58q70 63 69 196v152q0 246 -237 246h-205z" glyph-name="B" horiz-adv-x="718" unicode="B"/><glyph d="M553 51q-74 -70 -201 -69q-125 0 -198 69q-84 76 -84 230v872q0 154 84 229q74 70 198 70q127 0 201 -70q84 -78 84 -229v-143h-45v143q0 133 -70 197q-61 57 -170 57q-106 0 -168 -57q-70 -63 -69 -197v-872q0 -133 69 -197q61 -57 168 -57q109 0 170 57q70 63 70 197 v211h45v-211q0 -152 -84 -230z" glyph-name="C" horiz-adv-x="702" unicode="C"/><glyph d="M565 63q-72 -63 -200 -63h-283v1434h283q127 0 200 -68q84 -78 84 -229v-848q0 -152 -84 -226zM127 1389v-1344h238q240 0 239 244v848q0 133 -69 196q-57 55 -170 56h-238z" glyph-name="D" horiz-adv-x="722" unicode="D"/><glyph d="M563 1389h-436v-631h305v-45h-305v-668h436v-45h-481v1434h481v-45z" glyph-name="E" horiz-adv-x="612" unicode="E"/><glyph d="M563 1389h-436v-633h305v-45h-305v-711h-45v1434h481v-45z" glyph-name="F" horiz-adv-x="598" unicode="F"/><glyph d="M555 49q-74 -68 -201 -67q-127 0 -200 67q-84 78 -84 230v874q0 152 84 229q76 70 200 70q125 0 201 -70q84 -78 84 -229v-143h-45v143q0 131 -70 197q-63 57 -170 57q-109 0 -170 -57q-70 -63 -69 -197v-874q0 -133 69 -197q59 -55 170 -55q109 0 170 55q70 66 70 197 v415h-240v45h285v-460q0 -152 -84 -230z" glyph-name="G" unicode="G"/><glyph d="M614 1434h45v-1434h-45v713h-477v-713h-45v1434h45v-676h477v676z" glyph-name="H" horiz-adv-x="751" unicode="H"/><glyph d="M147 0h-45v1434h45v-1434z" glyph-name="I" horiz-adv-x="249" unicode="I"/><glyph d="M543 49q-74 -68 -201 -67q-127 0 -201 67q-84 80 -84 230v204h45v-204q0 -131 70 -197q61 -55 170 -55t170 55q70 66 70 197v1155h45v-1155q0 -150 -84 -230z" glyph-name="J" horiz-adv-x="700" unicode="J"/><glyph d="M682 1434l-305 -680l307 -754h-49l-285 698l-223 -495v-203h-45v1434h45v-1123l506 1123h49z" glyph-name="K" horiz-adv-x="720" unicode="K"/><glyph d="M563 0h-481v1434h45v-1389h436v-45z" glyph-name="L" horiz-adv-x="600" unicode="L"/><glyph d="M500 317l391 1117h24v-1434h-45v1249l-358 -1024h-25l-360 1024v-1249h-45v1434h24z" glyph-name="M" horiz-adv-x="997" unicode="M"/><glyph d="M680 1434v-1434h-25l-518 1272v-1272h-45v1434h25l518 -1272v1272h45z" glyph-name="N" horiz-adv-x="772" unicode="N"/><glyph d="M555 49q-78 -68 -201 -67q-123 0 -200 67q-84 80 -84 232v872q0 152 84 229q76 70 200 70q125 0 201 -70q84 -78 84 -229v-872q0 -152 -84 -232zM524 1350q-63 57 -170 57q-109 0 -170 -57q-70 -63 -69 -197v-872q0 -135 69 -197q57 -57 170 -57q111 0 170 57 q70 63 70 197v872q0 131 -70 197z" glyph-name="O" unicode="O"/><glyph d="M127 653v-653h-45v1434h283q125 0 200 -70q84 -80 84 -231v-183q0 -152 -84 -229q-70 -68 -200 -68h-238zM127 1389v-691h238q113 0 170 56q70 63 69 196v183q0 131 -69 198q-61 57 -170 58h-238z" glyph-name="P" horiz-adv-x="696" unicode="P"/><glyph d="M719 -229v-45h-29q-111 0 -176 59q-74 70 -74 203v2q-35 -8 -86 -8q-127 0 -200 67q-84 78 -84 230v874q0 152 84 229q76 70 200 70q125 0 201 -70q82 -76 82 -229v-874q0 -154 -82 -230q-31 -29 -70 -43v-18q0 -115 60 -168q53 -49 145 -49h29zM354 27q109 0 170 55 q68 66 68 197v874q0 133 -68 197q-63 57 -170 57q-109 0 -170 -57q-70 -63 -69 -197v-874q0 -133 69 -197q59 -55 170 -55z" glyph-name="Q" unicode="Q"/><glyph d="M651 0h-47l-178 657q-18 -4 -59 -4h-240v-653h-45v1434h285q125 0 200 -70q84 -80 84 -231v-183q0 -152 -84 -229q-41 -39 -98 -53zM537 754q70 66 69 196v183q0 129 -69 198q-63 57 -170 58h-240v-691h240q109 1 170 56z" glyph-name="R" horiz-adv-x="702" unicode="R"/><glyph d="M543 51q-76 -70 -201 -69q-125 0 -201 69q-84 78 -84 230v215h45v-215q0 -131 70 -197q63 -57 170 -57q106 0 170 57q70 63 70 197v102q0 147 -90 244q-33 35 -69 57.5t-91 48.5q-57 27 -96 50.5t-76 62.5q-102 106 -103 268v41q0 150 84 229q74 68 201 68t201 -68 q84 -80 84 -229v-141h-45v141q0 133 -70 195q-59 57 -170 57t-170 -57q-70 -63 -70 -195v-41q0 -143 91 -237q33 -33 67.5 -53.5t93.5 -51.5q55 -27 94 -51.5t76 -63.5q102 -109 103 -274v-102q0 -152 -84 -230z" glyph-name="S" horiz-adv-x="681" unicode="S"/><glyph d="M596 1434v-45h-260v-1389h-45v1389h-264v45h569z" glyph-name="T" horiz-adv-x="620" unicode="T"/><glyph d="M553 51q-76 -70 -201 -69q-125 0 -200 69q-84 78 -84 230v1153h45v-1153q0 -131 69 -197q63 -57 170 -57q109 0 170 57q70 63 70 197v1153h45v-1153q0 -152 -84 -230z" glyph-name="U" horiz-adv-x="704" unicode="U"/><glyph d="M383 0h-47l-307 1434h45l286 -1334l285 1334h45z" glyph-name="V" horiz-adv-x="718" unicode="V"/><glyph d="M932 1434h47l-176 -1434h-25l-268 1079l-270 -1079h-25l-174 1434h45l152 -1262l260 1034h24l258 -1034z" glyph-name="W" horiz-adv-x="1017" unicode="W"/><glyph d="M369 680l-279 -680h-47l293 715l-305 719h49l289 -684l290 684h50l-306 -719l293 -715h-47z" glyph-name="X" horiz-adv-x="737" unicode="X"/><glyph d="M354 561l289 873h47l-313 -949v-485h-45v485l-314 949h48z" glyph-name="Y" unicode="Y"/><glyph d="M610 0h-569l504 1389h-504v45h567l-504 -1389h506v-45z" glyph-name="Z" horiz-adv-x="651" unicode="Z"/><glyph d="M367 0h-285v1434h285v-45h-240v-1344h240v-45z" glyph-name="bracketleft" horiz-adv-x="428" unicode="["/><glyph d="M451 0l-441 1434h47l441 -1434h-47z" glyph-name="backslash" horiz-adv-x="507" unicode="\"/><glyph d="M61 0v45h240v1344h-240v45h285v-1434h-285z" glyph-name="bracketright" horiz-adv-x="428" unicode="]"/><glyph d="M360 1374l-270 -608h-49l297 668h45l299 -668h-49z" glyph-name="asciicircum" horiz-adv-x="722" unicode="^"/><glyph d="M705 0h-685v45h685v-45z" glyph-name="underscore" horiz-adv-x="724" unicode="_"/><glyph d="M20 1710h64l129 -201h-41z" glyph-name="grave" horiz-adv-x="233" unicode="`"/><glyph d="M657 0l-86 408h-395l-88 -408h-47l309 1434h45l310 -1434h-48zM184 453h377l-188 878z" glyph-name="a" horiz-adv-x="745" unicode="a"/><glyph d="M565 63q-70 -63 -198 -63h-285v1434h250q127 0 198 -66q84 -74 84 -225v-152q0 -154 -84 -229q-23 -23 -57 -39q51 -16 94 -53q82 -80 82 -232v-149q0 -154 -84 -226zM127 692v-647h240q238 0 237 244v149q0 135 -67 197q-59 57 -170 57h-240zM127 1389v-652h205 q111 0 168 58q70 63 69 196v152q0 246 -237 246h-205z" glyph-name="b" horiz-adv-x="718" unicode="b"/><glyph d="M553 51q-74 -70 -201 -69q-125 0 -198 69q-84 76 -84 230v872q0 154 84 229q74 70 198 70q127 0 201 -70q84 -78 84 -229v-143h-45v143q0 133 -70 197q-61 57 -170 57q-106 0 -168 -57q-70 -63 -69 -197v-872q0 -133 69 -197q61 -57 168 -57q109 0 170 57q70 63 70 197 v211h45v-211q0 -152 -84 -230z" glyph-name="c" horiz-adv-x="702" unicode="c"/><glyph d="M565 63q-72 -63 -200 -63h-283v1434h283q127 0 200 -68q84 -78 84 -229v-848q0 -152 -84 -226zM127 1389v-1344h238q240 0 239 244v848q0 133 -69 196q-57 55 -170 56h-238z" glyph-name="d" horiz-adv-x="722" unicode="d"/><glyph d="M563 1389h-436v-631h305v-45h-305v-668h436v-45h-481v1434h481v-45z" glyph-name="e" horiz-adv-x="612" unicode="e"/><glyph d="M563 1389h-436v-633h305v-45h-305v-711h-45v1434h481v-45z" glyph-name="f" horiz-adv-x="598" unicode="f"/><glyph d="M555 49q-74 -68 -201 -67q-127 0 -200 67q-84 78 -84 230v874q0 152 84 229q76 70 200 70q125 0 201 -70q84 -78 84 -229v-143h-45v143q0 131 -70 197q-63 57 -170 57q-109 0 -170 -57q-70 -63 -69 -197v-874q0 -133 69 -197q59 -55 170 -55q109 0 170 55q70 66 70 197 v415h-240v45h285v-460q0 -152 -84 -230z" glyph-name="g" unicode="g"/><glyph d="M614 1434h45v-1434h-45v713h-477v-713h-45v1434h45v-676h477v676z" glyph-name="h" horiz-adv-x="751" unicode="h"/><glyph d="M147 0h-45v1434h45v-1434z" glyph-name="i" horiz-adv-x="249" unicode="i"/><glyph d="M543 49q-74 -68 -201 -67q-127 0 -201 67q-84 80 -84 230v204h45v-204q0 -131 70 -197q61 -55 170 -55t170 55q70 66 70 197v1155h45v-1155q0 -150 -84 -230z" glyph-name="j" horiz-adv-x="700" unicode="j"/><glyph d="M684 1434l-266 -684l266 -750h-47l-244 686l-266 -686h-45v1434h45v-1313l508 1313h49z" glyph-name="k" horiz-adv-x="720" unicode="k"/><glyph d="M563 0h-481v1434h45v-1389h436v-45z" glyph-name="l" horiz-adv-x="600" unicode="l"/><glyph d="M500 317l391 1117h24v-1434h-45v1249l-358 -1024h-25l-360 1024v-1249h-45v1434h24z" glyph-name="m" horiz-adv-x="997" unicode="m"/><glyph d="M680 1434v-1434h-25l-518 1272v-1272h-45v1434h25l518 -1272v1272h45z" glyph-name="n" horiz-adv-x="772" unicode="n"/><glyph d="M555 49q-78 -68 -201 -67q-123 0 -200 67q-84 80 -84 232v872q0 152 84 229q76 70 200 70q125 0 201 -70q84 -78 84 -229v-872q0 -152 -84 -232zM524 1350q-63 57 -170 57q-109 0 -170 -57q-70 -63 -69 -197v-872q0 -135 69 -197q57 -57 170 -57q111 0 170 57 q70 63 70 197v872q0 131 -70 197z" glyph-name="o" unicode="o"/><glyph d="M127 653v-653h-45v1434h283q125 0 200 -70q84 -80 84 -231v-183q0 -152 -84 -229q-70 -68 -200 -68h-238zM127 1389v-691h238q113 0 170 56q70 63 69 196v183q0 131 -69 198q-61 57 -170 58h-238z" glyph-name="p" horiz-adv-x="696" unicode="p"/><glyph d="M719 -229v-45h-29q-111 0 -176 59q-74 70 -74 203v2q-35 -8 -86 -8q-127 0 -200 67q-84 78 -84 230v874q0 152 84 229q76 70 200 70q125 0 201 -70q82 -76 82 -229v-874q0 -154 -82 -230q-31 -29 -70 -43v-18q0 -115 60 -168q53 -49 145 -49h29zM354 27q109 0 170 55 q68 66 68 197v874q0 133 -68 197q-63 57 -170 57q-109 0 -170 -57q-70 -63 -69 -197v-874q0 -133 69 -197q59 -55 170 -55z" glyph-name="q" unicode="q"/><glyph d="M649 0h-47l-213 653h-22h-240v-653h-45v1434h285q125 0 200 -70q84 -80 84 -231v-183q0 -152 -84 -229q-55 -49 -133 -62zM537 754q70 66 69 196v183q0 129 -69 198q-63 57 -170 58h-240v-691h240q109 1 170 56z" glyph-name="r" horiz-adv-x="702" unicode="r"/><glyph d="M543 51q-76 -70 -201 -69q-125 0 -201 69q-84 78 -84 230v215h45v-215q0 -131 70 -197q63 -57 170 -57q106 0 170 57q70 63 70 197v102q0 147 -90 244q-33 35 -69 57.5t-91 48.5q-57 27 -96 50.5t-76 62.5q-102 106 -103 268v41q0 150 84 229q74 68 201 68t201 -68 q84 -80 84 -229v-141h-45v141q0 133 -70 195q-59 57 -170 57t-170 -57q-70 -63 -70 -195v-41q0 -143 91 -237q33 -33 67.5 -53.5t93.5 -51.5q55 -27 94 -51.5t76 -63.5q102 -109 103 -274v-102q0 -152 -84 -230z" glyph-name="s" horiz-adv-x="681" unicode="s"/><glyph d="M596 1434v-45h-260v-1389h-45v1389h-264v45h569z" glyph-name="t" horiz-adv-x="620" unicode="t"/><glyph d="M553 51q-76 -70 -201 -69q-125 0 -200 69q-84 78 -84 230v1153h45v-1153q0 -131 69 -197q63 -57 170 -57q109 0 170 57q70 63 70 197v1153h45v-1153q0 -152 -84 -230z" glyph-name="u" horiz-adv-x="704" unicode="u"/><glyph d="M383 0h-47l-307 1434h45l286 -1334l285 1334h45z" glyph-name="v" horiz-adv-x="718" unicode="v"/><glyph d="M932 1434h47l-176 -1434h-25l-268 1079l-270 -1079h-25l-174 1434h45l152 -1262l260 1034h24l258 -1034z" glyph-name="w" horiz-adv-x="1017" unicode="w"/><glyph d="M369 680l-279 -680h-47l293 715l-305 719h49l289 -684l290 684h50l-306 -719l293 -715h-47z" glyph-name="x" horiz-adv-x="737" unicode="x"/><glyph d="M354 561l289 873h47l-313 -949v-485h-45v485l-314 949h48z" glyph-name="y" unicode="y"/><glyph d="M610 0h-569l504 1389h-504v45h567l-504 -1389h506v-45z" glyph-name="z" horiz-adv-x="651" unicode="z"/><glyph d="M496 27v-45q-129 0 -201 67q-84 76 -84 230v124q0 178 -158 295l-24 19l24 18q158 117 158 295v123q0 154 84 231q72 68 201 68v-45q-113 0 -170 -57q-70 -61 -70 -197v-123q0 -186 -152 -313q66 -55 109 -133t43 -181v-124q0 -133 70 -197q59 -55 170 -55z" glyph-name="braceleft" horiz-adv-x="557" unicode="{"/><glyph d="M455 -123h-45v1679h45v-1679z" glyph-name="bar" horiz-adv-x="864" unicode="|"/><glyph d="M262 49q-70 -68 -201 -67v45q113 0 170 55q70 63 70 197v124q0 102 43 180.5t109 133.5q-152 127 -152 313v123q0 135 -70 197q-57 57 -170 57v45q129 0 201 -68q84 -78 84 -231v-123q0 -178 158 -295l24 -18l-24 -19q-158 -117 -158 -295v-124q0 -154 -84 -230z" glyph-name="braceright" horiz-adv-x="557" unicode="}"/><glyph glyph-name="uni00A0" horiz-adv-x="1228" unicode=" "/><glyph d="M177.5 1417.5q17.5 -16.5 17.5 -39.5t-17.5 -40t-40.5 -17t-39 17.5t-16 39.5q0 23 16.5 39.5t38.5 16.5q23 0 40.5 -16.5zM154 1163l6 -444v-719h-45v719l8 444h31z" glyph-name="exclamdown" horiz-adv-x="276" unicode="¡"/><glyph d="M606 1008v125q0 133 -69 196q-61 57 -168 57q-109 0 -170 -57q-70 -63 -70 -196v-832q0 -133 70 -197q61 -57 170 -57q106 0 168 57q70 63 69 197v188h45v-188q0 -152 -84 -229q-66 -63 -176 -70v-59h-45v59q-111 6 -178 70q-84 78 -84 229v832q0 152 84 229 q68 63 178 70v59h45v-59q111 -6 176 -70q84 -78 84 -229v-125h-45z" glyph-name="cent" horiz-adv-x="727" unicode="¢"/><glyph d="M825 45v-45h-762v45h19q6 0 28.5 2t57.5 11.5t68 27.5q150 76 149 276v52v65q0 68 -5 112t-22 66h-245v45h204q-29 45 -43 109q-18 84 -18 217v125q0 152 84 229q76 70 201 70t200 -70q84 -78 84 -229v-43h-45v43q0 133 -69 197q-61 57 -170 57q-106 0 -170 -57 q-70 -66 -70 -197v-125q0 -129 18 -207q18 -82 58 -119h317v-45h-284q20 -53 20 -176v-67v-52q0 -127 -50 -203.5t-124 -113.5h569z" glyph-name="sterling" horiz-adv-x="892" unicode="£"/><glyph d="M551 387l-35 -27l62 -157l-41 -17l-62 154q-57 -23 -125 -23t-125 23l-61 -154l-41 17l61 157q-25 16 -34 27q-84 78 -84 229v201q0 152 84 230q10 10 34 26l-61 158l41 16l61 -153q57 23 125 22q68 0 125 -22l62 153l41 -16l-62 -158l35 -26q84 -78 84 -230v-201 q0 -151 -84 -229zM590 616v201q0 131 -70 197q-63 57 -170 57q-106 0 -170 -57q-70 -66 -69 -197v-201q0 -131 69 -196q63 -57 170 -58q106 0 170 58q70 65 70 196z" glyph-name="currency" horiz-adv-x="700" unicode="¤"/><glyph d="M698 463h-319v-98h319v-46h-319v-319h-45v319h-320v46h320v98h-320v45h312l-306 926h48l288 -873l289 873h47l-305 -926h311v-45z" glyph-name="yen" horiz-adv-x="712" unicode="¥"/><glyph d="M410 -123v684h45v-684h-45zM455 1556v-647h-45v647h45z" glyph-name="brokenbar" horiz-adv-x="864" unicode="¦"/><glyph d="M594 1112v84q0 100 -65.5 155.5t-172.5 55.5q-104 0 -171.5 -54.5t-67.5 -156.5q0 -92 58 -156.5t192 -107.5q145 -47 208.5 -114.5t63.5 -174.5q0 -111 -68.5 -178.5t-179.5 -77.5q129 -47 188.5 -119.5t59.5 -177.5q0 -119 -79 -188.5t-204 -69.5q-121 0 -202.5 68.5 t-81.5 189.5v72h45v-72q0 -98 67.5 -155.5t171.5 -57.5q102 0 170 55.5t68 157.5q0 94 -57.5 157.5t-192.5 108.5q-147 49 -209.5 115t-62.5 172q0 113 71.5 180.5t186.5 75.5q-137 47 -197.5 119t-60.5 178q0 119 79.5 187.5t204.5 68.5q123 0 203 -67.5t80 -188.5v-84h-45 zM526.5 485.5q67.5 55.5 67.5 157.5q0 100 -65.5 155.5t-172.5 55.5q-104 0 -171.5 -54.5t-67.5 -156.5q0 -98 67.5 -155.5t171.5 -57.5q103 0 170.5 55.5z" glyph-name="section" horiz-adv-x="712" unicode="§"/><glyph d="M111.5 1600.5q15.5 -15.5 15.5 -37.5q0 -23 -15.5 -38.5t-37.5 -15.5q-20 0 -37 16.5t-17 37.5q0 23 15.5 38t38.5 15q22 0 37.5 -15.5zM386 1600.5q15 -15.5 15 -37.5q0 -23 -15 -38.5t-38 -15.5q-20 0 -36.5 16.5t-16.5 37.5q0 23 15.5 38t37.5 15q23 0 38 -15.5z" glyph-name="dieresis" horiz-adv-x="421" unicode="¨"/><glyph d="M1030 893v-41h-45v41q0 133 -70 197q-61 57 -170 57q-106 0 -167 -57q-70 -63 -70 -197v-356q0 -133 70 -197q61 -57 167 -57q109 0 170 57q70 63 70 197v41h45v-41q0 -152 -84 -230q-74 -70 -201 -69q-125 0 -198 69q-84 76 -84 230v356q0 154 84 229q74 70 198 70 q127 0 201 -70q84 -77 84 -229zM1105 1355q161 -95 253 -263t92 -377t-92 -377t-253 -262t-360 -94t-359.5 94t-252.5 262t-92 377t92 377t253 263t359 95q199 0 360 -95zM1080.5 119q150.5 88 235.5 244.5t85 351.5q0 197 -85 352.5t-235.5 244.5t-335.5 89 q-184 0 -334.5 -89t-235.5 -245t-85 -352q0 -195 85 -351.5t235.5 -244.5t334.5 -88q185 0 335.5 88z" glyph-name="copyright" horiz-adv-x="1490" unicode="©"/><glyph d="M33 735l303 547h51l-303 -547l303 -547h-51zM217 735l303 547h51l-303 -547l303 -547h-51z" glyph-name="guillemotleft" horiz-adv-x="604" unicode="«"/><glyph d="M1105 1355q161 -95 253 -263t92 -377t-92 -377t-253 -262t-360 -94t-359.5 94t-252.5 262t-92 377t92 377t253 263t359 95q199 0 360 -95zM1080.5 119q150.5 88 235.5 244.5t85 351.5q0 197 -85 352.5t-235.5 244.5t-335.5 89q-184 0 -334.5 -89t-235.5 -245t-85 -352 q0 -195 85 -351.5t235.5 -244.5t334.5 -88q185 0 335.5 88zM1073 305h-51l-225 348h-15h-239v-348h-45v828h284q92 0 158 -35t100.5 -91.5t34.5 -119.5q0 -82 -58.5 -146.5t-166.5 -81.5zM961.5 752.5q62.5 54.5 62.5 132.5q0 82 -64.5 142t-177.5 60h-239v-389h239 q117 0 179.5 54.5z" glyph-name="registered" horiz-adv-x="1490" unicode="®"/><glyph d="M705 1509h-685v45h685v-45z" glyph-name="macron" horiz-adv-x="724" unicode="¯"/><glyph d="M213 1710l-152 -201h-41l130 201h63z" glyph-name="acute" horiz-adv-x="233" unicode="´"/><glyph d="M598 1434v-1434h-45v1389h-45v-1389h-45v653h-150q-127 0 -200 68q-84 78 -84 229v183q0 152 84 231q76 70 200 70h285z" glyph-name="paragraph" horiz-adv-x="679" unicode="¶"/><glyph d="M173 771q15 -15 15 -38q0 -20 -15 -36.5t-38 -16.5q-20 0 -36.5 16.5t-16.5 36.5q0 23 16.5 38t36.5 15q23 0 38 -15z" glyph-name="periodcentered" horiz-adv-x="270" unicode="·"/><glyph d="M206 -230.5q-32 -31.5 -77 -31.5t-77 31.5t-32 76.5h46q0 -27 18 -45t45 -18t45.5 18.5t18.5 44.5q0 23 -10.5 36.5t-30.5 27.5l-5 2q-41 31 -41 80v8h46v-8q0 -27 22 -43l4 -4q27 -16 43.5 -39t16.5 -60q0 -45 -32 -76.5z" glyph-name="cedilla" horiz-adv-x="258" unicode="¸"/><glyph d="M571 735l-303 -547h-51l303 547l-303 547h51zM387 735l-303 -547h-51l303 547l-303 547h51z" glyph-name="guillemotright" horiz-adv-x="604" unicode="»"/><glyph d="M448.5 1374q10.5 -10 24.5 -10t24.5 10t10.5 25q0 14 -10.5 24.5t-24.5 10.5t-24.5 -10.5t-10.5 -24.5q0 -15 10.5 -25zM434.5 1338.5q-16.5 17.5 -16.5 39.5q0 23 16.5 39.5t38.5 16.5q25 0 41 -16.5t16 -39.5t-16 -40t-41 -17q-22 0 -38.5 17.5zM494 1157v-74 q0 -115 -28 -186.5t-68 -112.5t-105 -86q-63 -45 -99 -81.5t-62 -100t-26 -164.5v-71q0 -131 70 -197q68 -57 172 -57q106 0 170 57q70 66 70 197v143h45v-143q0 -152 -84 -230q-76 -70 -201 -69q-123 0 -203 69q-84 78 -84 230v71q0 111 27 181.5t66 109.5t104 86 q66 47 102.5 84t62.5 102.5t26 167.5v74h45z" glyph-name="questiondown" horiz-adv-x="694" unicode="¿"/><glyph d="M657 0l-86 408h-395l-88 -408h-47l309 1434h45l310 -1434h-48zM184 453h377l-188 878zM201 1710h63l129 -201h-41z" glyph-name="Agrave" horiz-adv-x="745" unicode="À"/><glyph d="M657 0l-86 408h-395l-88 -408h-47l309 1434h45l310 -1434h-48zM184 453h377l-188 878zM545 1710l-152 -201h-41l129 201h64z" glyph-name="Aacute" horiz-adv-x="745" unicode="Á"/><glyph d="M657 0l-86 408h-395l-88 -408h-47l309 1434h45l310 -1434h-48zM184 453h377l-188 878zM346 1710h55l138 -201h-41l-125 158l-125 -158h-41z" glyph-name="Acircumflex" horiz-adv-x="745" unicode="Â"/><glyph d="M657 0l-86 408h-395l-88 -408h-47l309 1434h45l310 -1434h-48zM184 453h377l-188 878zM268 1581q-55 0 -112 -70l-35 29q63 76 127 84l20 2q45 0 117 -41q47 -29 84 -29q55 0 111 68l34 -27q-59 -76 -122 -84q-6 -2 -23 -2q-47 0 -109 37q-53 33 -92 33z" glyph-name="Atilde" horiz-adv-x="745" unicode="Ã"/><glyph d="M657 0l-86 408h-395l-88 -408h-47l309 1434h45l310 -1434h-48zM184 453h377l-188 878zM273.5 1600.5q15.5 -15.5 15.5 -37.5q0 -23 -15.5 -38.5t-37.5 -15.5q-20 0 -37 16.5t-17 37.5q0 23 15.5 38t38.5 15q22 0 37.5 -15.5zM547.5 1600.5q15.5 -15.5 15.5 -37.5 q0 -23 -15.5 -38.5t-37.5 -15.5q-20 0 -36.5 16.5t-16.5 37.5q0 23 15 38t38 15q22 0 37.5 -15.5z" glyph-name="Adieresis" horiz-adv-x="745" unicode="Ä"/><glyph d="M657 0l-86 408h-395l-88 -408h-47l309 1434h45l310 -1434h-48zM184 453h377l-188 878zM449.5 1541q-31.5 -32 -76.5 -32t-77 32t-32 77t32 76.5t77 31.5t76.5 -31.5t31.5 -76.5t-31.5 -77zM417.5 1663q-18.5 18 -44.5 18q-27 0 -45.5 -18t-18.5 -45t18.5 -45.5 t45.5 -18.5t45 18.5t18 45.5t-18.5 45z" glyph-name="Aring" horiz-adv-x="745" unicode="Å"/><glyph d="M494 1434h75h443v-45h-437v-631h306v-45h-306v-668h437v-45h-482v330h-337l-105 -330h-47zM530 375v1009l-323 -1009h323z" glyph-name="AE" horiz-adv-x="1060" unicode="Æ"/><glyph d="M592 1008v145q0 133 -70 197q-61 57 -170 57q-106 0 -168 -57q-70 -63 -69 -197v-874q0 -133 69 -197q61 -57 168 -57q109 0 170 57q70 63 70 197v210h45v-210q0 -152 -84 -230q-63 -61 -178 -67q4 -20 22 -35l4 -4q27 -18 43.5 -40t16.5 -59q0 -45 -32 -76.5t-77 -31.5 t-76.5 31.5t-31.5 76.5h45q0 -27 18.5 -45t44.5 -18q27 0 45.5 18.5t18.5 44.5q0 23 -9.5 35t-31.5 29l-4 2q-37 29 -41 72q-113 6 -176 67q-84 78 -84 230v874q0 152 84 229q74 70 198 70q127 0 201 -70q84 -78 84 -229v-145h-45z" glyph-name="Ccedilla" horiz-adv-x="702" unicode="Ç"/><glyph d="M563 1389h-436v-631h305v-45h-305v-668h436v-45h-481v1434h481v-45zM152 1710h63l129 -201h-41z" glyph-name="Egrave" horiz-adv-x="612" unicode="È"/><glyph d="M563 1389h-436v-631h305v-45h-305v-668h436v-45h-481v1434h481v-45zM496 1710l-152 -201h-41l129 201h64z" glyph-name="Eacute" horiz-adv-x="612" unicode="É"/><glyph d="M563 1389h-436v-631h305v-45h-305v-668h436v-45h-481v1434h481v-45zM297 1710h55l137 -201h-40l-125 158l-125 -158h-41z" glyph-name="Ecircumflex" horiz-adv-x="612" unicode="Ê"/><glyph d="M563 1389h-436v-631h305v-45h-305v-668h436v-45h-481v1434h481v-45zM224.5 1600.5q15.5 -15.5 15.5 -37.5q0 -23 -15.5 -38.5t-38.5 -15.5q-20 0 -36.5 16.5t-16.5 37.5q0 23 15.5 38t37.5 15q23 0 38.5 -15.5zM498.5 1600.5q15.5 -15.5 15.5 -37.5q0 -23 -15.5 -38.5 t-37.5 -15.5q-20 0 -36.5 16.5t-16.5 37.5q0 23 15 38t38 15q22 0 37.5 -15.5z" glyph-name="Edieresis" horiz-adv-x="612" unicode="Ë"/><glyph d="M147 0h-45v1434h45v-1434zM-47 1710h63l129 -201h-41z" glyph-name="Igrave" horiz-adv-x="249" unicode="Ì"/><glyph d="M147 0h-45v1434h45v-1434zM297 1710l-152 -201h-41l129 201h64z" glyph-name="Iacute" horiz-adv-x="249" unicode="Í"/><glyph d="M147 0h-45v1434h45v-1434zM98 1710h56l137 -201h-41l-125 158l-125 -158h-41z" glyph-name="Icircumflex" horiz-adv-x="249" unicode="Î"/><glyph d="M147 0h-45v1434h45v-1434zM25.5 1600.5q15.5 -15.5 15.5 -37.5q0 -23 -15.5 -38.5t-37.5 -15.5q-23 0 -38.5 16.5t-15.5 37.5q0 23 15.5 38t38.5 15q22 0 37.5 -15.5zM300 1600.5q15 -15.5 15 -37.5q0 -23 -15 -38.5t-38 -15.5q-20 0 -36.5 16.5t-16.5 37.5q0 23 15.5 38 t37.5 15q23 0 38 -15.5z" glyph-name="Idieresis" horiz-adv-x="249" unicode="Ï"/><glyph d="M659 1135v-846q0 -152 -84 -226q-74 -63 -200 -63h-283v692h-82v45h82v697h283q127 0 200 -70q84 -77 84 -229zM614 1135q0 133 -69 196q-61 57 -170 58h-238v-652h164v-45h-164v-647h238q240 0 239 244v846z" glyph-name="Eth" horiz-adv-x="733" unicode="Ð"/><glyph d="M680 1434v-1434h-25l-518 1272v-1272h-45v1434h25l518 -1272v1272h45zM287 1581q-55 0 -113 -70l-35 29q63 76 127 84l21 2q45 0 116 -41q47 -29 84 -29q55 0 111 68l35 -27q-59 -76 -123 -84q-6 -2 -23 -2q-47 0 -108 37q-53 33 -92 33z" glyph-name="Ntilde" horiz-adv-x="772" unicode="Ñ"/><glyph d="M555 49q-78 -68 -201 -67q-123 0 -200 67q-84 80 -84 232v872q0 152 84 229q76 70 200 70q125 0 201 -70q84 -78 84 -229v-872q0 -152 -84 -232zM524 1350q-63 57 -170 57q-109 0 -170 -57q-70 -63 -69 -197v-872q0 -135 69 -197q57 -57 170 -57q111 0 170 57 q70 63 70 197v872q0 131 -70 197zM182 1710h64l129 -201h-41z" glyph-name="Ograve" unicode="Ò"/><glyph d="M555 49q-78 -68 -201 -67q-123 0 -200 67q-84 80 -84 232v872q0 152 84 229q76 70 200 70q125 0 201 -70q84 -78 84 -229v-872q0 -152 -84 -232zM524 1350q-63 57 -170 57q-109 0 -170 -57q-70 -63 -69 -197v-872q0 -135 69 -197q57 -57 170 -57q111 0 170 57 q70 63 70 197v872q0 131 -70 197zM526 1710l-151 -201h-41l129 201h63z" glyph-name="Oacute" unicode="Ó"/><glyph d="M555 49q-78 -68 -201 -67q-123 0 -200 67q-84 80 -84 232v872q0 152 84 229q76 70 200 70q125 0 201 -70q84 -78 84 -229v-872q0 -152 -84 -232zM524 1350q-63 57 -170 57q-109 0 -170 -57q-70 -63 -69 -197v-872q0 -135 69 -197q57 -57 170 -57q111 0 170 57 q70 63 70 197v872q0 131 -70 197zM328 1710h55l137 -201h-41l-125 158l-125 -158h-41z" glyph-name="Ocircumflex" unicode="Ô"/><glyph d="M555 49q-78 -68 -201 -67q-123 0 -200 67q-84 80 -84 232v872q0 152 84 229q76 70 200 70q125 0 201 -70q84 -78 84 -229v-872q0 -152 -84 -232zM524 1350q-63 57 -170 57q-109 0 -170 -57q-70 -63 -69 -197v-872q0 -135 69 -197q57 -57 170 -57q111 0 170 57 q70 63 70 197v872q0 131 -70 197zM256 1581q-55 0 -113 -70l-34 29q63 76 127 84l20 2q45 0 117 -41q47 -29 84 -29q55 0 110 68l35 -27q-59 -76 -123 -84q-6 -2 -22 -2q-47 0 -109 37q-53 33 -92 33z" glyph-name="Otilde" unicode="Õ"/><glyph d="M555 49q-78 -68 -201 -67q-123 0 -200 67q-84 80 -84 232v872q0 152 84 229q76 70 200 70q125 0 201 -70q84 -78 84 -229v-872q0 -152 -84 -232zM524 1350q-63 57 -170 57q-109 0 -170 -57q-70 -63 -69 -197v-872q0 -135 69 -197q57 -57 170 -57q111 0 170 57 q70 63 70 197v872q0 131 -70 197zM253 1600.5q15 -15.5 15 -37.5q0 -23 -15 -38.5t-38 -15.5q-20 0 -36.5 16.5t-16.5 37.5q0 23 15.5 38t37.5 15q23 0 38 -15.5zM527.5 1600.5q15.5 -15.5 15.5 -37.5q0 -23 -15.5 -38.5t-38.5 -15.5q-20 0 -36.5 16.5t-16.5 37.5 q0 23 15.5 38t37.5 15q23 0 38.5 -15.5z" glyph-name="Odieresis" unicode="Ö"/><glyph d="M606 453l-534 532l32 33l533 -535zM104 453l-32 30l534 535l31 -33z" glyph-name="multiply" unicode="×"/><glyph d="M608 1309q29 -59 29 -152v-876q0 -154 -84 -230q-74 -70 -199 -69q-127 0 -200 69q-10 8 -27 29l-37 -94l-41 16l49 127q-29 63 -28 152v876q0 150 84 229q72 68 200 68q127 0 199 -68l27 -28l36 96l43 -16zM123 193l436 1114q-14 27 -37 45q-57 57 -168 57 q-113 0 -170 -57q-70 -61 -69 -195v-876q0 -53 8 -88zM584 1243l-437 -1112q16 -29 37 -47q61 -57 170 -57q106 0 168 57q70 63 70 197v876q0 53 -8 86z" glyph-name="Oslash" unicode="Ø"/><glyph d="M553 51q-76 -70 -201 -69q-125 0 -200 69q-84 78 -84 230v1153h45v-1153q0 -131 69 -197q63 -57 170 -57q109 0 170 57q70 63 70 197v1153h45v-1153q0 -152 -84 -230zM180 1710h64l129 -201h-41z" glyph-name="Ugrave" horiz-adv-x="704" unicode="Ù"/><glyph d="M553 51q-76 -70 -201 -69q-125 0 -200 69q-84 78 -84 230v1153h45v-1153q0 -131 69 -197q63 -57 170 -57q109 0 170 57q70 63 70 197v1153h45v-1153q0 -152 -84 -230zM524 1710l-151 -201h-41l129 201h63z" glyph-name="Uacute" horiz-adv-x="704" unicode="Ú"/><glyph d="M553 51q-76 -70 -201 -69q-125 0 -200 69q-84 78 -84 230v1153h45v-1153q0 -131 69 -197q63 -57 170 -57q109 0 170 57q70 63 70 197v1153h45v-1153q0 -152 -84 -230zM326 1710h55l137 -201h-41l-125 158l-125 -158h-41z" glyph-name="Ucircumflex" horiz-adv-x="704" unicode="Û"/><glyph d="M553 51q-76 -70 -201 -69q-125 0 -200 69q-84 78 -84 230v1153h45v-1153q0 -131 69 -197q63 -57 170 -57q109 0 170 57q70 63 70 197v1153h45v-1153q0 -152 -84 -230zM253 1600.5q15 -15.5 15 -37.5q0 -23 -15 -38.5t-38 -15.5q-20 0 -36.5 16.5t-16.5 37.5q0 23 15.5 38 t37.5 15q23 0 38 -15.5zM527.5 1600.5q15.5 -15.5 15.5 -37.5q0 -23 -15.5 -38.5t-38.5 -15.5q-20 0 -36.5 16.5t-16.5 37.5q0 23 15.5 38t37.5 15q23 0 38.5 -15.5z" glyph-name="Udieresis" horiz-adv-x="704" unicode="Ü"/><glyph d="M354 561l289 873h47l-313 -949v-485h-45v485l-314 949h48zM526 1710l-151 -201h-41l129 201h63z" glyph-name="Yacute" unicode="Ý"/><glyph d="M127 1270v-690h238q113 0 170 55q70 63 69 196v183q0 131 -69 198q-61 57 -170 58h-238zM127 535v-535h-45v1434h45v-119h238q125 0 200 -70q84 -80 84 -231v-183q0 -152 -84 -229q-70 -68 -200 -67h-238z" glyph-name="Thorn" horiz-adv-x="696" unicode="Þ"/><glyph d="M649 438v-149q0 -154 -84 -226q-70 -63 -198 -63h-285v1143q0 152 84 225q33 29 80 47.5t102 18.5t102.5 -18.5t79.5 -47.5q84 -74 84 -225v-152q0 -154 -84 -229q-23 -23 -57 -39q51 -16 94 -53q82 -80 82 -232zM127 737h205q111 0 168 58q70 63 69 196v152 q0 117 -58 181.5t-163 64.5q-104 0 -162.5 -64.5t-58.5 -181.5v-406zM604 438q0 135 -67 197q-59 57 -170 57h-240v-647h240q238 0 237 244v149z" glyph-name="germandbls" horiz-adv-x="718" unicode="ß"/><glyph d="M657 0l-86 408h-395l-88 -408h-47l309 1434h45l310 -1434h-48zM184 453h377l-188 878zM201 1710h63l129 -201h-41z" glyph-name="agrave" horiz-adv-x="745" unicode="à"/><glyph d="M657 0l-86 408h-395l-88 -408h-47l309 1434h45l310 -1434h-48zM184 453h377l-188 878zM545 1710l-152 -201h-41l129 201h64z" glyph-name="aacute" horiz-adv-x="745" unicode="á"/><glyph d="M657 0l-86 408h-395l-88 -408h-47l309 1434h45l310 -1434h-48zM184 453h377l-188 878zM346 1710h55l138 -201h-41l-125 158l-125 -158h-41z" glyph-name="acircumflex" horiz-adv-x="745" unicode="â"/><glyph d="M657 0l-86 408h-395l-88 -408h-47l309 1434h45l310 -1434h-48zM184 453h377l-188 878zM268 1581q-55 0 -112 -70l-35 29q63 76 127 84l20 2q45 0 117 -41q47 -29 84 -29q55 0 111 68l34 -27q-59 -76 -122 -84q-6 -2 -23 -2q-47 0 -109 37q-53 33 -92 33z" glyph-name="atilde" horiz-adv-x="745" unicode="ã"/><glyph d="M657 0l-86 408h-395l-88 -408h-47l309 1434h45l310 -1434h-48zM184 453h377l-188 878zM273.5 1600.5q15.5 -15.5 15.5 -37.5q0 -23 -15.5 -38.5t-37.5 -15.5q-20 0 -37 16.5t-17 37.5q0 23 15.5 38t38.5 15q22 0 37.5 -15.5zM547.5 1600.5q15.5 -15.5 15.5 -37.5 q0 -23 -15.5 -38.5t-37.5 -15.5q-20 0 -36.5 16.5t-16.5 37.5q0 23 15 38t38 15q22 0 37.5 -15.5z" glyph-name="adieresis" horiz-adv-x="745" unicode="ä"/><glyph d="M657 0l-86 408h-395l-88 -408h-47l309 1434h45l310 -1434h-48zM184 453h377l-188 878zM449.5 1541q-31.5 -32 -76.5 -32t-77 32t-32 77t32 76.5t77 31.5t76.5 -31.5t31.5 -76.5t-31.5 -77zM417.5 1663q-18.5 18 -44.5 18q-27 0 -45.5 -18t-18.5 -45t18.5 -45.5 t45.5 -18.5t45 18.5t18 45.5t-18.5 45z" glyph-name="aring" horiz-adv-x="745" unicode="å"/><glyph d="M494 1434h75h443v-45h-437v-631h306v-45h-306v-668h437v-45h-482v330h-337l-105 -330h-47zM530 375v1009l-323 -1009h323z" glyph-name="ae" horiz-adv-x="1060" unicode="æ"/><glyph d="M592 1008v145q0 133 -70 197q-61 57 -170 57q-106 0 -168 -57q-70 -63 -69 -197v-874q0 -133 69 -197q61 -57 168 -57q109 0 170 57q70 63 70 197v210h45v-210q0 -152 -84 -230q-63 -61 -178 -67q4 -20 22 -35l4 -4q27 -18 43.5 -40t16.5 -59q0 -45 -32 -76.5t-77 -31.5 t-76.5 31.5t-31.5 76.5h45q0 -27 18.5 -45t44.5 -18q27 0 45.5 18.5t18.5 44.5q0 23 -9.5 35t-31.5 29l-4 2q-37 29 -41 72q-113 6 -176 67q-84 78 -84 230v874q0 152 84 229q74 70 198 70q127 0 201 -70q84 -78 84 -229v-145h-45z" glyph-name="ccedilla" horiz-adv-x="702" unicode="ç"/><glyph d="M563 1389h-436v-631h305v-45h-305v-668h436v-45h-481v1434h481v-45zM152 1710h63l129 -201h-41z" glyph-name="egrave" horiz-adv-x="612" unicode="è"/><glyph d="M563 1389h-436v-631h305v-45h-305v-668h436v-45h-481v1434h481v-45zM496 1710l-152 -201h-41l129 201h64z" glyph-name="eacute" horiz-adv-x="612" unicode="é"/><glyph d="M563 1389h-436v-631h305v-45h-305v-668h436v-45h-481v1434h481v-45zM297 1710h55l137 -201h-40l-125 158l-125 -158h-41z" glyph-name="ecircumflex" horiz-adv-x="612" unicode="ê"/><glyph d="M563 1389h-436v-631h305v-45h-305v-668h436v-45h-481v1434h481v-45zM224.5 1600.5q15.5 -15.5 15.5 -37.5q0 -23 -15.5 -38.5t-38.5 -15.5q-20 0 -36.5 16.5t-16.5 37.5q0 23 15.5 38t37.5 15q23 0 38.5 -15.5zM498.5 1600.5q15.5 -15.5 15.5 -37.5q0 -23 -15.5 -38.5 t-37.5 -15.5q-20 0 -36.5 16.5t-16.5 37.5q0 23 15 38t38 15q22 0 37.5 -15.5z" glyph-name="edieresis" horiz-adv-x="612" unicode="ë"/><glyph d="M147 0h-45v1434h45v-1434zM-47 1710h63l129 -201h-41z" glyph-name="igrave" horiz-adv-x="249" unicode="ì"/><glyph d="M147 0h-45v1434h45v-1434zM297 1710l-152 -201h-41l129 201h64z" glyph-name="iacute" horiz-adv-x="249" unicode="í"/><glyph d="M147 0h-45v1434h45v-1434zM98 1710h56l137 -201h-41l-125 158l-125 -158h-41z" glyph-name="icircumflex" horiz-adv-x="249" unicode="î"/><glyph d="M147 0h-45v1434h45v-1434zM25.5 1600.5q15.5 -15.5 15.5 -37.5q0 -23 -15.5 -38.5t-37.5 -15.5q-23 0 -38.5 16.5t-15.5 37.5q0 23 15.5 38t38.5 15q22 0 37.5 -15.5zM300 1600.5q15 -15.5 15 -37.5q0 -23 -15 -38.5t-38 -15.5q-20 0 -36.5 16.5t-16.5 37.5q0 23 15.5 38 t37.5 15q23 0 38 -15.5z" glyph-name="idieresis" horiz-adv-x="249" unicode="ï"/><glyph d="M659 1135v-846q0 -152 -84 -226q-74 -63 -200 -63h-283v692h-82v45h82v697h283q127 0 200 -70q84 -77 84 -229zM614 1135q0 133 -69 196q-61 57 -170 58h-238v-652h164v-45h-164v-647h238q240 0 239 244v846z" glyph-name="eth" horiz-adv-x="733" unicode="ð"/><glyph d="M680 1434v-1434h-25l-518 1272v-1272h-45v1434h25l518 -1272v1272h45zM287 1581q-55 0 -113 -70l-35 29q63 76 127 84l21 2q45 0 116 -41q47 -29 84 -29q55 0 111 68l35 -27q-59 -76 -123 -84q-6 -2 -23 -2q-47 0 -108 37q-53 33 -92 33z" glyph-name="ntilde" horiz-adv-x="772" unicode="ñ"/><glyph d="M555 49q-78 -68 -201 -67q-123 0 -200 67q-84 80 -84 232v872q0 152 84 229q76 70 200 70q125 0 201 -70q84 -78 84 -229v-872q0 -152 -84 -232zM524 1350q-63 57 -170 57q-109 0 -170 -57q-70 -63 -69 -197v-872q0 -135 69 -197q57 -57 170 -57q111 0 170 57 q70 63 70 197v872q0 131 -70 197zM182 1710h64l129 -201h-41z" glyph-name="ograve" unicode="ò"/><glyph d="M555 49q-78 -68 -201 -67q-123 0 -200 67q-84 80 -84 232v872q0 152 84 229q76 70 200 70q125 0 201 -70q84 -78 84 -229v-872q0 -152 -84 -232zM524 1350q-63 57 -170 57q-109 0 -170 -57q-70 -63 -69 -197v-872q0 -135 69 -197q57 -57 170 -57q111 0 170 57 q70 63 70 197v872q0 131 -70 197zM526 1710l-151 -201h-41l129 201h63z" glyph-name="oacute" unicode="ó"/><glyph d="M555 49q-78 -68 -201 -67q-123 0 -200 67q-84 80 -84 232v872q0 152 84 229q76 70 200 70q125 0 201 -70q84 -78 84 -229v-872q0 -152 -84 -232zM524 1350q-63 57 -170 57q-109 0 -170 -57q-70 -63 -69 -197v-872q0 -135 69 -197q57 -57 170 -57q111 0 170 57 q70 63 70 197v872q0 131 -70 197zM328 1710h55l137 -201h-41l-125 158l-125 -158h-41z" glyph-name="ocircumflex" unicode="ô"/><glyph d="M555 49q-78 -68 -201 -67q-123 0 -200 67q-84 80 -84 232v872q0 152 84 229q76 70 200 70q125 0 201 -70q84 -78 84 -229v-872q0 -152 -84 -232zM524 1350q-63 57 -170 57q-109 0 -170 -57q-70 -63 -69 -197v-872q0 -135 69 -197q57 -57 170 -57q111 0 170 57 q70 63 70 197v872q0 131 -70 197zM256 1581q-55 0 -113 -70l-34 29q63 76 127 84l20 2q45 0 117 -41q47 -29 84 -29q55 0 110 68l35 -27q-59 -76 -123 -84q-6 -2 -22 -2q-47 0 -109 37q-53 33 -92 33z" glyph-name="otilde" unicode="õ"/><glyph d="M555 49q-78 -68 -201 -67q-123 0 -200 67q-84 80 -84 232v872q0 152 84 229q76 70 200 70q125 0 201 -70q84 -78 84 -229v-872q0 -152 -84 -232zM524 1350q-63 57 -170 57q-109 0 -170 -57q-70 -63 -69 -197v-872q0 -135 69 -197q57 -57 170 -57q111 0 170 57 q70 63 70 197v872q0 131 -70 197zM253 1600.5q15 -15.5 15 -37.5q0 -23 -15 -38.5t-38 -15.5q-20 0 -36.5 16.5t-16.5 37.5q0 23 15.5 38t37.5 15q23 0 38 -15.5zM527.5 1600.5q15.5 -15.5 15.5 -37.5q0 -23 -15.5 -38.5t-38.5 -15.5q-20 0 -36.5 16.5t-16.5 37.5 q0 23 15.5 38t37.5 15q23 0 38.5 -15.5z" glyph-name="odieresis" unicode="ö"/><glyph d="M756 713h-684v45h684v-45zM756 713v45h-684v-45h684zM452.5 1002.5q16.5 -17.5 16.5 -39.5q0 -23 -16.5 -39.5t-38.5 -16.5q-23 0 -39.5 16.5t-16.5 39.5t16.5 40t39.5 17q22 0 38.5 -17.5zM452.5 545.5q16.5 -17.5 16.5 -39.5q0 -23 -16.5 -39t-38.5 -16q-23 0 -39.5 16 t-16.5 39t16.5 40t39.5 17q22 0 38.5 -17.5z" glyph-name="divide" horiz-adv-x="827" unicode="÷"/><glyph d="M608 1309q29 -59 29 -152v-876q0 -154 -84 -230q-74 -70 -199 -69q-127 0 -200 69q-10 8 -27 29l-37 -94l-41 16l49 127q-29 63 -28 152v876q0 150 84 229q72 68 200 68q127 0 199 -68l27 -28l36 96l43 -16zM123 193l436 1114q-14 27 -37 45q-57 57 -168 57 q-113 0 -170 -57q-70 -61 -69 -195v-876q0 -53 8 -88zM584 1243l-437 -1112q16 -29 37 -47q61 -57 170 -57q106 0 168 57q70 63 70 197v876q0 53 -8 86z" glyph-name="oslash" unicode="ø"/><glyph d="M553 51q-76 -70 -201 -69q-125 0 -200 69q-84 78 -84 230v1153h45v-1153q0 -131 69 -197q63 -57 170 -57q109 0 170 57q70 63 70 197v1153h45v-1153q0 -152 -84 -230zM180 1710h64l129 -201h-41z" glyph-name="ugrave" horiz-adv-x="704" unicode="ù"/><glyph d="M553 51q-76 -70 -201 -69q-125 0 -200 69q-84 78 -84 230v1153h45v-1153q0 -131 69 -197q63 -57 170 -57q109 0 170 57q70 63 70 197v1153h45v-1153q0 -152 -84 -230zM524 1710l-151 -201h-41l129 201h63z" glyph-name="uacute" horiz-adv-x="704" unicode="ú"/><glyph d="M553 51q-76 -70 -201 -69q-125 0 -200 69q-84 78 -84 230v1153h45v-1153q0 -131 69 -197q63 -57 170 -57q109 0 170 57q70 63 70 197v1153h45v-1153q0 -152 -84 -230zM326 1710h55l137 -201h-41l-125 158l-125 -158h-41z" glyph-name="ucircumflex" horiz-adv-x="704" unicode="û"/><glyph d="M553 51q-76 -70 -201 -69q-125 0 -200 69q-84 78 -84 230v1153h45v-1153q0 -131 69 -197q63 -57 170 -57q109 0 170 57q70 63 70 197v1153h45v-1153q0 -152 -84 -230zM253 1600.5q15 -15.5 15 -37.5q0 -23 -15 -38.5t-38 -15.5q-20 0 -36.5 16.5t-16.5 37.5q0 23 15.5 38 t37.5 15q23 0 38 -15.5zM527.5 1600.5q15.5 -15.5 15.5 -37.5q0 -23 -15.5 -38.5t-38.5 -15.5q-20 0 -36.5 16.5t-16.5 37.5q0 23 15.5 38t37.5 15q23 0 38.5 -15.5z" glyph-name="udieresis" horiz-adv-x="704" unicode="ü"/><glyph d="M354 561l289 873h47l-313 -949v-485h-45v485l-314 949h48zM526 1710l-151 -201h-41l129 201h63z" glyph-name="yacute" unicode="ý"/><glyph d="M127 1270v-690h238q113 0 170 55q70 63 69 196v183q0 131 -69 198q-61 57 -170 58h-238zM127 535v-535h-45v1434h45v-119h238q125 0 200 -70q84 -80 84 -231v-183q0 -152 -84 -229q-70 -68 -200 -67h-238z" glyph-name="thorn" horiz-adv-x="696" unicode="þ"/><glyph d="M354 561l289 873h47l-313 -949v-485h-45v485l-314 949h48zM263.5 1600.5q15.5 -15.5 15.5 -37.5q0 -23 -15.5 -38.5t-38.5 -15.5q-20 0 -36.5 16.5t-16.5 37.5q0 23 15.5 38t37.5 15q23 0 38.5 -15.5zM537.5 1600.5q15.5 -15.5 15.5 -37.5q0 -23 -15.5 -38.5t-37.5 -15.5 q-20 0 -37 16.5t-17 37.5q0 23 15.5 38t38.5 15q22 0 37.5 -15.5z" glyph-name="ydieresis" unicode="ÿ"/><glyph d="M668 0l-86 408h-396l-88 -408h-47l309 1434h46l309 -1434h-47zM195 453h376l-188 878zM725 1509h-684v45h684v-45z" glyph-name="Amacron" horiz-adv-x="765" unicode="Ā"/><glyph d="M668 0l-86 408h-396l-88 -408h-47l309 1434h46l309 -1434h-47zM195 453h376l-188 878zM725 1509h-684v45h684v-45z" glyph-name="amacron" horiz-adv-x="765" unicode="ā"/><glyph d="M657 0l-86 408h-395l-88 -408h-47l309 1434h45l310 -1434h-48zM184 453h377l-188 878zM559 1696q0 -76 -54 -131.5t-132 -55.5q-76 0 -131.5 55.5t-55.5 131.5h45q0 -57 42 -99.5t100 -42.5q59 0 100 42t41 100h45z" glyph-name="Abreve" horiz-adv-x="745" unicode="Ă"/><glyph d="M657 0l-86 408h-395l-88 -408h-47l309 1434h45l310 -1434h-48zM184 453h377l-188 878zM559 1696q0 -76 -54 -131.5t-132 -55.5q-76 0 -131.5 55.5t-55.5 131.5h45q0 -57 42 -99.5t100 -42.5q59 0 100 42t41 100h45z" glyph-name="abreve" horiz-adv-x="745" unicode="ă"/><glyph d="M672 -166h18v-47h-39q-59 0 -98 14.5t-39 57.5q0 74 141 141h2l-86 408h-395l-88 -408h-47l309 1434h45l310 -1434q-66 -37 -93.5 -65.5t-27.5 -57.5q0 -43 88 -43zM184 453h377l-188 878z" glyph-name="Aogonek" horiz-adv-x="745" unicode="Ą"/><glyph d="M672 -166h18v-47h-39q-59 0 -98 14.5t-39 57.5q0 74 141 141h2l-86 408h-395l-88 -408h-47l309 1434h45l310 -1434q-66 -37 -93.5 -65.5t-27.5 -57.5q0 -43 88 -43zM184 453h377l-188 878z" glyph-name="aogonek" horiz-adv-x="745" unicode="ą"/><glyph d="M553 51q-74 -70 -201 -69q-125 0 -198 69q-84 76 -84 230v872q0 154 84 229q74 70 198 70q127 0 201 -70q84 -78 84 -229v-143h-45v143q0 133 -70 197q-61 57 -170 57q-106 0 -168 -57q-70 -63 -69 -197v-872q0 -133 69 -197q61 -57 168 -57q109 0 170 57q70 63 70 197 v211h45v-211q0 -152 -84 -230zM526 1710l-151 -201h-41l129 201h63z" glyph-name="Cacute" horiz-adv-x="702" unicode="Ć"/><glyph d="M553 51q-74 -70 -201 -69q-125 0 -198 69q-84 76 -84 230v872q0 154 84 229q74 70 198 70q127 0 201 -70q84 -78 84 -229v-143h-45v143q0 133 -70 197q-61 57 -170 57q-106 0 -168 -57q-70 -63 -69 -197v-872q0 -133 69 -197q61 -57 168 -57q109 0 170 57q70 63 70 197 v211h45v-211q0 -152 -84 -230zM526 1710l-151 -201h-41l129 201h63z" glyph-name="cacute" horiz-adv-x="702" unicode="ć"/><glyph d="M553 51q-74 -70 -201 -69q-125 0 -198 69q-84 76 -84 230v872q0 154 84 229q74 70 198 70q127 0 201 -70q84 -78 84 -229v-143h-45v143q0 133 -70 197q-61 57 -170 57q-106 0 -168 -57q-70 -63 -69 -197v-872q0 -133 69 -197q61 -57 168 -57q109 0 170 57q70 63 70 197 v211h45v-211q0 -152 -84 -230zM390.5 1600.5q15.5 -15.5 15.5 -37.5q0 -23 -15.5 -38.5t-38.5 -15.5q-20 0 -36.5 16.5t-16.5 37.5q0 23 15.5 38t37.5 15q23 0 38.5 -15.5z" glyph-name="Cdotaccent" horiz-adv-x="702" unicode="Ċ"/><glyph d="M553 51q-74 -70 -201 -69q-125 0 -198 69q-84 76 -84 230v872q0 154 84 229q74 70 198 70q127 0 201 -70q84 -78 84 -229v-143h-45v143q0 133 -70 197q-61 57 -170 57q-106 0 -168 -57q-70 -63 -69 -197v-872q0 -133 69 -197q61 -57 168 -57q109 0 170 57q70 63 70 197 v211h45v-211q0 -152 -84 -230zM390.5 1600.5q15.5 -15.5 15.5 -37.5q0 -23 -15.5 -38.5t-38.5 -15.5q-20 0 -36.5 16.5t-16.5 37.5q0 23 15.5 38t37.5 15q23 0 38.5 -15.5z" glyph-name="cdotaccent" horiz-adv-x="702" unicode="ċ"/><glyph d="M553 51q-74 -70 -201 -69q-125 0 -198 69q-84 76 -84 230v872q0 154 84 229q74 70 198 70q127 0 201 -70q84 -78 84 -229v-143h-45v143q0 133 -70 197q-61 57 -170 57q-106 0 -168 -57q-70 -63 -69 -197v-872q0 -133 69 -197q61 -57 168 -57q109 0 170 57q70 63 70 197 v211h45v-211q0 -152 -84 -230zM328 1509l-140 201h41l125 -158l125 158h41l-137 -201h-55z" glyph-name="Ccaron" horiz-adv-x="702" unicode="Č"/><glyph d="M553 51q-74 -70 -201 -69q-125 0 -198 69q-84 76 -84 230v872q0 154 84 229q74 70 198 70q127 0 201 -70q84 -78 84 -229v-143h-45v143q0 133 -70 197q-61 57 -170 57q-106 0 -168 -57q-70 -63 -69 -197v-872q0 -133 69 -197q61 -57 168 -57q109 0 170 57q70 63 70 197 v211h45v-211q0 -152 -84 -230zM328 1509l-140 201h41l125 -158l125 158h41l-137 -201h-55z" glyph-name="ccaron" horiz-adv-x="702" unicode="č"/><glyph d="M565 63q-72 -63 -200 -63h-283v1434h283q127 0 200 -68q84 -78 84 -229v-848q0 -152 -84 -226zM127 1389v-1344h238q240 0 239 244v848q0 133 -69 196q-57 55 -170 56h-238zM338 1509l-139 201h41l125 -158l124 158h41l-137 -201h-55z" glyph-name="Dcaron" horiz-adv-x="722" unicode="Ď"/><glyph d="M565 63q-72 -63 -200 -63h-283v1434h283q127 0 200 -68q84 -78 84 -229v-848q0 -152 -84 -226zM127 1389v-1344h238q240 0 239 244v848q0 133 -69 196q-57 55 -170 56h-238zM338 1509l-139 201h41l125 -158l124 158h41l-137 -201h-55z" glyph-name="dcaron" horiz-adv-x="722" unicode="ď"/><glyph d="M659 1135v-846q0 -152 -84 -226q-74 -63 -200 -63h-283v692h-82v45h82v697h283q127 0 200 -70q84 -77 84 -229zM614 1135q0 133 -69 196q-61 57 -170 58h-238v-652h164v-45h-164v-647h238q240 0 239 244v846z" glyph-name="Dcroat" horiz-adv-x="733" unicode="Đ"/><glyph d="M659 1135v-846q0 -152 -84 -226q-74 -63 -200 -63h-283v692h-82v45h82v697h283q127 0 200 -70q84 -77 84 -229zM614 1135q0 133 -69 196q-61 57 -170 58h-238v-652h164v-45h-164v-647h238q240 0 239 244v846z" glyph-name="dcroat" horiz-adv-x="733" unicode="đ"/><glyph d="M563 1389h-436v-631h305v-45h-305v-668h436v-45h-481v1434h481v-45zM666 1509h-684v45h684v-45z" glyph-name="Emacron" horiz-adv-x="612" unicode="Ē"/><glyph d="M563 1389h-436v-631h305v-45h-305v-668h436v-45h-481v1434h481v-45zM666 1509h-684v45h684v-45z" glyph-name="emacron" horiz-adv-x="612" unicode="ē"/><glyph d="M563 1389h-436v-631h305v-45h-305v-668h436v-45h-481v1434h481v-45zM361.5 1600.5q15.5 -15.5 15.5 -37.5q0 -23 -15.5 -38.5t-37.5 -15.5q-20 0 -37 16.5t-17 37.5q0 23 15.5 38t38.5 15q22 0 37.5 -15.5z" glyph-name="Edotaccent" horiz-adv-x="1228" unicode="Ė"/><glyph d="M563 1389h-436v-631h305v-45h-305v-668h436v-45h-481v1434h481v-45zM361.5 1600.5q15.5 -15.5 15.5 -37.5q0 -23 -15.5 -38.5t-37.5 -15.5q-20 0 -37 16.5t-17 37.5q0 23 15.5 38t38.5 15q22 0 37.5 -15.5z" glyph-name="edotaccent" horiz-adv-x="1228" unicode="ė"/><glyph d="M127 1389v-631h305v-45h-305v-668h436v-45q-66 -37 -93.5 -65.5t-27.5 -57.5q0 -43 88 -43h19v-47h-39q-59 0 -98 14.5t-39 57.5q0 74 141 141h-432v1434h481v-45h-436z" glyph-name="Eogonek" horiz-adv-x="612" unicode="Ę"/><glyph d="M127 1389v-631h305v-45h-305v-668h436v-45q-66 -37 -93.5 -65.5t-27.5 -57.5q0 -43 88 -43h19v-47h-39q-59 0 -98 14.5t-39 57.5q0 74 141 141h-432v1434h481v-45h-436z" glyph-name="eogonek" horiz-adv-x="612" unicode="ę"/><glyph d="M297 1509l-139 201h41l125 -158l125 158h40l-137 -201h-55zM563 1389h-436v-631h305v-45h-305v-668h436v-45h-481v1434h481v-45z" glyph-name="Ecaron" horiz-adv-x="1228" unicode="Ě"/><glyph d="M297 1509l-139 201h41l125 -158l125 158h40l-137 -201h-55zM563 1389h-436v-631h305v-45h-305v-668h436v-45h-481v1434h481v-45z" glyph-name="ecaron" horiz-adv-x="1228" unicode="ě"/><glyph d="M555 49q-74 -68 -201 -67q-127 0 -200 67q-84 78 -84 230v874q0 152 84 229q76 70 200 70q125 0 201 -70q84 -78 84 -229v-143h-45v143q0 131 -70 197q-63 57 -170 57q-109 0 -170 -57q-70 -63 -69 -197v-874q0 -133 69 -197q59 -55 170 -55q109 0 170 55q70 66 70 197 v415h-240v45h285v-460q0 -152 -84 -230zM541 1696q0 -76 -54.5 -131.5t-132.5 -55.5q-76 0 -131 55.5t-55 131.5h45q0 -57 42 -99.5t99 -42.5q59 0 100.5 42t41.5 100h45z" glyph-name="Gbreve" unicode="Ğ"/><glyph d="M555 49q-74 -68 -201 -67q-127 0 -200 67q-84 78 -84 230v874q0 152 84 229q76 70 200 70q125 0 201 -70q84 -78 84 -229v-143h-45v143q0 131 -70 197q-63 57 -170 57q-109 0 -170 -57q-70 -63 -69 -197v-874q0 -133 69 -197q59 -55 170 -55q109 0 170 55q70 66 70 197 v415h-240v45h285v-460q0 -152 -84 -230zM541 1696q0 -76 -54.5 -131.5t-132.5 -55.5q-76 0 -131 55.5t-55 131.5h45q0 -57 42 -99.5t99 -42.5q59 0 100.5 42t41.5 100h45z" glyph-name="gbreve" unicode="ğ"/><glyph d="M555 49q-74 -68 -201 -67q-127 0 -200 67q-84 78 -84 230v874q0 152 84 229q76 70 200 70q125 0 201 -70q84 -78 84 -229v-143h-45v143q0 131 -70 197q-63 57 -170 57q-109 0 -170 -57q-70 -63 -69 -197v-874q0 -133 69 -197q59 -55 170 -55q109 0 170 55q70 66 70 197 v415h-240v45h285v-460q0 -152 -84 -230zM390.5 1600.5q15.5 -15.5 15.5 -37.5q0 -23 -15.5 -38.5t-38.5 -15.5q-20 0 -36.5 16.5t-16.5 37.5q0 23 15.5 38t37.5 15q23 0 38.5 -15.5z" glyph-name="Gdotaccent" unicode="Ġ"/><glyph d="M555 49q-74 -68 -201 -67q-127 0 -200 67q-84 78 -84 230v874q0 152 84 229q76 70 200 70q125 0 201 -70q84 -78 84 -229v-143h-45v143q0 131 -70 197q-63 57 -170 57q-109 0 -170 -57q-70 -63 -69 -197v-874q0 -133 69 -197q59 -55 170 -55q109 0 170 55q70 66 70 197 v415h-240v45h285v-460q0 -152 -84 -230zM390.5 1600.5q15.5 -15.5 15.5 -37.5q0 -23 -15.5 -38.5t-38.5 -15.5q-20 0 -36.5 16.5t-16.5 37.5q0 23 15.5 38t37.5 15q23 0 38.5 -15.5z" glyph-name="gdotaccent" unicode="ġ"/><glyph d="M555 49q-74 -68 -201 -67q-127 0 -200 67q-84 78 -84 230v874q0 152 84 229q76 70 200 70q125 0 201 -70q84 -78 84 -229v-143h-45v143q0 131 -70 197q-63 57 -170 57q-109 0 -170 -57q-70 -63 -69 -197v-874q0 -133 69 -197q59 -55 170 -55q109 0 170 55q70 66 70 197 v415h-240v45h285v-460q0 -152 -84 -230zM393 -184q-4 -8 -35 -58h-41l13 29q4 8 4 14q0 10 -8 19q-25 18 -25 45q0 20 16.5 36.5t36.5 16.5q23 0 38.5 -16.5t15.5 -36.5q-1 -20 -15 -49z" glyph-name="Gcommaaccent" unicode="Ģ"/><glyph d="M555 49q-74 -68 -201 -67q-127 0 -200 67q-84 78 -84 230v874q0 152 84 229q76 70 200 70q125 0 201 -70q84 -78 84 -229v-143h-45v143q0 131 -70 197q-63 57 -170 57q-109 0 -170 -57q-70 -63 -69 -197v-874q0 -133 69 -197q59 -55 170 -55q109 0 170 55q70 66 70 197 v415h-240v45h285v-460q0 -152 -84 -230zM393 -184q-4 -8 -35 -58h-41l13 29q4 8 4 14q0 10 -8 19q-25 18 -25 45q0 20 16.5 36.5t36.5 16.5q23 0 38.5 -16.5t15.5 -36.5q-1 -20 -15 -49z" glyph-name="gcommaaccent" unicode="ģ"/><glyph d="M752 1120v-45h-82v-1075h-45v713h-478v-713h-45v1075h-82v45h82v314h45v-314h478v314h45v-314h82zM625 758v317h-478v-317h478z" glyph-name="Hbar" horiz-adv-x="772" unicode="Ħ"/><glyph d="M752 1120v-45h-82v-1075h-45v713h-478v-713h-45v1075h-82v45h82v314h45v-314h478v314h45v-314h82zM625 758v317h-478v-317h478z" glyph-name="hbar" horiz-adv-x="772" unicode="ħ"/><glyph d="M147 0h-45v1434h45v-1434zM20 1581q-55 0 -112 -70l-35 29q63 76 127 84l20 2q45 0 117 -41q47 -29 84 -29q55 0 111 68l35 -27q-59 -76 -123 -84q-6 -2 -23 -2q-47 0 -108 37q-54 33 -93 33z" glyph-name="Itilde" horiz-adv-x="239" unicode="Ĩ"/><glyph d="M147 0h-45v1434h45v-1434zM20 1581q-55 0 -112 -70l-35 29q63 76 127 84l20 2q45 0 117 -41q47 -29 84 -29q55 0 111 68l35 -27q-59 -76 -123 -84q-6 -2 -23 -2q-47 0 -108 37q-54 33 -93 33z" glyph-name="itilde" horiz-adv-x="239" unicode="ĩ"/><glyph d="M147 0h-45v1434h45v-1434zM467 1509h-684v45h684v-45z" glyph-name="Imacron" horiz-adv-x="249" unicode="Ī"/><glyph d="M147 0h-45v1434h45v-1434zM467 1509h-684v45h684v-45z" glyph-name="imacron" horiz-adv-x="249" unicode="ī"/><glyph d="M147 1434v-1434q-66 -37 -93 -65.5t-27 -57.5q0 -43 88 -43h18v-47h-39q-59 0 -98 14.5t-39 57.5q0 72 145 141v1434h45z" glyph-name="Iogonek" horiz-adv-x="249" unicode="Į"/><glyph d="M147 1434v-1434q-66 -37 -93 -65.5t-27 -57.5q0 -43 88 -43h18v-47h-39q-59 0 -98 14.5t-39 57.5q0 72 145 141v1434h45z" glyph-name="iogonek" horiz-adv-x="249" unicode="į"/><glyph d="M147 0h-45v1434h45v-1434zM162.5 1600.5q15.5 -15.5 15.5 -37.5q0 -23 -15.5 -38.5t-37.5 -15.5q-20 0 -36.5 16.5t-16.5 37.5q0 23 15 38t38 15q22 0 37.5 -15.5z" glyph-name="Idotaccent" horiz-adv-x="249" unicode="İ"/><glyph d="M137 0h-45v1434h45v-1434z" glyph-name="dotlessi" horiz-adv-x="229" unicode="ı"/><glyph d="M682 1434l-305 -680l307 -754h-49l-285 698l-223 -495v-203h-45v1434h45v-1123l506 1123h49zM399 -184q-4 -8 -34 -58h-41l12 29q4 8 4 14q0 10 -8 19q-25 18 -25 45q0 20 16.5 36.5t36.5 16.5q23 0 38.5 -16.5t15.5 -36.5q-1 -20 -15 -49z" glyph-name="Kcommaaccent" horiz-adv-x="720" unicode="Ķ"/><glyph d="M682 1434l-305 -680l307 -754h-49l-285 698l-223 -495v-203h-45v1434h45v-1123l506 1123h49zM399 -184q-4 -8 -34 -58h-41l12 29q4 8 4 14q0 10 -8 19q-25 18 -25 45q0 20 16.5 36.5t36.5 16.5q23 0 38.5 -16.5t15.5 -36.5q-1 -20 -15 -49z" glyph-name="kcommaaccent" horiz-adv-x="720" unicode="ķ"/><glyph d="M276 1710l-151 -201h-41l129 201h63zM563 0h-481v1434h45v-1389h436v-45z" glyph-name="Lacute" horiz-adv-x="600" unicode="Ĺ"/><glyph d="M276 1710l-151 -201h-41l129 201h63zM563 0h-481v1434h45v-1389h436v-45z" glyph-name="lacute" horiz-adv-x="600" unicode="ĺ"/><glyph d="M563 0h-481v1434h45v-1389h436v-45zM362 -184q-4 -8 -34 -58h-41l12 29q4 8 4 14q0 10 -8 19q-25 18 -25 45q0 20 16.5 36.5t37.5 16.5q23 0 38 -16.5t15 -36.5q-1 -20 -15 -49z" glyph-name="Lcommaaccent" horiz-adv-x="600" unicode="Ļ"/><glyph d="M563 0h-481v1434h45v-1389h436v-45zM362 -184q-4 -8 -34 -58h-41l12 29q4 8 4 14q0 10 -8 19q-25 18 -25 45q0 20 16.5 36.5t37.5 16.5q23 0 38 -16.5t15 -36.5q-1 -20 -15 -49z" glyph-name="lcommaaccent" horiz-adv-x="600" unicode="ļ"/><glyph d="M563 0h-481v1434h45v-1389h436v-45zM475 1331q-4 -8 -35 -57h-41l13 29q4 8 4 14q0 10 -8 18q-25 18 -25 45q0 23 16.5 38.5t36.5 15.5q23 0 38 -15.5t15 -38.5q0 -20 -14 -49z" glyph-name="Lcaron" horiz-adv-x="600" unicode="Ľ"/><glyph d="M563 0h-481v1434h45v-1389h436v-45zM475 1331q-4 -8 -35 -57h-41l13 29q4 8 4 14q0 10 -8 18q-25 18 -25 45q0 23 16.5 38.5t36.5 15.5q23 0 38 -15.5t15 -38.5q0 -20 -14 -49z" glyph-name="lcaron" horiz-adv-x="600" unicode="ľ"/><glyph d="M127 45h436v-45h-481v489l-129 -139v68l129 137v879h45v-830l274 293v-66l-274 -294v-492z" glyph-name="Lslash" horiz-adv-x="600" unicode="Ł"/><glyph d="M127 45h436v-45h-481v489l-129 -139v68l129 137v879h45v-830l274 293v-66l-274 -294v-492z" glyph-name="lslash" horiz-adv-x="600" unicode="ł"/><glyph d="M680 1434v-1434h-25l-518 1272v-1272h-45v1434h25l518 -1272v1272h45zM557 1710l-151 -201h-41l129 201h63z" glyph-name="Nacute" horiz-adv-x="772" unicode="Ń"/><glyph d="M680 1434v-1434h-25l-518 1272v-1272h-45v1434h25l518 -1272v1272h45zM557 1710l-151 -201h-41l129 201h63z" glyph-name="nacute" horiz-adv-x="772" unicode="ń"/><glyph d="M680 1434v-1434h-25l-518 1272v-1272h-45v1434h25l518 -1272v1272h45zM424 -184q-4 -8 -35 -58h-41l12 29q4 8 5 14q0 10 -9 19q-25 18 -24 45q0 20 16.5 36.5t36.5 16.5q23 0 38 -16.5t15 -36.5t-14 -49z" glyph-name="Ncommaaccent" horiz-adv-x="772" unicode="Ņ"/><glyph d="M680 1434v-1434h-25l-518 1272v-1272h-45v1434h25l518 -1272v1272h45zM424 -184q-4 -8 -35 -58h-41l12 29q4 8 5 14q0 10 -9 19q-25 18 -24 45q0 20 16.5 36.5t36.5 16.5q23 0 38 -16.5t15 -36.5t-14 -49z" glyph-name="ncommaaccent" horiz-adv-x="772" unicode="ņ"/><glyph d="M680 1434v-1434h-25l-518 1272v-1272h-45v1434h25l518 -1272v1272h45zM358 1509l-139 201h41l125 -158l125 158h41l-137 -201h-56z" glyph-name="Ncaron" horiz-adv-x="772" unicode="Ň"/><glyph d="M680 1434v-1434h-25l-518 1272v-1272h-45v1434h25l518 -1272v1272h45zM358 1509l-139 201h41l125 -158l125 158h41l-137 -201h-56z" glyph-name="ncaron" horiz-adv-x="772" unicode="ň"/><glyph d="M680 1434v-1520q0 -45 -32 -77t-77 -32v45q27 0 45.5 18.5t18.5 45.5v86l-498 1272v-1272h-45v1434h25l518 -1305v1305h45z" glyph-name="Eng" horiz-adv-x="772" unicode="Ŋ"/><glyph d="M680 1434v-1520q0 -45 -32 -77t-77 -32v45q27 0 45.5 18.5t18.5 45.5v86l-498 1272v-1272h-45v1434h25l518 -1305v1305h45z" glyph-name="eng" horiz-adv-x="772" unicode="ŋ"/><glyph d="M555 49q-78 -68 -201 -67q-123 0 -200 67q-84 80 -84 232v872q0 152 84 229q76 70 200 70q125 0 201 -70q84 -78 84 -229v-872q0 -152 -84 -232zM524 1350q-63 57 -170 57q-109 0 -170 -57q-70 -63 -69 -197v-872q0 -135 69 -197q57 -57 170 -57q111 0 170 57 q70 63 70 197v872q0 131 -70 197zM696 1509h-684v45h684v-45z" glyph-name="Omacron" unicode="Ō"/><glyph d="M555 49q-78 -68 -201 -67q-123 0 -200 67q-84 80 -84 232v872q0 152 84 229q76 70 200 70q125 0 201 -70q84 -78 84 -229v-872q0 -152 -84 -232zM524 1350q-63 57 -170 57q-109 0 -170 -57q-70 -63 -69 -197v-872q0 -135 69 -197q57 -57 170 -57q111 0 170 57 q70 63 70 197v872q0 131 -70 197zM696 1509h-684v45h684v-45z" glyph-name="omacron" unicode="ō"/><glyph d="M555 49q-78 -68 -201 -67q-123 0 -200 67q-84 80 -84 232v872q0 152 84 229q76 70 200 70q125 0 201 -70q84 -78 84 -229v-872q0 -152 -84 -232zM524 1350q-63 57 -170 57q-109 0 -170 -57q-70 -63 -69 -197v-872q0 -135 69 -197q57 -57 170 -57q111 0 170 57 q70 63 70 197v872q0 131 -70 197zM618 1710l-151 -201h-41l129 201h63zM432 1710l-151 -201h-41l129 201h63z" glyph-name="Ohungarumlaut" unicode="Ő"/><glyph d="M555 49q-78 -68 -201 -67q-123 0 -200 67q-84 80 -84 232v872q0 152 84 229q76 70 200 70q125 0 201 -70q84 -78 84 -229v-872q0 -152 -84 -232zM524 1350q-63 57 -170 57q-109 0 -170 -57q-70 -63 -69 -197v-872q0 -135 69 -197q57 -57 170 -57q111 0 170 57 q70 63 70 197v872q0 131 -70 197zM618 1710l-151 -201h-41l129 201h63zM432 1710l-151 -201h-41l129 201h63z" glyph-name="ohungarumlaut" unicode="ő"/><glyph d="M518 1389v-631h305v-45h-305v-668h436v-45h-481h-119q-125 0 -200 70q-84 78 -84 229v836q0 152 84 229q76 70 200 70h119h481v-45h-436zM473 45v1344h-119q-109 0 -170 -58q-70 -63 -69 -196v-836q0 -133 69 -197q61 -57 170 -57h119z" glyph-name="OE" horiz-adv-x="1003" unicode="Œ"/><glyph d="M518 1389v-631h305v-45h-305v-668h436v-45h-481h-119q-125 0 -200 70q-84 78 -84 229v836q0 152 84 229q76 70 200 70h119h481v-45h-436zM473 45v1344h-119q-109 0 -170 -58q-70 -63 -69 -196v-836q0 -133 69 -197q61 -57 170 -57h119z" glyph-name="oe" horiz-adv-x="1003" unicode="œ"/><glyph d="M651 0h-47l-178 657q-18 -4 -59 -4h-240v-653h-45v1434h285q125 0 200 -70q84 -80 84 -231v-183q0 -152 -84 -229q-41 -39 -98 -53zM537 754q70 66 69 196v183q0 129 -69 198q-63 57 -170 58h-240v-691h240q109 1 170 56zM539 1710l-152 -201h-41l129 201h64z" glyph-name="Racute" horiz-adv-x="702" unicode="Ŕ"/><glyph d="M651 0h-47l-178 657q-18 -4 -59 -4h-240v-653h-45v1434h285q125 0 200 -70q84 -80 84 -231v-183q0 -152 -84 -229q-41 -39 -98 -53zM537 754q70 66 69 196v183q0 129 -69 198q-63 57 -170 58h-240v-691h240q109 1 170 56zM539 1710l-152 -201h-41l129 201h64z" glyph-name="racute" horiz-adv-x="702" unicode="ŕ"/><glyph d="M651 0h-47l-178 657q-18 -4 -59 -4h-240v-653h-45v1434h285q125 0 200 -70q84 -80 84 -231v-183q0 -152 -84 -229q-41 -39 -98 -53zM537 754q70 66 69 196v183q0 129 -69 198q-63 57 -170 58h-240v-691h240q109 1 170 56zM406 -184q-4 -8 -35 -58h-41l12 29q4 8 4 14 q0 10 -8 19q-25 18 -25 45q0 20 16.5 36.5t37.5 16.5q23 0 38 -16.5t15 -36.5t-14 -49z" glyph-name="Rcommaaccent" horiz-adv-x="702" unicode="Ŗ"/><glyph d="M651 0h-47l-178 657q-18 -4 -59 -4h-240v-653h-45v1434h285q125 0 200 -70q84 -80 84 -231v-183q0 -152 -84 -229q-41 -39 -98 -53zM537 754q70 66 69 196v183q0 129 -69 198q-63 57 -170 58h-240v-691h240q109 1 170 56zM406 -184q-4 -8 -35 -58h-41l12 29q4 8 4 14 q0 10 -8 19q-25 18 -25 45q0 20 16.5 36.5t37.5 16.5q23 0 38 -16.5t15 -36.5t-14 -49z" glyph-name="rcommaaccent" horiz-adv-x="702" unicode="ŗ"/><glyph d="M651 0h-47l-178 657q-18 -4 -59 -4h-240v-653h-45v1434h285q125 0 200 -70q84 -80 84 -231v-183q0 -152 -84 -229q-41 -39 -98 -53zM537 754q70 66 69 196v183q0 129 -69 198q-63 57 -170 58h-240v-691h240q109 1 170 56zM340 1509l-139 201h41l125 -158l125 158h40 l-137 -201h-55z" glyph-name="Rcaron" horiz-adv-x="702" unicode="Ř"/><glyph d="M651 0h-47l-178 657q-18 -4 -59 -4h-240v-653h-45v1434h285q125 0 200 -70q84 -80 84 -231v-183q0 -152 -84 -229q-41 -39 -98 -53zM537 754q70 66 69 196v183q0 129 -69 198q-63 57 -170 58h-240v-691h240q109 1 170 56zM340 1509l-139 201h41l125 -158l125 158h40 l-137 -201h-55z" glyph-name="rcaron" horiz-adv-x="702" unicode="ř"/><glyph d="M543 51q-76 -70 -201 -69q-125 0 -201 69q-84 78 -84 230v215h45v-215q0 -131 70 -197q63 -57 170 -57q106 0 170 57q70 63 70 197v102q0 147 -90 244q-33 35 -69 57.5t-91 48.5q-57 27 -96 50.5t-76 62.5q-102 106 -103 268v41q0 150 84 229q74 68 201 68t201 -68 q84 -80 84 -229v-141h-45v141q0 133 -70 195q-59 57 -170 57t-170 -57q-70 -63 -70 -195v-41q0 -143 91 -237q33 -33 67.5 -53.5t93.5 -51.5q55 -27 94 -51.5t76 -63.5q102 -109 103 -274v-102q0 -152 -84 -230zM514 1710l-152 -201h-40l129 201h63z" glyph-name="Sacute" horiz-adv-x="681" unicode="Ś"/><glyph d="M543 51q-76 -70 -201 -69q-125 0 -201 69q-84 78 -84 230v215h45v-215q0 -131 70 -197q63 -57 170 -57q106 0 170 57q70 63 70 197v102q0 147 -90 244q-33 35 -69 57.5t-91 48.5q-57 27 -96 50.5t-76 62.5q-102 106 -103 268v41q0 150 84 229q74 68 201 68t201 -68 q84 -80 84 -229v-141h-45v141q0 133 -70 195q-59 57 -170 57t-170 -57q-70 -63 -70 -195v-41q0 -143 91 -237q33 -33 67.5 -53.5t93.5 -51.5q55 -27 94 -51.5t76 -63.5q102 -109 103 -274v-102q0 -152 -84 -230zM514 1710l-152 -201h-40l129 201h63z" glyph-name="sacute" horiz-adv-x="681" unicode="ś"/><glyph d="M582 1014v141q0 133 -70 195q-59 57 -170 57t-170 -57q-70 -63 -70 -195v-41q0 -143 91 -237q33 -33 67.5 -53.5t93.5 -51.5q55 -29 94 -52.5t76 -62.5q102 -109 103 -274v-102q0 -152 -84 -230q-70 -63 -178 -69q4 -20 22 -35l4 -4q27 -18 43.5 -40t16.5 -59 q0 -45 -32 -76.5t-77 -31.5t-77 31.5t-32 76.5h46q0 -27 18 -45t45 -18t45.5 18.5t18.5 44.5q0 23 -9.5 35t-31.5 29l-5 2q-37 29 -41 72q-109 6 -178 69q-84 78 -84 230v215h45v-215q0 -131 70 -197q63 -57 170 -57q106 0 170 57q70 63 70 197v102q0 147 -90 244 q-33 35 -69 57.5t-91 48.5q-57 27 -96 50.5t-76 62.5q-102 106 -103 268v41q0 150 84 229q74 68 201 68t201 -68q84 -80 84 -229v-141h-45z" glyph-name="Scedilla" horiz-adv-x="681" unicode="Ş"/><glyph d="M582 1014v141q0 133 -70 195q-59 57 -170 57t-170 -57q-70 -63 -70 -195v-41q0 -143 91 -237q33 -33 67.5 -53.5t93.5 -51.5q55 -29 94 -52.5t76 -62.5q102 -109 103 -274v-102q0 -152 -84 -230q-70 -63 -178 -69q4 -20 22 -35l4 -4q27 -18 43.5 -40t16.5 -59 q0 -45 -32 -76.5t-77 -31.5t-77 31.5t-32 76.5h46q0 -27 18 -45t45 -18t45.5 18.5t18.5 44.5q0 23 -9.5 35t-31.5 29l-5 2q-37 29 -41 72q-109 6 -178 69q-84 78 -84 230v215h45v-215q0 -131 70 -197q63 -57 170 -57q106 0 170 57q70 63 70 197v102q0 147 -90 244 q-33 35 -69 57.5t-91 48.5q-57 27 -96 50.5t-76 62.5q-102 106 -103 268v41q0 150 84 229q74 68 201 68t201 -68q84 -80 84 -229v-141h-45z" glyph-name="scedilla" horiz-adv-x="681" unicode="ş"/><glyph d="M543 51q-76 -70 -201 -69q-125 0 -201 69q-84 78 -84 230v215h45v-215q0 -131 70 -197q63 -57 170 -57q106 0 170 57q70 63 70 197v102q0 147 -90 244q-33 35 -69 57.5t-91 48.5q-57 27 -96 50.5t-76 62.5q-102 106 -103 268v41q0 150 84 229q74 68 201 68t201 -68 q84 -80 84 -229v-141h-45v141q0 133 -70 195q-59 57 -170 57t-170 -57q-70 -63 -70 -195v-41q0 -143 91 -237q33 -33 67.5 -53.5t93.5 -51.5q55 -27 94 -51.5t76 -63.5q102 -109 103 -274v-102q0 -152 -84 -230zM315 1509l-139 201h41l125 -158l125 158h41l-137 -201h-56z " glyph-name="Scaron" horiz-adv-x="681" unicode="Š"/><glyph d="M543 51q-76 -70 -201 -69q-125 0 -201 69q-84 78 -84 230v215h45v-215q0 -131 70 -197q63 -57 170 -57q106 0 170 57q70 63 70 197v102q0 147 -90 244q-33 35 -69 57.5t-91 48.5q-57 27 -96 50.5t-76 62.5q-102 106 -103 268v41q0 150 84 229q74 68 201 68t201 -68 q84 -80 84 -229v-141h-45v141q0 133 -70 195q-59 57 -170 57t-170 -57q-70 -63 -70 -195v-41q0 -143 91 -237q33 -33 67.5 -53.5t93.5 -51.5q55 -27 94 -51.5t76 -63.5q102 -109 103 -274v-102q0 -152 -84 -230zM315 1509l-139 201h41l125 -158l125 158h41l-137 -201h-56z " glyph-name="scaron" horiz-adv-x="681" unicode="š"/><glyph d="M336 2q0 -25 5 -36t21 -23q27 -23 43.5 -43.5t16.5 -55.5q0 -45 -32 -76.5t-77 -31.5t-76.5 31.5t-31.5 76.5h45q0 -27 18.5 -45t44.5 -18q27 0 45.5 18.5t18.5 44.5q0 23 -10.5 36.5t-30.5 27.5q-23 16 -34 31.5t-11 42.5v1407h-264v45h569v-45h-260v-1387z" glyph-name="Tcommaaccent" horiz-adv-x="620" unicode="Ţ"/><glyph d="M336 2q0 -25 5 -36t21 -23q27 -23 43.5 -43.5t16.5 -55.5q0 -45 -32 -76.5t-77 -31.5t-76.5 31.5t-31.5 76.5h45q0 -27 18.5 -45t44.5 -18q27 0 45.5 18.5t18.5 44.5q0 23 -10.5 36.5t-30.5 27.5q-23 16 -34 31.5t-11 42.5v1407h-264v45h569v-45h-260v-1387z" glyph-name="tcommaaccent" horiz-adv-x="620" unicode="ţ"/><glyph d="M596 1434v-45h-260v-1389h-45v1389h-264v45h569zM285 1509l-140 201h41l125 -158l125 158h41l-137 -201h-55z" glyph-name="Tcaron" horiz-adv-x="620" unicode="Ť"/><glyph d="M596 1434v-45h-260v-1389h-45v1389h-264v45h569zM285 1509l-140 201h41l125 -158l125 158h41l-137 -201h-55z" glyph-name="tcaron" horiz-adv-x="620" unicode="ť"/><glyph d="M596 1389h-260v-447h123v-45h-123v-897h-45v897h-123v45h123v447h-264v45h569v-45z" glyph-name="Tbar" horiz-adv-x="620" unicode="Ŧ"/><glyph d="M596 1389h-260v-447h123v-45h-123v-897h-45v897h-123v45h123v447h-264v45h569v-45z" glyph-name="tbar" horiz-adv-x="620" unicode="ŧ"/><glyph d="M553 51q-76 -70 -201 -69q-125 0 -200 69q-84 78 -84 230v1153h45v-1153q0 -131 69 -197q63 -57 170 -57q109 0 170 57q70 63 70 197v1153h45v-1153q0 -152 -84 -230zM252 1581q-55 0 -113 -70l-35 29q63 76 127 84l21 2q45 0 117 -41q47 -29 84 -29q55 0 110 68l35 -27 q-59 -76 -123 -84q-6 -2 -22 -2q-47 0 -109 37q-53 33 -92 33z" glyph-name="Utilde" horiz-adv-x="704" unicode="Ũ"/><glyph d="M553 51q-76 -70 -201 -69q-125 0 -200 69q-84 78 -84 230v1153h45v-1153q0 -131 69 -197q63 -57 170 -57q109 0 170 57q70 63 70 197v1153h45v-1153q0 -152 -84 -230zM252 1581q-55 0 -113 -70l-35 29q63 76 127 84l21 2q45 0 117 -41q47 -29 84 -29q55 0 110 68l35 -27 q-59 -76 -123 -84q-6 -2 -22 -2q-47 0 -109 37q-53 33 -92 33z" glyph-name="utilde" horiz-adv-x="704" unicode="ũ"/><glyph d="M553 51q-76 -70 -201 -69q-125 0 -200 69q-84 78 -84 230v1153h45v-1153q0 -131 69 -197q63 -57 170 -57q109 0 170 57q70 63 70 197v1153h45v-1153q0 -152 -84 -230zM694 1509h-684v45h684v-45z" glyph-name="Umacron" horiz-adv-x="704" unicode="Ū"/><glyph d="M553 51q-76 -70 -201 -69q-125 0 -200 69q-84 78 -84 230v1153h45v-1153q0 -131 69 -197q63 -57 170 -57q109 0 170 57q70 63 70 197v1153h45v-1153q0 -152 -84 -230zM694 1509h-684v45h684v-45z" glyph-name="umacron" horiz-adv-x="704" unicode="ū"/><glyph d="M553 51q-76 -70 -201 -69q-125 0 -200 69q-84 78 -84 230v1153h45v-1153q0 -131 69 -197q63 -57 170 -57q109 0 170 57q70 63 70 197v1153h45v-1153q0 -152 -84 -230zM429 1541q-32 -32 -77 -32t-76.5 32t-31.5 77t31.5 76.5t76.5 31.5t77 -31.5t32 -76.5t-32 -77z M397.5 1663q-18.5 18 -45.5 18t-45 -18t-18 -45t18.5 -45.5t44.5 -18.5q27 0 45.5 18.5t18.5 45.5t-18.5 45z" glyph-name="Uring" horiz-adv-x="704" unicode="Ů"/><glyph d="M553 51q-76 -70 -201 -69q-125 0 -200 69q-84 78 -84 230v1153h45v-1153q0 -131 69 -197q63 -57 170 -57q109 0 170 57q70 63 70 197v1153h45v-1153q0 -152 -84 -230zM429 1541q-32 -32 -77 -32t-76.5 32t-31.5 77t31.5 76.5t76.5 31.5t77 -31.5t32 -76.5t-32 -77z M397.5 1663q-18.5 18 -45.5 18t-45 -18t-18 -45t18.5 -45.5t44.5 -18.5q27 0 45.5 18.5t18.5 45.5t-18.5 45z" glyph-name="uring" horiz-adv-x="704" unicode="ů"/><glyph d="M553 51q-76 -70 -201 -69q-125 0 -200 69q-84 78 -84 230v1153h45v-1153q0 -131 69 -197q63 -57 170 -57q109 0 170 57q70 63 70 197v1153h45v-1153q0 -152 -84 -230zM616 1710l-151 -201h-41l129 201h63zM430 1710l-151 -201h-41l129 201h63z" glyph-name="Uhungarumlaut" horiz-adv-x="704" unicode="Ű"/><glyph d="M553 51q-76 -70 -201 -69q-125 0 -200 69q-84 78 -84 230v1153h45v-1153q0 -131 69 -197q63 -57 170 -57q109 0 170 57q70 63 70 197v1153h45v-1153q0 -152 -84 -230zM616 1710l-151 -201h-41l129 201h63zM430 1710l-151 -201h-41l129 201h63z" glyph-name="uhungarumlaut" horiz-adv-x="704" unicode="ű"/><glyph d="M637 1434v-1153q0 -152 -84 -230l-31 -28q-61 -55 -86.5 -86t-25.5 -60q0 -43 88 -43h18v-47h-39q-59 0 -98 14.5t-39 57.5q0 57 98 133q-45 -10 -86 -10q-125 0 -200 69q-84 78 -84 230v1153h45v-1153q0 -131 69 -197q63 -57 170 -57q109 0 170 57q70 63 70 197v1153h45 z" glyph-name="Uogonek" horiz-adv-x="704" unicode="Ų"/><glyph d="M637 1434v-1153q0 -152 -84 -230l-31 -28q-61 -55 -86.5 -86t-25.5 -60q0 -43 88 -43h18v-47h-39q-59 0 -98 14.5t-39 57.5q0 57 98 133q-45 -10 -86 -10q-125 0 -200 69q-84 78 -84 230v1153h45v-1153q0 -131 69 -197q63 -57 170 -57q109 0 170 57q70 63 70 197v1153h45 z" glyph-name="uogonek" horiz-adv-x="704" unicode="ų"/><glyph d="M932 1434h47l-176 -1434h-25l-268 1079l-270 -1079h-25l-174 1434h45l152 -1262l260 1034h24l258 -1034zM483 1710h56l137 -201h-41l-125 158l-125 -158h-41z" glyph-name="Wcircumflex" horiz-adv-x="1017" unicode="Ŵ"/><glyph d="M932 1434h47l-176 -1434h-25l-268 1079l-270 -1079h-25l-174 1434h45l152 -1262l260 1034h24l258 -1034zM483 1710h56l137 -201h-41l-125 158l-125 -158h-41z" glyph-name="wcircumflex" horiz-adv-x="1017" unicode="ŵ"/><glyph d="M354 561l289 873h47l-313 -949v-485h-45v485l-314 949h48zM328 1710h55l137 -201h-41l-125 158l-125 -158h-41z" glyph-name="Ycircumflex" unicode="Ŷ"/><glyph d="M354 561l289 873h47l-313 -949v-485h-45v485l-314 949h48zM328 1710h55l137 -201h-41l-125 158l-125 -158h-41z" glyph-name="ycircumflex" unicode="ŷ"/><glyph d="M354 561l289 873h47l-313 -949v-485h-45v485l-314 949h48zM263.5 1600.5q15.5 -15.5 15.5 -37.5q0 -23 -15.5 -38.5t-38.5 -15.5q-20 0 -36.5 16.5t-16.5 37.5q0 23 15.5 38t37.5 15q23 0 38.5 -15.5zM537.5 1600.5q15.5 -15.5 15.5 -37.5q0 -23 -15.5 -38.5t-37.5 -15.5 q-20 0 -37 16.5t-17 37.5q0 23 15.5 38t38.5 15q22 0 37.5 -15.5z" glyph-name="Ydieresis" unicode="Ÿ"/><glyph d="M610 0h-569l504 1389h-504v45h567l-504 -1389h506v-45zM498 1710l-152 -201h-41l129 201h64z" glyph-name="Zacute" horiz-adv-x="651" unicode="Ź"/><glyph d="M610 0h-569l504 1389h-504v45h567l-504 -1389h506v-45zM498 1710l-152 -201h-41l129 201h64z" glyph-name="zacute" horiz-adv-x="651" unicode="ź"/><glyph d="M610 0h-569l504 1389h-504v45h567l-504 -1389h506v-45zM361.5 1600.5q15.5 -15.5 15.5 -37.5q0 -23 -15.5 -38.5t-37.5 -15.5q-20 0 -37 16.5t-17 37.5q0 23 15.5 38t38.5 15q22 0 37.5 -15.5z" glyph-name="Zdotaccent" horiz-adv-x="651" unicode="Ż"/><glyph d="M610 0h-569l504 1389h-504v45h567l-504 -1389h506v-45zM361.5 1600.5q15.5 -15.5 15.5 -37.5q0 -23 -15.5 -38.5t-37.5 -15.5q-20 0 -37 16.5t-17 37.5q0 23 15.5 38t38.5 15q22 0 37.5 -15.5z" glyph-name="zdotaccent" horiz-adv-x="651" unicode="ż"/><glyph d="M610 0h-569l504 1389h-504v45h567l-504 -1389h506v-45zM297 1509l-139 201h41l125 -158l125 158h40l-137 -201h-55z" glyph-name="Zcaron" horiz-adv-x="651" unicode="Ž"/><glyph d="M610 0h-569l504 1389h-504v45h567l-504 -1389h506v-45zM297 1509l-139 201h41l125 -158l125 158h40l-137 -201h-55z" glyph-name="zcaron" horiz-adv-x="651" unicode="ž"/><glyph d="M711 440v-151q0 -154 -84 -226q-74 -63 -199 -63h-285v346h-143v45h143v1043h248q125 0 201 -66q84 -74 84 -225v-152q0 -152 -84 -229q-23 -23 -57 -39q53 -18 92 -53q84 -78 84 -230zM188 737h203q109 0 170 58q70 63 70 196v152q0 246 -240 246h-203v-652zM666 440 q0 133 -70 197q-57 55 -168 55h-240v-301h146v-45h-146v-301h240q238 0 238 244v151z" glyph-name="uni0180" horiz-adv-x="780" unicode="ƀ"/><glyph d="M721 438v-149q0 -154 -84 -226q-70 -63 -199 -63h-284v1389h-86q-27 0 -45.5 -18.5t-18.5 -45.5h-45q0 45 32 77t77 32h335q127 0 199 -66q84 -74 84 -225v-152q0 -154 -84 -229q-23 -23 -57 -39q51 -16 94 -53q82 -80 82 -232zM199 737h204q111 0 168 58q70 63 70 196 v152q0 246 -238 246h-204v-652zM676 438q0 135 -68 197q-59 57 -170 57h-239v-647h239q238 0 238 244v149z" glyph-name="uni0181" horiz-adv-x="790" unicode="Ɓ"/><glyph d="M549 51q-74 -70 -199 -69q-127 0 -200 69q-84 78 -84 230v211h45v-211q0 -133 69 -197q61 -57 170 -57q106 0 168 57q70 63 70 197v872q0 133 -70 197q-61 57 -168 57q-109 0 -170 -57q-70 -63 -69 -197v-143h-45v143q0 152 84 229q74 70 200 70q125 0 199 -70 q84 -76 84 -229v-872q0 -154 -84 -230z" glyph-name="uni0186" horiz-adv-x="702" unicode="Ɔ"/><glyph d="M623.5 1529q31.5 32 76.5 32v-45q-27 0 -45 -18.5t-18 -45.5v-442h-45v143q0 133 -70 197q-61 57 -170 57q-106 0 -168 -57q-70 -63 -69 -197v-872q0 -133 69 -197q61 -57 168 -57q109 0 170 57q70 63 70 197v211h45v-211q0 -152 -84 -230q-74 -70 -201 -69 q-125 0 -198 69q-84 76 -84 230v872q0 154 84 229q74 70 198 70q127 0 201 -70q29 -29 39 -47v117q0 45 31.5 77z" glyph-name="uni0187" horiz-adv-x="702" unicode="Ƈ"/><glyph d="M623.5 1529q31.5 32 76.5 32v-45q-27 0 -45 -18.5t-18 -45.5v-442h-45v143q0 133 -70 197q-61 57 -170 57q-106 0 -168 -57q-70 -63 -69 -197v-872q0 -133 69 -197q61 -57 168 -57q109 0 170 57q70 63 70 197v211h45v-211q0 -152 -84 -230q-74 -70 -201 -69 q-125 0 -198 69q-84 76 -84 230v872q0 154 84 229q74 70 198 70q127 0 201 -70q29 -29 39 -47v117q0 45 31.5 77z" glyph-name="uni0188" horiz-adv-x="702" unicode="ƈ"/><glyph d="M659 1135v-846q0 -152 -84 -226q-74 -63 -200 -63h-283v692h-82v45h82v697h283q127 0 200 -70q84 -77 84 -229zM614 1135q0 133 -69 196q-61 57 -170 58h-238v-652h164v-45h-164v-647h238q240 0 239 244v846z" glyph-name="uni0189" horiz-adv-x="733" unicode="Ɖ"/><glyph d="M721 1137v-848q0 -152 -84 -226q-72 -63 -201 -63h-282v1389h-86q-27 0 -45.5 -18.5t-18.5 -45.5h-45q0 45 32 77t77 32h368q127 0 201 -68q84 -77 84 -229zM676 1137q0 133 -70 196q-57 55 -170 56h-237v-1344h237q240 0 240 244v848z" glyph-name="uni018A" horiz-adv-x="794" unicode="Ɗ"/><glyph d="M61 1389v45h482v-1434h-482v45h437v668h-305v45h305v631h-437z" glyph-name="uni018E" horiz-adv-x="604" unicode="Ǝ"/><glyph d="M127 1389v-633h305v-45h-305v-797q0 -45 -32 -77t-77 -32v45q27 0 45.5 18.5t18.5 45.5v1520h481v-45h-436z" glyph-name="uni0191" horiz-adv-x="598" unicode="Ƒ"/><glyph d="M625.5 1529q31.5 32 76.5 32v-45q-27 0 -45 -18.5t-18 -45.5v-442h-45v143q0 131 -70 197q-63 57 -170 57q-109 0 -170 -57q-70 -63 -69 -197v-874q0 -133 69 -197q59 -55 170 -55q109 0 170 55q70 66 70 197v415h-240v45h285v-460q0 -152 -84 -230q-74 -68 -201 -67 q-127 0 -200 67q-84 78 -84 230v874q0 152 84 229q76 70 200 70q125 0 201 -70q29 -29 39 -47v117q0 45 31.5 77z" glyph-name="uni0193" unicode="Ɠ"/><glyph d="M240 760v-45h-82v-715h-45v715h-82v45h82v674h45v-674h82z" glyph-name="uni0197" horiz-adv-x="270" unicode="Ɨ"/><glyph d="M824.5 1402q31.5 -32 31.5 -77h-45q0 27 -18.5 45.5t-44.5 18.5h-86l-285 -635l307 -754h-49l-285 698l-223 -495v-203h-45v1434h45v-1123l506 1123h115q45 0 76.5 -32z" glyph-name="uni0198" horiz-adv-x="815" unicode="Ƙ"/><glyph d="M824.5 1402q31.5 -32 31.5 -77h-45q0 27 -18.5 45.5t-44.5 18.5h-86l-285 -635l307 -754h-49l-285 698l-223 -495v-203h-45v1434h45v-1123l506 1123h115q45 0 76.5 -32z" glyph-name="uni0199" horiz-adv-x="815" unicode="ƙ"/><glyph d="M680 1434v-1434h-25l-518 1272v-1358q0 -45 -31.5 -77t-76.5 -32v45q27 0 45 18.5t18 45.5v1520h25l518 -1272v1272h45z" glyph-name="uni019D" horiz-adv-x="772" unicode="Ɲ"/><glyph d="M748 1516q0 -45 -32 -77t-77 -32h-117l33 -25q84 -78 84 -229v-872q0 -152 -84 -232q-78 -68 -201 -67q-123 0 -200 67q-84 80 -84 232v872q0 152 84 229q76 70 200 70h285q27 0 45 18.5t18 45.5h46zM354 1407q-109 0 -170 -57q-70 -63 -69 -197v-872q0 -135 69 -197 q57 -57 170 -57q111 0 170 57q70 63 70 197v872q0 131 -70 197q-64 57 -170 57z" glyph-name="Ohorn" horiz-adv-x="706" unicode="Ơ"/><glyph d="M748 1516q0 -45 -32 -77t-77 -32h-117l33 -25q84 -78 84 -229v-872q0 -152 -84 -232q-78 -68 -201 -67q-123 0 -200 67q-84 80 -84 232v872q0 152 84 229q76 70 200 70h285q27 0 45 18.5t18 45.5h46zM354 1407q-109 0 -170 -57q-70 -63 -69 -197v-872q0 -135 69 -197 q57 -57 170 -57q111 0 170 57q70 63 70 197v872q0 131 -70 197q-64 57 -170 57z" glyph-name="ohorn" horiz-adv-x="706" unicode="ơ"/><glyph d="M721 1133v-183q0 -152 -84 -229q-70 -68 -201 -68h-237v-653h-45v1389h-86q-27 0 -45.5 -18.5t-18.5 -45.5h-45q0 45 32 77t77 32h368q125 0 201 -70q84 -79 84 -231zM676 1133q0 131 -70 198q-61 57 -170 58h-237v-691h237q113 0 170 56q70 63 70 196v183z" glyph-name="uni01A4" horiz-adv-x="768" unicode="Ƥ"/><glyph d="M721 1133v-183q0 -152 -84 -229q-70 -68 -201 -68h-237v-653h-45v1389h-86q-27 0 -45.5 -18.5t-18.5 -45.5h-45q0 45 32 77t77 32h368q125 0 201 -70q84 -79 84 -231zM676 1133q0 131 -70 198q-61 57 -170 58h-237v-691h237q113 0 170 56q70 63 70 196v183z" glyph-name="uni01A5" horiz-adv-x="768" unicode="ƥ"/><glyph d="M637 1434v-45h-260v-1389h-45v1389h-264q-27 0 -45.5 -18.5t-18.5 -45.5h-45q0 45 32 77t77 32h569z" glyph-name="uni01AC" horiz-adv-x="661" unicode="Ƭ"/><glyph d="M637 1434v-45h-260v-1389h-45v1389h-264q-27 0 -45.5 -18.5t-18.5 -45.5h-45q0 45 32 77t77 32h569z" glyph-name="uni01AD" horiz-adv-x="661" unicode="ƭ"/><glyph d="M336 1389v-1475q0 -27 18.5 -44t44.5 -17v-46q-45 0 -76.5 31t-31.5 76v1475h-264v45h569v-45h-260z" glyph-name="uni01AE" horiz-adv-x="620" unicode="Ʈ"/><glyph d="M831 1497q0 -45 -31.5 -76.5t-76.5 -31.5h-86v-1108q0 -152 -84 -230q-76 -70 -201 -69q-125 0 -200 69q-84 78 -84 230v1153h45v-1153q0 -131 69 -197q63 -57 170 -57q109 0 170 57q70 63 70 197v1153h131q27 0 45 18t18 45h45z" glyph-name="Uhorn" horiz-adv-x="790" unicode="Ư"/><glyph d="M831 1497q0 -45 -31.5 -76.5t-76.5 -31.5h-86v-1108q0 -152 -84 -230q-76 -70 -201 -69q-125 0 -200 69q-84 78 -84 230v1153h45v-1153q0 -131 69 -197q63 -57 170 -57q109 0 170 57q70 63 70 197v1153h131q27 0 45 18t18 45h45z" glyph-name="uhorn" horiz-adv-x="790" unicode="ư"/><glyph d="M838.5 1402q31.5 -32 31.5 -77h-45q0 27 -18.5 45.5t-44.5 18.5h-86l-299 -904v-485h-45v485l-314 949h48l288 -873l289 873h119q45 0 76.5 -32z" glyph-name="uni01B3" horiz-adv-x="829" unicode="Ƴ"/><glyph d="M838.5 1402q31.5 -32 31.5 -77h-45q0 27 -18.5 45.5t-44.5 18.5h-86l-299 -904v-485h-45v485l-314 949h48l288 -873l289 873h119q45 0 76.5 -32z" glyph-name="uni01B4" horiz-adv-x="829" unicode="ƴ"/><glyph d="M657 0l-86 408h-395l-88 -408h-47l309 1434h45l310 -1434h-48zM184 453h377l-188 878zM346 1509l-139 201h41l125 -158l125 158h41l-138 -201h-55z" glyph-name="uni01CD" horiz-adv-x="745" unicode="Ǎ"/><glyph d="M657 0l-86 408h-395l-88 -408h-47l309 1434h45l310 -1434h-48zM184 453h377l-188 878zM346 1509l-139 201h41l125 -158l125 158h41l-138 -201h-55z" glyph-name="uni01CE" horiz-adv-x="745" unicode="ǎ"/><glyph d="M147 0h-45v1434h45v-1434zM98 1509l-139 201h41l125 -158l125 158h41l-137 -201h-56z" glyph-name="uni01CF" horiz-adv-x="249" unicode="Ǐ"/><glyph d="M147 0h-45v1434h45v-1434zM98 1509l-139 201h41l125 -158l125 158h41l-137 -201h-56z" glyph-name="uni01D0" horiz-adv-x="249" unicode="ǐ"/><glyph d="M555 49q-78 -68 -201 -67q-123 0 -200 67q-84 80 -84 232v872q0 152 84 229q76 70 200 70q125 0 201 -70q84 -78 84 -229v-872q0 -152 -84 -232zM524 1350q-63 57 -170 57q-109 0 -170 -57q-70 -63 -69 -197v-872q0 -135 69 -197q57 -57 170 -57q111 0 170 57 q70 63 70 197v872q0 131 -70 197zM328 1509l-140 201h41l125 -158l125 158h41l-137 -201h-55z" glyph-name="uni01D1" unicode="Ǒ"/><glyph d="M555 49q-78 -68 -201 -67q-123 0 -200 67q-84 80 -84 232v872q0 152 84 229q76 70 200 70q125 0 201 -70q84 -78 84 -229v-872q0 -152 -84 -232zM524 1350q-63 57 -170 57q-109 0 -170 -57q-70 -63 -69 -197v-872q0 -135 69 -197q57 -57 170 -57q111 0 170 57 q70 63 70 197v872q0 131 -70 197zM328 1509l-140 201h41l125 -158l125 158h41l-137 -201h-55z" glyph-name="uni01D2" unicode="ǒ"/><glyph d="M553 51q-76 -70 -201 -69q-125 0 -200 69q-84 78 -84 230v1153h45v-1153q0 -131 69 -197q63 -57 170 -57q109 0 170 57q70 63 70 197v1153h45v-1153q0 -152 -84 -230zM328 1509l-140 201h41l125 -158l125 158h41l-137 -201h-55z" glyph-name="uni01D3" horiz-adv-x="704" unicode="Ǔ"/><glyph d="M553 51q-76 -70 -201 -69q-125 0 -200 69q-84 78 -84 230v1153h45v-1153q0 -131 69 -197q63 -57 170 -57q109 0 170 57q70 63 70 197v1153h45v-1153q0 -152 -84 -230zM328 1509l-140 201h41l125 -158l125 158h41l-137 -201h-55z" glyph-name="uni01D4" horiz-adv-x="704" unicode="ǔ"/><glyph d="M553 51q-76 -70 -201 -69q-125 0 -200 69q-84 78 -84 230v1153h45v-1153q0 -133 69 -197q61 -57 170 -57q106 0 170 57q70 66 70 197v1153h45v-1153q0 -152 -84 -230zM253 1600.5q15 -15.5 15 -37.5q0 -23 -15 -38.5t-38 -15.5q-20 0 -36.5 16.5t-16.5 37.5q0 23 15.5 38 t37.5 15q23 0 38 -15.5zM527.5 1600.5q15.5 -15.5 15.5 -37.5q0 -23 -15.5 -38.5t-38.5 -15.5q-20 0 -36.5 16.5t-16.5 37.5q0 23 15.5 38t37.5 15q23 0 38.5 -15.5zM694 1694h-684v45h684v-45z" glyph-name="uni01D5" horiz-adv-x="704" unicode="Ǖ"/><glyph d="M553 51q-76 -70 -201 -69q-125 0 -200 69q-84 78 -84 230v1153h45v-1153q0 -133 69 -197q61 -57 170 -57q106 0 170 57q70 66 70 197v1153h45v-1153q0 -152 -84 -230zM253 1600.5q15 -15.5 15 -37.5q0 -23 -15 -38.5t-38 -15.5q-20 0 -36.5 16.5t-16.5 37.5q0 23 15.5 38 t37.5 15q23 0 38 -15.5zM527.5 1600.5q15.5 -15.5 15.5 -37.5q0 -23 -15.5 -38.5t-38.5 -15.5q-20 0 -36.5 16.5t-16.5 37.5q0 23 15.5 38t37.5 15q23 0 38.5 -15.5zM694 1694h-684v45h684v-45z" glyph-name="uni01D6" horiz-adv-x="704" unicode="ǖ"/><glyph d="M553 51q-76 -70 -201 -69q-125 0 -200 69q-84 78 -84 230v1153h45v-1153q0 -131 69 -197q63 -57 170 -57q109 0 170 57q70 63 70 197v1153h45v-1153q0 -152 -84 -230zM253 1600.5q15 -15.5 15 -37.5q0 -23 -15 -38.5t-38 -15.5q-20 0 -36.5 16.5t-16.5 37.5q0 23 15.5 38 t37.5 15q23 0 38 -15.5zM527.5 1600.5q15.5 -15.5 15.5 -37.5q0 -23 -15.5 -38.5t-38.5 -15.5q-20 0 -36.5 16.5t-16.5 37.5q0 23 15.5 38t37.5 15q23 0 38.5 -15.5zM524 1894l-151 -200h-41l129 200h63z" glyph-name="uni01D7" horiz-adv-x="704" unicode="Ǘ"/><glyph d="M553 51q-76 -70 -201 -69q-125 0 -200 69q-84 78 -84 230v1153h45v-1153q0 -131 69 -197q63 -57 170 -57q109 0 170 57q70 63 70 197v1153h45v-1153q0 -152 -84 -230zM253 1600.5q15 -15.5 15 -37.5q0 -23 -15 -38.5t-38 -15.5q-20 0 -36.5 16.5t-16.5 37.5q0 23 15.5 38 t37.5 15q23 0 38 -15.5zM527.5 1600.5q15.5 -15.5 15.5 -37.5q0 -23 -15.5 -38.5t-38.5 -15.5q-20 0 -36.5 16.5t-16.5 37.5q0 23 15.5 38t37.5 15q23 0 38.5 -15.5zM524 1894l-151 -200h-41l129 200h63z" glyph-name="uni01D8" horiz-adv-x="704" unicode="ǘ"/><glyph d="M553 51q-76 -70 -201 -69q-125 0 -200 69q-84 78 -84 230v1153h45v-1153q0 -131 69 -197q63 -57 170 -57q109 0 170 57q70 63 70 197v1153h45v-1153q0 -152 -84 -230zM253 1600.5q15 -15.5 15 -37.5q0 -23 -15 -38.5t-38 -15.5q-20 0 -36.5 16.5t-16.5 37.5q0 23 15.5 38 t37.5 15q23 0 38 -15.5zM527.5 1600.5q15.5 -15.5 15.5 -37.5q0 -23 -15.5 -38.5t-38.5 -15.5q-20 0 -36.5 16.5t-16.5 37.5q0 23 15.5 38t37.5 15q23 0 38.5 -15.5zM326 1694l-140 200h41l125 -157l125 157h41l-137 -200h-55z" glyph-name="uni01D9" horiz-adv-x="704" unicode="Ǚ"/><glyph d="M553 51q-76 -70 -201 -69q-125 0 -200 69q-84 78 -84 230v1153h45v-1153q0 -131 69 -197q63 -57 170 -57q109 0 170 57q70 63 70 197v1153h45v-1153q0 -152 -84 -230zM253 1600.5q15 -15.5 15 -37.5q0 -23 -15 -38.5t-38 -15.5q-20 0 -36.5 16.5t-16.5 37.5q0 23 15.5 38 t37.5 15q23 0 38 -15.5zM527.5 1600.5q15.5 -15.5 15.5 -37.5q0 -23 -15.5 -38.5t-38.5 -15.5q-20 0 -36.5 16.5t-16.5 37.5q0 23 15.5 38t37.5 15q23 0 38.5 -15.5zM326 1694l-140 200h41l125 -157l125 157h41l-137 -200h-55z" glyph-name="uni01DA" horiz-adv-x="704" unicode="ǚ"/><glyph d="M553 51q-76 -70 -201 -69q-125 0 -200 69q-84 78 -84 230v1153h45v-1153q0 -133 69 -197q61 -57 170 -57q106 0 170 57q70 66 70 197v1153h45v-1153q0 -152 -84 -230zM451.5 1524.5q-15.5 15.5 -15.5 38.5t15.5 38t37.5 15q23 0 38.5 -15.5t15.5 -37.5q0 -20 -15.5 -37 t-38.5 -17q-22 0 -37.5 15.5zM177.5 1524.5q-15.5 15.5 -15.5 38.5t15.5 38t37.5 15q23 0 38 -15.5t15 -37.5q0 -20 -15 -37t-38 -17q-22 0 -37.5 15.5zM180 1894h64l129 -200h-41z" glyph-name="uni01DB" horiz-adv-x="704" unicode="Ǜ"/><glyph d="M553 51q-76 -70 -201 -69q-125 0 -200 69q-84 78 -84 230v1153h45v-1153q0 -133 69 -197q61 -57 170 -57q106 0 170 57q70 66 70 197v1153h45v-1153q0 -152 -84 -230zM451.5 1524.5q-15.5 15.5 -15.5 38.5t15.5 38t37.5 15q23 0 38.5 -15.5t15.5 -37.5q0 -20 -15.5 -37 t-38.5 -17q-22 0 -37.5 15.5zM177.5 1524.5q-15.5 15.5 -15.5 38.5t15.5 38t37.5 15q23 0 38 -15.5t15 -37.5q0 -20 -15 -37t-38 -17q-22 0 -37.5 15.5zM180 1894h64l129 -200h-41z" glyph-name="uni01DC" horiz-adv-x="704" unicode="ǜ"/><glyph d="M49 1389v45h481v-1434h-481v45h436v668h-305v45h305v631h-436z" glyph-name="uni01DD" horiz-adv-x="612" unicode="ǝ"/><glyph d="M657 0l-86 408h-395l-88 -408h-47l309 1434h45l310 -1434h-48zM184 453h377l-188 878zM273.5 1600.5q15.5 -15.5 15.5 -37.5q0 -23 -15.5 -38.5t-37.5 -15.5q-20 0 -37 16.5t-17 37.5q0 23 15.5 38t38.5 15q22 0 37.5 -15.5zM547.5 1600.5q15.5 -15.5 15.5 -37.5 q0 -23 -15.5 -38.5t-37.5 -15.5q-20 0 -36.5 16.5t-16.5 37.5q0 23 15 38t38 15q22 0 37.5 -15.5zM735 1694h-684v45h684v-45z" glyph-name="uni01DE" horiz-adv-x="776" unicode="Ǟ"/><glyph d="M657 0l-86 408h-395l-88 -408h-47l309 1434h45l310 -1434h-48zM184 453h377l-188 878zM273.5 1600.5q15.5 -15.5 15.5 -37.5q0 -23 -15.5 -38.5t-37.5 -15.5q-20 0 -37 16.5t-17 37.5q0 23 15.5 38t38.5 15q22 0 37.5 -15.5zM547.5 1600.5q15.5 -15.5 15.5 -37.5 q0 -23 -15.5 -38.5t-37.5 -15.5q-20 0 -36.5 16.5t-16.5 37.5q0 23 15 38t38 15q22 0 37.5 -15.5zM735 1694h-684v45h684v-45z" glyph-name="uni01DF" horiz-adv-x="776" unicode="ǟ"/><glyph d="M555 49q-74 -68 -201 -67q-127 0 -200 67q-84 78 -84 230v874q0 152 84 229q76 70 200 70q125 0 201 -70q84 -78 84 -229v-143h-45v143q0 131 -70 197q-63 57 -170 57q-109 0 -170 -57q-70 -63 -69 -197v-874q0 -133 69 -197q59 -55 170 -55q109 0 170 55q70 66 70 197 v415h-240v45h285v-460q0 -152 -84 -230zM326 1509l-140 201h41l125 -158l125 158h41l-137 -201h-55z" glyph-name="Gcaron" unicode="Ǧ"/><glyph d="M555 49q-74 -68 -201 -67q-127 0 -200 67q-84 78 -84 230v874q0 152 84 229q76 70 200 70q125 0 201 -70q84 -78 84 -229v-143h-45v143q0 131 -70 197q-63 57 -170 57q-109 0 -170 -57q-70 -63 -69 -197v-874q0 -133 69 -197q59 -55 170 -55q109 0 170 55q70 66 70 197 v415h-240v45h285v-460q0 -152 -84 -230zM326 1509l-140 201h41l125 -158l125 158h41l-137 -201h-55z" glyph-name="gcaron" unicode="ǧ"/><glyph d="M608 1309q29 -59 29 -152v-876q0 -154 -84 -230q-74 -70 -199 -69q-127 0 -200 69q-10 8 -27 29l-37 -94l-41 16l49 127q-29 63 -28 152v876q0 150 84 229q72 68 200 68q127 0 199 -68l27 -28l36 96l43 -16zM123 193l436 1114q-14 27 -37 45q-57 57 -168 57 q-113 0 -170 -57q-70 -61 -69 -195v-876q0 -53 8 -88zM584 1243l-437 -1112q16 -29 37 -47q61 -57 170 -57q106 0 168 57q70 63 70 197v876q0 53 -8 86z" glyph-name="Oslashacute" unicode="Ǿ"/><glyph d="M608 1309q29 -59 29 -152v-876q0 -154 -84 -230q-74 -70 -199 -69q-127 0 -200 69q-10 8 -27 29l-37 -94l-41 16l49 127q-29 63 -28 152v876q0 150 84 229q72 68 200 68q127 0 199 -68l27 -28l36 96l43 -16zM123 193l436 1114q-14 27 -37 45q-57 57 -168 57 q-113 0 -170 -57q-70 -61 -69 -195v-876q0 -53 8 -88zM584 1243l-437 -1112q16 -29 37 -47q61 -57 170 -57q106 0 168 57q70 63 70 197v876q0 53 -8 86z" glyph-name="oslashacute" unicode="ǿ"/><glyph d="M543 51q-76 -70 -201 -69q-125 0 -201 69q-84 78 -84 230v215h45v-215q0 -131 70 -197q63 -57 170 -57q106 0 170 57q70 63 70 197v102q0 147 -90 244q-33 35 -69 57.5t-91 48.5q-57 27 -96 50.5t-76 62.5q-102 106 -103 268v41q0 150 84 229q74 68 201 68t201 -68 q84 -80 84 -229v-141h-45v141q0 133 -70 195q-59 57 -170 57t-170 -57q-70 -63 -70 -195v-41q0 -143 91 -237q33 -33 67.5 -53.5t93.5 -51.5q55 -27 94 -51.5t76 -63.5q102 -109 103 -274v-102q0 -152 -84 -230zM381 -184q-4 -8 -35 -58h-41l12 29q4 8 5 14q0 10 -9 19 q-25 18 -24 45q0 20 16.5 36.5t36.5 16.5q23 0 38 -16.5t15 -36.5t-14 -49z" glyph-name="Scommaaccent" horiz-adv-x="681" unicode="Ș"/><glyph d="M543 51q-76 -70 -201 -69q-125 0 -201 69q-84 78 -84 230v215h45v-215q0 -131 70 -197q63 -57 170 -57q106 0 170 57q70 63 70 197v102q0 147 -90 244q-33 35 -69 57.5t-91 48.5q-57 27 -96 50.5t-76 62.5q-102 106 -103 268v41q0 150 84 229q74 68 201 68t201 -68 q84 -80 84 -229v-141h-45v141q0 133 -70 195q-59 57 -170 57t-170 -57q-70 -63 -70 -195v-41q0 -143 91 -237q33 -33 67.5 -53.5t93.5 -51.5q55 -27 94 -51.5t76 -63.5q102 -109 103 -274v-102q0 -152 -84 -230zM381 -184q-4 -8 -35 -58h-41l12 29q4 8 5 14q0 10 -9 19 q-25 18 -24 45q0 20 16.5 36.5t36.5 16.5q23 0 38 -16.5t15 -36.5t-14 -49z" glyph-name="scommaaccent" horiz-adv-x="681" unicode="ș"/><glyph d="M596 1434v-45h-260v-1389h-45v1389h-264v45h569zM352 -184q-4 -8 -35 -58h-41l13 29q4 8 4 14q0 10 -8 19q-25 18 -25 45q0 20 16.5 36.5t36.5 16.5q23 0 38.5 -16.5t15.5 -36.5q-1 -20 -15 -49z" glyph-name="uni021A" horiz-adv-x="620" unicode="Ț"/><glyph d="M596 1434v-45h-260v-1389h-45v1389h-264v45h569zM352 -184q-4 -8 -35 -58h-41l13 29q4 8 4 14q0 10 -8 19q-25 18 -25 45q0 20 16.5 36.5t36.5 16.5q23 0 38.5 -16.5t15.5 -36.5q-1 -20 -15 -49z" glyph-name="uni021B" horiz-adv-x="620" unicode="ț"/><glyph d="M301 1389v-631h305v-45h-305v-668h436v-45h-219q4 -20 23 -35l4 -4q27 -18 43 -39.5t16 -58.5q0 -45 -31.5 -77t-76.5 -32t-77 32t-32 77h45q0 -27 18.5 -45.5t45.5 -18.5t45 18.5t18 45.5q0 23 -9 35t-32 28l-4 2q-37 29 -41 72h-217v1434h481v-45h-436z" glyph-name="uni0228" horiz-adv-x="1228" unicode="Ȩ"/><glyph d="M301 1389v-631h305v-45h-305v-668h436v-45h-219q4 -20 23 -35l4 -4q27 -18 43 -39.5t16 -58.5q0 -45 -31.5 -77t-76.5 -32t-77 32t-32 77h45q0 -27 18.5 -45.5t45.5 -18.5t45 18.5t18 45.5q0 23 -9 35t-32 28l-4 2q-37 29 -41 72h-217v1434h481v-45h-436z" glyph-name="uni0229" horiz-adv-x="1228" unicode="ȩ"/><glyph d="M555 49q-78 -68 -201 -67q-123 0 -200 67q-84 80 -84 232v872q0 152 84 229q76 70 200 70q125 0 201 -70q84 -78 84 -229v-872q0 -152 -84 -232zM524 1350q-63 57 -170 57q-109 0 -170 -57q-70 -63 -69 -197v-872q0 -135 69 -197q57 -57 170 -57q111 0 170 57 q70 63 70 197v872q0 131 -70 197zM253 1600.5q15 -15.5 15 -37.5q0 -23 -15 -38.5t-38 -15.5q-20 0 -36.5 16.5t-16.5 37.5q0 23 15.5 38t37.5 15q23 0 38 -15.5zM527.5 1600.5q15.5 -15.5 15.5 -37.5q0 -23 -15.5 -38.5t-38.5 -15.5q-20 0 -36.5 16.5t-16.5 37.5 q0 23 15.5 38t37.5 15q23 0 38.5 -15.5zM696 1694h-684v45h684v-45z" glyph-name="uni022A" unicode="Ȫ"/><glyph d="M555 49q-78 -68 -201 -67q-123 0 -200 67q-84 80 -84 232v872q0 152 84 229q76 70 200 70q125 0 201 -70q84 -78 84 -229v-872q0 -152 -84 -232zM524 1350q-63 57 -170 57q-109 0 -170 -57q-70 -63 -69 -197v-872q0 -135 69 -197q57 -57 170 -57q111 0 170 57 q70 63 70 197v872q0 131 -70 197zM253 1600.5q15 -15.5 15 -37.5q0 -23 -15 -38.5t-38 -15.5q-20 0 -36.5 16.5t-16.5 37.5q0 23 15.5 38t37.5 15q23 0 38 -15.5zM527.5 1600.5q15.5 -15.5 15.5 -37.5q0 -23 -15.5 -38.5t-38.5 -15.5q-20 0 -36.5 16.5t-16.5 37.5 q0 23 15.5 38t37.5 15q23 0 38.5 -15.5zM696 1694h-684v45h684v-45z" glyph-name="uni022B" unicode="ȫ"/><glyph d="M711 440v-151q0 -154 -84 -226q-74 -63 -199 -63h-285v346h-143v45h143v1043h248q125 0 201 -66q84 -74 84 -225v-152q0 -152 -84 -229q-23 -23 -57 -39q53 -18 92 -53q84 -78 84 -230zM188 737h203q109 0 170 58q70 63 70 196v152q0 246 -240 246h-203v-652zM666 440 q0 133 -70 197q-57 55 -168 55h-240v-301h146v-45h-146v-301h240q238 0 238 244v151z" glyph-name="uni0243" horiz-adv-x="780" unicode="Ƀ"/><glyph d="M743 715h-81v-434q0 -152 -84 -230q-76 -70 -201 -69q-125 0 -201 69q-84 78 -84 230v434h-82v45h82v674h45v-674h479v674h46v-674h81v-45zM616 715h-479v-434q0 -131 70 -197q63 -57 170 -57q109 0 170 57q70 63 69 197v434z" glyph-name="uni0244" horiz-adv-x="753" unicode="Ʉ"/><glyph d="M383 1434l307 -1434h-45l-285 1333l-286 -1333h-45l307 1434h47z" glyph-name="uni0245" horiz-adv-x="718" unicode="Ʌ"/><glyph d="M578 721q-41 -39 -99 -53l183 -668h-48l-178 657q-18 -4 -59 -4h-240v-653h-45v653h-82v45h82v736h285q125 0 201 -70q84 -80 84 -231v-183q0 -151 -84 -229zM616 950v183q0 129 -69 198q-63 57 -170 58h-240v-691h240q109 0 170 56q69 65 69 196z" glyph-name="uni024C" horiz-adv-x="712" unicode="Ɍ"/><glyph d="M578 721q-41 -39 -99 -53l183 -668h-48l-178 657q-18 -4 -59 -4h-240v-653h-45v653h-82v45h82v736h285q125 0 201 -70q84 -80 84 -231v-183q0 -151 -84 -229zM616 950v183q0 129 -69 198q-63 57 -170 58h-240v-691h240q109 0 170 56q69 65 69 196z" glyph-name="uni024D" horiz-adv-x="712" unicode="ɍ"/><glyph d="M657 1434h48l-310 -1434h-45l-309 1434h47l88 -408h395zM184 981l189 -879l188 879h-377z" glyph-name="uni0250" horiz-adv-x="745" unicode="ɐ"/><glyph d="M721 438v-149q0 -154 -84 -226q-70 -63 -199 -63h-284v1389h-86q-27 0 -45.5 -18.5t-18.5 -45.5h-45q0 45 32 77t77 32h335q127 0 199 -66q84 -74 84 -225v-152q0 -154 -84 -229q-23 -23 -57 -39q51 -16 94 -53q82 -80 82 -232zM199 737h204q111 0 168 58q70 63 70 196 v152q0 246 -238 246h-204v-652zM676 438q0 135 -68 197q-59 57 -170 57h-239v-647h239q238 0 238 244v149z" glyph-name="uni0253" horiz-adv-x="790" unicode="ɓ"/><glyph d="M549 51q-74 -70 -199 -69q-127 0 -200 69q-84 78 -84 230v211h45v-211q0 -133 69 -197q61 -57 170 -57q106 0 168 57q70 63 70 197v872q0 133 -70 197q-61 57 -168 57q-109 0 -170 -57q-70 -63 -69 -197v-143h-45v143q0 152 84 229q74 70 200 70q125 0 199 -70 q84 -76 84 -229v-872q0 -154 -84 -230z" glyph-name="uni0254" horiz-adv-x="702" unicode="ɔ"/><glyph d="M721 1137v-848q0 -152 -84 -226q-72 -63 -201 -63h-282v1389h-86q-27 0 -45.5 -18.5t-18.5 -45.5h-45q0 45 32 77t77 32h368q127 0 201 -68q84 -77 84 -229zM676 1137q0 133 -70 196q-57 55 -170 56h-237v-1344h237q240 0 240 244v848z" glyph-name="uni0257" horiz-adv-x="794" unicode="ɗ"/><glyph d="M49 1389v45h481v-1434h-481v45h436v668h-305v45h305v631h-436z" glyph-name="uni0258" horiz-adv-x="612" unicode="ɘ"/><glyph d="M625.5 1529q31.5 32 76.5 32v-45q-27 0 -45 -18.5t-18 -45.5v-442h-45v143q0 131 -70 197q-63 57 -170 57q-109 0 -170 -57q-70 -63 -69 -197v-874q0 -133 69 -197q59 -55 170 -55q109 0 170 55q70 66 70 197v415h-240v45h285v-460q0 -152 -84 -230q-74 -68 -201 -67 q-127 0 -200 67q-84 78 -84 230v874q0 152 84 229q76 70 200 70q125 0 201 -70q29 -29 39 -47v117q0 45 31.5 77z" glyph-name="uni0260" unicode="ɠ"/><glyph d="M555 49q-74 -68 -201 -67q-127 0 -200 67q-84 78 -84 230v669q0 152 84 230q76 70 200 69q125 0 201 -69q84 -78 84 -230v-41h-45v41q0 131 -70 197q-63 57 -170 57q-109 0 -170 -57q-70 -63 -69 -197v-669q0 -133 69 -197q59 -55 170 -55q109 0 170 55q70 66 70 197v313 h-240v45h285v-358q0 -152 -84 -230z" glyph-name="uni0262" unicode="ɢ"/><glyph d="M614 1434h45v-1434h-45v713h-477v-713h-45v1434h45v-676h477v676z" glyph-name="uni0265" horiz-adv-x="751" unicode="ɥ"/><glyph d="M721 1434v-1434h-45v713h-477v-713h-45v1389h-86q-27 0 -45.5 -18.5t-18.5 -45.5h-45q0 45 32 77t77 32h131v-676h477v676h45z" glyph-name="uni0266" horiz-adv-x="813" unicode="ɦ"/><glyph d="M240 760v-45h-82v-715h-45v715h-82v45h82v674h45v-674h82z" glyph-name="uni0268" horiz-adv-x="270" unicode="ɨ"/><glyph d="M147 0h-45v1229h45v-1229z" glyph-name="uni026A" horiz-adv-x="249" unicode="ɪ"/><glyph d="M500 1116l-394 -1116h-24v1434h45v-1250l360 1024h25l358 -1024v1250h45v-1434h-24z" glyph-name="uni026F" horiz-adv-x="997" unicode="ɯ"/><glyph d="M680 1434v-1434h-25l-518 1272v-1358q0 -45 -31.5 -77t-76.5 -32v45q27 0 45 18.5t18 45.5v1520h25l518 -1272v1272h45z" glyph-name="uni0272" horiz-adv-x="772" unicode="ɲ"/><glyph d="M680 1229v-1229h-25l-518 1067v-1067h-45v1229h25l518 -1067v1067h45z" glyph-name="uni0274" horiz-adv-x="772" unicode="ɴ"/><glyph d="M518 1184v-529h305v-45h-305v-565h436v-45h-481h-119q-125 0 -200 70q-84 78 -84 229v631q0 152 84 229q76 70 200 70h119h481v-45h-436zM473 45v1139h-119q-109 0 -170 -58q-70 -63 -69 -196v-631q0 -133 69 -197q61 -57 170 -57h119z" glyph-name="uni0276" horiz-adv-x="1003" unicode="ɶ"/><glyph d="M649 0h-47l-213 551h-22h-240v-551h-45v1229h285q125 0 200 -70q84 -80 84 -231v-80q0 -152 -84 -230q-55 -49 -133 -61zM537 651q70 66 69 197v80q0 129 -69 198q-63 57 -170 58h-240v-588h240q109 0 170 55z" glyph-name="uni0280" horiz-adv-x="702" unicode="ʀ"/><glyph d="M567 610q84 -78 84 -229v-80q0 -152 -84 -231q-76 -70 -200 -70h-285v1229h45v-551h240h22l213 551h47l-215 -557q78 -13 133 -62zM127 633v-588h240q106 0 170 57q70 70 69 199v80q0 131 -69 197q-61 55 -170 55h-240z" glyph-name="uni0281" horiz-adv-x="702" unicode="ʁ"/><glyph d="M336 1389v-1475q0 -27 18.5 -44t44.5 -17v-46q-45 0 -76.5 31t-31.5 76v1475h-264v45h569v-45h-260z" glyph-name="uni0288" horiz-adv-x="620" unicode="ʈ"/><glyph d="M743 715h-81v-434q0 -152 -84 -230q-76 -70 -201 -69q-125 0 -201 69q-84 78 -84 230v434h-82v45h82v674h45v-674h479v674h46v-674h81v-45zM616 715h-479v-434q0 -131 70 -197q63 -57 170 -57q109 0 170 57q70 63 69 197v434z" glyph-name="uni0289" horiz-adv-x="753" unicode="ʉ"/><glyph d="M383 1434l307 -1434h-45l-285 1333l-286 -1333h-45l307 1434h47z" glyph-name="uni028C" horiz-adv-x="718" unicode="ʌ"/><glyph d="M932 0l-152 1262l-258 -1035h-24l-260 1035l-152 -1262h-45l174 1434h25l270 -1080l268 1080h25l176 -1434h-47z" glyph-name="uni028D" horiz-adv-x="1017" unicode="ʍ"/><glyph d="M354 872l-288 -872h-48l314 948v486h45v-486l313 -948h-47z" glyph-name="uni028E" unicode="ʎ"/><glyph d="M354 459l289 770h47l-313 -846v-383h-45v383l-314 846h48z" glyph-name="uni028F" unicode="ʏ"/><glyph d="M565 63q-70 -63 -198 -63h-285v1229h250q127 0 198 -66q84 -74 84 -225v-49q0 -154 -84 -230q-23 -23 -57 -38q51 -16 94 -54q82 -80 82 -231v-47q0 -154 -84 -226zM127 590v-545h240q238 0 237 244v47q0 135 -67 196q-59 57 -170 58h-240zM127 1184v-549h205 q111 0 168 57q70 63 69 197v49q0 246 -237 246h-205z" glyph-name="uni0299" horiz-adv-x="718" unicode="ʙ"/><glyph d="M625.5 1324q31.5 32 76.5 32v-45q-27 0 -45 -18.5t-18 -45.5v-340h-45v41q0 131 -70 197q-63 57 -170 57q-109 0 -170 -57q-70 -63 -69 -197v-669q0 -133 69 -197q59 -55 170 -55q109 0 170 55q70 66 70 197v313h-240v45h285v-358q0 -152 -84 -230q-74 -68 -201 -67 q-127 0 -200 67q-84 78 -84 230v669q0 152 84 230q76 70 200 69q125 0 201 -69q29 -29 39 -48v117q0 45 31.5 77z" glyph-name="uni029B" unicode="ʛ"/><glyph d="M614 1229h45v-1229h-45v610h-477v-610h-45v1229h45v-574h477v574z" glyph-name="uni029C" horiz-adv-x="751" unicode="ʜ"/><glyph d="M563 0h-481v1229h45v-1184h436v-45z" glyph-name="uni029F" horiz-adv-x="600" unicode="ʟ"/><glyph d="M160 1710h55l137 -201h-41l-125 158l-125 -158h-41z" glyph-name="circumflex" horiz-adv-x="372" unicode="ˆ"/><glyph d="M160 1509l-140 201h41l125 -158l125 158h41l-137 -201h-55z" glyph-name="caron" horiz-adv-x="372" unicode="ˇ"/><glyph d="M393 1696q0 -76 -54 -131.5t-132 -55.5q-76 0 -131.5 55.5t-55.5 131.5h46q0 -57 42 -99.5t99 -42.5q59 0 100 42t41 100h45z" glyph-name="breve" horiz-adv-x="413" unicode="˘"/><glyph d="M111.5 1600.5q15.5 -15.5 15.5 -37.5q0 -23 -15.5 -38.5t-37.5 -15.5q-20 0 -37 16.5t-17 37.5q0 23 15.5 38t38.5 15q22 0 37.5 -15.5z" glyph-name="dotaccent" horiz-adv-x="147" unicode="˙"/><glyph d="M206 1541q-32 -32 -77 -32t-77 32t-32 77t32 76.5t77 31.5t77 -31.5t32 -76.5t-32 -77zM174.5 1663q-18.5 18 -45.5 18t-45 -18t-18 -45t18 -45.5t45 -18.5t45.5 18.5t18.5 45.5t-18.5 45z" glyph-name="ring" horiz-adv-x="258" unicode="˚"/><glyph d="M168 1581q-55 0 -113 -70l-35 29q63 76 127 84l21 2q45 0 117 -41q47 -29 84 -29q55 0 110 68l35 -27q-59 -76 -123 -84q-6 -2 -22 -2q-47 0 -109 37q-53 33 -92 33z" glyph-name="tilde" horiz-adv-x="534" unicode="˜"/><glyph d="M399 1710l-151 -201h-41l129 201h63zM213 1710l-152 -201h-41l130 201h63z" glyph-name="hungarumlaut" horiz-adv-x="419" unicode="˝"/><glyph d="M-213 1710h63l130 -201h-41z" glyph-name="gravecomb" horiz-adv-x="0" unicode="̀"/><glyph d="M-20 1710l-152 -201h-41l129 201h64z" glyph-name="acutecomb" horiz-adv-x="0" unicode="́"/><glyph d="M-213 1710h55l138 -201h-41l-125 158l-125 -158h-41z" glyph-name="uni0302" horiz-adv-x="0" unicode="̂"/><glyph d="M-367 1581q-55 0 -112 -70l-35 29q63 76 127 84l20 2q45 0 117 -41q47 -29 84 -29q55 0 111 68l35 -27q-59 -76 -123 -84q-6 -2 -23 -2q-47 0 -108 37q-54 33 -93 33z" glyph-name="tildecomb" horiz-adv-x="0" unicode="̃"/><glyph d="M-20 1509h-685v45h685v-45z" glyph-name="uni0304" horiz-adv-x="0" unicode="̄"/><glyph d="M-20 1696q0 -76 -55.5 -131.5t-131.5 -55.5q-78 0 -132 55.5t-54 131.5h45q0 -57 41 -99.5t100 -42.5q57 0 99 42t42 100h46z" glyph-name="uni0306" horiz-adv-x="0" unicode="̆"/><glyph d="M-35.5 1600.5q15.5 -15.5 15.5 -37.5q0 -23 -15.5 -38.5t-38.5 -15.5t-38 16.5t-15 37.5q0 23 15.5 38t37.5 15q23 0 38.5 -15.5z" glyph-name="uni0307" horiz-adv-x="0" unicode="̇"/><glyph d="M-310.5 1600.5q15.5 -15.5 15.5 -37.5q0 -23 -15.5 -38.5t-37.5 -15.5q-23 0 -38 16.5t-15 37.5q0 23 15 38t38 15q22 0 37.5 -15.5zM-35.5 1600.5q15.5 -15.5 15.5 -37.5q0 -23 -15.5 -38.5t-38.5 -15.5t-38 16.5t-15 37.5q0 23 15.5 38t37.5 15q23 0 38.5 -15.5z" glyph-name="uni0308" horiz-adv-x="0" unicode="̈"/><glyph d="M-103 1609q-42 42 -102 42l-39 39q18 6 39 6q76 0 130.5 -54.5t54.5 -132.5h-41q0 58 -42 100z" glyph-name="hookabovecomb" horiz-adv-x="0" unicode="̉"/><glyph d="M-52 1541q-32 -32 -77 -32t-77 32t-32 77t32 76.5t77 31.5t77 -31.5t32 -76.5t-32 -77zM-84 1663q-18 18 -45 18t-45.5 -18t-18.5 -45t18.5 -45.5t45.5 -18.5t45 18.5t18 45.5t-18 45z" glyph-name="uni030A" horiz-adv-x="0" unicode="̊"/><glyph d="M-20 1710l-152 -201h-41l129 201h64zM-207 1710l-151 -201h-41l129 201h63z" glyph-name="uni030B" horiz-adv-x="0" unicode="̋"/><glyph d="M-213 1509l-139 201h41l125 -158l125 158h41l-138 -201h-55z" glyph-name="uni030C" horiz-adv-x="0" unicode="̌"/><glyph d="M-113 1612q4 8 35 57h41l-12 -29q-4 -8 -4 -14q0 -10 8 -18q25 -18 25 -45q0 -20 -16.5 -37t-37.5 -17q-23 0 -38 16.5t-15 37.5q0 20 14 49z" glyph-name="uni0312" horiz-adv-x="0" unicode="̒"/><glyph d="M-66 1434h46v-86q0 -45 -32 -77t-77 -32v45q27 0 45 18.5t18 45.5v86z" glyph-name="uni031B" horiz-adv-x="0" unicode="̛"/><glyph d="M-35.5 -97.5q15.5 -15.5 15.5 -37.5q0 -23 -15.5 -38t-38.5 -15t-38 15t-15 38t15.5 38t37.5 15q23 0 38.5 -15.5z" glyph-name="dotbelowcomb" horiz-adv-x="0" unicode="̣"/><glyph d="M-35 -184q-4 -8 -35 -58h-41l13 29q4 8 4 14q0 10 -8 19q-25 18 -25 45q0 20 15.5 36.5t37.5 16.5q20 0 37 -16.5t17 -36.5q-1 -20 -15 -49z" glyph-name="uni0326" horiz-adv-x="0" unicode="̦"/><glyph d="M-106 -4q0 -18 5 -29.5t21 -23.5q27 -23 43.5 -43.5t16.5 -55.5q0 -45 -32 -76.5t-77 -31.5t-77 31.5t-32 76.5h45q0 -27 18.5 -45t45.5 -18t45 18.5t18 44.5q0 23 -10 36.5t-30 27.5q-23 16 -34.5 31.5t-11.5 42.5v18h46v-4z" glyph-name="uni0327" horiz-adv-x="0" unicode="̧"/><glyph d="M-35 -213h-39q-57 0 -96 14.5t-39 57.5q0 74 139 141h50q-66 -37 -93.5 -65.5t-27.5 -57.5q0 -43 88 -43h18v-47z" glyph-name="uni0328" horiz-adv-x="0" unicode="̨"/><glyph d="M-20 -127h-685v45h685v-45z" glyph-name="uni0331" horiz-adv-x="0" unicode="̱"/><glyph d="M-20 713h-685v45h685v-45z" glyph-name="uni0335" horiz-adv-x="0" unicode="̵"/><glyph d="M-20 713h-685v45h685v-45z" glyph-name="uni0336" horiz-adv-x="0" unicode="̶"/><glyph d="M565 63q-70 -63 -198 -63h-285v1434h250q127 0 198 -66q84 -74 84 -225v-152q0 -154 -84 -229q-23 -23 -57 -39q51 -16 94 -53q82 -80 82 -232v-149q0 -154 -84 -226zM127 692v-647h240q238 0 237 244v149q0 135 -67 197q-59 57 -170 57h-240zM127 1389v-652h205 q111 0 168 58q70 63 69 196v152q0 246 -237 246h-205zM406.5 -97.5q15.5 -15.5 15.5 -37.5q0 -23 -15.5 -38t-37.5 -15q-20 0 -37 15t-17 38t15.5 38t38.5 15q22 0 37.5 -15.5z" glyph-name="uni1E04" horiz-adv-x="718" unicode="Ḅ"/><glyph d="M565 63q-70 -63 -198 -63h-285v1434h250q127 0 198 -66q84 -74 84 -225v-152q0 -154 -84 -229q-23 -23 -57 -39q51 -16 94 -53q82 -80 82 -232v-149q0 -154 -84 -226zM127 692v-647h240q238 0 237 244v149q0 135 -67 197q-59 57 -170 57h-240zM127 1389v-652h205 q111 0 168 58q70 63 69 196v152q0 246 -237 246h-205zM406.5 -97.5q15.5 -15.5 15.5 -37.5q0 -23 -15.5 -38t-37.5 -15q-20 0 -37 15t-17 38t15.5 38t38.5 15q22 0 37.5 -15.5z" glyph-name="uni1E05" horiz-adv-x="718" unicode="ḅ"/><glyph d="M565 63q-72 -63 -200 -63h-283v1434h283q127 0 200 -68q84 -78 84 -229v-848q0 -152 -84 -226zM127 1389v-1344h238q240 0 239 244v848q0 133 -69 196q-57 55 -170 56h-238zM402.5 -97.5q15.5 -15.5 15.5 -37.5q0 -23 -15.5 -38t-37.5 -15q-20 0 -37 15t-17 38t15.5 38 t38.5 15q22 0 37.5 -15.5z" glyph-name="uni1E0C" horiz-adv-x="722" unicode="Ḍ"/><glyph d="M565 63q-72 -63 -200 -63h-283v1434h283q127 0 200 -68q84 -78 84 -229v-848q0 -152 -84 -226zM127 1389v-1344h238q240 0 239 244v848q0 133 -69 196q-57 55 -170 56h-238zM402.5 -97.5q15.5 -15.5 15.5 -37.5q0 -23 -15.5 -38t-37.5 -15q-20 0 -37 15t-17 38t15.5 38 t38.5 15q22 0 37.5 -15.5z" glyph-name="uni1E0D" horiz-adv-x="722" unicode="ḍ"/><glyph d="M565 63q-72 -63 -200 -63h-283v1434h283q127 0 200 -68q84 -78 84 -229v-848q0 -152 -84 -226zM127 1389v-1344h238q240 0 239 244v848q0 133 -69 196q-57 55 -170 56h-238zM709 -127h-684v45h684v-45z" glyph-name="uni1E0E" horiz-adv-x="722" unicode="Ḏ"/><glyph d="M565 63q-72 -63 -200 -63h-283v1434h283q127 0 200 -68q84 -78 84 -229v-848q0 -152 -84 -226zM127 1389v-1344h238q240 0 239 244v848q0 133 -69 196q-57 55 -170 56h-238zM709 -127h-684v45h684v-45z" glyph-name="uni1E0F" horiz-adv-x="722" unicode="ḏ"/><glyph d="M565 63q-72 -63 -200 -63h-283v1434h283q127 0 200 -68q84 -78 84 -229v-848q0 -152 -84 -226zM127 1389v-1344h238q240 0 239 244v848q0 133 -69 196q-57 55 -170 56h-238zM338 -82h55l137 -201h-41l-124 158l-125 -158h-41z" glyph-name="uni1E12" horiz-adv-x="722" unicode="Ḓ"/><glyph d="M565 63q-72 -63 -200 -63h-283v1434h283q127 0 200 -68q84 -78 84 -229v-848q0 -152 -84 -226zM127 1389v-1344h238q240 0 239 244v848q0 133 -69 196q-57 55 -170 56h-238zM338 -82h55l137 -201h-41l-124 158l-125 -158h-41z" glyph-name="uni1E13" horiz-adv-x="722" unicode="ḓ"/><glyph d="M614 1434h45v-1434h-45v713h-477v-713h-45v1434h45v-676h477v676zM416 -184q-4 -8 -35 -58h-41l12 29q4 8 4 14q0 10 -8 19q-25 18 -24 45q0 20 16 36.5t37 16.5q23 0 38 -16.5t15 -36.5t-14 -49z" glyph-name="uni1E24" horiz-adv-x="1228" unicode="Ḥ"/><glyph d="M614 1434h45v-1434h-45v713h-477v-713h-45v1434h45v-676h477v676zM416 -184q-4 -8 -35 -58h-41l12 29q4 8 4 14q0 10 -8 19q-25 18 -24 45q0 20 16 36.5t37 16.5q23 0 38 -16.5t15 -36.5t-14 -49z" glyph-name="uni1E25" horiz-adv-x="1228" unicode="ḥ"/><glyph d="M147 0h-45v1434h45v-1434zM25.5 1600.5q15.5 -15.5 15.5 -37.5q0 -23 -15.5 -38.5t-37.5 -15.5q-23 0 -38.5 16.5t-15.5 37.5q0 23 15.5 38t38.5 15q22 0 37.5 -15.5zM300 1600.5q15 -15.5 15 -37.5q0 -23 -15 -38.5t-38 -15.5q-20 0 -36.5 16.5t-16.5 37.5q0 23 15.5 38 t37.5 15q23 0 38 -15.5zM297 1894l-152 -200h-41l129 200h64z" glyph-name="uni1E2E" horiz-adv-x="249" unicode="Ḯ"/><glyph d="M147 0h-45v1434h45v-1434zM25.5 1600.5q15.5 -15.5 15.5 -37.5q0 -23 -15.5 -38.5t-37.5 -15.5q-23 0 -38.5 16.5t-15.5 37.5q0 23 15.5 38t38.5 15q22 0 37.5 -15.5zM300 1600.5q15 -15.5 15 -37.5q0 -23 -15 -38.5t-38 -15.5q-20 0 -36.5 16.5t-16.5 37.5q0 23 15.5 38 t37.5 15q23 0 38 -15.5zM297 1894l-152 -200h-41l129 200h64z" glyph-name="uni1E2F" horiz-adv-x="249" unicode="ḯ"/><glyph d="M563 0h-481v1434h45v-1389h436v-45zM361.5 -97.5q15.5 -15.5 15.5 -37.5q0 -23 -15.5 -38t-37.5 -15q-20 0 -37 15t-17 38t15.5 38t38.5 15q22 0 37.5 -15.5z" glyph-name="uni1E36" horiz-adv-x="600" unicode="Ḷ"/><glyph d="M563 0h-481v1434h45v-1389h436v-45zM361.5 -97.5q15.5 -15.5 15.5 -37.5q0 -23 -15.5 -38t-37.5 -15q-20 0 -37 15t-17 38t15.5 38t38.5 15q22 0 37.5 -15.5z" glyph-name="uni1E37" horiz-adv-x="600" unicode="ḷ"/><glyph d="M563 0h-481v1434h45v-1389h436v-45zM297 -82h55l137 -201h-40l-125 158l-125 -158h-41z" glyph-name="uni1E3C" horiz-adv-x="600" unicode="Ḽ"/><glyph d="M563 0h-481v1434h45v-1389h436v-45zM297 -82h55l137 -201h-40l-125 158l-125 -158h-41z" glyph-name="uni1E3D" horiz-adv-x="600" unicode="ḽ"/><glyph d="M500 317l391 1117h24v-1434h-45v1249l-358 -1024h-25l-360 1024v-1249h-45v1434h24zM672 1710l-152 -201h-41l129 201h64z" glyph-name="uni1E3E" horiz-adv-x="997" unicode="Ḿ"/><glyph d="M500 317l391 1117h24v-1434h-45v1249l-358 -1024h-25l-360 1024v-1249h-45v1434h24zM672 1710l-152 -201h-41l129 201h64z" glyph-name="uni1E3F" horiz-adv-x="997" unicode="ḿ"/><glyph d="M680 1434v-1434h-25l-518 1272v-1272h-45v1434h25l518 -1272v1272h45zM423 1600.5q15 -15.5 15 -37.5q0 -23 -15 -38.5t-38 -15.5q-20 0 -36.5 16.5t-16.5 37.5q0 23 15 38t38 15t38 -15.5z" glyph-name="uni1E44" horiz-adv-x="772" unicode="Ṅ"/><glyph d="M680 1434v-1434h-25l-518 1272v-1272h-45v1434h25l518 -1272v1272h45zM423 1600.5q15 -15.5 15 -37.5q0 -23 -15 -38.5t-38 -15.5q-20 0 -36.5 16.5t-16.5 37.5q0 23 15 38t38 15t38 -15.5z" glyph-name="uni1E45" horiz-adv-x="772" unicode="ṅ"/><glyph d="M680 1434v-1434h-25l-518 1272v-1272h-45v1434h25l518 -1272v1272h45zM423 -97.5q15 -15.5 15 -37.5q0 -23 -15 -38t-38 -15q-20 0 -36.5 15t-16.5 38t15 38t38 15t38 -15.5z" glyph-name="uni1E46" horiz-adv-x="772" unicode="Ṇ"/><glyph d="M680 1434v-1434h-25l-518 1272v-1272h-45v1434h25l518 -1272v1272h45zM423 -97.5q15 -15.5 15 -37.5q0 -23 -15 -38t-38 -15q-20 0 -36.5 15t-16.5 38t15 38t38 15t38 -15.5z" glyph-name="uni1E47" horiz-adv-x="772" unicode="ṇ"/><glyph d="M680 1434v-1434h-25l-518 1272v-1272h-45v1434h25l518 -1272v1272h45zM358 -82h56l137 -201h-41l-125 158l-125 -158h-41z" glyph-name="uni1E4A" horiz-adv-x="772" unicode="Ṋ"/><glyph d="M680 1434v-1434h-25l-518 1272v-1272h-45v1434h25l518 -1272v1272h45zM358 -82h56l137 -201h-41l-125 158l-125 -158h-41z" glyph-name="uni1E4B" horiz-adv-x="772" unicode="ṋ"/><glyph d="M526 1905l-151 -201h-41l129 201h63zM555 49q-78 -68 -201 -67q-123 0 -200 67q-84 80 -84 232v872q0 152 84 229q76 70 200 70q125 0 201 -70q84 -78 84 -229v-872q0 -152 -84 -232zM524 1350q-63 57 -170 57q-109 0 -170 -57q-70 -63 -69 -197v-872q0 -135 69 -197 q57 -57 170 -57q111 0 170 57q70 63 70 197v872q0 131 -70 197zM256 1581q-55 0 -113 -70l-34 29q63 76 127 84l20 2q45 0 117 -41q47 -29 84 -29q55 0 110 68l35 -27q-59 -76 -123 -84q-6 -2 -22 -2q-47 0 -109 37q-53 33 -92 33z" glyph-name="uni1E4C" unicode="Ṍ"/><glyph d="M526 1905l-151 -201h-41l129 201h63zM555 49q-78 -68 -201 -67q-123 0 -200 67q-84 80 -84 232v872q0 152 84 229q76 70 200 70q125 0 201 -70q84 -78 84 -229v-872q0 -152 -84 -232zM524 1350q-63 57 -170 57q-109 0 -170 -57q-70 -63 -69 -197v-872q0 -135 69 -197 q57 -57 170 -57q111 0 170 57q70 63 70 197v872q0 131 -70 197zM256 1581q-55 0 -113 -70l-34 29q63 76 127 84l20 2q45 0 117 -41q47 -29 84 -29q55 0 110 68l35 -27q-59 -76 -123 -84q-6 -2 -22 -2q-47 0 -109 37q-53 33 -92 33z" glyph-name="uni1E4D" unicode="ṍ"/><glyph d="M555 49q-78 -68 -201 -67q-123 0 -200 67q-84 80 -84 232v872q0 152 84 229q76 70 200 70q125 0 201 -70q84 -78 84 -229v-872q0 -152 -84 -232zM524 1350q-63 57 -170 57q-109 0 -170 -57q-70 -63 -69 -197v-872q0 -135 69 -197q57 -57 170 -57q111 0 170 57 q70 63 70 197v872q0 131 -70 197zM696 1509h-684v45h684v-45zM182 1833h64l129 -201h-41z" glyph-name="uni1E50" unicode="Ṑ"/><glyph d="M555 49q-78 -68 -201 -67q-123 0 -200 67q-84 80 -84 232v872q0 152 84 229q76 70 200 70q125 0 201 -70q84 -78 84 -229v-872q0 -152 -84 -232zM524 1350q-63 57 -170 57q-109 0 -170 -57q-70 -63 -69 -197v-872q0 -135 69 -197q57 -57 170 -57q111 0 170 57 q70 63 70 197v872q0 131 -70 197zM696 1509h-684v45h684v-45zM182 1833h64l129 -201h-41z" glyph-name="uni1E51" unicode="ṑ"/><glyph d="M555 49q-78 -68 -201 -67q-123 0 -200 67q-84 80 -84 232v872q0 152 84 229q76 70 200 70q125 0 201 -70q84 -78 84 -229v-872q0 -152 -84 -232zM524 1350q-61 57 -170 57q-106 0 -170 -57q-70 -66 -69 -197v-872q0 -133 69 -197q59 -57 170 -57q113 0 170 57 q70 61 70 197v872q0 134 -70 197zM12 1509v45h684v-45h-684zM526 1833l-151 -201h-41l129 201h63z" glyph-name="uni1E52" unicode="Ṓ"/><glyph d="M555 49q-78 -68 -201 -67q-123 0 -200 67q-84 80 -84 232v872q0 152 84 229q76 70 200 70q125 0 201 -70q84 -78 84 -229v-872q0 -152 -84 -232zM524 1350q-61 57 -170 57q-106 0 -170 -57q-70 -66 -69 -197v-872q0 -133 69 -197q59 -57 170 -57q113 0 170 57 q70 61 70 197v872q0 134 -70 197zM12 1509v45h684v-45h-684zM526 1833l-151 -201h-41l129 201h63z" glyph-name="uni1E53" unicode="ṓ"/><glyph d="M543 51q-76 -70 -201 -69q-125 0 -201 69q-84 78 -84 230v215h45v-215q0 -131 70 -197q63 -57 170 -57q106 0 170 57q70 63 70 197v102q0 147 -90 244q-33 35 -69 57.5t-91 48.5q-57 27 -96 50.5t-76 62.5q-102 106 -103 268v41q0 150 84 229q74 68 201 68t201 -68 q84 -80 84 -229v-141h-45v141q0 133 -70 195q-59 57 -170 57t-170 -57q-70 -63 -70 -195v-41q0 -143 91 -237q33 -33 67.5 -53.5t93.5 -51.5q55 -27 94 -51.5t76 -63.5q102 -109 103 -274v-102q0 -152 -84 -230zM380 -97.5q15 -15.5 15 -37.5q0 -23 -15 -38t-38 -15 q-20 0 -36.5 15t-16.5 38t15 38t38 15t38 -15.5z" glyph-name="uni1E62" horiz-adv-x="681" unicode="Ṣ"/><glyph d="M543 51q-76 -70 -201 -69q-125 0 -201 69q-84 78 -84 230v215h45v-215q0 -131 70 -197q63 -57 170 -57q106 0 170 57q70 63 70 197v102q0 147 -90 244q-33 35 -69 57.5t-91 48.5q-57 27 -96 50.5t-76 62.5q-102 106 -103 268v41q0 150 84 229q74 68 201 68t201 -68 q84 -80 84 -229v-141h-45v141q0 133 -70 195q-59 57 -170 57t-170 -57q-70 -63 -70 -195v-41q0 -143 91 -237q33 -33 67.5 -53.5t93.5 -51.5q55 -27 94 -51.5t76 -63.5q102 -109 103 -274v-102q0 -152 -84 -230zM380 -97.5q15 -15.5 15 -37.5q0 -23 -15 -38t-38 -15 q-20 0 -36.5 15t-16.5 38t15 38t38 15t38 -15.5z" glyph-name="uni1E63" horiz-adv-x="681" unicode="ṣ"/><glyph d="M596 1434v-45h-260v-1389h-45v1389h-264v45h569zM351.5 -97.5q15.5 -15.5 15.5 -37.5q0 -23 -15.5 -38t-38.5 -15q-20 0 -36.5 15t-16.5 38t15.5 38t37.5 15q23 0 38.5 -15.5z" glyph-name="uni1E6C" horiz-adv-x="620" unicode="Ṭ"/><glyph d="M596 1434v-45h-260v-1389h-45v1389h-264v45h569zM351.5 -97.5q15.5 -15.5 15.5 -37.5q0 -23 -15.5 -38t-38.5 -15q-20 0 -36.5 15t-16.5 38t15.5 38t37.5 15q23 0 38.5 -15.5z" glyph-name="uni1E6D" horiz-adv-x="620" unicode="ṭ"/><glyph d="M596 1434v-45h-260v-1389h-45v1389h-264v45h569zM653 -127h-684v45h684v-45z" glyph-name="uni1E6E" horiz-adv-x="622" unicode="Ṯ"/><glyph d="M596 1434v-45h-260v-1389h-45v1389h-264v45h569zM653 -127h-684v45h684v-45z" glyph-name="uni1E6F" horiz-adv-x="622" unicode="ṯ"/><glyph d="M596 1434v-45h-260v-1389h-45v1389h-264v45h569zM285 -82h55l137 -201h-41l-125 158l-125 -158h-41z" glyph-name="uni1E70" horiz-adv-x="620" unicode="Ṱ"/><glyph d="M596 1434v-45h-260v-1389h-45v1389h-264v45h569zM285 -82h55l137 -201h-41l-125 158l-125 -158h-41z" glyph-name="uni1E71" horiz-adv-x="620" unicode="ṱ"/><glyph d="M932 1434h47l-176 -1434h-25l-268 1079l-270 -1079h-25l-174 1434h45l152 -1262l260 1034h24l258 -1034zM338 1710h63l129 -201h-41z" glyph-name="Wgrave" horiz-adv-x="1017" unicode="Ẁ"/><glyph d="M932 1434h47l-176 -1434h-25l-268 1079l-270 -1079h-25l-174 1434h45l152 -1262l260 1034h24l258 -1034zM338 1710h63l129 -201h-41z" glyph-name="wgrave" horiz-adv-x="1017" unicode="ẁ"/><glyph d="M932 1434h47l-176 -1434h-25l-268 1079l-270 -1079h-25l-174 1434h45l152 -1262l260 1034h24l258 -1034zM682 1710l-152 -201h-41l129 201h64z" glyph-name="Wacute" horiz-adv-x="1017" unicode="Ẃ"/><glyph d="M932 1434h47l-176 -1434h-25l-268 1079l-270 -1079h-25l-174 1434h45l152 -1262l260 1034h24l258 -1034zM682 1710l-152 -201h-41l129 201h64z" glyph-name="wacute" horiz-adv-x="1017" unicode="ẃ"/><glyph d="M932 1434h47l-176 -1434h-25l-268 1079l-270 -1079h-25l-174 1434h45l152 -1262l260 1034h24l258 -1034zM410.5 1600.5q15.5 -15.5 15.5 -37.5q0 -23 -15.5 -38.5t-37.5 -15.5q-20 0 -37 16.5t-17 37.5q0 23 15.5 38t38.5 15q22 0 37.5 -15.5zM685 1600.5 q15 -15.5 15 -37.5q0 -23 -15 -38.5t-38 -15.5q-20 0 -36.5 16.5t-16.5 37.5q0 23 15.5 38t37.5 15q23 0 38 -15.5z" glyph-name="Wdieresis" horiz-adv-x="1017" unicode="Ẅ"/><glyph d="M932 1434h47l-176 -1434h-25l-268 1079l-270 -1079h-25l-174 1434h45l152 -1262l260 1034h24l258 -1034zM410.5 1600.5q15.5 -15.5 15.5 -37.5q0 -23 -15.5 -38.5t-37.5 -15.5q-20 0 -37 16.5t-17 37.5q0 23 15.5 38t38.5 15q22 0 37.5 -15.5zM685 1600.5 q15 -15.5 15 -37.5q0 -23 -15 -38.5t-38 -15.5q-20 0 -36.5 16.5t-16.5 37.5q0 23 15.5 38t37.5 15q23 0 38 -15.5z" glyph-name="wdieresis" horiz-adv-x="1017" unicode="ẅ"/><glyph d="M610 0h-569l504 1389h-504v45h567l-504 -1389h506v-45zM361.5 -97.5q15.5 -15.5 15.5 -37.5q0 -23 -15.5 -38t-37.5 -15q-20 0 -37 15t-17 38t15.5 38t38.5 15q22 0 37.5 -15.5z" glyph-name="uni1E92" horiz-adv-x="651" unicode="Ẓ"/><glyph d="M610 0h-569l504 1389h-504v45h567l-504 -1389h506v-45zM361.5 -97.5q15.5 -15.5 15.5 -37.5q0 -23 -15.5 -38t-37.5 -15q-20 0 -37 15t-17 38t15.5 38t38.5 15q22 0 37.5 -15.5z" glyph-name="uni1E93" horiz-adv-x="651" unicode="ẓ"/><glyph d="M657 0l-86 408h-395l-88 -408h-47l309 1434h45l310 -1434h-48zM184 453h377l-188 878zM410.5 -97.5q15.5 -15.5 15.5 -37.5q0 -23 -15.5 -38t-37.5 -15q-20 0 -37 15t-17 38t15.5 38t38.5 15q22 0 37.5 -15.5z" glyph-name="uni1EA0" horiz-adv-x="745" unicode="Ạ"/><glyph d="M657 0l-86 408h-395l-88 -408h-47l309 1434h45l310 -1434h-48zM184 453h377l-188 878zM410.5 -97.5q15.5 -15.5 15.5 -37.5q0 -23 -15.5 -38t-37.5 -15q-20 0 -37 15t-17 38t15.5 38t38.5 15q22 0 37.5 -15.5z" glyph-name="uni1EA1" horiz-adv-x="745" unicode="ạ"/><glyph d="M657 0l-86 408h-395l-88 -408h-47l309 1434h45l310 -1434h-48zM184 453h377l-188 878zM310 1609q-42 42 -101 42l-39 39q18 6 39 6q76 0 130 -54.5t54 -132.5h-41q0 58 -42 100z" glyph-name="uni1EA2" horiz-adv-x="745" unicode="Ả"/><glyph d="M657 0l-86 408h-395l-88 -408h-47l309 1434h45l310 -1434h-48zM184 453h377l-188 878zM310 1609q-42 42 -101 42l-39 39q18 6 39 6q76 0 130 -54.5t54 -132.5h-41q0 58 -42 100z" glyph-name="uni1EA3" horiz-adv-x="745" unicode="ả"/><glyph d="M657 0l-86 408h-395l-88 -408h-47l309 1434h45l310 -1434h-48zM184 453h377l-188 878zM346 1710h55l138 -201h-41l-125 158l-125 -158h-41zM688 1915l-151 -201h-41l129 201h63z" glyph-name="uni1EA4" horiz-adv-x="745" unicode="Ấ"/><glyph d="M657 0l-86 408h-395l-88 -408h-47l309 1434h45l310 -1434h-48zM184 453h377l-188 878zM346 1710h55l138 -201h-41l-125 158l-125 -158h-41zM688 1915l-151 -201h-41l129 201h63z" glyph-name="uni1EA5" horiz-adv-x="745" unicode="ấ"/><glyph d="M657 0l-86 408h-395l-88 -408h-47l309 1434h45l310 -1434h-48zM184 453h377l-188 878zM346 1710h55l138 -201h-41l-125 158l-125 -158h-41zM344 1915h64l129 -201h-41z" glyph-name="uni1EA6" horiz-adv-x="745" unicode="Ầ"/><glyph d="M657 0l-86 408h-395l-88 -408h-47l309 1434h45l310 -1434h-48zM184 453h377l-188 878zM346 1710h55l138 -201h-41l-125 158l-125 -158h-41zM344 1915h64l129 -201h-41z" glyph-name="uni1EA7" horiz-adv-x="745" unicode="ầ"/><glyph d="M657 0l-86 408h-395l-88 -408h-47l309 1434h45l310 -1434h-48zM184 453h377l-188 878zM346 1710h55l138 -201h-41l-125 158l-125 -158h-41zM310 1852q-42 42 -101 42l-39 39q18 6 39 6q76 0 130 -54t54 -132h-41q0 57 -42 99z" glyph-name="uni1EA8" horiz-adv-x="745" unicode="Ẩ"/><glyph d="M657 0l-86 408h-395l-88 -408h-47l309 1434h45l310 -1434h-48zM184 453h377l-188 878zM346 1710h55l138 -201h-41l-125 158l-125 -158h-41zM310 1852q-42 42 -101 42l-39 39q18 6 39 6q76 0 130 -54t54 -132h-41q0 57 -42 99z" glyph-name="uni1EA9" horiz-adv-x="745" unicode="ẩ"/><glyph d="M657 0l-86 408h-395l-88 -408h-47l309 1434h45l310 -1434h-48zM184 453h377l-188 878zM346 1710h55l138 -201h-41l-125 158l-125 -158h-41zM272 1823q-55 0 -112 -70l-35 29q63 76 127 84l20 2q45 0 117 -41q47 -29 84 -29q55 0 111 68l34 -27q-59 -76 -122 -84 q-6 -2 -23 -2q-47 0 -108 37q-54 33 -93 33z" glyph-name="uni1EAA" horiz-adv-x="745" unicode="Ẫ"/><glyph d="M657 0l-86 408h-395l-88 -408h-47l309 1434h45l310 -1434h-48zM184 453h377l-188 878zM346 1710h55l138 -201h-41l-125 158l-125 -158h-41zM272 1823q-55 0 -112 -70l-35 29q63 76 127 84l20 2q45 0 117 -41q47 -29 84 -29q55 0 111 68l34 -27q-59 -76 -122 -84 q-6 -2 -23 -2q-47 0 -108 37q-54 33 -93 33z" glyph-name="uni1EAB" horiz-adv-x="745" unicode="ẫ"/><glyph d="M657 0l-86 408h-395l-88 -408h-47l309 1434h45l310 -1434h-48zM184 453h377l-188 878zM346 1710h55l138 -201h-41l-125 158l-125 -158h-41zM410.5 -97.5q15.5 -15.5 15.5 -37.5q0 -23 -15.5 -38t-37.5 -15q-20 0 -37 15t-17 38t15.5 38t38.5 15q22 0 37.5 -15.5z" glyph-name="uni1EAC" horiz-adv-x="745" unicode="Ậ"/><glyph d="M657 0l-86 408h-395l-88 -408h-47l309 1434h45l310 -1434h-48zM184 453h377l-188 878zM346 1710h55l138 -201h-41l-125 158l-125 -158h-41zM410.5 -97.5q15.5 -15.5 15.5 -37.5q0 -23 -15.5 -38t-37.5 -15q-20 0 -37 15t-17 38t15.5 38t38.5 15q22 0 37.5 -15.5z" glyph-name="uni1EAD" horiz-adv-x="745" unicode="ậ"/><glyph d="M657 0l-86 408h-395l-88 -408h-47l309 1434h45l310 -1434h-48zM184 453h377l-188 878zM559 1696q0 -76 -54 -131.5t-132 -55.5q-76 0 -131.5 55.5t-55.5 131.5h45q0 -57 42 -99.5t100 -42.5q59 0 100 42t41 100h45zM545 1954l-152 -201h-41l129 201h64z" glyph-name="uni1EAE" horiz-adv-x="745" unicode="Ắ"/><glyph d="M657 0l-86 408h-395l-88 -408h-47l309 1434h45l310 -1434h-48zM184 453h377l-188 878zM559 1696q0 -76 -54 -131.5t-132 -55.5q-76 0 -131.5 55.5t-55.5 131.5h45q0 -57 42 -99.5t100 -42.5q59 0 100 42t41 100h45zM545 1954l-152 -201h-41l129 201h64z" glyph-name="uni1EAF" horiz-adv-x="745" unicode="ắ"/><glyph d="M657 0l-86 408h-395l-88 -408h-47l309 1434h45l310 -1434h-48zM184 453h377l-188 878zM273 1596q42 -42 100 -42q59 0 100 42t41 100h45q0 -76 -54 -131.5t-132 -55.5q-76 0 -131.5 55.5t-55.5 131.5h45q0 -58 42 -100zM201 1954h63l129 -201h-41z" glyph-name="uni1EB0" horiz-adv-x="745" unicode="Ằ"/><glyph d="M657 0l-86 408h-395l-88 -408h-47l309 1434h45l310 -1434h-48zM184 453h377l-188 878zM273 1596q42 -42 100 -42q59 0 100 42t41 100h45q0 -76 -54 -131.5t-132 -55.5q-76 0 -131.5 55.5t-55.5 131.5h45q0 -58 42 -100zM201 1954h63l129 -201h-41z" glyph-name="uni1EB1" horiz-adv-x="745" unicode="ằ"/><glyph d="M657 0l-86 408h-395l-88 -408h-47l309 1434h45l310 -1434h-48zM184 453h377l-188 878zM559 1696q0 -76 -54 -131.5t-132 -55.5q-76 0 -131.5 55.5t-55.5 131.5h45q0 -57 42 -99.5t100 -42.5q59 0 100 42t41 100h45zM310 1852q-42 42 -101 42l-39 39q18 6 39 6 q76 0 130 -54t54 -132h-41q0 57 -42 99z" glyph-name="uni1EB2" horiz-adv-x="745" unicode="Ẳ"/><glyph d="M657 0l-86 408h-395l-88 -408h-47l309 1434h45l310 -1434h-48zM184 453h377l-188 878zM559 1696q0 -76 -54 -131.5t-132 -55.5q-76 0 -131.5 55.5t-55.5 131.5h45q0 -57 42 -99.5t100 -42.5q59 0 100 42t41 100h45zM310 1852q-42 42 -101 42l-39 39q18 6 39 6 q76 0 130 -54t54 -132h-41q0 57 -42 99z" glyph-name="uni1EB3" horiz-adv-x="745" unicode="ẳ"/><glyph d="M657 0l-86 408h-395l-88 -408h-47l309 1434h45l310 -1434h-48zM184 453h377l-188 878zM559 1696q0 -76 -54 -131.5t-132 -55.5q-76 0 -131.5 55.5t-55.5 131.5h45q0 -57 42 -99.5t100 -42.5q59 0 100 42t41 100h45zM248 1823q-55 0 -113 -70l-35 29q63 76 127 84l21 2 q45 0 117 -41q47 -29 84 -29q55 0 110 68l35 -27q-59 -76 -123 -84q-6 -2 -22 -2q-47 0 -109 37q-53 33 -92 33z" glyph-name="uni1EB4" horiz-adv-x="745" unicode="Ẵ"/><glyph d="M657 0l-86 408h-395l-88 -408h-47l309 1434h45l310 -1434h-48zM184 453h377l-188 878zM559 1696q0 -76 -54 -131.5t-132 -55.5q-76 0 -131.5 55.5t-55.5 131.5h45q0 -57 42 -99.5t100 -42.5q59 0 100 42t41 100h45zM248 1823q-55 0 -113 -70l-35 29q63 76 127 84l21 2 q45 0 117 -41q47 -29 84 -29q55 0 110 68l35 -27q-59 -76 -123 -84q-6 -2 -22 -2q-47 0 -109 37q-53 33 -92 33z" glyph-name="uni1EB5" horiz-adv-x="745" unicode="ẵ"/><glyph d="M657 0l-86 408h-395l-88 -408h-47l309 1434h45l310 -1434h-48zM184 453l189 878l188 -878h-377zM559 1696q0 -76 -54 -131.5t-132 -55.5q-76 0 -131.5 55.5t-55.5 131.5h45q0 -57 42 -99.5t100 -42.5q59 0 100 42t41 100h45zM657 0h48l-310 1434h-45l-309 -1434h47 l88 408h395zM184 453h377l-188 878zM559 1696h-45q0 -57 -41 -99.5t-100 -42.5q-57 0 -99.5 42t-42.5 100h-45q0 -76 55.5 -131.5t131.5 -55.5q78 0 132 55.5t54 131.5zM410.5 -97.5q15.5 -15.5 15.5 -37.5q0 -23 -15.5 -38t-37.5 -15q-20 0 -37 15t-17 38t15.5 38t38.5 15 q22 0 37.5 -15.5z" glyph-name="uni1EB6" horiz-adv-x="745" unicode="Ặ"/><glyph d="M657 0l-86 408h-395l-88 -408h-47l309 1434h45l310 -1434h-48zM184 453l189 878l188 -878h-377zM559 1696q0 -76 -54 -131.5t-132 -55.5q-76 0 -131.5 55.5t-55.5 131.5h45q0 -57 42 -99.5t100 -42.5q59 0 100 42t41 100h45zM657 0h48l-310 1434h-45l-309 -1434h47 l88 408h395zM184 453h377l-188 878zM559 1696h-45q0 -57 -41 -99.5t-100 -42.5q-57 0 -99.5 42t-42.5 100h-45q0 -76 55.5 -131.5t131.5 -55.5q78 0 132 55.5t54 131.5zM410.5 -97.5q15.5 -15.5 15.5 -37.5q0 -23 -15.5 -38t-37.5 -15q-20 0 -37 15t-17 38t15.5 38t38.5 15 q22 0 37.5 -15.5z" glyph-name="uni1EB7" horiz-adv-x="745" unicode="ặ"/><glyph d="M563 1389h-436v-631h305v-45h-305v-668h436v-45h-481v1434h481v-45zM361.5 -97.5q15.5 -15.5 15.5 -37.5q0 -23 -15.5 -38t-37.5 -15q-20 0 -37 15t-17 38t15.5 38t38.5 15q22 0 37.5 -15.5z" glyph-name="uni1EB8" horiz-adv-x="1228" unicode="Ẹ"/><glyph d="M563 1389h-436v-631h305v-45h-305v-668h436v-45h-481v1434h481v-45zM361.5 -97.5q15.5 -15.5 15.5 -37.5q0 -23 -15.5 -38t-37.5 -15q-20 0 -37 15t-17 38t15.5 38t38.5 15q22 0 37.5 -15.5z" glyph-name="uni1EB9" horiz-adv-x="1228" unicode="ẹ"/><glyph d="M563 1389h-436v-631h305v-45h-305v-668h436v-45h-481v1434h481v-45zM261 1609q-42 42 -101 42l-39 39q18 6 39 6q76 0 130 -54.5t54 -132.5h-41q0 58 -42 100z" glyph-name="uni1EBA" horiz-adv-x="1228" unicode="Ẻ"/><glyph d="M563 1389h-436v-631h305v-45h-305v-668h436v-45h-481v1434h481v-45zM261 1609q-42 42 -101 42l-39 39q18 6 39 6q76 0 130 -54.5t54 -132.5h-41q0 58 -42 100z" glyph-name="uni1EBB" horiz-adv-x="1228" unicode="ẻ"/><glyph d="M563 1389h-436v-631h305v-45h-305v-668h436v-45h-481v1434h481v-45zM223 1579q-55 0 -112 -70l-35 29q63 76 127 84l20 2q45 0 117 -41q47 -29 84 -29q55 0 111 68l34 -27q-59 -76 -123 -84q-6 -2 -22 -2q-47 0 -109 37q-53 33 -92 33z" glyph-name="uni1EBC" horiz-adv-x="612" unicode="Ẽ"/><glyph d="M563 1389h-436v-631h305v-45h-305v-668h436v-45h-481v1434h481v-45zM223 1579q-55 0 -112 -70l-35 29q63 76 127 84l20 2q45 0 117 -41q47 -29 84 -29q55 0 111 68l34 -27q-59 -76 -123 -84q-6 -2 -22 -2q-47 0 -109 37q-53 33 -92 33z" glyph-name="uni1EBD" horiz-adv-x="612" unicode="ẽ"/><glyph d="M563 1389h-436v-631h305v-45h-305v-668h436v-45h-481v1434h481v-45zM297 1710h55l137 -201h-40l-125 158l-125 -158h-41zM639 1915l-152 -201h-41l129 201h64z" glyph-name="uni1EBE" horiz-adv-x="612" unicode="Ế"/><glyph d="M563 1389h-436v-631h305v-45h-305v-668h436v-45h-481v1434h481v-45zM297 1710h55l137 -201h-40l-125 158l-125 -158h-41zM639 1915l-152 -201h-41l129 201h64z" glyph-name="uni1EBF" horiz-adv-x="612" unicode="ế"/><glyph d="M563 1389h-436v-631h305v-45h-305v-668h436v-45h-481v1434h481v-45zM297 1710h55l137 -201h-40l-125 158l-125 -158h-41zM295 1915h63l129 -201h-41z" glyph-name="uni1EC0" horiz-adv-x="612" unicode="Ề"/><glyph d="M563 1389h-436v-631h305v-45h-305v-668h436v-45h-481v1434h481v-45zM297 1710h55l137 -201h-40l-125 158l-125 -158h-41zM295 1915h63l129 -201h-41z" glyph-name="uni1EC1" horiz-adv-x="612" unicode="ề"/><glyph d="M563 1389h-436v-631h305v-45h-305v-668h436v-45h-481v1434h481v-45zM297 1710h55l137 -201h-40l-125 158l-125 -158h-41zM261 1852q-42 42 -101 42l-39 39q18 6 39 6q76 0 130 -54t54 -132h-41q0 57 -42 99z" glyph-name="uni1EC2" horiz-adv-x="612" unicode="Ể"/><glyph d="M563 1389h-436v-631h305v-45h-305v-668h436v-45h-481v1434h481v-45zM297 1710h55l137 -201h-40l-125 158l-125 -158h-41zM261 1852q-42 42 -101 42l-39 39q18 6 39 6q76 0 130 -54t54 -132h-41q0 57 -42 99z" glyph-name="uni1EC3" horiz-adv-x="612" unicode="ể"/><glyph d="M563 1389h-436v-631h305v-45h-305v-668h436v-45h-481v1434h481v-45zM297 1710h55l137 -201h-40l-125 158l-125 -158h-41zM223 1823q-55 0 -112 -70l-35 29q63 76 127 84l20 2q45 0 117 -41q47 -29 84 -29q55 0 111 68l34 -27q-59 -76 -123 -84q-6 -2 -22 -2 q-47 0 -109 37q-53 33 -92 33z" glyph-name="uni1EC4" horiz-adv-x="612" unicode="Ễ"/><glyph d="M563 1389h-436v-631h305v-45h-305v-668h436v-45h-481v1434h481v-45zM297 1710h55l137 -201h-40l-125 158l-125 -158h-41zM223 1823q-55 0 -112 -70l-35 29q63 76 127 84l20 2q45 0 117 -41q47 -29 84 -29q55 0 111 68l34 -27q-59 -76 -123 -84q-6 -2 -22 -2 q-47 0 -109 37q-53 33 -92 33z" glyph-name="uni1EC5" horiz-adv-x="612" unicode="ễ"/><glyph d="M563 1389h-436v-631h305v-45h-305v-668h436v-45h-481v1434h481v-45zM297 1710h55l137 -201h-40l-125 158l-125 -158h-41zM361.5 -97.5q15.5 -15.5 15.5 -37.5q0 -23 -15.5 -38t-37.5 -15q-20 0 -37 15t-17 38t15.5 38t38.5 15q22 0 37.5 -15.5z" glyph-name="uni1EC6" horiz-adv-x="1228" unicode="Ệ"/><glyph d="M563 1389h-436v-631h305v-45h-305v-668h436v-45h-481v1434h481v-45zM297 1710h55l137 -201h-40l-125 158l-125 -158h-41zM361.5 -97.5q15.5 -15.5 15.5 -37.5q0 -23 -15.5 -38t-37.5 -15q-20 0 -37 15t-17 38t15.5 38t38.5 15q22 0 37.5 -15.5z" glyph-name="uni1EC7" horiz-adv-x="1228" unicode="ệ"/><glyph d="M147 0h-45v1434h45v-1434zM62 1609q-42 42 -101 42l-39 39q18 6 39 6q76 0 130 -54.5t54 -132.5h-41q0 58 -42 100z" glyph-name="uni1EC8" horiz-adv-x="249" unicode="Ỉ"/><glyph d="M147 0h-45v1434h45v-1434zM62 1609q-42 42 -101 42l-39 39q18 6 39 6q76 0 130 -54.5t54 -132.5h-41q0 58 -42 100z" glyph-name="uni1EC9" horiz-adv-x="249" unicode="ỉ"/><glyph d="M147 0h-45v1434h45v-1434zM162.5 -97.5q15.5 -15.5 15.5 -37.5q0 -23 -15.5 -38t-37.5 -15q-20 0 -36.5 15t-16.5 38t15 38t38 15q22 0 37.5 -15.5z" glyph-name="uni1ECA" horiz-adv-x="249" unicode="Ị"/><glyph d="M147 0h-45v1434h45v-1434zM162.5 -97.5q15.5 -15.5 15.5 -37.5q0 -23 -15.5 -38t-37.5 -15q-20 0 -36.5 15t-16.5 38t15 38t38 15q22 0 37.5 -15.5z" glyph-name="uni1ECB" horiz-adv-x="249" unicode="ị"/><glyph d="M555 49q-78 -68 -201 -67q-123 0 -200 67q-84 80 -84 232v872q0 152 84 229q76 70 200 70q125 0 201 -70q84 -78 84 -229v-872q0 -152 -84 -232zM524 1350q-63 57 -170 57q-109 0 -170 -57q-70 -63 -69 -197v-872q0 -135 69 -197q57 -57 170 -57q111 0 170 57 q70 63 70 197v872q0 131 -70 197zM392.5 -97.5q15.5 -15.5 15.5 -37.5q0 -23 -15.5 -38t-38.5 -15q-20 0 -36.5 15t-16.5 38t15.5 38t37.5 15q23 0 38.5 -15.5z" glyph-name="uni1ECC" unicode="Ọ"/><glyph d="M555 49q-78 -68 -201 -67q-123 0 -200 67q-84 80 -84 232v872q0 152 84 229q76 70 200 70q125 0 201 -70q84 -78 84 -229v-872q0 -152 -84 -232zM524 1350q-63 57 -170 57q-109 0 -170 -57q-70 -63 -69 -197v-872q0 -135 69 -197q57 -57 170 -57q111 0 170 57 q70 63 70 197v872q0 131 -70 197zM392.5 -97.5q15.5 -15.5 15.5 -37.5q0 -23 -15.5 -38t-38.5 -15q-20 0 -36.5 15t-16.5 38t15.5 38t37.5 15q23 0 38.5 -15.5z" glyph-name="uni1ECD" unicode="ọ"/><glyph d="M555 49q-78 -68 -201 -67q-123 0 -200 67q-84 80 -84 232v872q0 152 84 229q76 70 200 70q125 0 201 -70q84 -78 84 -229v-872q0 -152 -84 -232zM524 1350q-63 57 -170 57q-109 0 -170 -57q-70 -63 -69 -197v-872q0 -135 69 -197q57 -57 170 -57q111 0 170 57 q70 63 70 197v872q0 131 -70 197zM292 1609q-42 42 -102 42l-38 39q18 6 38 6q76 0 130.5 -54.5t54.5 -132.5h-41q0 58 -42 100z" glyph-name="uni1ECE" unicode="Ỏ"/><glyph d="M555 49q-78 -68 -201 -67q-123 0 -200 67q-84 80 -84 232v872q0 152 84 229q76 70 200 70q125 0 201 -70q84 -78 84 -229v-872q0 -152 -84 -232zM524 1350q-63 57 -170 57q-109 0 -170 -57q-70 -63 -69 -197v-872q0 -135 69 -197q57 -57 170 -57q111 0 170 57 q70 63 70 197v872q0 131 -70 197zM292 1609q-42 42 -102 42l-38 39q18 6 38 6q76 0 130.5 -54.5t54.5 -132.5h-41q0 58 -42 100z" glyph-name="uni1ECF" unicode="ỏ"/><glyph d="M555 49q-78 -68 -201 -67q-123 0 -200 67q-84 80 -84 232v872q0 152 84 229q76 70 200 70q125 0 201 -70q84 -78 84 -229v-872q0 -152 -84 -232zM524 1350q-63 57 -170 57q-109 0 -170 -57q-70 -63 -69 -197v-872q0 -135 69 -197q57 -57 170 -57q111 0 170 57 q70 63 70 197v872q0 131 -70 197zM328 1710h55l137 -201h-41l-125 158l-125 -158h-41zM670 1915l-152 -201h-41l129 201h64z" glyph-name="uni1ED0" unicode="Ố"/><glyph d="M555 49q-78 -68 -201 -67q-123 0 -200 67q-84 80 -84 232v872q0 152 84 229q76 70 200 70q125 0 201 -70q84 -78 84 -229v-872q0 -152 -84 -232zM524 1350q-63 57 -170 57q-109 0 -170 -57q-70 -63 -69 -197v-872q0 -135 69 -197q57 -57 170 -57q111 0 170 57 q70 63 70 197v872q0 131 -70 197zM328 1710h55l137 -201h-41l-125 158l-125 -158h-41zM670 1915l-152 -201h-41l129 201h64z" glyph-name="uni1ED1" unicode="ố"/><glyph d="M555 49q-78 -68 -201 -67q-123 0 -200 67q-84 80 -84 232v872q0 152 84 229q76 70 200 70q125 0 201 -70q84 -78 84 -229v-872q0 -152 -84 -232zM524 1350q-63 57 -170 57q-109 0 -170 -57q-70 -63 -69 -197v-872q0 -135 69 -197q57 -57 170 -57q111 0 170 57 q70 63 70 197v872q0 131 -70 197zM328 1710h55l137 -201h-41l-125 158l-125 -158h-41zM326 1915h63l129 -201h-41z" glyph-name="uni1ED2" unicode="Ồ"/><glyph d="M555 49q-78 -68 -201 -67q-123 0 -200 67q-84 80 -84 232v872q0 152 84 229q76 70 200 70q125 0 201 -70q84 -78 84 -229v-872q0 -152 -84 -232zM524 1350q-63 57 -170 57q-109 0 -170 -57q-70 -63 -69 -197v-872q0 -135 69 -197q57 -57 170 -57q111 0 170 57 q70 63 70 197v872q0 131 -70 197zM328 1710h55l137 -201h-41l-125 158l-125 -158h-41zM326 1915h63l129 -201h-41z" glyph-name="uni1ED3" unicode="ồ"/><glyph d="M555 49q-78 -68 -201 -67q-123 0 -200 67q-84 80 -84 232v872q0 152 84 229q76 70 200 70q125 0 201 -70q84 -78 84 -229v-872q0 -152 -84 -232zM524 1350q-63 57 -170 57q-109 0 -170 -57q-70 -63 -69 -197v-872q0 -135 69 -197q57 -57 170 -57q111 0 170 57 q70 63 70 197v872q0 131 -70 197zM328 1710h55l137 -201h-41l-125 158l-125 -158h-41zM292 1852q-42 42 -102 42l-38 39q18 6 38 6q76 0 130.5 -54t54.5 -132h-41q0 57 -42 99z" glyph-name="uni1ED4" unicode="Ổ"/><glyph d="M555 49q-78 -68 -201 -67q-123 0 -200 67q-84 80 -84 232v872q0 152 84 229q76 70 200 70q125 0 201 -70q84 -78 84 -229v-872q0 -152 -84 -232zM524 1350q-63 57 -170 57q-109 0 -170 -57q-70 -63 -69 -197v-872q0 -135 69 -197q57 -57 170 -57q111 0 170 57 q70 63 70 197v872q0 131 -70 197zM328 1710h55l137 -201h-41l-125 158l-125 -158h-41zM292 1852q-42 42 -102 42l-38 39q18 6 38 6q76 0 130.5 -54t54.5 -132h-41q0 57 -42 99z" glyph-name="uni1ED5" unicode="ổ"/><glyph d="M555 49q-78 -68 -201 -67q-123 0 -200 67q-84 80 -84 232v872q0 152 84 229q76 70 200 70q125 0 201 -70q84 -78 84 -229v-872q0 -152 -84 -232zM524 1350q-63 57 -170 57q-109 0 -170 -57q-70 -63 -69 -197v-872q0 -135 69 -197q57 -57 170 -57q111 0 170 57 q70 63 70 197v872q0 131 -70 197zM328 1710h55l137 -201h-41l-125 158l-125 -158h-41zM254 1823q-55 0 -113 -70l-35 29q63 76 127 84l21 2q45 0 117 -41q47 -29 84 -29q55 0 110 68l35 -27q-59 -76 -123 -84q-6 -2 -22 -2q-47 0 -109 37q-53 33 -92 33z" glyph-name="uni1ED6" unicode="Ỗ"/><glyph d="M555 49q-78 -68 -201 -67q-123 0 -200 67q-84 80 -84 232v872q0 152 84 229q76 70 200 70q125 0 201 -70q84 -78 84 -229v-872q0 -152 -84 -232zM524 1350q-63 57 -170 57q-109 0 -170 -57q-70 -63 -69 -197v-872q0 -135 69 -197q57 -57 170 -57q111 0 170 57 q70 63 70 197v872q0 131 -70 197zM328 1710h55l137 -201h-41l-125 158l-125 -158h-41zM254 1823q-55 0 -113 -70l-35 29q63 76 127 84l21 2q45 0 117 -41q47 -29 84 -29q55 0 110 68l35 -27q-59 -76 -123 -84q-6 -2 -22 -2q-47 0 -109 37q-53 33 -92 33z" glyph-name="uni1ED7" unicode="ỗ"/><glyph d="M555 49q-78 -68 -201 -67q-123 0 -200 67q-84 80 -84 232v872q0 152 84 229q76 70 200 70q125 0 201 -70q84 -78 84 -229v-872q0 -152 -84 -232zM524 1350q-63 57 -170 57q-109 0 -170 -57q-70 -63 -69 -197v-872q0 -135 69 -197q57 -57 170 -57q111 0 170 57 q70 63 70 197v872q0 131 -70 197zM328 1710h55l137 -201h-41l-125 158l-125 -158h-41zM392.5 -97.5q15.5 -15.5 15.5 -37.5q0 -23 -15.5 -38t-38.5 -15q-20 0 -36.5 15t-16.5 38t15.5 38t37.5 15q23 0 38.5 -15.5z" glyph-name="uni1ED8" unicode="Ộ"/><glyph d="M555 49q-78 -68 -201 -67q-123 0 -200 67q-84 80 -84 232v872q0 152 84 229q76 70 200 70q125 0 201 -70q84 -78 84 -229v-872q0 -152 -84 -232zM524 1350q-63 57 -170 57q-109 0 -170 -57q-70 -63 -69 -197v-872q0 -135 69 -197q57 -57 170 -57q111 0 170 57 q70 63 70 197v872q0 131 -70 197zM328 1710h55l137 -201h-41l-125 158l-125 -158h-41zM392.5 -97.5q15.5 -15.5 15.5 -37.5q0 -23 -15.5 -38t-38.5 -15q-20 0 -36.5 15t-16.5 38t15.5 38t37.5 15q23 0 38.5 -15.5z" glyph-name="uni1ED9" unicode="ộ"/><glyph d="M748 1516q0 -45 -32 -77t-77 -32h-117l33 -25q84 -78 84 -229v-872q0 -152 -84 -232q-78 -68 -201 -67q-123 0 -200 67q-84 80 -84 232v872q0 152 84 229q76 70 200 70h285q27 0 45 18.5t18 45.5h46zM354 1407q-109 0 -170 -57q-70 -63 -69 -197v-872q0 -135 69 -197 q57 -57 170 -57q111 0 170 57q70 63 70 197v872q0 131 -70 197q-64 57 -170 57zM526 1710l-151 -201h-41l129 201h63z" glyph-name="uni1EDA" horiz-adv-x="706" unicode="Ớ"/><glyph d="M748 1516q0 -45 -32 -77t-77 -32h-117l33 -25q84 -78 84 -229v-872q0 -152 -84 -232q-78 -68 -201 -67q-123 0 -200 67q-84 80 -84 232v872q0 152 84 229q76 70 200 70h285q27 0 45 18.5t18 45.5h46zM354 1407q-109 0 -170 -57q-70 -63 -69 -197v-872q0 -135 69 -197 q57 -57 170 -57q111 0 170 57q70 63 70 197v872q0 131 -70 197q-64 57 -170 57zM526 1710l-151 -201h-41l129 201h63z" glyph-name="uni1EDB" horiz-adv-x="706" unicode="ớ"/><glyph d="M748 1516q0 -45 -32 -77t-77 -32h-117l33 -25q84 -78 84 -229v-872q0 -152 -84 -232q-78 -68 -201 -67q-123 0 -200 67q-84 80 -84 232v872q0 152 84 229q76 70 200 70h285q27 0 45 18.5t18 45.5h46zM354 1407q-109 0 -170 -57q-70 -63 -69 -197v-872q0 -135 69 -197 q57 -57 170 -57q111 0 170 57q70 63 70 197v872q0 131 -70 197q-64 57 -170 57zM182 1710h64l129 -201h-41z" glyph-name="uni1EDC" horiz-adv-x="706" unicode="Ờ"/><glyph d="M748 1516q0 -45 -32 -77t-77 -32h-117l33 -25q84 -78 84 -229v-872q0 -152 -84 -232q-78 -68 -201 -67q-123 0 -200 67q-84 80 -84 232v872q0 152 84 229q76 70 200 70h285q27 0 45 18.5t18 45.5h46zM354 1407q-109 0 -170 -57q-70 -63 -69 -197v-872q0 -135 69 -197 q57 -57 170 -57q111 0 170 57q70 63 70 197v872q0 131 -70 197q-64 57 -170 57zM182 1710h64l129 -201h-41z" glyph-name="uni1EDD" horiz-adv-x="706" unicode="ờ"/><glyph d="M748 1516q0 -45 -32 -77t-77 -32h-117l33 -25q84 -78 84 -229v-872q0 -152 -84 -232q-78 -68 -201 -67q-123 0 -200 67q-84 80 -84 232v872q0 152 84 229q76 70 200 70h285q27 0 45 18.5t18 45.5h46zM354 1407q-109 0 -170 -57q-70 -63 -69 -197v-872q0 -135 69 -197 q57 -57 170 -57q111 0 170 57q70 63 70 197v872q0 131 -70 197q-64 57 -170 57zM292 1609q-42 42 -102 42l-38 39q18 6 38 6q76 0 130.5 -54.5t54.5 -132.5h-41q0 58 -42 100z" glyph-name="uni1EDE" horiz-adv-x="706" unicode="Ở"/><glyph d="M748 1516q0 -45 -32 -77t-77 -32h-117l33 -25q84 -78 84 -229v-872q0 -152 -84 -232q-78 -68 -201 -67q-123 0 -200 67q-84 80 -84 232v872q0 152 84 229q76 70 200 70h285q27 0 45 18.5t18 45.5h46zM354 1407q-109 0 -170 -57q-70 -63 -69 -197v-872q0 -135 69 -197 q57 -57 170 -57q111 0 170 57q70 63 70 197v872q0 131 -70 197q-64 57 -170 57zM292 1609q-42 42 -102 42l-38 39q18 6 38 6q76 0 130.5 -54.5t54.5 -132.5h-41q0 58 -42 100z" glyph-name="uni1EDF" horiz-adv-x="706" unicode="ở"/><glyph d="M748 1516q0 -45 -32 -77t-77 -32h-117l33 -25q84 -78 84 -229v-872q0 -152 -84 -232q-78 -68 -201 -67q-123 0 -200 67q-84 80 -84 232v872q0 152 84 229q76 70 200 70h285q27 0 45 18.5t18 45.5h46zM354 1407q-109 0 -170 -57q-70 -63 -69 -197v-872q0 -135 69 -197 q57 -57 170 -57q111 0 170 57q70 63 70 197v872q0 131 -70 197q-64 57 -170 57zM256 1581q-55 0 -113 -70l-34 29q63 76 127 84l20 2q45 0 117 -41q47 -29 84 -29q55 0 110 68l35 -27q-59 -76 -123 -84q-6 -2 -22 -2q-47 0 -109 37q-53 33 -92 33z" glyph-name="uni1EE0" horiz-adv-x="706" unicode="Ỡ"/><glyph d="M748 1516q0 -45 -32 -77t-77 -32h-117l33 -25q84 -78 84 -229v-872q0 -152 -84 -232q-78 -68 -201 -67q-123 0 -200 67q-84 80 -84 232v872q0 152 84 229q76 70 200 70h285q27 0 45 18.5t18 45.5h46zM354 1407q-109 0 -170 -57q-70 -63 -69 -197v-872q0 -135 69 -197 q57 -57 170 -57q111 0 170 57q70 63 70 197v872q0 131 -70 197q-64 57 -170 57zM256 1581q-55 0 -113 -70l-34 29q63 76 127 84l20 2q45 0 117 -41q47 -29 84 -29q55 0 110 68l35 -27q-59 -76 -123 -84q-6 -2 -22 -2q-47 0 -109 37q-53 33 -92 33z" glyph-name="uni1EE1" horiz-adv-x="706" unicode="ỡ"/><glyph d="M748 1516q0 -45 -32 -77t-77 -32h-117l33 -25q84 -78 84 -229v-872q0 -152 -84 -232q-78 -68 -201 -67q-123 0 -200 67q-84 80 -84 232v872q0 152 84 229q76 70 200 70h285q27 0 45 18.5t18 45.5h46zM354 1407q-109 0 -170 -57q-70 -63 -69 -197v-872q0 -135 69 -197 q57 -57 170 -57q111 0 170 57q70 63 70 197v872q0 131 -70 197q-64 57 -170 57zM392.5 -97.5q15.5 -15.5 15.5 -37.5q0 -23 -15.5 -38t-38.5 -15q-20 0 -36.5 15t-16.5 38t15.5 38t37.5 15q23 0 38.5 -15.5z" glyph-name="uni1EE2" horiz-adv-x="706" unicode="Ợ"/><glyph d="M748 1516q0 -45 -32 -77t-77 -32h-117l33 -25q84 -78 84 -229v-872q0 -152 -84 -232q-78 -68 -201 -67q-123 0 -200 67q-84 80 -84 232v872q0 152 84 229q76 70 200 70h285q27 0 45 18.5t18 45.5h46zM354 1407q-109 0 -170 -57q-70 -63 -69 -197v-872q0 -135 69 -197 q57 -57 170 -57q111 0 170 57q70 63 70 197v872q0 131 -70 197q-64 57 -170 57zM392.5 -97.5q15.5 -15.5 15.5 -37.5q0 -23 -15.5 -38t-38.5 -15q-20 0 -36.5 15t-16.5 38t15.5 38t37.5 15q23 0 38.5 -15.5z" glyph-name="uni1EE3" horiz-adv-x="706" unicode="ợ"/><glyph d="M390.5 -97.5q15.5 -15.5 15.5 -37.5q0 -23 -15.5 -38t-38.5 -15q-20 0 -36.5 15t-16.5 38t15.5 38t37.5 15q23 0 38.5 -15.5zM553 51q-76 -70 -201 -69q-125 0 -200 69q-84 78 -84 230v1153h45v-1153q0 -131 69 -197q63 -57 170 -57q109 0 170 57q70 63 70 197v1153h45 v-1153q0 -152 -84 -230z" glyph-name="uni1EE4" horiz-adv-x="704" unicode="Ụ"/><glyph d="M390.5 -97.5q15.5 -15.5 15.5 -37.5q0 -23 -15.5 -38t-38.5 -15q-20 0 -36.5 15t-16.5 38t15.5 38t37.5 15q23 0 38.5 -15.5zM553 51q-76 -70 -201 -69q-125 0 -200 69q-84 78 -84 230v1153h45v-1153q0 -131 69 -197q63 -57 170 -57q109 0 170 57q70 63 70 197v1153h45 v-1153q0 -152 -84 -230z" glyph-name="uni1EE5" horiz-adv-x="704" unicode="ụ"/><glyph d="M553 51q-76 -70 -201 -69q-125 0 -200 69q-84 78 -84 230v1153h45v-1153q0 -131 69 -197q63 -57 170 -57q109 0 170 57q70 63 70 197v1153h45v-1153q0 -152 -84 -230zM290 1609q-42 42 -102 42l-38 39q18 6 38 6q76 0 130.5 -54.5t54.5 -132.5h-41q0 58 -42 100z" glyph-name="uni1EE6" horiz-adv-x="704" unicode="Ủ"/><glyph d="M553 51q-76 -70 -201 -69q-125 0 -200 69q-84 78 -84 230v1153h45v-1153q0 -131 69 -197q63 -57 170 -57q109 0 170 57q70 63 70 197v1153h45v-1153q0 -152 -84 -230zM290 1609q-42 42 -102 42l-38 39q18 6 38 6q76 0 130.5 -54.5t54.5 -132.5h-41q0 58 -42 100z" glyph-name="uni1EE7" horiz-adv-x="704" unicode="ủ"/><glyph d="M831 1497q0 -45 -31.5 -76.5t-76.5 -31.5h-86v-1108q0 -152 -84 -230q-76 -70 -201 -69q-125 0 -200 69q-84 78 -84 230v1153h45v-1153q0 -131 69 -197q63 -57 170 -57q109 0 170 57q70 63 70 197v1153h131q27 0 45 18t18 45h45zM524 1710l-151 -201h-41l129 201h63z" glyph-name="uni1EE8" horiz-adv-x="790" unicode="Ứ"/><glyph d="M831 1497q0 -45 -31.5 -76.5t-76.5 -31.5h-86v-1108q0 -152 -84 -230q-76 -70 -201 -69q-125 0 -200 69q-84 78 -84 230v1153h45v-1153q0 -131 69 -197q63 -57 170 -57q109 0 170 57q70 63 70 197v1153h131q27 0 45 18t18 45h45zM524 1710l-151 -201h-41l129 201h63z" glyph-name="uni1EE9" horiz-adv-x="790" unicode="ứ"/><glyph d="M831 1497q0 -45 -31.5 -76.5t-76.5 -31.5h-86v-1108q0 -152 -84 -230q-76 -70 -201 -69q-125 0 -200 69q-84 78 -84 230v1153h45v-1153q0 -131 69 -197q63 -57 170 -57q109 0 170 57q70 63 70 197v1153h131q27 0 45 18t18 45h45zM180 1710h64l129 -201h-41z" glyph-name="uni1EEA" horiz-adv-x="790" unicode="Ừ"/><glyph d="M831 1497q0 -45 -31.5 -76.5t-76.5 -31.5h-86v-1108q0 -152 -84 -230q-76 -70 -201 -69q-125 0 -200 69q-84 78 -84 230v1153h45v-1153q0 -131 69 -197q63 -57 170 -57q109 0 170 57q70 63 70 197v1153h131q27 0 45 18t18 45h45zM180 1710h64l129 -201h-41z" glyph-name="uni1EEB" horiz-adv-x="790" unicode="ừ"/><glyph d="M831 1497q0 -45 -31.5 -76.5t-76.5 -31.5h-86v-1108q0 -152 -84 -230q-76 -70 -201 -69q-125 0 -200 69q-84 78 -84 230v1153h45v-1153q0 -131 69 -197q63 -57 170 -57q109 0 170 57q70 63 70 197v1153h131q27 0 45 18t18 45h45zM290 1609q-42 42 -102 42l-38 39 q18 6 38 6q76 0 130.5 -54.5t54.5 -132.5h-41q0 58 -42 100z" glyph-name="uni1EEC" horiz-adv-x="790" unicode="Ử"/><glyph d="M831 1497q0 -45 -31.5 -76.5t-76.5 -31.5h-86v-1108q0 -152 -84 -230q-76 -70 -201 -69q-125 0 -200 69q-84 78 -84 230v1153h45v-1153q0 -131 69 -197q63 -57 170 -57q109 0 170 57q70 63 70 197v1153h131q27 0 45 18t18 45h45zM290 1609q-42 42 -102 42l-38 39 q18 6 38 6q76 0 130.5 -54.5t54.5 -132.5h-41q0 58 -42 100z" glyph-name="uni1EED" horiz-adv-x="790" unicode="ử"/><glyph d="M831 1497q0 -45 -31.5 -76.5t-76.5 -31.5h-86v-1108q0 -152 -84 -230q-76 -70 -201 -69q-125 0 -200 69q-84 78 -84 230v1153h45v-1153q0 -131 69 -197q63 -57 170 -57q109 0 170 57q70 63 70 197v1153h131q27 0 45 18t18 45h45zM254 1581q-55 0 -113 -70l-35 29 q63 76 127 84l21 2q45 0 117 -41q47 -29 84 -29q55 0 110 68l35 -27q-59 -76 -123 -84q-6 -2 -22 -2q-47 0 -109 37q-53 33 -92 33z" glyph-name="uni1EEE" horiz-adv-x="790" unicode="Ữ"/><glyph d="M831 1497q0 -45 -31.5 -76.5t-76.5 -31.5h-86v-1108q0 -152 -84 -230q-76 -70 -201 -69q-125 0 -200 69q-84 78 -84 230v1153h45v-1153q0 -131 69 -197q63 -57 170 -57q109 0 170 57q70 63 70 197v1153h131q27 0 45 18t18 45h45zM254 1581q-55 0 -113 -70l-35 29 q63 76 127 84l21 2q45 0 117 -41q47 -29 84 -29q55 0 110 68l35 -27q-59 -76 -123 -84q-6 -2 -22 -2q-47 0 -109 37q-53 33 -92 33z" glyph-name="uni1EEF" horiz-adv-x="790" unicode="ữ"/><glyph d="M831 1497q0 -45 -31.5 -76.5t-76.5 -31.5h-86v-1108q0 -152 -84 -230q-76 -70 -201 -69q-125 0 -200 69q-84 78 -84 230v1153h45v-1153q0 -131 69 -197q63 -57 170 -57q109 0 170 57q70 63 70 197v1153h131q27 0 45 18t18 45h45zM390.5 -97.5q15.5 -15.5 15.5 -37.5 q0 -23 -15.5 -38t-38.5 -15q-20 0 -36.5 15t-16.5 38t15.5 38t37.5 15q23 0 38.5 -15.5z" glyph-name="uni1EF0" horiz-adv-x="790" unicode="Ự"/><glyph d="M831 1497q0 -45 -31.5 -76.5t-76.5 -31.5h-86v-1108q0 -152 -84 -230q-76 -70 -201 -69q-125 0 -200 69q-84 78 -84 230v1153h45v-1153q0 -131 69 -197q63 -57 170 -57q109 0 170 57q70 63 70 197v1153h131q27 0 45 18t18 45h45zM390.5 -97.5q15.5 -15.5 15.5 -37.5 q0 -23 -15.5 -38t-38.5 -15q-20 0 -36.5 15t-16.5 38t15.5 38t37.5 15q23 0 38.5 -15.5z" glyph-name="uni1EF1" horiz-adv-x="790" unicode="ự"/><glyph d="M354 561l289 873h47l-313 -949v-485h-45v485l-314 949h48zM182 1710h64l129 -201h-41z" glyph-name="Ygrave" unicode="Ỳ"/><glyph d="M354 561l289 873h47l-313 -949v-485h-45v485l-314 949h48zM182 1710h64l129 -201h-41z" glyph-name="ygrave" unicode="ỳ"/><glyph d="M354 561l289 873h47l-313 -949v-485h-45v485l-314 949h48zM392.5 -97.5q15.5 -15.5 15.5 -37.5q0 -23 -15.5 -38t-38.5 -15q-20 0 -36.5 15t-16.5 38t15.5 38t37.5 15q23 0 38.5 -15.5z" glyph-name="uni1EF4" unicode="Ỵ"/><glyph d="M354 561l289 873h47l-313 -949v-485h-45v485l-314 949h48zM392.5 -97.5q15.5 -15.5 15.5 -37.5q0 -23 -15.5 -38t-38.5 -15q-20 0 -36.5 15t-16.5 38t15.5 38t37.5 15q23 0 38.5 -15.5z" glyph-name="uni1EF5" unicode="ỵ"/><glyph d="M354 561l289 873h47l-313 -949v-485h-45v485l-314 949h48zM292 1609q-42 42 -102 42l-38 39q18 6 38 6q76 0 130.5 -54.5t54.5 -132.5h-41q0 58 -42 100z" glyph-name="uni1EF6" unicode="Ỷ"/><glyph d="M354 561l289 873h47l-313 -949v-485h-45v485l-314 949h48zM292 1609q-42 42 -102 42l-38 39q18 6 38 6q76 0 130.5 -54.5t54.5 -132.5h-41q0 58 -42 100z" glyph-name="uni1EF7" unicode="ỷ"/><glyph d="M354 561l289 873h47l-313 -949v-485h-45v485l-314 949h48zM256 1581q-55 0 -113 -70l-34 29q63 76 127 84l20 2q45 0 117 -41q47 -29 84 -29q55 0 110 68l35 -27q-59 -76 -123 -84q-6 -2 -22 -2q-47 0 -109 37q-53 33 -92 33z" glyph-name="uni1EF8" unicode="Ỹ"/><glyph d="M354 561l289 873h47l-313 -949v-485h-45v485l-314 949h48zM256 1581q-55 0 -113 -70l-34 29q63 76 127 84l20 2q45 0 117 -41q47 -29 84 -29q55 0 110 68l35 -27q-59 -76 -123 -84q-6 -2 -22 -2q-47 0 -109 37q-53 33 -92 33z" glyph-name="uni1EF9" unicode="ỹ"/><glyph d="M457 713h-437v45h437v-45z" glyph-name="figuredash" horiz-adv-x="477" unicode="‒"/><glyph d="M705 713h-685v45h685v-45z" glyph-name="endash" horiz-adv-x="724" unicode="–"/><glyph d="M705 713h-685v45h685v-45z" glyph-name="emdash" horiz-adv-x="724" unicode="—"/><glyph d="M88 1261.5q-16 16.5 -16 36.5t14 50q10 20 29.5 48.5t25.5 37.5h31l-22 -58q-4 -8 -5 -14q0 -10 9 -19q25 -18 24 -45q0 -20 -15.5 -36.5t-37.5 -16.5q-21 0 -37 16.5z" glyph-name="quoteleft" horiz-adv-x="249" unicode="‘"/><glyph d="M162.5 1422.5q15.5 -15.5 15.5 -38.5q0 -20 -14 -49q-10 -20 -29.5 -49t-25.5 -37h-31l22 58q4 8 4 14q0 10 -8 18q-25 18 -24 45q0 23 16 38.5t37 15.5q22 0 37.5 -15.5z" glyph-name="quoteright" horiz-adv-x="249" unicode="’"/><glyph d="M162.5 87q15.5 -15 15.5 -38q0 -20 -14 -49q-10 -20 -29.5 -49t-25.5 -37h-31l22 57q4 8 4 15q0 10 -8 18q-25 18 -24 45q0 23 16 38t37 15q22 0 37.5 -15z" glyph-name="quotesinglbase" horiz-adv-x="249" unicode="‚"/><glyph d="M252 1261.5q-16 16.5 -16 36.5t14 50q10 20 29.5 48.5t25.5 37.5h31l-23 -58q-4 -8 -4 -14q0 -10 8 -19q25 -18 25 -45q0 -20 -15.5 -36.5t-37.5 -16.5q-21 0 -37 16.5zM88 1261.5q-16 16.5 -16 36.5t14 50q10 20 29.5 48.5t25.5 37.5h31l-22 -58q-4 -8 -5 -14 q0 -10 9 -19q25 -18 24 -45q0 -20 -15.5 -36.5t-37.5 -16.5q-21 0 -37 16.5z" glyph-name="quotedblleft" horiz-adv-x="413" unicode="“"/><glyph d="M162.5 1422.5q15.5 -15.5 15.5 -38.5q0 -20 -14 -49q-10 -20 -29.5 -49t-25.5 -37h-31l22 58q4 8 4 14q0 10 -8 18q-25 18 -24 45q0 23 16 38.5t37 15.5q22 0 37.5 -15.5zM326.5 1422.5q15.5 -15.5 15.5 -38.5q0 -20 -14 -49q-10 -20 -29.5 -49t-26.5 -37h-30l22 58 q4 8 4 14q0 10 -8 18q-25 18 -24 45q0 23 16 38.5t37 15.5q22 0 37.5 -15.5z" glyph-name="quotedblright" horiz-adv-x="413" unicode="”"/><glyph d="M171 87q15 -15 15 -38q0 -20 -14 -49q-10 -20 -29.5 -49t-25.5 -37h-31l23 57q4 8 4 15q0 10 -9 18q-25 18 -24 45q0 23 16.5 38t36.5 15q23 0 38 -15zM334.5 87q15.5 -15 15.5 -38q0 -20 -14 -49q-10 -20 -29.5 -49t-25.5 -37h-31l22 57q4 8 4 15q0 10 -8 18 q-25 18 -24 45q0 23 16 38t37 15q22 0 37.5 -15z" glyph-name="quotedblbase" horiz-adv-x="358" unicode="„"/><glyph d="M129 804.5q27 26.5 66 26.5t65.5 -26.5t26.5 -65.5t-27 -65.5t-65 -26.5q-39 0 -66 26.5t-27 65.5t27 65.5z" glyph-name="bullet" horiz-adv-x="389" unicode="•"/><glyph d="M165 87q15 -15 15 -38q0 -20 -15 -36.5t-38 -16.5q-20 0 -36.5 16.5t-16.5 36.5q0 23 16 38t37 15q23 0 38 -15zM369.5 87q15.5 -15 15.5 -38q0 -20 -15.5 -36.5t-37.5 -16.5q-20 0 -36.5 16.5t-16.5 36.5q0 23 16 38t37 15q22 0 37.5 -15zM574.5 87q15.5 -15 15.5 -38 q0 -20 -15.5 -36.5t-37.5 -16.5q-20 0 -37 16.5t-17 36.5q0 23 16.5 38t37.5 15q22 0 37.5 -15z" glyph-name="ellipsis" horiz-adv-x="663" unicode="…"/><glyph d="M993 76.5q-49 -56.5 -119 -56.5t-119.5 56.5t-49.5 136.5v20q0 80 50 137.5t119 57.5q70 0 119 -57.5t49 -137.5v-20q0 -80 -49 -136.5zM961.5 339q-35.5 44 -87.5 44q-51 0 -87.5 -44t-36.5 -106v-20q0 -61 36.5 -104t87.5 -43t87 43t36 104v20q0 62 -35.5 106z M358.5 1066q-49.5 -56 -118.5 -56q-72 0 -121 56t-49 138v19q0 80 50 137t120 57t119 -57t49 -137v-19q0 -82 -49.5 -138zM326.5 1328q-35.5 44 -86.5 44t-88 -44t-37 -105v-19q0 -63 35.5 -106t89.5 -43q51 0 86.5 43t35.5 106v19q0 61 -35.5 105zM754 1434h47l-441 -1434 h-47zM1392.5 76.5q-49.5 -56.5 -118.5 -56.5q-70 0 -120 56.5t-50 136.5v20q0 80 50 137.5t120 57.5t119 -57.5t49 -137.5v-20q0 -80 -49.5 -136.5zM1361 339q-36 44 -87 44t-88 -44t-37 -106v-20q0 -61 37 -104t88 -43t87 43t36 104v20q0 62 -36 106z" glyph-name="perthousand" horiz-adv-x="1511" unicode="‰"/><glyph d="M33 735l303 547h51l-303 -547l303 -547h-51z" glyph-name="guilsinglleft" horiz-adv-x="419" unicode="‹"/><glyph d="M389 735l-305 -547h-51l305 547l-305 547h53z" glyph-name="guilsinglright" horiz-adv-x="421" unicode="›"/><glyph d="M821 4q-70 -31 -149 -31q-172 0 -277 127q-119 147 -119 424v15h-219v45h219v274h-219v45h219q0 276 119 424q104 129 277 129q72 0 129 -22l-17 -41q-51 18 -112 18q-150 0 -242 -111q-109 -137 -108 -397h423v-45h-423v-274h423v-45h-423v-15q0 -262 108 -395 q92 -111 242 -111q72 0 131 27z" glyph-name="Euro" horiz-adv-x="872" unicode="€"/><glyph d="M623 0h-58l-512 700h285q111 0 170 58q70 63 70 196v29h-525v45h525v105q0 133 -70 198q-63 57 -170 58h-285v45h285h379v-45h-211l33 -25q84 -80 84 -231v-105h94v-45h-94v-29q0 -152 -84 -231q-74 -68 -201 -68h-195z" glyph-name="uni20B9" horiz-adv-x="757" unicode="₹"/><glyph d="M1105 1355q161 -95 253 -263t92 -377t-92 -377t-253 -262t-360 -94t-359.5 94t-252.5 262t-92 377t92 377t253 263t359 95q199 0 360 -95zM1080.5 119q150.5 88 235.5 244.5t85 351.5q0 197 -85 352.5t-235.5 244.5t-335.5 89q-184 0 -334.5 -89t-235.5 -245t-85 -352 q0 -195 85 -351.5t235.5 -244.5t334.5 -88q185 0 335.5 88zM543 616v-311h-45v828h282q102 0 175 -37t110 -95.5t37 -126.5t-37 -126t-109.5 -95t-175.5 -37h-237zM543 1087v-425h237q131 0 204 63t73 149t-73 149.5t-204 63.5h-237z" glyph-name="uni2117" horiz-adv-x="1490" unicode="℗"/><glyph d="M756 713h-684v45h684v-45z" glyph-name="minus" horiz-adv-x="827" unicode="−"/><glyph d="M567 721q-41 -39 -98 -53l182 -668h-47l-178 657q-18 -4 -59 -4h-240v-739q0 -27 18.5 -45.5t44.5 -18.5v-45q-45 0 -76.5 32t-31.5 77v1520h285q125 0 200 -70q84 -80 84 -231v-183q0 -151 -84 -229zM606 950v183q0 129 -69 198q-63 57 -170 58h-240v-691h240 q109 0 170 56q69 65 69 196z" glyph-name="uni2C64" horiz-adv-x="702" unicode="Ɽ"/><glyph d="M1135.5 1402q31.5 -32 31.5 -77h-45q0 27 -18.5 45.5t-44.5 18.5h-86l-170 -1389h-25l-268 1079l-270 -1079h-25l-174 1434h45l152 -1262l260 1034h24l258 -1034l152 1262h127q45 0 76.5 -32z" glyph-name="uni2C72" horiz-adv-x="1126" unicode="Ⱳ"/><glyph d="M1135.5 1402q31.5 -32 31.5 -77h-45q0 27 -18.5 45.5t-44.5 18.5h-86l-170 -1389h-25l-268 1079l-270 -1079h-25l-174 1434h45l152 -1262l260 1034h24l258 -1034l152 1262h127q45 0 76.5 -32z" glyph-name="uni2C73" horiz-adv-x="1126" unicode="ⱳ"/><glyph d="M721 1434v-1434h-45v713h-477v-713h-45v1389h-86q-27 0 -45.5 -18.5t-18.5 -45.5h-45q0 45 32 77t77 32h131v-676h477v676h45z" glyph-name="uniA7AA" horiz-adv-x="813" unicode="Ɦ"/><glyph glyph-name="uniAB53" horiz-adv-x="1228" unicode="ꭓ"/><glyph glyph-name="glyph558" horiz-adv-x="1228"/><glyph d="M147 0h-45v1434h45v-1434zM162.5 1600.5q15.5 -15.5 15.5 -37.5q0 -23 -15.5 -38.5t-37.5 -15.5q-20 0 -36.5 16.5t-16.5 37.5q0 23 15 38t38 15q22 0 37.5 -15.5z" glyph-name="glyph559" horiz-adv-x="249"/><glyph glyph-name="glyph560" horiz-adv-x="1228"/><glyph d="M659 1135v-846q0 -152 -84 -226q-74 -63 -200 -63h-283v692h-82v45h82v697h283q127 0 200 -70q84 -77 84 -229zM614 1135q0 133 -69 196q-61 57 -170 58h-238v-652h164v-45h-164v-647h238q240 0 239 244v846z" glyph-name="glyph561" horiz-adv-x="733"/><glyph d="M127 1389v-633h305v-45h-305v-797q0 -45 -32 -77t-77 -32v45q27 0 45.5 18.5t18.5 45.5v1520h481v-45h-436z" glyph-name="glyph562" horiz-adv-x="598"/><glyph d="M567 721q-41 -39 -98 -53l182 -668h-47l-178 657q-18 -4 -59 -4h-240v-739q0 -27 18.5 -45.5t44.5 -18.5v-45q-45 0 -76.5 32t-31.5 77v1520h285q125 0 200 -70q84 -80 84 -231v-183q0 -151 -84 -229zM606 950v183q0 129 -69 198q-63 57 -170 58h-240v-691h240 q109 0 170 56q69 65 69 196z" glyph-name="glyph563" horiz-adv-x="702"/><glyph glyph-name="glyph564" horiz-adv-x="1228"/></font>
</defs>
</svg>
